%TF.GenerationSoftware,KiCad,Pcbnew,8.0.6-hq-2-g3d73d9976a*%
%TF.CreationDate,2024-12-23T23:06:48+08:00*%
%TF.ProjectId,DemoBoard_SensorForTemp&Rh_IntegratedWithMCU,44656d6f-426f-4617-9264-5f53656e736f,rev?*%
%TF.SameCoordinates,Original*%
%TF.FileFunction,Drillmap*%
%TF.FilePolarity,Positive*%
%FSLAX45Y45*%
G04 Gerber Fmt 4.5, Leading zero omitted, Abs format (unit mm)*
G04 Created by KiCad (PCBNEW 8.0.6-hq-2-g3d73d9976a) date 2024-12-23 23:06:48*
%MOMM*%
%LPD*%
G01*
G04 APERTURE LIST*
%ADD10C,0.050000*%
%ADD11C,0.200000*%
%ADD12C,0.100000*%
%ADD13C,0.120000*%
%ADD14C,0.150000*%
G04 APERTURE END LIST*
D10*
X16281400Y-11077940D02*
G75*
G02*
X16281400Y-11204940I0J-63500D01*
G01*
X13525500Y-11557000D02*
G75*
G02*
X13525500Y-11430000I0J63500D01*
G01*
X10223500Y-11557000D02*
X9461500Y-11557000D01*
X15748000Y-9525000D02*
X16510000Y-9525000D01*
X7620000Y-13970000D02*
X7620000Y-5080000D01*
X10223500Y-11430000D02*
G75*
G02*
X10223500Y-11557000I0J-63500D01*
G01*
X12255500Y-11430000D02*
X11493500Y-11430000D01*
X15963900Y-11077940D02*
G75*
G02*
X15900400Y-11014440I0J63500D01*
G01*
X11493500Y-11557000D02*
G75*
G02*
X11493500Y-11430000I0J63500D01*
G01*
X12255500Y-11557000D02*
X11493500Y-11557000D01*
X8445500Y-11557000D02*
G75*
G02*
X8445500Y-11430000I0J63500D01*
G01*
X16319500Y-11557000D02*
X15557500Y-11557000D01*
X14287500Y-11557000D02*
X13525500Y-11557000D01*
X14541500Y-11557000D02*
G75*
G02*
X14541500Y-11430000I0J63500D01*
G01*
X14287500Y-11430000D02*
X13525500Y-11430000D01*
X14287500Y-11430000D02*
G75*
G02*
X14287500Y-11557000I0J-63500D01*
G01*
X16281400Y-10387060D02*
G75*
G02*
X16281400Y-10514060I0J-63500D01*
G01*
X12636500Y-11493500D02*
G75*
G02*
X12509500Y-11493500I-63500J0D01*
G01*
X12509500Y-11493500D02*
G75*
G02*
X12636500Y-11493500I63500J0D01*
G01*
X16281400Y-10514060D02*
X15963900Y-10514060D01*
X11239500Y-11430000D02*
G75*
G02*
X11239500Y-11557000I0J-63500D01*
G01*
X15963900Y-10387060D02*
X16281400Y-10387060D01*
X9461500Y-11557000D02*
G75*
G02*
X9461500Y-11430000I0J63500D01*
G01*
X15900400Y-10577560D02*
G75*
G02*
X15963900Y-10514060I63500J0D01*
G01*
X9207500Y-11430000D02*
G75*
G02*
X9207500Y-11557000I0J-63500D01*
G01*
X7810500Y-11557000D02*
X8191500Y-11557000D01*
X15773400Y-10935700D02*
G75*
G02*
X15900400Y-10935700I63500J0D01*
G01*
X15748000Y-6985000D02*
X15748000Y-9525000D01*
X11239500Y-11557000D02*
X10477500Y-11557000D01*
X9207500Y-11430000D02*
X8445500Y-11430000D01*
X7810500Y-11557000D02*
G75*
G02*
X7810500Y-11430000I0J63500D01*
G01*
X10223500Y-11430000D02*
X9461500Y-11430000D01*
X15963900Y-11204940D02*
X16281400Y-11204940D01*
X11239500Y-11430000D02*
X10477500Y-11430000D01*
X15900400Y-10656300D02*
G75*
G02*
X15773400Y-10656300I-63500J0D01*
G01*
X8191500Y-11430000D02*
X7810500Y-11430000D01*
X15303500Y-11430000D02*
G75*
G02*
X15303500Y-11557000I0J-63500D01*
G01*
X15303500Y-11557000D02*
X14541500Y-11557000D01*
X9207500Y-11557000D02*
X8445500Y-11557000D01*
X7620000Y-5080000D02*
X16510000Y-5080000D01*
X12255500Y-11430000D02*
G75*
G02*
X12255500Y-11557000I0J-63500D01*
G01*
X15773400Y-10935700D02*
X15773400Y-11014440D01*
X15303500Y-11430000D02*
X14541500Y-11430000D01*
X16510000Y-13970000D02*
X7620000Y-13970000D01*
X15773400Y-10656300D02*
X15773400Y-10577560D01*
X13119100Y-11493500D02*
G75*
G02*
X12992100Y-11493500I-63500J0D01*
G01*
X12992100Y-11493500D02*
G75*
G02*
X13119100Y-11493500I63500J0D01*
G01*
X15900400Y-10935700D02*
X15900400Y-11014440D01*
X8191500Y-11430000D02*
G75*
G02*
X8191500Y-11557000I0J-63500D01*
G01*
X16319500Y-11430000D02*
X15557500Y-11430000D01*
X15557500Y-11557000D02*
G75*
G02*
X15557500Y-11430000I0J63500D01*
G01*
X13398500Y-11493500D02*
G75*
G02*
X13271500Y-11493500I-63500J0D01*
G01*
X13271500Y-11493500D02*
G75*
G02*
X13398500Y-11493500I63500J0D01*
G01*
X16510000Y-6985000D02*
X15748000Y-6985000D01*
X15963900Y-11204940D02*
G75*
G02*
X15773400Y-11014440I0J190500D01*
G01*
X10477500Y-11557000D02*
G75*
G02*
X10477500Y-11430000I0J63500D01*
G01*
X16319500Y-11430000D02*
G75*
G02*
X16319500Y-11557000I0J-63500D01*
G01*
X15773400Y-10577560D02*
G75*
G02*
X15963900Y-10387060I190500J0D01*
G01*
X15900400Y-10656300D02*
X15900400Y-10577560D01*
X16281400Y-11077940D02*
X15963900Y-11077940D01*
X16510000Y-5080000D02*
X16510000Y-6985000D01*
X16510000Y-9525000D02*
X16510000Y-13970000D01*
D11*
D12*
X7833600Y-10208500D02*
X7863600Y-10238500D01*
X7863600Y-10208500D02*
X7833600Y-10238500D01*
X7859000Y-8087600D02*
X7889000Y-8117600D01*
X7889000Y-8087600D02*
X7859000Y-8117600D01*
X7859000Y-12989800D02*
X7889000Y-13019800D01*
X7889000Y-12989800D02*
X7859000Y-13019800D01*
X7859000Y-13345400D02*
X7889000Y-13375400D01*
X7889000Y-13345400D02*
X7859000Y-13375400D01*
X7897100Y-6627100D02*
X7927100Y-6657100D01*
X7927100Y-6627100D02*
X7897100Y-6657100D01*
X7922500Y-9027400D02*
X7952500Y-9057400D01*
X7952500Y-9027400D02*
X7922500Y-9057400D01*
X7935200Y-10970500D02*
X7965200Y-11000500D01*
X7965200Y-10970500D02*
X7935200Y-11000500D01*
X7973300Y-7300200D02*
X8003300Y-7330200D01*
X8003300Y-7300200D02*
X7973300Y-7330200D01*
X7986000Y-13599400D02*
X8016000Y-13629400D01*
X8016000Y-13599400D02*
X7986000Y-13629400D01*
X8074900Y-9827500D02*
X8104900Y-9857500D01*
X8104900Y-9827500D02*
X8074900Y-9857500D01*
X8201900Y-5776200D02*
X8231900Y-5806200D01*
X8231900Y-5776200D02*
X8201900Y-5806200D01*
X8417800Y-13739100D02*
X8447800Y-13769100D01*
X8447800Y-13739100D02*
X8417800Y-13769100D01*
X8875000Y-8113000D02*
X8905000Y-8143000D01*
X8905000Y-8113000D02*
X8875000Y-8143000D01*
X8887700Y-5407900D02*
X8917700Y-5437900D01*
X8917700Y-5407900D02*
X8887700Y-5437900D01*
X9002000Y-7859000D02*
X9032000Y-7889000D01*
X9032000Y-7859000D02*
X9002000Y-7889000D01*
X9002000Y-8367000D02*
X9032000Y-8397000D01*
X9032000Y-8367000D02*
X9002000Y-8397000D01*
X9192500Y-13688300D02*
X9222500Y-13718300D01*
X9222500Y-13688300D02*
X9192500Y-13718300D01*
X9256000Y-7732000D02*
X9286000Y-7762000D01*
X9286000Y-7732000D02*
X9256000Y-7762000D01*
X9256000Y-8494000D02*
X9286000Y-8524000D01*
X9286000Y-8494000D02*
X9256000Y-8524000D01*
X9510000Y-7732000D02*
X9540000Y-7762000D01*
X9540000Y-7732000D02*
X9510000Y-7762000D01*
X9510000Y-8494000D02*
X9540000Y-8524000D01*
X9540000Y-8494000D02*
X9510000Y-8524000D01*
X9764000Y-7859000D02*
X9794000Y-7889000D01*
X9794000Y-7859000D02*
X9764000Y-7889000D01*
X9764000Y-8367000D02*
X9794000Y-8397000D01*
X9794000Y-8367000D02*
X9764000Y-8397000D01*
X9891000Y-8113000D02*
X9921000Y-8143000D01*
X9921000Y-8113000D02*
X9891000Y-8143000D01*
X10056100Y-5458700D02*
X10086100Y-5488700D01*
X10086100Y-5458700D02*
X10056100Y-5488700D01*
X10208500Y-7198600D02*
X10238500Y-7228600D01*
X10238500Y-7198600D02*
X10208500Y-7228600D01*
X10386300Y-7236700D02*
X10416300Y-7266700D01*
X10416300Y-7236700D02*
X10386300Y-7266700D01*
X10411700Y-13751800D02*
X10441700Y-13781800D01*
X10441700Y-13751800D02*
X10411700Y-13781800D01*
X10792700Y-7325600D02*
X10822700Y-7355600D01*
X10822700Y-7325600D02*
X10792700Y-7355600D01*
X10792700Y-9852900D02*
X10822700Y-9882900D01*
X10822700Y-9852900D02*
X10792700Y-9882900D01*
X10805400Y-13751800D02*
X10835400Y-13781800D01*
X10835400Y-13751800D02*
X10805400Y-13781800D01*
X10830800Y-9357600D02*
X10860800Y-9387600D01*
X10860800Y-9357600D02*
X10830800Y-9387600D01*
X10868900Y-7986000D02*
X10898900Y-8016000D01*
X10898900Y-7986000D02*
X10868900Y-8016000D01*
X10868900Y-9230600D02*
X10898900Y-9260600D01*
X10898900Y-9230600D02*
X10868900Y-9260600D01*
X10932400Y-10399000D02*
X10962400Y-10429000D01*
X10962400Y-10399000D02*
X10932400Y-10429000D01*
X11034000Y-10640300D02*
X11064000Y-10670300D01*
X11064000Y-10640300D02*
X11034000Y-10670300D01*
X11046700Y-7541500D02*
X11076700Y-7571500D01*
X11076700Y-7541500D02*
X11046700Y-7571500D01*
X11059400Y-7719300D02*
X11089400Y-7749300D01*
X11089400Y-7719300D02*
X11059400Y-7749300D01*
X11072100Y-10868900D02*
X11102100Y-10898900D01*
X11102100Y-10868900D02*
X11072100Y-10898900D01*
X11072100Y-11249900D02*
X11102100Y-11279900D01*
X11102100Y-11249900D02*
X11072100Y-11279900D01*
X11211800Y-13764500D02*
X11241800Y-13794500D01*
X11241800Y-13764500D02*
X11211800Y-13794500D01*
X11326100Y-9179800D02*
X11356100Y-9209800D01*
X11356100Y-9179800D02*
X11326100Y-9209800D01*
X11327096Y-12622496D02*
X11357096Y-12652496D01*
X11357096Y-12622496D02*
X11327096Y-12652496D01*
X11415000Y-13777200D02*
X11445000Y-13807200D01*
X11445000Y-13777200D02*
X11415000Y-13807200D01*
X11427700Y-9738600D02*
X11457700Y-9768600D01*
X11457700Y-9738600D02*
X11427700Y-9768600D01*
X11453100Y-9611600D02*
X11483100Y-9641600D01*
X11483100Y-9611600D02*
X11453100Y-9641600D01*
X11491200Y-12786600D02*
X11521200Y-12816600D01*
X11521200Y-12786600D02*
X11491200Y-12816600D01*
X11503900Y-5649200D02*
X11533900Y-5679200D01*
X11533900Y-5649200D02*
X11503900Y-5679200D01*
X11516600Y-10056100D02*
X11546600Y-10086100D01*
X11546600Y-10056100D02*
X11516600Y-10086100D01*
X11554700Y-10538700D02*
X11584700Y-10568700D01*
X11584700Y-10538700D02*
X11554700Y-10568700D01*
X11618200Y-11199100D02*
X11648200Y-11229100D01*
X11648200Y-11199100D02*
X11618200Y-11229100D01*
X11669000Y-13104100D02*
X11699000Y-13134100D01*
X11699000Y-13104100D02*
X11669000Y-13134100D01*
X11681700Y-9560800D02*
X11711700Y-9590800D01*
X11711700Y-9560800D02*
X11681700Y-9590800D01*
X11694400Y-9840200D02*
X11724400Y-9870200D01*
X11724400Y-9840200D02*
X11694400Y-9870200D01*
X11694400Y-10932400D02*
X11724400Y-10962400D01*
X11724400Y-10932400D02*
X11694400Y-10962400D01*
X11719800Y-10602200D02*
X11749800Y-10632200D01*
X11749800Y-10602200D02*
X11719800Y-10632200D01*
X11829000Y-13066000D02*
X11859000Y-13096000D01*
X11859000Y-13066000D02*
X11829000Y-13096000D01*
X11884900Y-7681200D02*
X11914900Y-7711200D01*
X11914900Y-7681200D02*
X11884900Y-7711200D01*
X11910300Y-13022820D02*
X11940300Y-13052820D01*
X11940300Y-13022820D02*
X11910300Y-13052820D01*
X11948400Y-8328900D02*
X11978400Y-8358900D01*
X11978400Y-8328900D02*
X11948400Y-8358900D01*
X11979000Y-13104100D02*
X12009000Y-13134100D01*
X12009000Y-13104100D02*
X11979000Y-13134100D01*
X11986500Y-9675100D02*
X12016500Y-9705100D01*
X12016500Y-9675100D02*
X11986500Y-9705100D01*
X11999200Y-13662900D02*
X12029200Y-13692900D01*
X12029200Y-13662900D02*
X11999200Y-13692900D01*
X12011900Y-12304000D02*
X12041900Y-12334000D01*
X12041900Y-12304000D02*
X12011900Y-12334000D01*
X12037300Y-12824700D02*
X12067300Y-12854700D01*
X12067300Y-12824700D02*
X12037300Y-12854700D01*
X12062700Y-9027400D02*
X12092700Y-9057400D01*
X12092700Y-9027400D02*
X12062700Y-9057400D01*
X12077940Y-13066000D02*
X12107940Y-13096000D01*
X12107940Y-13066000D02*
X12077940Y-13096000D01*
X12113500Y-9852900D02*
X12143500Y-9882900D01*
X12143500Y-9852900D02*
X12113500Y-9882900D01*
X12113500Y-12621500D02*
X12143500Y-12651500D01*
X12143500Y-12621500D02*
X12113500Y-12651500D01*
X12126200Y-11122900D02*
X12156200Y-11152900D01*
X12156200Y-11122900D02*
X12126200Y-11152900D01*
X12179000Y-13104100D02*
X12209000Y-13134100D01*
X12209000Y-13104100D02*
X12179000Y-13134100D01*
X12240500Y-10513300D02*
X12270500Y-10543300D01*
X12270500Y-10513300D02*
X12240500Y-10543300D01*
X12240500Y-12621500D02*
X12270500Y-12651500D01*
X12270500Y-12621500D02*
X12240500Y-12651500D01*
X12278600Y-7808200D02*
X12308600Y-7838200D01*
X12308600Y-7808200D02*
X12278600Y-7838200D01*
X12316700Y-11935700D02*
X12346700Y-11965700D01*
X12346700Y-11935700D02*
X12316700Y-11965700D01*
X12335750Y-12145250D02*
X12365750Y-12175250D01*
X12365750Y-12145250D02*
X12335750Y-12175250D01*
X12335750Y-12208750D02*
X12365750Y-12238750D01*
X12365750Y-12208750D02*
X12335750Y-12238750D01*
X12335750Y-12272250D02*
X12365750Y-12302250D01*
X12365750Y-12272250D02*
X12335750Y-12302250D01*
X12367500Y-12723100D02*
X12397500Y-12753100D01*
X12397500Y-12723100D02*
X12367500Y-12753100D01*
X12392900Y-11719800D02*
X12422900Y-11749800D01*
X12422900Y-11719800D02*
X12392900Y-11749800D01*
X12418300Y-12842480D02*
X12448300Y-12872480D01*
X12448300Y-12842480D02*
X12418300Y-12872480D01*
X12431000Y-13027900D02*
X12461000Y-13057900D01*
X12461000Y-13027900D02*
X12431000Y-13057900D01*
X12443700Y-9738600D02*
X12473700Y-9768600D01*
X12473700Y-9738600D02*
X12443700Y-9768600D01*
X12443700Y-12577050D02*
X12473700Y-12607050D01*
X12473700Y-12577050D02*
X12443700Y-12607050D01*
X12456400Y-10919700D02*
X12486400Y-10949700D01*
X12486400Y-10919700D02*
X12456400Y-10949700D01*
X12532600Y-9967200D02*
X12562600Y-9997200D01*
X12562600Y-9967200D02*
X12532600Y-9997200D01*
X12558000Y-10526000D02*
X12588000Y-10556000D01*
X12588000Y-10526000D02*
X12558000Y-10556000D01*
X12588480Y-12753600D02*
X12618480Y-12783600D01*
X12618480Y-12753600D02*
X12588480Y-12783600D01*
X12611340Y-11945860D02*
X12641340Y-11975860D01*
X12641340Y-11945860D02*
X12611340Y-11975860D01*
X12634200Y-5471400D02*
X12664200Y-5501400D01*
X12664200Y-5471400D02*
X12634200Y-5501400D01*
X12664045Y-11124805D02*
X12694045Y-11154805D01*
X12694045Y-11124805D02*
X12664045Y-11154805D01*
X12679000Y-13022820D02*
X12709000Y-13052820D01*
X12709000Y-13022820D02*
X12679000Y-13052820D01*
X12685000Y-12367500D02*
X12715000Y-12397500D01*
X12715000Y-12367500D02*
X12685000Y-12397500D01*
X12697700Y-7541500D02*
X12727700Y-7571500D01*
X12727700Y-7541500D02*
X12697700Y-7571500D01*
X12697700Y-9179800D02*
X12727700Y-9209800D01*
X12727700Y-9179800D02*
X12697700Y-9209800D01*
X12697700Y-11300700D02*
X12727700Y-11330700D01*
X12727700Y-11300700D02*
X12697700Y-11330700D01*
X12779000Y-12753600D02*
X12809000Y-12783600D01*
X12809000Y-12753600D02*
X12779000Y-12783600D01*
X12824700Y-9738600D02*
X12854700Y-9768600D01*
X12854700Y-9738600D02*
X12824700Y-9768600D01*
X12837400Y-12494500D02*
X12867400Y-12524500D01*
X12867400Y-12494500D02*
X12837400Y-12524500D01*
X12837400Y-13777200D02*
X12867400Y-13807200D01*
X12867400Y-13777200D02*
X12837400Y-13807200D01*
X12875500Y-8227300D02*
X12905500Y-8257300D01*
X12905500Y-8227300D02*
X12875500Y-8257300D01*
X12888200Y-12792950D02*
X12918200Y-12822950D01*
X12918200Y-12792950D02*
X12888200Y-12822950D01*
X12900900Y-10475200D02*
X12930900Y-10505200D01*
X12930900Y-10475200D02*
X12900900Y-10505200D01*
X12913600Y-9611600D02*
X12943600Y-9641600D01*
X12943600Y-9611600D02*
X12913600Y-9641600D01*
X12917410Y-11643600D02*
X12947410Y-11673600D01*
X12947410Y-11643600D02*
X12917410Y-11673600D01*
X12927928Y-10095828D02*
X12957928Y-10125828D01*
X12957928Y-10095828D02*
X12927928Y-10125828D01*
X12939000Y-10995900D02*
X12969000Y-11025900D01*
X12969000Y-10995900D02*
X12939000Y-11025900D01*
X13078700Y-10576800D02*
X13108700Y-10606800D01*
X13108700Y-10576800D02*
X13078700Y-10606800D01*
X13111720Y-10033240D02*
X13141720Y-10063240D01*
X13141720Y-10033240D02*
X13111720Y-10063240D01*
X13180300Y-9052800D02*
X13210300Y-9082800D01*
X13210300Y-9052800D02*
X13180300Y-9082800D01*
X13218400Y-9601440D02*
X13248400Y-9631440D01*
X13248400Y-9601440D02*
X13218400Y-9631440D01*
X13243800Y-7719300D02*
X13273800Y-7749300D01*
X13273800Y-7719300D02*
X13243800Y-7749300D01*
X13275550Y-10329150D02*
X13305550Y-10359150D01*
X13305550Y-10329150D02*
X13275550Y-10359150D01*
X13383500Y-8036800D02*
X13413500Y-8066800D01*
X13413500Y-8036800D02*
X13383500Y-8066800D01*
X13408900Y-9192500D02*
X13438900Y-9222500D01*
X13438900Y-9192500D02*
X13408900Y-9222500D01*
X13459700Y-10246600D02*
X13489700Y-10276600D01*
X13489700Y-10246600D02*
X13459700Y-10276600D01*
X13523200Y-9776700D02*
X13553200Y-9806700D01*
X13553200Y-9776700D02*
X13523200Y-9806700D01*
X13581620Y-10592040D02*
X13611620Y-10622040D01*
X13611620Y-10592040D02*
X13581620Y-10622040D01*
X13594320Y-9718280D02*
X13624320Y-9748280D01*
X13624320Y-9718280D02*
X13594320Y-9748280D01*
X13624800Y-11199100D02*
X13654800Y-11229100D01*
X13654800Y-11199100D02*
X13624800Y-11229100D01*
X13647025Y-10325975D02*
X13677025Y-10355975D01*
X13677025Y-10325975D02*
X13647025Y-10355975D01*
X13751800Y-9673395D02*
X13781800Y-9703395D01*
X13781800Y-9673395D02*
X13751800Y-9703395D01*
X13764500Y-7630400D02*
X13794500Y-7660400D01*
X13794500Y-7630400D02*
X13764500Y-7660400D01*
X13777200Y-13701000D02*
X13807200Y-13731000D01*
X13807200Y-13701000D02*
X13777200Y-13731000D01*
X13828000Y-11249900D02*
X13858000Y-11279900D01*
X13858000Y-11249900D02*
X13828000Y-11279900D01*
X13853400Y-8557500D02*
X13883400Y-8587500D01*
X13883400Y-8557500D02*
X13853400Y-8587500D01*
X13985480Y-9855440D02*
X14015480Y-9885440D01*
X14015480Y-9855440D02*
X13985480Y-9885440D01*
X14031200Y-10729200D02*
X14061200Y-10759200D01*
X14061200Y-10729200D02*
X14031200Y-10759200D01*
X14051520Y-9941800D02*
X14081520Y-9971800D01*
X14081520Y-9941800D02*
X14051520Y-9971800D01*
X14109940Y-8049500D02*
X14139940Y-8079500D01*
X14139940Y-8049500D02*
X14109940Y-8079500D01*
X14112480Y-8303500D02*
X14142480Y-8333500D01*
X14142480Y-8303500D02*
X14112480Y-8333500D01*
X14196300Y-10792700D02*
X14226300Y-10822700D01*
X14226300Y-10792700D02*
X14196300Y-10822700D01*
X14234400Y-5585700D02*
X14264400Y-5615700D01*
X14264400Y-5585700D02*
X14234400Y-5615700D01*
X14336000Y-10399000D02*
X14366000Y-10429000D01*
X14366000Y-10399000D02*
X14336000Y-10429000D01*
X14386800Y-9446500D02*
X14416800Y-9476500D01*
X14416800Y-9446500D02*
X14386800Y-9476500D01*
X14399500Y-10462500D02*
X14429500Y-10492500D01*
X14429500Y-10462500D02*
X14399500Y-10492500D01*
X14475700Y-8544800D02*
X14505700Y-8574800D01*
X14505700Y-8544800D02*
X14475700Y-8574800D01*
X14501100Y-7757400D02*
X14531100Y-7787400D01*
X14531100Y-7757400D02*
X14501100Y-7787400D01*
X14539200Y-13523200D02*
X14569200Y-13553200D01*
X14569200Y-13523200D02*
X14539200Y-13553200D01*
X14577300Y-8138400D02*
X14607300Y-8168400D01*
X14607300Y-8138400D02*
X14577300Y-8168400D01*
X14615400Y-8367000D02*
X14645400Y-8397000D01*
X14645400Y-8367000D02*
X14615400Y-8397000D01*
X14615400Y-9322040D02*
X14645400Y-9352040D01*
X14645400Y-9322040D02*
X14615400Y-9352040D01*
X14640800Y-8595600D02*
X14670800Y-8625600D01*
X14670800Y-8595600D02*
X14640800Y-8625600D01*
X14678900Y-8265400D02*
X14708900Y-8295400D01*
X14708900Y-8265400D02*
X14678900Y-8295400D01*
X14691600Y-11262600D02*
X14721600Y-11292600D01*
X14721600Y-11262600D02*
X14691600Y-11292600D01*
X14717000Y-7795500D02*
X14747000Y-7825500D01*
X14747000Y-7795500D02*
X14717000Y-7825500D01*
X14793200Y-8519400D02*
X14823200Y-8549400D01*
X14823200Y-8519400D02*
X14793200Y-8549400D01*
X14868519Y-9091781D02*
X14898519Y-9121781D01*
X14898519Y-9091781D02*
X14868519Y-9121781D01*
X14882100Y-8138400D02*
X14912100Y-8168400D01*
X14912100Y-8138400D02*
X14882100Y-8168400D01*
X14932900Y-13726400D02*
X14962900Y-13756400D01*
X14962900Y-13726400D02*
X14932900Y-13756400D01*
X14971000Y-8176500D02*
X15001000Y-8206500D01*
X15001000Y-8176500D02*
X14971000Y-8206500D01*
X14971000Y-8316200D02*
X15001000Y-8346200D01*
X15001000Y-8316200D02*
X14971000Y-8346200D01*
X14971000Y-8659100D02*
X15001000Y-8689100D01*
X15001000Y-8659100D02*
X14971000Y-8689100D01*
X15034500Y-11288000D02*
X15064500Y-11318000D01*
X15064500Y-11288000D02*
X15034500Y-11318000D01*
X15085300Y-8074900D02*
X15115300Y-8104900D01*
X15115300Y-8074900D02*
X15085300Y-8104900D01*
X15110700Y-5598400D02*
X15140700Y-5628400D01*
X15140700Y-5598400D02*
X15110700Y-5628400D01*
X15110700Y-11016220D02*
X15140700Y-11046220D01*
X15140700Y-11016220D02*
X15110700Y-11046220D01*
X15136100Y-10213580D02*
X15166100Y-10243580D01*
X15166100Y-10213580D02*
X15136100Y-10243580D01*
X15148800Y-8455900D02*
X15178800Y-8485900D01*
X15178800Y-8455900D02*
X15148800Y-8485900D01*
X15161500Y-11262600D02*
X15191500Y-11292600D01*
X15191500Y-11262600D02*
X15161500Y-11292600D01*
X15186900Y-8646400D02*
X15216900Y-8676400D01*
X15216900Y-8646400D02*
X15186900Y-8676400D01*
X15225000Y-10399000D02*
X15255000Y-10429000D01*
X15255000Y-10399000D02*
X15225000Y-10429000D01*
X15225000Y-10843500D02*
X15255000Y-10873500D01*
X15255000Y-10843500D02*
X15225000Y-10873500D01*
X15275800Y-8113000D02*
X15305800Y-8143000D01*
X15305800Y-8113000D02*
X15275800Y-8143000D01*
X15313900Y-8316200D02*
X15343900Y-8346200D01*
X15343900Y-8316200D02*
X15313900Y-8346200D01*
X15313900Y-8608300D02*
X15343900Y-8638300D01*
X15343900Y-8608300D02*
X15313900Y-8638300D01*
X15313900Y-13777200D02*
X15343900Y-13807200D01*
X15343900Y-13777200D02*
X15313900Y-13807200D01*
X15336760Y-8788640D02*
X15366760Y-8818640D01*
X15366760Y-8788640D02*
X15336760Y-8818640D01*
X15339300Y-10627600D02*
X15369300Y-10657600D01*
X15369300Y-10627600D02*
X15339300Y-10657600D01*
X15390100Y-9446500D02*
X15420100Y-9476500D01*
X15420100Y-9446500D02*
X15390100Y-9476500D01*
X15428200Y-7706600D02*
X15458200Y-7736600D01*
X15458200Y-7706600D02*
X15428200Y-7736600D01*
X15453600Y-6766800D02*
X15483600Y-6796800D01*
X15483600Y-6766800D02*
X15453600Y-6796800D01*
X15580600Y-7401800D02*
X15610600Y-7431800D01*
X15610600Y-7401800D02*
X15580600Y-7431800D01*
X15580600Y-9408400D02*
X15610600Y-9438400D01*
X15610600Y-9408400D02*
X15580600Y-9438400D01*
X15606000Y-7274800D02*
X15636000Y-7304800D01*
X15636000Y-7274800D02*
X15606000Y-7304800D01*
X15618700Y-9243300D02*
X15648700Y-9273300D01*
X15648700Y-9243300D02*
X15618700Y-9273300D01*
X15650450Y-10781000D02*
X15680450Y-10811000D01*
X15680450Y-10781000D02*
X15650450Y-10811000D01*
X16037800Y-13650200D02*
X16067800Y-13680200D01*
X16067800Y-13650200D02*
X16037800Y-13680200D01*
X16088600Y-10781000D02*
X16118600Y-10811000D01*
X16118600Y-10781000D02*
X16088600Y-10811000D01*
X16190200Y-10781000D02*
X16220200Y-10811000D01*
X16220200Y-10781000D02*
X16190200Y-10811000D01*
X16190200Y-11948400D02*
X16220200Y-11978400D01*
X16220200Y-11948400D02*
X16190200Y-11978400D01*
X16228300Y-13078700D02*
X16258300Y-13108700D01*
X16258300Y-13078700D02*
X16228300Y-13108700D01*
X16342600Y-12532600D02*
X16372600Y-12562600D01*
X16372600Y-12532600D02*
X16342600Y-12562600D01*
X13684759Y-10033000D02*
G75*
G02*
X13654759Y-10033000I-15000J0D01*
G01*
X13654759Y-10033000D02*
G75*
G02*
X13684759Y-10033000I15000J0D01*
G01*
X13759005Y-9958754D02*
G75*
G02*
X13729005Y-9958754I-15000J0D01*
G01*
X13729005Y-9958754D02*
G75*
G02*
X13759005Y-9958754I15000J0D01*
G01*
X13759005Y-10107246D02*
G75*
G02*
X13729005Y-10107246I-15000J0D01*
G01*
X13729005Y-10107246D02*
G75*
G02*
X13759005Y-10107246I15000J0D01*
G01*
X13833251Y-10033000D02*
G75*
G02*
X13803251Y-10033000I-15000J0D01*
G01*
X13803251Y-10033000D02*
G75*
G02*
X13833251Y-10033000I15000J0D01*
G01*
D13*
X11430000Y-7814000D02*
X11430000Y-7934000D01*
X11370000Y-7874000D02*
X11490000Y-7874000D01*
X11430000Y-8068000D02*
X11430000Y-8188000D01*
X11370000Y-8128000D02*
X11490000Y-8128000D01*
X11430000Y-8322000D02*
X11430000Y-8442000D01*
X11370000Y-8382000D02*
X11490000Y-8382000D01*
X11430000Y-8576000D02*
X11430000Y-8696000D01*
X11370000Y-8636000D02*
X11490000Y-8636000D01*
X11430000Y-8830000D02*
X11430000Y-8950000D01*
X11370000Y-8890000D02*
X11490000Y-8890000D01*
D14*
X9266884Y-7303463D02*
X9266884Y-7197396D01*
X9160817Y-7197396D01*
X9160817Y-7303463D01*
X9266884Y-7303463D01*
X9266884Y-9291464D02*
X9266884Y-9185397D01*
X9160817Y-9185397D01*
X9160817Y-9291464D01*
X9266884Y-9291464D01*
D11*
X7878277Y-14283984D02*
X7878277Y-14083984D01*
X7878277Y-14083984D02*
X7925896Y-14083984D01*
X7925896Y-14083984D02*
X7954467Y-14093508D01*
X7954467Y-14093508D02*
X7973515Y-14112555D01*
X7973515Y-14112555D02*
X7983039Y-14131603D01*
X7983039Y-14131603D02*
X7992562Y-14169698D01*
X7992562Y-14169698D02*
X7992562Y-14198269D01*
X7992562Y-14198269D02*
X7983039Y-14236365D01*
X7983039Y-14236365D02*
X7973515Y-14255412D01*
X7973515Y-14255412D02*
X7954467Y-14274460D01*
X7954467Y-14274460D02*
X7925896Y-14283984D01*
X7925896Y-14283984D02*
X7878277Y-14283984D01*
X8078277Y-14283984D02*
X8078277Y-14150650D01*
X8078277Y-14188746D02*
X8087801Y-14169698D01*
X8087801Y-14169698D02*
X8097324Y-14160174D01*
X8097324Y-14160174D02*
X8116372Y-14150650D01*
X8116372Y-14150650D02*
X8135420Y-14150650D01*
X8202086Y-14283984D02*
X8202086Y-14150650D01*
X8202086Y-14083984D02*
X8192562Y-14093508D01*
X8192562Y-14093508D02*
X8202086Y-14103031D01*
X8202086Y-14103031D02*
X8211610Y-14093508D01*
X8211610Y-14093508D02*
X8202086Y-14083984D01*
X8202086Y-14083984D02*
X8202086Y-14103031D01*
X8325896Y-14283984D02*
X8306848Y-14274460D01*
X8306848Y-14274460D02*
X8297324Y-14255412D01*
X8297324Y-14255412D02*
X8297324Y-14083984D01*
X8430658Y-14283984D02*
X8411610Y-14274460D01*
X8411610Y-14274460D02*
X8402086Y-14255412D01*
X8402086Y-14255412D02*
X8402086Y-14083984D01*
X8659229Y-14283984D02*
X8659229Y-14083984D01*
X8659229Y-14083984D02*
X8725896Y-14226841D01*
X8725896Y-14226841D02*
X8792563Y-14083984D01*
X8792563Y-14083984D02*
X8792563Y-14283984D01*
X8973515Y-14283984D02*
X8973515Y-14179222D01*
X8973515Y-14179222D02*
X8963991Y-14160174D01*
X8963991Y-14160174D02*
X8944944Y-14150650D01*
X8944944Y-14150650D02*
X8906848Y-14150650D01*
X8906848Y-14150650D02*
X8887801Y-14160174D01*
X8973515Y-14274460D02*
X8954467Y-14283984D01*
X8954467Y-14283984D02*
X8906848Y-14283984D01*
X8906848Y-14283984D02*
X8887801Y-14274460D01*
X8887801Y-14274460D02*
X8878277Y-14255412D01*
X8878277Y-14255412D02*
X8878277Y-14236365D01*
X8878277Y-14236365D02*
X8887801Y-14217317D01*
X8887801Y-14217317D02*
X8906848Y-14207793D01*
X8906848Y-14207793D02*
X8954467Y-14207793D01*
X8954467Y-14207793D02*
X8973515Y-14198269D01*
X9068753Y-14150650D02*
X9068753Y-14350650D01*
X9068753Y-14160174D02*
X9087801Y-14150650D01*
X9087801Y-14150650D02*
X9125896Y-14150650D01*
X9125896Y-14150650D02*
X9144944Y-14160174D01*
X9144944Y-14160174D02*
X9154467Y-14169698D01*
X9154467Y-14169698D02*
X9163991Y-14188746D01*
X9163991Y-14188746D02*
X9163991Y-14245888D01*
X9163991Y-14245888D02*
X9154467Y-14264936D01*
X9154467Y-14264936D02*
X9144944Y-14274460D01*
X9144944Y-14274460D02*
X9125896Y-14283984D01*
X9125896Y-14283984D02*
X9087801Y-14283984D01*
X9087801Y-14283984D02*
X9068753Y-14274460D01*
X9249705Y-14264936D02*
X9259229Y-14274460D01*
X9259229Y-14274460D02*
X9249705Y-14283984D01*
X9249705Y-14283984D02*
X9240182Y-14274460D01*
X9240182Y-14274460D02*
X9249705Y-14264936D01*
X9249705Y-14264936D02*
X9249705Y-14283984D01*
X9249705Y-14160174D02*
X9259229Y-14169698D01*
X9259229Y-14169698D02*
X9249705Y-14179222D01*
X9249705Y-14179222D02*
X9240182Y-14169698D01*
X9240182Y-14169698D02*
X9249705Y-14160174D01*
X9249705Y-14160174D02*
X9249705Y-14179222D01*
D12*
X7587500Y-14597500D02*
X7617500Y-14627500D01*
X7617500Y-14597500D02*
X7587500Y-14627500D01*
D11*
X7916372Y-14503984D02*
X7935420Y-14503984D01*
X7935420Y-14503984D02*
X7954467Y-14513508D01*
X7954467Y-14513508D02*
X7963991Y-14523031D01*
X7963991Y-14523031D02*
X7973515Y-14542079D01*
X7973515Y-14542079D02*
X7983039Y-14580174D01*
X7983039Y-14580174D02*
X7983039Y-14627793D01*
X7983039Y-14627793D02*
X7973515Y-14665888D01*
X7973515Y-14665888D02*
X7963991Y-14684936D01*
X7963991Y-14684936D02*
X7954467Y-14694460D01*
X7954467Y-14694460D02*
X7935420Y-14703984D01*
X7935420Y-14703984D02*
X7916372Y-14703984D01*
X7916372Y-14703984D02*
X7897324Y-14694460D01*
X7897324Y-14694460D02*
X7887801Y-14684936D01*
X7887801Y-14684936D02*
X7878277Y-14665888D01*
X7878277Y-14665888D02*
X7868753Y-14627793D01*
X7868753Y-14627793D02*
X7868753Y-14580174D01*
X7868753Y-14580174D02*
X7878277Y-14542079D01*
X7878277Y-14542079D02*
X7887801Y-14523031D01*
X7887801Y-14523031D02*
X7897324Y-14513508D01*
X7897324Y-14513508D02*
X7916372Y-14503984D01*
X8068753Y-14684936D02*
X8078277Y-14694460D01*
X8078277Y-14694460D02*
X8068753Y-14703984D01*
X8068753Y-14703984D02*
X8059229Y-14694460D01*
X8059229Y-14694460D02*
X8068753Y-14684936D01*
X8068753Y-14684936D02*
X8068753Y-14703984D01*
X8144943Y-14503984D02*
X8268753Y-14503984D01*
X8268753Y-14503984D02*
X8202086Y-14580174D01*
X8202086Y-14580174D02*
X8230658Y-14580174D01*
X8230658Y-14580174D02*
X8249705Y-14589698D01*
X8249705Y-14589698D02*
X8259229Y-14599222D01*
X8259229Y-14599222D02*
X8268753Y-14618269D01*
X8268753Y-14618269D02*
X8268753Y-14665888D01*
X8268753Y-14665888D02*
X8259229Y-14684936D01*
X8259229Y-14684936D02*
X8249705Y-14694460D01*
X8249705Y-14694460D02*
X8230658Y-14703984D01*
X8230658Y-14703984D02*
X8173515Y-14703984D01*
X8173515Y-14703984D02*
X8154467Y-14694460D01*
X8154467Y-14694460D02*
X8144943Y-14684936D01*
X8392563Y-14503984D02*
X8411610Y-14503984D01*
X8411610Y-14503984D02*
X8430658Y-14513508D01*
X8430658Y-14513508D02*
X8440182Y-14523031D01*
X8440182Y-14523031D02*
X8449705Y-14542079D01*
X8449705Y-14542079D02*
X8459229Y-14580174D01*
X8459229Y-14580174D02*
X8459229Y-14627793D01*
X8459229Y-14627793D02*
X8449705Y-14665888D01*
X8449705Y-14665888D02*
X8440182Y-14684936D01*
X8440182Y-14684936D02*
X8430658Y-14694460D01*
X8430658Y-14694460D02*
X8411610Y-14703984D01*
X8411610Y-14703984D02*
X8392563Y-14703984D01*
X8392563Y-14703984D02*
X8373515Y-14694460D01*
X8373515Y-14694460D02*
X8363991Y-14684936D01*
X8363991Y-14684936D02*
X8354467Y-14665888D01*
X8354467Y-14665888D02*
X8344943Y-14627793D01*
X8344943Y-14627793D02*
X8344943Y-14580174D01*
X8344943Y-14580174D02*
X8354467Y-14542079D01*
X8354467Y-14542079D02*
X8363991Y-14523031D01*
X8363991Y-14523031D02*
X8373515Y-14513508D01*
X8373515Y-14513508D02*
X8392563Y-14503984D01*
X8583039Y-14503984D02*
X8602086Y-14503984D01*
X8602086Y-14503984D02*
X8621134Y-14513508D01*
X8621134Y-14513508D02*
X8630658Y-14523031D01*
X8630658Y-14523031D02*
X8640182Y-14542079D01*
X8640182Y-14542079D02*
X8649705Y-14580174D01*
X8649705Y-14580174D02*
X8649705Y-14627793D01*
X8649705Y-14627793D02*
X8640182Y-14665888D01*
X8640182Y-14665888D02*
X8630658Y-14684936D01*
X8630658Y-14684936D02*
X8621134Y-14694460D01*
X8621134Y-14694460D02*
X8602086Y-14703984D01*
X8602086Y-14703984D02*
X8583039Y-14703984D01*
X8583039Y-14703984D02*
X8563991Y-14694460D01*
X8563991Y-14694460D02*
X8554467Y-14684936D01*
X8554467Y-14684936D02*
X8544944Y-14665888D01*
X8544944Y-14665888D02*
X8535420Y-14627793D01*
X8535420Y-14627793D02*
X8535420Y-14580174D01*
X8535420Y-14580174D02*
X8544944Y-14542079D01*
X8544944Y-14542079D02*
X8554467Y-14523031D01*
X8554467Y-14523031D02*
X8563991Y-14513508D01*
X8563991Y-14513508D02*
X8583039Y-14503984D01*
X8735420Y-14703984D02*
X8735420Y-14570650D01*
X8735420Y-14589698D02*
X8744944Y-14580174D01*
X8744944Y-14580174D02*
X8763991Y-14570650D01*
X8763991Y-14570650D02*
X8792563Y-14570650D01*
X8792563Y-14570650D02*
X8811610Y-14580174D01*
X8811610Y-14580174D02*
X8821134Y-14599222D01*
X8821134Y-14599222D02*
X8821134Y-14703984D01*
X8821134Y-14599222D02*
X8830658Y-14580174D01*
X8830658Y-14580174D02*
X8849705Y-14570650D01*
X8849705Y-14570650D02*
X8878277Y-14570650D01*
X8878277Y-14570650D02*
X8897325Y-14580174D01*
X8897325Y-14580174D02*
X8906848Y-14599222D01*
X8906848Y-14599222D02*
X8906848Y-14703984D01*
X9002086Y-14703984D02*
X9002086Y-14570650D01*
X9002086Y-14589698D02*
X9011610Y-14580174D01*
X9011610Y-14580174D02*
X9030658Y-14570650D01*
X9030658Y-14570650D02*
X9059229Y-14570650D01*
X9059229Y-14570650D02*
X9078277Y-14580174D01*
X9078277Y-14580174D02*
X9087801Y-14599222D01*
X9087801Y-14599222D02*
X9087801Y-14703984D01*
X9087801Y-14599222D02*
X9097325Y-14580174D01*
X9097325Y-14580174D02*
X9116372Y-14570650D01*
X9116372Y-14570650D02*
X9144944Y-14570650D01*
X9144944Y-14570650D02*
X9163991Y-14580174D01*
X9163991Y-14580174D02*
X9173515Y-14599222D01*
X9173515Y-14599222D02*
X9173515Y-14703984D01*
X9563991Y-14494460D02*
X9392563Y-14751603D01*
X9821134Y-14503984D02*
X9840182Y-14503984D01*
X9840182Y-14503984D02*
X9859229Y-14513508D01*
X9859229Y-14513508D02*
X9868753Y-14523031D01*
X9868753Y-14523031D02*
X9878277Y-14542079D01*
X9878277Y-14542079D02*
X9887801Y-14580174D01*
X9887801Y-14580174D02*
X9887801Y-14627793D01*
X9887801Y-14627793D02*
X9878277Y-14665888D01*
X9878277Y-14665888D02*
X9868753Y-14684936D01*
X9868753Y-14684936D02*
X9859229Y-14694460D01*
X9859229Y-14694460D02*
X9840182Y-14703984D01*
X9840182Y-14703984D02*
X9821134Y-14703984D01*
X9821134Y-14703984D02*
X9802087Y-14694460D01*
X9802087Y-14694460D02*
X9792563Y-14684936D01*
X9792563Y-14684936D02*
X9783039Y-14665888D01*
X9783039Y-14665888D02*
X9773515Y-14627793D01*
X9773515Y-14627793D02*
X9773515Y-14580174D01*
X9773515Y-14580174D02*
X9783039Y-14542079D01*
X9783039Y-14542079D02*
X9792563Y-14523031D01*
X9792563Y-14523031D02*
X9802087Y-14513508D01*
X9802087Y-14513508D02*
X9821134Y-14503984D01*
X9973515Y-14684936D02*
X9983039Y-14694460D01*
X9983039Y-14694460D02*
X9973515Y-14703984D01*
X9973515Y-14703984D02*
X9963991Y-14694460D01*
X9963991Y-14694460D02*
X9973515Y-14684936D01*
X9973515Y-14684936D02*
X9973515Y-14703984D01*
X10106848Y-14503984D02*
X10125896Y-14503984D01*
X10125896Y-14503984D02*
X10144944Y-14513508D01*
X10144944Y-14513508D02*
X10154468Y-14523031D01*
X10154468Y-14523031D02*
X10163991Y-14542079D01*
X10163991Y-14542079D02*
X10173515Y-14580174D01*
X10173515Y-14580174D02*
X10173515Y-14627793D01*
X10173515Y-14627793D02*
X10163991Y-14665888D01*
X10163991Y-14665888D02*
X10154468Y-14684936D01*
X10154468Y-14684936D02*
X10144944Y-14694460D01*
X10144944Y-14694460D02*
X10125896Y-14703984D01*
X10125896Y-14703984D02*
X10106848Y-14703984D01*
X10106848Y-14703984D02*
X10087801Y-14694460D01*
X10087801Y-14694460D02*
X10078277Y-14684936D01*
X10078277Y-14684936D02*
X10068753Y-14665888D01*
X10068753Y-14665888D02*
X10059229Y-14627793D01*
X10059229Y-14627793D02*
X10059229Y-14580174D01*
X10059229Y-14580174D02*
X10068753Y-14542079D01*
X10068753Y-14542079D02*
X10078277Y-14523031D01*
X10078277Y-14523031D02*
X10087801Y-14513508D01*
X10087801Y-14513508D02*
X10106848Y-14503984D01*
X10363991Y-14703984D02*
X10249706Y-14703984D01*
X10306848Y-14703984D02*
X10306848Y-14503984D01*
X10306848Y-14503984D02*
X10287801Y-14532555D01*
X10287801Y-14532555D02*
X10268753Y-14551603D01*
X10268753Y-14551603D02*
X10249706Y-14561127D01*
X10554468Y-14703984D02*
X10440182Y-14703984D01*
X10497325Y-14703984D02*
X10497325Y-14503984D01*
X10497325Y-14503984D02*
X10478277Y-14532555D01*
X10478277Y-14532555D02*
X10459229Y-14551603D01*
X10459229Y-14551603D02*
X10440182Y-14561127D01*
X10668753Y-14589698D02*
X10649706Y-14580174D01*
X10649706Y-14580174D02*
X10640182Y-14570650D01*
X10640182Y-14570650D02*
X10630658Y-14551603D01*
X10630658Y-14551603D02*
X10630658Y-14542079D01*
X10630658Y-14542079D02*
X10640182Y-14523031D01*
X10640182Y-14523031D02*
X10649706Y-14513508D01*
X10649706Y-14513508D02*
X10668753Y-14503984D01*
X10668753Y-14503984D02*
X10706849Y-14503984D01*
X10706849Y-14503984D02*
X10725896Y-14513508D01*
X10725896Y-14513508D02*
X10735420Y-14523031D01*
X10735420Y-14523031D02*
X10744944Y-14542079D01*
X10744944Y-14542079D02*
X10744944Y-14551603D01*
X10744944Y-14551603D02*
X10735420Y-14570650D01*
X10735420Y-14570650D02*
X10725896Y-14580174D01*
X10725896Y-14580174D02*
X10706849Y-14589698D01*
X10706849Y-14589698D02*
X10668753Y-14589698D01*
X10668753Y-14589698D02*
X10649706Y-14599222D01*
X10649706Y-14599222D02*
X10640182Y-14608746D01*
X10640182Y-14608746D02*
X10630658Y-14627793D01*
X10630658Y-14627793D02*
X10630658Y-14665888D01*
X10630658Y-14665888D02*
X10640182Y-14684936D01*
X10640182Y-14684936D02*
X10649706Y-14694460D01*
X10649706Y-14694460D02*
X10668753Y-14703984D01*
X10668753Y-14703984D02*
X10706849Y-14703984D01*
X10706849Y-14703984D02*
X10725896Y-14694460D01*
X10725896Y-14694460D02*
X10735420Y-14684936D01*
X10735420Y-14684936D02*
X10744944Y-14665888D01*
X10744944Y-14665888D02*
X10744944Y-14627793D01*
X10744944Y-14627793D02*
X10735420Y-14608746D01*
X10735420Y-14608746D02*
X10725896Y-14599222D01*
X10725896Y-14599222D02*
X10706849Y-14589698D01*
X10821134Y-14503984D02*
X10821134Y-14542079D01*
X10897325Y-14503984D02*
X10897325Y-14542079D01*
X11192563Y-14780174D02*
X11183039Y-14770650D01*
X11183039Y-14770650D02*
X11163991Y-14742079D01*
X11163991Y-14742079D02*
X11154468Y-14723031D01*
X11154468Y-14723031D02*
X11144944Y-14694460D01*
X11144944Y-14694460D02*
X11135420Y-14646841D01*
X11135420Y-14646841D02*
X11135420Y-14608746D01*
X11135420Y-14608746D02*
X11144944Y-14561127D01*
X11144944Y-14561127D02*
X11154468Y-14532555D01*
X11154468Y-14532555D02*
X11163991Y-14513508D01*
X11163991Y-14513508D02*
X11183039Y-14484936D01*
X11183039Y-14484936D02*
X11192563Y-14475412D01*
X11373515Y-14703984D02*
X11259229Y-14703984D01*
X11316372Y-14703984D02*
X11316372Y-14503984D01*
X11316372Y-14503984D02*
X11297325Y-14532555D01*
X11297325Y-14532555D02*
X11278277Y-14551603D01*
X11278277Y-14551603D02*
X11259229Y-14561127D01*
X11487801Y-14589698D02*
X11468753Y-14580174D01*
X11468753Y-14580174D02*
X11459229Y-14570650D01*
X11459229Y-14570650D02*
X11449706Y-14551603D01*
X11449706Y-14551603D02*
X11449706Y-14542079D01*
X11449706Y-14542079D02*
X11459229Y-14523031D01*
X11459229Y-14523031D02*
X11468753Y-14513508D01*
X11468753Y-14513508D02*
X11487801Y-14503984D01*
X11487801Y-14503984D02*
X11525896Y-14503984D01*
X11525896Y-14503984D02*
X11544944Y-14513508D01*
X11544944Y-14513508D02*
X11554468Y-14523031D01*
X11554468Y-14523031D02*
X11563991Y-14542079D01*
X11563991Y-14542079D02*
X11563991Y-14551603D01*
X11563991Y-14551603D02*
X11554468Y-14570650D01*
X11554468Y-14570650D02*
X11544944Y-14580174D01*
X11544944Y-14580174D02*
X11525896Y-14589698D01*
X11525896Y-14589698D02*
X11487801Y-14589698D01*
X11487801Y-14589698D02*
X11468753Y-14599222D01*
X11468753Y-14599222D02*
X11459229Y-14608746D01*
X11459229Y-14608746D02*
X11449706Y-14627793D01*
X11449706Y-14627793D02*
X11449706Y-14665888D01*
X11449706Y-14665888D02*
X11459229Y-14684936D01*
X11459229Y-14684936D02*
X11468753Y-14694460D01*
X11468753Y-14694460D02*
X11487801Y-14703984D01*
X11487801Y-14703984D02*
X11525896Y-14703984D01*
X11525896Y-14703984D02*
X11544944Y-14694460D01*
X11544944Y-14694460D02*
X11554468Y-14684936D01*
X11554468Y-14684936D02*
X11563991Y-14665888D01*
X11563991Y-14665888D02*
X11563991Y-14627793D01*
X11563991Y-14627793D02*
X11554468Y-14608746D01*
X11554468Y-14608746D02*
X11544944Y-14599222D01*
X11544944Y-14599222D02*
X11525896Y-14589698D01*
X11630658Y-14503984D02*
X11754468Y-14503984D01*
X11754468Y-14503984D02*
X11687801Y-14580174D01*
X11687801Y-14580174D02*
X11716372Y-14580174D01*
X11716372Y-14580174D02*
X11735420Y-14589698D01*
X11735420Y-14589698D02*
X11744944Y-14599222D01*
X11744944Y-14599222D02*
X11754468Y-14618269D01*
X11754468Y-14618269D02*
X11754468Y-14665888D01*
X11754468Y-14665888D02*
X11744944Y-14684936D01*
X11744944Y-14684936D02*
X11735420Y-14694460D01*
X11735420Y-14694460D02*
X11716372Y-14703984D01*
X11716372Y-14703984D02*
X11659229Y-14703984D01*
X11659229Y-14703984D02*
X11640182Y-14694460D01*
X11640182Y-14694460D02*
X11630658Y-14684936D01*
X11992563Y-14703984D02*
X11992563Y-14503984D01*
X12078277Y-14703984D02*
X12078277Y-14599222D01*
X12078277Y-14599222D02*
X12068753Y-14580174D01*
X12068753Y-14580174D02*
X12049706Y-14570650D01*
X12049706Y-14570650D02*
X12021134Y-14570650D01*
X12021134Y-14570650D02*
X12002087Y-14580174D01*
X12002087Y-14580174D02*
X11992563Y-14589698D01*
X12202087Y-14703984D02*
X12183039Y-14694460D01*
X12183039Y-14694460D02*
X12173515Y-14684936D01*
X12173515Y-14684936D02*
X12163991Y-14665888D01*
X12163991Y-14665888D02*
X12163991Y-14608746D01*
X12163991Y-14608746D02*
X12173515Y-14589698D01*
X12173515Y-14589698D02*
X12183039Y-14580174D01*
X12183039Y-14580174D02*
X12202087Y-14570650D01*
X12202087Y-14570650D02*
X12230658Y-14570650D01*
X12230658Y-14570650D02*
X12249706Y-14580174D01*
X12249706Y-14580174D02*
X12259230Y-14589698D01*
X12259230Y-14589698D02*
X12268753Y-14608746D01*
X12268753Y-14608746D02*
X12268753Y-14665888D01*
X12268753Y-14665888D02*
X12259230Y-14684936D01*
X12259230Y-14684936D02*
X12249706Y-14694460D01*
X12249706Y-14694460D02*
X12230658Y-14703984D01*
X12230658Y-14703984D02*
X12202087Y-14703984D01*
X12383039Y-14703984D02*
X12363991Y-14694460D01*
X12363991Y-14694460D02*
X12354468Y-14675412D01*
X12354468Y-14675412D02*
X12354468Y-14503984D01*
X12535420Y-14694460D02*
X12516372Y-14703984D01*
X12516372Y-14703984D02*
X12478277Y-14703984D01*
X12478277Y-14703984D02*
X12459230Y-14694460D01*
X12459230Y-14694460D02*
X12449706Y-14675412D01*
X12449706Y-14675412D02*
X12449706Y-14599222D01*
X12449706Y-14599222D02*
X12459230Y-14580174D01*
X12459230Y-14580174D02*
X12478277Y-14570650D01*
X12478277Y-14570650D02*
X12516372Y-14570650D01*
X12516372Y-14570650D02*
X12535420Y-14580174D01*
X12535420Y-14580174D02*
X12544944Y-14599222D01*
X12544944Y-14599222D02*
X12544944Y-14618269D01*
X12544944Y-14618269D02*
X12449706Y-14637317D01*
X12621134Y-14694460D02*
X12640182Y-14703984D01*
X12640182Y-14703984D02*
X12678277Y-14703984D01*
X12678277Y-14703984D02*
X12697325Y-14694460D01*
X12697325Y-14694460D02*
X12706849Y-14675412D01*
X12706849Y-14675412D02*
X12706849Y-14665888D01*
X12706849Y-14665888D02*
X12697325Y-14646841D01*
X12697325Y-14646841D02*
X12678277Y-14637317D01*
X12678277Y-14637317D02*
X12649706Y-14637317D01*
X12649706Y-14637317D02*
X12630658Y-14627793D01*
X12630658Y-14627793D02*
X12621134Y-14608746D01*
X12621134Y-14608746D02*
X12621134Y-14599222D01*
X12621134Y-14599222D02*
X12630658Y-14580174D01*
X12630658Y-14580174D02*
X12649706Y-14570650D01*
X12649706Y-14570650D02*
X12678277Y-14570650D01*
X12678277Y-14570650D02*
X12697325Y-14580174D01*
X12773515Y-14780174D02*
X12783039Y-14770650D01*
X12783039Y-14770650D02*
X12802087Y-14742079D01*
X12802087Y-14742079D02*
X12811611Y-14723031D01*
X12811611Y-14723031D02*
X12821134Y-14694460D01*
X12821134Y-14694460D02*
X12830658Y-14646841D01*
X12830658Y-14646841D02*
X12830658Y-14608746D01*
X12830658Y-14608746D02*
X12821134Y-14561127D01*
X12821134Y-14561127D02*
X12811611Y-14532555D01*
X12811611Y-14532555D02*
X12802087Y-14513508D01*
X12802087Y-14513508D02*
X12783039Y-14484936D01*
X12783039Y-14484936D02*
X12773515Y-14475412D01*
D12*
X7617500Y-14876500D02*
G75*
G02*
X7587500Y-14876500I-15000J0D01*
G01*
X7587500Y-14876500D02*
G75*
G02*
X7617500Y-14876500I15000J0D01*
G01*
D11*
X7916372Y-14767984D02*
X7935420Y-14767984D01*
X7935420Y-14767984D02*
X7954467Y-14777508D01*
X7954467Y-14777508D02*
X7963991Y-14787031D01*
X7963991Y-14787031D02*
X7973515Y-14806079D01*
X7973515Y-14806079D02*
X7983039Y-14844174D01*
X7983039Y-14844174D02*
X7983039Y-14891793D01*
X7983039Y-14891793D02*
X7973515Y-14929888D01*
X7973515Y-14929888D02*
X7963991Y-14948936D01*
X7963991Y-14948936D02*
X7954467Y-14958460D01*
X7954467Y-14958460D02*
X7935420Y-14967984D01*
X7935420Y-14967984D02*
X7916372Y-14967984D01*
X7916372Y-14967984D02*
X7897324Y-14958460D01*
X7897324Y-14958460D02*
X7887801Y-14948936D01*
X7887801Y-14948936D02*
X7878277Y-14929888D01*
X7878277Y-14929888D02*
X7868753Y-14891793D01*
X7868753Y-14891793D02*
X7868753Y-14844174D01*
X7868753Y-14844174D02*
X7878277Y-14806079D01*
X7878277Y-14806079D02*
X7887801Y-14787031D01*
X7887801Y-14787031D02*
X7897324Y-14777508D01*
X7897324Y-14777508D02*
X7916372Y-14767984D01*
X8068753Y-14948936D02*
X8078277Y-14958460D01*
X8078277Y-14958460D02*
X8068753Y-14967984D01*
X8068753Y-14967984D02*
X8059229Y-14958460D01*
X8059229Y-14958460D02*
X8068753Y-14948936D01*
X8068753Y-14948936D02*
X8068753Y-14967984D01*
X8144943Y-14767984D02*
X8268753Y-14767984D01*
X8268753Y-14767984D02*
X8202086Y-14844174D01*
X8202086Y-14844174D02*
X8230658Y-14844174D01*
X8230658Y-14844174D02*
X8249705Y-14853698D01*
X8249705Y-14853698D02*
X8259229Y-14863222D01*
X8259229Y-14863222D02*
X8268753Y-14882269D01*
X8268753Y-14882269D02*
X8268753Y-14929888D01*
X8268753Y-14929888D02*
X8259229Y-14948936D01*
X8259229Y-14948936D02*
X8249705Y-14958460D01*
X8249705Y-14958460D02*
X8230658Y-14967984D01*
X8230658Y-14967984D02*
X8173515Y-14967984D01*
X8173515Y-14967984D02*
X8154467Y-14958460D01*
X8154467Y-14958460D02*
X8144943Y-14948936D01*
X8392563Y-14767984D02*
X8411610Y-14767984D01*
X8411610Y-14767984D02*
X8430658Y-14777508D01*
X8430658Y-14777508D02*
X8440182Y-14787031D01*
X8440182Y-14787031D02*
X8449705Y-14806079D01*
X8449705Y-14806079D02*
X8459229Y-14844174D01*
X8459229Y-14844174D02*
X8459229Y-14891793D01*
X8459229Y-14891793D02*
X8449705Y-14929888D01*
X8449705Y-14929888D02*
X8440182Y-14948936D01*
X8440182Y-14948936D02*
X8430658Y-14958460D01*
X8430658Y-14958460D02*
X8411610Y-14967984D01*
X8411610Y-14967984D02*
X8392563Y-14967984D01*
X8392563Y-14967984D02*
X8373515Y-14958460D01*
X8373515Y-14958460D02*
X8363991Y-14948936D01*
X8363991Y-14948936D02*
X8354467Y-14929888D01*
X8354467Y-14929888D02*
X8344943Y-14891793D01*
X8344943Y-14891793D02*
X8344943Y-14844174D01*
X8344943Y-14844174D02*
X8354467Y-14806079D01*
X8354467Y-14806079D02*
X8363991Y-14787031D01*
X8363991Y-14787031D02*
X8373515Y-14777508D01*
X8373515Y-14777508D02*
X8392563Y-14767984D01*
X8583039Y-14767984D02*
X8602086Y-14767984D01*
X8602086Y-14767984D02*
X8621134Y-14777508D01*
X8621134Y-14777508D02*
X8630658Y-14787031D01*
X8630658Y-14787031D02*
X8640182Y-14806079D01*
X8640182Y-14806079D02*
X8649705Y-14844174D01*
X8649705Y-14844174D02*
X8649705Y-14891793D01*
X8649705Y-14891793D02*
X8640182Y-14929888D01*
X8640182Y-14929888D02*
X8630658Y-14948936D01*
X8630658Y-14948936D02*
X8621134Y-14958460D01*
X8621134Y-14958460D02*
X8602086Y-14967984D01*
X8602086Y-14967984D02*
X8583039Y-14967984D01*
X8583039Y-14967984D02*
X8563991Y-14958460D01*
X8563991Y-14958460D02*
X8554467Y-14948936D01*
X8554467Y-14948936D02*
X8544944Y-14929888D01*
X8544944Y-14929888D02*
X8535420Y-14891793D01*
X8535420Y-14891793D02*
X8535420Y-14844174D01*
X8535420Y-14844174D02*
X8544944Y-14806079D01*
X8544944Y-14806079D02*
X8554467Y-14787031D01*
X8554467Y-14787031D02*
X8563991Y-14777508D01*
X8563991Y-14777508D02*
X8583039Y-14767984D01*
X8735420Y-14967984D02*
X8735420Y-14834650D01*
X8735420Y-14853698D02*
X8744944Y-14844174D01*
X8744944Y-14844174D02*
X8763991Y-14834650D01*
X8763991Y-14834650D02*
X8792563Y-14834650D01*
X8792563Y-14834650D02*
X8811610Y-14844174D01*
X8811610Y-14844174D02*
X8821134Y-14863222D01*
X8821134Y-14863222D02*
X8821134Y-14967984D01*
X8821134Y-14863222D02*
X8830658Y-14844174D01*
X8830658Y-14844174D02*
X8849705Y-14834650D01*
X8849705Y-14834650D02*
X8878277Y-14834650D01*
X8878277Y-14834650D02*
X8897325Y-14844174D01*
X8897325Y-14844174D02*
X8906848Y-14863222D01*
X8906848Y-14863222D02*
X8906848Y-14967984D01*
X9002086Y-14967984D02*
X9002086Y-14834650D01*
X9002086Y-14853698D02*
X9011610Y-14844174D01*
X9011610Y-14844174D02*
X9030658Y-14834650D01*
X9030658Y-14834650D02*
X9059229Y-14834650D01*
X9059229Y-14834650D02*
X9078277Y-14844174D01*
X9078277Y-14844174D02*
X9087801Y-14863222D01*
X9087801Y-14863222D02*
X9087801Y-14967984D01*
X9087801Y-14863222D02*
X9097325Y-14844174D01*
X9097325Y-14844174D02*
X9116372Y-14834650D01*
X9116372Y-14834650D02*
X9144944Y-14834650D01*
X9144944Y-14834650D02*
X9163991Y-14844174D01*
X9163991Y-14844174D02*
X9173515Y-14863222D01*
X9173515Y-14863222D02*
X9173515Y-14967984D01*
X9563991Y-14758460D02*
X9392563Y-15015603D01*
X9821134Y-14767984D02*
X9840182Y-14767984D01*
X9840182Y-14767984D02*
X9859229Y-14777508D01*
X9859229Y-14777508D02*
X9868753Y-14787031D01*
X9868753Y-14787031D02*
X9878277Y-14806079D01*
X9878277Y-14806079D02*
X9887801Y-14844174D01*
X9887801Y-14844174D02*
X9887801Y-14891793D01*
X9887801Y-14891793D02*
X9878277Y-14929888D01*
X9878277Y-14929888D02*
X9868753Y-14948936D01*
X9868753Y-14948936D02*
X9859229Y-14958460D01*
X9859229Y-14958460D02*
X9840182Y-14967984D01*
X9840182Y-14967984D02*
X9821134Y-14967984D01*
X9821134Y-14967984D02*
X9802087Y-14958460D01*
X9802087Y-14958460D02*
X9792563Y-14948936D01*
X9792563Y-14948936D02*
X9783039Y-14929888D01*
X9783039Y-14929888D02*
X9773515Y-14891793D01*
X9773515Y-14891793D02*
X9773515Y-14844174D01*
X9773515Y-14844174D02*
X9783039Y-14806079D01*
X9783039Y-14806079D02*
X9792563Y-14787031D01*
X9792563Y-14787031D02*
X9802087Y-14777508D01*
X9802087Y-14777508D02*
X9821134Y-14767984D01*
X9973515Y-14948936D02*
X9983039Y-14958460D01*
X9983039Y-14958460D02*
X9973515Y-14967984D01*
X9973515Y-14967984D02*
X9963991Y-14958460D01*
X9963991Y-14958460D02*
X9973515Y-14948936D01*
X9973515Y-14948936D02*
X9973515Y-14967984D01*
X10106848Y-14767984D02*
X10125896Y-14767984D01*
X10125896Y-14767984D02*
X10144944Y-14777508D01*
X10144944Y-14777508D02*
X10154468Y-14787031D01*
X10154468Y-14787031D02*
X10163991Y-14806079D01*
X10163991Y-14806079D02*
X10173515Y-14844174D01*
X10173515Y-14844174D02*
X10173515Y-14891793D01*
X10173515Y-14891793D02*
X10163991Y-14929888D01*
X10163991Y-14929888D02*
X10154468Y-14948936D01*
X10154468Y-14948936D02*
X10144944Y-14958460D01*
X10144944Y-14958460D02*
X10125896Y-14967984D01*
X10125896Y-14967984D02*
X10106848Y-14967984D01*
X10106848Y-14967984D02*
X10087801Y-14958460D01*
X10087801Y-14958460D02*
X10078277Y-14948936D01*
X10078277Y-14948936D02*
X10068753Y-14929888D01*
X10068753Y-14929888D02*
X10059229Y-14891793D01*
X10059229Y-14891793D02*
X10059229Y-14844174D01*
X10059229Y-14844174D02*
X10068753Y-14806079D01*
X10068753Y-14806079D02*
X10078277Y-14787031D01*
X10078277Y-14787031D02*
X10087801Y-14777508D01*
X10087801Y-14777508D02*
X10106848Y-14767984D01*
X10363991Y-14967984D02*
X10249706Y-14967984D01*
X10306848Y-14967984D02*
X10306848Y-14767984D01*
X10306848Y-14767984D02*
X10287801Y-14796555D01*
X10287801Y-14796555D02*
X10268753Y-14815603D01*
X10268753Y-14815603D02*
X10249706Y-14825127D01*
X10554468Y-14967984D02*
X10440182Y-14967984D01*
X10497325Y-14967984D02*
X10497325Y-14767984D01*
X10497325Y-14767984D02*
X10478277Y-14796555D01*
X10478277Y-14796555D02*
X10459229Y-14815603D01*
X10459229Y-14815603D02*
X10440182Y-14825127D01*
X10668753Y-14853698D02*
X10649706Y-14844174D01*
X10649706Y-14844174D02*
X10640182Y-14834650D01*
X10640182Y-14834650D02*
X10630658Y-14815603D01*
X10630658Y-14815603D02*
X10630658Y-14806079D01*
X10630658Y-14806079D02*
X10640182Y-14787031D01*
X10640182Y-14787031D02*
X10649706Y-14777508D01*
X10649706Y-14777508D02*
X10668753Y-14767984D01*
X10668753Y-14767984D02*
X10706849Y-14767984D01*
X10706849Y-14767984D02*
X10725896Y-14777508D01*
X10725896Y-14777508D02*
X10735420Y-14787031D01*
X10735420Y-14787031D02*
X10744944Y-14806079D01*
X10744944Y-14806079D02*
X10744944Y-14815603D01*
X10744944Y-14815603D02*
X10735420Y-14834650D01*
X10735420Y-14834650D02*
X10725896Y-14844174D01*
X10725896Y-14844174D02*
X10706849Y-14853698D01*
X10706849Y-14853698D02*
X10668753Y-14853698D01*
X10668753Y-14853698D02*
X10649706Y-14863222D01*
X10649706Y-14863222D02*
X10640182Y-14872746D01*
X10640182Y-14872746D02*
X10630658Y-14891793D01*
X10630658Y-14891793D02*
X10630658Y-14929888D01*
X10630658Y-14929888D02*
X10640182Y-14948936D01*
X10640182Y-14948936D02*
X10649706Y-14958460D01*
X10649706Y-14958460D02*
X10668753Y-14967984D01*
X10668753Y-14967984D02*
X10706849Y-14967984D01*
X10706849Y-14967984D02*
X10725896Y-14958460D01*
X10725896Y-14958460D02*
X10735420Y-14948936D01*
X10735420Y-14948936D02*
X10744944Y-14929888D01*
X10744944Y-14929888D02*
X10744944Y-14891793D01*
X10744944Y-14891793D02*
X10735420Y-14872746D01*
X10735420Y-14872746D02*
X10725896Y-14863222D01*
X10725896Y-14863222D02*
X10706849Y-14853698D01*
X10821134Y-14767984D02*
X10821134Y-14806079D01*
X10897325Y-14767984D02*
X10897325Y-14806079D01*
X11192563Y-15044174D02*
X11183039Y-15034650D01*
X11183039Y-15034650D02*
X11163991Y-15006079D01*
X11163991Y-15006079D02*
X11154468Y-14987031D01*
X11154468Y-14987031D02*
X11144944Y-14958460D01*
X11144944Y-14958460D02*
X11135420Y-14910841D01*
X11135420Y-14910841D02*
X11135420Y-14872746D01*
X11135420Y-14872746D02*
X11144944Y-14825127D01*
X11144944Y-14825127D02*
X11154468Y-14796555D01*
X11154468Y-14796555D02*
X11163991Y-14777508D01*
X11163991Y-14777508D02*
X11183039Y-14748936D01*
X11183039Y-14748936D02*
X11192563Y-14739412D01*
X11354468Y-14834650D02*
X11354468Y-14967984D01*
X11306848Y-14758460D02*
X11259229Y-14901317D01*
X11259229Y-14901317D02*
X11383039Y-14901317D01*
X11611610Y-14967984D02*
X11611610Y-14767984D01*
X11697325Y-14967984D02*
X11697325Y-14863222D01*
X11697325Y-14863222D02*
X11687801Y-14844174D01*
X11687801Y-14844174D02*
X11668753Y-14834650D01*
X11668753Y-14834650D02*
X11640182Y-14834650D01*
X11640182Y-14834650D02*
X11621134Y-14844174D01*
X11621134Y-14844174D02*
X11611610Y-14853698D01*
X11821134Y-14967984D02*
X11802087Y-14958460D01*
X11802087Y-14958460D02*
X11792563Y-14948936D01*
X11792563Y-14948936D02*
X11783039Y-14929888D01*
X11783039Y-14929888D02*
X11783039Y-14872746D01*
X11783039Y-14872746D02*
X11792563Y-14853698D01*
X11792563Y-14853698D02*
X11802087Y-14844174D01*
X11802087Y-14844174D02*
X11821134Y-14834650D01*
X11821134Y-14834650D02*
X11849706Y-14834650D01*
X11849706Y-14834650D02*
X11868753Y-14844174D01*
X11868753Y-14844174D02*
X11878277Y-14853698D01*
X11878277Y-14853698D02*
X11887801Y-14872746D01*
X11887801Y-14872746D02*
X11887801Y-14929888D01*
X11887801Y-14929888D02*
X11878277Y-14948936D01*
X11878277Y-14948936D02*
X11868753Y-14958460D01*
X11868753Y-14958460D02*
X11849706Y-14967984D01*
X11849706Y-14967984D02*
X11821134Y-14967984D01*
X12002087Y-14967984D02*
X11983039Y-14958460D01*
X11983039Y-14958460D02*
X11973515Y-14939412D01*
X11973515Y-14939412D02*
X11973515Y-14767984D01*
X12154468Y-14958460D02*
X12135420Y-14967984D01*
X12135420Y-14967984D02*
X12097325Y-14967984D01*
X12097325Y-14967984D02*
X12078277Y-14958460D01*
X12078277Y-14958460D02*
X12068753Y-14939412D01*
X12068753Y-14939412D02*
X12068753Y-14863222D01*
X12068753Y-14863222D02*
X12078277Y-14844174D01*
X12078277Y-14844174D02*
X12097325Y-14834650D01*
X12097325Y-14834650D02*
X12135420Y-14834650D01*
X12135420Y-14834650D02*
X12154468Y-14844174D01*
X12154468Y-14844174D02*
X12163991Y-14863222D01*
X12163991Y-14863222D02*
X12163991Y-14882269D01*
X12163991Y-14882269D02*
X12068753Y-14901317D01*
X12240182Y-14958460D02*
X12259230Y-14967984D01*
X12259230Y-14967984D02*
X12297325Y-14967984D01*
X12297325Y-14967984D02*
X12316372Y-14958460D01*
X12316372Y-14958460D02*
X12325896Y-14939412D01*
X12325896Y-14939412D02*
X12325896Y-14929888D01*
X12325896Y-14929888D02*
X12316372Y-14910841D01*
X12316372Y-14910841D02*
X12297325Y-14901317D01*
X12297325Y-14901317D02*
X12268753Y-14901317D01*
X12268753Y-14901317D02*
X12249706Y-14891793D01*
X12249706Y-14891793D02*
X12240182Y-14872746D01*
X12240182Y-14872746D02*
X12240182Y-14863222D01*
X12240182Y-14863222D02*
X12249706Y-14844174D01*
X12249706Y-14844174D02*
X12268753Y-14834650D01*
X12268753Y-14834650D02*
X12297325Y-14834650D01*
X12297325Y-14834650D02*
X12316372Y-14844174D01*
X12392563Y-15044174D02*
X12402087Y-15034650D01*
X12402087Y-15034650D02*
X12421134Y-15006079D01*
X12421134Y-15006079D02*
X12430658Y-14987031D01*
X12430658Y-14987031D02*
X12440182Y-14958460D01*
X12440182Y-14958460D02*
X12449706Y-14910841D01*
X12449706Y-14910841D02*
X12449706Y-14872746D01*
X12449706Y-14872746D02*
X12440182Y-14825127D01*
X12440182Y-14825127D02*
X12430658Y-14796555D01*
X12430658Y-14796555D02*
X12421134Y-14777508D01*
X12421134Y-14777508D02*
X12402087Y-14748936D01*
X12402087Y-14748936D02*
X12392563Y-14739412D01*
D13*
X7557500Y-15080500D02*
X7557500Y-15200500D01*
X7497500Y-15140500D02*
X7617500Y-15140500D01*
D11*
X7983039Y-15231984D02*
X7868753Y-15231984D01*
X7925896Y-15231984D02*
X7925896Y-15031984D01*
X7925896Y-15031984D02*
X7906848Y-15060555D01*
X7906848Y-15060555D02*
X7887801Y-15079603D01*
X7887801Y-15079603D02*
X7868753Y-15089127D01*
X8068753Y-15212936D02*
X8078277Y-15222460D01*
X8078277Y-15222460D02*
X8068753Y-15231984D01*
X8068753Y-15231984D02*
X8059229Y-15222460D01*
X8059229Y-15222460D02*
X8068753Y-15212936D01*
X8068753Y-15212936D02*
X8068753Y-15231984D01*
X8154467Y-15051031D02*
X8163991Y-15041508D01*
X8163991Y-15041508D02*
X8183039Y-15031984D01*
X8183039Y-15031984D02*
X8230658Y-15031984D01*
X8230658Y-15031984D02*
X8249705Y-15041508D01*
X8249705Y-15041508D02*
X8259229Y-15051031D01*
X8259229Y-15051031D02*
X8268753Y-15070079D01*
X8268753Y-15070079D02*
X8268753Y-15089127D01*
X8268753Y-15089127D02*
X8259229Y-15117698D01*
X8259229Y-15117698D02*
X8144943Y-15231984D01*
X8144943Y-15231984D02*
X8268753Y-15231984D01*
X8392563Y-15031984D02*
X8411610Y-15031984D01*
X8411610Y-15031984D02*
X8430658Y-15041508D01*
X8430658Y-15041508D02*
X8440182Y-15051031D01*
X8440182Y-15051031D02*
X8449705Y-15070079D01*
X8449705Y-15070079D02*
X8459229Y-15108174D01*
X8459229Y-15108174D02*
X8459229Y-15155793D01*
X8459229Y-15155793D02*
X8449705Y-15193888D01*
X8449705Y-15193888D02*
X8440182Y-15212936D01*
X8440182Y-15212936D02*
X8430658Y-15222460D01*
X8430658Y-15222460D02*
X8411610Y-15231984D01*
X8411610Y-15231984D02*
X8392563Y-15231984D01*
X8392563Y-15231984D02*
X8373515Y-15222460D01*
X8373515Y-15222460D02*
X8363991Y-15212936D01*
X8363991Y-15212936D02*
X8354467Y-15193888D01*
X8354467Y-15193888D02*
X8344943Y-15155793D01*
X8344943Y-15155793D02*
X8344943Y-15108174D01*
X8344943Y-15108174D02*
X8354467Y-15070079D01*
X8354467Y-15070079D02*
X8363991Y-15051031D01*
X8363991Y-15051031D02*
X8373515Y-15041508D01*
X8373515Y-15041508D02*
X8392563Y-15031984D01*
X8583039Y-15031984D02*
X8602086Y-15031984D01*
X8602086Y-15031984D02*
X8621134Y-15041508D01*
X8621134Y-15041508D02*
X8630658Y-15051031D01*
X8630658Y-15051031D02*
X8640182Y-15070079D01*
X8640182Y-15070079D02*
X8649705Y-15108174D01*
X8649705Y-15108174D02*
X8649705Y-15155793D01*
X8649705Y-15155793D02*
X8640182Y-15193888D01*
X8640182Y-15193888D02*
X8630658Y-15212936D01*
X8630658Y-15212936D02*
X8621134Y-15222460D01*
X8621134Y-15222460D02*
X8602086Y-15231984D01*
X8602086Y-15231984D02*
X8583039Y-15231984D01*
X8583039Y-15231984D02*
X8563991Y-15222460D01*
X8563991Y-15222460D02*
X8554467Y-15212936D01*
X8554467Y-15212936D02*
X8544944Y-15193888D01*
X8544944Y-15193888D02*
X8535420Y-15155793D01*
X8535420Y-15155793D02*
X8535420Y-15108174D01*
X8535420Y-15108174D02*
X8544944Y-15070079D01*
X8544944Y-15070079D02*
X8554467Y-15051031D01*
X8554467Y-15051031D02*
X8563991Y-15041508D01*
X8563991Y-15041508D02*
X8583039Y-15031984D01*
X8735420Y-15231984D02*
X8735420Y-15098650D01*
X8735420Y-15117698D02*
X8744944Y-15108174D01*
X8744944Y-15108174D02*
X8763991Y-15098650D01*
X8763991Y-15098650D02*
X8792563Y-15098650D01*
X8792563Y-15098650D02*
X8811610Y-15108174D01*
X8811610Y-15108174D02*
X8821134Y-15127222D01*
X8821134Y-15127222D02*
X8821134Y-15231984D01*
X8821134Y-15127222D02*
X8830658Y-15108174D01*
X8830658Y-15108174D02*
X8849705Y-15098650D01*
X8849705Y-15098650D02*
X8878277Y-15098650D01*
X8878277Y-15098650D02*
X8897325Y-15108174D01*
X8897325Y-15108174D02*
X8906848Y-15127222D01*
X8906848Y-15127222D02*
X8906848Y-15231984D01*
X9002086Y-15231984D02*
X9002086Y-15098650D01*
X9002086Y-15117698D02*
X9011610Y-15108174D01*
X9011610Y-15108174D02*
X9030658Y-15098650D01*
X9030658Y-15098650D02*
X9059229Y-15098650D01*
X9059229Y-15098650D02*
X9078277Y-15108174D01*
X9078277Y-15108174D02*
X9087801Y-15127222D01*
X9087801Y-15127222D02*
X9087801Y-15231984D01*
X9087801Y-15127222D02*
X9097325Y-15108174D01*
X9097325Y-15108174D02*
X9116372Y-15098650D01*
X9116372Y-15098650D02*
X9144944Y-15098650D01*
X9144944Y-15098650D02*
X9163991Y-15108174D01*
X9163991Y-15108174D02*
X9173515Y-15127222D01*
X9173515Y-15127222D02*
X9173515Y-15231984D01*
X9563991Y-15022460D02*
X9392563Y-15279603D01*
X9821134Y-15031984D02*
X9840182Y-15031984D01*
X9840182Y-15031984D02*
X9859229Y-15041508D01*
X9859229Y-15041508D02*
X9868753Y-15051031D01*
X9868753Y-15051031D02*
X9878277Y-15070079D01*
X9878277Y-15070079D02*
X9887801Y-15108174D01*
X9887801Y-15108174D02*
X9887801Y-15155793D01*
X9887801Y-15155793D02*
X9878277Y-15193888D01*
X9878277Y-15193888D02*
X9868753Y-15212936D01*
X9868753Y-15212936D02*
X9859229Y-15222460D01*
X9859229Y-15222460D02*
X9840182Y-15231984D01*
X9840182Y-15231984D02*
X9821134Y-15231984D01*
X9821134Y-15231984D02*
X9802087Y-15222460D01*
X9802087Y-15222460D02*
X9792563Y-15212936D01*
X9792563Y-15212936D02*
X9783039Y-15193888D01*
X9783039Y-15193888D02*
X9773515Y-15155793D01*
X9773515Y-15155793D02*
X9773515Y-15108174D01*
X9773515Y-15108174D02*
X9783039Y-15070079D01*
X9783039Y-15070079D02*
X9792563Y-15051031D01*
X9792563Y-15051031D02*
X9802087Y-15041508D01*
X9802087Y-15041508D02*
X9821134Y-15031984D01*
X9973515Y-15212936D02*
X9983039Y-15222460D01*
X9983039Y-15222460D02*
X9973515Y-15231984D01*
X9973515Y-15231984D02*
X9963991Y-15222460D01*
X9963991Y-15222460D02*
X9973515Y-15212936D01*
X9973515Y-15212936D02*
X9973515Y-15231984D01*
X10106848Y-15031984D02*
X10125896Y-15031984D01*
X10125896Y-15031984D02*
X10144944Y-15041508D01*
X10144944Y-15041508D02*
X10154468Y-15051031D01*
X10154468Y-15051031D02*
X10163991Y-15070079D01*
X10163991Y-15070079D02*
X10173515Y-15108174D01*
X10173515Y-15108174D02*
X10173515Y-15155793D01*
X10173515Y-15155793D02*
X10163991Y-15193888D01*
X10163991Y-15193888D02*
X10154468Y-15212936D01*
X10154468Y-15212936D02*
X10144944Y-15222460D01*
X10144944Y-15222460D02*
X10125896Y-15231984D01*
X10125896Y-15231984D02*
X10106848Y-15231984D01*
X10106848Y-15231984D02*
X10087801Y-15222460D01*
X10087801Y-15222460D02*
X10078277Y-15212936D01*
X10078277Y-15212936D02*
X10068753Y-15193888D01*
X10068753Y-15193888D02*
X10059229Y-15155793D01*
X10059229Y-15155793D02*
X10059229Y-15108174D01*
X10059229Y-15108174D02*
X10068753Y-15070079D01*
X10068753Y-15070079D02*
X10078277Y-15051031D01*
X10078277Y-15051031D02*
X10087801Y-15041508D01*
X10087801Y-15041508D02*
X10106848Y-15031984D01*
X10344944Y-15098650D02*
X10344944Y-15231984D01*
X10297325Y-15022460D02*
X10249706Y-15165317D01*
X10249706Y-15165317D02*
X10373515Y-15165317D01*
X10430658Y-15031984D02*
X10563991Y-15031984D01*
X10563991Y-15031984D02*
X10478277Y-15231984D01*
X10630658Y-15051031D02*
X10640182Y-15041508D01*
X10640182Y-15041508D02*
X10659229Y-15031984D01*
X10659229Y-15031984D02*
X10706849Y-15031984D01*
X10706849Y-15031984D02*
X10725896Y-15041508D01*
X10725896Y-15041508D02*
X10735420Y-15051031D01*
X10735420Y-15051031D02*
X10744944Y-15070079D01*
X10744944Y-15070079D02*
X10744944Y-15089127D01*
X10744944Y-15089127D02*
X10735420Y-15117698D01*
X10735420Y-15117698D02*
X10621134Y-15231984D01*
X10621134Y-15231984D02*
X10744944Y-15231984D01*
X10821134Y-15031984D02*
X10821134Y-15070079D01*
X10897325Y-15031984D02*
X10897325Y-15070079D01*
X11192563Y-15308174D02*
X11183039Y-15298650D01*
X11183039Y-15298650D02*
X11163991Y-15270079D01*
X11163991Y-15270079D02*
X11154468Y-15251031D01*
X11154468Y-15251031D02*
X11144944Y-15222460D01*
X11144944Y-15222460D02*
X11135420Y-15174841D01*
X11135420Y-15174841D02*
X11135420Y-15136746D01*
X11135420Y-15136746D02*
X11144944Y-15089127D01*
X11144944Y-15089127D02*
X11154468Y-15060555D01*
X11154468Y-15060555D02*
X11163991Y-15041508D01*
X11163991Y-15041508D02*
X11183039Y-15012936D01*
X11183039Y-15012936D02*
X11192563Y-15003412D01*
X11363991Y-15031984D02*
X11268753Y-15031984D01*
X11268753Y-15031984D02*
X11259229Y-15127222D01*
X11259229Y-15127222D02*
X11268753Y-15117698D01*
X11268753Y-15117698D02*
X11287801Y-15108174D01*
X11287801Y-15108174D02*
X11335420Y-15108174D01*
X11335420Y-15108174D02*
X11354468Y-15117698D01*
X11354468Y-15117698D02*
X11363991Y-15127222D01*
X11363991Y-15127222D02*
X11373515Y-15146269D01*
X11373515Y-15146269D02*
X11373515Y-15193888D01*
X11373515Y-15193888D02*
X11363991Y-15212936D01*
X11363991Y-15212936D02*
X11354468Y-15222460D01*
X11354468Y-15222460D02*
X11335420Y-15231984D01*
X11335420Y-15231984D02*
X11287801Y-15231984D01*
X11287801Y-15231984D02*
X11268753Y-15222460D01*
X11268753Y-15222460D02*
X11259229Y-15212936D01*
X11611610Y-15231984D02*
X11611610Y-15031984D01*
X11697325Y-15231984D02*
X11697325Y-15127222D01*
X11697325Y-15127222D02*
X11687801Y-15108174D01*
X11687801Y-15108174D02*
X11668753Y-15098650D01*
X11668753Y-15098650D02*
X11640182Y-15098650D01*
X11640182Y-15098650D02*
X11621134Y-15108174D01*
X11621134Y-15108174D02*
X11611610Y-15117698D01*
X11821134Y-15231984D02*
X11802087Y-15222460D01*
X11802087Y-15222460D02*
X11792563Y-15212936D01*
X11792563Y-15212936D02*
X11783039Y-15193888D01*
X11783039Y-15193888D02*
X11783039Y-15136746D01*
X11783039Y-15136746D02*
X11792563Y-15117698D01*
X11792563Y-15117698D02*
X11802087Y-15108174D01*
X11802087Y-15108174D02*
X11821134Y-15098650D01*
X11821134Y-15098650D02*
X11849706Y-15098650D01*
X11849706Y-15098650D02*
X11868753Y-15108174D01*
X11868753Y-15108174D02*
X11878277Y-15117698D01*
X11878277Y-15117698D02*
X11887801Y-15136746D01*
X11887801Y-15136746D02*
X11887801Y-15193888D01*
X11887801Y-15193888D02*
X11878277Y-15212936D01*
X11878277Y-15212936D02*
X11868753Y-15222460D01*
X11868753Y-15222460D02*
X11849706Y-15231984D01*
X11849706Y-15231984D02*
X11821134Y-15231984D01*
X12002087Y-15231984D02*
X11983039Y-15222460D01*
X11983039Y-15222460D02*
X11973515Y-15203412D01*
X11973515Y-15203412D02*
X11973515Y-15031984D01*
X12154468Y-15222460D02*
X12135420Y-15231984D01*
X12135420Y-15231984D02*
X12097325Y-15231984D01*
X12097325Y-15231984D02*
X12078277Y-15222460D01*
X12078277Y-15222460D02*
X12068753Y-15203412D01*
X12068753Y-15203412D02*
X12068753Y-15127222D01*
X12068753Y-15127222D02*
X12078277Y-15108174D01*
X12078277Y-15108174D02*
X12097325Y-15098650D01*
X12097325Y-15098650D02*
X12135420Y-15098650D01*
X12135420Y-15098650D02*
X12154468Y-15108174D01*
X12154468Y-15108174D02*
X12163991Y-15127222D01*
X12163991Y-15127222D02*
X12163991Y-15146269D01*
X12163991Y-15146269D02*
X12068753Y-15165317D01*
X12240182Y-15222460D02*
X12259230Y-15231984D01*
X12259230Y-15231984D02*
X12297325Y-15231984D01*
X12297325Y-15231984D02*
X12316372Y-15222460D01*
X12316372Y-15222460D02*
X12325896Y-15203412D01*
X12325896Y-15203412D02*
X12325896Y-15193888D01*
X12325896Y-15193888D02*
X12316372Y-15174841D01*
X12316372Y-15174841D02*
X12297325Y-15165317D01*
X12297325Y-15165317D02*
X12268753Y-15165317D01*
X12268753Y-15165317D02*
X12249706Y-15155793D01*
X12249706Y-15155793D02*
X12240182Y-15136746D01*
X12240182Y-15136746D02*
X12240182Y-15127222D01*
X12240182Y-15127222D02*
X12249706Y-15108174D01*
X12249706Y-15108174D02*
X12268753Y-15098650D01*
X12268753Y-15098650D02*
X12297325Y-15098650D01*
X12297325Y-15098650D02*
X12316372Y-15108174D01*
X12392563Y-15308174D02*
X12402087Y-15298650D01*
X12402087Y-15298650D02*
X12421134Y-15270079D01*
X12421134Y-15270079D02*
X12430658Y-15251031D01*
X12430658Y-15251031D02*
X12440182Y-15222460D01*
X12440182Y-15222460D02*
X12449706Y-15174841D01*
X12449706Y-15174841D02*
X12449706Y-15136746D01*
X12449706Y-15136746D02*
X12440182Y-15089127D01*
X12440182Y-15089127D02*
X12430658Y-15060555D01*
X12430658Y-15060555D02*
X12421134Y-15041508D01*
X12421134Y-15041508D02*
X12402087Y-15012936D01*
X12402087Y-15012936D02*
X12392563Y-15003412D01*
D14*
X7595533Y-15457533D02*
X7595533Y-15351466D01*
X7489466Y-15351466D01*
X7489466Y-15457533D01*
X7595533Y-15457533D01*
D11*
X7983039Y-15495984D02*
X7868753Y-15495984D01*
X7925896Y-15495984D02*
X7925896Y-15295984D01*
X7925896Y-15295984D02*
X7906848Y-15324555D01*
X7906848Y-15324555D02*
X7887801Y-15343603D01*
X7887801Y-15343603D02*
X7868753Y-15353127D01*
X8068753Y-15476936D02*
X8078277Y-15486460D01*
X8078277Y-15486460D02*
X8068753Y-15495984D01*
X8068753Y-15495984D02*
X8059229Y-15486460D01*
X8059229Y-15486460D02*
X8068753Y-15476936D01*
X8068753Y-15476936D02*
X8068753Y-15495984D01*
X8259229Y-15295984D02*
X8163991Y-15295984D01*
X8163991Y-15295984D02*
X8154467Y-15391222D01*
X8154467Y-15391222D02*
X8163991Y-15381698D01*
X8163991Y-15381698D02*
X8183039Y-15372174D01*
X8183039Y-15372174D02*
X8230658Y-15372174D01*
X8230658Y-15372174D02*
X8249705Y-15381698D01*
X8249705Y-15381698D02*
X8259229Y-15391222D01*
X8259229Y-15391222D02*
X8268753Y-15410269D01*
X8268753Y-15410269D02*
X8268753Y-15457888D01*
X8268753Y-15457888D02*
X8259229Y-15476936D01*
X8259229Y-15476936D02*
X8249705Y-15486460D01*
X8249705Y-15486460D02*
X8230658Y-15495984D01*
X8230658Y-15495984D02*
X8183039Y-15495984D01*
X8183039Y-15495984D02*
X8163991Y-15486460D01*
X8163991Y-15486460D02*
X8154467Y-15476936D01*
X8392563Y-15295984D02*
X8411610Y-15295984D01*
X8411610Y-15295984D02*
X8430658Y-15305508D01*
X8430658Y-15305508D02*
X8440182Y-15315031D01*
X8440182Y-15315031D02*
X8449705Y-15334079D01*
X8449705Y-15334079D02*
X8459229Y-15372174D01*
X8459229Y-15372174D02*
X8459229Y-15419793D01*
X8459229Y-15419793D02*
X8449705Y-15457888D01*
X8449705Y-15457888D02*
X8440182Y-15476936D01*
X8440182Y-15476936D02*
X8430658Y-15486460D01*
X8430658Y-15486460D02*
X8411610Y-15495984D01*
X8411610Y-15495984D02*
X8392563Y-15495984D01*
X8392563Y-15495984D02*
X8373515Y-15486460D01*
X8373515Y-15486460D02*
X8363991Y-15476936D01*
X8363991Y-15476936D02*
X8354467Y-15457888D01*
X8354467Y-15457888D02*
X8344943Y-15419793D01*
X8344943Y-15419793D02*
X8344943Y-15372174D01*
X8344943Y-15372174D02*
X8354467Y-15334079D01*
X8354467Y-15334079D02*
X8363991Y-15315031D01*
X8363991Y-15315031D02*
X8373515Y-15305508D01*
X8373515Y-15305508D02*
X8392563Y-15295984D01*
X8583039Y-15295984D02*
X8602086Y-15295984D01*
X8602086Y-15295984D02*
X8621134Y-15305508D01*
X8621134Y-15305508D02*
X8630658Y-15315031D01*
X8630658Y-15315031D02*
X8640182Y-15334079D01*
X8640182Y-15334079D02*
X8649705Y-15372174D01*
X8649705Y-15372174D02*
X8649705Y-15419793D01*
X8649705Y-15419793D02*
X8640182Y-15457888D01*
X8640182Y-15457888D02*
X8630658Y-15476936D01*
X8630658Y-15476936D02*
X8621134Y-15486460D01*
X8621134Y-15486460D02*
X8602086Y-15495984D01*
X8602086Y-15495984D02*
X8583039Y-15495984D01*
X8583039Y-15495984D02*
X8563991Y-15486460D01*
X8563991Y-15486460D02*
X8554467Y-15476936D01*
X8554467Y-15476936D02*
X8544944Y-15457888D01*
X8544944Y-15457888D02*
X8535420Y-15419793D01*
X8535420Y-15419793D02*
X8535420Y-15372174D01*
X8535420Y-15372174D02*
X8544944Y-15334079D01*
X8544944Y-15334079D02*
X8554467Y-15315031D01*
X8554467Y-15315031D02*
X8563991Y-15305508D01*
X8563991Y-15305508D02*
X8583039Y-15295984D01*
X8735420Y-15495984D02*
X8735420Y-15362650D01*
X8735420Y-15381698D02*
X8744944Y-15372174D01*
X8744944Y-15372174D02*
X8763991Y-15362650D01*
X8763991Y-15362650D02*
X8792563Y-15362650D01*
X8792563Y-15362650D02*
X8811610Y-15372174D01*
X8811610Y-15372174D02*
X8821134Y-15391222D01*
X8821134Y-15391222D02*
X8821134Y-15495984D01*
X8821134Y-15391222D02*
X8830658Y-15372174D01*
X8830658Y-15372174D02*
X8849705Y-15362650D01*
X8849705Y-15362650D02*
X8878277Y-15362650D01*
X8878277Y-15362650D02*
X8897325Y-15372174D01*
X8897325Y-15372174D02*
X8906848Y-15391222D01*
X8906848Y-15391222D02*
X8906848Y-15495984D01*
X9002086Y-15495984D02*
X9002086Y-15362650D01*
X9002086Y-15381698D02*
X9011610Y-15372174D01*
X9011610Y-15372174D02*
X9030658Y-15362650D01*
X9030658Y-15362650D02*
X9059229Y-15362650D01*
X9059229Y-15362650D02*
X9078277Y-15372174D01*
X9078277Y-15372174D02*
X9087801Y-15391222D01*
X9087801Y-15391222D02*
X9087801Y-15495984D01*
X9087801Y-15391222D02*
X9097325Y-15372174D01*
X9097325Y-15372174D02*
X9116372Y-15362650D01*
X9116372Y-15362650D02*
X9144944Y-15362650D01*
X9144944Y-15362650D02*
X9163991Y-15372174D01*
X9163991Y-15372174D02*
X9173515Y-15391222D01*
X9173515Y-15391222D02*
X9173515Y-15495984D01*
X9563991Y-15286460D02*
X9392563Y-15543603D01*
X9821134Y-15295984D02*
X9840182Y-15295984D01*
X9840182Y-15295984D02*
X9859229Y-15305508D01*
X9859229Y-15305508D02*
X9868753Y-15315031D01*
X9868753Y-15315031D02*
X9878277Y-15334079D01*
X9878277Y-15334079D02*
X9887801Y-15372174D01*
X9887801Y-15372174D02*
X9887801Y-15419793D01*
X9887801Y-15419793D02*
X9878277Y-15457888D01*
X9878277Y-15457888D02*
X9868753Y-15476936D01*
X9868753Y-15476936D02*
X9859229Y-15486460D01*
X9859229Y-15486460D02*
X9840182Y-15495984D01*
X9840182Y-15495984D02*
X9821134Y-15495984D01*
X9821134Y-15495984D02*
X9802087Y-15486460D01*
X9802087Y-15486460D02*
X9792563Y-15476936D01*
X9792563Y-15476936D02*
X9783039Y-15457888D01*
X9783039Y-15457888D02*
X9773515Y-15419793D01*
X9773515Y-15419793D02*
X9773515Y-15372174D01*
X9773515Y-15372174D02*
X9783039Y-15334079D01*
X9783039Y-15334079D02*
X9792563Y-15315031D01*
X9792563Y-15315031D02*
X9802087Y-15305508D01*
X9802087Y-15305508D02*
X9821134Y-15295984D01*
X9973515Y-15476936D02*
X9983039Y-15486460D01*
X9983039Y-15486460D02*
X9973515Y-15495984D01*
X9973515Y-15495984D02*
X9963991Y-15486460D01*
X9963991Y-15486460D02*
X9973515Y-15476936D01*
X9973515Y-15476936D02*
X9973515Y-15495984D01*
X10106848Y-15295984D02*
X10125896Y-15295984D01*
X10125896Y-15295984D02*
X10144944Y-15305508D01*
X10144944Y-15305508D02*
X10154468Y-15315031D01*
X10154468Y-15315031D02*
X10163991Y-15334079D01*
X10163991Y-15334079D02*
X10173515Y-15372174D01*
X10173515Y-15372174D02*
X10173515Y-15419793D01*
X10173515Y-15419793D02*
X10163991Y-15457888D01*
X10163991Y-15457888D02*
X10154468Y-15476936D01*
X10154468Y-15476936D02*
X10144944Y-15486460D01*
X10144944Y-15486460D02*
X10125896Y-15495984D01*
X10125896Y-15495984D02*
X10106848Y-15495984D01*
X10106848Y-15495984D02*
X10087801Y-15486460D01*
X10087801Y-15486460D02*
X10078277Y-15476936D01*
X10078277Y-15476936D02*
X10068753Y-15457888D01*
X10068753Y-15457888D02*
X10059229Y-15419793D01*
X10059229Y-15419793D02*
X10059229Y-15372174D01*
X10059229Y-15372174D02*
X10068753Y-15334079D01*
X10068753Y-15334079D02*
X10078277Y-15315031D01*
X10078277Y-15315031D02*
X10087801Y-15305508D01*
X10087801Y-15305508D02*
X10106848Y-15295984D01*
X10354468Y-15295984D02*
X10259229Y-15295984D01*
X10259229Y-15295984D02*
X10249706Y-15391222D01*
X10249706Y-15391222D02*
X10259229Y-15381698D01*
X10259229Y-15381698D02*
X10278277Y-15372174D01*
X10278277Y-15372174D02*
X10325896Y-15372174D01*
X10325896Y-15372174D02*
X10344944Y-15381698D01*
X10344944Y-15381698D02*
X10354468Y-15391222D01*
X10354468Y-15391222D02*
X10363991Y-15410269D01*
X10363991Y-15410269D02*
X10363991Y-15457888D01*
X10363991Y-15457888D02*
X10354468Y-15476936D01*
X10354468Y-15476936D02*
X10344944Y-15486460D01*
X10344944Y-15486460D02*
X10325896Y-15495984D01*
X10325896Y-15495984D02*
X10278277Y-15495984D01*
X10278277Y-15495984D02*
X10259229Y-15486460D01*
X10259229Y-15486460D02*
X10249706Y-15476936D01*
X10459229Y-15495984D02*
X10497325Y-15495984D01*
X10497325Y-15495984D02*
X10516372Y-15486460D01*
X10516372Y-15486460D02*
X10525896Y-15476936D01*
X10525896Y-15476936D02*
X10544944Y-15448365D01*
X10544944Y-15448365D02*
X10554468Y-15410269D01*
X10554468Y-15410269D02*
X10554468Y-15334079D01*
X10554468Y-15334079D02*
X10544944Y-15315031D01*
X10544944Y-15315031D02*
X10535420Y-15305508D01*
X10535420Y-15305508D02*
X10516372Y-15295984D01*
X10516372Y-15295984D02*
X10478277Y-15295984D01*
X10478277Y-15295984D02*
X10459229Y-15305508D01*
X10459229Y-15305508D02*
X10449706Y-15315031D01*
X10449706Y-15315031D02*
X10440182Y-15334079D01*
X10440182Y-15334079D02*
X10440182Y-15381698D01*
X10440182Y-15381698D02*
X10449706Y-15400746D01*
X10449706Y-15400746D02*
X10459229Y-15410269D01*
X10459229Y-15410269D02*
X10478277Y-15419793D01*
X10478277Y-15419793D02*
X10516372Y-15419793D01*
X10516372Y-15419793D02*
X10535420Y-15410269D01*
X10535420Y-15410269D02*
X10544944Y-15400746D01*
X10544944Y-15400746D02*
X10554468Y-15381698D01*
X10744944Y-15495984D02*
X10630658Y-15495984D01*
X10687801Y-15495984D02*
X10687801Y-15295984D01*
X10687801Y-15295984D02*
X10668753Y-15324555D01*
X10668753Y-15324555D02*
X10649706Y-15343603D01*
X10649706Y-15343603D02*
X10630658Y-15353127D01*
X10821134Y-15295984D02*
X10821134Y-15334079D01*
X10897325Y-15295984D02*
X10897325Y-15334079D01*
X11192563Y-15572174D02*
X11183039Y-15562650D01*
X11183039Y-15562650D02*
X11163991Y-15534079D01*
X11163991Y-15534079D02*
X11154468Y-15515031D01*
X11154468Y-15515031D02*
X11144944Y-15486460D01*
X11144944Y-15486460D02*
X11135420Y-15438841D01*
X11135420Y-15438841D02*
X11135420Y-15400746D01*
X11135420Y-15400746D02*
X11144944Y-15353127D01*
X11144944Y-15353127D02*
X11154468Y-15324555D01*
X11154468Y-15324555D02*
X11163991Y-15305508D01*
X11163991Y-15305508D02*
X11183039Y-15276936D01*
X11183039Y-15276936D02*
X11192563Y-15267412D01*
X11259229Y-15315031D02*
X11268753Y-15305508D01*
X11268753Y-15305508D02*
X11287801Y-15295984D01*
X11287801Y-15295984D02*
X11335420Y-15295984D01*
X11335420Y-15295984D02*
X11354468Y-15305508D01*
X11354468Y-15305508D02*
X11363991Y-15315031D01*
X11363991Y-15315031D02*
X11373515Y-15334079D01*
X11373515Y-15334079D02*
X11373515Y-15353127D01*
X11373515Y-15353127D02*
X11363991Y-15381698D01*
X11363991Y-15381698D02*
X11249706Y-15495984D01*
X11249706Y-15495984D02*
X11373515Y-15495984D01*
X11611610Y-15495984D02*
X11611610Y-15295984D01*
X11697325Y-15495984D02*
X11697325Y-15391222D01*
X11697325Y-15391222D02*
X11687801Y-15372174D01*
X11687801Y-15372174D02*
X11668753Y-15362650D01*
X11668753Y-15362650D02*
X11640182Y-15362650D01*
X11640182Y-15362650D02*
X11621134Y-15372174D01*
X11621134Y-15372174D02*
X11611610Y-15381698D01*
X11821134Y-15495984D02*
X11802087Y-15486460D01*
X11802087Y-15486460D02*
X11792563Y-15476936D01*
X11792563Y-15476936D02*
X11783039Y-15457888D01*
X11783039Y-15457888D02*
X11783039Y-15400746D01*
X11783039Y-15400746D02*
X11792563Y-15381698D01*
X11792563Y-15381698D02*
X11802087Y-15372174D01*
X11802087Y-15372174D02*
X11821134Y-15362650D01*
X11821134Y-15362650D02*
X11849706Y-15362650D01*
X11849706Y-15362650D02*
X11868753Y-15372174D01*
X11868753Y-15372174D02*
X11878277Y-15381698D01*
X11878277Y-15381698D02*
X11887801Y-15400746D01*
X11887801Y-15400746D02*
X11887801Y-15457888D01*
X11887801Y-15457888D02*
X11878277Y-15476936D01*
X11878277Y-15476936D02*
X11868753Y-15486460D01*
X11868753Y-15486460D02*
X11849706Y-15495984D01*
X11849706Y-15495984D02*
X11821134Y-15495984D01*
X12002087Y-15495984D02*
X11983039Y-15486460D01*
X11983039Y-15486460D02*
X11973515Y-15467412D01*
X11973515Y-15467412D02*
X11973515Y-15295984D01*
X12154468Y-15486460D02*
X12135420Y-15495984D01*
X12135420Y-15495984D02*
X12097325Y-15495984D01*
X12097325Y-15495984D02*
X12078277Y-15486460D01*
X12078277Y-15486460D02*
X12068753Y-15467412D01*
X12068753Y-15467412D02*
X12068753Y-15391222D01*
X12068753Y-15391222D02*
X12078277Y-15372174D01*
X12078277Y-15372174D02*
X12097325Y-15362650D01*
X12097325Y-15362650D02*
X12135420Y-15362650D01*
X12135420Y-15362650D02*
X12154468Y-15372174D01*
X12154468Y-15372174D02*
X12163991Y-15391222D01*
X12163991Y-15391222D02*
X12163991Y-15410269D01*
X12163991Y-15410269D02*
X12068753Y-15429317D01*
X12240182Y-15486460D02*
X12259230Y-15495984D01*
X12259230Y-15495984D02*
X12297325Y-15495984D01*
X12297325Y-15495984D02*
X12316372Y-15486460D01*
X12316372Y-15486460D02*
X12325896Y-15467412D01*
X12325896Y-15467412D02*
X12325896Y-15457888D01*
X12325896Y-15457888D02*
X12316372Y-15438841D01*
X12316372Y-15438841D02*
X12297325Y-15429317D01*
X12297325Y-15429317D02*
X12268753Y-15429317D01*
X12268753Y-15429317D02*
X12249706Y-15419793D01*
X12249706Y-15419793D02*
X12240182Y-15400746D01*
X12240182Y-15400746D02*
X12240182Y-15391222D01*
X12240182Y-15391222D02*
X12249706Y-15372174D01*
X12249706Y-15372174D02*
X12268753Y-15362650D01*
X12268753Y-15362650D02*
X12297325Y-15362650D01*
X12297325Y-15362650D02*
X12316372Y-15372174D01*
X12392563Y-15572174D02*
X12402087Y-15562650D01*
X12402087Y-15562650D02*
X12421134Y-15534079D01*
X12421134Y-15534079D02*
X12430658Y-15515031D01*
X12430658Y-15515031D02*
X12440182Y-15486460D01*
X12440182Y-15486460D02*
X12449706Y-15438841D01*
X12449706Y-15438841D02*
X12449706Y-15400746D01*
X12449706Y-15400746D02*
X12440182Y-15353127D01*
X12440182Y-15353127D02*
X12430658Y-15324555D01*
X12430658Y-15324555D02*
X12421134Y-15305508D01*
X12421134Y-15305508D02*
X12402087Y-15276936D01*
X12402087Y-15276936D02*
X12392563Y-15267412D01*
M02*
