%TF.GenerationSoftware,KiCad,Pcbnew,8.0.6-hq-2-g3d73d9976a*%
%TF.CreationDate,2024-12-24T21:53:32+08:00*%
%TF.ProjectId,DemoBoard_SensorForTemp&Rh_IntegratedWithMCU,44656d6f-426f-4617-9264-5f53656e736f,rev?*%
%TF.SameCoordinates,Original*%
%TF.FileFunction,Paste,Top*%
%TF.FilePolarity,Positive*%
%FSLAX46Y46*%
G04 Gerber Fmt 4.6, Leading zero omitted, Abs format (unit mm)*
G04 Created by KiCad (PCBNEW 8.0.6-hq-2-g3d73d9976a) date 2024-12-24 21:53:32*
%MOMM*%
%LPD*%
G01*
G04 APERTURE LIST*
G04 Aperture macros list*
%AMRoundRect*
0 Rectangle with rounded corners*
0 $1 Rounding radius*
0 $2 $3 $4 $5 $6 $7 $8 $9 X,Y pos of 4 corners*
0 Add a 4 corners polygon primitive as box body*
4,1,4,$2,$3,$4,$5,$6,$7,$8,$9,$2,$3,0*
0 Add four circle primitives for the rounded corners*
1,1,$1+$1,$2,$3*
1,1,$1+$1,$4,$5*
1,1,$1+$1,$6,$7*
1,1,$1+$1,$8,$9*
0 Add four rect primitives between the rounded corners*
20,1,$1+$1,$2,$3,$4,$5,0*
20,1,$1+$1,$4,$5,$6,$7,0*
20,1,$1+$1,$6,$7,$8,$9,0*
20,1,$1+$1,$8,$9,$2,$3,0*%
%AMFreePoly0*
4,1,21,0.335355,1.035355,0.350000,1.000000,0.350000,-1.000000,0.335355,-1.035355,0.300000,-1.050000,-0.400000,-1.050000,-0.435355,-1.035355,-0.450000,-1.000000,-0.450000,-0.550000,-0.900000,-0.550000,-0.935355,-0.535355,-0.950000,-0.500000,-0.950000,0.500000,-0.935355,0.535355,-0.900000,0.550000,-0.450000,0.550000,-0.450000,1.000000,-0.435355,1.035355,-0.400000,1.050000,0.300000,1.050000,
0.335355,1.035355,0.335355,1.035355,$1*%
G04 Aperture macros list end*
%ADD10C,0.100000*%
%ADD11RoundRect,0.155000X0.212500X0.155000X-0.212500X0.155000X-0.212500X-0.155000X0.212500X-0.155000X0*%
%ADD12RoundRect,0.155000X0.040659X0.259862X-0.259862X-0.040659X-0.040659X-0.259862X0.259862X0.040659X0*%
%ADD13RoundRect,0.237500X0.371231X-0.035355X-0.035355X0.371231X-0.371231X0.035355X0.035355X-0.371231X0*%
%ADD14RoundRect,0.155000X0.259862X-0.040659X-0.040659X0.259862X-0.259862X0.040659X0.040659X-0.259862X0*%
%ADD15RoundRect,0.108108X-1.116892X0.691892X-1.116892X-0.691892X1.116892X-0.691892X1.116892X0.691892X0*%
%ADD16RoundRect,0.155000X-0.259862X0.040659X0.040659X-0.259862X0.259862X-0.040659X-0.040659X0.259862X0*%
%ADD17RoundRect,0.112500X0.237500X-0.112500X0.237500X0.112500X-0.237500X0.112500X-0.237500X-0.112500X0*%
%ADD18RoundRect,0.250000X-0.424264X0.000000X0.000000X-0.424264X0.424264X0.000000X0.000000X0.424264X0*%
%ADD19RoundRect,0.160000X-0.197500X-0.160000X0.197500X-0.160000X0.197500X0.160000X-0.197500X0.160000X0*%
%ADD20RoundRect,0.160000X-0.026517X-0.252791X0.252791X0.026517X0.026517X0.252791X-0.252791X-0.026517X0*%
%ADD21RoundRect,0.180682X-1.769318X0.614318X-1.769318X-0.614318X1.769318X-0.614318X1.769318X0.614318X0*%
%ADD22RoundRect,0.500000X-0.353553X-1.060660X1.060660X0.353553X0.353553X1.060660X-1.060660X-0.353553X0*%
%ADD23RoundRect,0.237500X0.339173X0.154997X-0.216234X0.303818X-0.339173X-0.154997X0.216234X-0.303818X0*%
%ADD24RoundRect,0.160000X-0.252791X0.026517X0.026517X-0.252791X0.252791X-0.026517X-0.026517X0.252791X0*%
%ADD25RoundRect,0.500000X-1.000000X-0.500000X1.000000X-0.500000X1.000000X0.500000X-1.000000X0.500000X0*%
%ADD26RoundRect,0.172500X-0.243952X0.000000X0.000000X-0.243952X0.243952X0.000000X0.000000X0.243952X0*%
%ADD27RoundRect,0.050000X-0.300520X0.229810X0.229810X-0.300520X0.300520X-0.229810X-0.229810X0.300520X0*%
%ADD28RoundRect,0.050000X-0.300520X-0.229810X-0.229810X-0.300520X0.300520X0.229810X0.229810X0.300520X0*%
%ADD29RoundRect,0.062500X0.062500X0.287500X-0.062500X0.287500X-0.062500X-0.287500X0.062500X-0.287500X0*%
%ADD30R,0.400000X0.800000*%
%ADD31R,0.500000X1.100000*%
%ADD32RoundRect,0.212500X0.212500X-0.787500X0.212500X0.787500X-0.212500X0.787500X-0.212500X-0.787500X0*%
%ADD33RoundRect,0.212500X0.787500X0.212500X-0.787500X0.212500X-0.787500X-0.212500X0.787500X-0.212500X0*%
%ADD34RoundRect,0.212500X-0.212500X0.787500X-0.212500X-0.787500X0.212500X-0.787500X0.212500X0.787500X0*%
%ADD35FreePoly0,0.000000*%
%ADD36FreePoly0,180.000000*%
G04 APERTURE END LIST*
D10*
%TO.C,J1*%
X97958060Y-66181804D02*
X97595713Y-67534100D01*
X96340010Y-67197635D01*
X96702356Y-65845339D01*
X97958060Y-66181804D01*
G36*
X97958060Y-66181804D02*
G01*
X97595713Y-67534100D01*
X96340010Y-67197635D01*
X96702356Y-65845339D01*
X97958060Y-66181804D01*
G37*
X98423934Y-64443137D02*
X98061588Y-65795432D01*
X96805884Y-65458969D01*
X97168231Y-64106673D01*
X98423934Y-64443137D01*
G36*
X98423934Y-64443137D02*
G01*
X98061588Y-65795432D01*
X96805884Y-65458969D01*
X97168231Y-64106673D01*
X98423934Y-64443137D01*
G37*
X99600134Y-66621796D02*
X99237787Y-67974092D01*
X97982085Y-67637628D01*
X98344430Y-66285331D01*
X99600134Y-66621796D01*
G36*
X99600134Y-66621796D02*
G01*
X99237787Y-67974092D01*
X97982085Y-67637628D01*
X98344430Y-66285331D01*
X99600134Y-66621796D01*
G37*
X100066008Y-64883130D02*
X99703661Y-66235426D01*
X98447958Y-65898961D01*
X98810305Y-64546665D01*
X100066008Y-64883130D01*
G36*
X100066008Y-64883130D02*
G01*
X99703661Y-66235426D01*
X98447958Y-65898961D01*
X98810305Y-64546665D01*
X100066008Y-64883130D01*
G37*
%TD*%
D11*
%TO.C,C21*%
X121785000Y-121920000D03*
X120650000Y-121920000D03*
%TD*%
D12*
%TO.C,C11*%
X135255000Y-96774000D03*
X134452434Y-97576566D03*
%TD*%
D13*
%TO.C,C12*%
X132419318Y-100567718D03*
X131181882Y-99330282D03*
%TD*%
D14*
%TO.C,C13*%
X133548083Y-99689883D03*
X132745517Y-98887317D03*
%TD*%
D15*
%TO.C,J2*%
X95588600Y-79759400D03*
X92938600Y-79759400D03*
X95588600Y-81559400D03*
X92938600Y-81559400D03*
%TD*%
D16*
%TO.C,C19*%
X110629902Y-128915168D03*
X111432468Y-129717734D03*
%TD*%
D17*
%TO.C,Q1*%
X122666000Y-125110000D03*
X122666000Y-123810000D03*
X120666000Y-124460000D03*
%TD*%
D18*
%TO.C,D1*%
X109780101Y-131370102D03*
X111759999Y-133350000D03*
%TD*%
D16*
%TO.C,C18*%
X112528059Y-130849246D03*
X113330625Y-131651812D03*
%TD*%
D19*
%TO.C,R2*%
X154723500Y-106436000D03*
X155918500Y-106436000D03*
%TD*%
D20*
%TO.C,R4*%
X133533195Y-96699753D03*
X134378187Y-95854761D03*
%TD*%
D21*
%TO.C,L1*%
X117475000Y-122720000D03*
X117475000Y-126210000D03*
%TD*%
D19*
%TO.C,R1*%
X154723500Y-109484000D03*
X155918500Y-109484000D03*
%TD*%
D22*
%TO.C,URT*%
X143065500Y-93662500D03*
%TD*%
D23*
%TO.C,C5*%
X99807785Y-63486867D03*
X98117415Y-63033933D03*
%TD*%
D14*
%TO.C,C20*%
X109510693Y-127795959D03*
X108708127Y-126993393D03*
%TD*%
D18*
%TO.C,D2*%
X106363361Y-127953362D03*
X108343259Y-129933260D03*
%TD*%
D24*
%TO.C,R6*%
X128187008Y-126282008D03*
X129032000Y-127127000D03*
%TD*%
D12*
%TO.C,C15*%
X134264400Y-102082600D03*
X133461834Y-102885166D03*
%TD*%
D23*
%TO.C,C1*%
X95686000Y-63539800D03*
X93995630Y-63086866D03*
%TD*%
D18*
%TO.C,D3*%
X111358505Y-126374958D03*
X113338403Y-128354856D03*
%TD*%
D24*
%TO.C,R3*%
X126536008Y-126282008D03*
X127381000Y-127127000D03*
%TD*%
D23*
%TO.C,C4*%
X94873200Y-66537000D03*
X93182830Y-66084066D03*
%TD*%
D25*
%TO.C,URT*%
X144145000Y-97917000D03*
%TD*%
D23*
%TO.C,C2*%
X95279600Y-65038400D03*
X93589230Y-64585466D03*
%TD*%
D26*
%TO.C,U4*%
X137440051Y-99750172D03*
X136860223Y-100330000D03*
X138019879Y-100330000D03*
X137440051Y-100909828D03*
D27*
X136980432Y-98739010D03*
X136697589Y-99021852D03*
X136414746Y-99304695D03*
X136131903Y-99587538D03*
X135849061Y-99870381D03*
D28*
X135849061Y-100789619D03*
X136131903Y-101072462D03*
X136414746Y-101355305D03*
X136697589Y-101638148D03*
X136980432Y-101920990D03*
D27*
X137899670Y-101920990D03*
X138182513Y-101638148D03*
X138465356Y-101355305D03*
X138748199Y-101072462D03*
X139031041Y-100789619D03*
D28*
X139031041Y-99870381D03*
X138748199Y-99587538D03*
X138465356Y-99304695D03*
X138182513Y-99021852D03*
X137899670Y-98739010D03*
%TD*%
D29*
%TO.C,J3*%
X128940000Y-129526000D03*
X128440000Y-129526000D03*
X127940000Y-129526000D03*
X127440000Y-129526000D03*
X126940000Y-129526000D03*
X126440000Y-129526000D03*
X125940000Y-129526000D03*
X125440000Y-129526000D03*
X124940000Y-129526000D03*
X124440000Y-129526000D03*
X123940000Y-129526000D03*
X123440000Y-129526000D03*
X122940000Y-129526000D03*
X122440000Y-129526000D03*
X121940000Y-129526000D03*
X121440000Y-129526000D03*
X120940000Y-129526000D03*
X120440000Y-129526000D03*
X119940000Y-129526000D03*
X119440000Y-129526000D03*
X118940000Y-129526000D03*
X118440000Y-129526000D03*
X117940000Y-129526000D03*
X117440000Y-129526000D03*
D30*
X129940000Y-132126000D03*
X116440000Y-132126000D03*
%TD*%
D20*
%TO.C,R5*%
X133838508Y-106318492D03*
X134683500Y-105473500D03*
%TD*%
D13*
%TO.C,C14*%
X131301718Y-101710718D03*
X130064282Y-100473282D03*
%TD*%
D31*
%TO.C,U3*%
X162544000Y-106710000D03*
X161544000Y-106710000D03*
X160544000Y-106710000D03*
X160544000Y-109210000D03*
X161544000Y-109210000D03*
X162544000Y-109210000D03*
%TD*%
D32*
%TO.C,U2*%
X153915190Y-75480200D03*
X152645190Y-75480200D03*
X151375190Y-75480200D03*
X150105190Y-75480200D03*
X148835190Y-75480200D03*
X147565190Y-75480200D03*
X146295190Y-75480200D03*
X145025190Y-75480200D03*
D33*
X142756810Y-78105000D03*
X142756810Y-79375000D03*
X142756810Y-80645000D03*
X142756810Y-81915000D03*
X142756810Y-83185000D03*
X142756810Y-84455000D03*
X142756810Y-85725000D03*
X142756810Y-86995000D03*
D34*
X145025190Y-89619800D03*
X146295190Y-89619800D03*
X147565190Y-89619800D03*
X148835190Y-89619800D03*
X150105190Y-89619800D03*
X151375190Y-89619800D03*
X152645190Y-89619800D03*
X153915190Y-89619800D03*
%TD*%
D19*
%TO.C,R7*%
X154723500Y-107960000D03*
X155918500Y-107960000D03*
%TD*%
D35*
%TO.C,VCC*%
X119550000Y-101219000D03*
D36*
X121750000Y-101219000D03*
%TD*%
M02*
