M48
; DRILL file {KiCad 8.0.6-hq-2-g3d73d9976a} date 2024-12-24T21:53:36+0800
; FORMAT={-:-/ absolute / metric / decimal}
; #@! TF.CreationDate,2024-12-24T21:53:36+08:00
; #@! TF.GenerationSoftware,Kicad,Pcbnew,8.0.6-hq-2-g3d73d9976a
; #@! TF.FileFunction,Plated,1,2,PTH
FMAT,2
METRIC
; #@! TA.AperFunction,Plated,PTH,ViaDrill
T1C0.300
; #@! TA.AperFunction,Plated,PTH,ComponentDrill
T2C0.300
; #@! TA.AperFunction,Plated,PTH,ComponentDrill
T3C1.200
; #@! TA.AperFunction,Plated,PTH,ComponentDrill
T4C1.500
%
G90
G05
T1
X78.486Y-102.235
X78.74Y-81.026
X78.74Y-130.048
X78.74Y-133.604
X79.121Y-66.421
X79.375Y-90.424
X79.502Y-109.855
X79.883Y-73.152
X80.01Y-136.144
X80.899Y-98.425
X82.169Y-57.912
X84.328Y-137.541
X88.9Y-81.28
X89.027Y-54.229
X90.17Y-78.74
X90.17Y-83.82
X92.075Y-137.033
X92.71Y-77.47
X92.71Y-85.09
X95.25Y-77.47
X95.25Y-85.09
X97.79Y-78.74
X97.79Y-83.82
X99.06Y-81.28
X100.711Y-54.737
X102.235Y-72.136
X104.013Y-72.517
X104.267Y-137.668
X108.077Y-73.406
X108.077Y-98.679
X108.204Y-137.668
X108.458Y-93.726
X108.839Y-80.01
X108.839Y-92.456
X109.474Y-104.14
X110.49Y-106.553
X110.617Y-75.565
X110.744Y-77.343
X110.871Y-108.839
X110.871Y-112.649
X112.268Y-137.795
X113.411Y-91.948
X113.421Y-126.375
X114.3Y-137.922
X114.427Y-97.536
X114.681Y-96.266
X115.062Y-128.016
X115.189Y-56.642
X115.316Y-100.711
X115.697Y-105.537
X116.332Y-112.141
X116.84Y-131.191
X116.967Y-95.758
X117.094Y-98.552
X117.094Y-109.474
X117.348Y-106.172
X118.44Y-130.81
X118.999Y-76.962
X119.253Y-130.378
X119.634Y-83.439
X119.94Y-131.191
X120.015Y-96.901
X120.142Y-136.779
X120.269Y-123.19
X120.523Y-128.397
X120.777Y-90.424
X120.929Y-130.81
X121.285Y-98.679
X121.285Y-126.365
X121.412Y-111.379
X121.94Y-131.191
X122.555Y-105.283
X122.555Y-126.365
X122.936Y-78.232
X123.317Y-119.507
X123.507Y-121.602
X123.507Y-122.237
X123.507Y-122.872
X123.825Y-127.381
X124.079Y-117.348
X124.46Y-125.984
X124.587Y-97.536
X124.714Y-109.347
X125.222Y-127.94
X125.438Y-132.486
X125.476Y-99.822
X125.73Y-105.41
X126.492Y-54.864
X126.53Y-127.72
X126.79Y-111.398
X126.94Y-130.378
X127.0Y-123.825
X127.127Y-75.565
X127.127Y-91.948
X127.127Y-113.157
X127.94Y-127.686
X128.397Y-97.536
X128.524Y-125.095
X128.524Y-137.922
X128.905Y-82.423
X129.032Y-128.079
X129.286Y-96.266
X129.429Y-101.108
X129.54Y-110.109
X131.267Y-100.482
X131.953Y-90.678
X132.334Y-96.164
X132.575Y-102.921
X132.588Y-77.343
X133.985Y-80.518
X134.239Y-92.075
X134.81Y-102.616
X135.268Y-101.943
X135.382Y-97.917
X135.966Y-106.07
X136.093Y-97.333
X136.779Y-106.68
X137.668Y-96.884
X137.795Y-76.454
X137.922Y-137.16
X138.087Y-115.1
X138.43Y-112.649
X138.684Y-85.725
X140.005Y-98.704
X140.462Y-107.442
X140.665Y-99.568
X141.249Y-80.645
X141.275Y-83.185
X142.113Y-108.077
X142.494Y-56.007
X143.51Y-104.14
X144.018Y-94.615
X144.145Y-104.775
X144.907Y-85.598
X145.161Y-77.724
X145.542Y-135.382
X145.923Y-81.534
X146.304Y-83.82
X146.304Y-93.37
X146.558Y-86.106
X146.939Y-82.804
X147.066Y-112.776
X147.32Y-78.105
X148.082Y-85.344
X148.835Y-91.068
X148.971Y-81.534
X149.479Y-137.414
X149.86Y-81.915
X149.86Y-83.312
X149.86Y-86.741
X150.495Y-113.03
X151.003Y-80.899
X151.257Y-56.134
X151.257Y-110.312
X151.511Y-102.286
X151.638Y-84.709
X151.765Y-112.776
X152.019Y-86.614
X152.4Y-104.14
X152.4Y-108.585
X152.908Y-81.28
X153.289Y-83.312
X153.289Y-86.233
X153.289Y-137.922
X153.518Y-88.036
X153.543Y-106.426
X154.051Y-94.615
X154.432Y-77.216
X154.686Y-67.818
X155.956Y-74.168
X155.956Y-94.234
X156.21Y-72.898
X156.337Y-92.583
X156.654Y-107.96
X160.528Y-136.652
X161.036Y-107.96
X162.052Y-107.96
X162.052Y-119.634
X162.433Y-130.937
X163.576Y-125.476
T2
X136.698Y-100.33
X137.44Y-99.588
X137.44Y-101.072
X138.183Y-100.33
T3
X114.3Y-78.74
X114.3Y-81.28
X114.3Y-83.82
X114.3Y-86.36
X114.3Y-88.9
T4
X92.075Y-70.485
X92.075Y-90.365
M30
