%TF.GenerationSoftware,KiCad,Pcbnew,8.0.6-hq-2-g3d73d9976a*%
%TF.CreationDate,2024-12-24T21:53:32+08:00*%
%TF.ProjectId,DemoBoard_SensorForTemp&Rh_IntegratedWithMCU,44656d6f-426f-4617-9264-5f53656e736f,rev?*%
%TF.SameCoordinates,Original*%
%TF.FileFunction,Profile,NP*%
%FSLAX46Y46*%
G04 Gerber Fmt 4.6, Leading zero omitted, Abs format (unit mm)*
G04 Created by KiCad (PCBNEW 8.0.6-hq-2-g3d73d9976a) date 2024-12-24 21:53:32*
%MOMM*%
%LPD*%
G01*
G04 APERTURE LIST*
%TA.AperFunction,Profile*%
%ADD10C,0.050000*%
%TD*%
G04 APERTURE END LIST*
D10*
X162814000Y-110779400D02*
G75*
G02*
X162814000Y-112049400I0J-635000D01*
G01*
X157480000Y-95250000D02*
X165100000Y-95250000D01*
X76200000Y-139700000D02*
X76200000Y-50800000D01*
X159639000Y-110779400D02*
G75*
G02*
X159004000Y-110144400I0J635000D01*
G01*
X162814000Y-103870600D02*
G75*
G02*
X162814000Y-105140600I0J-635000D01*
G01*
X162814000Y-105140600D02*
X159639000Y-105140600D01*
X159639000Y-103870600D02*
X162814000Y-103870600D01*
X159004000Y-105775600D02*
G75*
G02*
X159639000Y-105140600I635000J0D01*
G01*
X157734000Y-109357000D02*
G75*
G02*
X159004000Y-109357000I635000J0D01*
G01*
X157480000Y-69850000D02*
X157480000Y-95250000D01*
X159639000Y-112049400D02*
X162814000Y-112049400D01*
X159004000Y-106563000D02*
G75*
G02*
X157734000Y-106563000I-635000J0D01*
G01*
X76200000Y-50800000D02*
X165100000Y-50800000D01*
X157734000Y-109357000D02*
X157734000Y-110144400D01*
X165100000Y-139700000D02*
X76200000Y-139700000D01*
X157734000Y-106563000D02*
X157734000Y-105775600D01*
X159004000Y-109357000D02*
X159004000Y-110144400D01*
X165100000Y-69850000D02*
X157480000Y-69850000D01*
X159639000Y-112049400D02*
G75*
G02*
X157734000Y-110144400I0J1905000D01*
G01*
X157734000Y-105775600D02*
G75*
G02*
X159639000Y-103870600I1905000J0D01*
G01*
X159004000Y-106563000D02*
X159004000Y-105775600D01*
X162814000Y-110779400D02*
X159639000Y-110779400D01*
X165100000Y-50800000D02*
X165100000Y-69850000D01*
X165100000Y-95250000D02*
X165100000Y-139700000D01*
M02*
