%TF.GenerationSoftware,KiCad,Pcbnew,8.0.6-hq-2-g3d73d9976a*%
%TF.CreationDate,2024-12-24T21:53:32+08:00*%
%TF.ProjectId,DemoBoard_SensorForTemp&Rh_IntegratedWithMCU,44656d6f-426f-4617-9264-5f53656e736f,rev?*%
%TF.SameCoordinates,Original*%
%TF.FileFunction,Copper,L2,Bot*%
%TF.FilePolarity,Positive*%
%FSLAX46Y46*%
G04 Gerber Fmt 4.6, Leading zero omitted, Abs format (unit mm)*
G04 Created by KiCad (PCBNEW 8.0.6-hq-2-g3d73d9976a) date 2024-12-24 21:53:32*
%MOMM*%
%LPD*%
G01*
G04 APERTURE LIST*
G04 Aperture macros list*
%AMRoundRect*
0 Rectangle with rounded corners*
0 $1 Rounding radius*
0 $2 $3 $4 $5 $6 $7 $8 $9 X,Y pos of 4 corners*
0 Add a 4 corners polygon primitive as box body*
4,1,4,$2,$3,$4,$5,$6,$7,$8,$9,$2,$3,0*
0 Add four circle primitives for the rounded corners*
1,1,$1+$1,$2,$3*
1,1,$1+$1,$4,$5*
1,1,$1+$1,$6,$7*
1,1,$1+$1,$8,$9*
0 Add four rect primitives between the rounded corners*
20,1,$1+$1,$2,$3,$4,$5,0*
20,1,$1+$1,$4,$5,$6,$7,0*
20,1,$1+$1,$6,$7,$8,$9,0*
20,1,$1+$1,$8,$9,$2,$3,0*%
%AMFreePoly0*
4,1,19,0.550000,-0.750000,0.000000,-0.750000,0.000000,-0.744911,-0.071157,-0.744911,-0.207708,-0.704816,-0.327430,-0.627875,-0.420627,-0.520320,-0.479746,-0.390866,-0.500000,-0.250000,-0.500000,0.250000,-0.479746,0.390866,-0.420627,0.520320,-0.327430,0.627875,-0.207708,0.704816,-0.071157,0.744911,0.000000,0.744911,0.000000,0.750000,0.550000,0.750000,0.550000,-0.750000,0.550000,-0.750000,
$1*%
%AMFreePoly1*
4,1,19,0.000000,0.744911,0.071157,0.744911,0.207708,0.704816,0.327430,0.627875,0.420627,0.520320,0.479746,0.390866,0.500000,0.250000,0.500000,-0.250000,0.479746,-0.390866,0.420627,-0.520320,0.327430,-0.627875,0.207708,-0.704816,0.071157,-0.744911,0.000000,-0.744911,0.000000,-0.750000,-0.550000,-0.750000,-0.550000,0.750000,0.000000,0.750000,0.000000,0.744911,0.000000,0.744911,
$1*%
G04 Aperture macros list end*
%TA.AperFunction,Conductor*%
%ADD10C,0.000000*%
%TD*%
%TA.AperFunction,SMDPad,CuDef*%
%ADD11RoundRect,0.500000X-0.500000X1.000000X-0.500000X-1.000000X0.500000X-1.000000X0.500000X1.000000X0*%
%TD*%
%TA.AperFunction,SMDPad,CuDef*%
%ADD12RoundRect,0.500000X0.353553X1.060660X-1.060660X-0.353553X-0.353553X-1.060660X1.060660X0.353553X0*%
%TD*%
%TA.AperFunction,ComponentPad*%
%ADD13C,2.200000*%
%TD*%
%TA.AperFunction,HeatsinkPad*%
%ADD14C,0.600000*%
%TD*%
%TA.AperFunction,SMDPad,CuDef*%
%ADD15RoundRect,0.250000X-0.813173X0.000000X0.000000X-0.813173X0.813173X0.000000X0.000000X0.813173X0*%
%TD*%
%TA.AperFunction,ComponentPad*%
%ADD16R,3.000000X3.000000*%
%TD*%
%TA.AperFunction,ComponentPad*%
%ADD17C,3.000000*%
%TD*%
%TA.AperFunction,SMDPad,CuDef*%
%ADD18RoundRect,0.155000X0.155000X-0.212500X0.155000X0.212500X-0.155000X0.212500X-0.155000X-0.212500X0*%
%TD*%
%TA.AperFunction,SMDPad,CuDef*%
%ADD19RoundRect,0.500000X1.000000X0.500000X-1.000000X0.500000X-1.000000X-0.500000X1.000000X-0.500000X0*%
%TD*%
%TA.AperFunction,SMDPad,CuDef*%
%ADD20FreePoly0,270.000000*%
%TD*%
%TA.AperFunction,SMDPad,CuDef*%
%ADD21R,1.500000X1.000000*%
%TD*%
%TA.AperFunction,SMDPad,CuDef*%
%ADD22FreePoly1,270.000000*%
%TD*%
%TA.AperFunction,SMDPad,CuDef*%
%ADD23RoundRect,0.237500X0.287500X0.237500X-0.287500X0.237500X-0.287500X-0.237500X0.287500X-0.237500X0*%
%TD*%
%TA.AperFunction,SMDPad,CuDef*%
%ADD24RoundRect,0.500000X-1.000000X-0.500000X1.000000X-0.500000X1.000000X0.500000X-1.000000X0.500000X0*%
%TD*%
%TA.AperFunction,ViaPad*%
%ADD25C,0.600000*%
%TD*%
%TA.AperFunction,Conductor*%
%ADD26C,0.200000*%
%TD*%
%TA.AperFunction,Conductor*%
%ADD27C,0.250000*%
%TD*%
%TA.AperFunction,Conductor*%
%ADD28C,0.300000*%
%TD*%
%TA.AperFunction,Conductor*%
%ADD29C,0.635000*%
%TD*%
G04 APERTURE END LIST*
D10*
%TA.AperFunction,Conductor*%
%TO.N,GND*%
G36*
X160548000Y-107930000D02*
G01*
X160513000Y-108005000D01*
X160488000Y-108005000D01*
X160463000Y-107985000D01*
X160448000Y-107975000D01*
X160428000Y-107965000D01*
X160413000Y-107960000D01*
X160393000Y-107955000D01*
X160373000Y-107960000D01*
X160353000Y-107970000D01*
X160333000Y-107985000D01*
X160313000Y-108005000D01*
X160139490Y-107767324D01*
X160159490Y-107757324D01*
X160189490Y-107757324D01*
X160209490Y-107747324D01*
X160224490Y-107742324D01*
X160248000Y-107735000D01*
X160274490Y-107732324D01*
X160309490Y-107712324D01*
X160319490Y-107707324D01*
X160344490Y-107692324D01*
X160548000Y-107930000D01*
G37*
%TD.AperFunction*%
%TA.AperFunction,Conductor*%
%TO.N,Net-(U3-VDD)*%
G36*
X162748000Y-107855000D02*
G01*
X162723000Y-107885000D01*
X162703000Y-107916095D01*
X162693000Y-107936095D01*
X162688000Y-107956095D01*
X162693000Y-107976095D01*
X162698000Y-107991095D01*
X162708000Y-108011095D01*
X162718000Y-108026095D01*
X162738000Y-108055000D01*
X162738000Y-108076095D01*
X162663000Y-108111095D01*
X162425324Y-107907585D01*
X162440324Y-107882585D01*
X162445324Y-107872585D01*
X162465324Y-107837585D01*
X162468000Y-107811095D01*
X162475324Y-107787585D01*
X162480324Y-107772585D01*
X162490324Y-107752585D01*
X162490324Y-107722585D01*
X162500324Y-107702585D01*
X162748000Y-107855000D01*
G37*
%TD.AperFunction*%
%TD*%
D11*
%TO.P,nCS,1*%
%TO.N,/E-Ink Driver/RST*%
X138544300Y-109956600D03*
%TD*%
D12*
%TO.P,nDC,1*%
%TO.N,/E-Ink Driver/nDC*%
X130708400Y-104533700D03*
%TD*%
D13*
%TO.P,TP7,1,1*%
%TO.N,GND*%
X114300000Y-81280000D03*
%TD*%
%TO.P,TP10,1,1*%
%TO.N,/HC32L110_QFN20/UART_TX*%
X114300000Y-86360000D03*
%TD*%
%TO.P,TP9,1,1*%
%TO.N,/HC32L110_QFN20/UART_RX*%
X114300000Y-88900000D03*
%TD*%
%TO.P,TP8,1,1*%
%TO.N,/E104-BT01/RST*%
X114300000Y-83820000D03*
%TD*%
D14*
%TO.P,U4,21,PAD*%
%TO.N,GND*%
X137440051Y-99587538D03*
X136697589Y-100330000D03*
D15*
X137440051Y-100330000D03*
D14*
X138182513Y-100330000D03*
X137440051Y-101072462D03*
%TD*%
D16*
%TO.P,REF\u002A\u002A,1*%
%TO.N,VCC*%
X92075000Y-70485000D03*
D17*
%TO.P,REF\u002A\u002A,2*%
%TO.N,GND*%
X92075000Y-90365000D03*
%TD*%
D13*
%TO.P,TP6,1,1*%
%TO.N,VCC*%
X114300000Y-78740000D03*
%TD*%
D18*
%TO.P,C7,1*%
%TO.N,GND*%
X118440000Y-133231700D03*
%TO.P,C7,2*%
%TO.N,/E-Ink Driver/VSL*%
X118440000Y-132096700D03*
%TD*%
D19*
%TO.P,SCL,1*%
%TO.N,/SCL*%
X149352000Y-102285800D03*
%TD*%
D20*
%TO.P,JP1,1,A*%
%TO.N,VCC*%
X124206000Y-131191000D03*
D21*
%TO.P,JP1,2,C*%
%TO.N,/E-Ink Driver/BS*%
X124206000Y-132491000D03*
D22*
%TO.P,JP1,3,B*%
%TO.N,GND*%
X124206000Y-133791000D03*
%TD*%
D12*
%TO.P,SDA,1*%
%TO.N,/E-Ink Driver/nSDA*%
X127635000Y-108077000D03*
%TD*%
D23*
%TO.P,C3,1*%
%TO.N,Net-(U3-VDD)*%
X162419000Y-106944000D03*
%TO.P,C3,2*%
%TO.N,GND*%
X160669000Y-106944000D03*
%TD*%
D18*
%TO.P,C10,1*%
%TO.N,GND*%
X121440000Y-135822500D03*
%TO.P,C10,2*%
%TO.N,Net-(J3-Pin_18)*%
X121440000Y-134687500D03*
%TD*%
D12*
%TO.P,SCK,1*%
%TO.N,/E-Ink Driver/nSCK*%
X123444000Y-112141000D03*
%TD*%
D18*
%TO.P,C17,1*%
%TO.N,GND*%
X126940000Y-133231700D03*
%TO.P,C17,2*%
%TO.N,Net-(J3-Pin_5)*%
X126940000Y-132096700D03*
%TD*%
D11*
%TO.P,nCS,1*%
%TO.N,/E-Ink Driver/nCS*%
X134493000Y-108585000D03*
%TD*%
D18*
%TO.P,C9,1*%
%TO.N,GND*%
X119940000Y-133231700D03*
%TO.P,C9,2*%
%TO.N,/E-Ink Driver/VPP*%
X119940000Y-132096700D03*
%TD*%
D24*
%TO.P,SDA,1*%
%TO.N,/SDA*%
X149225000Y-110312200D03*
%TD*%
D18*
%TO.P,C8,1*%
%TO.N,GND*%
X119440000Y-135822500D03*
%TO.P,C8,2*%
%TO.N,/E-Ink Driver/VSH*%
X119440000Y-134687500D03*
%TD*%
D19*
%TO.P,SCL,1*%
%TO.N,VCC*%
X150749000Y-106426000D03*
%TD*%
D18*
%TO.P,C6,1*%
%TO.N,GND*%
X117440000Y-135822500D03*
%TO.P,C6,2*%
%TO.N,/E-Ink Driver/VCOM*%
X117440000Y-134687500D03*
%TD*%
%TO.P,C16,1*%
%TO.N,GND*%
X121940000Y-133231700D03*
%TO.P,C16,2*%
%TO.N,VCC*%
X121940000Y-132096700D03*
%TD*%
D25*
%TO.N,VCC*%
X153543000Y-106426000D03*
X134810500Y-102616000D03*
X132334000Y-96164400D03*
X120269000Y-123190000D03*
X121940000Y-131191000D03*
X131267200Y-100482400D03*
%TO.N,Net-(U3-VDD)*%
X162052000Y-107960000D03*
X156654500Y-107960000D03*
%TO.N,GND*%
X148971000Y-81534000D03*
X146558000Y-86106000D03*
X114681000Y-96266000D03*
X155956000Y-94234000D03*
X78486000Y-102235000D03*
X124714000Y-109347000D03*
X108458000Y-93726000D03*
X115316000Y-100711000D03*
X153289000Y-137922000D03*
X78740000Y-81026000D03*
X149860000Y-86741000D03*
X132588000Y-77343000D03*
X90170000Y-78740000D03*
X145161000Y-77724000D03*
X89027000Y-54229000D03*
X138087100Y-115100100D03*
X128397000Y-97536000D03*
X92710000Y-85090000D03*
X144907000Y-85598000D03*
X117094000Y-109474000D03*
X151257000Y-56134000D03*
X79121000Y-66421000D03*
X148082000Y-85344000D03*
X113411000Y-91948000D03*
X112268000Y-137795000D03*
X118999000Y-76962000D03*
X79375000Y-90424000D03*
X125476000Y-99822000D03*
X142113000Y-108077000D03*
X131953000Y-90678000D03*
X123507500Y-121602500D03*
X114427000Y-97536000D03*
X149479000Y-137414000D03*
X120015000Y-96901000D03*
X151003000Y-80899000D03*
X127127000Y-113157000D03*
X119634000Y-83439000D03*
X117094000Y-98552000D03*
X110871000Y-112649000D03*
X120142000Y-136779000D03*
X121412000Y-111379000D03*
X128524000Y-137922000D03*
X154432000Y-77216000D03*
X124587000Y-97536000D03*
X140462000Y-107442000D03*
X156337000Y-92583000D03*
X114300000Y-137922000D03*
X109474000Y-104140000D03*
X120523000Y-128397000D03*
X115189000Y-56642000D03*
X145542000Y-135382000D03*
X95250000Y-77470000D03*
X146304000Y-83820000D03*
X150495000Y-113030000D03*
X97790000Y-78740000D03*
X92075000Y-137033000D03*
X92710000Y-77470000D03*
X156210000Y-72898000D03*
X162433000Y-130937000D03*
X110617000Y-75565000D03*
X129429282Y-101108282D03*
X143510000Y-104140000D03*
X151638000Y-84709000D03*
X108077000Y-98679000D03*
X120777000Y-90424000D03*
X153289000Y-83312000D03*
X104267000Y-137668000D03*
X128905000Y-82423000D03*
X82169000Y-57912000D03*
X127127000Y-91948000D03*
X80899000Y-98425000D03*
X145923000Y-81534000D03*
X123507500Y-122872500D03*
X121285000Y-98679000D03*
X144145000Y-104775000D03*
X126530000Y-127720000D03*
X138430000Y-112649000D03*
X161036000Y-107960000D03*
X137795000Y-76454000D03*
X108204000Y-137668000D03*
X129286000Y-96266000D03*
X163576000Y-125476000D03*
X152400000Y-108585000D03*
X142494000Y-56007000D03*
X80010000Y-136144000D03*
X155956000Y-74168000D03*
X133985000Y-80518000D03*
X88900000Y-81280000D03*
X160528000Y-136652000D03*
X116332000Y-112141000D03*
X110871000Y-108839000D03*
X117348000Y-106172000D03*
X153289000Y-86233000D03*
X110490000Y-106553000D03*
X152019000Y-86614000D03*
X108077000Y-73406000D03*
X122936000Y-78232000D03*
X108839000Y-80010000D03*
X146939000Y-82804000D03*
X126492000Y-54864000D03*
X147320000Y-78105000D03*
X123507500Y-122237500D03*
X79883000Y-73152000D03*
X125730000Y-105410000D03*
X99060000Y-81280000D03*
X122555000Y-105283000D03*
X154686000Y-67818000D03*
X102235000Y-72136000D03*
X110744000Y-77343000D03*
X78740000Y-133604000D03*
X78740000Y-130048000D03*
X147066000Y-112776000D03*
X79502000Y-109855000D03*
X162052000Y-119634000D03*
X149860000Y-83312000D03*
X152400000Y-104140000D03*
X149860000Y-81915000D03*
X115697000Y-105537000D03*
X116967000Y-95758000D03*
X100711000Y-54737000D03*
X108839000Y-92456000D03*
X90170000Y-83820000D03*
X84328000Y-137541000D03*
X104013000Y-72517000D03*
X154051000Y-94615000D03*
X95250000Y-85090000D03*
X151765000Y-112776000D03*
X152908000Y-81280000D03*
X134239000Y-92075000D03*
X97790000Y-83820000D03*
X137922000Y-137160000D03*
X132575300Y-102920800D03*
X127127000Y-75565000D03*
X138684000Y-85725000D03*
%TO.N,/E-Ink Driver/VCOM*%
X116840000Y-131191000D03*
%TO.N,/E-Ink Driver/VSL*%
X118440000Y-130810000D03*
%TO.N,/E-Ink Driver/VSH*%
X119253000Y-130378200D03*
%TO.N,/E-Ink Driver/VPP*%
X119940000Y-131191000D03*
%TO.N,Net-(J3-Pin_18)*%
X120929400Y-130810000D03*
%TO.N,/E104-BT01/RST*%
X137668000Y-96883952D03*
X153517600Y-88036400D03*
%TO.N,Net-(J3-Pin_5)*%
X126940000Y-130378200D03*
%TO.N,/E-Ink Driver/PREVGH*%
X113420958Y-126374958D03*
X115062000Y-128016000D03*
%TO.N,/E-Ink Driver/nSDA*%
X121285000Y-126365000D03*
X129540000Y-110109000D03*
X123317000Y-119507000D03*
%TO.N,/E-Ink Driver/RST*%
X136779000Y-106680000D03*
X125222000Y-127939800D03*
%TO.N,/E-Ink Driver/RESE*%
X127940000Y-127686000D03*
X127000000Y-123825000D03*
%TO.N,/E-Ink Driver/nSCK*%
X124079000Y-117348000D03*
X126790450Y-111398050D03*
X122555000Y-126365000D03*
%TO.N,/E-Ink Driver/GDR*%
X128524000Y-125095000D03*
X129032000Y-128079500D03*
%TO.N,/E-Ink Driver/nCS*%
X135966200Y-106070400D03*
X123825000Y-127381000D03*
%TO.N,/SDA*%
X151257000Y-110312200D03*
%TO.N,/SCL*%
X151511000Y-102285800D03*
%TO.N,/E104-BT01/TX*%
X140004800Y-98704400D03*
X148835190Y-91067810D03*
X144018000Y-94615000D03*
%TO.N,/E104-BT01/WKP*%
X141274800Y-83185000D03*
X136093200Y-97332800D03*
%TO.N,/E104-BT01/DATA*%
X141249400Y-80645000D03*
X135382000Y-97917000D03*
%TO.N,/E104-BT01/DISC*%
X140665200Y-99568000D03*
X146304000Y-93370400D03*
%TO.N,/E-Ink Driver/BS*%
X125437900Y-132486400D03*
%TO.N,/E-Ink Driver/nDC*%
X124460000Y-125984000D03*
X135267700Y-101942900D03*
%TD*%
D26*
%TO.N,GND*%
X124612400Y-129108200D02*
X124574300Y-129146300D01*
X126034800Y-129108200D02*
X124612400Y-129108200D01*
D27*
X124002800Y-128574800D02*
X124574300Y-129146300D01*
X122999500Y-128574800D02*
X124002800Y-128574800D01*
X122999500Y-127063500D02*
X122999500Y-128574800D01*
X123507500Y-126555500D02*
X122999500Y-127063500D01*
X123507500Y-122872500D02*
X123507500Y-126555500D01*
X130432582Y-102184200D02*
X129429282Y-103187500D01*
X131838700Y-102184200D02*
X130432582Y-102184200D01*
X132575300Y-102920800D02*
X131838700Y-102184200D01*
X129175282Y-103441500D02*
X121920000Y-103441500D01*
X129429282Y-103187500D02*
X129175282Y-103441500D01*
X129429282Y-101108282D02*
X129429282Y-103187500D01*
D28*
%TO.N,/E-Ink Driver/nSDA*%
X129540000Y-109982000D02*
X127635000Y-108077000D01*
X129540000Y-110109000D02*
X129540000Y-109982000D01*
D26*
%TO.N,/E-Ink Driver/RST*%
X138544300Y-109956600D02*
X136779000Y-109956600D01*
D27*
X136779000Y-109956600D02*
X136779000Y-112141000D01*
X136779000Y-106680000D02*
X136779000Y-109956600D01*
D26*
%TO.N,/E-Ink Driver/nDC*%
X131832350Y-105657650D02*
X133350000Y-104140000D01*
X130708400Y-104533700D02*
X131832350Y-105657650D01*
X130810000Y-106680000D02*
X131832350Y-105657650D01*
D27*
%TO.N,/E-Ink Driver/RST*%
X126047500Y-122872500D02*
X126047500Y-127063500D01*
X126047500Y-127063500D02*
X125222000Y-127889000D01*
X125222000Y-127889000D02*
X125222000Y-127939800D01*
X136779000Y-112141000D02*
X126047500Y-122872500D01*
D28*
%TO.N,VCC*%
X121920000Y-128270000D02*
X120269000Y-126619000D01*
D27*
X131267200Y-96596200D02*
X131267200Y-100482400D01*
D28*
X121940000Y-131191000D02*
X121940000Y-132096700D01*
D27*
X121940000Y-131191000D02*
X124206000Y-131191000D01*
X132334000Y-96164400D02*
X131699000Y-96164400D01*
D28*
X121940000Y-131191000D02*
X121920000Y-131191000D01*
X120269000Y-126619000D02*
X120269000Y-123190000D01*
D27*
X148336000Y-106426000D02*
X153543000Y-106426000D01*
X131699000Y-96164400D02*
X131267200Y-96596200D01*
D28*
X121920000Y-131191000D02*
X121920000Y-128270000D01*
D27*
X144526000Y-102616000D02*
X148336000Y-106426000D01*
X134810500Y-102616000D02*
X144526000Y-102616000D01*
D28*
%TO.N,Net-(U3-VDD)*%
X162687000Y-108214000D02*
X162433000Y-107960000D01*
X162433000Y-108976000D02*
X162687000Y-108722000D01*
X162687000Y-106970500D02*
X162406500Y-106690000D01*
X159429054Y-108385054D02*
X160020000Y-108976000D01*
X159258000Y-108206000D02*
X159429054Y-108377054D01*
X162052000Y-107960000D02*
X162433000Y-107960000D01*
X156654500Y-107960000D02*
X156900500Y-108206000D01*
X162687000Y-108722000D02*
X162687000Y-108214000D01*
X159429054Y-108377054D02*
X159429054Y-108385054D01*
X160020000Y-108976000D02*
X162433000Y-108976000D01*
X162687000Y-107706000D02*
X162687000Y-106970500D01*
X156900500Y-108206000D02*
X159258000Y-108206000D01*
X162433000Y-107960000D02*
X162687000Y-107706000D01*
%TO.N,GND*%
X117440000Y-135822500D02*
X118491000Y-135822500D01*
D27*
X147955000Y-104648000D02*
X143637000Y-100330000D01*
X124206000Y-133791000D02*
X124206000Y-135822500D01*
D28*
X160147000Y-107960000D02*
X160401000Y-107706000D01*
D27*
X139992100Y-100672900D02*
X139649200Y-100330000D01*
X139649200Y-100330000D02*
X136450102Y-100330000D01*
D28*
X159512000Y-107706000D02*
X159766000Y-107960000D01*
D27*
X93345000Y-135255000D02*
X93345000Y-103378000D01*
X121920000Y-92075000D02*
X121920000Y-103441500D01*
D28*
X157861000Y-107706000D02*
X159512000Y-107706000D01*
X154305000Y-104648000D02*
X157353000Y-107696000D01*
X159766000Y-107960000D02*
X160147000Y-107960000D01*
D27*
X134239000Y-92075000D02*
X121920000Y-92075000D01*
X141351000Y-100672900D02*
X139992100Y-100672900D01*
X143637000Y-100330000D02*
X141693900Y-100330000D01*
D28*
X122665300Y-133231700D02*
X122859800Y-133426200D01*
X120396000Y-134366000D02*
X120396000Y-135822500D01*
D27*
X114300000Y-81280000D02*
X99060000Y-81280000D01*
X122444700Y-135822500D02*
X124206000Y-135822500D01*
D28*
X121940000Y-133231700D02*
X121940000Y-133243000D01*
D27*
X115951000Y-135255000D02*
X93345000Y-135255000D01*
D28*
X122859800Y-133934200D02*
X122453400Y-134340600D01*
X118440000Y-133231700D02*
X118440000Y-135771500D01*
X160401000Y-106970500D02*
X160681500Y-106690000D01*
X160401000Y-107706000D02*
X160401000Y-106970500D01*
D27*
X128104900Y-133231700D02*
X126940000Y-133231700D01*
X115951000Y-128968500D02*
X115951000Y-135255000D01*
X124206000Y-135822500D02*
X126940000Y-135822500D01*
D28*
X121940000Y-133231700D02*
X122665300Y-133231700D01*
D27*
X126034800Y-128215200D02*
X126530000Y-127720000D01*
D28*
X122453400Y-134340600D02*
X122453400Y-135813800D01*
D27*
X121920000Y-103441500D02*
X93345000Y-103441500D01*
D28*
X119940000Y-133910000D02*
X120396000Y-134366000D01*
D27*
X126940000Y-135822500D02*
X126940000Y-133231700D01*
X116518500Y-135822500D02*
X117440000Y-135822500D01*
D28*
X118491000Y-135822500D02*
X120396000Y-135822500D01*
D27*
X137440051Y-99340051D02*
X137440051Y-101319949D01*
D28*
X122444700Y-135822500D02*
X121440000Y-135822500D01*
D27*
X93345000Y-103441500D02*
X93345000Y-103378000D01*
X120523000Y-128397000D02*
X116522500Y-128397000D01*
D28*
X122453400Y-135813800D02*
X122444700Y-135822500D01*
X161036000Y-107960000D02*
X160655000Y-107960000D01*
D27*
X93345000Y-85090000D02*
X95250000Y-85090000D01*
X126034800Y-128574800D02*
X126034800Y-128215200D01*
D28*
X157353000Y-107696000D02*
X157851000Y-107696000D01*
D27*
X141693900Y-100330000D02*
X141351000Y-100672900D01*
D28*
X148844000Y-104648000D02*
X154305000Y-104648000D01*
D29*
X123507500Y-121602500D02*
X123507500Y-122872500D01*
D28*
X120396000Y-135822500D02*
X121440000Y-135822500D01*
X119940000Y-133231700D02*
X119940000Y-133910000D01*
D27*
X116522500Y-128397000D02*
X115951000Y-128968500D01*
X115951000Y-135255000D02*
X116518500Y-135822500D01*
X93345000Y-103378000D02*
X93345000Y-85090000D01*
X126034800Y-128574800D02*
X126034800Y-129108200D01*
D28*
X122859800Y-133426200D02*
X122859800Y-133934200D01*
D27*
X148844000Y-104648000D02*
X147955000Y-104648000D01*
D28*
X157851000Y-107696000D02*
X157861000Y-107706000D01*
D27*
X126034800Y-129108200D02*
X128104900Y-129108200D01*
X128104900Y-129108200D02*
X128104900Y-133231700D01*
D28*
X160655000Y-107960000D02*
X160401000Y-107706000D01*
%TO.N,/E-Ink Driver/VCOM*%
X116840000Y-131953000D02*
X117440000Y-132553000D01*
X116840000Y-131191000D02*
X116840000Y-131953000D01*
X117440000Y-132553000D02*
X117440000Y-134687500D01*
%TO.N,/E-Ink Driver/VSL*%
X118440000Y-132096700D02*
X118440000Y-130810000D01*
%TO.N,/E-Ink Driver/VSH*%
X119176800Y-133832600D02*
X119440000Y-134095800D01*
X119253000Y-130378200D02*
X119176800Y-130454400D01*
X119176800Y-130454400D02*
X119176800Y-133832600D01*
X119440000Y-134095800D02*
X119440000Y-134687500D01*
%TO.N,/E-Ink Driver/VPP*%
X119940000Y-131191000D02*
X119940000Y-132096700D01*
%TO.N,Net-(J3-Pin_18)*%
X120929400Y-134176900D02*
X121440000Y-134687500D01*
X120929400Y-130810000D02*
X120929400Y-134176900D01*
D27*
%TO.N,/E104-BT01/RST*%
X153466800Y-87985600D02*
X146566352Y-87985600D01*
X153517600Y-88036400D02*
X153466800Y-87985600D01*
X146566352Y-87985600D02*
X137668000Y-96883952D01*
D28*
%TO.N,Net-(J3-Pin_5)*%
X126940000Y-130378200D02*
X126940000Y-132096700D01*
%TO.N,/E-Ink Driver/PREVGH*%
X113420958Y-126374958D02*
X115062000Y-128016000D01*
D27*
%TO.N,/E-Ink Driver/nSDA*%
X121285000Y-126365000D02*
X121285000Y-121539000D01*
X121285000Y-121539000D02*
X123317000Y-119507000D01*
D28*
%TO.N,/E-Ink Driver/RESE*%
X127940000Y-127686000D02*
X127711200Y-127457200D01*
X127711200Y-127457200D02*
X127711200Y-124536200D01*
X127711200Y-124536200D02*
X127000000Y-123825000D01*
D27*
%TO.N,/E-Ink Driver/nSCK*%
X124079000Y-120078500D02*
X122555000Y-121602500D01*
X124079000Y-117348000D02*
X124079000Y-120078500D01*
D28*
X126136400Y-110744000D02*
X126790450Y-111398050D01*
X124968000Y-110744000D02*
X123444000Y-112268000D01*
D27*
X122555000Y-121602500D02*
X122555000Y-126365000D01*
D28*
X126136400Y-110744000D02*
X124968000Y-110744000D01*
%TO.N,/E-Ink Driver/GDR*%
X129032000Y-128079500D02*
X129032000Y-125603000D01*
X129032000Y-125603000D02*
X128524000Y-125095000D01*
D27*
%TO.N,/E-Ink Driver/nCS*%
X135953500Y-108585000D02*
X135953500Y-108559600D01*
X135953500Y-108559600D02*
X135953500Y-111696500D01*
X134493000Y-108585000D02*
X135953500Y-108585000D01*
X135966200Y-106070400D02*
X135953500Y-106083100D01*
X135953500Y-106083100D02*
X135953500Y-108559600D01*
X125349000Y-122301000D02*
X125349000Y-126301500D01*
X135953500Y-111696500D02*
X125349000Y-122301000D01*
X124714000Y-126936500D02*
X124269500Y-126936500D01*
X124269500Y-126936500D02*
X123825000Y-127381000D01*
X125349000Y-126301500D02*
X124714000Y-126936500D01*
%TO.N,/SDA*%
X151257000Y-110312200D02*
X149225000Y-110312200D01*
%TO.N,/SCL*%
X151511000Y-102285800D02*
X149352000Y-102285800D01*
%TO.N,/E104-BT01/TX*%
X148132800Y-91770200D02*
X148835190Y-91067810D01*
X140004800Y-98704400D02*
X146939000Y-91770200D01*
X146939000Y-91770200D02*
X148132800Y-91770200D01*
%TO.N,/E104-BT01/WKP*%
X136093200Y-84378800D02*
X136093200Y-97332800D01*
X141274800Y-83185000D02*
X137287000Y-83185000D01*
X137287000Y-83185000D02*
X136093200Y-84378800D01*
%TO.N,/E104-BT01/DATA*%
X135382000Y-97917000D02*
X135382000Y-82042000D01*
X135382000Y-82042000D02*
X136779000Y-80645000D01*
X136779000Y-80645000D02*
X141249400Y-80645000D01*
%TO.N,/E104-BT01/DISC*%
X146304000Y-93929200D02*
X146304000Y-93370400D01*
X140665200Y-99568000D02*
X146304000Y-93929200D01*
%TO.N,/E-Ink Driver/BS*%
X125433300Y-132491000D02*
X124206000Y-132491000D01*
X125437900Y-132486400D02*
X125433300Y-132491000D01*
D26*
%TO.N,/E-Ink Driver/nDC*%
X125730000Y-120650000D02*
X130810000Y-115570000D01*
X124460000Y-123190000D02*
X124460000Y-121920000D01*
X134239000Y-101981000D02*
X134747000Y-101981000D01*
X135229600Y-101981000D02*
X135267700Y-101942900D01*
X133604000Y-102616000D02*
X134239000Y-101981000D01*
X130810000Y-115570000D02*
X130810000Y-113157000D01*
X130810000Y-113157000D02*
X130810000Y-106680000D01*
X124460000Y-125984000D02*
X124460000Y-123190000D01*
X133350000Y-104140000D02*
X133604000Y-103886000D01*
X124460000Y-121920000D02*
X125730000Y-120650000D01*
X133604000Y-103886000D02*
X133604000Y-102616000D01*
X134747000Y-101981000D02*
X135229600Y-101981000D01*
%TD*%
%TA.AperFunction,Conductor*%
%TO.N,GND*%
G36*
X136827587Y-100422121D02*
G01*
X136773931Y-100468614D01*
X136733881Y-100477325D01*
X136782557Y-100457164D01*
X136824753Y-100414968D01*
X136841701Y-100374049D01*
X136827587Y-100422121D01*
G37*
%TD.AperFunction*%
%TA.AperFunction,Conductor*%
G36*
X136789710Y-100200002D02*
G01*
X136836203Y-100253658D01*
X136844914Y-100293707D01*
X136824753Y-100245032D01*
X136782557Y-100202836D01*
X136741638Y-100185887D01*
X136789710Y-100200002D01*
G37*
%TD.AperFunction*%
%TA.AperFunction,Conductor*%
G36*
X138055349Y-100414968D02*
G01*
X138097545Y-100457164D01*
X138138463Y-100474112D01*
X138090392Y-100459998D01*
X138043899Y-100406342D01*
X138035187Y-100366292D01*
X138055349Y-100414968D01*
G37*
%TD.AperFunction*%
%TA.AperFunction,Conductor*%
G36*
X138097545Y-100202836D02*
G01*
X138055349Y-100245032D01*
X138038400Y-100285950D01*
X138052515Y-100237879D01*
X138106171Y-100191386D01*
X138146220Y-100182674D01*
X138097545Y-100202836D01*
G37*
%TD.AperFunction*%
%TA.AperFunction,Conductor*%
G36*
X137570049Y-99679659D02*
G01*
X137516393Y-99726152D01*
X137476343Y-99734863D01*
X137525019Y-99714702D01*
X137567215Y-99672506D01*
X137584163Y-99631587D01*
X137570049Y-99679659D01*
G37*
%TD.AperFunction*%
%TA.AperFunction,Conductor*%
G36*
X137312887Y-99672506D02*
G01*
X137355083Y-99714702D01*
X137396001Y-99731650D01*
X137347930Y-99717536D01*
X137301437Y-99663880D01*
X137292725Y-99623830D01*
X137312887Y-99672506D01*
G37*
%TD.AperFunction*%
%TA.AperFunction,Conductor*%
G36*
X156787121Y-51455002D02*
G01*
X156833614Y-51508658D01*
X156845000Y-51561000D01*
X156845000Y-69388245D01*
X156837266Y-69427132D01*
X156838024Y-69427335D01*
X156835887Y-69435310D01*
X156835886Y-69435312D01*
X156812000Y-69524456D01*
X156812000Y-69616744D01*
X156835886Y-69705888D01*
X156838024Y-69713866D01*
X156837263Y-69714069D01*
X156845000Y-69752953D01*
X156845000Y-95193450D01*
X156829227Y-95218483D01*
X156764912Y-95248552D01*
X156745866Y-95250000D01*
X153162000Y-95250000D01*
X153162000Y-105489774D01*
X153141998Y-105557895D01*
X153088342Y-105604388D01*
X153087252Y-105604879D01*
X153072677Y-105611368D01*
X153031291Y-105641437D01*
X152964423Y-105665295D01*
X152957231Y-105665500D01*
X152955258Y-105665500D01*
X152887137Y-105645498D01*
X152840644Y-105591842D01*
X152836072Y-105580014D01*
X152816526Y-105534369D01*
X152750138Y-105379337D01*
X152628589Y-105199750D01*
X152628588Y-105199749D01*
X152628586Y-105199746D01*
X152475253Y-105046413D01*
X152295666Y-104924864D01*
X152295665Y-104924863D01*
X152295663Y-104924862D01*
X152096317Y-104839498D01*
X152096316Y-104839497D01*
X152096312Y-104839496D01*
X152096313Y-104839496D01*
X151884422Y-104793402D01*
X151884423Y-104793402D01*
X151835707Y-104790500D01*
X151835704Y-104790500D01*
X149662296Y-104790500D01*
X149662292Y-104790500D01*
X149613576Y-104793402D01*
X149401686Y-104839496D01*
X149259430Y-104900413D01*
X149202337Y-104924862D01*
X149202335Y-104924862D01*
X149202333Y-104924864D01*
X149022746Y-105046413D01*
X148869413Y-105199746D01*
X148747864Y-105379333D01*
X148706306Y-105476380D01*
X148661103Y-105531127D01*
X148593477Y-105552744D01*
X148524900Y-105534369D01*
X148501384Y-105515875D01*
X145121129Y-102135620D01*
X145121109Y-102135598D01*
X145010796Y-102025285D01*
X145010790Y-102025280D01*
X144969459Y-101997663D01*
X144886232Y-101942053D01*
X144747830Y-101884725D01*
X144600906Y-101855500D01*
X144600903Y-101855500D01*
X137672729Y-101855500D01*
X137604608Y-101835498D01*
X137558115Y-101781842D01*
X137548011Y-101711568D01*
X137553709Y-101699092D01*
X147216500Y-101699092D01*
X147216500Y-102872507D01*
X147219402Y-102921223D01*
X147265496Y-103133113D01*
X147289946Y-103190210D01*
X147350862Y-103332463D01*
X147350863Y-103332465D01*
X147350864Y-103332466D01*
X147472413Y-103512053D01*
X147625746Y-103665386D01*
X147625749Y-103665388D01*
X147625750Y-103665389D01*
X147805337Y-103786938D01*
X148004683Y-103872302D01*
X148004686Y-103872302D01*
X148004687Y-103872303D01*
X148004686Y-103872303D01*
X148158925Y-103905855D01*
X148216581Y-103918398D01*
X148265296Y-103921300D01*
X148265312Y-103921300D01*
X150438688Y-103921300D01*
X150438704Y-103921300D01*
X150487419Y-103918398D01*
X150593368Y-103895350D01*
X150699313Y-103872303D01*
X150699313Y-103872302D01*
X150699317Y-103872302D01*
X150898663Y-103786938D01*
X151078250Y-103665389D01*
X151231589Y-103512050D01*
X151353138Y-103332463D01*
X151353140Y-103332459D01*
X151368024Y-103297701D01*
X151413226Y-103242954D01*
X151480851Y-103221336D01*
X151483851Y-103221300D01*
X151609325Y-103221300D01*
X151801678Y-103180414D01*
X151981327Y-103100429D01*
X152140420Y-102984841D01*
X152272004Y-102838702D01*
X152370329Y-102668398D01*
X152431097Y-102481373D01*
X152451653Y-102285800D01*
X152431097Y-102090227D01*
X152409995Y-102025281D01*
X152370331Y-101903207D01*
X152370327Y-101903199D01*
X152272005Y-101732899D01*
X152272003Y-101732897D01*
X152140422Y-101586760D01*
X151981327Y-101471171D01*
X151801678Y-101391186D01*
X151609325Y-101350300D01*
X151483850Y-101350300D01*
X151415729Y-101330298D01*
X151369236Y-101276642D01*
X151368056Y-101273975D01*
X151353138Y-101239137D01*
X151231589Y-101059550D01*
X151231587Y-101059548D01*
X151231585Y-101059545D01*
X151078253Y-100906213D01*
X150898666Y-100784664D01*
X150898665Y-100784663D01*
X150898663Y-100784662D01*
X150699317Y-100699298D01*
X150699316Y-100699297D01*
X150699312Y-100699296D01*
X150699313Y-100699296D01*
X150487422Y-100653202D01*
X150487423Y-100653202D01*
X150438707Y-100650300D01*
X150438704Y-100650300D01*
X148265296Y-100650300D01*
X148265292Y-100650300D01*
X148216576Y-100653202D01*
X148004686Y-100699296D01*
X147878696Y-100753248D01*
X147805337Y-100784662D01*
X147805335Y-100784662D01*
X147805333Y-100784664D01*
X147625746Y-100906213D01*
X147472413Y-101059546D01*
X147350864Y-101239133D01*
X147265496Y-101438486D01*
X147219402Y-101650376D01*
X147216500Y-101699092D01*
X137553709Y-101699092D01*
X137577505Y-101646988D01*
X137620387Y-101614886D01*
X137715339Y-101571522D01*
X137762334Y-101533650D01*
X137762346Y-101533640D01*
X137800266Y-101495718D01*
X137812665Y-101484844D01*
X137835170Y-101467576D01*
X137852432Y-101445079D01*
X137863302Y-101432684D01*
X138096952Y-101199034D01*
X138096952Y-101199032D01*
X137440052Y-100542132D01*
X137440051Y-100542132D01*
X136783149Y-101199032D01*
X137016794Y-101432677D01*
X137027662Y-101445069D01*
X137044936Y-101467581D01*
X137067445Y-101484853D01*
X137079838Y-101495721D01*
X137117764Y-101533648D01*
X137164762Y-101571522D01*
X137164764Y-101571523D01*
X137259715Y-101614886D01*
X137313371Y-101661379D01*
X137333373Y-101729500D01*
X137313371Y-101797621D01*
X137259715Y-101844114D01*
X137207373Y-101855500D01*
X136312617Y-101855500D01*
X136244496Y-101835498D01*
X136198003Y-101781842D01*
X136190274Y-101753543D01*
X136189168Y-101753779D01*
X136187796Y-101747322D01*
X136127031Y-101560307D01*
X136127027Y-101560299D01*
X136028705Y-101389999D01*
X136028703Y-101389997D01*
X135897122Y-101243860D01*
X135738027Y-101128271D01*
X135558378Y-101048286D01*
X135366025Y-101007400D01*
X135169375Y-101007400D01*
X134977024Y-101048285D01*
X134797369Y-101128273D01*
X134669142Y-101221436D01*
X134602274Y-101245295D01*
X134595081Y-101245500D01*
X134166554Y-101245500D01*
X134024460Y-101273764D01*
X133968297Y-101297029D01*
X133890608Y-101329209D01*
X133819064Y-101377014D01*
X133770150Y-101409697D01*
X133770143Y-101409702D01*
X133450346Y-101729500D01*
X133135146Y-102044700D01*
X133089625Y-102090221D01*
X133032699Y-102147146D01*
X132952208Y-102267610D01*
X132896767Y-102401456D01*
X132896765Y-102401461D01*
X132868500Y-102543557D01*
X132868500Y-103371768D01*
X132848498Y-103439889D01*
X132794842Y-103486382D01*
X132724568Y-103496486D01*
X132659988Y-103466992D01*
X132648264Y-103455407D01*
X132633306Y-103438554D01*
X132633275Y-103438521D01*
X131803578Y-102608824D01*
X131803547Y-102608795D01*
X131767071Y-102576421D01*
X131767068Y-102576419D01*
X131767065Y-102576416D01*
X131767060Y-102576413D01*
X131767055Y-102576409D01*
X131584639Y-102459179D01*
X131584636Y-102459177D01*
X131440459Y-102401456D01*
X131383317Y-102378579D01*
X131383313Y-102378578D01*
X131170386Y-102337541D01*
X131170384Y-102337540D01*
X131170380Y-102337540D01*
X130953526Y-102337540D01*
X130953522Y-102337540D01*
X130953519Y-102337541D01*
X130740593Y-102378578D01*
X130740589Y-102378579D01*
X130606179Y-102432390D01*
X130539271Y-102459177D01*
X130539269Y-102459178D01*
X130539267Y-102459179D01*
X130356841Y-102576415D01*
X130320347Y-102608806D01*
X130320327Y-102608825D01*
X128783525Y-104145627D01*
X128783506Y-104145647D01*
X128751115Y-104182141D01*
X128633879Y-104364567D01*
X128553279Y-104565889D01*
X128553278Y-104565893D01*
X128512241Y-104778819D01*
X128512240Y-104778830D01*
X128512240Y-104995675D01*
X128512241Y-104995686D01*
X128546951Y-105175786D01*
X128553279Y-105208616D01*
X128633877Y-105409936D01*
X128633879Y-105409939D01*
X128751109Y-105592355D01*
X128751113Y-105592360D01*
X128751116Y-105592365D01*
X128751119Y-105592368D01*
X128751121Y-105592371D01*
X128783495Y-105628847D01*
X128783524Y-105628878D01*
X129613221Y-106458575D01*
X129613252Y-106458604D01*
X129642347Y-106484427D01*
X129649735Y-106490984D01*
X129832164Y-106608223D01*
X129995332Y-106673547D01*
X130051137Y-106717432D01*
X130074357Y-106784524D01*
X130074500Y-106790519D01*
X130074500Y-107558054D01*
X130054498Y-107626175D01*
X130000842Y-107672668D01*
X129930568Y-107682772D01*
X129865988Y-107653278D01*
X129827604Y-107593552D01*
X129824777Y-107581899D01*
X129790121Y-107402086D01*
X129790120Y-107402082D01*
X129709523Y-107200764D01*
X129620726Y-107062592D01*
X129592290Y-107018344D01*
X129592288Y-107018341D01*
X129592284Y-107018335D01*
X129590850Y-107016719D01*
X129559904Y-106981852D01*
X129559875Y-106981821D01*
X128730178Y-106152124D01*
X128730147Y-106152095D01*
X128693671Y-106119721D01*
X128693668Y-106119719D01*
X128693665Y-106119716D01*
X128693660Y-106119713D01*
X128693655Y-106119709D01*
X128511239Y-106002479D01*
X128511236Y-106002477D01*
X128377121Y-105948784D01*
X128309917Y-105921879D01*
X128309913Y-105921878D01*
X128096986Y-105880841D01*
X128096984Y-105880840D01*
X128096980Y-105880840D01*
X127880126Y-105880840D01*
X127880122Y-105880840D01*
X127880119Y-105880841D01*
X127667193Y-105921878D01*
X127667189Y-105921879D01*
X127532779Y-105975690D01*
X127465871Y-106002477D01*
X127465869Y-106002478D01*
X127465867Y-106002479D01*
X127283441Y-106119715D01*
X127246947Y-106152106D01*
X127246927Y-106152125D01*
X125710125Y-107688927D01*
X125710106Y-107688947D01*
X125677715Y-107725441D01*
X125560479Y-107907867D01*
X125479879Y-108109189D01*
X125479878Y-108109193D01*
X125438841Y-108322119D01*
X125438840Y-108322130D01*
X125438840Y-108538975D01*
X125438841Y-108538986D01*
X125474825Y-108725696D01*
X125479879Y-108751916D01*
X125560477Y-108953236D01*
X125560479Y-108953239D01*
X125677709Y-109135655D01*
X125677713Y-109135660D01*
X125677716Y-109135665D01*
X125677719Y-109135668D01*
X125677721Y-109135671D01*
X125710095Y-109172147D01*
X125710124Y-109172178D01*
X126281351Y-109743405D01*
X126315377Y-109805717D01*
X126310312Y-109876532D01*
X126267765Y-109933368D01*
X126201245Y-109958179D01*
X126192256Y-109958500D01*
X124890631Y-109958500D01*
X124871750Y-109962256D01*
X124865456Y-109963508D01*
X124823263Y-109971900D01*
X124738876Y-109988686D01*
X124738875Y-109988687D01*
X124595925Y-110047899D01*
X124515247Y-110101806D01*
X124447494Y-110123020D01*
X124379027Y-110104236D01*
X124377192Y-110103080D01*
X124320236Y-110066477D01*
X124118917Y-109985879D01*
X124118913Y-109985878D01*
X123905986Y-109944841D01*
X123905984Y-109944840D01*
X123905980Y-109944840D01*
X123689126Y-109944840D01*
X123689122Y-109944840D01*
X123689119Y-109944841D01*
X123476193Y-109985878D01*
X123476189Y-109985879D01*
X123341779Y-110039690D01*
X123274871Y-110066477D01*
X123274869Y-110066478D01*
X123274867Y-110066479D01*
X123092441Y-110183715D01*
X123055947Y-110216106D01*
X123055927Y-110216125D01*
X121519125Y-111752927D01*
X121519106Y-111752947D01*
X121486715Y-111789441D01*
X121369479Y-111971867D01*
X121369478Y-111971869D01*
X121369477Y-111971871D01*
X121342690Y-112038779D01*
X121288879Y-112173189D01*
X121288878Y-112173193D01*
X121247841Y-112386119D01*
X121247840Y-112386130D01*
X121247840Y-112602975D01*
X121247841Y-112602986D01*
X121272651Y-112731719D01*
X121288879Y-112815916D01*
X121369477Y-113017236D01*
X121369479Y-113017239D01*
X121486709Y-113199655D01*
X121486713Y-113199660D01*
X121486716Y-113199665D01*
X121486719Y-113199668D01*
X121486721Y-113199671D01*
X121519095Y-113236147D01*
X121519124Y-113236178D01*
X122348821Y-114065875D01*
X122348852Y-114065904D01*
X122385328Y-114098278D01*
X122385335Y-114098284D01*
X122567764Y-114215523D01*
X122769084Y-114296121D01*
X122982020Y-114337160D01*
X122982024Y-114337160D01*
X123198870Y-114337160D01*
X123198874Y-114337160D01*
X123411809Y-114296121D01*
X123613129Y-114215523D01*
X123795559Y-114098284D01*
X123832057Y-114065889D01*
X125368889Y-112529057D01*
X125401284Y-112492559D01*
X125518523Y-112310129D01*
X125599121Y-112108809D01*
X125640160Y-111895874D01*
X125640160Y-111680695D01*
X125660162Y-111612574D01*
X125713818Y-111566081D01*
X125784092Y-111555977D01*
X125848672Y-111585471D01*
X125885993Y-111641759D01*
X125931118Y-111780643D01*
X125931122Y-111780650D01*
X126029444Y-111950950D01*
X126029446Y-111950952D01*
X126161027Y-112097089D01*
X126161030Y-112097091D01*
X126320123Y-112212679D01*
X126499772Y-112292664D01*
X126692125Y-112333550D01*
X126888775Y-112333550D01*
X127081128Y-112292664D01*
X127260777Y-112212679D01*
X127419870Y-112097091D01*
X127551454Y-111950952D01*
X127649779Y-111780648D01*
X127710547Y-111593623D01*
X127731103Y-111398050D01*
X127710547Y-111202477D01*
X127703341Y-111180302D01*
X127649781Y-111015457D01*
X127649777Y-111015449D01*
X127647346Y-111011239D01*
X127596765Y-110923629D01*
X127551455Y-110845149D01*
X127551453Y-110845147D01*
X127419872Y-110699010D01*
X127260777Y-110583421D01*
X127102182Y-110512810D01*
X127048086Y-110466830D01*
X127027437Y-110398902D01*
X127046789Y-110330594D01*
X127100000Y-110283593D01*
X127166975Y-110273311D01*
X127167044Y-110272589D01*
X127169902Y-110272861D01*
X127170175Y-110272820D01*
X127171174Y-110272983D01*
X127173016Y-110273159D01*
X127173020Y-110273160D01*
X127173024Y-110273160D01*
X127389870Y-110273160D01*
X127389874Y-110273160D01*
X127602809Y-110232121D01*
X127804129Y-110151523D01*
X127986559Y-110034284D01*
X128023057Y-110001889D01*
X128146947Y-109877998D01*
X128209256Y-109843975D01*
X128280072Y-109849039D01*
X128325135Y-109878000D01*
X128572871Y-110125736D01*
X128606897Y-110188048D01*
X128609085Y-110201656D01*
X128616601Y-110273160D01*
X128619904Y-110304579D01*
X128680668Y-110491592D01*
X128680672Y-110491600D01*
X128778994Y-110661900D01*
X128778996Y-110661902D01*
X128910577Y-110808039D01*
X128910580Y-110808041D01*
X129069673Y-110923629D01*
X129249322Y-111003614D01*
X129441675Y-111044500D01*
X129638325Y-111044500D01*
X129830678Y-111003614D01*
X129897250Y-110973973D01*
X129967617Y-110964539D01*
X130031914Y-110994645D01*
X130069728Y-111054733D01*
X130074500Y-111089080D01*
X130074500Y-115213156D01*
X130054498Y-115281277D01*
X130037595Y-115302251D01*
X125261146Y-120078700D01*
X125127169Y-120212677D01*
X125047061Y-120292785D01*
X124984749Y-120326810D01*
X124913933Y-120321745D01*
X124857098Y-120279198D01*
X124832287Y-120212677D01*
X124834387Y-120179106D01*
X124839500Y-120153403D01*
X124839500Y-120003598D01*
X124839500Y-117935536D01*
X124856381Y-117872536D01*
X124938328Y-117730599D01*
X124938329Y-117730598D01*
X124999097Y-117543573D01*
X125019653Y-117348000D01*
X124999097Y-117152427D01*
X124938329Y-116965402D01*
X124840004Y-116795098D01*
X124829074Y-116782959D01*
X124708422Y-116648960D01*
X124549327Y-116533371D01*
X124369678Y-116453386D01*
X124177325Y-116412500D01*
X123980675Y-116412500D01*
X123788324Y-116453385D01*
X123608669Y-116533373D01*
X123449577Y-116648960D01*
X123317996Y-116795097D01*
X123317994Y-116795099D01*
X123219672Y-116965399D01*
X123219668Y-116965407D01*
X123158904Y-117152421D01*
X123138347Y-117348000D01*
X123158904Y-117543578D01*
X123219668Y-117730592D01*
X123219671Y-117730599D01*
X123301619Y-117872536D01*
X123318500Y-117935536D01*
X123318500Y-118448248D01*
X123298498Y-118516369D01*
X123244842Y-118562862D01*
X123218697Y-118571495D01*
X123026324Y-118612385D01*
X122846669Y-118692373D01*
X122687577Y-118807960D01*
X122555996Y-118954097D01*
X122555994Y-118954099D01*
X122457672Y-119124399D01*
X122457668Y-119124407D01*
X122396903Y-119311422D01*
X122396902Y-119311430D01*
X122396848Y-119311946D01*
X122396733Y-119312223D01*
X122395532Y-119317879D01*
X122394496Y-119317658D01*
X122369827Y-119377599D01*
X122360635Y-119387854D01*
X121569384Y-120179106D01*
X120800212Y-120948278D01*
X120800209Y-120948281D01*
X120747244Y-121001245D01*
X120694280Y-121054209D01*
X120611053Y-121178768D01*
X120553727Y-121317164D01*
X120553725Y-121317169D01*
X120524500Y-121464093D01*
X120524500Y-122132311D01*
X120504498Y-122200432D01*
X120450842Y-122246925D01*
X120380568Y-122257029D01*
X120372305Y-122255558D01*
X120367327Y-122254500D01*
X120367325Y-122254500D01*
X120170675Y-122254500D01*
X119978324Y-122295385D01*
X119798669Y-122375373D01*
X119639577Y-122490960D01*
X119507996Y-122637097D01*
X119507994Y-122637099D01*
X119409672Y-122807399D01*
X119409668Y-122807407D01*
X119348904Y-122994421D01*
X119348903Y-122994425D01*
X119348903Y-122994427D01*
X119335078Y-123125959D01*
X119328347Y-123190000D01*
X119348904Y-123385578D01*
X119409668Y-123572592D01*
X119409671Y-123572599D01*
X119466619Y-123671234D01*
X119483500Y-123734234D01*
X119483500Y-126696367D01*
X119495672Y-126757558D01*
X119513686Y-126848122D01*
X119572899Y-126991074D01*
X119658862Y-127119727D01*
X119658864Y-127119729D01*
X121097595Y-128558460D01*
X121131621Y-128620772D01*
X121134500Y-128647555D01*
X121134500Y-129748500D01*
X121114498Y-129816621D01*
X121060842Y-129863114D01*
X121008500Y-129874500D01*
X120831075Y-129874500D01*
X120638724Y-129915385D01*
X120459070Y-129995372D01*
X120318792Y-130097290D01*
X120251924Y-130121148D01*
X120182773Y-130105067D01*
X120133293Y-130054152D01*
X120124901Y-130034296D01*
X120112329Y-129995602D01*
X120014004Y-129825298D01*
X119944855Y-129748500D01*
X119882422Y-129679160D01*
X119723327Y-129563571D01*
X119543678Y-129483586D01*
X119351325Y-129442700D01*
X119154675Y-129442700D01*
X118962324Y-129483585D01*
X118782669Y-129563573D01*
X118623577Y-129679160D01*
X118487577Y-129830205D01*
X118485961Y-129828750D01*
X118437751Y-129865919D01*
X118392048Y-129874500D01*
X118341675Y-129874500D01*
X118149324Y-129915385D01*
X117969669Y-129995373D01*
X117810577Y-130110960D01*
X117678996Y-130257097D01*
X117678994Y-130257099D01*
X117591505Y-130408635D01*
X117540122Y-130457628D01*
X117470409Y-130471064D01*
X117408325Y-130447571D01*
X117354734Y-130408635D01*
X117310327Y-130376371D01*
X117130678Y-130296386D01*
X116938325Y-130255500D01*
X116741675Y-130255500D01*
X116549324Y-130296385D01*
X116369669Y-130376373D01*
X116210577Y-130491960D01*
X116078996Y-130638097D01*
X116078994Y-130638099D01*
X115980672Y-130808399D01*
X115980668Y-130808407D01*
X115919904Y-130995421D01*
X115919903Y-130995425D01*
X115919903Y-130995427D01*
X115899347Y-131191000D01*
X115917690Y-131365521D01*
X115919904Y-131386578D01*
X115980668Y-131573592D01*
X115980671Y-131573599D01*
X116021367Y-131644085D01*
X116037351Y-131671771D01*
X116037619Y-131672234D01*
X116054500Y-131735234D01*
X116054500Y-131875635D01*
X116054500Y-132030365D01*
X116084686Y-132182122D01*
X116143899Y-132325074D01*
X116229862Y-132453727D01*
X116229864Y-132453729D01*
X116617595Y-132841460D01*
X116651621Y-132903772D01*
X116654500Y-132930555D01*
X116654500Y-133956321D01*
X116635188Y-134023356D01*
X116568276Y-134129846D01*
X116509444Y-134297981D01*
X116509443Y-134297984D01*
X116494500Y-134430606D01*
X116494500Y-134944394D01*
X116509443Y-135077016D01*
X116509444Y-135077018D01*
X116568277Y-135245155D01*
X116568278Y-135245157D01*
X116663050Y-135395986D01*
X116663052Y-135395989D01*
X116789010Y-135521947D01*
X116789012Y-135521948D01*
X116789013Y-135521949D01*
X116817035Y-135539556D01*
X116864073Y-135592734D01*
X116876000Y-135646244D01*
X116876000Y-135672500D01*
X117080394Y-135672500D01*
X117100946Y-135674815D01*
X117100952Y-135674764D01*
X117107981Y-135675556D01*
X117107984Y-135675557D01*
X117220732Y-135688260D01*
X117240605Y-135690500D01*
X117240606Y-135690500D01*
X117639395Y-135690500D01*
X117659267Y-135688260D01*
X117772016Y-135675557D01*
X117772018Y-135675556D01*
X117779048Y-135674764D01*
X117779053Y-135674815D01*
X117799606Y-135672500D01*
X118004000Y-135672500D01*
X118004000Y-135646244D01*
X118024002Y-135578123D01*
X118062963Y-135539557D01*
X118090987Y-135521949D01*
X118216949Y-135395987D01*
X118311723Y-135245155D01*
X118321071Y-135218437D01*
X118362448Y-135160748D01*
X118428448Y-135134585D01*
X118498116Y-135148257D01*
X118549332Y-135197424D01*
X118558926Y-135218431D01*
X118568277Y-135245155D01*
X118568278Y-135245157D01*
X118568279Y-135245159D01*
X118663050Y-135395986D01*
X118663052Y-135395989D01*
X118789010Y-135521947D01*
X118789012Y-135521948D01*
X118789013Y-135521949D01*
X118817035Y-135539556D01*
X118864073Y-135592734D01*
X118876000Y-135646244D01*
X118876000Y-135672500D01*
X119080394Y-135672500D01*
X119100946Y-135674815D01*
X119100952Y-135674764D01*
X119107981Y-135675556D01*
X119107984Y-135675557D01*
X119220732Y-135688260D01*
X119240605Y-135690500D01*
X119240606Y-135690500D01*
X119639395Y-135690500D01*
X119659267Y-135688260D01*
X119772016Y-135675557D01*
X119772018Y-135675556D01*
X119779048Y-135674764D01*
X119779053Y-135674815D01*
X119799606Y-135672500D01*
X120004000Y-135672500D01*
X120004000Y-135646244D01*
X120024002Y-135578123D01*
X120062963Y-135539557D01*
X120090987Y-135521949D01*
X120216949Y-135395987D01*
X120311723Y-135245155D01*
X120321071Y-135218437D01*
X120362448Y-135160748D01*
X120428448Y-135134585D01*
X120498116Y-135148257D01*
X120549332Y-135197424D01*
X120558926Y-135218431D01*
X120568277Y-135245155D01*
X120568278Y-135245157D01*
X120568279Y-135245159D01*
X120663050Y-135395986D01*
X120663052Y-135395989D01*
X120789010Y-135521947D01*
X120789012Y-135521948D01*
X120789013Y-135521949D01*
X120817035Y-135539556D01*
X120864073Y-135592734D01*
X120876000Y-135646244D01*
X120876000Y-135672500D01*
X121080394Y-135672500D01*
X121100946Y-135674815D01*
X121100952Y-135674764D01*
X121107981Y-135675556D01*
X121107984Y-135675557D01*
X121220732Y-135688260D01*
X121240605Y-135690500D01*
X121240606Y-135690500D01*
X121639395Y-135690500D01*
X121659267Y-135688260D01*
X121772016Y-135675557D01*
X121772018Y-135675556D01*
X121779048Y-135674764D01*
X121779053Y-135674815D01*
X121799606Y-135672500D01*
X122004000Y-135672500D01*
X122004000Y-135646244D01*
X122024002Y-135578123D01*
X122062963Y-135539557D01*
X122090987Y-135521949D01*
X122216949Y-135395987D01*
X122311723Y-135245155D01*
X122370557Y-135077016D01*
X122385500Y-134944394D01*
X122385500Y-134508691D01*
X123700439Y-134508691D01*
X123700439Y-134508692D01*
X123706091Y-134511273D01*
X123776815Y-134532042D01*
X123776830Y-134532045D01*
X123919134Y-134552505D01*
X123919140Y-134552506D01*
X123992858Y-134552506D01*
X124001372Y-134551282D01*
X124019302Y-134550000D01*
X124392698Y-134550000D01*
X124410628Y-134551282D01*
X124419142Y-134552506D01*
X124492860Y-134552506D01*
X124492865Y-134552505D01*
X124635169Y-134532045D01*
X124635175Y-134532043D01*
X124705909Y-134511273D01*
X124705912Y-134511272D01*
X124711560Y-134508692D01*
X124711560Y-134508691D01*
X124206001Y-134003132D01*
X124206000Y-134003132D01*
X123700439Y-134508691D01*
X122385500Y-134508691D01*
X122385500Y-134430606D01*
X122370557Y-134297984D01*
X122311723Y-134129845D01*
X122276513Y-134073808D01*
X122224646Y-133991262D01*
X122205340Y-133922941D01*
X122226035Y-133855028D01*
X122274131Y-133811959D01*
X122338399Y-133779213D01*
X122338403Y-133779210D01*
X122430012Y-133687601D01*
X122488831Y-133572161D01*
X122504000Y-133476386D01*
X122504000Y-133381700D01*
X121916000Y-133381700D01*
X121847879Y-133361698D01*
X121801386Y-133308042D01*
X121790000Y-133255700D01*
X121790000Y-133225700D01*
X121810002Y-133157579D01*
X121863658Y-133111086D01*
X121916000Y-133099700D01*
X122139395Y-133099700D01*
X122165105Y-133096803D01*
X122272016Y-133084757D01*
X122272018Y-133084756D01*
X122279048Y-133083964D01*
X122279053Y-133084015D01*
X122299606Y-133081700D01*
X122504000Y-133081700D01*
X122504000Y-133055444D01*
X122524002Y-132987323D01*
X122562963Y-132948757D01*
X122590987Y-132931149D01*
X122605404Y-132916731D01*
X122667714Y-132882706D01*
X122738529Y-132887769D01*
X122795366Y-132930314D01*
X122820179Y-132996834D01*
X122820500Y-133005824D01*
X122820500Y-133055179D01*
X122823334Y-133091202D01*
X122868132Y-133245395D01*
X122893395Y-133288112D01*
X122948336Y-133381013D01*
X122949866Y-133383599D01*
X122949869Y-133383603D01*
X123063397Y-133497131D01*
X123063399Y-133497132D01*
X123063402Y-133497135D01*
X123135141Y-133539561D01*
X123183592Y-133591452D01*
X123197000Y-133648013D01*
X123197000Y-133862886D01*
X123207491Y-133935856D01*
X123207493Y-133935865D01*
X123247997Y-134073808D01*
X123278624Y-134140872D01*
X123356356Y-134261825D01*
X123404631Y-134317538D01*
X123438221Y-134346644D01*
X123438222Y-134346644D01*
X124116903Y-133667962D01*
X124179216Y-133633937D01*
X124250031Y-133639001D01*
X124295095Y-133667962D01*
X124973776Y-134346644D01*
X125007366Y-134317539D01*
X125055643Y-134261825D01*
X125133375Y-134140872D01*
X125164002Y-134073808D01*
X125204506Y-133935865D01*
X125204508Y-133935856D01*
X125215000Y-133862886D01*
X125215000Y-133648013D01*
X125235002Y-133579892D01*
X125276858Y-133539561D01*
X125348598Y-133497135D01*
X125369347Y-133476386D01*
X126376000Y-133476386D01*
X126391168Y-133572161D01*
X126449987Y-133687601D01*
X126541598Y-133779212D01*
X126657038Y-133838031D01*
X126752814Y-133853200D01*
X126790000Y-133853200D01*
X127090000Y-133853200D01*
X127127186Y-133853200D01*
X127222961Y-133838031D01*
X127338401Y-133779212D01*
X127430012Y-133687601D01*
X127488831Y-133572161D01*
X127504000Y-133476386D01*
X127504000Y-133381700D01*
X127090000Y-133381700D01*
X127090000Y-133853200D01*
X126790000Y-133853200D01*
X126790000Y-133381700D01*
X126376000Y-133381700D01*
X126376000Y-133476386D01*
X125369347Y-133476386D01*
X125386927Y-133458806D01*
X125449238Y-133424780D01*
X125476023Y-133421900D01*
X125536225Y-133421900D01*
X125728578Y-133381014D01*
X125908227Y-133301029D01*
X126067320Y-133185441D01*
X126092407Y-133157579D01*
X126173879Y-133067096D01*
X126234325Y-133029856D01*
X126305308Y-133031208D01*
X126356610Y-133062311D01*
X126375999Y-133081700D01*
X126580394Y-133081700D01*
X126600946Y-133084015D01*
X126600952Y-133083964D01*
X126607981Y-133084756D01*
X126607984Y-133084757D01*
X126714895Y-133096803D01*
X126740605Y-133099700D01*
X126740606Y-133099700D01*
X127139395Y-133099700D01*
X127165105Y-133096803D01*
X127272016Y-133084757D01*
X127272018Y-133084756D01*
X127279048Y-133083964D01*
X127279053Y-133084015D01*
X127299606Y-133081700D01*
X127504000Y-133081700D01*
X127504000Y-133055444D01*
X127524002Y-132987323D01*
X127562963Y-132948757D01*
X127590987Y-132931149D01*
X127716949Y-132805187D01*
X127811723Y-132654355D01*
X127870557Y-132486216D01*
X127885500Y-132353594D01*
X127885500Y-131839806D01*
X127870557Y-131707184D01*
X127811723Y-131539045D01*
X127744812Y-131432556D01*
X127725500Y-131365521D01*
X127725500Y-130922434D01*
X127742381Y-130859434D01*
X127799329Y-130760798D01*
X127860097Y-130573773D01*
X127880653Y-130378200D01*
X127860097Y-130182627D01*
X127834896Y-130105067D01*
X127799331Y-129995607D01*
X127799327Y-129995600D01*
X127701004Y-129825298D01*
X127631855Y-129748500D01*
X127569422Y-129679160D01*
X127410327Y-129563571D01*
X127230678Y-129483586D01*
X127038325Y-129442700D01*
X126841675Y-129442700D01*
X126649324Y-129483585D01*
X126469669Y-129563573D01*
X126310577Y-129679160D01*
X126178996Y-129825297D01*
X126178994Y-129825299D01*
X126080672Y-129995599D01*
X126080668Y-129995607D01*
X126019904Y-130182621D01*
X126019903Y-130182625D01*
X126019903Y-130182627D01*
X125999347Y-130378200D01*
X126019047Y-130565633D01*
X126019904Y-130573778D01*
X126080668Y-130760792D01*
X126080671Y-130760799D01*
X126137619Y-130859434D01*
X126154500Y-130922434D01*
X126154500Y-131365521D01*
X126135188Y-131432556D01*
X126068276Y-131539046D01*
X126051709Y-131586393D01*
X126010331Y-131644085D01*
X125944330Y-131670247D01*
X125881532Y-131659885D01*
X125728578Y-131591786D01*
X125696301Y-131584925D01*
X125633828Y-131551196D01*
X125599508Y-131489046D01*
X125596500Y-131461679D01*
X125596500Y-131119084D01*
X125596124Y-131097163D01*
X125579712Y-130995421D01*
X125570556Y-130938662D01*
X125570554Y-130938657D01*
X125570553Y-130938650D01*
X125530052Y-130800715D01*
X125527291Y-130791878D01*
X125523505Y-130779756D01*
X125454317Y-130634877D01*
X125376585Y-130513923D01*
X125364400Y-130495658D01*
X125305954Y-130430500D01*
X125257199Y-130376145D01*
X125174515Y-130304500D01*
X125148535Y-130281988D01*
X125148521Y-130281976D01*
X125131714Y-130267909D01*
X125131704Y-130267902D01*
X124995175Y-130183430D01*
X124995176Y-130183430D01*
X124922929Y-130150436D01*
X124864390Y-130123702D01*
X124856053Y-130120065D01*
X124844270Y-130114926D01*
X124689465Y-130072338D01*
X124689457Y-130072337D01*
X124547203Y-130051883D01*
X124539633Y-130050927D01*
X124525377Y-130049126D01*
X124525372Y-130049126D01*
X124461955Y-130050212D01*
X124446213Y-130050482D01*
X124444058Y-130050500D01*
X124044175Y-130050500D01*
X124028383Y-130049506D01*
X124025375Y-130049126D01*
X124025374Y-130049126D01*
X123864844Y-130051877D01*
X123864841Y-130051877D01*
X123722580Y-130072331D01*
X123709238Y-130074483D01*
X123700860Y-130075835D01*
X123632170Y-130097290D01*
X123547609Y-130123702D01*
X123416808Y-130183437D01*
X123397026Y-130192884D01*
X123397023Y-130192885D01*
X123263470Y-130281983D01*
X123263465Y-130281987D01*
X123154778Y-130376164D01*
X123138464Y-130390797D01*
X123137245Y-130392059D01*
X123136733Y-130392349D01*
X123135110Y-130393806D01*
X123134793Y-130393452D01*
X123075524Y-130427145D01*
X123046639Y-130430500D01*
X122831500Y-130430500D01*
X122763379Y-130410498D01*
X122716886Y-130356842D01*
X122705500Y-130304500D01*
X122705500Y-128192636D01*
X122705499Y-128192629D01*
X122700318Y-128166581D01*
X122706646Y-128095867D01*
X122750201Y-128039800D01*
X122817153Y-128016181D01*
X122823897Y-128016000D01*
X122859801Y-128016000D01*
X122867847Y-128007953D01*
X122879802Y-127967239D01*
X122933458Y-127920746D01*
X123003732Y-127910642D01*
X123068312Y-127940136D01*
X123079429Y-127951042D01*
X123195580Y-128080041D01*
X123354673Y-128195629D01*
X123534322Y-128275614D01*
X123726675Y-128316500D01*
X123923325Y-128316500D01*
X124115678Y-128275614D01*
X124190336Y-128242373D01*
X124260702Y-128232939D01*
X124324999Y-128263044D01*
X124361417Y-128318541D01*
X124362668Y-128322391D01*
X124362672Y-128322400D01*
X124460994Y-128492700D01*
X124460996Y-128492702D01*
X124592577Y-128638839D01*
X124592580Y-128638841D01*
X124751673Y-128754429D01*
X124931322Y-128834414D01*
X125123675Y-128875300D01*
X125320325Y-128875300D01*
X125512678Y-128834414D01*
X125692327Y-128754429D01*
X125851420Y-128638841D01*
X125857220Y-128632400D01*
X125890566Y-128595365D01*
X125983004Y-128492702D01*
X126081329Y-128322398D01*
X126142097Y-128135373D01*
X126148116Y-128078101D01*
X126175128Y-128012445D01*
X126184322Y-128002185D01*
X126525104Y-127661403D01*
X126525118Y-127661392D01*
X126638214Y-127548296D01*
X126638219Y-127548291D01*
X126638220Y-127548288D01*
X126638223Y-127548286D01*
X126694935Y-127463410D01*
X126749411Y-127417882D01*
X126819854Y-127409033D01*
X126883899Y-127439674D01*
X126921210Y-127500076D01*
X126925027Y-127528415D01*
X126925094Y-127528409D01*
X126925278Y-127530278D01*
X126925700Y-127533411D01*
X126925700Y-127534567D01*
X126955886Y-127686322D01*
X126955888Y-127686328D01*
X127007178Y-127810154D01*
X127016078Y-127845196D01*
X127019902Y-127881571D01*
X127019904Y-127881578D01*
X127080668Y-128068592D01*
X127080672Y-128068600D01*
X127178994Y-128238900D01*
X127178996Y-128238902D01*
X127310577Y-128385039D01*
X127329242Y-128398600D01*
X127469673Y-128500629D01*
X127649322Y-128580614D01*
X127841675Y-128621500D01*
X128038329Y-128621500D01*
X128128814Y-128602266D01*
X128154222Y-128596865D01*
X128225013Y-128602266D01*
X128274055Y-128635800D01*
X128402580Y-128778541D01*
X128561673Y-128894129D01*
X128741322Y-128974114D01*
X128933675Y-129015000D01*
X129130325Y-129015000D01*
X129322678Y-128974114D01*
X129502327Y-128894129D01*
X129661420Y-128778541D01*
X129793004Y-128632402D01*
X129891329Y-128462098D01*
X129952097Y-128275073D01*
X129972653Y-128079500D01*
X129952097Y-127883927D01*
X129891329Y-127696902D01*
X129854670Y-127633407D01*
X129834381Y-127598264D01*
X129817500Y-127535264D01*
X129817500Y-125525636D01*
X129817499Y-125525632D01*
X129808491Y-125480344D01*
X129787314Y-125373878D01*
X129728101Y-125230926D01*
X129642138Y-125102273D01*
X129532727Y-124992862D01*
X129532726Y-124992861D01*
X129528326Y-124988461D01*
X129528315Y-124988451D01*
X129467800Y-124927936D01*
X129437062Y-124877776D01*
X129383332Y-124712409D01*
X129383329Y-124712404D01*
X129383329Y-124712402D01*
X129285004Y-124542098D01*
X129274074Y-124529959D01*
X129153422Y-124395960D01*
X128994327Y-124280371D01*
X128814678Y-124200386D01*
X128622325Y-124159500D01*
X128471559Y-124159500D01*
X128403438Y-124139498D01*
X128366794Y-124103502D01*
X128321338Y-124035473D01*
X127943798Y-123657933D01*
X127913062Y-123607776D01*
X127859331Y-123442406D01*
X127859327Y-123442399D01*
X127761005Y-123272099D01*
X127761003Y-123272097D01*
X127629422Y-123125960D01*
X127470327Y-123010371D01*
X127434516Y-122994427D01*
X127302085Y-122935465D01*
X127247993Y-122889487D01*
X127227343Y-122821560D01*
X127246695Y-122753252D01*
X127264238Y-122731269D01*
X137256604Y-112738903D01*
X137256618Y-112738892D01*
X137369714Y-112625796D01*
X137369719Y-112625791D01*
X137452947Y-112501232D01*
X137510275Y-112362830D01*
X137516099Y-112333550D01*
X137539501Y-112215902D01*
X137539501Y-112165200D01*
X137559503Y-112097079D01*
X137613159Y-112050586D01*
X137683433Y-112040482D01*
X137692285Y-112042080D01*
X137696982Y-112043101D01*
X137696983Y-112043102D01*
X137908881Y-112089198D01*
X137957596Y-112092100D01*
X137957612Y-112092100D01*
X139130988Y-112092100D01*
X139131004Y-112092100D01*
X139179719Y-112089198D01*
X139357214Y-112050586D01*
X139391613Y-112043103D01*
X139391613Y-112043102D01*
X139391617Y-112043102D01*
X139590963Y-111957738D01*
X139770550Y-111836189D01*
X139923889Y-111682850D01*
X140045438Y-111503263D01*
X140130802Y-111303917D01*
X140176898Y-111092019D01*
X140179800Y-111043304D01*
X140179800Y-109725492D01*
X147089500Y-109725492D01*
X147089500Y-110898907D01*
X147092402Y-110947623D01*
X147138496Y-111159513D01*
X147162946Y-111216610D01*
X147223862Y-111358863D01*
X147223863Y-111358865D01*
X147223864Y-111358866D01*
X147345413Y-111538453D01*
X147498746Y-111691786D01*
X147498749Y-111691788D01*
X147498750Y-111691789D01*
X147678337Y-111813338D01*
X147877683Y-111898702D01*
X147877686Y-111898702D01*
X147877687Y-111898703D01*
X147877686Y-111898703D01*
X148031925Y-111932255D01*
X148089581Y-111944798D01*
X148138296Y-111947700D01*
X148138312Y-111947700D01*
X150311688Y-111947700D01*
X150311704Y-111947700D01*
X150360419Y-111944798D01*
X150466368Y-111921750D01*
X150572313Y-111898703D01*
X150572313Y-111898702D01*
X150572317Y-111898702D01*
X150771663Y-111813338D01*
X150951250Y-111691789D01*
X151104589Y-111538450D01*
X151226138Y-111358863D01*
X151241024Y-111324099D01*
X151286227Y-111269353D01*
X151348861Y-111249331D01*
X151348763Y-111248390D01*
X151353297Y-111247913D01*
X151353853Y-111247736D01*
X151355134Y-111247720D01*
X151355320Y-111247701D01*
X151355325Y-111247700D01*
X151547678Y-111206814D01*
X151727327Y-111126829D01*
X151886420Y-111011241D01*
X151893288Y-111003614D01*
X151919975Y-110973974D01*
X152018004Y-110865102D01*
X152116329Y-110694798D01*
X152177097Y-110507773D01*
X152197653Y-110312200D01*
X152177097Y-110116627D01*
X152139817Y-110001891D01*
X152116331Y-109929607D01*
X152116327Y-109929599D01*
X152018005Y-109759299D01*
X152018003Y-109759297D01*
X151886422Y-109613160D01*
X151727327Y-109497571D01*
X151547678Y-109417586D01*
X151355320Y-109376698D01*
X151348763Y-109376010D01*
X151348934Y-109374375D01*
X151288730Y-109356698D01*
X151242237Y-109303042D01*
X151241024Y-109300300D01*
X151238485Y-109294371D01*
X151226138Y-109265537D01*
X151104589Y-109085950D01*
X151104587Y-109085948D01*
X151104585Y-109085945D01*
X150951253Y-108932613D01*
X150771666Y-108811064D01*
X150771665Y-108811063D01*
X150771663Y-108811062D01*
X150572317Y-108725698D01*
X150572316Y-108725697D01*
X150572312Y-108725696D01*
X150572313Y-108725696D01*
X150360422Y-108679602D01*
X150360423Y-108679602D01*
X150311707Y-108676700D01*
X150311704Y-108676700D01*
X148138296Y-108676700D01*
X148138292Y-108676700D01*
X148089576Y-108679602D01*
X147877686Y-108725696D01*
X147780917Y-108767135D01*
X147678337Y-108811062D01*
X147678335Y-108811062D01*
X147678333Y-108811064D01*
X147498746Y-108932613D01*
X147345413Y-109085946D01*
X147223864Y-109265533D01*
X147138496Y-109464886D01*
X147092402Y-109676776D01*
X147089500Y-109725492D01*
X140179800Y-109725492D01*
X140179800Y-108869896D01*
X140176898Y-108821181D01*
X140165141Y-108767135D01*
X140130803Y-108609286D01*
X140100699Y-108538986D01*
X140045438Y-108409937D01*
X139923889Y-108230350D01*
X139923888Y-108230349D01*
X139923886Y-108230346D01*
X139770553Y-108077013D01*
X139590966Y-107955464D01*
X139590965Y-107955463D01*
X139590963Y-107955462D01*
X139391617Y-107870098D01*
X139391616Y-107870097D01*
X139391612Y-107870096D01*
X139391613Y-107870096D01*
X139179722Y-107824002D01*
X139179723Y-107824002D01*
X139131007Y-107821100D01*
X139131004Y-107821100D01*
X137957596Y-107821100D01*
X137957592Y-107821100D01*
X137908882Y-107824001D01*
X137692283Y-107871120D01*
X137621467Y-107866055D01*
X137564632Y-107823508D01*
X137539821Y-107756988D01*
X137539500Y-107747999D01*
X137539500Y-107267536D01*
X137556381Y-107204536D01*
X137566280Y-107187391D01*
X137638329Y-107062598D01*
X137699097Y-106875573D01*
X137719653Y-106680000D01*
X137699097Y-106484427D01*
X137638329Y-106297402D01*
X137600178Y-106231323D01*
X137540005Y-106127099D01*
X137540003Y-106127097D01*
X137408422Y-105980960D01*
X137249327Y-105865371D01*
X137069678Y-105785386D01*
X136910469Y-105751545D01*
X136847996Y-105717816D01*
X136827546Y-105691297D01*
X136825530Y-105687805D01*
X136825529Y-105687802D01*
X136742840Y-105544581D01*
X136727203Y-105517496D01*
X136595622Y-105371360D01*
X136436527Y-105255771D01*
X136256878Y-105175786D01*
X136064525Y-105134900D01*
X135867875Y-105134900D01*
X135675524Y-105175785D01*
X135495869Y-105255773D01*
X135336777Y-105371360D01*
X135205196Y-105517497D01*
X135205194Y-105517499D01*
X135106872Y-105687799D01*
X135106868Y-105687807D01*
X135046104Y-105874821D01*
X135046103Y-105874825D01*
X135046103Y-105874827D01*
X135025547Y-106070400D01*
X135034135Y-106152111D01*
X135046104Y-106265978D01*
X135052143Y-106284564D01*
X135054170Y-106355532D01*
X135017508Y-106416330D01*
X134953795Y-106447655D01*
X134932310Y-106449500D01*
X133906292Y-106449500D01*
X133857576Y-106452402D01*
X133645686Y-106498496D01*
X133503430Y-106559413D01*
X133446337Y-106583862D01*
X133446335Y-106583862D01*
X133446333Y-106583864D01*
X133266746Y-106705413D01*
X133113413Y-106858746D01*
X132991864Y-107038333D01*
X132906496Y-107237686D01*
X132860402Y-107449576D01*
X132857500Y-107498292D01*
X132857500Y-109671707D01*
X132860402Y-109720423D01*
X132906496Y-109932313D01*
X132929434Y-109985878D01*
X132991862Y-110131663D01*
X132991863Y-110131665D01*
X132991864Y-110131666D01*
X133113413Y-110311253D01*
X133266746Y-110464586D01*
X133266749Y-110464588D01*
X133266750Y-110464589D01*
X133446337Y-110586138D01*
X133645683Y-110671502D01*
X133645686Y-110671502D01*
X133645687Y-110671503D01*
X133645686Y-110671503D01*
X133772134Y-110699010D01*
X133857581Y-110717598D01*
X133906296Y-110720500D01*
X133906312Y-110720500D01*
X135067000Y-110720500D01*
X135135121Y-110740502D01*
X135181614Y-110794158D01*
X135193000Y-110846500D01*
X135193000Y-111329301D01*
X135172998Y-111397422D01*
X135156095Y-111418396D01*
X131760595Y-114813896D01*
X131698283Y-114847922D01*
X131627468Y-114842857D01*
X131570632Y-114800310D01*
X131545821Y-114733790D01*
X131545500Y-114724801D01*
X131545500Y-107036844D01*
X131565502Y-106968723D01*
X131582405Y-106947749D01*
X133921300Y-104608854D01*
X134175300Y-104354854D01*
X134255792Y-104234390D01*
X134311235Y-104100538D01*
X134339500Y-103958440D01*
X134339500Y-103813560D01*
X134339500Y-103624352D01*
X134359502Y-103556231D01*
X134413158Y-103509738D01*
X134483432Y-103499634D01*
X134516754Y-103509248D01*
X134519822Y-103510614D01*
X134712175Y-103551500D01*
X134908825Y-103551500D01*
X135101178Y-103510614D01*
X135280827Y-103430629D01*
X135322208Y-103400564D01*
X135389076Y-103376705D01*
X135396269Y-103376500D01*
X144158801Y-103376500D01*
X144226922Y-103396502D01*
X144247896Y-103413405D01*
X147742105Y-106907614D01*
X147742134Y-106907645D01*
X147851203Y-107016714D01*
X147851209Y-107016719D01*
X147924044Y-107065386D01*
X147975768Y-107099947D01*
X148114170Y-107157275D01*
X148261098Y-107186501D01*
X148261099Y-107186501D01*
X148417116Y-107186501D01*
X148417136Y-107186500D01*
X148542742Y-107186500D01*
X148610863Y-107206502D01*
X148657356Y-107260158D01*
X148661927Y-107271985D01*
X148670968Y-107293097D01*
X148747862Y-107472663D01*
X148747863Y-107472665D01*
X148747864Y-107472666D01*
X148869413Y-107652253D01*
X149022746Y-107805586D01*
X149022749Y-107805588D01*
X149022750Y-107805589D01*
X149202337Y-107927138D01*
X149401683Y-108012502D01*
X149401686Y-108012502D01*
X149401687Y-108012503D01*
X149401686Y-108012503D01*
X149550199Y-108044810D01*
X149613581Y-108058598D01*
X149662296Y-108061500D01*
X149662312Y-108061500D01*
X151835688Y-108061500D01*
X151835704Y-108061500D01*
X151884419Y-108058598D01*
X151990368Y-108035550D01*
X152096313Y-108012503D01*
X152096313Y-108012502D01*
X152096317Y-108012502D01*
X152295663Y-107927138D01*
X152475250Y-107805589D01*
X152628589Y-107652250D01*
X152750138Y-107472663D01*
X152835502Y-107273317D01*
X152835501Y-107273317D01*
X152837865Y-107267799D01*
X152839155Y-107268351D01*
X152875034Y-107215340D01*
X152940298Y-107187391D01*
X152955258Y-107186500D01*
X152957231Y-107186500D01*
X153025352Y-107206502D01*
X153031293Y-107210565D01*
X153072669Y-107240627D01*
X153087248Y-107247118D01*
X153141344Y-107293097D01*
X153161994Y-107361024D01*
X153162000Y-107362225D01*
X153162000Y-115824000D01*
X164339000Y-115824000D01*
X164407121Y-115844002D01*
X164453614Y-115897658D01*
X164465000Y-115950000D01*
X164465000Y-138058812D01*
X164464393Y-138071163D01*
X164447001Y-138247738D01*
X164442183Y-138271962D01*
X164392482Y-138435808D01*
X164383029Y-138458629D01*
X164302318Y-138609627D01*
X164288595Y-138630165D01*
X164179979Y-138762514D01*
X164162514Y-138779979D01*
X164030165Y-138888595D01*
X164009627Y-138902318D01*
X163858629Y-138983029D01*
X163835808Y-138992482D01*
X163671962Y-139042183D01*
X163647738Y-139047001D01*
X163499273Y-139061624D01*
X163471161Y-139064393D01*
X163458813Y-139065000D01*
X77841187Y-139065000D01*
X77828838Y-139064393D01*
X77796095Y-139061168D01*
X77652261Y-139047001D01*
X77628037Y-139042183D01*
X77464191Y-138992482D01*
X77441372Y-138983030D01*
X77393011Y-138957180D01*
X77290372Y-138902318D01*
X77269834Y-138888595D01*
X77137485Y-138779979D01*
X77120020Y-138762514D01*
X77011404Y-138630165D01*
X76997681Y-138609627D01*
X76984064Y-138584153D01*
X76916967Y-138458622D01*
X76907520Y-138435815D01*
X76857815Y-138271959D01*
X76852998Y-138247737D01*
X76835607Y-138071162D01*
X76835000Y-138058812D01*
X76835000Y-136067186D01*
X116876000Y-136067186D01*
X116891168Y-136162961D01*
X116949987Y-136278401D01*
X117041598Y-136370012D01*
X117157038Y-136428831D01*
X117252814Y-136444000D01*
X117290000Y-136444000D01*
X117590000Y-136444000D01*
X117627186Y-136444000D01*
X117722961Y-136428831D01*
X117838401Y-136370012D01*
X117930012Y-136278401D01*
X117988831Y-136162961D01*
X118004000Y-136067186D01*
X118876000Y-136067186D01*
X118891168Y-136162961D01*
X118949987Y-136278401D01*
X119041598Y-136370012D01*
X119157038Y-136428831D01*
X119252814Y-136444000D01*
X119290000Y-136444000D01*
X119590000Y-136444000D01*
X119627186Y-136444000D01*
X119722961Y-136428831D01*
X119838401Y-136370012D01*
X119930012Y-136278401D01*
X119988831Y-136162961D01*
X120004000Y-136067186D01*
X120876000Y-136067186D01*
X120891168Y-136162961D01*
X120949987Y-136278401D01*
X121041598Y-136370012D01*
X121157038Y-136428831D01*
X121252814Y-136444000D01*
X121290000Y-136444000D01*
X121590000Y-136444000D01*
X121627186Y-136444000D01*
X121722961Y-136428831D01*
X121838401Y-136370012D01*
X121930012Y-136278401D01*
X121988831Y-136162961D01*
X122004000Y-136067186D01*
X122004000Y-135972500D01*
X121590000Y-135972500D01*
X121590000Y-136444000D01*
X121290000Y-136444000D01*
X121290000Y-135972500D01*
X120876000Y-135972500D01*
X120876000Y-136067186D01*
X120004000Y-136067186D01*
X120004000Y-135972500D01*
X119590000Y-135972500D01*
X119590000Y-136444000D01*
X119290000Y-136444000D01*
X119290000Y-135972500D01*
X118876000Y-135972500D01*
X118876000Y-136067186D01*
X118004000Y-136067186D01*
X118004000Y-135972500D01*
X117590000Y-135972500D01*
X117590000Y-136444000D01*
X117290000Y-136444000D01*
X117290000Y-135972500D01*
X116876000Y-135972500D01*
X116876000Y-136067186D01*
X76835000Y-136067186D01*
X76835000Y-126374958D01*
X112480305Y-126374958D01*
X112489320Y-126460731D01*
X112500862Y-126570536D01*
X112561626Y-126757550D01*
X112561630Y-126757558D01*
X112659952Y-126927858D01*
X112659954Y-126927860D01*
X112791535Y-127073997D01*
X112791538Y-127073999D01*
X112950631Y-127189587D01*
X113130280Y-127269572D01*
X113188290Y-127281902D01*
X113250764Y-127315630D01*
X113251189Y-127316054D01*
X114118199Y-128183064D01*
X114148937Y-128233223D01*
X114202668Y-128398592D01*
X114202672Y-128398600D01*
X114300994Y-128568900D01*
X114300996Y-128568902D01*
X114432577Y-128715039D01*
X114432580Y-128715041D01*
X114591673Y-128830629D01*
X114771322Y-128910614D01*
X114963675Y-128951500D01*
X115160325Y-128951500D01*
X115352678Y-128910614D01*
X115532327Y-128830629D01*
X115691420Y-128715041D01*
X115823004Y-128568902D01*
X115921329Y-128398598D01*
X115982097Y-128211573D01*
X116002653Y-128016000D01*
X115982097Y-127820427D01*
X115941963Y-127696907D01*
X115921331Y-127633407D01*
X115921327Y-127633399D01*
X115823005Y-127463099D01*
X115823003Y-127463097D01*
X115691422Y-127316960D01*
X115532327Y-127201371D01*
X115352678Y-127121386D01*
X115352674Y-127121385D01*
X115326845Y-127115894D01*
X115294665Y-127109054D01*
X115232193Y-127075326D01*
X115231768Y-127074903D01*
X114364758Y-126207893D01*
X114334020Y-126157734D01*
X114280289Y-125992364D01*
X114280285Y-125992357D01*
X114181963Y-125822057D01*
X114181961Y-125822055D01*
X114050380Y-125675918D01*
X113891285Y-125560329D01*
X113711636Y-125480344D01*
X113519283Y-125439458D01*
X113322633Y-125439458D01*
X113130282Y-125480343D01*
X112950627Y-125560331D01*
X112791535Y-125675918D01*
X112659954Y-125822055D01*
X112659952Y-125822057D01*
X112561630Y-125992357D01*
X112561626Y-125992365D01*
X112500862Y-126179379D01*
X112500861Y-126179383D01*
X112500861Y-126179385D01*
X112480305Y-126374958D01*
X76835000Y-126374958D01*
X76835000Y-100482400D01*
X130326547Y-100482400D01*
X130344499Y-100653202D01*
X130347104Y-100677978D01*
X130407868Y-100864992D01*
X130407872Y-100865000D01*
X130506194Y-101035300D01*
X130506196Y-101035302D01*
X130637777Y-101181439D01*
X130662809Y-101199626D01*
X130796873Y-101297029D01*
X130976522Y-101377014D01*
X131168875Y-101417900D01*
X131365525Y-101417900D01*
X131557878Y-101377014D01*
X131737527Y-101297029D01*
X131896620Y-101181441D01*
X132028204Y-101035302D01*
X132126529Y-100864998D01*
X132187297Y-100677973D01*
X132207853Y-100482400D01*
X132187297Y-100286827D01*
X132159086Y-100200002D01*
X132152587Y-100179999D01*
X136141309Y-100179999D01*
X136141310Y-100180000D01*
X136667752Y-100180000D01*
X136612621Y-100202836D01*
X136570425Y-100245032D01*
X136547589Y-100300163D01*
X136547589Y-100359837D01*
X136570425Y-100414968D01*
X136612621Y-100457164D01*
X136667752Y-100480000D01*
X136141310Y-100480000D01*
X136198522Y-100605277D01*
X136198529Y-100605288D01*
X136236402Y-100652285D01*
X136236412Y-100652297D01*
X136274332Y-100690216D01*
X136285200Y-100702608D01*
X136302472Y-100725117D01*
X136324971Y-100742381D01*
X136337363Y-100753248D01*
X136571016Y-100986901D01*
X137227919Y-100329999D01*
X137652183Y-100329999D01*
X137652183Y-100330001D01*
X138309083Y-100986901D01*
X138309084Y-100986901D01*
X138542726Y-100753257D01*
X138555122Y-100742386D01*
X138577629Y-100725116D01*
X138594899Y-100702609D01*
X138605772Y-100690211D01*
X138643699Y-100652284D01*
X138681572Y-100605290D01*
X138681579Y-100605279D01*
X138738792Y-100480000D01*
X138212350Y-100480000D01*
X138267481Y-100457164D01*
X138309677Y-100414968D01*
X138332513Y-100359837D01*
X138332513Y-100300163D01*
X138309677Y-100245032D01*
X138267481Y-100202836D01*
X138212350Y-100180000D01*
X138738792Y-100180000D01*
X138738792Y-100179999D01*
X138681579Y-100054722D01*
X138681572Y-100054711D01*
X138643699Y-100007714D01*
X138643689Y-100007702D01*
X138605765Y-99969779D01*
X138594895Y-99957384D01*
X138577629Y-99934883D01*
X138555125Y-99917614D01*
X138542735Y-99906748D01*
X138309084Y-99673098D01*
X137652183Y-100329999D01*
X137227919Y-100329999D01*
X136571017Y-99673097D01*
X136571016Y-99673097D01*
X136337368Y-99906746D01*
X136324980Y-99917611D01*
X136302469Y-99934885D01*
X136285195Y-99957396D01*
X136274333Y-99969782D01*
X136236414Y-100007701D01*
X136236398Y-100007719D01*
X136198529Y-100054709D01*
X136198522Y-100054720D01*
X136141309Y-100179999D01*
X132152587Y-100179999D01*
X132126531Y-100099807D01*
X132126528Y-100099800D01*
X132044581Y-99957863D01*
X132027700Y-99894863D01*
X132027700Y-99460964D01*
X136783148Y-99460964D01*
X136783148Y-99460966D01*
X137440050Y-100117868D01*
X137440051Y-100117868D01*
X138096952Y-99460966D01*
X137863309Y-99227324D01*
X137852442Y-99214932D01*
X137835168Y-99192421D01*
X137812660Y-99175150D01*
X137800266Y-99164281D01*
X137762337Y-99126351D01*
X137715340Y-99088478D01*
X137715330Y-99088471D01*
X137590051Y-99031258D01*
X137590051Y-99557701D01*
X137567215Y-99502570D01*
X137525019Y-99460374D01*
X137469888Y-99437538D01*
X137410214Y-99437538D01*
X137355083Y-99460374D01*
X137312887Y-99502570D01*
X137290051Y-99557701D01*
X137290051Y-99031259D01*
X137290050Y-99031258D01*
X137164773Y-99088471D01*
X137164762Y-99088478D01*
X137117765Y-99126350D01*
X137117754Y-99126360D01*
X137079829Y-99164285D01*
X137067443Y-99175147D01*
X137044933Y-99192420D01*
X137027664Y-99214925D01*
X137016800Y-99227312D01*
X136783148Y-99460964D01*
X132027700Y-99460964D01*
X132027700Y-97917000D01*
X134441347Y-97917000D01*
X134453417Y-98031839D01*
X134461904Y-98112578D01*
X134522668Y-98299592D01*
X134522672Y-98299600D01*
X134620994Y-98469900D01*
X134620996Y-98469902D01*
X134752577Y-98616039D01*
X134752580Y-98616041D01*
X134911673Y-98731629D01*
X135091322Y-98811614D01*
X135283675Y-98852500D01*
X135480325Y-98852500D01*
X135672678Y-98811614D01*
X135852327Y-98731629D01*
X135889804Y-98704400D01*
X139064147Y-98704400D01*
X139079713Y-98852500D01*
X139084704Y-98899978D01*
X139145468Y-99086992D01*
X139145472Y-99087000D01*
X139243794Y-99257300D01*
X139243796Y-99257302D01*
X139375377Y-99403439D01*
X139375380Y-99403441D01*
X139534473Y-99519029D01*
X139621332Y-99557701D01*
X139662021Y-99575817D01*
X139716117Y-99621797D01*
X139736082Y-99677751D01*
X139745102Y-99763566D01*
X139745104Y-99763579D01*
X139805868Y-99950592D01*
X139805872Y-99950600D01*
X139904194Y-100120900D01*
X139904196Y-100120902D01*
X140035777Y-100267039D01*
X140035780Y-100267041D01*
X140194873Y-100382629D01*
X140374522Y-100462614D01*
X140566875Y-100503500D01*
X140763525Y-100503500D01*
X140955878Y-100462614D01*
X141135527Y-100382629D01*
X141294620Y-100267041D01*
X141426204Y-100120902D01*
X141524529Y-99950598D01*
X141529635Y-99934885D01*
X141545736Y-99885328D01*
X141585297Y-99763573D01*
X141585350Y-99763072D01*
X141585460Y-99762804D01*
X141586670Y-99757112D01*
X141587710Y-99757333D01*
X141612360Y-99697414D01*
X141621556Y-99687151D01*
X146894719Y-94413991D01*
X146977947Y-94289432D01*
X147035275Y-94151030D01*
X147064500Y-94004103D01*
X147064500Y-93957936D01*
X147081381Y-93894936D01*
X147163328Y-93752999D01*
X147163329Y-93752998D01*
X147224097Y-93565973D01*
X147244653Y-93370400D01*
X147224097Y-93174827D01*
X147163329Y-92987802D01*
X147077549Y-92839227D01*
X147060812Y-92770234D01*
X147084032Y-92703142D01*
X147097566Y-92687141D01*
X147217105Y-92567604D01*
X147279418Y-92533579D01*
X147306200Y-92530700D01*
X148207702Y-92530700D01*
X148207703Y-92530700D01*
X148354630Y-92501475D01*
X148493032Y-92444147D01*
X148617591Y-92360919D01*
X148723519Y-92254991D01*
X148733886Y-92244624D01*
X148733893Y-92244614D01*
X148960060Y-92018447D01*
X149022370Y-91984423D01*
X149022693Y-91984353D01*
X149125868Y-91962424D01*
X149305517Y-91882439D01*
X149464610Y-91766851D01*
X149596194Y-91620712D01*
X149694519Y-91450408D01*
X149755287Y-91263383D01*
X149775843Y-91067810D01*
X149755287Y-90872237D01*
X149694519Y-90685212D01*
X149596194Y-90514908D01*
X149585264Y-90502769D01*
X149464612Y-90368770D01*
X149305517Y-90253181D01*
X149125868Y-90173196D01*
X148933515Y-90132310D01*
X148736865Y-90132310D01*
X148544514Y-90173195D01*
X148364859Y-90253183D01*
X148205767Y-90368770D01*
X148074186Y-90514907D01*
X148074184Y-90514909D01*
X147975862Y-90685209D01*
X147975858Y-90685217D01*
X147915093Y-90872232D01*
X147915092Y-90872240D01*
X147915038Y-90872756D01*
X147914923Y-90873033D01*
X147913722Y-90878689D01*
X147912686Y-90878468D01*
X147888015Y-90938409D01*
X147878829Y-90948660D01*
X147854699Y-90972792D01*
X147792388Y-91006819D01*
X147765600Y-91009700D01*
X147020136Y-91009700D01*
X147020116Y-91009699D01*
X147013903Y-91009699D01*
X146864098Y-91009699D01*
X146864095Y-91009699D01*
X146717169Y-91038925D01*
X146717166Y-91038926D01*
X146578768Y-91096253D01*
X146454209Y-91179480D01*
X146401245Y-91232444D01*
X146348281Y-91285409D01*
X143989796Y-93643894D01*
X143927484Y-93677920D01*
X143925925Y-93678171D01*
X143727324Y-93720385D01*
X143547669Y-93800373D01*
X143388577Y-93915960D01*
X143256996Y-94062097D01*
X143256994Y-94062099D01*
X143158672Y-94232399D01*
X143158668Y-94232407D01*
X143097904Y-94419421D01*
X143088900Y-94505081D01*
X143061886Y-94570738D01*
X143052685Y-94581004D01*
X139879930Y-97753759D01*
X139817618Y-97787785D01*
X139817034Y-97787910D01*
X139714123Y-97809785D01*
X139534469Y-97889773D01*
X139375377Y-98005360D01*
X139243796Y-98151497D01*
X139243794Y-98151499D01*
X139145472Y-98321799D01*
X139145468Y-98321807D01*
X139084704Y-98508821D01*
X139084703Y-98508825D01*
X139084703Y-98508827D01*
X139064147Y-98704400D01*
X135889804Y-98704400D01*
X136011420Y-98616041D01*
X136143004Y-98469902D01*
X136240845Y-98300435D01*
X136292226Y-98251444D01*
X136323764Y-98240191D01*
X136383878Y-98227414D01*
X136563527Y-98147429D01*
X136722620Y-98031841D01*
X136854204Y-97885702D01*
X136952529Y-97715398D01*
X136952533Y-97715383D01*
X136954815Y-97710262D01*
X137000795Y-97656165D01*
X137068722Y-97635515D01*
X137137030Y-97654866D01*
X137143971Y-97659564D01*
X137197673Y-97698581D01*
X137377322Y-97778566D01*
X137569675Y-97819452D01*
X137766325Y-97819452D01*
X137958678Y-97778566D01*
X138138327Y-97698581D01*
X138297420Y-97582993D01*
X138429004Y-97436854D01*
X138527329Y-97266550D01*
X138588097Y-97079525D01*
X138588150Y-97079024D01*
X138588260Y-97078756D01*
X138589470Y-97073064D01*
X138590510Y-97073285D01*
X138615160Y-97013366D01*
X138624356Y-97003103D01*
X146844456Y-88783005D01*
X146906768Y-88748979D01*
X146933551Y-88746100D01*
X152861911Y-88746100D01*
X152930032Y-88766102D01*
X152935972Y-88770164D01*
X153047273Y-88851029D01*
X153226922Y-88931014D01*
X153419275Y-88971900D01*
X153615925Y-88971900D01*
X153808278Y-88931014D01*
X153987927Y-88851029D01*
X154147020Y-88735441D01*
X154278604Y-88589302D01*
X154376929Y-88418998D01*
X154437697Y-88231973D01*
X154458253Y-88036400D01*
X154437697Y-87840827D01*
X154395951Y-87712346D01*
X154376931Y-87653807D01*
X154376927Y-87653799D01*
X154375989Y-87652175D01*
X154313398Y-87543763D01*
X154278605Y-87483499D01*
X154278603Y-87483497D01*
X154147022Y-87337360D01*
X153987927Y-87221771D01*
X153808278Y-87141786D01*
X153615925Y-87100900D01*
X153419275Y-87100900D01*
X153226924Y-87141785D01*
X153226922Y-87141786D01*
X153064261Y-87214207D01*
X153013015Y-87225100D01*
X146491445Y-87225100D01*
X146344521Y-87254325D01*
X146344516Y-87254327D01*
X146206120Y-87311653D01*
X146081561Y-87394880D01*
X146028597Y-87447844D01*
X145975633Y-87500809D01*
X145975630Y-87500812D01*
X137543130Y-95933311D01*
X137480818Y-95967337D01*
X137480234Y-95967462D01*
X137377323Y-95989337D01*
X137197669Y-96069325D01*
X137053761Y-96173881D01*
X136986893Y-96197740D01*
X136917742Y-96181659D01*
X136868261Y-96130745D01*
X136853700Y-96071945D01*
X136853700Y-84745999D01*
X136873702Y-84677878D01*
X136890605Y-84656904D01*
X137565104Y-83982405D01*
X137627416Y-83948379D01*
X137654199Y-83945500D01*
X140689031Y-83945500D01*
X140757152Y-83965502D01*
X140763092Y-83969564D01*
X140804473Y-83999629D01*
X140984122Y-84079614D01*
X141176475Y-84120500D01*
X141373125Y-84120500D01*
X141565478Y-84079614D01*
X141745127Y-83999629D01*
X141904220Y-83884041D01*
X142035804Y-83737902D01*
X142134129Y-83567598D01*
X142194897Y-83380573D01*
X142215453Y-83185000D01*
X142194897Y-82989427D01*
X142134129Y-82802402D01*
X142075128Y-82700209D01*
X142035805Y-82632099D01*
X142035803Y-82632097D01*
X141904222Y-82485960D01*
X141745127Y-82370371D01*
X141565478Y-82290386D01*
X141373125Y-82249500D01*
X141176475Y-82249500D01*
X140984124Y-82290385D01*
X140804473Y-82370371D01*
X140763091Y-82400437D01*
X140696223Y-82424295D01*
X140689031Y-82424500D01*
X137212093Y-82424500D01*
X137065169Y-82453725D01*
X137065164Y-82453727D01*
X136926768Y-82511053D01*
X136802209Y-82594280D01*
X136764393Y-82632097D01*
X136696281Y-82700209D01*
X136357595Y-83038895D01*
X136295283Y-83072921D01*
X136224468Y-83067856D01*
X136167632Y-83025309D01*
X136142821Y-82958789D01*
X136142500Y-82949800D01*
X136142500Y-82409200D01*
X136162502Y-82341079D01*
X136179405Y-82320104D01*
X137057106Y-81442404D01*
X137119418Y-81408379D01*
X137146201Y-81405500D01*
X140663631Y-81405500D01*
X140731752Y-81425502D01*
X140737692Y-81429564D01*
X140779073Y-81459629D01*
X140958722Y-81539614D01*
X141151075Y-81580500D01*
X141347725Y-81580500D01*
X141540078Y-81539614D01*
X141719727Y-81459629D01*
X141878820Y-81344041D01*
X142010404Y-81197902D01*
X142108729Y-81027598D01*
X142169497Y-80840573D01*
X142190053Y-80645000D01*
X142169497Y-80449427D01*
X142115717Y-80283909D01*
X142108731Y-80262407D01*
X142108727Y-80262399D01*
X142099952Y-80247201D01*
X142010404Y-80092098D01*
X141976357Y-80054285D01*
X141878822Y-79945960D01*
X141719727Y-79830371D01*
X141540078Y-79750386D01*
X141347725Y-79709500D01*
X141151075Y-79709500D01*
X140958724Y-79750385D01*
X140779073Y-79830371D01*
X140737691Y-79860437D01*
X140670823Y-79884295D01*
X140663631Y-79884500D01*
X136704093Y-79884500D01*
X136557169Y-79913725D01*
X136557164Y-79913727D01*
X136418768Y-79971053D01*
X136294209Y-80054280D01*
X136294203Y-80054285D01*
X135150590Y-81197900D01*
X134897211Y-81451279D01*
X134897209Y-81451281D01*
X134856358Y-81492132D01*
X134791280Y-81557209D01*
X134708053Y-81681768D01*
X134650727Y-81820164D01*
X134650725Y-81820169D01*
X134621500Y-81967093D01*
X134621500Y-97329463D01*
X134604619Y-97392463D01*
X134522671Y-97534400D01*
X134522668Y-97534407D01*
X134461904Y-97721421D01*
X134461903Y-97721425D01*
X134461903Y-97721427D01*
X134441347Y-97917000D01*
X132027700Y-97917000D01*
X132027700Y-97211290D01*
X132047702Y-97143169D01*
X132101358Y-97096676D01*
X132171632Y-97086572D01*
X132179887Y-97088041D01*
X132201854Y-97092711D01*
X132235672Y-97099900D01*
X132235675Y-97099900D01*
X132432325Y-97099900D01*
X132624678Y-97059014D01*
X132804327Y-96979029D01*
X132963420Y-96863441D01*
X133095004Y-96717302D01*
X133193329Y-96546998D01*
X133254097Y-96359973D01*
X133274653Y-96164400D01*
X133254097Y-95968827D01*
X133193329Y-95781802D01*
X133095004Y-95611498D01*
X133084074Y-95599359D01*
X132963422Y-95465360D01*
X132804327Y-95349771D01*
X132624678Y-95269786D01*
X132432325Y-95228900D01*
X132235675Y-95228900D01*
X132043324Y-95269785D01*
X131863673Y-95349771D01*
X131822291Y-95379837D01*
X131755423Y-95403695D01*
X131748231Y-95403900D01*
X131624093Y-95403900D01*
X131477169Y-95433125D01*
X131477164Y-95433127D01*
X131338768Y-95490453D01*
X131214209Y-95573680D01*
X131006091Y-95781799D01*
X130782411Y-96005479D01*
X130782409Y-96005481D01*
X130729444Y-96058445D01*
X130676480Y-96111409D01*
X130593253Y-96235968D01*
X130535927Y-96374364D01*
X130535925Y-96374369D01*
X130506700Y-96521293D01*
X130506700Y-99894863D01*
X130489819Y-99957863D01*
X130407871Y-100099800D01*
X130407868Y-100099807D01*
X130347104Y-100286821D01*
X130347103Y-100286825D01*
X130347103Y-100286827D01*
X130326547Y-100482400D01*
X76835000Y-100482400D01*
X76835000Y-90365000D01*
X90316082Y-90365000D01*
X90335728Y-90627157D01*
X90394225Y-90883448D01*
X90394227Y-90883453D01*
X90490268Y-91128162D01*
X90490271Y-91128170D01*
X90621709Y-91355826D01*
X90621714Y-91355834D01*
X90732770Y-91495095D01*
X90732772Y-91495095D01*
X91449312Y-90778555D01*
X91492437Y-90843097D01*
X91596903Y-90947563D01*
X91661443Y-90990687D01*
X90943902Y-91708228D01*
X90943902Y-91708229D01*
X90978330Y-91740174D01*
X91195538Y-91888265D01*
X91195538Y-91888266D01*
X91432390Y-92002329D01*
X91432403Y-92002334D01*
X91683593Y-92079815D01*
X91683605Y-92079817D01*
X91943560Y-92119000D01*
X92206440Y-92119000D01*
X92466394Y-92079817D01*
X92466406Y-92079815D01*
X92717596Y-92002334D01*
X92717609Y-92002329D01*
X92954461Y-91888266D01*
X92954461Y-91888265D01*
X93171669Y-91740175D01*
X93171671Y-91740174D01*
X93206096Y-91708230D01*
X93206097Y-91708228D01*
X92488556Y-90990687D01*
X92553097Y-90947563D01*
X92657563Y-90843097D01*
X92700687Y-90778556D01*
X93417226Y-91495095D01*
X93417228Y-91495095D01*
X93528282Y-91355838D01*
X93528288Y-91355830D01*
X93659728Y-91128170D01*
X93659731Y-91128162D01*
X93755772Y-90883453D01*
X93755774Y-90883448D01*
X93814271Y-90627157D01*
X93833917Y-90365000D01*
X93814271Y-90102842D01*
X93755774Y-89846551D01*
X93755772Y-89846546D01*
X93659731Y-89601837D01*
X93659728Y-89601829D01*
X93528288Y-89374169D01*
X93417227Y-89234903D01*
X93417226Y-89234903D01*
X92700686Y-89951442D01*
X92657563Y-89886903D01*
X92553097Y-89782437D01*
X92488555Y-89739312D01*
X93206096Y-89021771D01*
X93206096Y-89021770D01*
X93171669Y-88989825D01*
X92954461Y-88841734D01*
X92954461Y-88841733D01*
X92717609Y-88727670D01*
X92717596Y-88727665D01*
X92466406Y-88650184D01*
X92466394Y-88650182D01*
X92206440Y-88611000D01*
X91943560Y-88611000D01*
X91683605Y-88650182D01*
X91683593Y-88650184D01*
X91432403Y-88727665D01*
X91432390Y-88727670D01*
X91195538Y-88841733D01*
X91195538Y-88841734D01*
X90978337Y-88989820D01*
X90943902Y-89021771D01*
X91661443Y-89739312D01*
X91596903Y-89782437D01*
X91492437Y-89886903D01*
X91449312Y-89951443D01*
X90732772Y-89234903D01*
X90732770Y-89234903D01*
X90621715Y-89374162D01*
X90621712Y-89374167D01*
X90490271Y-89601829D01*
X90490268Y-89601837D01*
X90394227Y-89846546D01*
X90394225Y-89846551D01*
X90335728Y-90102842D01*
X90316082Y-90365000D01*
X76835000Y-90365000D01*
X76835000Y-78740000D01*
X112559634Y-78740000D01*
X112579072Y-78999391D01*
X112636954Y-79252983D01*
X112636955Y-79252986D01*
X112731982Y-79495114D01*
X112862039Y-79720379D01*
X112862041Y-79720382D01*
X112862042Y-79720383D01*
X112943131Y-79822066D01*
X113024224Y-79923754D01*
X113140197Y-80031359D01*
X113214900Y-80100673D01*
X113214903Y-80100675D01*
X113362083Y-80201021D01*
X113362110Y-80201054D01*
X113362327Y-80201187D01*
X113429817Y-80247201D01*
X113429820Y-80247202D01*
X113429821Y-80247203D01*
X113429827Y-80247207D01*
X113506041Y-80283909D01*
X113540469Y-80308336D01*
X113995256Y-80763124D01*
X113931592Y-80799881D01*
X113819881Y-80911592D01*
X113783124Y-80975256D01*
X113240078Y-80432211D01*
X113227844Y-80445502D01*
X113227843Y-80445503D01*
X113105111Y-80633359D01*
X113014976Y-80838846D01*
X113014973Y-80838853D01*
X112959891Y-81056367D01*
X112941360Y-81280000D01*
X112959891Y-81503632D01*
X113014973Y-81721146D01*
X113014976Y-81721153D01*
X113105111Y-81926640D01*
X113227839Y-82114490D01*
X113240078Y-82127786D01*
X113783123Y-81584742D01*
X113819881Y-81648408D01*
X113931592Y-81760119D01*
X113995255Y-81796875D01*
X113540466Y-82251664D01*
X113506042Y-82276089D01*
X113429821Y-82312796D01*
X113429820Y-82312796D01*
X113362331Y-82358810D01*
X113362245Y-82358837D01*
X113362087Y-82358976D01*
X113214901Y-82459326D01*
X113024224Y-82636245D01*
X112862039Y-82839620D01*
X112731982Y-83064885D01*
X112636955Y-83307013D01*
X112636954Y-83307016D01*
X112579072Y-83560608D01*
X112559634Y-83820000D01*
X112579072Y-84079391D01*
X112636954Y-84332983D01*
X112636955Y-84332986D01*
X112731982Y-84575114D01*
X112862039Y-84800379D01*
X112862041Y-84800382D01*
X112862042Y-84800383D01*
X113024221Y-85003750D01*
X113024223Y-85003752D01*
X113024232Y-85003763D01*
X113024742Y-85004313D01*
X113024861Y-85004551D01*
X113027161Y-85007436D01*
X113026543Y-85007928D01*
X113056403Y-85067859D01*
X113048683Y-85138434D01*
X113026888Y-85172346D01*
X113027161Y-85172564D01*
X113025038Y-85175225D01*
X113024742Y-85175687D01*
X113024232Y-85176236D01*
X112862039Y-85379620D01*
X112731982Y-85604885D01*
X112636955Y-85847013D01*
X112636954Y-85847016D01*
X112579072Y-86100608D01*
X112559634Y-86360000D01*
X112579072Y-86619391D01*
X112636954Y-86872983D01*
X112636955Y-86872986D01*
X112731982Y-87115114D01*
X112862039Y-87340379D01*
X112862041Y-87340382D01*
X112862042Y-87340383D01*
X113024221Y-87543750D01*
X113024223Y-87543752D01*
X113024232Y-87543763D01*
X113024742Y-87544313D01*
X113024861Y-87544551D01*
X113027161Y-87547436D01*
X113026543Y-87547928D01*
X113056403Y-87607859D01*
X113048683Y-87678434D01*
X113026888Y-87712346D01*
X113027161Y-87712564D01*
X113025038Y-87715225D01*
X113024742Y-87715687D01*
X113024232Y-87716236D01*
X112862039Y-87919620D01*
X112731982Y-88144885D01*
X112636955Y-88387013D01*
X112636954Y-88387016D01*
X112579072Y-88640608D01*
X112559634Y-88900000D01*
X112579072Y-89159391D01*
X112636954Y-89412983D01*
X112636955Y-89412986D01*
X112731982Y-89655114D01*
X112862039Y-89880379D01*
X113024224Y-90083754D01*
X113140197Y-90191359D01*
X113214900Y-90260673D01*
X113214903Y-90260675D01*
X113429807Y-90407195D01*
X113429814Y-90407199D01*
X113429817Y-90407201D01*
X113564923Y-90472265D01*
X113664168Y-90520059D01*
X113664181Y-90520064D01*
X113912727Y-90596730D01*
X113912730Y-90596730D01*
X113912732Y-90596731D01*
X114169942Y-90635500D01*
X114169947Y-90635500D01*
X114430053Y-90635500D01*
X114430058Y-90635500D01*
X114687268Y-90596731D01*
X114687270Y-90596730D01*
X114687272Y-90596730D01*
X114935818Y-90520064D01*
X114935820Y-90520062D01*
X114935827Y-90520061D01*
X115170183Y-90407201D01*
X115385100Y-90260673D01*
X115575779Y-90083750D01*
X115737958Y-89880383D01*
X115868016Y-89655117D01*
X115963046Y-89412982D01*
X116020928Y-89159388D01*
X116040366Y-88900000D01*
X116020928Y-88640612D01*
X115963046Y-88387018D01*
X115868016Y-88144883D01*
X115737958Y-87919617D01*
X115575779Y-87716250D01*
X115575772Y-87716243D01*
X115575279Y-87715712D01*
X115575161Y-87715476D01*
X115572839Y-87712564D01*
X115573461Y-87712067D01*
X115543601Y-87652175D01*
X115551302Y-87581597D01*
X115573114Y-87547655D01*
X115572839Y-87547436D01*
X115574986Y-87544742D01*
X115575279Y-87544288D01*
X115575765Y-87543762D01*
X115575779Y-87543750D01*
X115737958Y-87340383D01*
X115868016Y-87115117D01*
X115963046Y-86872982D01*
X116020928Y-86619388D01*
X116040366Y-86360000D01*
X116020928Y-86100612D01*
X115963046Y-85847018D01*
X115868016Y-85604883D01*
X115737958Y-85379617D01*
X115575779Y-85176250D01*
X115575772Y-85176243D01*
X115575279Y-85175712D01*
X115575161Y-85175476D01*
X115572839Y-85172564D01*
X115573461Y-85172067D01*
X115543601Y-85112175D01*
X115551302Y-85041597D01*
X115573114Y-85007655D01*
X115572839Y-85007436D01*
X115574986Y-85004742D01*
X115575279Y-85004288D01*
X115575765Y-85003762D01*
X115575779Y-85003750D01*
X115737958Y-84800383D01*
X115868016Y-84575117D01*
X115963046Y-84332982D01*
X116020928Y-84079388D01*
X116040366Y-83820000D01*
X116020928Y-83560612D01*
X115963046Y-83307018D01*
X115868016Y-83064883D01*
X115806762Y-82958789D01*
X115737960Y-82839620D01*
X115708277Y-82802399D01*
X115575779Y-82636250D01*
X115575778Y-82636249D01*
X115575775Y-82636245D01*
X115440848Y-82511053D01*
X115385100Y-82459327D01*
X115376886Y-82453727D01*
X115237911Y-82358975D01*
X115237881Y-82358939D01*
X115237662Y-82358805D01*
X115170192Y-82312804D01*
X115170179Y-82312797D01*
X115093954Y-82276088D01*
X115059529Y-82251662D01*
X114604743Y-81796875D01*
X114668408Y-81760119D01*
X114780119Y-81648408D01*
X114816875Y-81584744D01*
X115359918Y-82127787D01*
X115359919Y-82127787D01*
X115372160Y-82114490D01*
X115494888Y-81926640D01*
X115585023Y-81721153D01*
X115585026Y-81721146D01*
X115640108Y-81503632D01*
X115658639Y-81280000D01*
X115640108Y-81056367D01*
X115585026Y-80838853D01*
X115585023Y-80838846D01*
X115494888Y-80633359D01*
X115372158Y-80445507D01*
X115372151Y-80445498D01*
X115359919Y-80432210D01*
X114816875Y-80975255D01*
X114780119Y-80911592D01*
X114668408Y-80799881D01*
X114604742Y-80763123D01*
X115059531Y-80308335D01*
X115093955Y-80283910D01*
X115170183Y-80247201D01*
X115237658Y-80201196D01*
X115237745Y-80201168D01*
X115237909Y-80201025D01*
X115385100Y-80100673D01*
X115575779Y-79923750D01*
X115737958Y-79720383D01*
X115868016Y-79495117D01*
X115963046Y-79252982D01*
X116020928Y-78999388D01*
X116040366Y-78740000D01*
X116020928Y-78480612D01*
X115963046Y-78227018D01*
X115868016Y-77984883D01*
X115737958Y-77759617D01*
X115575779Y-77556250D01*
X115575778Y-77556249D01*
X115575775Y-77556245D01*
X115452923Y-77442257D01*
X115385100Y-77379327D01*
X115385096Y-77379324D01*
X115170192Y-77232804D01*
X115170185Y-77232800D01*
X114935831Y-77119940D01*
X114935818Y-77119935D01*
X114687272Y-77043269D01*
X114572952Y-77026038D01*
X114430058Y-77004500D01*
X114169942Y-77004500D01*
X114041337Y-77023884D01*
X113912727Y-77043269D01*
X113664181Y-77119935D01*
X113664168Y-77119940D01*
X113429814Y-77232800D01*
X113429807Y-77232804D01*
X113214903Y-77379324D01*
X113024224Y-77556245D01*
X112862039Y-77759620D01*
X112731982Y-77984885D01*
X112636955Y-78227013D01*
X112636954Y-78227016D01*
X112579072Y-78480608D01*
X112559634Y-78740000D01*
X76835000Y-78740000D01*
X76835000Y-68920810D01*
X89939500Y-68920810D01*
X89939500Y-72049179D01*
X89942334Y-72085202D01*
X89987132Y-72239395D01*
X90068866Y-72377599D01*
X90068869Y-72377603D01*
X90182396Y-72491130D01*
X90182400Y-72491133D01*
X90182402Y-72491135D01*
X90320607Y-72572869D01*
X90474796Y-72617665D01*
X90510819Y-72620500D01*
X93639180Y-72620499D01*
X93675204Y-72617665D01*
X93829393Y-72572869D01*
X93967598Y-72491135D01*
X94081135Y-72377598D01*
X94162869Y-72239393D01*
X94207665Y-72085204D01*
X94210500Y-72049181D01*
X94210499Y-68920820D01*
X94207665Y-68884796D01*
X94162869Y-68730607D01*
X94081135Y-68592402D01*
X94081133Y-68592400D01*
X94081130Y-68592396D01*
X93967603Y-68478869D01*
X93967599Y-68478866D01*
X93967598Y-68478865D01*
X93829393Y-68397131D01*
X93752298Y-68374733D01*
X93675202Y-68352334D01*
X93639189Y-68349500D01*
X90510820Y-68349500D01*
X90474797Y-68352334D01*
X90320604Y-68397132D01*
X90182400Y-68478866D01*
X90182396Y-68478869D01*
X90068869Y-68592396D01*
X90068866Y-68592400D01*
X89987132Y-68730604D01*
X89942334Y-68884797D01*
X89939500Y-68920810D01*
X76835000Y-68920810D01*
X76835000Y-52441187D01*
X76835607Y-52428837D01*
X76852998Y-52252262D01*
X76857814Y-52228042D01*
X76907521Y-52064181D01*
X76916965Y-52041380D01*
X76997682Y-51890369D01*
X77011398Y-51869842D01*
X77120025Y-51737479D01*
X77137479Y-51720025D01*
X77269842Y-51611398D01*
X77290369Y-51597682D01*
X77441380Y-51516965D01*
X77464181Y-51507521D01*
X77628042Y-51457814D01*
X77652257Y-51452998D01*
X77828837Y-51435606D01*
X77841187Y-51435000D01*
X156719000Y-51435000D01*
X156787121Y-51455002D01*
G37*
%TD.AperFunction*%
%TD*%
M02*
