%TF.GenerationSoftware,KiCad,Pcbnew,8.0.6-hq-2-g3d73d9976a*%
%TF.CreationDate,2024-12-24T21:53:37+08:00*%
%TF.ProjectId,DemoBoard_SensorForTemp&Rh_IntegratedWithMCU,44656d6f-426f-4617-9264-5f53656e736f,rev?*%
%TF.SameCoordinates,Original*%
%TF.FileFunction,Drillmap*%
%TF.FilePolarity,Positive*%
%FSLAX45Y45*%
G04 Gerber Fmt 4.5, Leading zero omitted, Abs format (unit mm)*
G04 Created by KiCad (PCBNEW 8.0.6-hq-2-g3d73d9976a) date 2024-12-24 21:53:37*
%MOMM*%
%LPD*%
G01*
G04 APERTURE LIST*
%ADD10C,0.050000*%
%ADD11C,0.200000*%
G04 APERTURE END LIST*
D10*
X16281400Y-11077940D02*
G75*
G02*
X16281400Y-11204940I0J-63500D01*
G01*
X15748000Y-9525000D02*
X16510000Y-9525000D01*
X7620000Y-13970000D02*
X7620000Y-5080000D01*
X15963900Y-11077940D02*
G75*
G02*
X15900400Y-11014440I0J63500D01*
G01*
X16281400Y-10387060D02*
G75*
G02*
X16281400Y-10514060I0J-63500D01*
G01*
X16281400Y-10514060D02*
X15963900Y-10514060D01*
X15963900Y-10387060D02*
X16281400Y-10387060D01*
X15900400Y-10577560D02*
G75*
G02*
X15963900Y-10514060I63500J0D01*
G01*
X15773400Y-10935700D02*
G75*
G02*
X15900400Y-10935700I63500J0D01*
G01*
X15748000Y-6985000D02*
X15748000Y-9525000D01*
X15963900Y-11204940D02*
X16281400Y-11204940D01*
X15900400Y-10656300D02*
G75*
G02*
X15773400Y-10656300I-63500J0D01*
G01*
X7620000Y-5080000D02*
X16510000Y-5080000D01*
X15773400Y-10935700D02*
X15773400Y-11014440D01*
X16510000Y-13970000D02*
X7620000Y-13970000D01*
X15773400Y-10656300D02*
X15773400Y-10577560D01*
X15900400Y-10935700D02*
X15900400Y-11014440D01*
X16510000Y-6985000D02*
X15748000Y-6985000D01*
X15963900Y-11204940D02*
G75*
G02*
X15773400Y-11014440I0J190500D01*
G01*
X15773400Y-10577560D02*
G75*
G02*
X15963900Y-10387060I190500J0D01*
G01*
X15900400Y-10656300D02*
X15900400Y-10577560D01*
X16281400Y-11077940D02*
X15963900Y-11077940D01*
X16510000Y-5080000D02*
X16510000Y-6985000D01*
X16510000Y-9525000D02*
X16510000Y-13970000D01*
D11*
X7878277Y-14283984D02*
X7878277Y-14083984D01*
X7878277Y-14083984D02*
X7925896Y-14083984D01*
X7925896Y-14083984D02*
X7954467Y-14093508D01*
X7954467Y-14093508D02*
X7973515Y-14112555D01*
X7973515Y-14112555D02*
X7983039Y-14131603D01*
X7983039Y-14131603D02*
X7992562Y-14169698D01*
X7992562Y-14169698D02*
X7992562Y-14198269D01*
X7992562Y-14198269D02*
X7983039Y-14236365D01*
X7983039Y-14236365D02*
X7973515Y-14255412D01*
X7973515Y-14255412D02*
X7954467Y-14274460D01*
X7954467Y-14274460D02*
X7925896Y-14283984D01*
X7925896Y-14283984D02*
X7878277Y-14283984D01*
X8078277Y-14283984D02*
X8078277Y-14150650D01*
X8078277Y-14188746D02*
X8087801Y-14169698D01*
X8087801Y-14169698D02*
X8097324Y-14160174D01*
X8097324Y-14160174D02*
X8116372Y-14150650D01*
X8116372Y-14150650D02*
X8135420Y-14150650D01*
X8202086Y-14283984D02*
X8202086Y-14150650D01*
X8202086Y-14083984D02*
X8192562Y-14093508D01*
X8192562Y-14093508D02*
X8202086Y-14103031D01*
X8202086Y-14103031D02*
X8211610Y-14093508D01*
X8211610Y-14093508D02*
X8202086Y-14083984D01*
X8202086Y-14083984D02*
X8202086Y-14103031D01*
X8325896Y-14283984D02*
X8306848Y-14274460D01*
X8306848Y-14274460D02*
X8297324Y-14255412D01*
X8297324Y-14255412D02*
X8297324Y-14083984D01*
X8430658Y-14283984D02*
X8411610Y-14274460D01*
X8411610Y-14274460D02*
X8402086Y-14255412D01*
X8402086Y-14255412D02*
X8402086Y-14083984D01*
X8659229Y-14283984D02*
X8659229Y-14083984D01*
X8659229Y-14083984D02*
X8725896Y-14226841D01*
X8725896Y-14226841D02*
X8792563Y-14083984D01*
X8792563Y-14083984D02*
X8792563Y-14283984D01*
X8973515Y-14283984D02*
X8973515Y-14179222D01*
X8973515Y-14179222D02*
X8963991Y-14160174D01*
X8963991Y-14160174D02*
X8944944Y-14150650D01*
X8944944Y-14150650D02*
X8906848Y-14150650D01*
X8906848Y-14150650D02*
X8887801Y-14160174D01*
X8973515Y-14274460D02*
X8954467Y-14283984D01*
X8954467Y-14283984D02*
X8906848Y-14283984D01*
X8906848Y-14283984D02*
X8887801Y-14274460D01*
X8887801Y-14274460D02*
X8878277Y-14255412D01*
X8878277Y-14255412D02*
X8878277Y-14236365D01*
X8878277Y-14236365D02*
X8887801Y-14217317D01*
X8887801Y-14217317D02*
X8906848Y-14207793D01*
X8906848Y-14207793D02*
X8954467Y-14207793D01*
X8954467Y-14207793D02*
X8973515Y-14198269D01*
X9068753Y-14150650D02*
X9068753Y-14350650D01*
X9068753Y-14160174D02*
X9087801Y-14150650D01*
X9087801Y-14150650D02*
X9125896Y-14150650D01*
X9125896Y-14150650D02*
X9144944Y-14160174D01*
X9144944Y-14160174D02*
X9154467Y-14169698D01*
X9154467Y-14169698D02*
X9163991Y-14188746D01*
X9163991Y-14188746D02*
X9163991Y-14245888D01*
X9163991Y-14245888D02*
X9154467Y-14264936D01*
X9154467Y-14264936D02*
X9144944Y-14274460D01*
X9144944Y-14274460D02*
X9125896Y-14283984D01*
X9125896Y-14283984D02*
X9087801Y-14283984D01*
X9087801Y-14283984D02*
X9068753Y-14274460D01*
X9249705Y-14264936D02*
X9259229Y-14274460D01*
X9259229Y-14274460D02*
X9249705Y-14283984D01*
X9249705Y-14283984D02*
X9240182Y-14274460D01*
X9240182Y-14274460D02*
X9249705Y-14264936D01*
X9249705Y-14264936D02*
X9249705Y-14283984D01*
X9249705Y-14160174D02*
X9259229Y-14169698D01*
X9259229Y-14169698D02*
X9249705Y-14179222D01*
X9249705Y-14179222D02*
X9240182Y-14169698D01*
X9240182Y-14169698D02*
X9249705Y-14160174D01*
X9249705Y-14160174D02*
X9249705Y-14179222D01*
M02*
