%TF.GenerationSoftware,KiCad,Pcbnew,8.0.6-hq-2-g3d73d9976a*%
%TF.CreationDate,2024-12-23T23:06:42+08:00*%
%TF.ProjectId,DemoBoard_SensorForTemp&Rh_IntegratedWithMCU,44656d6f-426f-4617-9264-5f53656e736f,rev?*%
%TF.SameCoordinates,Original*%
%TF.FileFunction,Profile,NP*%
%FSLAX46Y46*%
G04 Gerber Fmt 4.6, Leading zero omitted, Abs format (unit mm)*
G04 Created by KiCad (PCBNEW 8.0.6-hq-2-g3d73d9976a) date 2024-12-23 23:06:42*
%MOMM*%
%LPD*%
G01*
G04 APERTURE LIST*
%TA.AperFunction,Profile*%
%ADD10C,0.050000*%
%TD*%
G04 APERTURE END LIST*
D10*
X162814000Y-110779400D02*
G75*
G02*
X162814000Y-112049400I0J-635000D01*
G01*
X135255000Y-115570000D02*
G75*
G02*
X135255000Y-114300000I0J635000D01*
G01*
X102235000Y-115570000D02*
X94615000Y-115570000D01*
X157480000Y-95250000D02*
X165100000Y-95250000D01*
X76200000Y-139700000D02*
X76200000Y-50800000D01*
X102235000Y-114300000D02*
G75*
G02*
X102235000Y-115570000I0J-635000D01*
G01*
X122555000Y-114300000D02*
X114935000Y-114300000D01*
X159639000Y-110779400D02*
G75*
G02*
X159004000Y-110144400I0J635000D01*
G01*
X114935000Y-115570000D02*
G75*
G02*
X114935000Y-114300000I0J635000D01*
G01*
X122555000Y-115570000D02*
X114935000Y-115570000D01*
X84455000Y-115570000D02*
G75*
G02*
X84455000Y-114300000I0J635000D01*
G01*
X163195000Y-115570000D02*
X155575000Y-115570000D01*
X142875000Y-115570000D02*
X135255000Y-115570000D01*
X145415000Y-115570000D02*
G75*
G02*
X145415000Y-114300000I0J635000D01*
G01*
X142875000Y-114300000D02*
X135255000Y-114300000D01*
X142875000Y-114300000D02*
G75*
G02*
X142875000Y-115570000I0J-635000D01*
G01*
X162814000Y-103870600D02*
G75*
G02*
X162814000Y-105140600I0J-635000D01*
G01*
X126365000Y-114935000D02*
G75*
G02*
X125095000Y-114935000I-635000J0D01*
G01*
X125095000Y-114935000D02*
G75*
G02*
X126365000Y-114935000I635000J0D01*
G01*
X162814000Y-105140600D02*
X159639000Y-105140600D01*
X112395000Y-114300000D02*
G75*
G02*
X112395000Y-115570000I0J-635000D01*
G01*
X159639000Y-103870600D02*
X162814000Y-103870600D01*
X94615000Y-115570000D02*
G75*
G02*
X94615000Y-114300000I0J635000D01*
G01*
X159004000Y-105775600D02*
G75*
G02*
X159639000Y-105140600I635000J0D01*
G01*
X92075000Y-114300000D02*
G75*
G02*
X92075000Y-115570000I0J-635000D01*
G01*
X78105000Y-115570000D02*
X81915000Y-115570000D01*
X157734000Y-109357000D02*
G75*
G02*
X159004000Y-109357000I635000J0D01*
G01*
X157480000Y-69850000D02*
X157480000Y-95250000D01*
X112395000Y-115570000D02*
X104775000Y-115570000D01*
X92075000Y-114300000D02*
X84455000Y-114300000D01*
X78105000Y-115570000D02*
G75*
G02*
X78105000Y-114300000I0J635000D01*
G01*
X102235000Y-114300000D02*
X94615000Y-114300000D01*
X159639000Y-112049400D02*
X162814000Y-112049400D01*
X112395000Y-114300000D02*
X104775000Y-114300000D01*
X159004000Y-106563000D02*
G75*
G02*
X157734000Y-106563000I-635000J0D01*
G01*
X81915000Y-114300000D02*
X78105000Y-114300000D01*
X153035000Y-114300000D02*
G75*
G02*
X153035000Y-115570000I0J-635000D01*
G01*
X153035000Y-115570000D02*
X145415000Y-115570000D01*
X92075000Y-115570000D02*
X84455000Y-115570000D01*
X76200000Y-50800000D02*
X165100000Y-50800000D01*
X122555000Y-114300000D02*
G75*
G02*
X122555000Y-115570000I0J-635000D01*
G01*
X157734000Y-109357000D02*
X157734000Y-110144400D01*
X153035000Y-114300000D02*
X145415000Y-114300000D01*
X165100000Y-139700000D02*
X76200000Y-139700000D01*
X157734000Y-106563000D02*
X157734000Y-105775600D01*
X131191000Y-114935000D02*
G75*
G02*
X129921000Y-114935000I-635000J0D01*
G01*
X129921000Y-114935000D02*
G75*
G02*
X131191000Y-114935000I635000J0D01*
G01*
X159004000Y-109357000D02*
X159004000Y-110144400D01*
X81915000Y-114300000D02*
G75*
G02*
X81915000Y-115570000I0J-635000D01*
G01*
X163195000Y-114300000D02*
X155575000Y-114300000D01*
X155575000Y-115570000D02*
G75*
G02*
X155575000Y-114300000I0J635000D01*
G01*
X133985000Y-114935000D02*
G75*
G02*
X132715000Y-114935000I-635000J0D01*
G01*
X132715000Y-114935000D02*
G75*
G02*
X133985000Y-114935000I635000J0D01*
G01*
X165100000Y-69850000D02*
X157480000Y-69850000D01*
X159639000Y-112049400D02*
G75*
G02*
X157734000Y-110144400I0J1905000D01*
G01*
X104775000Y-115570000D02*
G75*
G02*
X104775000Y-114300000I0J635000D01*
G01*
X163195000Y-114300000D02*
G75*
G02*
X163195000Y-115570000I0J-635000D01*
G01*
X157734000Y-105775600D02*
G75*
G02*
X159639000Y-103870600I1905000J0D01*
G01*
X159004000Y-106563000D02*
X159004000Y-105775600D01*
X162814000Y-110779400D02*
X159639000Y-110779400D01*
X165100000Y-50800000D02*
X165100000Y-69850000D01*
X165100000Y-95250000D02*
X165100000Y-139700000D01*
M02*
