%TF.GenerationSoftware,KiCad,Pcbnew,8.0.6-hq-2-g3d73d9976a*%
%TF.CreationDate,2024-12-23T23:06:41+08:00*%
%TF.ProjectId,DemoBoard_SensorForTemp&Rh_IntegratedWithMCU,44656d6f-426f-4617-9264-5f53656e736f,rev?*%
%TF.SameCoordinates,Original*%
%TF.FileFunction,Copper,L1,Top*%
%TF.FilePolarity,Positive*%
%FSLAX46Y46*%
G04 Gerber Fmt 4.6, Leading zero omitted, Abs format (unit mm)*
G04 Created by KiCad (PCBNEW 8.0.6-hq-2-g3d73d9976a) date 2024-12-23 23:06:41*
%MOMM*%
%LPD*%
G01*
G04 APERTURE LIST*
G04 Aperture macros list*
%AMRoundRect*
0 Rectangle with rounded corners*
0 $1 Rounding radius*
0 $2 $3 $4 $5 $6 $7 $8 $9 X,Y pos of 4 corners*
0 Add a 4 corners polygon primitive as box body*
4,1,4,$2,$3,$4,$5,$6,$7,$8,$9,$2,$3,0*
0 Add four circle primitives for the rounded corners*
1,1,$1+$1,$2,$3*
1,1,$1+$1,$4,$5*
1,1,$1+$1,$6,$7*
1,1,$1+$1,$8,$9*
0 Add four rect primitives between the rounded corners*
20,1,$1+$1,$2,$3,$4,$5,0*
20,1,$1+$1,$4,$5,$6,$7,0*
20,1,$1+$1,$6,$7,$8,$9,0*
20,1,$1+$1,$8,$9,$2,$3,0*%
%AMRotRect*
0 Rectangle, with rotation*
0 The origin of the aperture is its center*
0 $1 length*
0 $2 width*
0 $3 Rotation angle, in degrees counterclockwise*
0 Add horizontal line*
21,1,$1,$2,0,0,$3*%
%AMFreePoly0*
4,1,6,1.000000,0.000000,0.499999,-0.750000,-0.499999,-0.750000,-0.499999,0.750000,0.499999,0.750000,1.000000,0.000000,1.000000,0.000000,$1*%
%AMFreePoly1*
4,1,6,0.499999,-0.750000,-0.649999,-0.750000,-0.150000,0.000000,-0.649999,0.750000,0.499999,0.750000,0.499999,-0.750000,0.499999,-0.750000,$1*%
%AMFreePoly2*
4,1,21,0.335355,1.035355,0.350000,1.000000,0.350000,-1.000000,0.335355,-1.035355,0.300000,-1.050000,-0.400000,-1.050000,-0.435355,-1.035355,-0.450000,-1.000000,-0.450000,-0.550000,-0.900000,-0.550000,-0.935355,-0.535355,-0.950000,-0.500000,-0.950000,0.500000,-0.935355,0.535355,-0.900000,0.550000,-0.450000,0.550000,-0.450000,1.000000,-0.435355,1.035355,-0.400000,1.050000,0.300000,1.050000,
0.335355,1.035355,0.335355,1.035355,$1*%
G04 Aperture macros list end*
%TA.AperFunction,Conductor*%
%ADD10C,0.000000*%
%TD*%
%TA.AperFunction,Conductor*%
%ADD11C,0.300000*%
%TD*%
%TA.AperFunction,SMDPad,CuDef*%
%ADD12RoundRect,0.155000X0.212500X0.155000X-0.212500X0.155000X-0.212500X-0.155000X0.212500X-0.155000X0*%
%TD*%
%TA.AperFunction,SMDPad,CuDef*%
%ADD13RoundRect,0.155000X0.040659X0.259862X-0.259862X-0.040659X-0.040659X-0.259862X0.259862X0.040659X0*%
%TD*%
%TA.AperFunction,ComponentPad*%
%ADD14C,2.200000*%
%TD*%
%TA.AperFunction,SMDPad,CuDef*%
%ADD15RoundRect,0.237500X0.371231X-0.035355X-0.035355X0.371231X-0.371231X0.035355X0.035355X-0.371231X0*%
%TD*%
%TA.AperFunction,SMDPad,CuDef*%
%ADD16RoundRect,0.155000X0.259862X-0.040659X-0.040659X0.259862X-0.259862X0.040659X0.040659X-0.259862X0*%
%TD*%
%TA.AperFunction,SMDPad,CuDef*%
%ADD17RoundRect,0.108108X-1.116892X0.691892X-1.116892X-0.691892X1.116892X-0.691892X1.116892X0.691892X0*%
%TD*%
%TA.AperFunction,SMDPad,CuDef*%
%ADD18RoundRect,0.155000X-0.259862X0.040659X0.040659X-0.259862X0.259862X-0.040659X-0.040659X0.259862X0*%
%TD*%
%TA.AperFunction,SMDPad,CuDef*%
%ADD19RoundRect,0.112500X0.237500X-0.112500X0.237500X0.112500X-0.237500X0.112500X-0.237500X-0.112500X0*%
%TD*%
%TA.AperFunction,SMDPad,CuDef*%
%ADD20RoundRect,0.250000X-0.424264X0.000000X0.000000X-0.424264X0.424264X0.000000X0.000000X0.424264X0*%
%TD*%
%TA.AperFunction,SMDPad,CuDef*%
%ADD21RoundRect,0.160000X-0.197500X-0.160000X0.197500X-0.160000X0.197500X0.160000X-0.197500X0.160000X0*%
%TD*%
%TA.AperFunction,SMDPad,CuDef*%
%ADD22RoundRect,0.160000X-0.026517X-0.252791X0.252791X0.026517X0.026517X0.252791X-0.252791X-0.026517X0*%
%TD*%
%TA.AperFunction,SMDPad,CuDef*%
%ADD23RoundRect,0.236486X-1.024923X2.022706X-1.898962X-1.239253X1.024923X-2.022706X1.898962X1.239253X0*%
%TD*%
%TA.AperFunction,SMDPad,CuDef*%
%ADD24RoundRect,0.197727X-1.752273X0.672273X-1.752273X-0.672273X1.752273X-0.672273X1.752273X0.672273X0*%
%TD*%
%TA.AperFunction,SMDPad,CuDef*%
%ADD25FreePoly0,45.000000*%
%TD*%
%TA.AperFunction,SMDPad,CuDef*%
%ADD26FreePoly1,45.000000*%
%TD*%
%TA.AperFunction,SMDPad,CuDef*%
%ADD27RoundRect,0.500000X-0.353553X-1.060660X1.060660X0.353553X0.353553X1.060660X-1.060660X-0.353553X0*%
%TD*%
%TA.AperFunction,SMDPad,CuDef*%
%ADD28RoundRect,0.237500X0.339173X0.154997X-0.216234X0.303818X-0.339173X-0.154997X0.216234X-0.303818X0*%
%TD*%
%TA.AperFunction,SMDPad,CuDef*%
%ADD29RoundRect,0.160000X-0.252791X0.026517X0.026517X-0.252791X0.252791X-0.026517X-0.026517X0.252791X0*%
%TD*%
%TA.AperFunction,SMDPad,CuDef*%
%ADD30RoundRect,0.500000X-1.000000X-0.500000X1.000000X-0.500000X1.000000X0.500000X-1.000000X0.500000X0*%
%TD*%
%TA.AperFunction,SMDPad,CuDef*%
%ADD31RoundRect,0.050000X-0.300520X0.229810X0.229810X-0.300520X0.300520X-0.229810X-0.229810X0.300520X0*%
%TD*%
%TA.AperFunction,SMDPad,CuDef*%
%ADD32RoundRect,0.050000X-0.300520X-0.229810X-0.229810X-0.300520X0.300520X0.229810X0.229810X0.300520X0*%
%TD*%
%TA.AperFunction,HeatsinkPad*%
%ADD33C,0.600000*%
%TD*%
%TA.AperFunction,SMDPad,CuDef*%
%ADD34RoundRect,0.250000X-0.813173X0.000000X0.000000X-0.813173X0.813173X0.000000X0.000000X0.813173X0*%
%TD*%
%TA.AperFunction,ComponentPad*%
%ADD35R,3.000000X3.000000*%
%TD*%
%TA.AperFunction,ComponentPad*%
%ADD36C,3.000000*%
%TD*%
%TA.AperFunction,SMDPad,CuDef*%
%ADD37RoundRect,0.062500X0.062500X0.287500X-0.062500X0.287500X-0.062500X-0.287500X0.062500X-0.287500X0*%
%TD*%
%TA.AperFunction,SMDPad,CuDef*%
%ADD38R,0.400000X0.800000*%
%TD*%
%TA.AperFunction,SMDPad,CuDef*%
%ADD39R,3.000000X0.850000*%
%TD*%
%TA.AperFunction,SMDPad,CuDef*%
%ADD40RotRect,1.500000X1.000000X135.000000*%
%TD*%
%TA.AperFunction,SMDPad,CuDef*%
%ADD41RotRect,1.500000X1.000000X45.000000*%
%TD*%
%TA.AperFunction,SMDPad,CuDef*%
%ADD42RoundRect,0.250000X0.550000X-0.250000X0.550000X0.250000X-0.550000X0.250000X-0.550000X-0.250000X0*%
%TD*%
%TA.AperFunction,SMDPad,CuDef*%
%ADD43R,0.500000X1.100000*%
%TD*%
%TA.AperFunction,SMDPad,CuDef*%
%ADD44RoundRect,0.212500X0.212500X-0.787500X0.212500X0.787500X-0.212500X0.787500X-0.212500X-0.787500X0*%
%TD*%
%TA.AperFunction,SMDPad,CuDef*%
%ADD45RoundRect,0.212500X0.787500X0.212500X-0.787500X0.212500X-0.787500X-0.212500X0.787500X-0.212500X0*%
%TD*%
%TA.AperFunction,SMDPad,CuDef*%
%ADD46RoundRect,0.212500X-0.212500X0.787500X-0.212500X-0.787500X0.212500X-0.787500X0.212500X0.787500X0*%
%TD*%
%TA.AperFunction,SMDPad,CuDef*%
%ADD47FreePoly2,0.000000*%
%TD*%
%TA.AperFunction,SMDPad,CuDef*%
%ADD48FreePoly2,180.000000*%
%TD*%
%TA.AperFunction,ViaPad*%
%ADD49C,0.600000*%
%TD*%
%TA.AperFunction,Conductor*%
%ADD50C,0.200000*%
%TD*%
%TA.AperFunction,Conductor*%
%ADD51C,0.250000*%
%TD*%
%TA.AperFunction,Conductor*%
%ADD52C,0.635000*%
%TD*%
%TA.AperFunction,Conductor*%
%ADD53C,1.000000*%
%TD*%
%TA.AperFunction,Conductor*%
%ADD54C,0.400000*%
%TD*%
G04 APERTURE END LIST*
D10*
%TA.AperFunction,Conductor*%
%TO.N,Net-(U3-VDD)*%
G36*
X161876729Y-107573212D02*
G01*
X161901729Y-107588212D01*
X161931729Y-107608212D01*
X161966729Y-107628212D01*
X162006729Y-107643212D01*
X162016729Y-107648212D01*
X162031729Y-107653212D01*
X162056729Y-107658212D01*
X162079024Y-107661489D01*
X162109024Y-107666489D01*
X161769000Y-108050000D01*
X161759000Y-108025000D01*
X161749024Y-107971489D01*
X161744024Y-107936489D01*
X161739024Y-107911489D01*
X161729024Y-107876489D01*
X161709024Y-107841489D01*
X161694024Y-107821489D01*
X161679024Y-107801489D01*
X161651729Y-107773212D01*
X161621729Y-107740000D01*
X161836729Y-107538212D01*
X161876729Y-107573212D01*
G37*
%TD.AperFunction*%
%TA.AperFunction,Conductor*%
%TO.N,VCC*%
G36*
X114300000Y-71755000D02*
G01*
X153035000Y-71755000D01*
X153035000Y-73660000D01*
X114300000Y-73660000D01*
X114300000Y-71755000D01*
G37*
%TD.AperFunction*%
D11*
X95686000Y-63539800D02*
X97533215Y-64049933D01*
X94873200Y-66537000D02*
X96720415Y-67047133D01*
X99297652Y-65334082D02*
X99807785Y-63486867D01*
D10*
%TA.AperFunction,Conductor*%
G36*
X115525976Y-72282581D02*
G01*
X114741575Y-74291533D01*
X98623866Y-67743631D01*
X99408266Y-65734679D01*
X115525976Y-72282581D01*
G37*
%TD.AperFunction*%
D11*
X95279600Y-65038400D02*
X97126815Y-65548533D01*
D10*
%TA.AperFunction,Conductor*%
%TO.N,GND*%
G36*
X161334000Y-107910000D02*
G01*
X161339000Y-107950000D01*
X161344000Y-107985000D01*
X161349000Y-108010000D01*
X161359000Y-108045000D01*
X161379000Y-108080000D01*
X161394000Y-108100000D01*
X161409000Y-108120000D01*
X161436295Y-108148277D01*
X161466295Y-108178277D01*
X161251295Y-108383277D01*
X161211295Y-108348277D01*
X161186295Y-108333277D01*
X161156295Y-108313277D01*
X161121295Y-108293277D01*
X161081295Y-108278277D01*
X161071295Y-108273277D01*
X161056295Y-108268277D01*
X161031295Y-108263277D01*
X161009000Y-108260000D01*
X160979000Y-108255000D01*
X161324000Y-107875000D01*
X161334000Y-107910000D01*
G37*
%TD.AperFunction*%
%TA.AperFunction,Conductor*%
%TO.N,VCC*%
G36*
X152273000Y-73025000D02*
G01*
X153035000Y-73025000D01*
X153035000Y-75057000D01*
X152273000Y-75057000D01*
X152273000Y-73025000D01*
G37*
%TD.AperFunction*%
%TA.AperFunction,Conductor*%
G36*
X113200000Y-71755000D02*
G01*
X115400000Y-71755000D01*
X115400000Y-78740000D01*
X113200000Y-78740000D01*
X113200000Y-71755000D01*
G37*
%TD.AperFunction*%
D11*
X94873200Y-66537000D02*
X95686000Y-63539800D01*
%TD*%
D12*
%TO.P,C21,1*%
%TO.N,GND*%
X121785000Y-121920000D03*
%TO.P,C21,2*%
%TO.N,VCC*%
X120650000Y-121920000D03*
%TD*%
D13*
%TO.P,C11,1*%
%TO.N,/E104-BT01/RST*%
X135255000Y-96774000D03*
%TO.P,C11,2*%
%TO.N,GND*%
X134452434Y-97576566D03*
%TD*%
D14*
%TO.P,TP7,1,1*%
%TO.N,GND*%
X114300000Y-81280000D03*
%TD*%
D15*
%TO.P,C12,1*%
%TO.N,/HC32L110_QFN20/VCAP*%
X132419318Y-100567718D03*
%TO.P,C12,2*%
%TO.N,GND*%
X131181882Y-99330282D03*
%TD*%
D16*
%TO.P,C13,1*%
%TO.N,/HC32L110_QFN20/VCAP*%
X133548083Y-99689883D03*
%TO.P,C13,2*%
%TO.N,GND*%
X132745517Y-98887317D03*
%TD*%
D17*
%TO.P,J2,1,Pin_1*%
%TO.N,GND*%
X95588600Y-79759400D03*
X92938600Y-79759400D03*
X95588600Y-81559400D03*
X92938600Y-81559400D03*
%TD*%
D14*
%TO.P,TP10,1,1*%
%TO.N,/HC32L110_QFN20/UART_TX*%
X114300000Y-86360000D03*
%TD*%
D18*
%TO.P,C19,1*%
%TO.N,Net-(D3-A)*%
X110629902Y-128915168D03*
%TO.P,C19,2*%
%TO.N,Net-(D1-K)*%
X111432468Y-129717734D03*
%TD*%
D19*
%TO.P,Q1,1,G*%
%TO.N,/E-Ink Driver/GDR*%
X122666000Y-125110000D03*
%TO.P,Q1,2,S*%
%TO.N,/E-Ink Driver/RESE*%
X122666000Y-123810000D03*
%TO.P,Q1,3,D*%
%TO.N,Net-(D3-A)*%
X120666000Y-124460000D03*
%TD*%
D20*
%TO.P,D1,1,K*%
%TO.N,Net-(D1-K)*%
X109780101Y-131370102D03*
%TO.P,D1,2,A*%
%TO.N,/E-Ink Driver/PREVGL*%
X111759999Y-133350000D03*
%TD*%
D18*
%TO.P,C18,1*%
%TO.N,/E-Ink Driver/PREVGL*%
X112528059Y-130849246D03*
%TO.P,C18,2*%
%TO.N,GND*%
X113330625Y-131651812D03*
%TD*%
D21*
%TO.P,R2,1*%
%TO.N,VCC*%
X154723500Y-106436000D03*
%TO.P,R2,2*%
%TO.N,/SCL*%
X155918500Y-106436000D03*
%TD*%
D22*
%TO.P,R4,1*%
%TO.N,VCC*%
X133533195Y-96699753D03*
%TO.P,R4,2*%
%TO.N,/E104-BT01/RST*%
X134378187Y-95854761D03*
%TD*%
D23*
%TO.P,J1,1,Pin_1*%
%TO.N,VCC*%
X98209479Y-66016234D03*
%TD*%
D24*
%TO.P,L1,1*%
%TO.N,VCC*%
X117475000Y-122795000D03*
%TO.P,L1,2*%
%TO.N,Net-(D3-A)*%
X117475000Y-126135000D03*
%TD*%
D21*
%TO.P,R1,1*%
%TO.N,VCC*%
X154723500Y-109484000D03*
%TO.P,R1,2*%
%TO.N,/SDA*%
X155918500Y-109484000D03*
%TD*%
D25*
%TO.P,JP2,1,A*%
%TO.N,/E104-BT01/RST*%
X135957511Y-95173463D03*
D26*
%TO.P,JP2,2,B*%
%TO.N,GND*%
X136982815Y-94148159D03*
%TD*%
D14*
%TO.P,TP9,1,1*%
%TO.N,/HC32L110_QFN20/UART_RX*%
X114300000Y-88900000D03*
%TD*%
D27*
%TO.P,URT,1*%
%TO.N,/E104-BT01/TX*%
X143065500Y-93662500D03*
%TD*%
D28*
%TO.P,C5,1*%
%TO.N,VCC*%
X99807785Y-63486867D03*
%TO.P,C5,2*%
%TO.N,GND*%
X98117415Y-63033933D03*
%TD*%
D16*
%TO.P,C20,1*%
%TO.N,/E-Ink Driver/PREVGH*%
X109510693Y-127795959D03*
%TO.P,C20,2*%
%TO.N,GND*%
X108708127Y-126993393D03*
%TD*%
D20*
%TO.P,D2,1,K*%
%TO.N,GND*%
X106363361Y-127953362D03*
%TO.P,D2,2,A*%
%TO.N,Net-(D1-K)*%
X108343259Y-129933260D03*
%TD*%
D29*
%TO.P,R6,1*%
%TO.N,GND*%
X128187008Y-126282008D03*
%TO.P,R6,2*%
%TO.N,/E-Ink Driver/GDR*%
X129032000Y-127127000D03*
%TD*%
D13*
%TO.P,C15,1*%
%TO.N,VCC*%
X134264400Y-102082600D03*
%TO.P,C15,2*%
%TO.N,GND*%
X133461834Y-102885166D03*
%TD*%
D28*
%TO.P,C1,1*%
%TO.N,VCC*%
X95686000Y-63539800D03*
%TO.P,C1,2*%
%TO.N,GND*%
X93995630Y-63086866D03*
%TD*%
D20*
%TO.P,D3,1,K*%
%TO.N,/E-Ink Driver/PREVGH*%
X111358505Y-126374958D03*
%TO.P,D3,2,A*%
%TO.N,Net-(D3-A)*%
X113338403Y-128354856D03*
%TD*%
D14*
%TO.P,TP8,1,1*%
%TO.N,/E104-BT01/RST*%
X114300000Y-83820000D03*
%TD*%
D29*
%TO.P,R3,1*%
%TO.N,GND*%
X126536008Y-126282008D03*
%TO.P,R3,2*%
%TO.N,/E-Ink Driver/RESE*%
X127381000Y-127127000D03*
%TD*%
D28*
%TO.P,C4,1*%
%TO.N,VCC*%
X94873200Y-66537000D03*
%TO.P,C4,2*%
%TO.N,GND*%
X93182830Y-66084066D03*
%TD*%
D30*
%TO.P,URT,1*%
%TO.N,/E104-BT01/RX*%
X144145000Y-97917000D03*
%TD*%
D28*
%TO.P,C2,1*%
%TO.N,VCC*%
X95279600Y-65038400D03*
%TO.P,C2,2*%
%TO.N,GND*%
X93589230Y-64585466D03*
%TD*%
D31*
%TO.P,U4,1,RESETB/P00*%
%TO.N,/E104-BT01/RST*%
X136980432Y-98739010D03*
%TO.P,U4,2,XTHI/AIN7/VCIN7/P01*%
%TO.N,/E104-BT01/WKP*%
X136697589Y-99021852D03*
%TO.P,U4,3,XTHO/AIN8/P02*%
%TO.N,/E104-BT01/DATA*%
X136414746Y-99304695D03*
%TO.P,U4,4,VSS*%
%TO.N,GND*%
X136131903Y-99587538D03*
%TO.P,U4,5,VCAP*%
%TO.N,/HC32L110_QFN20/VCAP*%
X135849061Y-99870381D03*
D32*
%TO.P,U4,6,VDD*%
%TO.N,VCC*%
X135849061Y-100789619D03*
%TO.P,U4,7,LVDIN1/P03*%
%TO.N,/HC32L110_QFN20/P0.3*%
X136131903Y-101072462D03*
%TO.P,U4,8,XTLO/P15*%
%TO.N,/E-Ink Driver/nSCK*%
X136414746Y-101355305D03*
%TO.P,U4,9,XTLI/P14*%
%TO.N,/E-Ink Driver/nCS*%
X136697589Y-101638148D03*
%TO.P,U4,10,LVDIN2/VCIN0/P23*%
%TO.N,/E-Ink Driver/BUSY*%
X136980432Y-101920990D03*
D31*
%TO.P,U4,11,P24/AIN0*%
%TO.N,/E-Ink Driver/nSDA*%
X137899670Y-101920990D03*
%TO.P,U4,12,P25/LVDIN3/VC1*%
%TO.N,/SDA*%
X138182513Y-101638148D03*
%TO.P,U4,13,P26/AIN1*%
%TO.N,/SCL*%
X138465356Y-101355305D03*
%TO.P,U4,14,P27/SWDIO*%
%TO.N,/E104-BT01/MOD*%
X138748199Y-101072462D03*
%TO.P,U4,15,P31/SWCLK*%
%TO.N,/E104-BT01/LINK*%
X139031041Y-100789619D03*
D32*
%TO.P,U4,16,P32/AIN2/VCIN2*%
%TO.N,/E104-BT01/DISC*%
X139031041Y-99870381D03*
%TO.P,U4,17,P33/AIN3/VCIN3*%
%TO.N,/E104-BT01/TX*%
X138748199Y-99587538D03*
%TO.P,U4,18,P34/AIN4/VCIN4*%
%TO.N,/E104-BT01/RX*%
X138465356Y-99304695D03*
%TO.P,U4,19,P35/AIN5/VCIN5*%
%TO.N,/HC32L110_QFN20/UART_TX*%
X138182513Y-99021852D03*
%TO.P,U4,20,P36/AIN6/VCIN6/AVREF*%
%TO.N,/HC32L110_QFN20/UART_RX*%
X137899670Y-98739010D03*
D33*
%TO.P,U4,21,PAD*%
%TO.N,GND*%
X137440051Y-99587538D03*
X136697589Y-100330000D03*
D34*
X137440051Y-100330000D03*
D33*
X138182513Y-100330000D03*
X137440051Y-101072462D03*
%TD*%
D35*
%TO.P,REF\u002A\u002A,1*%
%TO.N,VCC*%
X92138500Y-72504300D03*
D36*
%TO.P,REF\u002A\u002A,2*%
%TO.N,GND*%
X92138500Y-92384300D03*
%TD*%
D37*
%TO.P,J3,1,Pin_1*%
%TO.N,unconnected-(J3-Pin_1-Pad1)*%
X128940000Y-129526000D03*
%TO.P,J3,2,Pin_2*%
%TO.N,/E-Ink Driver/GDR*%
X128440000Y-129526000D03*
%TO.P,J3,3,Pin_3*%
%TO.N,/E-Ink Driver/RESE*%
X127940000Y-129526000D03*
%TO.P,J3,4,Pin_4*%
%TO.N,unconnected-(J3-Pin_4-Pad4)*%
X127440000Y-129526000D03*
%TO.P,J3,5,Pin_5*%
%TO.N,Net-(J3-Pin_5)*%
X126940000Y-129526000D03*
%TO.P,J3,6,Pin_6*%
%TO.N,/E-Ink Driver/TSCL*%
X126440000Y-129526000D03*
%TO.P,J3,7,Pin_7*%
%TO.N,/E-Ink Driver/TSDA*%
X125940000Y-129526000D03*
%TO.P,J3,8,Pin_8*%
%TO.N,VCC*%
X125440000Y-129526000D03*
%TO.P,J3,9,Pin_9*%
%TO.N,/E-Ink Driver/BUSY*%
X124940000Y-129526000D03*
%TO.P,J3,10,Pin_10*%
%TO.N,/E-Ink Driver/RST*%
X124440000Y-129526000D03*
%TO.P,J3,11,Pin_11*%
%TO.N,GND*%
X123940000Y-129526000D03*
%TO.P,J3,12,Pin_12*%
%TO.N,/E-Ink Driver/nCS*%
X123440000Y-129526000D03*
%TO.P,J3,13,Pin_13*%
%TO.N,/E-Ink Driver/nSCK*%
X122940000Y-129526000D03*
%TO.P,J3,14,Pin_14*%
%TO.N,/E-Ink Driver/nSDA*%
X122440000Y-129526000D03*
%TO.P,J3,15,Pin_15*%
%TO.N,VCC*%
X121940000Y-129526000D03*
%TO.P,J3,16,Pin_16*%
X121440000Y-129526000D03*
%TO.P,J3,17,Pin_17*%
%TO.N,GND*%
X120940000Y-129526000D03*
%TO.P,J3,18,Pin_18*%
%TO.N,Net-(J3-Pin_18)*%
X120440000Y-129526000D03*
%TO.P,J3,19,Pin_19*%
%TO.N,/E-Ink Driver/VPP*%
X119940000Y-129526000D03*
%TO.P,J3,20,Pin_20*%
%TO.N,/E-Ink Driver/VSH*%
X119440000Y-129526000D03*
%TO.P,J3,21,Pin_21*%
%TO.N,/E-Ink Driver/PREVGH*%
X118940000Y-129526000D03*
%TO.P,J3,22,Pin_22*%
%TO.N,/E-Ink Driver/VSL*%
X118440000Y-129526000D03*
%TO.P,J3,23,Pin_23*%
%TO.N,/E-Ink Driver/PREVGL*%
X117940000Y-129526000D03*
%TO.P,J3,24,Pin_24*%
%TO.N,/E-Ink Driver/VCOM*%
X117440000Y-129526000D03*
D38*
%TO.P,J3,MP*%
%TO.N,GND*%
X129940000Y-132126000D03*
X116440000Y-132126000D03*
%TD*%
D22*
%TO.P,R5,1*%
%TO.N,/E-Ink Driver/nSCK*%
X133838508Y-106318492D03*
%TO.P,R5,2*%
X134683500Y-105473500D03*
%TD*%
D39*
%TO.P,REF\u002A\u002A,*%
%TO.N,*%
X81580100Y-127509400D03*
D40*
X78780100Y-126434400D03*
D41*
X78780100Y-119234400D03*
D39*
X81580100Y-118159400D03*
D42*
%TO.P,REF\u002A\u002A,1*%
%TO.N,N/C*%
X83180100Y-125834400D03*
%TO.P,REF\u002A\u002A,2*%
X83180100Y-123834400D03*
%TO.P,REF\u002A\u002A,3*%
X83180100Y-121834400D03*
%TO.P,REF\u002A\u002A,4*%
X83180100Y-119834400D03*
%TD*%
D15*
%TO.P,C14,1*%
%TO.N,VCC*%
X131301718Y-101710718D03*
%TO.P,C14,2*%
%TO.N,GND*%
X130064282Y-100473282D03*
%TD*%
D43*
%TO.P,U3,1,NC*%
%TO.N,unconnected-(U3-NC-Pad1)*%
X162544000Y-106710000D03*
%TO.P,U3,2,VDD*%
%TO.N,Net-(U3-VDD)*%
X161544000Y-106710000D03*
%TO.P,U3,3,SCL*%
%TO.N,/SCL*%
X160544000Y-106710000D03*
%TO.P,U3,4,SDA*%
%TO.N,/SDA*%
X160544000Y-109210000D03*
%TO.P,U3,5,GND*%
%TO.N,GND*%
X161544000Y-109210000D03*
%TO.P,U3,6,NC*%
%TO.N,unconnected-(U3-NC-Pad6)*%
X162544000Y-109210000D03*
%TD*%
D44*
%TO.P,U2,1,GND*%
%TO.N,GND*%
X153915190Y-75480200D03*
%TO.P,U2,2,VCC*%
%TO.N,VCC*%
X152645190Y-75480200D03*
%TO.P,U2,3,P2.2*%
%TO.N,unconnected-(U2-P2.2-Pad3)*%
X151375190Y-75480200D03*
%TO.P,U2,4,P2.1*%
%TO.N,unconnected-(U2-P2.1-Pad4)*%
X150105190Y-75480200D03*
%TO.P,U2,5,P2.0*%
%TO.N,/E104-BT01/MOD*%
X148835190Y-75480200D03*
%TO.P,U2,6,P1.7*%
%TO.N,unconnected-(U2-P1.7-Pad6)*%
X147565190Y-75480200D03*
%TO.P,U2,7,P1.6*%
%TO.N,unconnected-(U2-P1.6-Pad7)*%
X146295190Y-75480200D03*
%TO.P,U2,8,SCL*%
%TO.N,unconnected-(U2-SCL-Pad8)*%
X145025190Y-75480200D03*
D45*
%TO.P,U2,9,SDA*%
%TO.N,unconnected-(U2-SDA-Pad9)*%
X142756810Y-78105000D03*
%TO.P,U2,10,P1.5*%
%TO.N,/E104-BT01/LINK*%
X142756810Y-79375000D03*
%TO.P,U2,11,P1.4*%
%TO.N,/E104-BT01/DATA*%
X142756810Y-80645000D03*
%TO.P,U2,12,P1.3*%
%TO.N,unconnected-(U2-P1.3-Pad12)*%
X142756810Y-81915000D03*
%TO.P,U2,13,P1.2*%
%TO.N,/E104-BT01/WKP*%
X142756810Y-83185000D03*
%TO.P,U2,14,P1.1*%
%TO.N,unconnected-(U2-P1.1-Pad14)*%
X142756810Y-84455000D03*
%TO.P,U2,15,P1.0*%
%TO.N,unconnected-(U2-P1.0-Pad15)*%
X142756810Y-85725000D03*
%TO.P,U2,16,P0.7*%
%TO.N,unconnected-(U2-P0.7-Pad16)*%
X142756810Y-86995000D03*
D46*
%TO.P,U2,17,P0.6*%
%TO.N,unconnected-(U2-P0.6-Pad17)*%
X145025190Y-89619800D03*
%TO.P,U2,18,P0.5*%
%TO.N,/E104-BT01/DISC*%
X146295190Y-89619800D03*
%TO.P,U2,19,P0.4*%
%TO.N,unconnected-(U2-P0.4-Pad19)*%
X147565190Y-89619800D03*
%TO.P,U2,20,P0.3*%
%TO.N,/E104-BT01/TX*%
X148835190Y-89619800D03*
%TO.P,U2,21,P0.2*%
%TO.N,/E104-BT01/RX*%
X150105190Y-89619800D03*
%TO.P,U2,22,P0.1*%
%TO.N,unconnected-(U2-P0.1-Pad22)*%
X151375190Y-89619800D03*
%TO.P,U2,23,P0.0*%
%TO.N,unconnected-(U2-P0.0-Pad23)*%
X152645190Y-89619800D03*
%TO.P,U2,24,RESET_N*%
%TO.N,/E104-BT01/RST*%
X153915190Y-89619800D03*
%TD*%
D21*
%TO.P,R7,1*%
%TO.N,VCC*%
X154723500Y-107960000D03*
%TO.P,R7,2*%
%TO.N,Net-(U3-VDD)*%
X155918500Y-107960000D03*
%TD*%
D47*
%TO.P,VCC,1*%
%TO.N,VCC*%
X119550000Y-101219000D03*
D48*
X121750000Y-101219000D03*
%TD*%
D14*
%TO.P,TP6,1,1*%
%TO.N,VCC*%
X114300000Y-78740000D03*
%TD*%
D49*
%TO.N,GND*%
X129324100Y-116586000D03*
X126263400Y-119608600D03*
%TO.N,VCC*%
X153543000Y-106426000D03*
X134747000Y-102616000D03*
X132334000Y-96164400D03*
X120269000Y-123190000D03*
X121940000Y-131191000D03*
X131267200Y-100482400D03*
%TO.N,Net-(U3-VDD)*%
X162052000Y-107960000D03*
X156654500Y-107960000D03*
%TO.N,GND*%
X148971000Y-81534000D03*
X146558000Y-86106000D03*
X114681000Y-96266000D03*
X155956000Y-94234000D03*
X78486000Y-102235000D03*
X124714000Y-109347000D03*
X108458000Y-93726000D03*
X115316000Y-100711000D03*
X153289000Y-137922000D03*
X78740000Y-81026000D03*
X149860000Y-86741000D03*
X132588000Y-77343000D03*
X90170000Y-78740000D03*
X145161000Y-77724000D03*
X89027000Y-54229000D03*
X136398000Y-112141000D03*
X128397000Y-97536000D03*
X92710000Y-85090000D03*
X144907000Y-85598000D03*
X117094000Y-109474000D03*
X151257000Y-56134000D03*
X79121000Y-66421000D03*
X148082000Y-85344000D03*
X113411000Y-91948000D03*
X112268000Y-137795000D03*
X118999000Y-76962000D03*
X79375000Y-90424000D03*
X130937000Y-105918000D03*
X125476000Y-99822000D03*
X142113000Y-108077000D03*
X131953000Y-90678000D03*
X123507500Y-121602500D03*
X114427000Y-97536000D03*
X149479000Y-137414000D03*
X120015000Y-96901000D03*
X151003000Y-80899000D03*
X127127000Y-113157000D03*
X119634000Y-83439000D03*
X117094000Y-98552000D03*
X110871000Y-112649000D03*
X120142000Y-136779000D03*
X121412000Y-111379000D03*
X128524000Y-137922000D03*
X154432000Y-77216000D03*
X124587000Y-97536000D03*
X140462000Y-107442000D03*
X156337000Y-92583000D03*
X114300000Y-137922000D03*
X109474000Y-104140000D03*
X120523000Y-128397000D03*
X115189000Y-56642000D03*
X145542000Y-135382000D03*
X95250000Y-77470000D03*
X146304000Y-83820000D03*
X150495000Y-113030000D03*
X97790000Y-78740000D03*
X92075000Y-137033000D03*
X92710000Y-77470000D03*
X156210000Y-72898000D03*
X162433000Y-130937000D03*
X110617000Y-75565000D03*
X129429282Y-101108282D03*
X143510000Y-104140000D03*
X151638000Y-84709000D03*
X108077000Y-98679000D03*
X120777000Y-90424000D03*
X153289000Y-83312000D03*
X104267000Y-137668000D03*
X128905000Y-82423000D03*
X124333000Y-128574800D03*
X82169000Y-57912000D03*
X127127000Y-91948000D03*
X80899000Y-98425000D03*
X145923000Y-81534000D03*
X123507500Y-122872500D03*
X121285000Y-98679000D03*
X144145000Y-104775000D03*
X126034800Y-127686000D03*
X138430000Y-112649000D03*
X161036000Y-107960000D03*
X137795000Y-76454000D03*
X108204000Y-137668000D03*
X129286000Y-96266000D03*
X163576000Y-125476000D03*
X152400000Y-108585000D03*
X142494000Y-56007000D03*
X80010000Y-136144000D03*
X155956000Y-74168000D03*
X133985000Y-80518000D03*
X88900000Y-81280000D03*
X160528000Y-136652000D03*
X116332000Y-112141000D03*
X110871000Y-108839000D03*
X117348000Y-106172000D03*
X153289000Y-86233000D03*
X110490000Y-106553000D03*
X152019000Y-86614000D03*
X108077000Y-73406000D03*
X122936000Y-78232000D03*
X108839000Y-80010000D03*
X146939000Y-82804000D03*
X126492000Y-54864000D03*
X147320000Y-78105000D03*
X123507500Y-122237500D03*
X79883000Y-73152000D03*
X125730000Y-105410000D03*
X99060000Y-81280000D03*
X122555000Y-105283000D03*
X154686000Y-67818000D03*
X102235000Y-72136000D03*
X110744000Y-77343000D03*
X78740000Y-133604000D03*
X78740000Y-130048000D03*
X147066000Y-112776000D03*
X79502000Y-109855000D03*
X129159000Y-104902000D03*
X162052000Y-119634000D03*
X149860000Y-83312000D03*
X152400000Y-104140000D03*
X149860000Y-81915000D03*
X115697000Y-105537000D03*
X116967000Y-95758000D03*
X100711000Y-54737000D03*
X108839000Y-92456000D03*
X90170000Y-83820000D03*
X84328000Y-137541000D03*
X104013000Y-72517000D03*
X154051000Y-94615000D03*
X95250000Y-85090000D03*
X151765000Y-112776000D03*
X152908000Y-81280000D03*
X134239000Y-92075000D03*
X97790000Y-83820000D03*
X137922000Y-137160000D03*
X132905500Y-103441500D03*
X127127000Y-75565000D03*
X138684000Y-85725000D03*
%TO.N,/E-Ink Driver/VCOM*%
X116840000Y-131191000D03*
%TO.N,/E-Ink Driver/VSL*%
X118440000Y-130810000D03*
%TO.N,/E-Ink Driver/VSH*%
X119253000Y-130378200D03*
%TO.N,/E-Ink Driver/VPP*%
X119940000Y-131191000D03*
%TO.N,Net-(J3-Pin_18)*%
X120929400Y-130810000D03*
%TO.N,/E104-BT01/RST*%
X137668000Y-96883952D03*
X153517600Y-88036400D03*
%TO.N,Net-(J3-Pin_5)*%
X126940000Y-130378200D03*
%TO.N,/E-Ink Driver/PREVGH*%
X113420958Y-126374958D03*
X115062000Y-128016000D03*
%TO.N,/E-Ink Driver/BUSY*%
X136620250Y-103409750D03*
X124587000Y-125920500D03*
%TO.N,/E-Ink Driver/nSDA*%
X121285000Y-126365000D03*
X129540000Y-110109000D03*
X123317000Y-119507000D03*
%TO.N,/E-Ink Driver/RST*%
X124460000Y-130429000D03*
%TO.N,/E-Ink Driver/RESE*%
X127940000Y-127686000D03*
X127000000Y-123825000D03*
%TO.N,/E-Ink Driver/nSCK*%
X124079000Y-117348000D03*
X126790450Y-111398050D03*
X122555000Y-126365000D03*
%TO.N,/E-Ink Driver/GDR*%
X128524000Y-125095000D03*
X129032000Y-128079500D03*
%TO.N,/E-Ink Driver/nCS*%
X135966200Y-106070400D03*
X123825000Y-127381000D03*
%TO.N,/SDA*%
X151257000Y-110312200D03*
%TO.N,/SCL*%
X151511000Y-102285800D03*
%TO.N,/E104-BT01/TX*%
X140004800Y-98704400D03*
X148835190Y-91067810D03*
X144018000Y-94615000D03*
%TO.N,/E104-BT01/WKP*%
X141274800Y-83185000D03*
X136093200Y-97332800D03*
%TO.N,/E104-BT01/DATA*%
X141249400Y-80645000D03*
X135382000Y-97917000D03*
%TO.N,/E104-BT01/DISC*%
X140665200Y-99568000D03*
X146304000Y-93370400D03*
%TD*%
D50*
%TO.N,/HC32L110_QFN20/VCAP*%
X135597480Y-99618800D02*
X135849061Y-99870381D01*
X133619166Y-99618800D02*
X135597480Y-99618800D01*
X133548083Y-99689883D02*
X133619166Y-99618800D01*
%TO.N,/E104-BT01/DISC*%
X139333422Y-99568000D02*
X139031041Y-99870381D01*
X140665200Y-99568000D02*
X139333422Y-99568000D01*
%TO.N,/E104-BT01/RST*%
X136690100Y-97866200D02*
X136690100Y-98448678D01*
X137668000Y-96888300D02*
X136690100Y-97866200D01*
X136690100Y-98448678D02*
X136980432Y-98739010D01*
X137668000Y-96883952D02*
X137668000Y-96888300D01*
D51*
%TO.N,VCC*%
X131876800Y-102285800D02*
X131301718Y-101710718D01*
D52*
X113665000Y-116840000D02*
X113665000Y-107315000D01*
D51*
X120650000Y-102806500D02*
X120586500Y-102870000D01*
D52*
X117475000Y-119380000D02*
X117475000Y-122565000D01*
D53*
X98209479Y-66530839D02*
X98209479Y-66016234D01*
D50*
X121940000Y-131191000D02*
X125095000Y-131191000D01*
D53*
X121793000Y-102870000D02*
X130142436Y-102870000D01*
D52*
X113665000Y-116840000D02*
X114935000Y-118110000D01*
D54*
X121666000Y-129526000D02*
X121666000Y-130917000D01*
D52*
X114935000Y-118110000D02*
X116205000Y-118110000D01*
X111760000Y-105410000D02*
X111760000Y-102870000D01*
D50*
X134556080Y-102082600D02*
X134264400Y-102082600D01*
D52*
X113665000Y-107315000D02*
X111760000Y-105410000D01*
D53*
X113347500Y-78740000D02*
X110490000Y-81597500D01*
D51*
X133248400Y-101701600D02*
X132664200Y-102285800D01*
D53*
X96215200Y-70573900D02*
X96396890Y-70392210D01*
D51*
X120650000Y-101219000D02*
X119550000Y-101219000D01*
D50*
X125095000Y-131191000D02*
X125440000Y-130846000D01*
D11*
X152019000Y-72390000D02*
X152654000Y-73025000D01*
D51*
X134264400Y-102082600D02*
X133883400Y-101701600D01*
X153543000Y-106426000D02*
X154713500Y-106426000D01*
X131267200Y-101676200D02*
X131301718Y-101710718D01*
D11*
X116713000Y-72390000D02*
X152019000Y-72390000D01*
D51*
X133883400Y-101701600D02*
X133248400Y-101701600D01*
X133146800Y-96316800D02*
X132994400Y-96164400D01*
X120650000Y-101219000D02*
X121750000Y-101219000D01*
D53*
X111760000Y-102870000D02*
X121793000Y-102870000D01*
D51*
X121750000Y-102806500D02*
X120650000Y-102806500D01*
X120650000Y-101219000D02*
X120650000Y-102806500D01*
D11*
X120650000Y-121920000D02*
X118120000Y-121920000D01*
D51*
X121440000Y-129426000D02*
X121940000Y-129426000D01*
D53*
X114300000Y-78740000D02*
X113347500Y-78740000D01*
D51*
X121750000Y-101219000D02*
X121750000Y-102806500D01*
X131267200Y-100482400D02*
X131267200Y-101676200D01*
D53*
X110490000Y-81597500D02*
X110490000Y-101600000D01*
D54*
X121666000Y-130917000D02*
X121940000Y-131191000D01*
D50*
X125440000Y-130846000D02*
X125440000Y-129526000D01*
D11*
X118120000Y-121920000D02*
X117475000Y-122565000D01*
D51*
X154713500Y-106426000D02*
X154723500Y-106436000D01*
D11*
X120650000Y-122809000D02*
X120650000Y-121920000D01*
D53*
X95802464Y-70986637D02*
X96215200Y-70573900D01*
D51*
X133529753Y-96699753D02*
X133146800Y-96316800D01*
D52*
X116205000Y-118110000D02*
X117475000Y-119380000D01*
D51*
X119550000Y-102870000D02*
X121793000Y-102870000D01*
X132664200Y-102285800D02*
X131876800Y-102285800D01*
D11*
X154723500Y-109484000D02*
X154723500Y-106436000D01*
D51*
X119550000Y-101219000D02*
X119550000Y-102870000D01*
X134264400Y-102082600D02*
X134264400Y-102133400D01*
D53*
X110490000Y-101600000D02*
X111760000Y-102870000D01*
D51*
X133533195Y-96699753D02*
X133529753Y-96699753D01*
D11*
X120269000Y-123190000D02*
X120650000Y-122809000D01*
X114300000Y-74803000D02*
X116713000Y-72390000D01*
X152654000Y-75471390D02*
X152645190Y-75480200D01*
D51*
X134264400Y-102133400D02*
X134747000Y-102616000D01*
X132994400Y-96164400D02*
X132334000Y-96164400D01*
D11*
X152654000Y-73025000D02*
X152654000Y-75471390D01*
D50*
X135849061Y-100789619D02*
X134556080Y-102082600D01*
D53*
X130142436Y-102870000D02*
X131301718Y-101710718D01*
X96396890Y-70392210D02*
G75*
G03*
X98209499Y-66016234I-4375990J4376010D01*
G01*
X92138500Y-72504300D02*
G75*
G03*
X95802458Y-70986631I0J5181600D01*
G01*
D11*
%TO.N,Net-(U3-VDD)*%
X156654500Y-107960000D02*
X155918500Y-107960000D01*
X161544000Y-107452000D02*
X162052000Y-107960000D01*
X161544000Y-106910000D02*
X161544000Y-107452000D01*
D51*
%TO.N,GND*%
X134452434Y-97576566D02*
X134325434Y-97576566D01*
X92710000Y-77470000D02*
X97790000Y-77470000D01*
X113411000Y-132524500D02*
X113411000Y-133032500D01*
X88900000Y-83820000D02*
X88900000Y-78740000D01*
X90170000Y-83820000D02*
X88900000Y-83820000D01*
X136991841Y-94148159D02*
X136982815Y-94148159D01*
X100330000Y-61346595D02*
X95891412Y-61346595D01*
X130064282Y-100473282D02*
X129429282Y-101108282D01*
X134239000Y-92075000D02*
X136779000Y-92075000D01*
X91675334Y-66084066D02*
X89255600Y-68503800D01*
X88900000Y-78740000D02*
X90170000Y-78740000D01*
X133014683Y-98887317D02*
X132745517Y-98887317D01*
X99060000Y-78740000D02*
X99060000Y-81280000D01*
X92938600Y-81559400D02*
X95588600Y-81559400D01*
X90170000Y-78740000D02*
X90170000Y-77470000D01*
X122682000Y-121602500D02*
X123507500Y-121602500D01*
X136779000Y-92075000D02*
X137668000Y-92964000D01*
X108331000Y-126619000D02*
X107697723Y-126619000D01*
X104141723Y-130175000D02*
X106363361Y-127953362D01*
X113411000Y-133667500D02*
X112014000Y-135064500D01*
X132732817Y-98887317D02*
X132397500Y-98552000D01*
X131181882Y-99355682D02*
X130064282Y-100473282D01*
X114935000Y-133667500D02*
X113411000Y-133667500D01*
X108708127Y-126993393D02*
X108705393Y-126993393D01*
X105791000Y-61341000D02*
X110363000Y-65913000D01*
X97790000Y-85090000D02*
X95250000Y-85090000D01*
X110363000Y-65913000D02*
X148463000Y-65913000D01*
X121785000Y-121920000D02*
X122682000Y-121920000D01*
D11*
X120940000Y-128814000D02*
X120523000Y-128397000D01*
D51*
X122682000Y-121920000D02*
X122682000Y-121602500D01*
X93182830Y-65566602D02*
X93182830Y-66084066D01*
X134325434Y-97576566D02*
X133014683Y-98887317D01*
X107697723Y-126619000D02*
X106363361Y-127953362D01*
X92938600Y-77952600D02*
X92938600Y-79759400D01*
X95588600Y-79759400D02*
X92938600Y-79759400D01*
X89255600Y-68503800D02*
X89255600Y-74269600D01*
X153915190Y-71365190D02*
X153915190Y-75480200D01*
X97790000Y-83820000D02*
X97790000Y-85090000D01*
X90170000Y-85090000D02*
X90170000Y-83820000D01*
X99060000Y-83820000D02*
X97790000Y-83820000D01*
X93182830Y-66084066D02*
X91675334Y-66084066D01*
D11*
X123940000Y-128967800D02*
X123940000Y-129526000D01*
X126034800Y-126783216D02*
X126034800Y-127686000D01*
D51*
X97790000Y-78740000D02*
X99060000Y-78740000D01*
X113411000Y-133032500D02*
X113411000Y-133667500D01*
D50*
X136450102Y-99905737D02*
X134452434Y-97908069D01*
D51*
X95588600Y-81559400D02*
X95588600Y-79759400D01*
X90170000Y-77470000D02*
X92710000Y-77470000D01*
X137668000Y-92964000D02*
X137668000Y-93472000D01*
X99060000Y-81280000D02*
X99060000Y-83820000D01*
X93345000Y-125095000D02*
X98425000Y-130175000D01*
X109031223Y-135064500D02*
X104141723Y-130175000D01*
D50*
X134452434Y-97908069D02*
X134452434Y-97576566D01*
D51*
X132745517Y-98887317D02*
X132732817Y-98887317D01*
D11*
X124333000Y-128574800D02*
X123940000Y-128967800D01*
D51*
X95588600Y-83566000D02*
X95588600Y-111103900D01*
X95250000Y-85090000D02*
X90170000Y-85090000D01*
X95588600Y-111103900D02*
X93345000Y-113347500D01*
D11*
X126536008Y-126282008D02*
X128187008Y-126282008D01*
D51*
X113804813Y-132130687D02*
X113411000Y-132524500D01*
X114935000Y-132126000D02*
X116440000Y-132126000D01*
X98425000Y-130175000D02*
X104141723Y-130175000D01*
X94678500Y-61849000D02*
X94388071Y-62139429D01*
X92938600Y-79759400D02*
X92938600Y-81559400D01*
X132397500Y-98552000D02*
X131960164Y-98552000D01*
X113804813Y-132126000D02*
X114935000Y-132126000D01*
X100509878Y-61341000D02*
X105791000Y-61341000D01*
X113804813Y-132126000D02*
X113804813Y-132130687D01*
X114935000Y-133032500D02*
X114935000Y-132126000D01*
X148463000Y-65913000D02*
X153915190Y-71365190D01*
X97790000Y-77470000D02*
X97790000Y-78740000D01*
X114935000Y-133032500D02*
X113411000Y-133032500D01*
X108705393Y-126993393D02*
X108331000Y-126619000D01*
X137668000Y-93472000D02*
X136991841Y-94148159D01*
D11*
X161544000Y-109010000D02*
X161544000Y-108468000D01*
D51*
X131960164Y-98552000D02*
X131181882Y-99330282D01*
X112014000Y-135064500D02*
X109031223Y-135064500D01*
X93345000Y-113347500D02*
X93345000Y-125095000D01*
X93589230Y-64068002D02*
X93589230Y-64585466D01*
X133461834Y-102885166D02*
X132905500Y-103441500D01*
X113330625Y-131651812D02*
X113804813Y-132126000D01*
D11*
X161544000Y-108468000D02*
X161036000Y-107960000D01*
X126536008Y-126282008D02*
X126034800Y-126783216D01*
D51*
X99060000Y-81559400D02*
X99060000Y-81280000D01*
X89255600Y-74269600D02*
X92938600Y-77952600D01*
X95588600Y-81559400D02*
X99060000Y-81559400D01*
X95588600Y-81559400D02*
X95588600Y-83566000D01*
D11*
X120940000Y-129526000D02*
X120940000Y-128814000D01*
D51*
X94388071Y-62139429D02*
G75*
G03*
X93995603Y-63086866I947429J-947471D01*
G01*
X95891412Y-61346595D02*
G75*
G03*
X94678496Y-61848996I-12J-1715305D01*
G01*
X98117415Y-63033933D02*
G75*
G02*
X98468371Y-62186599I1198285J33D01*
G01*
X98468386Y-62186614D02*
G75*
G02*
X100509878Y-61340983I2041514J-2041486D01*
G01*
X93589230Y-64585466D02*
G75*
G03*
X93182842Y-65566602I981170J-981134D01*
G01*
X93995630Y-63086866D02*
G75*
G03*
X93589242Y-64068002I981170J-981134D01*
G01*
D11*
%TO.N,/E-Ink Driver/VCOM*%
X116840000Y-130429000D02*
X117440000Y-129829000D01*
X117440000Y-129829000D02*
X117440000Y-129526000D01*
X116840000Y-131191000D02*
X116840000Y-130429000D01*
%TO.N,/E-Ink Driver/VSL*%
X118440000Y-129526000D02*
X118440000Y-130810000D01*
%TO.N,/E-Ink Driver/VSH*%
X119440000Y-129526000D02*
X119440000Y-130191200D01*
X119440000Y-130191200D02*
X119253000Y-130378200D01*
%TO.N,/E-Ink Driver/VPP*%
X119940000Y-129526000D02*
X119940000Y-131191000D01*
%TO.N,Net-(J3-Pin_18)*%
X120440000Y-130320600D02*
X120440000Y-129526000D01*
X120929400Y-130810000D02*
X120440000Y-130320600D01*
D51*
%TO.N,/E104-BT01/RST*%
X153915190Y-88433990D02*
X153517600Y-88036400D01*
X134378187Y-95854761D02*
X135276213Y-95854761D01*
X153915190Y-89619800D02*
X153915190Y-88433990D01*
X134361161Y-95854761D02*
X132486400Y-93980000D01*
X112572800Y-83820000D02*
X114300000Y-83820000D01*
X135255000Y-96774000D02*
X135255000Y-95875974D01*
X111734600Y-92811600D02*
X111734600Y-84658200D01*
X134378187Y-95854761D02*
X134361161Y-95854761D01*
X111734600Y-84658200D02*
X112572800Y-83820000D01*
X135276213Y-95854761D02*
X135957511Y-95173463D01*
X135255000Y-95875974D02*
X135957511Y-95173463D01*
X112903000Y-93980000D02*
X111734600Y-92811600D01*
X135957511Y-95173463D02*
X137668000Y-96883952D01*
X132486400Y-93980000D02*
X112903000Y-93980000D01*
%TO.N,/HC32L110_QFN20/VCAP*%
X132419318Y-100567718D02*
X132670248Y-100567718D01*
X132670248Y-100567718D02*
X133548083Y-99689883D01*
D11*
%TO.N,Net-(J3-Pin_5)*%
X126940000Y-129526000D02*
X126940000Y-130378200D01*
%TO.N,/E-Ink Driver/PREVGL*%
X111760000Y-131617306D02*
X112528059Y-130849246D01*
X112528059Y-130849246D02*
X114599305Y-128778000D01*
X111760000Y-133350000D02*
X111760000Y-131617306D01*
X117627096Y-128778000D02*
X117940000Y-129090904D01*
X117940000Y-129090904D02*
X117940000Y-129526000D01*
X114599305Y-128778000D02*
X117627096Y-128778000D01*
X111759999Y-133350000D02*
X111760000Y-133350000D01*
%TO.N,Net-(D3-A)*%
X117475000Y-126365000D02*
X115328259Y-126365000D01*
X120666000Y-125968000D02*
X120269000Y-126365000D01*
X115328259Y-126365000D02*
X113338403Y-128354856D01*
X120269000Y-126365000D02*
X117475000Y-126365000D01*
X111612073Y-128424577D02*
X112186810Y-128999313D01*
X111120493Y-128424577D02*
X111612073Y-128424577D01*
X120666000Y-124460000D02*
X120666000Y-125968000D01*
X110629902Y-128915168D02*
X111120493Y-128424577D01*
X112693947Y-128999313D02*
X113338404Y-128354856D01*
X112186810Y-128999313D02*
X112693947Y-128999313D01*
%TO.N,Net-(D1-K)*%
X109780101Y-131370101D02*
X111432468Y-129717734D01*
X108343260Y-129933260D02*
X109780101Y-131370101D01*
%TO.N,/E-Ink Driver/PREVGH*%
X115062000Y-128016000D02*
X115316000Y-128270000D01*
X111358505Y-126374958D02*
X113420958Y-126374958D01*
X111358505Y-126374957D02*
X111356383Y-126377079D01*
X118364000Y-128270000D02*
X118940000Y-128846000D01*
X110929574Y-126377079D02*
X109510693Y-127795959D01*
X115316000Y-128270000D02*
X118364000Y-128270000D01*
X111356383Y-126377079D02*
X110929574Y-126377079D01*
X118940000Y-128846000D02*
X118940000Y-129526000D01*
D50*
%TO.N,/E-Ink Driver/BUSY*%
X136620250Y-103409750D02*
X136620250Y-102281172D01*
X124587000Y-125920500D02*
X124587000Y-127310000D01*
X136620250Y-102281172D02*
X136980432Y-101920990D01*
X124587000Y-127310000D02*
X124940000Y-127663000D01*
X124940000Y-127663000D02*
X124940000Y-129526000D01*
%TO.N,/E-Ink Driver/nSDA*%
X122440000Y-127520000D02*
X122440000Y-129526000D01*
X139001500Y-103022820D02*
X137899670Y-101920990D01*
X134112000Y-107569000D02*
X136906000Y-107569000D01*
X128905000Y-113919000D02*
X125412500Y-117411500D01*
X121285000Y-126365000D02*
X122440000Y-127520000D01*
X130683000Y-108966000D02*
X132715000Y-108966000D01*
X129540000Y-113284000D02*
X128905000Y-113919000D01*
X132715000Y-108966000D02*
X134112000Y-107569000D01*
X139001500Y-105473500D02*
X139001500Y-103022820D01*
X129540000Y-110109000D02*
X130683000Y-108966000D01*
X136906000Y-107569000D02*
X139001500Y-105473500D01*
X129540000Y-110109000D02*
X129540000Y-113284000D01*
X123317000Y-119507000D02*
X125412500Y-117411500D01*
D51*
%TO.N,/E-Ink Driver/RST*%
X124460000Y-129546000D02*
X124440000Y-129526000D01*
X124460000Y-130429000D02*
X124460000Y-129546000D01*
D11*
%TO.N,/E-Ink Driver/RESE*%
X126985000Y-123810000D02*
X127000000Y-123825000D01*
X127381000Y-127127000D02*
X127940000Y-127686000D01*
X122666000Y-123810000D02*
X126985000Y-123810000D01*
X127940000Y-127686000D02*
X127940000Y-129526000D01*
D50*
%TO.N,/E-Ink Driver/nSCK*%
X136246157Y-101523243D02*
X135509000Y-102260400D01*
X126790450Y-111398050D02*
X124079000Y-114109500D01*
X133838508Y-106318492D02*
X132588000Y-107569000D01*
X124079000Y-114109500D02*
X124079000Y-117348000D01*
X130619500Y-107569000D02*
X130460750Y-107727750D01*
X130460750Y-107727750D02*
X126790450Y-111398050D01*
X122940000Y-126750000D02*
X122940000Y-129526000D01*
X122555000Y-126365000D02*
X122940000Y-126750000D01*
X135509000Y-102260400D02*
X135509000Y-104648000D01*
X132588000Y-107569000D02*
X130619500Y-107569000D01*
X135509000Y-104648000D02*
X134683500Y-105473500D01*
D11*
%TO.N,/E-Ink Driver/GDR*%
X128509000Y-125110000D02*
X128524000Y-125095000D01*
X129032000Y-127127000D02*
X129032000Y-128079500D01*
X129032000Y-128079500D02*
X128440000Y-128671500D01*
X128440000Y-128671500D02*
X128440000Y-129526000D01*
X122666000Y-125110000D02*
X128509000Y-125110000D01*
D51*
%TO.N,/E-Ink Driver/nCS*%
X135959000Y-106063200D02*
X135966200Y-106070400D01*
D50*
X135959000Y-102376737D02*
X135959000Y-106063200D01*
X123444000Y-129522000D02*
X123440000Y-129526000D01*
X136697589Y-101638148D02*
X135959000Y-102376737D01*
X123444000Y-127762000D02*
X123444000Y-129522000D01*
X123825000Y-127381000D02*
X123444000Y-127762000D01*
%TO.N,/SDA*%
X155090300Y-110312200D02*
X155918500Y-109484000D01*
D11*
X156718000Y-109357000D02*
X157486384Y-108588616D01*
D50*
X151257000Y-110312200D02*
X146856565Y-110312200D01*
D11*
X160292977Y-108603977D02*
X160274000Y-108585000D01*
D50*
X151257000Y-110312200D02*
X155090300Y-110312200D01*
D11*
X159378325Y-108213999D02*
X158390789Y-108213999D01*
D50*
X146856565Y-110312200D02*
X138182513Y-101638148D01*
D11*
X155918500Y-109484000D02*
X156411395Y-109484000D01*
X160274000Y-108585000D02*
G75*
G03*
X159378325Y-108213989I-895700J-895700D01*
G01*
X160544000Y-109210000D02*
G75*
G03*
X160292968Y-108603986I-857000J0D01*
G01*
X156411395Y-109484000D02*
G75*
G03*
X156718002Y-109357002I5J433600D01*
G01*
X157486384Y-108588616D02*
G75*
G02*
X158390789Y-108213985I904416J-904384D01*
G01*
%TO.N,/SCL*%
X159330043Y-107706000D02*
X158390790Y-107706000D01*
X156718000Y-106563000D02*
X157486384Y-107331384D01*
X160307119Y-107281881D02*
X160274000Y-107315000D01*
X155918500Y-106436000D02*
X156411395Y-106436000D01*
D50*
X155918500Y-105220100D02*
X152984200Y-102285800D01*
X139395851Y-102285800D02*
X138633294Y-101523243D01*
X152984200Y-102285800D02*
X139395851Y-102285800D01*
X155918500Y-106436000D02*
X155918500Y-105220100D01*
D11*
X156411395Y-106436000D02*
G75*
G02*
X156718002Y-106562998I5J-433600D01*
G01*
X160544000Y-106710000D02*
G75*
G02*
X160307127Y-107281889I-808800J0D01*
G01*
X160274000Y-107315000D02*
G75*
G02*
X159330043Y-107706047I-944000J943900D01*
G01*
X157486384Y-107331384D02*
G75*
G03*
X158390789Y-107706015I904416J904384D01*
G01*
D50*
%TO.N,/HC32L110_QFN20/UART_RX*%
X139152830Y-92010430D02*
X136042400Y-88900000D01*
X139152830Y-97485850D02*
X139152830Y-92010430D01*
X137899670Y-98739010D02*
X139152830Y-97485850D01*
X136042400Y-88900000D02*
X114300000Y-88900000D01*
%TO.N,/HC32L110_QFN20/UART_TX*%
X139827000Y-97377365D02*
X139827000Y-91719400D01*
X134467600Y-86360000D02*
X114300000Y-86360000D01*
X139827000Y-91719400D02*
X134467600Y-86360000D01*
X138182513Y-99021852D02*
X139827000Y-97377365D01*
%TO.N,/E104-BT01/TX*%
X139585700Y-99123500D02*
X140004800Y-98704400D01*
D51*
X148835190Y-91067810D02*
X148835190Y-89619800D01*
X143065500Y-93662500D02*
X144018000Y-94615000D01*
D50*
X138748199Y-99587538D02*
X139212237Y-99123500D01*
X139212237Y-99123500D02*
X139585700Y-99123500D01*
%TO.N,/E104-BT01/WKP*%
X136093200Y-98417463D02*
X136697589Y-99021852D01*
D51*
X141274800Y-83185000D02*
X142756810Y-83185000D01*
D50*
X136093200Y-97332800D02*
X136093200Y-98417463D01*
%TO.N,/E104-BT01/RX*%
X146177000Y-96520000D02*
X150105190Y-92591810D01*
X138633294Y-99136757D02*
X139420600Y-98349451D01*
X141249400Y-96520000D02*
X146177000Y-96520000D01*
X150105190Y-92591810D02*
X150105190Y-92574190D01*
X139420600Y-98348800D02*
X141249400Y-96520000D01*
X150105190Y-92574190D02*
X150105190Y-89619800D01*
X144145000Y-97917000D02*
X144145000Y-96520000D01*
%TO.N,/E104-BT01/DATA*%
X135382000Y-97917000D02*
X135382000Y-98271949D01*
X135382000Y-98271949D02*
X136246808Y-99136757D01*
D51*
X141249400Y-80645000D02*
X142756810Y-80645000D01*
D50*
%TO.N,/E104-BT01/LINK*%
X154940000Y-90678000D02*
X154940000Y-80289400D01*
X154940000Y-80289400D02*
X154025600Y-79375000D01*
X139031041Y-100789619D02*
X139384222Y-101142800D01*
X144475200Y-101142800D02*
X154940000Y-90678000D01*
X139384222Y-101142800D02*
X144475200Y-101142800D01*
X154025600Y-79375000D02*
X142756810Y-79375000D01*
%TO.N,/E104-BT01/MOD*%
X153746200Y-78308200D02*
X149555200Y-78308200D01*
X144703800Y-101701600D02*
X155498800Y-90906600D01*
X155498800Y-80060800D02*
X153746200Y-78308200D01*
X138748199Y-101072462D02*
X139377337Y-101701600D01*
X148835190Y-77588190D02*
X148835190Y-75480200D01*
X139377337Y-101701600D02*
X144703800Y-101701600D01*
X149555200Y-78308200D02*
X148835190Y-77588190D01*
X155498800Y-90906600D02*
X155498800Y-80060800D01*
D51*
%TO.N,/E104-BT01/DISC*%
X146295190Y-89619800D02*
X146295190Y-93361590D01*
X146295190Y-93361590D02*
X146304000Y-93370400D01*
D11*
%TO.N,unconnected-(U3-NC-Pad1)*%
X162544000Y-106309592D02*
X162544592Y-106309000D01*
X162544000Y-106910000D02*
X162544000Y-106309592D01*
%TO.N,unconnected-(U3-NC-Pad6)*%
X162544591Y-109610999D02*
X162544591Y-109013200D01*
%TD*%
%TA.AperFunction,Conductor*%
%TO.N,GND*%
G36*
X156787121Y-51455002D02*
G01*
X156833614Y-51508658D01*
X156845000Y-51561000D01*
X156845000Y-69388245D01*
X156837266Y-69427132D01*
X156838024Y-69427335D01*
X156835887Y-69435310D01*
X156835886Y-69435312D01*
X156812000Y-69524456D01*
X156812000Y-69616744D01*
X156835886Y-69705888D01*
X156838024Y-69713866D01*
X156837263Y-69714069D01*
X156845000Y-69752953D01*
X156845000Y-95193450D01*
X156829227Y-95218483D01*
X156764912Y-95248552D01*
X156745866Y-95250000D01*
X152499745Y-95250000D01*
X152431624Y-95229998D01*
X152385131Y-95176342D01*
X152375027Y-95106068D01*
X152404521Y-95041488D01*
X152410650Y-95034905D01*
X154226055Y-93219500D01*
X156070100Y-91375455D01*
X156150592Y-91254990D01*
X156206035Y-91121138D01*
X156234300Y-90979041D01*
X156234300Y-90834160D01*
X156234300Y-79988360D01*
X156231265Y-79973102D01*
X156206036Y-79846263D01*
X156155140Y-79723390D01*
X156150592Y-79712410D01*
X156070100Y-79591946D01*
X155967654Y-79489500D01*
X154215054Y-77736900D01*
X154190981Y-77720815D01*
X154094590Y-77656408D01*
X153960738Y-77600965D01*
X153818642Y-77572700D01*
X153818640Y-77572700D01*
X149912044Y-77572700D01*
X149843923Y-77552698D01*
X149822949Y-77535795D01*
X149607595Y-77320441D01*
X149573569Y-77258129D01*
X149570690Y-77231346D01*
X149570690Y-77222623D01*
X149590692Y-77154502D01*
X149644348Y-77108009D01*
X149714622Y-77097905D01*
X149727088Y-77100345D01*
X149777535Y-77112891D01*
X149792328Y-77113894D01*
X149818949Y-77115700D01*
X149818958Y-77115700D01*
X150391431Y-77115700D01*
X150416275Y-77114014D01*
X150432845Y-77112891D01*
X150611844Y-77068376D01*
X150684207Y-77032486D01*
X150754121Y-77020140D01*
X150796172Y-77032486D01*
X150868536Y-77068376D01*
X151047535Y-77112891D01*
X151057890Y-77113593D01*
X151088949Y-77115700D01*
X151088958Y-77115700D01*
X151661431Y-77115700D01*
X151686275Y-77114014D01*
X151702845Y-77112891D01*
X151881844Y-77068376D01*
X151954207Y-77032486D01*
X152024121Y-77020140D01*
X152066172Y-77032486D01*
X152138536Y-77068376D01*
X152317535Y-77112891D01*
X152327890Y-77113593D01*
X152358949Y-77115700D01*
X152358958Y-77115700D01*
X152931431Y-77115700D01*
X152956275Y-77114014D01*
X152972845Y-77112891D01*
X153151844Y-77068376D01*
X153317088Y-76986423D01*
X153460852Y-76870862D01*
X153533544Y-76780428D01*
X153591812Y-76739866D01*
X153643526Y-76733921D01*
X153646489Y-76734199D01*
X153646507Y-76734200D01*
X153765190Y-76734200D01*
X154065190Y-76734200D01*
X154183873Y-76734200D01*
X154183875Y-76734199D01*
X154215398Y-76731243D01*
X154215402Y-76731242D01*
X154348131Y-76684798D01*
X154348133Y-76684798D01*
X154461281Y-76601291D01*
X154544788Y-76488143D01*
X154544788Y-76488141D01*
X154591232Y-76355412D01*
X154591233Y-76355408D01*
X154594189Y-76323885D01*
X154594190Y-76323882D01*
X154594190Y-75630200D01*
X154065190Y-75630200D01*
X154065190Y-76734200D01*
X153765190Y-76734200D01*
X153765190Y-75330200D01*
X154065190Y-75330200D01*
X154594190Y-75330200D01*
X154594190Y-74636517D01*
X154594189Y-74636514D01*
X154591233Y-74604991D01*
X154591232Y-74604987D01*
X154544788Y-74472258D01*
X154544788Y-74472256D01*
X154461281Y-74359108D01*
X154348132Y-74275601D01*
X154215402Y-74229157D01*
X154215398Y-74229156D01*
X154183875Y-74226200D01*
X154065190Y-74226200D01*
X154065190Y-75330200D01*
X153765190Y-75330200D01*
X153765190Y-74226199D01*
X153752176Y-74213185D01*
X153728379Y-74206198D01*
X153681886Y-74152542D01*
X153670500Y-74100200D01*
X153670500Y-71692410D01*
X153670499Y-71692406D01*
X153646078Y-71569631D01*
X153598173Y-71453978D01*
X153528625Y-71349892D01*
X153440108Y-71261375D01*
X153336022Y-71191827D01*
X153220369Y-71143922D01*
X153097593Y-71119500D01*
X153097591Y-71119500D01*
X115462591Y-71119500D01*
X114389394Y-71119500D01*
X114341970Y-71110235D01*
X113834557Y-70904096D01*
X111328239Y-69885891D01*
X100892542Y-65646335D01*
X100836959Y-65602164D01*
X100814080Y-65534955D01*
X100818258Y-65496993D01*
X100970338Y-64929427D01*
X100978572Y-64887543D01*
X100981997Y-64697905D01*
X100944575Y-64511965D01*
X100868056Y-64338417D01*
X100830550Y-64287186D01*
X100806452Y-64220408D01*
X100821981Y-64151741D01*
X100833797Y-64130396D01*
X100847624Y-64089964D01*
X101009859Y-63484490D01*
X101018102Y-63442560D01*
X101021531Y-63252703D01*
X100984065Y-63066547D01*
X100907456Y-62892796D01*
X100871249Y-62843338D01*
X100795292Y-62739581D01*
X100795287Y-62739575D01*
X100652803Y-62614049D01*
X100547048Y-62555513D01*
X100486669Y-62522092D01*
X100486665Y-62522090D01*
X100486664Y-62522090D01*
X100446251Y-62508270D01*
X100446231Y-62508264D01*
X99744174Y-62320148D01*
X99744165Y-62320146D01*
X99702247Y-62311905D01*
X99702236Y-62311904D01*
X99512391Y-62308476D01*
X99512379Y-62308477D01*
X99326227Y-62345942D01*
X99152477Y-62422550D01*
X99152472Y-62422553D01*
X98999262Y-62534714D01*
X98994213Y-62539327D01*
X98993198Y-62538216D01*
X98939848Y-62571869D01*
X98868854Y-62571269D01*
X98809454Y-62532382D01*
X98806329Y-62528564D01*
X98799252Y-62519565D01*
X98684122Y-62437581D01*
X98684117Y-62437578D01*
X98629207Y-62416351D01*
X98629202Y-62416349D01*
X98450982Y-62368594D01*
X98292388Y-62960477D01*
X98292388Y-62960479D01*
X98256092Y-63095937D01*
X98219140Y-63156560D01*
X98155279Y-63187581D01*
X98101774Y-63185033D01*
X97326135Y-62977201D01*
X97312497Y-63028103D01*
X97275545Y-63088726D01*
X97211685Y-63119747D01*
X97188516Y-63121471D01*
X97133287Y-63120474D01*
X97102020Y-63115949D01*
X96884897Y-63055988D01*
X96824559Y-63018574D01*
X96803148Y-62985369D01*
X96785671Y-62945729D01*
X96785670Y-62945727D01*
X96785668Y-62945724D01*
X96673508Y-62792514D01*
X96673502Y-62792508D01*
X96554220Y-62687423D01*
X97403780Y-62687423D01*
X98011348Y-62850221D01*
X98161203Y-62290949D01*
X97982984Y-62243196D01*
X97982978Y-62243195D01*
X97924806Y-62234123D01*
X97924805Y-62234123D01*
X97784117Y-62247557D01*
X97784108Y-62247559D01*
X97652909Y-62300083D01*
X97652902Y-62300087D01*
X97541808Y-62387453D01*
X97459826Y-62502580D01*
X97438596Y-62557495D01*
X97438594Y-62557501D01*
X97403780Y-62687423D01*
X96554220Y-62687423D01*
X96531018Y-62666982D01*
X96425403Y-62608523D01*
X96364884Y-62575025D01*
X96364880Y-62575023D01*
X96364879Y-62575023D01*
X96324466Y-62561203D01*
X96324446Y-62561197D01*
X95622389Y-62373081D01*
X95622380Y-62373079D01*
X95580462Y-62364838D01*
X95580451Y-62364837D01*
X95390606Y-62361409D01*
X95390594Y-62361410D01*
X95204442Y-62398875D01*
X95030692Y-62475483D01*
X95030687Y-62475486D01*
X94877477Y-62587647D01*
X94872428Y-62592260D01*
X94871413Y-62591149D01*
X94818063Y-62624802D01*
X94747069Y-62624202D01*
X94687669Y-62585315D01*
X94684544Y-62581497D01*
X94677467Y-62572498D01*
X94562337Y-62490514D01*
X94562332Y-62490511D01*
X94507422Y-62469284D01*
X94507417Y-62469282D01*
X94329197Y-62421527D01*
X94170603Y-63013410D01*
X94170603Y-63013412D01*
X93940830Y-63870934D01*
X93940814Y-63870960D01*
X93938615Y-63879172D01*
X93929970Y-63893359D01*
X93764203Y-64512010D01*
X93764203Y-64512012D01*
X93534430Y-65369534D01*
X93534414Y-65369560D01*
X93532215Y-65377772D01*
X93523570Y-65391959D01*
X93357803Y-66010610D01*
X93357803Y-66010612D01*
X93139039Y-66827048D01*
X93317260Y-66874802D01*
X93317266Y-66874803D01*
X93375438Y-66883875D01*
X93375439Y-66883875D01*
X93516127Y-66870441D01*
X93516133Y-66870440D01*
X93526759Y-66866186D01*
X93597433Y-66859434D01*
X93660539Y-66891964D01*
X93694568Y-66950899D01*
X93694856Y-66950808D01*
X93695269Y-66952112D01*
X93696040Y-66953447D01*
X93696852Y-66957106D01*
X93696919Y-66957318D01*
X93773528Y-67131070D01*
X93885692Y-67284285D01*
X93885697Y-67284291D01*
X94028181Y-67409817D01*
X94098590Y-67448789D01*
X94194316Y-67501775D01*
X94234748Y-67515601D01*
X94580116Y-67608142D01*
X94936810Y-67703718D01*
X94936819Y-67703720D01*
X94978737Y-67711961D01*
X94978740Y-67711961D01*
X94978744Y-67711962D01*
X95037161Y-67713016D01*
X95168593Y-67715390D01*
X95168594Y-67715389D01*
X95168602Y-67715390D01*
X95354758Y-67677924D01*
X95401440Y-67657340D01*
X95471839Y-67648159D01*
X95536028Y-67678496D01*
X95553936Y-67698195D01*
X95662940Y-67847092D01*
X95662942Y-67847094D01*
X95662944Y-67847096D01*
X95805255Y-67972469D01*
X95805256Y-67972470D01*
X95805258Y-67972471D01*
X95971201Y-68064324D01*
X96011589Y-68078136D01*
X96412143Y-68185463D01*
X96413018Y-68185698D01*
X96473641Y-68222650D01*
X96504662Y-68286510D01*
X96496234Y-68357005D01*
X96490341Y-68368971D01*
X96331772Y-68652115D01*
X96326603Y-68660551D01*
X96111670Y-68982218D01*
X96105855Y-68990222D01*
X95866343Y-69294039D01*
X95859918Y-69301562D01*
X95595316Y-69587806D01*
X95591887Y-69591372D01*
X95475471Y-69707790D01*
X95069789Y-70113473D01*
X95069787Y-70113475D01*
X95001490Y-70181770D01*
X94997520Y-70185570D01*
X94743345Y-70418479D01*
X94734926Y-70425544D01*
X94463629Y-70633720D01*
X94454624Y-70640025D01*
X94351483Y-70705733D01*
X94283283Y-70725465D01*
X94215242Y-70705193D01*
X94175332Y-70663608D01*
X94144635Y-70611702D01*
X94144632Y-70611699D01*
X94144631Y-70611697D01*
X94031103Y-70498169D01*
X94031099Y-70498166D01*
X94031098Y-70498165D01*
X93892893Y-70416431D01*
X93815798Y-70394033D01*
X93738702Y-70371634D01*
X93702689Y-70368800D01*
X90574320Y-70368800D01*
X90538297Y-70371634D01*
X90384104Y-70416432D01*
X90245900Y-70498166D01*
X90245896Y-70498169D01*
X90132369Y-70611696D01*
X90132366Y-70611700D01*
X90050632Y-70749904D01*
X90005834Y-70904097D01*
X90003000Y-70940110D01*
X90003000Y-74068479D01*
X90005834Y-74104502D01*
X90050632Y-74258695D01*
X90132366Y-74396899D01*
X90132369Y-74396903D01*
X90245896Y-74510430D01*
X90245900Y-74510433D01*
X90245902Y-74510435D01*
X90384107Y-74592169D01*
X90538296Y-74636965D01*
X90574319Y-74639800D01*
X93702680Y-74639799D01*
X93738704Y-74636965D01*
X93892893Y-74592169D01*
X94031098Y-74510435D01*
X94144635Y-74396898D01*
X94226369Y-74258693D01*
X94271165Y-74104504D01*
X94274000Y-74068481D01*
X94273999Y-73355888D01*
X94294001Y-73287768D01*
X94347657Y-73241275D01*
X94355952Y-73237838D01*
X94557505Y-73162664D01*
X94967962Y-72975213D01*
X95364000Y-72758959D01*
X95743602Y-72515002D01*
X96104833Y-72244586D01*
X96445852Y-71949090D01*
X96568482Y-71826457D01*
X96568488Y-71826454D01*
X96605386Y-71789553D01*
X96605387Y-71789554D01*
X96647360Y-71747578D01*
X97081312Y-71313627D01*
X97263001Y-71131939D01*
X97263003Y-71131935D01*
X97266484Y-71128455D01*
X97266810Y-71128100D01*
X97369334Y-71025579D01*
X97685510Y-70665051D01*
X97977430Y-70284616D01*
X98243844Y-69885903D01*
X98483610Y-69470619D01*
X98695701Y-69040543D01*
X98744089Y-68923722D01*
X98788637Y-68868443D01*
X98856001Y-68846022D01*
X98893107Y-68850234D01*
X99081956Y-68900837D01*
X99106621Y-68905685D01*
X99123833Y-68909070D01*
X99123836Y-68909070D01*
X99123840Y-68909071D01*
X99182189Y-68910124D01*
X99313468Y-68912495D01*
X99313469Y-68912494D01*
X99313477Y-68912495D01*
X99499418Y-68875073D01*
X99550229Y-68852669D01*
X99620626Y-68843488D01*
X99648481Y-68851224D01*
X112485924Y-74066500D01*
X112541507Y-74110671D01*
X112564386Y-74177880D01*
X112564500Y-74183235D01*
X112564500Y-77864968D01*
X112544498Y-77933089D01*
X112527595Y-77954064D01*
X111924198Y-78557460D01*
X111920125Y-78561355D01*
X111909013Y-78571514D01*
X111901706Y-78578301D01*
X111901630Y-78578371D01*
X111901568Y-78578430D01*
X111901405Y-78578583D01*
X111901308Y-78578675D01*
X111894715Y-78584989D01*
X111725864Y-78749054D01*
X111703975Y-78771388D01*
X111703970Y-78771393D01*
X111703950Y-78771417D01*
X111674955Y-78806015D01*
X111667480Y-78814178D01*
X109750272Y-80731389D01*
X109750271Y-80731389D01*
X109623893Y-80857766D01*
X109623890Y-80857769D01*
X109518835Y-81002364D01*
X109437237Y-81162510D01*
X109436161Y-81166326D01*
X109382460Y-81331598D01*
X109382459Y-81331601D01*
X109382459Y-81331603D01*
X109380489Y-81344041D01*
X109362183Y-81459629D01*
X109362019Y-81460662D01*
X109354500Y-81508134D01*
X109354500Y-101510634D01*
X109354500Y-101689366D01*
X109371275Y-101795284D01*
X109382459Y-101865899D01*
X109407456Y-101942828D01*
X109437690Y-102035879D01*
X109518835Y-102195135D01*
X109596065Y-102301433D01*
X109596069Y-102301437D01*
X109623890Y-102339730D01*
X109623893Y-102339733D01*
X110770095Y-103485934D01*
X110804120Y-103548246D01*
X110807000Y-103575029D01*
X110807000Y-105503864D01*
X110827093Y-105604879D01*
X110843623Y-105687980D01*
X110915462Y-105861415D01*
X110969544Y-105942353D01*
X111019756Y-106017501D01*
X111019761Y-106017507D01*
X112675095Y-107672840D01*
X112709120Y-107735152D01*
X112712000Y-107761935D01*
X112712000Y-113890696D01*
X112691998Y-113958817D01*
X112638342Y-114005310D01*
X112568068Y-114015414D01*
X112561418Y-114014275D01*
X112487142Y-113999500D01*
X112487139Y-113999500D01*
X112434562Y-113999500D01*
X104822595Y-113999500D01*
X104775000Y-113999500D01*
X104682861Y-113999500D01*
X104682857Y-113999500D01*
X104502124Y-114035451D01*
X104502121Y-114035452D01*
X104331875Y-114105971D01*
X104178658Y-114208347D01*
X104178651Y-114208352D01*
X104048352Y-114338651D01*
X104048347Y-114338658D01*
X103945971Y-114491875D01*
X103875452Y-114662121D01*
X103875451Y-114662124D01*
X103839500Y-114842857D01*
X103839500Y-115027142D01*
X103861010Y-115135277D01*
X103875451Y-115207875D01*
X103945971Y-115378125D01*
X104048350Y-115531346D01*
X104178654Y-115661650D01*
X104331875Y-115764029D01*
X104502125Y-115834549D01*
X104682861Y-115870500D01*
X112487139Y-115870500D01*
X112561420Y-115855724D01*
X112632131Y-115862051D01*
X112688199Y-115905605D01*
X112711819Y-115972557D01*
X112712000Y-115979303D01*
X112712000Y-116933864D01*
X112745392Y-117101735D01*
X112748623Y-117117980D01*
X112820462Y-117291415D01*
X112872808Y-117369756D01*
X112924756Y-117447501D01*
X112924761Y-117447507D01*
X114194757Y-118717502D01*
X114327498Y-118850243D01*
X114483585Y-118954538D01*
X114657020Y-119026377D01*
X114841138Y-119063000D01*
X115758065Y-119063000D01*
X115826186Y-119083002D01*
X115847160Y-119099905D01*
X116485095Y-119737840D01*
X116519121Y-119800152D01*
X116522000Y-119826935D01*
X116522000Y-121163500D01*
X116501998Y-121231621D01*
X116448342Y-121278114D01*
X116396000Y-121289500D01*
X115650269Y-121289500D01*
X115609583Y-121292259D01*
X115609576Y-121292260D01*
X115433698Y-121335999D01*
X115271337Y-121416521D01*
X115271334Y-121416523D01*
X115130073Y-121530073D01*
X115016523Y-121671334D01*
X115016521Y-121671337D01*
X114935999Y-121833698D01*
X114892260Y-122009576D01*
X114892259Y-122009583D01*
X114889500Y-122050268D01*
X114889500Y-123539731D01*
X114892259Y-123580416D01*
X114892260Y-123580424D01*
X114906704Y-123638504D01*
X114910424Y-123667965D01*
X114922044Y-125213414D01*
X114918324Y-125244769D01*
X114892259Y-125349580D01*
X114889500Y-125390268D01*
X114889500Y-125646107D01*
X114869498Y-125714228D01*
X114833507Y-125750868D01*
X114827539Y-125754855D01*
X114827532Y-125754861D01*
X114789752Y-125792642D01*
X114718121Y-125864273D01*
X114718119Y-125864275D01*
X114599992Y-125982402D01*
X114501639Y-126080755D01*
X114439327Y-126114780D01*
X114368511Y-126109715D01*
X114311676Y-126067168D01*
X114292711Y-126030596D01*
X114280288Y-125992362D01*
X114280285Y-125992357D01*
X114278701Y-125989614D01*
X114232522Y-125909629D01*
X114181963Y-125822057D01*
X114181961Y-125822055D01*
X114050380Y-125675918D01*
X113891285Y-125560329D01*
X113711636Y-125480344D01*
X113519283Y-125439458D01*
X113322633Y-125439458D01*
X113130282Y-125480343D01*
X113035779Y-125522419D01*
X112950632Y-125560329D01*
X112943660Y-125565393D01*
X112876796Y-125589252D01*
X112869600Y-125589458D01*
X112301746Y-125589458D01*
X112233625Y-125569456D01*
X112212651Y-125552554D01*
X111940818Y-125280722D01*
X111898723Y-125244769D01*
X111881856Y-125230363D01*
X111880065Y-125229329D01*
X111720659Y-125137296D01*
X111720654Y-125137293D01*
X111632139Y-125108532D01*
X111543627Y-125079772D01*
X111543622Y-125079771D01*
X111358505Y-125060316D01*
X111173387Y-125079771D01*
X111173382Y-125079772D01*
X111040613Y-125122912D01*
X110996356Y-125137293D01*
X110996353Y-125137294D01*
X110996350Y-125137296D01*
X110835155Y-125230361D01*
X110776192Y-125280721D01*
X110776179Y-125280733D01*
X110264269Y-125792644D01*
X110213908Y-125851609D01*
X110120840Y-126012806D01*
X110100277Y-126076090D01*
X110069541Y-126126246D01*
X109487093Y-126708693D01*
X109424783Y-126742717D01*
X109398000Y-126745597D01*
X109380963Y-126745597D01*
X109348698Y-126752961D01*
X109277835Y-126748618D01*
X109231567Y-126719215D01*
X109213002Y-126700650D01*
X109213000Y-126700650D01*
X109068473Y-126845177D01*
X109052301Y-126858076D01*
X109052333Y-126858116D01*
X109046804Y-126862524D01*
X109046802Y-126862526D01*
X108992843Y-126905557D01*
X108942449Y-126945745D01*
X108660479Y-127227715D01*
X108648174Y-127243145D01*
X108577260Y-127332068D01*
X108577258Y-127332070D01*
X108572850Y-127337599D01*
X108572810Y-127337567D01*
X108559911Y-127353739D01*
X108415384Y-127498266D01*
X108415384Y-127498268D01*
X108433949Y-127516833D01*
X108467975Y-127579145D01*
X108467695Y-127633964D01*
X108460331Y-127666229D01*
X108460331Y-127666232D01*
X108460331Y-127844369D01*
X108489893Y-127973887D01*
X108499970Y-128018038D01*
X108499972Y-128018043D01*
X108577257Y-128178528D01*
X108577258Y-128178530D01*
X108577259Y-128178531D01*
X108577260Y-128178533D01*
X108660472Y-128282877D01*
X108660475Y-128282880D01*
X108660479Y-128282885D01*
X108898841Y-128521247D01*
X108932867Y-128583559D01*
X108927802Y-128654374D01*
X108885255Y-128711210D01*
X108818735Y-128736021D01*
X108749361Y-128720930D01*
X108746747Y-128719462D01*
X108705410Y-128695596D01*
X108705409Y-128695595D01*
X108705408Y-128695595D01*
X108578545Y-128654374D01*
X108528381Y-128638074D01*
X108528376Y-128638073D01*
X108343259Y-128618618D01*
X108158141Y-128638073D01*
X108158136Y-128638074D01*
X108025367Y-128681214D01*
X107981110Y-128695595D01*
X107981107Y-128695596D01*
X107981104Y-128695598D01*
X107819909Y-128788663D01*
X107760946Y-128839023D01*
X107760933Y-128839035D01*
X107249023Y-129350946D01*
X107198662Y-129409911D01*
X107105597Y-129571105D01*
X107105594Y-129571112D01*
X107048073Y-129748137D01*
X107048072Y-129748142D01*
X107028617Y-129933260D01*
X107048072Y-130118377D01*
X107048073Y-130118382D01*
X107074552Y-130199872D01*
X107105594Y-130295409D01*
X107105597Y-130295414D01*
X107198662Y-130456609D01*
X107198664Y-130456611D01*
X107249025Y-130515576D01*
X107760943Y-131027493D01*
X107819908Y-131077855D01*
X107981110Y-131170925D01*
X108158139Y-131228446D01*
X108343259Y-131247902D01*
X108343259Y-131247901D01*
X108349826Y-131248592D01*
X108349586Y-131250875D01*
X108407580Y-131267904D01*
X108454073Y-131321560D01*
X108463238Y-131363695D01*
X108464769Y-131363535D01*
X108484914Y-131555219D01*
X108484915Y-131555224D01*
X108512795Y-131641027D01*
X108542436Y-131732251D01*
X108542439Y-131732256D01*
X108635504Y-131893451D01*
X108642107Y-131901182D01*
X108685867Y-131952418D01*
X108685875Y-131952426D01*
X108685876Y-131952427D01*
X109197787Y-132464337D01*
X109210130Y-132474879D01*
X109256750Y-132514697D01*
X109417952Y-132607767D01*
X109594981Y-132665288D01*
X109780101Y-132684744D01*
X109965221Y-132665288D01*
X110142250Y-132607767D01*
X110303452Y-132514697D01*
X110362417Y-132464336D01*
X110759404Y-132067347D01*
X110821717Y-132033323D01*
X110892532Y-132038387D01*
X110949368Y-132080934D01*
X110974179Y-132147454D01*
X110974500Y-132156443D01*
X110974500Y-132406758D01*
X110954498Y-132474879D01*
X110937596Y-132495853D01*
X110665763Y-132767686D01*
X110615402Y-132826651D01*
X110522337Y-132987845D01*
X110522334Y-132987852D01*
X110464813Y-133164877D01*
X110464812Y-133164882D01*
X110445357Y-133350000D01*
X110464812Y-133535117D01*
X110464813Y-133535122D01*
X110493573Y-133623634D01*
X110522334Y-133712149D01*
X110522337Y-133712154D01*
X110615402Y-133873349D01*
X110615404Y-133873351D01*
X110665765Y-133932316D01*
X110665773Y-133932324D01*
X110665774Y-133932325D01*
X111177685Y-134444235D01*
X111194891Y-134458930D01*
X111236648Y-134494595D01*
X111397850Y-134587665D01*
X111574879Y-134645186D01*
X111759999Y-134664642D01*
X111945119Y-134645186D01*
X112122148Y-134587665D01*
X112283350Y-134494595D01*
X112342315Y-134444234D01*
X112854232Y-133932316D01*
X112904594Y-133873351D01*
X112997664Y-133712149D01*
X113055185Y-133535120D01*
X113074641Y-133350000D01*
X113055185Y-133164880D01*
X112997664Y-132987851D01*
X112945629Y-132897725D01*
X112904595Y-132826650D01*
X112864750Y-132779998D01*
X112854233Y-132767684D01*
X112854223Y-132767674D01*
X112854211Y-132767661D01*
X112637572Y-132551022D01*
X115986001Y-132551022D01*
X116000737Y-132625105D01*
X116000737Y-132625107D01*
X116056875Y-132709124D01*
X116140893Y-132765262D01*
X116140894Y-132765263D01*
X116214980Y-132779999D01*
X116289999Y-132779998D01*
X116290000Y-132779998D01*
X116290000Y-132276000D01*
X115986001Y-132276000D01*
X115986001Y-132551022D01*
X112637572Y-132551022D01*
X112582405Y-132495855D01*
X112548379Y-132433543D01*
X112545500Y-132406760D01*
X112545500Y-132156686D01*
X113037882Y-132156686D01*
X113037882Y-132156687D01*
X113104831Y-132223636D01*
X113104834Y-132223638D01*
X113183288Y-132280638D01*
X113183288Y-132280639D01*
X113306502Y-132320672D01*
X113306503Y-132320673D01*
X113436064Y-132320673D01*
X113436064Y-132320672D01*
X113559279Y-132280639D01*
X113637732Y-132223639D01*
X113637735Y-132223636D01*
X113664026Y-132197346D01*
X113664026Y-132197344D01*
X113330626Y-131863944D01*
X113330625Y-131863944D01*
X113037882Y-132156686D01*
X112545500Y-132156686D01*
X112545500Y-132024859D01*
X112565502Y-131956738D01*
X112619158Y-131910245D01*
X112650945Y-131901438D01*
X112650887Y-131901182D01*
X112656480Y-131899905D01*
X112657402Y-131899650D01*
X112657772Y-131899608D01*
X112657786Y-131899608D01*
X112690053Y-131892243D01*
X112760915Y-131896585D01*
X112807184Y-131925989D01*
X112825749Y-131944554D01*
X112825750Y-131944554D01*
X112970270Y-131800032D01*
X112986447Y-131787132D01*
X112986416Y-131787093D01*
X113074702Y-131716686D01*
X113096294Y-131699467D01*
X113143950Y-131651811D01*
X113542757Y-131651811D01*
X113542757Y-131651813D01*
X113876157Y-131985213D01*
X113876159Y-131985213D01*
X113902449Y-131958922D01*
X113902452Y-131958919D01*
X113959452Y-131880466D01*
X113999485Y-131757251D01*
X113999486Y-131757251D01*
X113999486Y-131627690D01*
X113999485Y-131627689D01*
X113959452Y-131504475D01*
X113902451Y-131426021D01*
X113902449Y-131426018D01*
X113835500Y-131359069D01*
X113835499Y-131359069D01*
X113542757Y-131651811D01*
X113143950Y-131651811D01*
X113378280Y-131417481D01*
X113460124Y-131314853D01*
X113465906Y-131307603D01*
X113465945Y-131307634D01*
X113478845Y-131291457D01*
X113623367Y-131146936D01*
X113604802Y-131128371D01*
X113570776Y-131066059D01*
X113571055Y-131011241D01*
X113578421Y-130978973D01*
X113578421Y-130961939D01*
X113598423Y-130893818D01*
X113615326Y-130872844D01*
X114887765Y-129600405D01*
X114950077Y-129566379D01*
X114976860Y-129563500D01*
X116290445Y-129563500D01*
X116358566Y-129583502D01*
X116405059Y-129637158D01*
X116415163Y-129707432D01*
X116385669Y-129772012D01*
X116379540Y-129778595D01*
X116229864Y-129928270D01*
X116229859Y-129928277D01*
X116143899Y-130056926D01*
X116084688Y-130199872D01*
X116084686Y-130199877D01*
X116054500Y-130351632D01*
X116054500Y-130646764D01*
X116037619Y-130709764D01*
X115980672Y-130808399D01*
X115980668Y-130808407D01*
X115919904Y-130995421D01*
X115919903Y-130995425D01*
X115919903Y-130995427D01*
X115899347Y-131191000D01*
X115917498Y-131363695D01*
X115919904Y-131386578D01*
X115980668Y-131573592D01*
X115983356Y-131579628D01*
X115981780Y-131580329D01*
X115996506Y-131641027D01*
X115994228Y-131659615D01*
X115986000Y-131700977D01*
X115986000Y-131976000D01*
X116287952Y-131976000D01*
X116356073Y-131996002D01*
X116362015Y-132000066D01*
X116369667Y-132005626D01*
X116369671Y-132005628D01*
X116369673Y-132005629D01*
X116515250Y-132070444D01*
X116569345Y-132116423D01*
X116589994Y-132184350D01*
X116590000Y-132185550D01*
X116590000Y-132779999D01*
X116665014Y-132779999D01*
X116665022Y-132779998D01*
X116739105Y-132765262D01*
X116739107Y-132765262D01*
X116823124Y-132709124D01*
X116879262Y-132625106D01*
X116879263Y-132625105D01*
X116893999Y-132551022D01*
X129486001Y-132551022D01*
X129500737Y-132625105D01*
X129500737Y-132625107D01*
X129556875Y-132709124D01*
X129640893Y-132765262D01*
X129640894Y-132765263D01*
X129714980Y-132779999D01*
X130090000Y-132779999D01*
X130165014Y-132779999D01*
X130165022Y-132779998D01*
X130239105Y-132765262D01*
X130239107Y-132765262D01*
X130323124Y-132709124D01*
X130379262Y-132625106D01*
X130379263Y-132625105D01*
X130393999Y-132551022D01*
X130394000Y-132551015D01*
X130394000Y-132276000D01*
X130090000Y-132276000D01*
X130090000Y-132779999D01*
X129714980Y-132779999D01*
X129789999Y-132779998D01*
X129790000Y-132779998D01*
X129790000Y-132276000D01*
X129486001Y-132276000D01*
X129486001Y-132551022D01*
X116893999Y-132551022D01*
X116894000Y-132551015D01*
X116894000Y-132237954D01*
X116914002Y-132169833D01*
X116967658Y-132123340D01*
X116993799Y-132114708D01*
X117130678Y-132085614D01*
X117310327Y-132005629D01*
X117469420Y-131890041D01*
X117478042Y-131880466D01*
X117584438Y-131762300D01*
X117601004Y-131743902D01*
X117688494Y-131592363D01*
X117739876Y-131543371D01*
X117809589Y-131529934D01*
X117871672Y-131553427D01*
X117969673Y-131624629D01*
X118149322Y-131704614D01*
X118341675Y-131745500D01*
X118538325Y-131745500D01*
X118730678Y-131704614D01*
X118910327Y-131624629D01*
X118937877Y-131604612D01*
X119004741Y-131580754D01*
X119073893Y-131596832D01*
X119121056Y-131643548D01*
X119178994Y-131743900D01*
X119178996Y-131743902D01*
X119310577Y-131890039D01*
X119338388Y-131910245D01*
X119469673Y-132005629D01*
X119649322Y-132085614D01*
X119841675Y-132126500D01*
X120038325Y-132126500D01*
X120230678Y-132085614D01*
X120410327Y-132005629D01*
X120569420Y-131890041D01*
X120672015Y-131776097D01*
X120732460Y-131738858D01*
X120791844Y-131737161D01*
X120831075Y-131745500D01*
X120831079Y-131745500D01*
X121027721Y-131745500D01*
X121027725Y-131745500D01*
X121084748Y-131733379D01*
X121155537Y-131738781D01*
X121204579Y-131772316D01*
X121310577Y-131890039D01*
X121338388Y-131910245D01*
X121469673Y-132005629D01*
X121649322Y-132085614D01*
X121841675Y-132126500D01*
X122038325Y-132126500D01*
X122230678Y-132085614D01*
X122410327Y-132005629D01*
X122477620Y-131956738D01*
X122486118Y-131950564D01*
X122552985Y-131926706D01*
X122560179Y-131926500D01*
X125167439Y-131926500D01*
X125167440Y-131926500D01*
X125309538Y-131898235D01*
X125336418Y-131887101D01*
X125443390Y-131842792D01*
X125563854Y-131762300D01*
X125625177Y-131700977D01*
X129486000Y-131700977D01*
X129486000Y-131976000D01*
X129790000Y-131976000D01*
X130090000Y-131976000D01*
X130393999Y-131976000D01*
X130393999Y-131700986D01*
X130393998Y-131700977D01*
X130379262Y-131626894D01*
X130379262Y-131626892D01*
X130323124Y-131542875D01*
X130239106Y-131486737D01*
X130239105Y-131486736D01*
X130165022Y-131472000D01*
X130090000Y-131472000D01*
X130090000Y-131976000D01*
X129790000Y-131976000D01*
X129790000Y-131471999D01*
X129714982Y-131472000D01*
X129640894Y-131486737D01*
X129640892Y-131486737D01*
X129556875Y-131542875D01*
X129500737Y-131626893D01*
X129500736Y-131626894D01*
X129486000Y-131700977D01*
X125625177Y-131700977D01*
X125666300Y-131659854D01*
X126011300Y-131314854D01*
X126012447Y-131313137D01*
X126091792Y-131194390D01*
X126118539Y-131129816D01*
X126163085Y-131074537D01*
X126230448Y-131052115D01*
X126299240Y-131069673D01*
X126309008Y-131076099D01*
X126310580Y-131077241D01*
X126469673Y-131192829D01*
X126649322Y-131272814D01*
X126841675Y-131313700D01*
X127038325Y-131313700D01*
X127230678Y-131272814D01*
X127410327Y-131192829D01*
X127569420Y-131077241D01*
X127701004Y-130931102D01*
X127799329Y-130760798D01*
X127836381Y-130646764D01*
X127852043Y-130598563D01*
X127892117Y-130539957D01*
X127957513Y-130512320D01*
X127971876Y-130511499D01*
X128058918Y-130511499D01*
X128058920Y-130511499D01*
X128129242Y-130505110D01*
X128152513Y-130497857D01*
X128223497Y-130496686D01*
X128227483Y-130497856D01*
X128250758Y-130505110D01*
X128321079Y-130511500D01*
X128558920Y-130511499D01*
X128629242Y-130505110D01*
X128652513Y-130497857D01*
X128723497Y-130496686D01*
X128727483Y-130497856D01*
X128750758Y-130505110D01*
X128821079Y-130511500D01*
X129058920Y-130511499D01*
X129129242Y-130505110D01*
X129291072Y-130454681D01*
X129436132Y-130366990D01*
X129555990Y-130247132D01*
X129643681Y-130102072D01*
X129694110Y-129940242D01*
X129700500Y-129869921D01*
X129700499Y-129182080D01*
X129694110Y-129111758D01*
X129643681Y-128949928D01*
X129643678Y-128949923D01*
X129636724Y-128938418D01*
X129618602Y-128869774D01*
X129640468Y-128802228D01*
X129660253Y-128779592D01*
X129661424Y-128778537D01*
X129736104Y-128695596D01*
X129793004Y-128632402D01*
X129891329Y-128462098D01*
X129952097Y-128275073D01*
X129972653Y-128079500D01*
X129952097Y-127883927D01*
X129905798Y-127741435D01*
X129903771Y-127670470D01*
X129927120Y-127623943D01*
X129962623Y-127579426D01*
X130040401Y-127417916D01*
X130080291Y-127243148D01*
X130080291Y-127063885D01*
X130040401Y-126889117D01*
X129962623Y-126727607D01*
X129878886Y-126622605D01*
X129878878Y-126622596D01*
X129536403Y-126280121D01*
X129536393Y-126280112D01*
X129431394Y-126196378D01*
X129431393Y-126196377D01*
X129375430Y-126169427D01*
X129269883Y-126118599D01*
X129111773Y-126082511D01*
X129049813Y-126047853D01*
X129016426Y-125985197D01*
X129022213Y-125914436D01*
X129065337Y-125858038D01*
X129065540Y-125857889D01*
X129153420Y-125794041D01*
X129285004Y-125647902D01*
X129383329Y-125477598D01*
X129444097Y-125290573D01*
X129464653Y-125095000D01*
X129444097Y-124899427D01*
X129424030Y-124837666D01*
X129383331Y-124712407D01*
X129383327Y-124712399D01*
X129285005Y-124542099D01*
X129285003Y-124542097D01*
X129153422Y-124395960D01*
X128994327Y-124280371D01*
X128814678Y-124200386D01*
X128622325Y-124159500D01*
X128425675Y-124159500D01*
X128233324Y-124200385D01*
X128233322Y-124200386D01*
X128057348Y-124278735D01*
X127986982Y-124288169D01*
X127922685Y-124258063D01*
X127884871Y-124197974D01*
X127885547Y-124126980D01*
X127886267Y-124124692D01*
X127901402Y-124078111D01*
X127920097Y-124020573D01*
X127940653Y-123825000D01*
X127920097Y-123629427D01*
X127885329Y-123522422D01*
X127859331Y-123442407D01*
X127859327Y-123442399D01*
X127761005Y-123272099D01*
X127761003Y-123272097D01*
X127629422Y-123125960D01*
X127470327Y-123010371D01*
X127290678Y-122930386D01*
X127098325Y-122889500D01*
X126901675Y-122889500D01*
X126709324Y-122930385D01*
X126709322Y-122930386D01*
X126529674Y-123010371D01*
X126529672Y-123010371D01*
X126523642Y-123013057D01*
X126522631Y-123010788D01*
X126471440Y-123024500D01*
X123270147Y-123024500D01*
X123229339Y-123015454D01*
X123228736Y-123017275D01*
X123055794Y-122959967D01*
X123055782Y-122959965D01*
X122953351Y-122949500D01*
X122378656Y-122949500D01*
X122276211Y-122959965D01*
X122110233Y-123014965D01*
X121961405Y-123106763D01*
X121961399Y-123106768D01*
X121837768Y-123230399D01*
X121837763Y-123230405D01*
X121745965Y-123379233D01*
X121690967Y-123545205D01*
X121690965Y-123545217D01*
X121680500Y-123647648D01*
X121680500Y-123762478D01*
X121660498Y-123830599D01*
X121606842Y-123877092D01*
X121536568Y-123887196D01*
X121471988Y-123857702D01*
X121465405Y-123851573D01*
X121370600Y-123756768D01*
X121370594Y-123756763D01*
X121221770Y-123664967D01*
X121221766Y-123664965D01*
X121221765Y-123664965D01*
X121215584Y-123662082D01*
X121162301Y-123615162D01*
X121142844Y-123546884D01*
X121149005Y-123508961D01*
X121182063Y-123407219D01*
X121212797Y-123357066D01*
X121260138Y-123309727D01*
X121346101Y-123181074D01*
X121405314Y-123038122D01*
X121422942Y-122949500D01*
X121435500Y-122886366D01*
X121435500Y-122731635D01*
X121435500Y-122672126D01*
X121455502Y-122604005D01*
X121472402Y-122583033D01*
X121484449Y-122570987D01*
X121502056Y-122542964D01*
X121555234Y-122495927D01*
X121608744Y-122484000D01*
X121635000Y-122484000D01*
X121935000Y-122484000D01*
X122029686Y-122484000D01*
X122125461Y-122468831D01*
X122240901Y-122410012D01*
X122332512Y-122318401D01*
X122391331Y-122202961D01*
X122406500Y-122107186D01*
X122406500Y-122070000D01*
X121935000Y-122070000D01*
X121935000Y-122484000D01*
X121635000Y-122484000D01*
X121635000Y-122279605D01*
X121637315Y-122259053D01*
X121637264Y-122259048D01*
X121638056Y-122252018D01*
X121638057Y-122252016D01*
X121653000Y-122119394D01*
X121653000Y-121770000D01*
X121935000Y-121770000D01*
X122406500Y-121770000D01*
X122406500Y-121732813D01*
X122391331Y-121637038D01*
X122332512Y-121521598D01*
X122240901Y-121429987D01*
X122125461Y-121371168D01*
X122029686Y-121356000D01*
X121935000Y-121356000D01*
X121935000Y-121770000D01*
X121653000Y-121770000D01*
X121653000Y-121720606D01*
X121648435Y-121680095D01*
X121637265Y-121580954D01*
X121637316Y-121580948D01*
X121635000Y-121560392D01*
X121635000Y-121356000D01*
X121608744Y-121356000D01*
X121540623Y-121335998D01*
X121502056Y-121297035D01*
X121490167Y-121278114D01*
X121484449Y-121269013D01*
X121484448Y-121269012D01*
X121484447Y-121269010D01*
X121358489Y-121143052D01*
X121358486Y-121143050D01*
X121207657Y-121048278D01*
X121207655Y-121048277D01*
X121039516Y-120989443D01*
X120923735Y-120976397D01*
X120906895Y-120974500D01*
X120906894Y-120974500D01*
X120393106Y-120974500D01*
X120393105Y-120974500D01*
X120373814Y-120976673D01*
X120260484Y-120989443D01*
X120260481Y-120989443D01*
X120260481Y-120989444D01*
X120092344Y-121048277D01*
X120092342Y-121048278D01*
X119985858Y-121115187D01*
X119918822Y-121134500D01*
X118554000Y-121134500D01*
X118485879Y-121114498D01*
X118439386Y-121060842D01*
X118428000Y-121008500D01*
X118428000Y-119286139D01*
X118427999Y-119286135D01*
X118391377Y-119102020D01*
X118319538Y-118928585D01*
X118215243Y-118772498D01*
X118082502Y-118639757D01*
X117489784Y-118047039D01*
X116812507Y-117369761D01*
X116812501Y-117369756D01*
X116760709Y-117335149D01*
X116656415Y-117265462D01*
X116482980Y-117193623D01*
X116298864Y-117157000D01*
X116298862Y-117157000D01*
X115381935Y-117157000D01*
X115313814Y-117136998D01*
X115292840Y-117120095D01*
X114654905Y-116482160D01*
X114620879Y-116419848D01*
X114618000Y-116393065D01*
X114618000Y-115979303D01*
X114638002Y-115911182D01*
X114691658Y-115864689D01*
X114761932Y-115854585D01*
X114768545Y-115855717D01*
X114842861Y-115870500D01*
X122647139Y-115870500D01*
X122827875Y-115834549D01*
X122998125Y-115764029D01*
X123147498Y-115664220D01*
X123215251Y-115643006D01*
X123283718Y-115661789D01*
X123331161Y-115714606D01*
X123343500Y-115768986D01*
X123343500Y-116719054D01*
X123323498Y-116787175D01*
X123319440Y-116793109D01*
X123317998Y-116795093D01*
X123219671Y-116965400D01*
X123219668Y-116965407D01*
X123158904Y-117152421D01*
X123158903Y-117152425D01*
X123158903Y-117152427D01*
X123138347Y-117348000D01*
X123152221Y-117480004D01*
X123158904Y-117543578D01*
X123219668Y-117730592D01*
X123219672Y-117730600D01*
X123317994Y-117900900D01*
X123317996Y-117900902D01*
X123449577Y-118047039D01*
X123496586Y-118081193D01*
X123539940Y-118137415D01*
X123546015Y-118208151D01*
X123512884Y-118270943D01*
X123511620Y-118272224D01*
X123237029Y-118546815D01*
X123174717Y-118580841D01*
X123174132Y-118580966D01*
X123026327Y-118612383D01*
X122846669Y-118692373D01*
X122687577Y-118807960D01*
X122555996Y-118954097D01*
X122555994Y-118954099D01*
X122457672Y-119124399D01*
X122457668Y-119124407D01*
X122396904Y-119311421D01*
X122396903Y-119311425D01*
X122396903Y-119311427D01*
X122376347Y-119507000D01*
X122392697Y-119662561D01*
X122396904Y-119702578D01*
X122457668Y-119889592D01*
X122457672Y-119889600D01*
X122555994Y-120059900D01*
X122555996Y-120059902D01*
X122687577Y-120206039D01*
X122687580Y-120206041D01*
X122846673Y-120321629D01*
X123026322Y-120401614D01*
X123218675Y-120442500D01*
X123415325Y-120442500D01*
X123607678Y-120401614D01*
X123787327Y-120321629D01*
X123946420Y-120206041D01*
X124078004Y-120059902D01*
X124176329Y-119889598D01*
X124237097Y-119702573D01*
X124241302Y-119662560D01*
X124268314Y-119596904D01*
X124277499Y-119586653D01*
X125983800Y-117880354D01*
X129476300Y-114387854D01*
X129545736Y-114318417D01*
X129608044Y-114284395D01*
X129678860Y-114289459D01*
X129735696Y-114332005D01*
X129760507Y-114398525D01*
X129745416Y-114467900D01*
X129743948Y-114470514D01*
X129696670Y-114552402D01*
X129696668Y-114552407D01*
X129635904Y-114739421D01*
X129635903Y-114739425D01*
X129635903Y-114739427D01*
X129615347Y-114935000D01*
X129626211Y-115038366D01*
X129635904Y-115130578D01*
X129696668Y-115317592D01*
X129696672Y-115317600D01*
X129794994Y-115487900D01*
X129794996Y-115487902D01*
X129926577Y-115634039D01*
X129926580Y-115634041D01*
X130085673Y-115749629D01*
X130265322Y-115829614D01*
X130457675Y-115870500D01*
X130654325Y-115870500D01*
X130846678Y-115829614D01*
X131026327Y-115749629D01*
X131185420Y-115634041D01*
X131317004Y-115487902D01*
X131415329Y-115317598D01*
X131476097Y-115130573D01*
X131496653Y-114935000D01*
X132409347Y-114935000D01*
X132420211Y-115038366D01*
X132429904Y-115130578D01*
X132490668Y-115317592D01*
X132490672Y-115317600D01*
X132588994Y-115487900D01*
X132588996Y-115487902D01*
X132720577Y-115634039D01*
X132720580Y-115634041D01*
X132879673Y-115749629D01*
X133059322Y-115829614D01*
X133251675Y-115870500D01*
X133448325Y-115870500D01*
X133640678Y-115829614D01*
X133820327Y-115749629D01*
X133979420Y-115634041D01*
X134111004Y-115487902D01*
X134193122Y-115345668D01*
X134244504Y-115296676D01*
X134314217Y-115283239D01*
X134380128Y-115309626D01*
X134418649Y-115360450D01*
X134425968Y-115378119D01*
X134425970Y-115378124D01*
X134425971Y-115378125D01*
X134528350Y-115531346D01*
X134658654Y-115661650D01*
X134811875Y-115764029D01*
X134982125Y-115834549D01*
X135162861Y-115870500D01*
X142967139Y-115870500D01*
X143147875Y-115834549D01*
X143318125Y-115764029D01*
X143471346Y-115661650D01*
X143601650Y-115531346D01*
X143704029Y-115378125D01*
X143774549Y-115207875D01*
X143810500Y-115027139D01*
X143810500Y-114842861D01*
X143774549Y-114662125D01*
X143704029Y-114491875D01*
X143601650Y-114338654D01*
X143471346Y-114208350D01*
X143318125Y-114105971D01*
X143210766Y-114061501D01*
X143147878Y-114035452D01*
X143147875Y-114035451D01*
X142967142Y-113999500D01*
X142967139Y-113999500D01*
X142914562Y-113999500D01*
X135302595Y-113999500D01*
X135255000Y-113999500D01*
X135162861Y-113999500D01*
X135162857Y-113999500D01*
X134982124Y-114035451D01*
X134982121Y-114035452D01*
X134811875Y-114105971D01*
X134658658Y-114208347D01*
X134658651Y-114208352D01*
X134528352Y-114338651D01*
X134528347Y-114338658D01*
X134425971Y-114491874D01*
X134418649Y-114509551D01*
X134374099Y-114564831D01*
X134306735Y-114587250D01*
X134237944Y-114569690D01*
X134193122Y-114524330D01*
X134111005Y-114382099D01*
X134111003Y-114382097D01*
X133979422Y-114235960D01*
X133820327Y-114120371D01*
X133640678Y-114040386D01*
X133448325Y-113999500D01*
X133251675Y-113999500D01*
X133059324Y-114040385D01*
X132879669Y-114120373D01*
X132720577Y-114235960D01*
X132588996Y-114382097D01*
X132588994Y-114382099D01*
X132490672Y-114552399D01*
X132490668Y-114552407D01*
X132429904Y-114739421D01*
X132429903Y-114739425D01*
X132429903Y-114739427D01*
X132409347Y-114935000D01*
X131496653Y-114935000D01*
X131476097Y-114739427D01*
X131426652Y-114587250D01*
X131415331Y-114552407D01*
X131415327Y-114552399D01*
X131399121Y-114524330D01*
X131326488Y-114398525D01*
X131317005Y-114382099D01*
X131317003Y-114382097D01*
X131185422Y-114235960D01*
X131026327Y-114120371D01*
X130846678Y-114040386D01*
X130654325Y-113999500D01*
X130457675Y-113999500D01*
X130265324Y-114040385D01*
X130090460Y-114118240D01*
X130020093Y-114127674D01*
X129955796Y-114097568D01*
X129917982Y-114037479D01*
X129918658Y-113966485D01*
X129950114Y-113914039D01*
X130111300Y-113752854D01*
X130191792Y-113632390D01*
X130230807Y-113538200D01*
X130247236Y-113498537D01*
X130275500Y-113356440D01*
X130275500Y-113211559D01*
X130275500Y-110737945D01*
X130295502Y-110669824D01*
X130299569Y-110663877D01*
X130301000Y-110661905D01*
X130301004Y-110661902D01*
X130399329Y-110491598D01*
X130460097Y-110304573D01*
X130464302Y-110264561D01*
X130491314Y-110198905D01*
X130500507Y-110188645D01*
X130950750Y-109738404D01*
X131013062Y-109704379D01*
X131039845Y-109701500D01*
X132787439Y-109701500D01*
X132787440Y-109701500D01*
X132929538Y-109673235D01*
X133038540Y-109628085D01*
X133063390Y-109617792D01*
X133183854Y-109537300D01*
X133286300Y-109434854D01*
X134379749Y-108341405D01*
X134442061Y-108307379D01*
X134468844Y-108304500D01*
X136978439Y-108304500D01*
X136978440Y-108304500D01*
X137120538Y-108276235D01*
X137141863Y-108267402D01*
X137254390Y-108220792D01*
X137374854Y-108140300D01*
X137477300Y-108037854D01*
X139572800Y-105942354D01*
X139587621Y-105920173D01*
X139653292Y-105821890D01*
X139688853Y-105736038D01*
X139688854Y-105736038D01*
X139708734Y-105688043D01*
X139708734Y-105688040D01*
X139708736Y-105688037D01*
X139737000Y-105545940D01*
X139737000Y-105401059D01*
X139737000Y-104536979D01*
X139757002Y-104468858D01*
X139810658Y-104422365D01*
X139880932Y-104412261D01*
X139945512Y-104441755D01*
X139952095Y-104447884D01*
X146285265Y-110781054D01*
X146387711Y-110883500D01*
X146508175Y-110963992D01*
X146632411Y-111015452D01*
X146642027Y-111019435D01*
X146784125Y-111047700D01*
X146929005Y-111047700D01*
X150636821Y-111047700D01*
X150704942Y-111067702D01*
X150710882Y-111071764D01*
X150786668Y-111126826D01*
X150786670Y-111126827D01*
X150786673Y-111126829D01*
X150966322Y-111206814D01*
X151158675Y-111247700D01*
X151355325Y-111247700D01*
X151547678Y-111206814D01*
X151727327Y-111126829D01*
X151803118Y-111071764D01*
X151869985Y-111047906D01*
X151877179Y-111047700D01*
X153036000Y-111047700D01*
X153104121Y-111067702D01*
X153150614Y-111121358D01*
X153162000Y-111173700D01*
X153162000Y-113873500D01*
X153141998Y-113941621D01*
X153088342Y-113988114D01*
X153036000Y-113999500D01*
X145322857Y-113999500D01*
X145142124Y-114035451D01*
X145142121Y-114035452D01*
X144971875Y-114105971D01*
X144818658Y-114208347D01*
X144818651Y-114208352D01*
X144688352Y-114338651D01*
X144688347Y-114338658D01*
X144585971Y-114491875D01*
X144515452Y-114662121D01*
X144515451Y-114662124D01*
X144479500Y-114842857D01*
X144479500Y-115027142D01*
X144501010Y-115135277D01*
X144515451Y-115207875D01*
X144585971Y-115378125D01*
X144688350Y-115531346D01*
X144818654Y-115661650D01*
X144971875Y-115764029D01*
X145142125Y-115834549D01*
X145322861Y-115870500D01*
X153127139Y-115870500D01*
X153307875Y-115834549D01*
X153310183Y-115833592D01*
X153312630Y-115833105D01*
X153313797Y-115832752D01*
X153313831Y-115832866D01*
X153358404Y-115824000D01*
X155251596Y-115824000D01*
X155296168Y-115832866D01*
X155296203Y-115832752D01*
X155297369Y-115833105D01*
X155299816Y-115833592D01*
X155302125Y-115834549D01*
X155482861Y-115870500D01*
X163287139Y-115870500D01*
X163467875Y-115834549D01*
X163470183Y-115833592D01*
X163472630Y-115833105D01*
X163473797Y-115832752D01*
X163473831Y-115832866D01*
X163518404Y-115824000D01*
X164339000Y-115824000D01*
X164407121Y-115844002D01*
X164453614Y-115897658D01*
X164465000Y-115950000D01*
X164465000Y-138058812D01*
X164464393Y-138071163D01*
X164447001Y-138247738D01*
X164442183Y-138271962D01*
X164392482Y-138435808D01*
X164383029Y-138458629D01*
X164302318Y-138609627D01*
X164288595Y-138630165D01*
X164179979Y-138762514D01*
X164162514Y-138779979D01*
X164030165Y-138888595D01*
X164009627Y-138902318D01*
X163858629Y-138983029D01*
X163835808Y-138992482D01*
X163671962Y-139042183D01*
X163647738Y-139047001D01*
X163499273Y-139061624D01*
X163471161Y-139064393D01*
X163458813Y-139065000D01*
X77841187Y-139065000D01*
X77828838Y-139064393D01*
X77796095Y-139061168D01*
X77652261Y-139047001D01*
X77628037Y-139042183D01*
X77464191Y-138992482D01*
X77441372Y-138983030D01*
X77393011Y-138957180D01*
X77290372Y-138902318D01*
X77269834Y-138888595D01*
X77137485Y-138779979D01*
X77120020Y-138762514D01*
X77011404Y-138630165D01*
X76997681Y-138609627D01*
X76984064Y-138584153D01*
X76916967Y-138458622D01*
X76907520Y-138435815D01*
X76857815Y-138271959D01*
X76852998Y-138247737D01*
X76835607Y-138071162D01*
X76835000Y-138058812D01*
X76835000Y-128627940D01*
X105900913Y-128627940D01*
X106041061Y-128768088D01*
X106041071Y-128768097D01*
X106088077Y-128805979D01*
X106219908Y-128866183D01*
X106219911Y-128866184D01*
X106363358Y-128886809D01*
X106363364Y-128886809D01*
X106506810Y-128866184D01*
X106506813Y-128866183D01*
X106638645Y-128805979D01*
X106638650Y-128805975D01*
X106685642Y-128768105D01*
X106685659Y-128768090D01*
X106825808Y-128627941D01*
X106825808Y-128627940D01*
X106363362Y-128165494D01*
X106363361Y-128165494D01*
X105900913Y-128627940D01*
X76835000Y-128627940D01*
X76835000Y-119330896D01*
X77260716Y-119330896D01*
X77260716Y-119491456D01*
X77260717Y-119491466D01*
X77300646Y-119646977D01*
X77300647Y-119646981D01*
X77377996Y-119787677D01*
X77378001Y-119787685D01*
X77388649Y-119800152D01*
X77401467Y-119815160D01*
X78199340Y-120613031D01*
X78199355Y-120613044D01*
X78226815Y-120636498D01*
X78226815Y-120636499D01*
X78226817Y-120636500D01*
X78367520Y-120713853D01*
X78523041Y-120753784D01*
X78523044Y-120753784D01*
X78683603Y-120753784D01*
X78683606Y-120753784D01*
X78756507Y-120735066D01*
X78839123Y-120713854D01*
X78839123Y-120713853D01*
X78839126Y-120713853D01*
X78979830Y-120636500D01*
X79007307Y-120613033D01*
X80158731Y-119461607D01*
X80182200Y-119434130D01*
X80259553Y-119293426D01*
X80259553Y-119293425D01*
X80263372Y-119286479D01*
X80266132Y-119287996D01*
X80300804Y-119243551D01*
X80367804Y-119220066D01*
X80374294Y-119219899D01*
X81646824Y-119219899D01*
X81714945Y-119239901D01*
X81761438Y-119293557D01*
X81771542Y-119363831D01*
X81768530Y-119378511D01*
X81750685Y-119445105D01*
X81750684Y-119445112D01*
X81750684Y-119445114D01*
X81744600Y-119522419D01*
X81744600Y-119522422D01*
X81744600Y-120146380D01*
X81749084Y-120203362D01*
X81734486Y-120272842D01*
X81684643Y-120323400D01*
X81615378Y-120338985D01*
X81553470Y-120318010D01*
X81485871Y-120272842D01*
X81447437Y-120247161D01*
X81306305Y-120188702D01*
X81156482Y-120158900D01*
X81156480Y-120158900D01*
X81003720Y-120158900D01*
X81003717Y-120158900D01*
X80853894Y-120188702D01*
X80853889Y-120188704D01*
X80712763Y-120247161D01*
X80585748Y-120332029D01*
X80585742Y-120332034D01*
X80477734Y-120440042D01*
X80477729Y-120440048D01*
X80392861Y-120567063D01*
X80334404Y-120708189D01*
X80334402Y-120708194D01*
X80304600Y-120858017D01*
X80304600Y-121010782D01*
X80325231Y-121114498D01*
X80334402Y-121160605D01*
X80392861Y-121301737D01*
X80449568Y-121386605D01*
X80477729Y-121428751D01*
X80477734Y-121428757D01*
X80585742Y-121536765D01*
X80585748Y-121536770D01*
X80712763Y-121621639D01*
X80853895Y-121680098D01*
X81003720Y-121709900D01*
X81003721Y-121709900D01*
X81156479Y-121709900D01*
X81156480Y-121709900D01*
X81306305Y-121680098D01*
X81447437Y-121621639D01*
X81548598Y-121554044D01*
X81616351Y-121532830D01*
X81684818Y-121551613D01*
X81732261Y-121604430D01*
X81744600Y-121658810D01*
X81744600Y-122146379D01*
X81750683Y-122223683D01*
X81798860Y-122403481D01*
X81883367Y-122569336D01*
X81883367Y-122569337D01*
X82000507Y-122713992D01*
X82028278Y-122736480D01*
X82068630Y-122794895D01*
X82070994Y-122865852D01*
X82034621Y-122926823D01*
X82028278Y-122932320D01*
X82000507Y-122954807D01*
X81883367Y-123099462D01*
X81883367Y-123099463D01*
X81798860Y-123265318D01*
X81751409Y-123442407D01*
X81750684Y-123445114D01*
X81750684Y-123445116D01*
X81744600Y-123522422D01*
X81744600Y-124009990D01*
X81724598Y-124078111D01*
X81670942Y-124124604D01*
X81600668Y-124134708D01*
X81548598Y-124114755D01*
X81447437Y-124047161D01*
X81306305Y-123988702D01*
X81156482Y-123958900D01*
X81156480Y-123958900D01*
X81003720Y-123958900D01*
X81003717Y-123958900D01*
X80853894Y-123988702D01*
X80853889Y-123988704D01*
X80712763Y-124047161D01*
X80585748Y-124132029D01*
X80585742Y-124132034D01*
X80477734Y-124240042D01*
X80477729Y-124240048D01*
X80392861Y-124367063D01*
X80334404Y-124508189D01*
X80334402Y-124508194D01*
X80304600Y-124658017D01*
X80304600Y-124810782D01*
X80333249Y-124954808D01*
X80334402Y-124960605D01*
X80392861Y-125101737D01*
X80416619Y-125137293D01*
X80477729Y-125228751D01*
X80477734Y-125228757D01*
X80585742Y-125336765D01*
X80585748Y-125336770D01*
X80712763Y-125421639D01*
X80853895Y-125480098D01*
X81003720Y-125509900D01*
X81003721Y-125509900D01*
X81156479Y-125509900D01*
X81156480Y-125509900D01*
X81306305Y-125480098D01*
X81447437Y-125421639D01*
X81553472Y-125350788D01*
X81621222Y-125329574D01*
X81689689Y-125348357D01*
X81737133Y-125401174D01*
X81749084Y-125465439D01*
X81744600Y-125522419D01*
X81744600Y-126146379D01*
X81750683Y-126223684D01*
X81768530Y-126290289D01*
X81766840Y-126361266D01*
X81727045Y-126420061D01*
X81661781Y-126448009D01*
X81646823Y-126448900D01*
X80374294Y-126448900D01*
X80306173Y-126428898D01*
X80265026Y-126381412D01*
X80263373Y-126382322D01*
X80212777Y-126290289D01*
X80182200Y-126234670D01*
X80182199Y-126234668D01*
X80182198Y-126234667D01*
X80158744Y-126207206D01*
X80158733Y-126207193D01*
X79007307Y-125055769D01*
X78979830Y-125032300D01*
X78979829Y-125032299D01*
X78839125Y-124954946D01*
X78839123Y-124954945D01*
X78683613Y-124915017D01*
X78683607Y-124915016D01*
X78683606Y-124915016D01*
X78523041Y-124915016D01*
X78523039Y-124915016D01*
X78523033Y-124915017D01*
X78367522Y-124954946D01*
X78367518Y-124954947D01*
X78226822Y-125032296D01*
X78226814Y-125032301D01*
X78199353Y-125055755D01*
X78199331Y-125055775D01*
X77401464Y-125853645D01*
X77378001Y-125881115D01*
X77378000Y-125881115D01*
X77300646Y-126021821D01*
X77300646Y-126021822D01*
X77260717Y-126177333D01*
X77260716Y-126177343D01*
X77260716Y-126337903D01*
X77260717Y-126337913D01*
X77300645Y-126493423D01*
X77300647Y-126493427D01*
X77378001Y-126634132D01*
X77400088Y-126659992D01*
X77401467Y-126661607D01*
X78552893Y-127813031D01*
X78566501Y-127824654D01*
X78580370Y-127836500D01*
X78721074Y-127913853D01*
X78721076Y-127913854D01*
X78874954Y-127953363D01*
X78876594Y-127953784D01*
X78876597Y-127953784D01*
X79037156Y-127953784D01*
X79037159Y-127953784D01*
X79192680Y-127913853D01*
X79257900Y-127877997D01*
X79327228Y-127862708D01*
X79393820Y-127887328D01*
X79436529Y-127944041D01*
X79444600Y-127988402D01*
X79444600Y-127998577D01*
X79447434Y-128034602D01*
X79460478Y-128079500D01*
X79492231Y-128188793D01*
X79543597Y-128275649D01*
X79573966Y-128326999D01*
X79573969Y-128327003D01*
X79687496Y-128440530D01*
X79687500Y-128440533D01*
X79687502Y-128440535D01*
X79825707Y-128522269D01*
X79979896Y-128567065D01*
X80015919Y-128569900D01*
X83144280Y-128569899D01*
X83180304Y-128567065D01*
X83334493Y-128522269D01*
X83472698Y-128440535D01*
X83586235Y-128326998D01*
X83667969Y-128188793D01*
X83712765Y-128034604D01*
X83715600Y-127998581D01*
X83715600Y-127953358D01*
X105429914Y-127953358D01*
X105429914Y-127953365D01*
X105450538Y-128096811D01*
X105450539Y-128096814D01*
X105510743Y-128228646D01*
X105510746Y-128228650D01*
X105548623Y-128275651D01*
X105548626Y-128275655D01*
X105688780Y-128415809D01*
X105688781Y-128415809D01*
X106151229Y-127953361D01*
X106575493Y-127953361D01*
X106575493Y-127953363D01*
X107037939Y-128415809D01*
X107037941Y-128415809D01*
X107178092Y-128275657D01*
X107178099Y-128275649D01*
X107215977Y-128228648D01*
X107276182Y-128096814D01*
X107276183Y-128096811D01*
X107296808Y-127953365D01*
X107296808Y-127953358D01*
X107276183Y-127809912D01*
X107276182Y-127809909D01*
X107215978Y-127678077D01*
X107215975Y-127678073D01*
X107178098Y-127631072D01*
X107178095Y-127631068D01*
X107037941Y-127490914D01*
X107037940Y-127490914D01*
X106575493Y-127953361D01*
X106151229Y-127953361D01*
X105688782Y-127490914D01*
X105688780Y-127490914D01*
X105548629Y-127631067D01*
X105510743Y-127678078D01*
X105450539Y-127809909D01*
X105450538Y-127809912D01*
X105429914Y-127953358D01*
X83715600Y-127953358D01*
X83715599Y-127278782D01*
X105900913Y-127278782D01*
X105900913Y-127278783D01*
X106363360Y-127741230D01*
X106363361Y-127741230D01*
X106825808Y-127278782D01*
X106685660Y-127138635D01*
X106685650Y-127138626D01*
X106638644Y-127100744D01*
X106506813Y-127040540D01*
X106506810Y-127040539D01*
X106363364Y-127019915D01*
X106363358Y-127019915D01*
X106219911Y-127040539D01*
X106219908Y-127040540D01*
X106088076Y-127100744D01*
X106088072Y-127100747D01*
X106041079Y-127138617D01*
X105900913Y-127278782D01*
X83715599Y-127278782D01*
X83715599Y-127092391D01*
X83735601Y-127024271D01*
X83789257Y-126977778D01*
X83831715Y-126966780D01*
X83869386Y-126963816D01*
X84049183Y-126915639D01*
X84103520Y-126887953D01*
X108039266Y-126887953D01*
X108039266Y-127017515D01*
X108079299Y-127140729D01*
X108136300Y-127219183D01*
X108136302Y-127219186D01*
X108203251Y-127286135D01*
X108203252Y-127286135D01*
X108495995Y-126993392D01*
X108162595Y-126659992D01*
X108162593Y-126659992D01*
X108136302Y-126686282D01*
X108136299Y-126686285D01*
X108079299Y-126764738D01*
X108039266Y-126887953D01*
X84103520Y-126887953D01*
X84215035Y-126831134D01*
X84359692Y-126713992D01*
X84476834Y-126569335D01*
X84538729Y-126447859D01*
X108374726Y-126447859D01*
X108374726Y-126447861D01*
X108708126Y-126781261D01*
X108708127Y-126781261D01*
X109000869Y-126488518D01*
X109000869Y-126488517D01*
X108933920Y-126421568D01*
X108933917Y-126421566D01*
X108855463Y-126364566D01*
X108855463Y-126364565D01*
X108732249Y-126324532D01*
X108602688Y-126324532D01*
X108479472Y-126364565D01*
X108401019Y-126421565D01*
X108401016Y-126421568D01*
X108374726Y-126447859D01*
X84538729Y-126447859D01*
X84561339Y-126403483D01*
X84609516Y-126223686D01*
X84615600Y-126146381D01*
X84615599Y-125522420D01*
X84609516Y-125445114D01*
X84561339Y-125265317D01*
X84476834Y-125099465D01*
X84473218Y-125095000D01*
X84364386Y-124960605D01*
X84359692Y-124954808D01*
X84350861Y-124947657D01*
X84331923Y-124932321D01*
X84291570Y-124873907D01*
X84289204Y-124802950D01*
X84325576Y-124741978D01*
X84331923Y-124736479D01*
X84346360Y-124724788D01*
X84359692Y-124713992D01*
X84476834Y-124569335D01*
X84561339Y-124403483D01*
X84609516Y-124223686D01*
X84615600Y-124146381D01*
X84615599Y-123522420D01*
X84609516Y-123445114D01*
X84561339Y-123265317D01*
X84476834Y-123099465D01*
X84359692Y-122954808D01*
X84353138Y-122949501D01*
X84331923Y-122932321D01*
X84291570Y-122873907D01*
X84289204Y-122802950D01*
X84325576Y-122741978D01*
X84331923Y-122736479D01*
X84337905Y-122731635D01*
X84359692Y-122713992D01*
X84476834Y-122569335D01*
X84561339Y-122403483D01*
X84609516Y-122223686D01*
X84615600Y-122146381D01*
X84615599Y-121522420D01*
X84609516Y-121445114D01*
X84561339Y-121265317D01*
X84476834Y-121099465D01*
X84445557Y-121060842D01*
X84359690Y-120954806D01*
X84331923Y-120932321D01*
X84291570Y-120873907D01*
X84289204Y-120802950D01*
X84325576Y-120741978D01*
X84331923Y-120736479D01*
X84359692Y-120713992D01*
X84476834Y-120569335D01*
X84561339Y-120403483D01*
X84609516Y-120223686D01*
X84615600Y-120146381D01*
X84615599Y-119522420D01*
X84609516Y-119445114D01*
X84561339Y-119265317D01*
X84476834Y-119099465D01*
X84476832Y-119099462D01*
X84359692Y-118954807D01*
X84215037Y-118837667D01*
X84049181Y-118753160D01*
X83869384Y-118704983D01*
X83869386Y-118704983D01*
X83831711Y-118702018D01*
X83765370Y-118676732D01*
X83723231Y-118619593D01*
X83715599Y-118576412D01*
X83715599Y-117670220D01*
X83712765Y-117634196D01*
X83667969Y-117480007D01*
X83586235Y-117341802D01*
X83586233Y-117341800D01*
X83586230Y-117341796D01*
X83472703Y-117228269D01*
X83472699Y-117228266D01*
X83472698Y-117228265D01*
X83344463Y-117152427D01*
X83334495Y-117146532D01*
X83334494Y-117146531D01*
X83334493Y-117146531D01*
X83236220Y-117117980D01*
X83180302Y-117101734D01*
X83144289Y-117098900D01*
X80015920Y-117098900D01*
X79979897Y-117101734D01*
X79825704Y-117146532D01*
X79687500Y-117228266D01*
X79687496Y-117228269D01*
X79573969Y-117341796D01*
X79573966Y-117341800D01*
X79492232Y-117480004D01*
X79447434Y-117634197D01*
X79444600Y-117670210D01*
X79444600Y-117680387D01*
X79424598Y-117748508D01*
X79370942Y-117795001D01*
X79300668Y-117805105D01*
X79257899Y-117790802D01*
X79192676Y-117754945D01*
X79037166Y-117715017D01*
X79037160Y-117715016D01*
X79037159Y-117715016D01*
X78876594Y-117715016D01*
X78876592Y-117715016D01*
X78876586Y-117715017D01*
X78721076Y-117754945D01*
X78721072Y-117754947D01*
X78580367Y-117832301D01*
X78552906Y-117855755D01*
X78552884Y-117855775D01*
X77401464Y-119007198D01*
X77377999Y-119034670D01*
X77300646Y-119175374D01*
X77300645Y-119175376D01*
X77260717Y-119330886D01*
X77260716Y-119330896D01*
X76835000Y-119330896D01*
X76835000Y-114842857D01*
X77169500Y-114842857D01*
X77169500Y-115027142D01*
X77191010Y-115135277D01*
X77205451Y-115207875D01*
X77275971Y-115378125D01*
X77378350Y-115531346D01*
X77508654Y-115661650D01*
X77661875Y-115764029D01*
X77832125Y-115834549D01*
X78012861Y-115870500D01*
X82007139Y-115870500D01*
X82187875Y-115834549D01*
X82358125Y-115764029D01*
X82511346Y-115661650D01*
X82641650Y-115531346D01*
X82744029Y-115378125D01*
X82814549Y-115207875D01*
X82850500Y-115027139D01*
X82850500Y-114842861D01*
X82850499Y-114842857D01*
X83519500Y-114842857D01*
X83519500Y-115027142D01*
X83541010Y-115135277D01*
X83555451Y-115207875D01*
X83625971Y-115378125D01*
X83728350Y-115531346D01*
X83858654Y-115661650D01*
X84011875Y-115764029D01*
X84182125Y-115834549D01*
X84362861Y-115870500D01*
X92167139Y-115870500D01*
X92347875Y-115834549D01*
X92518125Y-115764029D01*
X92671346Y-115661650D01*
X92801650Y-115531346D01*
X92904029Y-115378125D01*
X92974549Y-115207875D01*
X93010500Y-115027139D01*
X93010500Y-114842861D01*
X93010499Y-114842857D01*
X93679500Y-114842857D01*
X93679500Y-115027142D01*
X93701010Y-115135277D01*
X93715451Y-115207875D01*
X93785971Y-115378125D01*
X93888350Y-115531346D01*
X94018654Y-115661650D01*
X94171875Y-115764029D01*
X94342125Y-115834549D01*
X94522861Y-115870500D01*
X102327139Y-115870500D01*
X102507875Y-115834549D01*
X102678125Y-115764029D01*
X102831346Y-115661650D01*
X102961650Y-115531346D01*
X103064029Y-115378125D01*
X103134549Y-115207875D01*
X103170500Y-115027139D01*
X103170500Y-114842861D01*
X103134549Y-114662125D01*
X103064029Y-114491875D01*
X102961650Y-114338654D01*
X102831346Y-114208350D01*
X102678125Y-114105971D01*
X102570766Y-114061501D01*
X102507878Y-114035452D01*
X102507875Y-114035451D01*
X102327142Y-113999500D01*
X102327139Y-113999500D01*
X102274562Y-113999500D01*
X94662595Y-113999500D01*
X94615000Y-113999500D01*
X94522861Y-113999500D01*
X94522857Y-113999500D01*
X94342124Y-114035451D01*
X94342121Y-114035452D01*
X94171875Y-114105971D01*
X94018658Y-114208347D01*
X94018651Y-114208352D01*
X93888352Y-114338651D01*
X93888347Y-114338658D01*
X93785971Y-114491875D01*
X93715452Y-114662121D01*
X93715451Y-114662124D01*
X93679500Y-114842857D01*
X93010499Y-114842857D01*
X92974549Y-114662125D01*
X92904029Y-114491875D01*
X92801650Y-114338654D01*
X92671346Y-114208350D01*
X92518125Y-114105971D01*
X92410766Y-114061501D01*
X92347878Y-114035452D01*
X92347875Y-114035451D01*
X92167142Y-113999500D01*
X92167139Y-113999500D01*
X92114562Y-113999500D01*
X84502595Y-113999500D01*
X84455000Y-113999500D01*
X84362861Y-113999500D01*
X84362857Y-113999500D01*
X84182124Y-114035451D01*
X84182121Y-114035452D01*
X84011875Y-114105971D01*
X83858658Y-114208347D01*
X83858651Y-114208352D01*
X83728352Y-114338651D01*
X83728347Y-114338658D01*
X83625971Y-114491875D01*
X83555452Y-114662121D01*
X83555451Y-114662124D01*
X83519500Y-114842857D01*
X82850499Y-114842857D01*
X82814549Y-114662125D01*
X82744029Y-114491875D01*
X82641650Y-114338654D01*
X82511346Y-114208350D01*
X82358125Y-114105971D01*
X82250766Y-114061501D01*
X82187878Y-114035452D01*
X82187875Y-114035451D01*
X82007142Y-113999500D01*
X82007139Y-113999500D01*
X81954562Y-113999500D01*
X78152595Y-113999500D01*
X78105000Y-113999500D01*
X78012861Y-113999500D01*
X78012857Y-113999500D01*
X77832124Y-114035451D01*
X77832121Y-114035452D01*
X77661875Y-114105971D01*
X77508658Y-114208347D01*
X77508651Y-114208352D01*
X77378352Y-114338651D01*
X77378347Y-114338658D01*
X77275971Y-114491875D01*
X77205452Y-114662121D01*
X77205451Y-114662124D01*
X77169500Y-114842857D01*
X76835000Y-114842857D01*
X76835000Y-92384300D01*
X90379582Y-92384300D01*
X90399228Y-92646457D01*
X90457725Y-92902748D01*
X90457727Y-92902753D01*
X90553768Y-93147462D01*
X90553771Y-93147470D01*
X90685209Y-93375126D01*
X90685214Y-93375134D01*
X90796270Y-93514395D01*
X90796272Y-93514395D01*
X91512812Y-92797855D01*
X91555937Y-92862397D01*
X91660403Y-92966863D01*
X91724943Y-93009987D01*
X91007402Y-93727528D01*
X91007402Y-93727529D01*
X91041830Y-93759474D01*
X91259038Y-93907565D01*
X91259038Y-93907566D01*
X91495890Y-94021629D01*
X91495903Y-94021634D01*
X91747093Y-94099115D01*
X91747105Y-94099117D01*
X92007060Y-94138300D01*
X92269940Y-94138300D01*
X92529894Y-94099117D01*
X92529906Y-94099115D01*
X92781096Y-94021634D01*
X92781109Y-94021629D01*
X93017961Y-93907566D01*
X93017961Y-93907565D01*
X93235169Y-93759475D01*
X93235171Y-93759474D01*
X93269596Y-93727530D01*
X93269597Y-93727528D01*
X92552056Y-93009987D01*
X92616597Y-92966863D01*
X92721063Y-92862397D01*
X92764187Y-92797856D01*
X93480726Y-93514395D01*
X93480728Y-93514395D01*
X93591782Y-93375138D01*
X93591788Y-93375130D01*
X93723228Y-93147470D01*
X93723231Y-93147462D01*
X93819272Y-92902753D01*
X93819274Y-92902748D01*
X93877771Y-92646457D01*
X93897417Y-92384300D01*
X93877771Y-92122142D01*
X93819274Y-91865851D01*
X93819272Y-91865846D01*
X93723231Y-91621137D01*
X93723228Y-91621129D01*
X93591788Y-91393469D01*
X93480727Y-91254203D01*
X93480726Y-91254203D01*
X92764186Y-91970742D01*
X92721063Y-91906203D01*
X92616597Y-91801737D01*
X92552055Y-91758612D01*
X93269596Y-91041071D01*
X93269596Y-91041070D01*
X93235169Y-91009125D01*
X93017961Y-90861034D01*
X93017961Y-90861033D01*
X92781109Y-90746970D01*
X92781096Y-90746965D01*
X92529906Y-90669484D01*
X92529894Y-90669482D01*
X92269940Y-90630300D01*
X92007060Y-90630300D01*
X91747105Y-90669482D01*
X91747093Y-90669484D01*
X91495903Y-90746965D01*
X91495890Y-90746970D01*
X91259038Y-90861033D01*
X91259038Y-90861034D01*
X91041837Y-91009120D01*
X91007402Y-91041071D01*
X91724943Y-91758612D01*
X91660403Y-91801737D01*
X91555937Y-91906203D01*
X91512812Y-91970743D01*
X90796272Y-91254203D01*
X90796270Y-91254203D01*
X90685215Y-91393462D01*
X90685212Y-91393467D01*
X90553771Y-91621129D01*
X90553768Y-91621137D01*
X90457727Y-91865846D01*
X90457725Y-91865851D01*
X90399228Y-92122142D01*
X90379582Y-92384300D01*
X76835000Y-92384300D01*
X76835000Y-82285659D01*
X91459600Y-82285659D01*
X91469855Y-82356043D01*
X91469855Y-82356045D01*
X91522932Y-82464615D01*
X91608384Y-82550067D01*
X91716955Y-82603144D01*
X91787340Y-82613399D01*
X91787348Y-82613400D01*
X92788600Y-82613400D01*
X93088600Y-82613400D01*
X94089852Y-82613400D01*
X94089859Y-82613399D01*
X94160242Y-82603144D01*
X94208260Y-82579670D01*
X94278244Y-82567721D01*
X94318940Y-82579670D01*
X94366957Y-82603144D01*
X94437340Y-82613399D01*
X94437348Y-82613400D01*
X95438600Y-82613400D01*
X95738600Y-82613400D01*
X96739852Y-82613400D01*
X96739859Y-82613399D01*
X96810243Y-82603144D01*
X96810245Y-82603144D01*
X96918815Y-82550067D01*
X97004267Y-82464615D01*
X97057344Y-82356045D01*
X97057344Y-82356043D01*
X97067599Y-82285659D01*
X97067600Y-82285651D01*
X97067600Y-81709400D01*
X95738600Y-81709400D01*
X95738600Y-82613400D01*
X95438600Y-82613400D01*
X95438600Y-81709400D01*
X93088600Y-81709400D01*
X93088600Y-82613400D01*
X92788600Y-82613400D01*
X92788600Y-81709400D01*
X91459600Y-81709400D01*
X91459600Y-82285659D01*
X76835000Y-82285659D01*
X76835000Y-80485659D01*
X91459600Y-80485659D01*
X91469855Y-80556043D01*
X91469856Y-80556048D01*
X91493329Y-80604062D01*
X91505278Y-80674046D01*
X91493329Y-80714738D01*
X91469856Y-80762751D01*
X91469855Y-80762756D01*
X91459600Y-80833140D01*
X91459600Y-81409400D01*
X92788600Y-81409400D01*
X93088600Y-81409400D01*
X95438600Y-81409400D01*
X95738600Y-81409400D01*
X97067600Y-81409400D01*
X97067600Y-80833148D01*
X97067599Y-80833140D01*
X97057344Y-80762757D01*
X97033870Y-80714740D01*
X97021921Y-80644756D01*
X97033870Y-80604060D01*
X97057344Y-80556042D01*
X97067599Y-80485659D01*
X97067600Y-80485651D01*
X97067600Y-79909400D01*
X95738600Y-79909400D01*
X95738600Y-81409400D01*
X95438600Y-81409400D01*
X95438600Y-79909400D01*
X93088600Y-79909400D01*
X93088600Y-81409400D01*
X92788600Y-81409400D01*
X92788600Y-79909400D01*
X91459600Y-79909400D01*
X91459600Y-80485659D01*
X76835000Y-80485659D01*
X76835000Y-79033140D01*
X91459600Y-79033140D01*
X91459600Y-79609400D01*
X92788600Y-79609400D01*
X93088600Y-79609400D01*
X95438600Y-79609400D01*
X95738600Y-79609400D01*
X97067600Y-79609400D01*
X97067600Y-79033148D01*
X97067599Y-79033140D01*
X97057344Y-78962756D01*
X97057344Y-78962754D01*
X97004267Y-78854184D01*
X96918815Y-78768732D01*
X96810244Y-78715655D01*
X96739859Y-78705400D01*
X95738600Y-78705400D01*
X95738600Y-79609400D01*
X95438600Y-79609400D01*
X95438600Y-78705400D01*
X94437340Y-78705400D01*
X94366956Y-78715655D01*
X94366951Y-78715656D01*
X94318938Y-78739129D01*
X94248954Y-78751078D01*
X94208262Y-78739129D01*
X94160248Y-78715656D01*
X94160243Y-78715655D01*
X94089859Y-78705400D01*
X93088600Y-78705400D01*
X93088600Y-79609400D01*
X92788600Y-79609400D01*
X92788600Y-78705400D01*
X91787340Y-78705400D01*
X91716956Y-78715655D01*
X91716954Y-78715655D01*
X91608384Y-78768732D01*
X91522932Y-78854184D01*
X91469855Y-78962754D01*
X91469855Y-78962756D01*
X91459600Y-79033140D01*
X76835000Y-79033140D01*
X76835000Y-66215438D01*
X92347664Y-66215438D01*
X92361099Y-66356129D01*
X92361099Y-66356130D01*
X92413625Y-66487333D01*
X92413628Y-66487339D01*
X92500994Y-66598435D01*
X92616122Y-66680417D01*
X92616127Y-66680420D01*
X92671033Y-66701646D01*
X92849262Y-66749403D01*
X92999118Y-66190131D01*
X92391550Y-66027334D01*
X92356738Y-66157260D01*
X92347664Y-66215438D01*
X76835000Y-66215438D01*
X76835000Y-65737556D01*
X92469195Y-65737556D01*
X93076763Y-65900354D01*
X93239837Y-65291750D01*
X93248498Y-65277540D01*
X93405518Y-64691531D01*
X92797950Y-64528734D01*
X92763138Y-64658660D01*
X92754064Y-64716838D01*
X92767499Y-64857529D01*
X92767499Y-64857530D01*
X92820025Y-64988733D01*
X92820028Y-64988739D01*
X92907831Y-65100390D01*
X92934217Y-65166301D01*
X92920781Y-65236015D01*
X92871788Y-65287397D01*
X92855618Y-65295252D01*
X92718322Y-65350217D01*
X92718317Y-65350220D01*
X92607223Y-65437586D01*
X92525241Y-65552713D01*
X92504011Y-65607628D01*
X92504009Y-65607634D01*
X92469195Y-65737556D01*
X76835000Y-65737556D01*
X76835000Y-64238956D01*
X92875595Y-64238956D01*
X93483163Y-64401754D01*
X93646237Y-63793150D01*
X93654898Y-63778940D01*
X93811918Y-63192931D01*
X93204350Y-63030134D01*
X93169538Y-63160060D01*
X93160464Y-63218238D01*
X93173899Y-63358929D01*
X93173899Y-63358930D01*
X93226425Y-63490133D01*
X93226428Y-63490139D01*
X93314231Y-63601790D01*
X93340617Y-63667701D01*
X93327181Y-63737415D01*
X93278188Y-63788797D01*
X93262018Y-63796652D01*
X93124722Y-63851617D01*
X93124717Y-63851620D01*
X93013623Y-63938986D01*
X92931641Y-64054113D01*
X92910411Y-64109028D01*
X92910409Y-64109034D01*
X92875595Y-64238956D01*
X76835000Y-64238956D01*
X76835000Y-62740356D01*
X93281995Y-62740356D01*
X93889563Y-62903154D01*
X94039418Y-62343882D01*
X93861199Y-62296129D01*
X93861193Y-62296128D01*
X93803021Y-62287056D01*
X93803020Y-62287056D01*
X93662332Y-62300490D01*
X93662323Y-62300492D01*
X93531124Y-62353016D01*
X93531117Y-62353020D01*
X93420023Y-62440386D01*
X93338041Y-62555513D01*
X93316811Y-62610428D01*
X93316809Y-62610434D01*
X93281995Y-62740356D01*
X76835000Y-62740356D01*
X76835000Y-52441187D01*
X76835607Y-52428837D01*
X76852998Y-52252262D01*
X76857814Y-52228042D01*
X76907521Y-52064181D01*
X76916965Y-52041380D01*
X76997682Y-51890369D01*
X77011398Y-51869842D01*
X77120025Y-51737479D01*
X77137479Y-51720025D01*
X77269842Y-51611398D01*
X77290369Y-51597682D01*
X77441380Y-51516965D01*
X77464181Y-51507521D01*
X77628042Y-51457814D01*
X77652257Y-51452998D01*
X77828837Y-51435606D01*
X77841187Y-51435000D01*
X156719000Y-51435000D01*
X156787121Y-51455002D01*
G37*
%TD.AperFunction*%
%TA.AperFunction,Conductor*%
G36*
X120704820Y-127099816D02*
G01*
X120814673Y-127179629D01*
X120994322Y-127259614D01*
X121142130Y-127291031D01*
X121204604Y-127324759D01*
X121205029Y-127325183D01*
X121667595Y-127787749D01*
X121701621Y-127850061D01*
X121704500Y-127876844D01*
X121704500Y-128415760D01*
X121684498Y-128483881D01*
X121630842Y-128530374D01*
X121567102Y-128541243D01*
X121558922Y-128540500D01*
X121321082Y-128540500D01*
X121250762Y-128546889D01*
X121250759Y-128546889D01*
X121250758Y-128546890D01*
X121088928Y-128597319D01*
X121088926Y-128597320D01*
X121088924Y-128597320D01*
X121005183Y-128647943D01*
X120936539Y-128666066D01*
X120874817Y-128647943D01*
X120791074Y-128597320D01*
X120791073Y-128597319D01*
X120791072Y-128597319D01*
X120629242Y-128546890D01*
X120629240Y-128546889D01*
X120629238Y-128546889D01*
X120580003Y-128542415D01*
X120558921Y-128540500D01*
X120558918Y-128540500D01*
X120321082Y-128540500D01*
X120250759Y-128546889D01*
X120250755Y-128546890D01*
X120227483Y-128554142D01*
X120156496Y-128555311D01*
X120152517Y-128554142D01*
X120129246Y-128546891D01*
X120129243Y-128546890D01*
X120129242Y-128546890D01*
X120129240Y-128546889D01*
X120129236Y-128546889D01*
X120085271Y-128542894D01*
X120058921Y-128540500D01*
X120058918Y-128540500D01*
X119821081Y-128540500D01*
X119761714Y-128545894D01*
X119692063Y-128532137D01*
X119640907Y-128482908D01*
X119639150Y-128479317D01*
X119639020Y-128479387D01*
X119636101Y-128473926D01*
X119613790Y-128440535D01*
X119550138Y-128345273D01*
X119440727Y-128235862D01*
X119060460Y-127855595D01*
X119026435Y-127793283D01*
X119031500Y-127722467D01*
X119074047Y-127665632D01*
X119140567Y-127640821D01*
X119149556Y-127640500D01*
X119299731Y-127640500D01*
X119324142Y-127638844D01*
X119340422Y-127637740D01*
X119516302Y-127594001D01*
X119678668Y-127513475D01*
X119819927Y-127399927D01*
X119933475Y-127258668D01*
X119948822Y-127227724D01*
X119952396Y-127220518D01*
X120000581Y-127168377D01*
X120065276Y-127150500D01*
X120346364Y-127150500D01*
X120346365Y-127150500D01*
X120498122Y-127120314D01*
X120582545Y-127085344D01*
X120653131Y-127077755D01*
X120704820Y-127099816D01*
G37*
%TD.AperFunction*%
%TA.AperFunction,Conductor*%
G36*
X125859576Y-125915502D02*
G01*
X125906069Y-125969158D01*
X125916173Y-126039432D01*
X125911288Y-126060436D01*
X125869217Y-126189918D01*
X125869217Y-126321064D01*
X125909741Y-126445786D01*
X125967435Y-126525194D01*
X125967437Y-126525197D01*
X126024061Y-126581821D01*
X126024063Y-126581821D01*
X126446913Y-126158971D01*
X126509225Y-126124945D01*
X126580040Y-126130010D01*
X126625103Y-126158971D01*
X126659044Y-126192912D01*
X126693070Y-126255224D01*
X126688005Y-126326039D01*
X126659044Y-126371102D01*
X126236194Y-126793952D01*
X126236194Y-126793954D01*
X126292818Y-126850578D01*
X126296586Y-126853796D01*
X126295516Y-126855048D01*
X126334474Y-126905557D01*
X126340557Y-126976292D01*
X126339906Y-126979318D01*
X126332709Y-127010852D01*
X126332709Y-127190115D01*
X126372599Y-127364883D01*
X126398138Y-127417916D01*
X126450377Y-127526393D01*
X126450378Y-127526394D01*
X126534112Y-127631393D01*
X126534121Y-127631403D01*
X126876596Y-127973878D01*
X126876606Y-127973887D01*
X126952739Y-128034602D01*
X126981607Y-128057623D01*
X127075027Y-128102611D01*
X127127722Y-128150187D01*
X127129474Y-128153128D01*
X127137617Y-128167231D01*
X127154500Y-128230235D01*
X127154500Y-128414500D01*
X127134498Y-128482621D01*
X127080842Y-128529114D01*
X127028501Y-128540500D01*
X126821082Y-128540500D01*
X126750759Y-128546889D01*
X126750755Y-128546890D01*
X126727483Y-128554142D01*
X126656496Y-128555311D01*
X126652517Y-128554142D01*
X126629246Y-128546891D01*
X126629243Y-128546890D01*
X126629242Y-128546890D01*
X126629240Y-128546889D01*
X126629236Y-128546889D01*
X126585271Y-128542894D01*
X126558921Y-128540500D01*
X126558918Y-128540500D01*
X126321082Y-128540500D01*
X126250759Y-128546889D01*
X126250755Y-128546890D01*
X126227483Y-128554142D01*
X126156496Y-128555311D01*
X126152517Y-128554142D01*
X126129246Y-128546891D01*
X126129243Y-128546890D01*
X126129242Y-128546890D01*
X126129240Y-128546889D01*
X126129236Y-128546889D01*
X126085271Y-128542894D01*
X126058921Y-128540500D01*
X126058918Y-128540500D01*
X125821088Y-128540500D01*
X125818014Y-128540779D01*
X125812894Y-128541244D01*
X125743246Y-128527486D01*
X125692090Y-128478255D01*
X125675500Y-128415761D01*
X125675500Y-127590560D01*
X125673155Y-127578773D01*
X125647235Y-127448462D01*
X125591792Y-127314610D01*
X125511300Y-127194146D01*
X125511295Y-127194140D01*
X125359405Y-127042250D01*
X125325379Y-126979938D01*
X125322500Y-126953155D01*
X125322500Y-126549445D01*
X125342502Y-126481324D01*
X125346569Y-126475377D01*
X125348000Y-126473405D01*
X125348004Y-126473402D01*
X125446329Y-126303098D01*
X125507097Y-126116073D01*
X125518421Y-126008327D01*
X125545435Y-125942672D01*
X125603656Y-125902043D01*
X125643731Y-125895500D01*
X125791455Y-125895500D01*
X125859576Y-125915502D01*
G37*
%TD.AperFunction*%
%TA.AperFunction,Conductor*%
G36*
X128718490Y-110614328D02*
G01*
X128775326Y-110656875D01*
X128776379Y-110658303D01*
X128780421Y-110663864D01*
X128804293Y-110730727D01*
X128804500Y-110737945D01*
X128804500Y-112927156D01*
X128784498Y-112995277D01*
X128767595Y-113016251D01*
X128436146Y-113347700D01*
X127259515Y-114524330D01*
X126874392Y-114909453D01*
X126812080Y-114943478D01*
X126741264Y-114938413D01*
X126684429Y-114895866D01*
X126659987Y-114833530D01*
X126650097Y-114739427D01*
X126600652Y-114587250D01*
X126589331Y-114552407D01*
X126589327Y-114552399D01*
X126573121Y-114524330D01*
X126500488Y-114398525D01*
X126491005Y-114382099D01*
X126491003Y-114382097D01*
X126359422Y-114235960D01*
X126200327Y-114120371D01*
X126020678Y-114040386D01*
X125828325Y-113999500D01*
X125631675Y-113999500D01*
X125631673Y-113999500D01*
X125536572Y-114019714D01*
X125465782Y-114014312D01*
X125409149Y-113971495D01*
X125384656Y-113904857D01*
X125400077Y-113835555D01*
X125421278Y-113807374D01*
X126870421Y-112358231D01*
X126932731Y-112324208D01*
X126933180Y-112324110D01*
X127081128Y-112292664D01*
X127260777Y-112212679D01*
X127419870Y-112097091D01*
X127551454Y-111950952D01*
X127649779Y-111780648D01*
X127710547Y-111593623D01*
X127714752Y-111553610D01*
X127741764Y-111487954D01*
X127750958Y-111477694D01*
X128585365Y-110643287D01*
X128647675Y-110609263D01*
X128718490Y-110614328D01*
G37*
%TD.AperFunction*%
%TA.AperFunction,Conductor*%
G36*
X133493137Y-102745896D02*
G01*
X133538200Y-102774857D01*
X133696156Y-102932813D01*
X133696166Y-102932822D01*
X133806042Y-103020446D01*
X133806010Y-103020486D01*
X133822184Y-103033383D01*
X133978638Y-103189838D01*
X134006127Y-103197910D01*
X134031642Y-103219598D01*
X134117577Y-103315039D01*
X134169662Y-103352881D01*
X134276673Y-103430629D01*
X134456322Y-103510614D01*
X134617939Y-103544966D01*
X134648679Y-103551501D01*
X134655237Y-103552190D01*
X134655075Y-103553724D01*
X134715621Y-103571502D01*
X134762114Y-103625158D01*
X134773500Y-103677500D01*
X134773500Y-104291156D01*
X134753498Y-104359277D01*
X134736595Y-104380251D01*
X134728542Y-104388304D01*
X134666230Y-104422330D01*
X134639447Y-104425209D01*
X134620385Y-104425209D01*
X134445617Y-104465099D01*
X134445612Y-104465101D01*
X134284106Y-104542877D01*
X134284105Y-104542878D01*
X134179106Y-104626612D01*
X134179096Y-104626621D01*
X133836621Y-104969096D01*
X133836612Y-104969106D01*
X133752878Y-105074105D01*
X133752877Y-105074106D01*
X133672029Y-105241992D01*
X133670338Y-105241177D01*
X133634454Y-105291207D01*
X133606686Y-105306369D01*
X133607000Y-105307021D01*
X133439114Y-105387869D01*
X133439113Y-105387870D01*
X133334114Y-105471604D01*
X133334104Y-105471613D01*
X132991629Y-105814088D01*
X132991620Y-105814098D01*
X132907886Y-105919097D01*
X132907885Y-105919098D01*
X132830109Y-106080604D01*
X132830107Y-106080609D01*
X132790217Y-106255379D01*
X132790217Y-106274439D01*
X132770215Y-106342560D01*
X132753312Y-106363534D01*
X132320251Y-106796595D01*
X132257939Y-106830621D01*
X132231156Y-106833500D01*
X130547056Y-106833500D01*
X130404961Y-106861765D01*
X130404956Y-106861767D01*
X130271109Y-106917208D01*
X130150645Y-106997699D01*
X129991896Y-107156450D01*
X129991895Y-107156450D01*
X126710479Y-110437865D01*
X126648167Y-110471891D01*
X126647582Y-110472016D01*
X126499777Y-110503433D01*
X126320119Y-110583423D01*
X126161027Y-110699010D01*
X126029446Y-110845147D01*
X126029444Y-110845149D01*
X125931122Y-111015449D01*
X125931121Y-111015452D01*
X125870354Y-111202471D01*
X125870352Y-111202479D01*
X125866146Y-111242491D01*
X125839131Y-111308147D01*
X125829932Y-111318412D01*
X124153069Y-112995277D01*
X123610146Y-113538200D01*
X123558922Y-113589423D01*
X123507699Y-113640646D01*
X123427208Y-113761110D01*
X123371767Y-113894956D01*
X123371765Y-113894961D01*
X123343500Y-114037057D01*
X123343500Y-114101013D01*
X123323498Y-114169134D01*
X123269842Y-114215627D01*
X123199568Y-114225731D01*
X123147499Y-114205778D01*
X122998129Y-114105973D01*
X122998125Y-114105971D01*
X122827878Y-114035452D01*
X122827875Y-114035451D01*
X122647142Y-113999500D01*
X122647139Y-113999500D01*
X122594562Y-113999500D01*
X114982595Y-113999500D01*
X114935000Y-113999500D01*
X114842861Y-113999500D01*
X114842857Y-113999500D01*
X114768582Y-114014275D01*
X114697868Y-114007947D01*
X114641800Y-113964393D01*
X114618181Y-113897441D01*
X114618000Y-113890696D01*
X114618000Y-107221139D01*
X114617999Y-107221135D01*
X114581377Y-107037020D01*
X114509538Y-106863585D01*
X114405243Y-106707498D01*
X114272502Y-106574757D01*
X112749905Y-105052160D01*
X112715879Y-104989848D01*
X112713000Y-104963065D01*
X112713000Y-104131500D01*
X112733002Y-104063379D01*
X112786658Y-104016886D01*
X112839000Y-104005500D01*
X130231800Y-104005500D01*
X130231802Y-104005500D01*
X130408333Y-103977541D01*
X130536629Y-103935853D01*
X130578317Y-103922309D01*
X130737568Y-103841167D01*
X130882164Y-103736111D01*
X131008547Y-103609728D01*
X131068072Y-103550203D01*
X131068074Y-103550199D01*
X131187575Y-103430698D01*
X133128433Y-103430698D01*
X133128433Y-103430700D01*
X133154726Y-103456993D01*
X133233179Y-103513993D01*
X133356394Y-103554026D01*
X133356395Y-103554027D01*
X133485956Y-103554027D01*
X133485956Y-103554026D01*
X133609170Y-103513993D01*
X133609170Y-103513992D01*
X133687622Y-103456994D01*
X133754576Y-103390039D01*
X133461835Y-103097298D01*
X133461833Y-103097298D01*
X133128433Y-103430698D01*
X131187575Y-103430698D01*
X131562501Y-103055773D01*
X131624811Y-103021750D01*
X131676170Y-103021292D01*
X131801898Y-103046301D01*
X131801899Y-103046301D01*
X131957916Y-103046301D01*
X131957936Y-103046300D01*
X132721391Y-103046300D01*
X132789512Y-103066302D01*
X132826010Y-103106646D01*
X132827178Y-103105799D01*
X132890004Y-103192270D01*
X132890009Y-103192276D01*
X132916300Y-103218567D01*
X132916301Y-103218567D01*
X133360009Y-102774857D01*
X133422322Y-102740832D01*
X133493137Y-102745896D01*
G37*
%TD.AperFunction*%
%TA.AperFunction,Conductor*%
G36*
X150958942Y-103041302D02*
G01*
X150964882Y-103045364D01*
X151040668Y-103100426D01*
X151040670Y-103100427D01*
X151040673Y-103100429D01*
X151220322Y-103180414D01*
X151412675Y-103221300D01*
X151609325Y-103221300D01*
X151801678Y-103180414D01*
X151981327Y-103100429D01*
X152028299Y-103066302D01*
X152057118Y-103045364D01*
X152123985Y-103021506D01*
X152131179Y-103021300D01*
X152627356Y-103021300D01*
X152695477Y-103041302D01*
X152716451Y-103058205D01*
X153125095Y-103466849D01*
X153159121Y-103529161D01*
X153162000Y-103555944D01*
X153162000Y-105489774D01*
X153141998Y-105557895D01*
X153088342Y-105604388D01*
X153087252Y-105604879D01*
X153072678Y-105611368D01*
X153072671Y-105611372D01*
X152913577Y-105726960D01*
X152781996Y-105873097D01*
X152781994Y-105873099D01*
X152683672Y-106043399D01*
X152683668Y-106043407D01*
X152622904Y-106230421D01*
X152622903Y-106230425D01*
X152622903Y-106230427D01*
X152602347Y-106426000D01*
X152617982Y-106574758D01*
X152622904Y-106621578D01*
X152683668Y-106808592D01*
X152683672Y-106808600D01*
X152781994Y-106978900D01*
X152781996Y-106978902D01*
X152913577Y-107125039D01*
X153072670Y-107240627D01*
X153072669Y-107240627D01*
X153087248Y-107247118D01*
X153141344Y-107293097D01*
X153161994Y-107361024D01*
X153162000Y-107362225D01*
X153162000Y-109450700D01*
X153141998Y-109518821D01*
X153088342Y-109565314D01*
X153036000Y-109576700D01*
X151877179Y-109576700D01*
X151809058Y-109556698D01*
X151803118Y-109552636D01*
X151727331Y-109497573D01*
X151586462Y-109434854D01*
X151547678Y-109417586D01*
X151355325Y-109376700D01*
X151158675Y-109376700D01*
X150966324Y-109417585D01*
X150786669Y-109497573D01*
X150710883Y-109552636D01*
X150644016Y-109576494D01*
X150636822Y-109576700D01*
X147213409Y-109576700D01*
X147145288Y-109556698D01*
X147124314Y-109539795D01*
X140820914Y-103236395D01*
X140786888Y-103174083D01*
X140791953Y-103103268D01*
X140834500Y-103046432D01*
X140901020Y-103021621D01*
X140910009Y-103021300D01*
X150890821Y-103021300D01*
X150958942Y-103041302D01*
G37*
%TD.AperFunction*%
%TA.AperFunction,Conductor*%
G36*
X111834012Y-93986975D02*
G01*
X111840595Y-93993104D01*
X112309105Y-94461614D01*
X112309134Y-94461645D01*
X112418203Y-94570714D01*
X112418209Y-94570719D01*
X112542768Y-94653947D01*
X112681170Y-94711275D01*
X112828097Y-94740500D01*
X112828098Y-94740500D01*
X112977902Y-94740500D01*
X132119200Y-94740500D01*
X132187321Y-94760502D01*
X132208295Y-94777405D01*
X132444695Y-95013805D01*
X132478721Y-95076117D01*
X132473656Y-95146932D01*
X132431109Y-95203768D01*
X132364589Y-95228579D01*
X132355600Y-95228900D01*
X132235675Y-95228900D01*
X132043324Y-95269785D01*
X131863669Y-95349773D01*
X131704577Y-95465360D01*
X131572996Y-95611497D01*
X131572994Y-95611499D01*
X131474672Y-95781799D01*
X131474668Y-95781807D01*
X131413904Y-95968821D01*
X131413903Y-95968825D01*
X131413903Y-95968827D01*
X131393347Y-96164400D01*
X131409500Y-96318084D01*
X131413904Y-96359978D01*
X131474668Y-96546992D01*
X131474672Y-96547000D01*
X131572994Y-96717300D01*
X131572996Y-96717302D01*
X131704577Y-96863439D01*
X131704580Y-96863441D01*
X131863673Y-96979029D01*
X132043322Y-97059014D01*
X132235675Y-97099900D01*
X132432322Y-97099900D01*
X132432325Y-97099900D01*
X132467466Y-97092430D01*
X132538252Y-97097830D01*
X132594886Y-97140646D01*
X132600347Y-97148638D01*
X132602573Y-97152181D01*
X132686307Y-97257179D01*
X132686316Y-97257189D01*
X132975758Y-97546631D01*
X132975767Y-97546639D01*
X133080769Y-97630376D01*
X133242279Y-97708154D01*
X133417047Y-97748044D01*
X133417050Y-97748044D01*
X133596307Y-97748044D01*
X133596310Y-97748044D01*
X133678339Y-97729321D01*
X133749201Y-97733663D01*
X133806468Y-97775628D01*
X133817737Y-97797085D01*
X133819107Y-97796388D01*
X133823609Y-97805225D01*
X133880604Y-97883670D01*
X133880609Y-97883676D01*
X133906900Y-97909967D01*
X133906901Y-97909967D01*
X134267173Y-97549694D01*
X134329486Y-97515669D01*
X134400301Y-97520733D01*
X134457137Y-97563280D01*
X134481948Y-97629800D01*
X134476102Y-97677725D01*
X134461904Y-97721422D01*
X134461903Y-97721426D01*
X134459777Y-97741647D01*
X134432762Y-97807302D01*
X134423564Y-97817566D01*
X134119033Y-98122098D01*
X134119033Y-98122100D01*
X134145326Y-98148393D01*
X134223779Y-98205393D01*
X134346994Y-98245426D01*
X134346995Y-98245427D01*
X134418649Y-98245427D01*
X134486770Y-98265429D01*
X134527768Y-98308427D01*
X134620994Y-98469900D01*
X134620996Y-98469902D01*
X134693363Y-98550275D01*
X134716135Y-98586366D01*
X134730205Y-98620333D01*
X134730207Y-98620338D01*
X134755815Y-98658662D01*
X134769512Y-98679162D01*
X134774949Y-98687298D01*
X134796164Y-98755051D01*
X134777381Y-98823518D01*
X134724564Y-98870961D01*
X134670184Y-98883300D01*
X134270490Y-98883300D01*
X134252263Y-98881975D01*
X134226430Y-98878198D01*
X134226422Y-98878197D01*
X134203026Y-98877741D01*
X134195999Y-98877407D01*
X134182250Y-98876369D01*
X134175312Y-98875652D01*
X134160799Y-98873744D01*
X134154015Y-98872663D01*
X134143286Y-98870652D01*
X134138479Y-98869751D01*
X134131893Y-98868333D01*
X134114943Y-98864207D01*
X134108607Y-98862489D01*
X134090042Y-98856931D01*
X134083985Y-98854949D01*
X134063582Y-98847698D01*
X134057847Y-98845501D01*
X134042384Y-98839141D01*
X134011758Y-98821126D01*
X133930657Y-98756450D01*
X133930655Y-98756449D01*
X133930652Y-98756447D01*
X133770167Y-98679162D01*
X133770163Y-98679160D01*
X133596493Y-98639521D01*
X133418356Y-98639521D01*
X133418353Y-98639521D01*
X133386088Y-98646885D01*
X133315225Y-98642542D01*
X133268957Y-98613139D01*
X133250392Y-98594574D01*
X133250390Y-98594574D01*
X133105863Y-98739101D01*
X133089691Y-98752000D01*
X133089723Y-98752040D01*
X133084194Y-98756448D01*
X133084192Y-98756450D01*
X133052308Y-98781877D01*
X132979844Y-98839665D01*
X132821883Y-98997626D01*
X132759571Y-99031651D01*
X132688755Y-99026586D01*
X132643692Y-98997625D01*
X132199984Y-98553916D01*
X132199983Y-98553916D01*
X132173692Y-98580206D01*
X132173689Y-98580209D01*
X132116689Y-98658662D01*
X132076656Y-98781877D01*
X132076656Y-98889903D01*
X132056654Y-98958024D01*
X132002998Y-99004517D01*
X131932724Y-99014621D01*
X131868144Y-98985127D01*
X131861561Y-98978998D01*
X131803430Y-98920867D01*
X131803428Y-98920867D01*
X131206088Y-99518207D01*
X131143776Y-99552233D01*
X131143190Y-99552359D01*
X131056983Y-99570683D01*
X130986192Y-99565281D01*
X130929560Y-99522464D01*
X130905066Y-99455827D01*
X130920487Y-99386525D01*
X130941691Y-99358340D01*
X130969750Y-99330281D01*
X130524980Y-98885511D01*
X130524979Y-98885511D01*
X130429873Y-98980617D01*
X130429861Y-98980630D01*
X130392925Y-99026465D01*
X130334211Y-99155030D01*
X130314097Y-99294930D01*
X130334209Y-99434815D01*
X130334211Y-99434822D01*
X130347551Y-99464032D01*
X130357654Y-99534306D01*
X130328161Y-99598887D01*
X130268435Y-99637270D01*
X130197438Y-99637270D01*
X130180595Y-99630988D01*
X130168821Y-99625611D01*
X130168815Y-99625609D01*
X130028930Y-99605497D01*
X129889030Y-99625611D01*
X129760465Y-99684325D01*
X129714630Y-99721261D01*
X129714617Y-99721273D01*
X129619511Y-99816379D01*
X129619511Y-99816380D01*
X130064281Y-100261150D01*
X130064282Y-100261150D01*
X130131737Y-100193694D01*
X130194049Y-100159669D01*
X130264865Y-100164733D01*
X130321701Y-100207280D01*
X130346512Y-100273800D01*
X130346143Y-100295960D01*
X130338170Y-100371814D01*
X130311156Y-100437471D01*
X130301956Y-100447738D01*
X130064282Y-100685414D01*
X130064281Y-100685414D01*
X129654867Y-101094828D01*
X129654867Y-101094830D01*
X129785333Y-101225296D01*
X129831176Y-101262238D01*
X129881096Y-101285036D01*
X129934752Y-101331529D01*
X129954754Y-101399649D01*
X129934752Y-101467770D01*
X129917850Y-101488745D01*
X129709002Y-101697595D01*
X129646690Y-101731620D01*
X129619906Y-101734500D01*
X123471500Y-101734500D01*
X123403379Y-101714498D01*
X123356886Y-101660842D01*
X123345500Y-101608500D01*
X123345500Y-100719005D01*
X123345498Y-100718975D01*
X123344266Y-100701578D01*
X123339111Y-100628755D01*
X123296746Y-100473894D01*
X123281849Y-100437930D01*
X129196497Y-100437930D01*
X129216609Y-100577815D01*
X129216611Y-100577822D01*
X129275325Y-100706387D01*
X129312267Y-100752230D01*
X129442734Y-100882697D01*
X129442736Y-100882697D01*
X129852150Y-100473283D01*
X129852150Y-100473281D01*
X129407380Y-100028511D01*
X129407379Y-100028511D01*
X129312273Y-100123617D01*
X129312261Y-100123630D01*
X129275325Y-100169465D01*
X129216611Y-100298030D01*
X129196497Y-100437930D01*
X123281849Y-100437930D01*
X123280637Y-100435003D01*
X123272644Y-100416532D01*
X123230699Y-100348085D01*
X123188756Y-100279640D01*
X123188750Y-100279633D01*
X123073461Y-100167912D01*
X123073459Y-100167910D01*
X123073458Y-100167909D01*
X122954052Y-100099802D01*
X122933992Y-100088360D01*
X122895112Y-100072256D01*
X122895094Y-100072249D01*
X122880366Y-100067336D01*
X122822076Y-100026804D01*
X122798704Y-99981054D01*
X122796746Y-99973894D01*
X122780637Y-99935003D01*
X122772644Y-99916532D01*
X122711270Y-99816379D01*
X122688756Y-99779640D01*
X122688750Y-99779633D01*
X122573461Y-99667912D01*
X122573459Y-99667910D01*
X122573458Y-99667909D01*
X122452448Y-99598887D01*
X122433992Y-99588360D01*
X122395112Y-99572256D01*
X122395110Y-99572255D01*
X122309286Y-99543622D01*
X122309287Y-99543622D01*
X122200567Y-99529888D01*
X122150000Y-99523500D01*
X121450000Y-99523500D01*
X121449995Y-99523500D01*
X121449975Y-99523501D01*
X121359757Y-99529888D01*
X121359748Y-99529890D01*
X121204893Y-99572254D01*
X121166028Y-99588352D01*
X121147531Y-99596356D01*
X121010640Y-99680243D01*
X121010633Y-99680249D01*
X120898912Y-99795538D01*
X120898910Y-99795540D01*
X120819360Y-99935007D01*
X120803256Y-99973887D01*
X120803255Y-99973889D01*
X120774622Y-100059713D01*
X120774621Y-100059718D01*
X120773647Y-100067426D01*
X120745261Y-100132502D01*
X120686200Y-100171900D01*
X120615213Y-100173113D01*
X120554840Y-100135755D01*
X120527107Y-100084876D01*
X120522309Y-100067336D01*
X120496746Y-99973894D01*
X120480637Y-99935003D01*
X120472644Y-99916532D01*
X120411270Y-99816379D01*
X120388756Y-99779640D01*
X120388750Y-99779633D01*
X120273461Y-99667912D01*
X120273459Y-99667910D01*
X120273458Y-99667909D01*
X120152448Y-99598887D01*
X120133992Y-99588360D01*
X120095112Y-99572256D01*
X120095110Y-99572255D01*
X120009286Y-99543622D01*
X120009287Y-99543622D01*
X119900567Y-99529888D01*
X119850000Y-99523500D01*
X119150000Y-99523500D01*
X119149995Y-99523500D01*
X119149975Y-99523501D01*
X119059757Y-99529888D01*
X119059748Y-99529890D01*
X118904893Y-99572254D01*
X118866028Y-99588352D01*
X118847531Y-99596356D01*
X118710640Y-99680243D01*
X118710633Y-99680249D01*
X118598912Y-99795538D01*
X118598910Y-99795540D01*
X118519360Y-99935007D01*
X118503256Y-99973887D01*
X118503248Y-99973909D01*
X118498332Y-99988642D01*
X118457796Y-100046929D01*
X118412068Y-100070291D01*
X118404894Y-100072254D01*
X118366006Y-100088361D01*
X118347531Y-100096356D01*
X118210640Y-100180243D01*
X118210633Y-100180249D01*
X118098912Y-100295538D01*
X118098910Y-100295540D01*
X118019360Y-100435007D01*
X118003256Y-100473887D01*
X118003255Y-100473889D01*
X117974622Y-100559713D01*
X117954500Y-100719000D01*
X117954500Y-101608500D01*
X117934498Y-101676621D01*
X117880842Y-101723114D01*
X117828500Y-101734500D01*
X112282530Y-101734500D01*
X112214409Y-101714498D01*
X112193435Y-101697595D01*
X111662405Y-101166565D01*
X111628379Y-101104253D01*
X111625500Y-101077470D01*
X111625500Y-98673379D01*
X130737111Y-98673379D01*
X130737111Y-98673380D01*
X131181881Y-99118150D01*
X131181883Y-99118150D01*
X131591297Y-98708736D01*
X131591297Y-98708734D01*
X131460830Y-98578267D01*
X131414987Y-98541325D01*
X131286422Y-98482611D01*
X131286415Y-98482609D01*
X131146530Y-98462497D01*
X131006630Y-98482611D01*
X130878065Y-98541325D01*
X130832230Y-98578261D01*
X130832217Y-98578273D01*
X130737111Y-98673379D01*
X111625500Y-98673379D01*
X111625500Y-98341783D01*
X132412116Y-98341783D01*
X132412116Y-98341785D01*
X132745516Y-98675185D01*
X132745517Y-98675185D01*
X133038259Y-98382442D01*
X133038259Y-98382441D01*
X132971310Y-98315492D01*
X132971307Y-98315490D01*
X132892853Y-98258490D01*
X132892853Y-98258489D01*
X132769639Y-98218456D01*
X132640078Y-98218456D01*
X132516862Y-98258489D01*
X132438409Y-98315489D01*
X132438406Y-98315492D01*
X132412116Y-98341783D01*
X111625500Y-98341783D01*
X111625500Y-94082199D01*
X111645502Y-94014078D01*
X111699158Y-93967585D01*
X111769432Y-93957481D01*
X111834012Y-93986975D01*
G37*
%TD.AperFunction*%
%TA.AperFunction,Conductor*%
G36*
X112703612Y-89619835D02*
G01*
X112730219Y-89652059D01*
X112731982Y-89655114D01*
X112731984Y-89655117D01*
X112758366Y-89700812D01*
X112862039Y-89880379D01*
X113024224Y-90083754D01*
X113131674Y-90183451D01*
X113214900Y-90260673D01*
X113214903Y-90260675D01*
X113429807Y-90407195D01*
X113429814Y-90407199D01*
X113429817Y-90407201D01*
X113564923Y-90472265D01*
X113664168Y-90520059D01*
X113664181Y-90520064D01*
X113912727Y-90596730D01*
X113912730Y-90596730D01*
X113912732Y-90596731D01*
X114169942Y-90635500D01*
X114169947Y-90635500D01*
X114430053Y-90635500D01*
X114430058Y-90635500D01*
X114687268Y-90596731D01*
X114687270Y-90596730D01*
X114687272Y-90596730D01*
X114935818Y-90520064D01*
X114935820Y-90520062D01*
X114935827Y-90520061D01*
X115170183Y-90407201D01*
X115204240Y-90383980D01*
X115216927Y-90376381D01*
X115249043Y-90359629D01*
X115283196Y-90340462D01*
X115283200Y-90340460D01*
X115284412Y-90339730D01*
X115284416Y-90339727D01*
X115284425Y-90339722D01*
X115317539Y-90318369D01*
X115485885Y-90202330D01*
X115511878Y-90183434D01*
X115512814Y-90182717D01*
X115538031Y-90162368D01*
X115678985Y-90042610D01*
X115693108Y-90030250D01*
X115693615Y-90029793D01*
X115707266Y-90017124D01*
X115831643Y-89898278D01*
X115831692Y-89898253D01*
X115831682Y-89898242D01*
X115931838Y-89802623D01*
X115938242Y-89796913D01*
X116003507Y-89742593D01*
X116016898Y-89732864D01*
X116058566Y-89706597D01*
X116077774Y-89696682D01*
X116121481Y-89678690D01*
X116142619Y-89672095D01*
X116224921Y-89654173D01*
X116243830Y-89651537D01*
X116429074Y-89639934D01*
X116459241Y-89636369D01*
X116474023Y-89635500D01*
X135685556Y-89635500D01*
X135753677Y-89655502D01*
X135774651Y-89672405D01*
X138380425Y-92278179D01*
X138414451Y-92340491D01*
X138417330Y-92367274D01*
X138417330Y-96024741D01*
X138397328Y-96092862D01*
X138343672Y-96139355D01*
X138273398Y-96149459D01*
X138217270Y-96126678D01*
X138183937Y-96102461D01*
X138138327Y-96069323D01*
X137958678Y-95989338D01*
X137958677Y-95989337D01*
X137958671Y-95989335D01*
X137855766Y-95967462D01*
X137793292Y-95933734D01*
X137792868Y-95933311D01*
X137491269Y-95631712D01*
X137457243Y-95569400D01*
X137456391Y-95520109D01*
X137458141Y-95510470D01*
X137480963Y-95384767D01*
X137469456Y-95224628D01*
X137292680Y-94340744D01*
X137270679Y-94265014D01*
X137262216Y-94235884D01*
X137262215Y-94235883D01*
X137262215Y-94235881D01*
X137186123Y-94094506D01*
X137077264Y-93976495D01*
X136942477Y-93889264D01*
X136790230Y-93838294D01*
X136790218Y-93838291D01*
X135906338Y-93661516D01*
X135906342Y-93661516D01*
X135760617Y-93649395D01*
X135602041Y-93674511D01*
X135454696Y-93738273D01*
X135454694Y-93738274D01*
X135327839Y-93836672D01*
X135327834Y-93836676D01*
X134620725Y-94543784D01*
X134593180Y-94573117D01*
X134501504Y-94708015D01*
X134446671Y-94753113D01*
X134376161Y-94761407D01*
X134312359Y-94730264D01*
X134308197Y-94726287D01*
X133084307Y-93502398D01*
X133084295Y-93502384D01*
X132971196Y-93389285D01*
X132971190Y-93389280D01*
X132929859Y-93361663D01*
X132846632Y-93306053D01*
X132708230Y-93248725D01*
X132561306Y-93219500D01*
X132561303Y-93219500D01*
X113270199Y-93219500D01*
X113202078Y-93199498D01*
X113181104Y-93182595D01*
X112532005Y-92533496D01*
X112497979Y-92471184D01*
X112495100Y-92444401D01*
X112495100Y-89715059D01*
X112515102Y-89646938D01*
X112568758Y-89600445D01*
X112639032Y-89590341D01*
X112703612Y-89619835D01*
G37*
%TD.AperFunction*%
%TA.AperFunction,Conductor*%
G36*
X143944589Y-74315502D02*
G01*
X143991082Y-74369158D01*
X144001186Y-74439432D01*
X143998743Y-74451909D01*
X143967500Y-74577535D01*
X143967498Y-74577550D01*
X143964690Y-74618958D01*
X143964690Y-76341441D01*
X143967498Y-76382849D01*
X143967498Y-76382854D01*
X144012014Y-76561854D01*
X144093966Y-76727097D01*
X144093967Y-76727099D01*
X144209527Y-76870862D01*
X144353290Y-76986422D01*
X144353292Y-76986423D01*
X144518536Y-77068376D01*
X144697535Y-77112891D01*
X144707890Y-77113593D01*
X144738949Y-77115700D01*
X144738958Y-77115700D01*
X145311431Y-77115700D01*
X145336275Y-77114014D01*
X145352845Y-77112891D01*
X145531844Y-77068376D01*
X145604207Y-77032486D01*
X145674121Y-77020140D01*
X145716172Y-77032486D01*
X145788536Y-77068376D01*
X145967535Y-77112891D01*
X145977890Y-77113593D01*
X146008949Y-77115700D01*
X146008958Y-77115700D01*
X146581431Y-77115700D01*
X146606275Y-77114014D01*
X146622845Y-77112891D01*
X146801844Y-77068376D01*
X146874207Y-77032486D01*
X146944121Y-77020140D01*
X146986172Y-77032486D01*
X147058536Y-77068376D01*
X147237535Y-77112891D01*
X147247890Y-77113593D01*
X147278949Y-77115700D01*
X147278958Y-77115700D01*
X147851431Y-77115700D01*
X147876275Y-77114014D01*
X147892845Y-77112891D01*
X147943281Y-77100348D01*
X148014214Y-77103317D01*
X148072282Y-77144166D01*
X148099048Y-77209924D01*
X148099690Y-77222623D01*
X148099690Y-77660632D01*
X148114860Y-77736897D01*
X148127955Y-77802728D01*
X148183398Y-77936580D01*
X148261878Y-78054033D01*
X148263890Y-78057044D01*
X148631252Y-78424406D01*
X148665276Y-78486717D01*
X148660212Y-78557532D01*
X148617665Y-78614368D01*
X148551145Y-78639179D01*
X148542156Y-78639500D01*
X144499234Y-78639500D01*
X144431113Y-78619498D01*
X144384620Y-78565842D01*
X144374516Y-78495568D01*
X144376958Y-78483092D01*
X144378481Y-78476964D01*
X144389501Y-78432655D01*
X144390624Y-78416085D01*
X144392310Y-78391241D01*
X144392310Y-77818758D01*
X144389501Y-77777350D01*
X144389501Y-77777345D01*
X144379442Y-77736897D01*
X144344986Y-77598346D01*
X144263033Y-77433102D01*
X144263032Y-77433100D01*
X144147472Y-77289337D01*
X144003709Y-77173777D01*
X144003707Y-77173776D01*
X143838464Y-77091824D01*
X143659461Y-77047308D01*
X143618051Y-77044500D01*
X143618042Y-77044500D01*
X141895578Y-77044500D01*
X141895569Y-77044500D01*
X141854160Y-77047308D01*
X141854155Y-77047308D01*
X141675155Y-77091824D01*
X141509912Y-77173776D01*
X141509910Y-77173777D01*
X141366147Y-77289337D01*
X141250587Y-77433100D01*
X141250586Y-77433102D01*
X141168634Y-77598345D01*
X141124118Y-77777345D01*
X141124118Y-77777350D01*
X141121310Y-77818758D01*
X141121310Y-78391241D01*
X141124118Y-78432649D01*
X141124118Y-78432654D01*
X141155157Y-78557460D01*
X141160339Y-78578301D01*
X141168635Y-78611657D01*
X141204522Y-78684018D01*
X141216869Y-78753933D01*
X141204522Y-78795982D01*
X141168635Y-78868342D01*
X141124118Y-79047345D01*
X141124118Y-79047350D01*
X141121310Y-79088758D01*
X141121310Y-79613793D01*
X141101308Y-79681914D01*
X141047652Y-79728407D01*
X141021508Y-79737039D01*
X140958727Y-79750383D01*
X140779069Y-79830373D01*
X140619977Y-79945960D01*
X140488396Y-80092097D01*
X140488394Y-80092099D01*
X140390072Y-80262399D01*
X140390068Y-80262407D01*
X140329304Y-80449421D01*
X140329303Y-80449425D01*
X140329303Y-80449427D01*
X140308747Y-80645000D01*
X140329122Y-80838853D01*
X140329304Y-80840578D01*
X140390068Y-81027592D01*
X140390072Y-81027600D01*
X140488394Y-81197900D01*
X140488396Y-81197902D01*
X140619977Y-81344039D01*
X140619980Y-81344041D01*
X140779073Y-81459629D01*
X140934966Y-81529037D01*
X140958722Y-81539614D01*
X141021506Y-81552959D01*
X141083980Y-81586687D01*
X141118302Y-81648837D01*
X141121310Y-81676206D01*
X141121310Y-82159192D01*
X141101308Y-82227313D01*
X141047652Y-82273806D01*
X141021509Y-82282438D01*
X140984127Y-82290384D01*
X140984122Y-82290385D01*
X140984122Y-82290386D01*
X140933782Y-82312799D01*
X140804469Y-82370373D01*
X140645377Y-82485960D01*
X140513796Y-82632097D01*
X140513794Y-82632099D01*
X140415472Y-82802399D01*
X140415468Y-82802407D01*
X140354704Y-82989421D01*
X140354703Y-82989425D01*
X140354703Y-82989427D01*
X140334147Y-83185000D01*
X140346971Y-83307013D01*
X140354704Y-83380578D01*
X140415468Y-83567592D01*
X140415472Y-83567600D01*
X140513794Y-83737900D01*
X140513796Y-83737902D01*
X140645377Y-83884039D01*
X140645380Y-83884041D01*
X140804473Y-83999629D01*
X140983614Y-84079388D01*
X140984122Y-84079614D01*
X141021506Y-84087560D01*
X141083980Y-84121288D01*
X141118301Y-84183437D01*
X141121310Y-84210807D01*
X141121310Y-84741241D01*
X141124118Y-84782649D01*
X141124118Y-84782654D01*
X141168635Y-84961657D01*
X141204522Y-85034018D01*
X141216869Y-85103933D01*
X141204522Y-85145982D01*
X141168635Y-85218342D01*
X141124118Y-85397345D01*
X141124118Y-85397350D01*
X141121310Y-85438758D01*
X141121310Y-86011241D01*
X141124118Y-86052649D01*
X141124118Y-86052654D01*
X141168635Y-86231657D01*
X141204522Y-86304018D01*
X141216869Y-86373933D01*
X141204522Y-86415982D01*
X141168635Y-86488342D01*
X141124118Y-86667345D01*
X141124118Y-86667350D01*
X141121310Y-86708758D01*
X141121310Y-87281241D01*
X141124118Y-87322649D01*
X141124118Y-87322654D01*
X141168634Y-87501654D01*
X141250586Y-87666897D01*
X141250587Y-87666899D01*
X141366147Y-87810662D01*
X141509910Y-87926222D01*
X141509912Y-87926223D01*
X141675156Y-88008176D01*
X141854155Y-88052691D01*
X141864510Y-88053393D01*
X141895569Y-88055500D01*
X141895578Y-88055500D01*
X143618051Y-88055500D01*
X143642895Y-88053814D01*
X143659465Y-88052691D01*
X143838464Y-88008176D01*
X144003708Y-87926223D01*
X144147472Y-87810662D01*
X144263033Y-87666898D01*
X144344986Y-87501654D01*
X144389501Y-87322655D01*
X144390624Y-87306085D01*
X144392310Y-87281241D01*
X144392310Y-86708758D01*
X144389501Y-86667350D01*
X144389501Y-86667345D01*
X144344986Y-86488346D01*
X144309096Y-86415982D01*
X144296750Y-86346069D01*
X144309097Y-86304017D01*
X144344986Y-86231654D01*
X144389501Y-86052655D01*
X144390624Y-86036085D01*
X144392310Y-86011241D01*
X144392310Y-85438758D01*
X144389501Y-85397350D01*
X144389501Y-85397345D01*
X144380641Y-85361720D01*
X144344986Y-85218346D01*
X144309096Y-85145982D01*
X144296750Y-85076069D01*
X144309097Y-85034017D01*
X144344986Y-84961654D01*
X144389501Y-84782655D01*
X144391169Y-84758061D01*
X144392310Y-84741241D01*
X144392310Y-84168758D01*
X144389501Y-84127350D01*
X144389501Y-84127345D01*
X144377575Y-84079391D01*
X144344986Y-83948346D01*
X144309096Y-83875982D01*
X144296750Y-83806069D01*
X144309097Y-83764017D01*
X144322050Y-83737900D01*
X144344986Y-83691654D01*
X144389501Y-83512655D01*
X144390624Y-83496085D01*
X144392310Y-83471241D01*
X144392310Y-82898758D01*
X144389501Y-82857350D01*
X144389501Y-82857345D01*
X144385092Y-82839617D01*
X144344986Y-82678346D01*
X144309096Y-82605982D01*
X144296750Y-82536069D01*
X144309097Y-82494017D01*
X144313093Y-82485960D01*
X144344986Y-82421654D01*
X144389501Y-82242655D01*
X144390624Y-82226085D01*
X144392310Y-82201241D01*
X144392310Y-81628758D01*
X144389501Y-81587350D01*
X144389501Y-81587345D01*
X144386531Y-81575401D01*
X144344986Y-81408346D01*
X144309096Y-81335982D01*
X144296750Y-81266069D01*
X144309097Y-81224017D01*
X144337709Y-81166326D01*
X144344986Y-81151654D01*
X144389501Y-80972655D01*
X144390624Y-80956085D01*
X144392310Y-80931241D01*
X144392310Y-80358758D01*
X144390437Y-80331152D01*
X144389501Y-80317345D01*
X144376958Y-80266908D01*
X144379929Y-80195974D01*
X144420778Y-80137906D01*
X144486537Y-80111141D01*
X144499234Y-80110500D01*
X153668756Y-80110500D01*
X153736877Y-80130502D01*
X153757851Y-80147405D01*
X154167595Y-80557149D01*
X154201621Y-80619461D01*
X154204500Y-80646244D01*
X154204500Y-87131831D01*
X154184498Y-87199952D01*
X154130842Y-87246445D01*
X154060568Y-87256549D01*
X154004442Y-87233769D01*
X153987929Y-87221772D01*
X153808278Y-87141786D01*
X153615925Y-87100900D01*
X153419275Y-87100900D01*
X153226924Y-87141785D01*
X153047269Y-87221773D01*
X152888177Y-87337360D01*
X152756596Y-87483497D01*
X152756594Y-87483499D01*
X152658272Y-87653799D01*
X152658268Y-87653807D01*
X152597504Y-87840821D01*
X152597503Y-87840825D01*
X152597503Y-87840827D01*
X152594281Y-87871472D01*
X152567270Y-87937127D01*
X152509048Y-87977757D01*
X152468973Y-87984300D01*
X152358949Y-87984300D01*
X152317540Y-87987108D01*
X152317535Y-87987108D01*
X152138532Y-88031625D01*
X152066172Y-88067512D01*
X151996257Y-88079859D01*
X151954208Y-88067512D01*
X151881847Y-88031625D01*
X151881845Y-88031624D01*
X151881844Y-88031624D01*
X151702845Y-87987109D01*
X151702841Y-87987108D01*
X151661431Y-87984300D01*
X151661422Y-87984300D01*
X151088958Y-87984300D01*
X151088949Y-87984300D01*
X151047540Y-87987108D01*
X151047535Y-87987108D01*
X150868532Y-88031625D01*
X150796172Y-88067512D01*
X150726257Y-88079859D01*
X150684208Y-88067512D01*
X150611847Y-88031625D01*
X150611845Y-88031624D01*
X150611844Y-88031624D01*
X150432845Y-87987109D01*
X150432841Y-87987108D01*
X150391431Y-87984300D01*
X150391422Y-87984300D01*
X149818958Y-87984300D01*
X149818949Y-87984300D01*
X149777540Y-87987108D01*
X149777535Y-87987108D01*
X149598532Y-88031625D01*
X149526172Y-88067512D01*
X149456257Y-88079859D01*
X149414208Y-88067512D01*
X149341847Y-88031625D01*
X149341845Y-88031624D01*
X149341844Y-88031624D01*
X149162845Y-87987109D01*
X149162841Y-87987108D01*
X149121431Y-87984300D01*
X149121422Y-87984300D01*
X148548958Y-87984300D01*
X148548949Y-87984300D01*
X148507540Y-87987108D01*
X148507535Y-87987108D01*
X148328532Y-88031625D01*
X148256172Y-88067512D01*
X148186257Y-88079859D01*
X148144208Y-88067512D01*
X148071847Y-88031625D01*
X148071845Y-88031624D01*
X148071844Y-88031624D01*
X147892845Y-87987109D01*
X147892841Y-87987108D01*
X147851431Y-87984300D01*
X147851422Y-87984300D01*
X147278958Y-87984300D01*
X147278949Y-87984300D01*
X147237540Y-87987108D01*
X147237535Y-87987108D01*
X147058532Y-88031625D01*
X146986172Y-88067512D01*
X146916257Y-88079859D01*
X146874208Y-88067512D01*
X146801847Y-88031625D01*
X146801845Y-88031624D01*
X146801844Y-88031624D01*
X146622845Y-87987109D01*
X146622841Y-87987108D01*
X146581431Y-87984300D01*
X146581422Y-87984300D01*
X146008958Y-87984300D01*
X146008949Y-87984300D01*
X145967540Y-87987108D01*
X145967535Y-87987108D01*
X145788532Y-88031625D01*
X145716172Y-88067512D01*
X145646257Y-88079859D01*
X145604208Y-88067512D01*
X145531847Y-88031625D01*
X145531845Y-88031624D01*
X145531844Y-88031624D01*
X145352845Y-87987109D01*
X145352841Y-87987108D01*
X145311431Y-87984300D01*
X145311422Y-87984300D01*
X144738958Y-87984300D01*
X144738949Y-87984300D01*
X144697540Y-87987108D01*
X144697535Y-87987108D01*
X144518535Y-88031624D01*
X144353292Y-88113576D01*
X144353290Y-88113577D01*
X144209527Y-88229137D01*
X144093967Y-88372900D01*
X144093966Y-88372902D01*
X144012014Y-88538145D01*
X143967498Y-88717145D01*
X143967498Y-88717150D01*
X143964690Y-88758558D01*
X143964690Y-90481041D01*
X143967498Y-90522449D01*
X143967498Y-90522454D01*
X144012014Y-90701454D01*
X144093966Y-90866697D01*
X144093967Y-90866699D01*
X144209527Y-91010462D01*
X144353290Y-91126022D01*
X144353292Y-91126023D01*
X144518536Y-91207976D01*
X144697535Y-91252491D01*
X144707890Y-91253193D01*
X144738949Y-91255300D01*
X144738958Y-91255300D01*
X145311431Y-91255300D01*
X145336275Y-91253614D01*
X145352845Y-91252491D01*
X145352851Y-91252489D01*
X145352854Y-91252489D01*
X145378281Y-91246166D01*
X145449215Y-91249136D01*
X145507283Y-91289985D01*
X145534049Y-91355743D01*
X145534690Y-91368441D01*
X145534690Y-92798122D01*
X145517809Y-92861122D01*
X145442106Y-92992244D01*
X145390724Y-93041237D01*
X145321010Y-93054673D01*
X145255099Y-93028287D01*
X145216013Y-92976074D01*
X145201651Y-92940200D01*
X145140023Y-92786264D01*
X145022784Y-92603835D01*
X145022778Y-92603828D01*
X144990404Y-92567352D01*
X144990375Y-92567321D01*
X144160678Y-91737624D01*
X144160647Y-91737595D01*
X144124171Y-91705221D01*
X144124168Y-91705219D01*
X144124165Y-91705216D01*
X144124160Y-91705213D01*
X144124155Y-91705209D01*
X143941739Y-91587979D01*
X143941736Y-91587977D01*
X143807621Y-91534284D01*
X143740417Y-91507379D01*
X143740413Y-91507378D01*
X143527486Y-91466341D01*
X143527484Y-91466340D01*
X143527480Y-91466340D01*
X143310626Y-91466340D01*
X143310622Y-91466340D01*
X143310619Y-91466341D01*
X143097693Y-91507378D01*
X143097689Y-91507379D01*
X142963279Y-91561190D01*
X142896371Y-91587977D01*
X142896369Y-91587978D01*
X142896367Y-91587979D01*
X142713941Y-91705215D01*
X142677447Y-91737606D01*
X142677427Y-91737625D01*
X141140625Y-93274427D01*
X141140606Y-93274447D01*
X141108215Y-93310941D01*
X140990979Y-93493367D01*
X140990978Y-93493369D01*
X140990977Y-93493371D01*
X140987369Y-93502384D01*
X140910379Y-93694689D01*
X140910378Y-93694693D01*
X140869341Y-93907619D01*
X140869340Y-93907630D01*
X140869340Y-94124475D01*
X140869341Y-94124486D01*
X140910378Y-94337413D01*
X140910379Y-94337417D01*
X140937284Y-94404621D01*
X140990977Y-94538736D01*
X140990979Y-94538739D01*
X141108209Y-94721155D01*
X141108213Y-94721160D01*
X141108216Y-94721165D01*
X141108219Y-94721168D01*
X141108221Y-94721171D01*
X141140595Y-94757647D01*
X141140624Y-94757678D01*
X141952351Y-95569405D01*
X141986377Y-95631717D01*
X141981312Y-95702532D01*
X141938765Y-95759368D01*
X141872245Y-95784179D01*
X141863256Y-95784500D01*
X141176954Y-95784500D01*
X141055162Y-95808726D01*
X141034863Y-95812764D01*
X141034860Y-95812764D01*
X141034857Y-95812766D01*
X140956454Y-95845241D01*
X140956454Y-95845242D01*
X140901010Y-95868208D01*
X140901008Y-95868209D01*
X140826677Y-95917876D01*
X140780546Y-95948699D01*
X140780540Y-95948704D01*
X140777595Y-95951650D01*
X140715283Y-95985676D01*
X140644468Y-95980611D01*
X140587632Y-95938064D01*
X140562821Y-95871544D01*
X140562500Y-95862555D01*
X140562500Y-91646961D01*
X140562499Y-91646957D01*
X140534235Y-91504862D01*
X140478792Y-91371010D01*
X140398300Y-91250546D01*
X140295854Y-91148100D01*
X137685899Y-88538145D01*
X134936458Y-85788703D01*
X134936454Y-85788700D01*
X134917589Y-85776095D01*
X134917588Y-85776094D01*
X134883876Y-85753568D01*
X134815990Y-85708208D01*
X134701741Y-85660885D01*
X134682143Y-85652767D01*
X134682138Y-85652765D01*
X134540042Y-85624500D01*
X134540040Y-85624500D01*
X116464254Y-85624500D01*
X116440678Y-85622275D01*
X116429080Y-85620066D01*
X116429082Y-85620066D01*
X116429075Y-85620065D01*
X116429073Y-85620064D01*
X116429062Y-85620063D01*
X116243850Y-85608461D01*
X116224920Y-85605823D01*
X116206384Y-85601787D01*
X116142619Y-85587901D01*
X116121465Y-85581300D01*
X116077788Y-85563320D01*
X116058559Y-85553394D01*
X116016909Y-85527138D01*
X116003508Y-85517403D01*
X115938218Y-85463064D01*
X115931848Y-85457384D01*
X115831684Y-85361758D01*
X115831687Y-85361754D01*
X115831649Y-85361724D01*
X115707265Y-85242873D01*
X115693563Y-85230158D01*
X115693461Y-85230066D01*
X115693039Y-85229685D01*
X115678999Y-85217400D01*
X115629359Y-85175225D01*
X115608986Y-85157915D01*
X115570025Y-85098566D01*
X115569335Y-85027572D01*
X115592056Y-84983338D01*
X115737958Y-84800383D01*
X115868016Y-84575117D01*
X115963046Y-84332982D01*
X116020928Y-84079388D01*
X116040366Y-83820000D01*
X116020928Y-83560612D01*
X115963046Y-83307018D01*
X115868016Y-83064883D01*
X115748196Y-82857350D01*
X115737960Y-82839620D01*
X115708277Y-82802399D01*
X115575779Y-82636250D01*
X115575778Y-82636249D01*
X115575775Y-82636245D01*
X115422487Y-82494017D01*
X115385100Y-82459327D01*
X115237911Y-82358975D01*
X115237881Y-82358939D01*
X115237662Y-82358805D01*
X115170192Y-82312804D01*
X115170179Y-82312797D01*
X115093954Y-82276088D01*
X115059530Y-82251662D01*
X114604743Y-81796875D01*
X114668408Y-81760119D01*
X114780119Y-81648408D01*
X114816875Y-81584744D01*
X115359918Y-82127787D01*
X115359919Y-82127787D01*
X115372160Y-82114490D01*
X115494888Y-81926640D01*
X115585023Y-81721153D01*
X115585026Y-81721146D01*
X115640108Y-81503632D01*
X115658639Y-81280000D01*
X115640108Y-81056367D01*
X115585026Y-80838853D01*
X115585023Y-80838846D01*
X115494888Y-80633359D01*
X115372158Y-80445507D01*
X115372151Y-80445498D01*
X115359920Y-80432210D01*
X115359918Y-80432210D01*
X114816874Y-80975253D01*
X114780119Y-80911592D01*
X114668408Y-80799881D01*
X114604742Y-80763123D01*
X115059529Y-80308336D01*
X115093953Y-80283911D01*
X115170183Y-80247201D01*
X115237658Y-80201196D01*
X115237745Y-80201168D01*
X115237909Y-80201025D01*
X115385100Y-80100673D01*
X115575779Y-79923750D01*
X115737958Y-79720383D01*
X115868016Y-79495117D01*
X115963046Y-79252982D01*
X116020928Y-78999388D01*
X116040366Y-78740000D01*
X116035852Y-78679762D01*
X116035500Y-78670347D01*
X116035500Y-74421500D01*
X116055502Y-74353379D01*
X116109158Y-74306886D01*
X116161500Y-74295500D01*
X143876468Y-74295500D01*
X143944589Y-74315502D01*
G37*
%TD.AperFunction*%
%TD*%
%TA.AperFunction,Conductor*%
%TO.N,/HC32L110_QFN20/VCAP*%
G36*
X133674595Y-99372307D02*
G01*
X133718949Y-99395518D01*
X133775222Y-99421816D01*
X133775233Y-99421821D01*
X133831471Y-99444955D01*
X133831482Y-99444958D01*
X133831495Y-99444964D01*
X133887768Y-99464962D01*
X133944036Y-99481808D01*
X133944037Y-99481809D01*
X133944040Y-99481809D01*
X133944041Y-99481810D01*
X134000314Y-99495508D01*
X134056587Y-99506056D01*
X134112860Y-99513454D01*
X134169133Y-99517702D01*
X134213934Y-99518576D01*
X134222139Y-99522164D01*
X134225406Y-99530274D01*
X134225406Y-99709770D01*
X134221979Y-99718043D01*
X134216672Y-99721088D01*
X134180928Y-99730454D01*
X134136461Y-99745254D01*
X134136422Y-99745268D01*
X134091967Y-99763213D01*
X134091919Y-99763234D01*
X134047484Y-99784317D01*
X134047483Y-99784318D01*
X134003000Y-99808576D01*
X134002978Y-99808588D01*
X133958512Y-99835983D01*
X133958507Y-99835987D01*
X133914017Y-99866547D01*
X133869545Y-99900245D01*
X133825058Y-99937105D01*
X133789720Y-99968887D01*
X133781277Y-99971872D01*
X133773197Y-99968012D01*
X133772827Y-99967580D01*
X133551237Y-99694993D01*
X133548678Y-99686412D01*
X133549295Y-99683684D01*
X133658154Y-99378740D01*
X133664163Y-99372102D01*
X133673107Y-99371656D01*
X133674595Y-99372307D01*
G37*
%TD.AperFunction*%
%TD*%
%TA.AperFunction,Conductor*%
%TO.N,VCC*%
G36*
X113495227Y-78022968D02*
G01*
X113796642Y-78291021D01*
X114296778Y-78735799D01*
X114300683Y-78743858D01*
X114300703Y-78744550D01*
X114300008Y-79827509D01*
X114296576Y-79835779D01*
X114288300Y-79839201D01*
X114287536Y-79839176D01*
X114129364Y-79828720D01*
X114128052Y-79828558D01*
X113971326Y-79800188D01*
X113970504Y-79800008D01*
X113824056Y-79762451D01*
X113823820Y-79762388D01*
X113685044Y-79723692D01*
X113551584Y-79692049D01*
X113551572Y-79692046D01*
X113420817Y-79675585D01*
X113420816Y-79675585D01*
X113377232Y-79677860D01*
X113290064Y-79682411D01*
X113156629Y-79720634D01*
X113017814Y-79798357D01*
X112879142Y-79916672D01*
X112870624Y-79919434D01*
X112863275Y-79916044D01*
X112172204Y-79224973D01*
X112168777Y-79216700D01*
X112172204Y-79208427D01*
X112172218Y-79208412D01*
X112341015Y-79044399D01*
X112341211Y-79044214D01*
X112496799Y-78901994D01*
X112496989Y-78901825D01*
X112635398Y-78782600D01*
X112635513Y-78782503D01*
X112761113Y-78679375D01*
X112878213Y-78585496D01*
X112878237Y-78585477D01*
X112919927Y-78551698D01*
X112991075Y-78494055D01*
X113104024Y-78398185D01*
X113221387Y-78291021D01*
X113347490Y-78165697D01*
X113478868Y-78023763D01*
X113487001Y-78020021D01*
X113495227Y-78022968D01*
G37*
%TD.AperFunction*%
%TD*%
%TA.AperFunction,Conductor*%
%TO.N,/HC32L110_QFN20/VCAP*%
G36*
X133538481Y-99688534D02*
G01*
X133546525Y-99692468D01*
X133549431Y-99699485D01*
X133573671Y-100089139D01*
X133570765Y-100097609D01*
X133562720Y-100101542D01*
X133561680Y-100101561D01*
X133536829Y-100100893D01*
X133499202Y-100102658D01*
X133499183Y-100102659D01*
X133461557Y-100107197D01*
X133461543Y-100107199D01*
X133423911Y-100114511D01*
X133423894Y-100114515D01*
X133386276Y-100124600D01*
X133386258Y-100124605D01*
X133348633Y-100137465D01*
X133348622Y-100137469D01*
X133311001Y-100153100D01*
X133310990Y-100153105D01*
X133273340Y-100171525D01*
X133235704Y-100192712D01*
X133205983Y-100211635D01*
X133197164Y-100213187D01*
X133191427Y-100210038D01*
X133027031Y-100045642D01*
X133023604Y-100037369D01*
X133024660Y-100032512D01*
X133032763Y-100014753D01*
X133032766Y-100014747D01*
X133044243Y-99986819D01*
X133055720Y-99956117D01*
X133067197Y-99922639D01*
X133078674Y-99886387D01*
X133090151Y-99847359D01*
X133101628Y-99805556D01*
X133113105Y-99760979D01*
X133124582Y-99713626D01*
X133133843Y-99673178D01*
X133139029Y-99665881D01*
X133145970Y-99664115D01*
X133538481Y-99688534D01*
G37*
%TD.AperFunction*%
%TD*%
%TA.AperFunction,Conductor*%
%TO.N,/HC32L110_QFN20/UART_RX*%
G36*
X114755680Y-87905440D02*
G01*
X114756305Y-87905742D01*
X114952808Y-88008247D01*
X114954037Y-88008987D01*
X115122383Y-88125026D01*
X115123319Y-88125743D01*
X115264273Y-88245501D01*
X115264779Y-88245957D01*
X115389398Y-88365033D01*
X115508433Y-88478675D01*
X115632606Y-88582022D01*
X115632608Y-88582023D01*
X115632609Y-88582024D01*
X115632619Y-88582030D01*
X115772871Y-88670445D01*
X115772878Y-88670449D01*
X115772883Y-88670452D01*
X115772885Y-88670452D01*
X115772889Y-88670455D01*
X115898393Y-88722118D01*
X115940230Y-88739340D01*
X116145613Y-88784064D01*
X116389032Y-88799312D01*
X116397074Y-88803249D01*
X116400000Y-88810989D01*
X116400000Y-88989010D01*
X116396573Y-88997283D01*
X116389031Y-89000687D01*
X116145609Y-89015935D01*
X116145608Y-89015935D01*
X115940232Y-89060658D01*
X115940228Y-89060659D01*
X115772889Y-89129543D01*
X115772871Y-89129553D01*
X115632619Y-89217968D01*
X115632609Y-89217974D01*
X115508431Y-89321325D01*
X115389396Y-89434967D01*
X115264780Y-89554040D01*
X115264273Y-89554497D01*
X115123319Y-89674255D01*
X115122383Y-89674972D01*
X114954037Y-89791011D01*
X114952808Y-89791751D01*
X114756323Y-89894248D01*
X114747403Y-89895036D01*
X114740539Y-89889286D01*
X114740228Y-89888643D01*
X114301126Y-88904765D01*
X114300884Y-88895817D01*
X114301114Y-88895262D01*
X114740229Y-87911354D01*
X114746729Y-87905197D01*
X114755680Y-87905440D01*
G37*
%TD.AperFunction*%
%TD*%
%TA.AperFunction,Conductor*%
%TO.N,/HC32L110_QFN20/UART_TX*%
G36*
X114755680Y-85365440D02*
G01*
X114756305Y-85365742D01*
X114952808Y-85468247D01*
X114954037Y-85468987D01*
X115122383Y-85585026D01*
X115123319Y-85585743D01*
X115264273Y-85705501D01*
X115264779Y-85705957D01*
X115389398Y-85825033D01*
X115508433Y-85938675D01*
X115632606Y-86042022D01*
X115632608Y-86042023D01*
X115632609Y-86042024D01*
X115632619Y-86042030D01*
X115772871Y-86130445D01*
X115772878Y-86130449D01*
X115772883Y-86130452D01*
X115772885Y-86130452D01*
X115772889Y-86130455D01*
X115898393Y-86182118D01*
X115940230Y-86199340D01*
X116145613Y-86244064D01*
X116389032Y-86259312D01*
X116397074Y-86263249D01*
X116400000Y-86270989D01*
X116400000Y-86449010D01*
X116396573Y-86457283D01*
X116389031Y-86460687D01*
X116145609Y-86475935D01*
X116145608Y-86475935D01*
X115940232Y-86520658D01*
X115940228Y-86520659D01*
X115772889Y-86589543D01*
X115772871Y-86589553D01*
X115632619Y-86677968D01*
X115632609Y-86677974D01*
X115508431Y-86781325D01*
X115389396Y-86894967D01*
X115264780Y-87014040D01*
X115264273Y-87014497D01*
X115123319Y-87134255D01*
X115122383Y-87134972D01*
X114954037Y-87251011D01*
X114952808Y-87251751D01*
X114756323Y-87354248D01*
X114747403Y-87355036D01*
X114740539Y-87349286D01*
X114740228Y-87348643D01*
X114301126Y-86364765D01*
X114300884Y-86355817D01*
X114301114Y-86355262D01*
X114740229Y-85371354D01*
X114746729Y-85365197D01*
X114755680Y-85365440D01*
G37*
%TD.AperFunction*%
%TD*%
M02*
