%TF.GenerationSoftware,KiCad,Pcbnew,8.0.6-hq-2-g3d73d9976a*%
%TF.CreationDate,2024-12-20T20:58:28+08:00*%
%TF.ProjectId,DemoBoard_SensorForTemp&Rh_IntegratedWithMCU,44656d6f-426f-4617-9264-5f53656e736f,rev?*%
%TF.SameCoordinates,Original*%
%TF.FileFunction,Legend,Top*%
%TF.FilePolarity,Positive*%
%FSLAX46Y46*%
G04 Gerber Fmt 4.6, Leading zero omitted, Abs format (unit mm)*
G04 Created by KiCad (PCBNEW 8.0.6-hq-2-g3d73d9976a) date 2024-12-20 20:58:28*
%MOMM*%
%LPD*%
G01*
G04 APERTURE LIST*
G04 Aperture macros list*
%AMRoundRect*
0 Rectangle with rounded corners*
0 $1 Rounding radius*
0 $2 $3 $4 $5 $6 $7 $8 $9 X,Y pos of 4 corners*
0 Add a 4 corners polygon primitive as box body*
4,1,4,$2,$3,$4,$5,$6,$7,$8,$9,$2,$3,0*
0 Add four circle primitives for the rounded corners*
1,1,$1+$1,$2,$3*
1,1,$1+$1,$4,$5*
1,1,$1+$1,$6,$7*
1,1,$1+$1,$8,$9*
0 Add four rect primitives between the rounded corners*
20,1,$1+$1,$2,$3,$4,$5,0*
20,1,$1+$1,$4,$5,$6,$7,0*
20,1,$1+$1,$6,$7,$8,$9,0*
20,1,$1+$1,$8,$9,$2,$3,0*%
%AMFreePoly0*
4,1,6,1.000000,0.000000,0.499999,-0.750000,-0.499999,-0.750000,-0.499999,0.750000,0.499999,0.750000,1.000000,0.000000,1.000000,0.000000,$1*%
%AMFreePoly1*
4,1,6,0.499999,-0.750000,-0.649999,-0.750000,-0.150000,0.000000,-0.649999,0.750000,0.499999,0.750000,0.499999,-0.750000,0.499999,-0.750000,$1*%
G04 Aperture macros list end*
%ADD10C,0.100000*%
%ADD11C,0.150000*%
%ADD12C,0.200000*%
%ADD13C,0.120000*%
%ADD14C,0.080000*%
%ADD15C,0.070000*%
%ADD16C,0.300000*%
%ADD17C,0.000000*%
%ADD18RoundRect,0.155000X0.212500X0.155000X-0.212500X0.155000X-0.212500X-0.155000X0.212500X-0.155000X0*%
%ADD19RoundRect,0.155000X0.040659X0.259862X-0.259862X-0.040659X-0.040659X-0.259862X0.259862X0.040659X0*%
%ADD20C,2.200000*%
%ADD21RoundRect,0.237500X0.371231X-0.035355X-0.035355X0.371231X-0.371231X0.035355X0.035355X-0.371231X0*%
%ADD22RoundRect,0.155000X0.259862X-0.040659X-0.040659X0.259862X-0.259862X0.040659X0.040659X-0.259862X0*%
%ADD23RoundRect,0.108108X-1.116892X0.691892X-1.116892X-0.691892X1.116892X-0.691892X1.116892X0.691892X0*%
%ADD24RoundRect,0.155000X-0.259862X0.040659X0.040659X-0.259862X0.259862X-0.040659X-0.040659X0.259862X0*%
%ADD25RoundRect,0.112500X0.237500X-0.112500X0.237500X0.112500X-0.237500X0.112500X-0.237500X-0.112500X0*%
%ADD26RoundRect,0.250000X-0.424264X0.000000X0.000000X-0.424264X0.424264X0.000000X0.000000X0.424264X0*%
%ADD27RoundRect,0.160000X-0.197500X-0.160000X0.197500X-0.160000X0.197500X0.160000X-0.197500X0.160000X0*%
%ADD28RoundRect,0.160000X-0.026517X-0.252791X0.252791X0.026517X0.026517X0.252791X-0.252791X-0.026517X0*%
%ADD29RoundRect,0.236486X-1.024923X2.022706X-1.898962X-1.239253X1.024923X-2.022706X1.898962X1.239253X0*%
%ADD30RoundRect,0.250000X-1.700000X0.850000X-1.700000X-0.850000X1.700000X-0.850000X1.700000X0.850000X0*%
%ADD31FreePoly0,45.000000*%
%ADD32FreePoly1,45.000000*%
%ADD33RoundRect,0.500000X-0.353553X-1.060660X1.060660X0.353553X0.353553X1.060660X-1.060660X-0.353553X0*%
%ADD34RoundRect,0.237500X0.339173X0.154997X-0.216234X0.303818X-0.339173X-0.154997X0.216234X-0.303818X0*%
%ADD35RoundRect,0.160000X-0.252791X0.026517X0.026517X-0.252791X0.252791X-0.026517X-0.026517X0.252791X0*%
%ADD36RoundRect,0.500000X-1.000000X-0.500000X1.000000X-0.500000X1.000000X0.500000X-1.000000X0.500000X0*%
%ADD37RoundRect,0.062500X-0.309359X0.220971X0.220971X-0.309359X0.309359X-0.220971X-0.220971X0.309359X0*%
%ADD38RoundRect,0.062500X-0.309359X-0.220971X-0.220971X-0.309359X0.309359X0.220971X0.220971X0.309359X0*%
%ADD39RoundRect,0.250000X-1.060660X0.000000X0.000000X-1.060660X1.060660X0.000000X0.000000X1.060660X0*%
%ADD40RoundRect,0.062500X0.062500X0.287500X-0.062500X0.287500X-0.062500X-0.287500X0.062500X-0.287500X0*%
%ADD41R,0.400000X0.800000*%
%ADD42RoundRect,0.050000X0.250000X-0.550000X0.250000X0.550000X-0.250000X0.550000X-0.250000X-0.550000X0*%
%ADD43RoundRect,0.212500X0.212500X-0.787500X0.212500X0.787500X-0.212500X0.787500X-0.212500X-0.787500X0*%
%ADD44RoundRect,0.212500X0.787500X0.212500X-0.787500X0.212500X-0.787500X-0.212500X0.787500X-0.212500X0*%
%ADD45RoundRect,0.212500X-0.212500X0.787500X-0.212500X-0.787500X0.212500X-0.787500X0.212500X0.787500X0*%
G04 APERTURE END LIST*
D10*
X106284100Y-80659400D02*
G75*
G02*
X82281100Y-80659400I-12001500J0D01*
G01*
X82281100Y-80659400D02*
G75*
G02*
X106284100Y-80659400I12001500J0D01*
G01*
D11*
X123182142Y-122279580D02*
X123134523Y-122327200D01*
X123134523Y-122327200D02*
X122991666Y-122374819D01*
X122991666Y-122374819D02*
X122896428Y-122374819D01*
X122896428Y-122374819D02*
X122753571Y-122327200D01*
X122753571Y-122327200D02*
X122658333Y-122231961D01*
X122658333Y-122231961D02*
X122610714Y-122136723D01*
X122610714Y-122136723D02*
X122563095Y-121946247D01*
X122563095Y-121946247D02*
X122563095Y-121803390D01*
X122563095Y-121803390D02*
X122610714Y-121612914D01*
X122610714Y-121612914D02*
X122658333Y-121517676D01*
X122658333Y-121517676D02*
X122753571Y-121422438D01*
X122753571Y-121422438D02*
X122896428Y-121374819D01*
X122896428Y-121374819D02*
X122991666Y-121374819D01*
X122991666Y-121374819D02*
X123134523Y-121422438D01*
X123134523Y-121422438D02*
X123182142Y-121470057D01*
X123563095Y-121470057D02*
X123610714Y-121422438D01*
X123610714Y-121422438D02*
X123705952Y-121374819D01*
X123705952Y-121374819D02*
X123944047Y-121374819D01*
X123944047Y-121374819D02*
X124039285Y-121422438D01*
X124039285Y-121422438D02*
X124086904Y-121470057D01*
X124086904Y-121470057D02*
X124134523Y-121565295D01*
X124134523Y-121565295D02*
X124134523Y-121660533D01*
X124134523Y-121660533D02*
X124086904Y-121803390D01*
X124086904Y-121803390D02*
X123515476Y-122374819D01*
X123515476Y-122374819D02*
X124134523Y-122374819D01*
X125086904Y-122374819D02*
X124515476Y-122374819D01*
X124801190Y-122374819D02*
X124801190Y-121374819D01*
X124801190Y-121374819D02*
X124705952Y-121517676D01*
X124705952Y-121517676D02*
X124610714Y-121612914D01*
X124610714Y-121612914D02*
X124515476Y-121660533D01*
X132895693Y-95958830D02*
X132895693Y-96026174D01*
X132895693Y-96026174D02*
X132828349Y-96160861D01*
X132828349Y-96160861D02*
X132761006Y-96228204D01*
X132761006Y-96228204D02*
X132626319Y-96295548D01*
X132626319Y-96295548D02*
X132491632Y-96295548D01*
X132491632Y-96295548D02*
X132390617Y-96261876D01*
X132390617Y-96261876D02*
X132222258Y-96160861D01*
X132222258Y-96160861D02*
X132121243Y-96059846D01*
X132121243Y-96059846D02*
X132020227Y-95891487D01*
X132020227Y-95891487D02*
X131986556Y-95790472D01*
X131986556Y-95790472D02*
X131986556Y-95655785D01*
X131986556Y-95655785D02*
X132053899Y-95521098D01*
X132053899Y-95521098D02*
X132121243Y-95453754D01*
X132121243Y-95453754D02*
X132255930Y-95386411D01*
X132255930Y-95386411D02*
X132323273Y-95386411D01*
X133636471Y-95352739D02*
X133232410Y-95756800D01*
X133434441Y-95554769D02*
X132727334Y-94847663D01*
X132727334Y-94847663D02*
X132761006Y-95016021D01*
X132761006Y-95016021D02*
X132761006Y-95150708D01*
X132761006Y-95150708D02*
X132727334Y-95251724D01*
X134309907Y-94679304D02*
X133905846Y-95083365D01*
X134107876Y-94881334D02*
X133400769Y-94174227D01*
X133400769Y-94174227D02*
X133434441Y-94342586D01*
X133434441Y-94342586D02*
X133434441Y-94477273D01*
X133434441Y-94477273D02*
X133400769Y-94578288D01*
X128831169Y-97462692D02*
X128763825Y-97462692D01*
X128763825Y-97462692D02*
X128629138Y-97395348D01*
X128629138Y-97395348D02*
X128561795Y-97328005D01*
X128561795Y-97328005D02*
X128494451Y-97193318D01*
X128494451Y-97193318D02*
X128494451Y-97058631D01*
X128494451Y-97058631D02*
X128528123Y-96957616D01*
X128528123Y-96957616D02*
X128629138Y-96789257D01*
X128629138Y-96789257D02*
X128730153Y-96688242D01*
X128730153Y-96688242D02*
X128898512Y-96587226D01*
X128898512Y-96587226D02*
X128999527Y-96553555D01*
X128999527Y-96553555D02*
X129134214Y-96553555D01*
X129134214Y-96553555D02*
X129268901Y-96620898D01*
X129268901Y-96620898D02*
X129336245Y-96688242D01*
X129336245Y-96688242D02*
X129403588Y-96822929D01*
X129403588Y-96822929D02*
X129403588Y-96890272D01*
X129437260Y-98203470D02*
X129033199Y-97799409D01*
X129235230Y-98001440D02*
X129942336Y-97294333D01*
X129942336Y-97294333D02*
X129773978Y-97328005D01*
X129773978Y-97328005D02*
X129639291Y-97328005D01*
X129639291Y-97328005D02*
X129538275Y-97294333D01*
X130346398Y-97833081D02*
X130413741Y-97833081D01*
X130413741Y-97833081D02*
X130514756Y-97866753D01*
X130514756Y-97866753D02*
X130683115Y-98035112D01*
X130683115Y-98035112D02*
X130716787Y-98136127D01*
X130716787Y-98136127D02*
X130716787Y-98203471D01*
X130716787Y-98203471D02*
X130683115Y-98304486D01*
X130683115Y-98304486D02*
X130615772Y-98371829D01*
X130615772Y-98371829D02*
X130481085Y-98439173D01*
X130481085Y-98439173D02*
X129672963Y-98439173D01*
X129672963Y-98439173D02*
X130110695Y-98876906D01*
X130355169Y-97081694D02*
X130287825Y-97081694D01*
X130287825Y-97081694D02*
X130153138Y-97014350D01*
X130153138Y-97014350D02*
X130085795Y-96947007D01*
X130085795Y-96947007D02*
X130018451Y-96812320D01*
X130018451Y-96812320D02*
X130018451Y-96677633D01*
X130018451Y-96677633D02*
X130052123Y-96576618D01*
X130052123Y-96576618D02*
X130153138Y-96408259D01*
X130153138Y-96408259D02*
X130254153Y-96307244D01*
X130254153Y-96307244D02*
X130422512Y-96206228D01*
X130422512Y-96206228D02*
X130523527Y-96172557D01*
X130523527Y-96172557D02*
X130658214Y-96172557D01*
X130658214Y-96172557D02*
X130792901Y-96239900D01*
X130792901Y-96239900D02*
X130860245Y-96307244D01*
X130860245Y-96307244D02*
X130927588Y-96441931D01*
X130927588Y-96441931D02*
X130927588Y-96509274D01*
X130961260Y-97822472D02*
X130557199Y-97418411D01*
X130759230Y-97620442D02*
X131466336Y-96913335D01*
X131466336Y-96913335D02*
X131297978Y-96947007D01*
X131297978Y-96947007D02*
X131163291Y-96947007D01*
X131163291Y-96947007D02*
X131062275Y-96913335D01*
X131904069Y-97351068D02*
X132341802Y-97788801D01*
X132341802Y-97788801D02*
X131836726Y-97822473D01*
X131836726Y-97822473D02*
X131937741Y-97923488D01*
X131937741Y-97923488D02*
X131971413Y-98024503D01*
X131971413Y-98024503D02*
X131971413Y-98091847D01*
X131971413Y-98091847D02*
X131937741Y-98192862D01*
X131937741Y-98192862D02*
X131769382Y-98361221D01*
X131769382Y-98361221D02*
X131668367Y-98394892D01*
X131668367Y-98394892D02*
X131601024Y-98394892D01*
X131601024Y-98394892D02*
X131500008Y-98361221D01*
X131500008Y-98361221D02*
X131297978Y-98159190D01*
X131297978Y-98159190D02*
X131264306Y-98058175D01*
X131264306Y-98058175D02*
X131264306Y-97990831D01*
D12*
X93930266Y-77411619D02*
X93930266Y-78125904D01*
X93930266Y-78125904D02*
X93882647Y-78268761D01*
X93882647Y-78268761D02*
X93787409Y-78364000D01*
X93787409Y-78364000D02*
X93644552Y-78411619D01*
X93644552Y-78411619D02*
X93549314Y-78411619D01*
X94358838Y-77506857D02*
X94406457Y-77459238D01*
X94406457Y-77459238D02*
X94501695Y-77411619D01*
X94501695Y-77411619D02*
X94739790Y-77411619D01*
X94739790Y-77411619D02*
X94835028Y-77459238D01*
X94835028Y-77459238D02*
X94882647Y-77506857D01*
X94882647Y-77506857D02*
X94930266Y-77602095D01*
X94930266Y-77602095D02*
X94930266Y-77697333D01*
X94930266Y-77697333D02*
X94882647Y-77840190D01*
X94882647Y-77840190D02*
X94311219Y-78411619D01*
X94311219Y-78411619D02*
X94930266Y-78411619D01*
D11*
X106733169Y-132641694D02*
X106665825Y-132641694D01*
X106665825Y-132641694D02*
X106531138Y-132574350D01*
X106531138Y-132574350D02*
X106463795Y-132507007D01*
X106463795Y-132507007D02*
X106396451Y-132372320D01*
X106396451Y-132372320D02*
X106396451Y-132237633D01*
X106396451Y-132237633D02*
X106430123Y-132136618D01*
X106430123Y-132136618D02*
X106531138Y-131968259D01*
X106531138Y-131968259D02*
X106632153Y-131867244D01*
X106632153Y-131867244D02*
X106800512Y-131766228D01*
X106800512Y-131766228D02*
X106901527Y-131732557D01*
X106901527Y-131732557D02*
X107036214Y-131732557D01*
X107036214Y-131732557D02*
X107170901Y-131799900D01*
X107170901Y-131799900D02*
X107238245Y-131867244D01*
X107238245Y-131867244D02*
X107305588Y-132001931D01*
X107305588Y-132001931D02*
X107305588Y-132069274D01*
X107339260Y-133382472D02*
X106935199Y-132978411D01*
X107137230Y-133180442D02*
X107844336Y-132473335D01*
X107844336Y-132473335D02*
X107675978Y-132507007D01*
X107675978Y-132507007D02*
X107541291Y-132507007D01*
X107541291Y-132507007D02*
X107440275Y-132473335D01*
X107675978Y-133719190D02*
X107810665Y-133853877D01*
X107810665Y-133853877D02*
X107911680Y-133887549D01*
X107911680Y-133887549D02*
X107979024Y-133887549D01*
X107979024Y-133887549D02*
X108147382Y-133853877D01*
X108147382Y-133853877D02*
X108315741Y-133752862D01*
X108315741Y-133752862D02*
X108585115Y-133483488D01*
X108585115Y-133483488D02*
X108618787Y-133382473D01*
X108618787Y-133382473D02*
X108618787Y-133315129D01*
X108618787Y-133315129D02*
X108585115Y-133214114D01*
X108585115Y-133214114D02*
X108450428Y-133079427D01*
X108450428Y-133079427D02*
X108349413Y-133045755D01*
X108349413Y-133045755D02*
X108282069Y-133045755D01*
X108282069Y-133045755D02*
X108181054Y-133079427D01*
X108181054Y-133079427D02*
X108012695Y-133247786D01*
X108012695Y-133247786D02*
X107979024Y-133348801D01*
X107979024Y-133348801D02*
X107979024Y-133416144D01*
X107979024Y-133416144D02*
X108012695Y-133517160D01*
X108012695Y-133517160D02*
X108147382Y-133651847D01*
X108147382Y-133651847D02*
X108248398Y-133685518D01*
X108248398Y-133685518D02*
X108315741Y-133685518D01*
X108315741Y-133685518D02*
X108416756Y-133651847D01*
X121620761Y-127260057D02*
X121525523Y-127212438D01*
X121525523Y-127212438D02*
X121430285Y-127117200D01*
X121430285Y-127117200D02*
X121287428Y-126974342D01*
X121287428Y-126974342D02*
X121192190Y-126926723D01*
X121192190Y-126926723D02*
X121096952Y-126926723D01*
X121144571Y-127164819D02*
X121049333Y-127117200D01*
X121049333Y-127117200D02*
X120954095Y-127021961D01*
X120954095Y-127021961D02*
X120906476Y-126831485D01*
X120906476Y-126831485D02*
X120906476Y-126498152D01*
X120906476Y-126498152D02*
X120954095Y-126307676D01*
X120954095Y-126307676D02*
X121049333Y-126212438D01*
X121049333Y-126212438D02*
X121144571Y-126164819D01*
X121144571Y-126164819D02*
X121335047Y-126164819D01*
X121335047Y-126164819D02*
X121430285Y-126212438D01*
X121430285Y-126212438D02*
X121525523Y-126307676D01*
X121525523Y-126307676D02*
X121573142Y-126498152D01*
X121573142Y-126498152D02*
X121573142Y-126831485D01*
X121573142Y-126831485D02*
X121525523Y-127021961D01*
X121525523Y-127021961D02*
X121430285Y-127117200D01*
X121430285Y-127117200D02*
X121335047Y-127164819D01*
X121335047Y-127164819D02*
X121144571Y-127164819D01*
X122525523Y-127164819D02*
X121954095Y-127164819D01*
X122239809Y-127164819D02*
X122239809Y-126164819D01*
X122239809Y-126164819D02*
X122144571Y-126307676D01*
X122144571Y-126307676D02*
X122049333Y-126402914D01*
X122049333Y-126402914D02*
X121954095Y-126450533D01*
X112440482Y-134673692D02*
X113147589Y-133966586D01*
X113147589Y-133966586D02*
X113315948Y-134134944D01*
X113315948Y-134134944D02*
X113383291Y-134269631D01*
X113383291Y-134269631D02*
X113383291Y-134404318D01*
X113383291Y-134404318D02*
X113349619Y-134505334D01*
X113349619Y-134505334D02*
X113248604Y-134673692D01*
X113248604Y-134673692D02*
X113147589Y-134774708D01*
X113147589Y-134774708D02*
X112979230Y-134875723D01*
X112979230Y-134875723D02*
X112878215Y-134909395D01*
X112878215Y-134909395D02*
X112743528Y-134909395D01*
X112743528Y-134909395D02*
X112608841Y-134842051D01*
X112608841Y-134842051D02*
X112440482Y-134673692D01*
X113517978Y-135751188D02*
X113113917Y-135347127D01*
X113315948Y-135549158D02*
X114023054Y-134842051D01*
X114023054Y-134842051D02*
X113854696Y-134875723D01*
X113854696Y-134875723D02*
X113720009Y-134875723D01*
X113720009Y-134875723D02*
X113618993Y-134842051D01*
X108765169Y-134673693D02*
X108697825Y-134673693D01*
X108697825Y-134673693D02*
X108563138Y-134606349D01*
X108563138Y-134606349D02*
X108495795Y-134539006D01*
X108495795Y-134539006D02*
X108428451Y-134404319D01*
X108428451Y-134404319D02*
X108428451Y-134269632D01*
X108428451Y-134269632D02*
X108462123Y-134168617D01*
X108462123Y-134168617D02*
X108563138Y-134000258D01*
X108563138Y-134000258D02*
X108664153Y-133899243D01*
X108664153Y-133899243D02*
X108832512Y-133798227D01*
X108832512Y-133798227D02*
X108933527Y-133764556D01*
X108933527Y-133764556D02*
X109068214Y-133764556D01*
X109068214Y-133764556D02*
X109202901Y-133831899D01*
X109202901Y-133831899D02*
X109270245Y-133899243D01*
X109270245Y-133899243D02*
X109337588Y-134033930D01*
X109337588Y-134033930D02*
X109337588Y-134101273D01*
X109371260Y-135414471D02*
X108967199Y-135010410D01*
X109169230Y-135212441D02*
X109876336Y-134505334D01*
X109876336Y-134505334D02*
X109707978Y-134539006D01*
X109707978Y-134539006D02*
X109573291Y-134539006D01*
X109573291Y-134539006D02*
X109472275Y-134505334D01*
X110179382Y-135414472D02*
X110145711Y-135313456D01*
X110145711Y-135313456D02*
X110145711Y-135246113D01*
X110145711Y-135246113D02*
X110179382Y-135145098D01*
X110179382Y-135145098D02*
X110213054Y-135111426D01*
X110213054Y-135111426D02*
X110314069Y-135077754D01*
X110314069Y-135077754D02*
X110381413Y-135077754D01*
X110381413Y-135077754D02*
X110482428Y-135111426D01*
X110482428Y-135111426D02*
X110617115Y-135246113D01*
X110617115Y-135246113D02*
X110650787Y-135347128D01*
X110650787Y-135347128D02*
X110650787Y-135414472D01*
X110650787Y-135414472D02*
X110617115Y-135515487D01*
X110617115Y-135515487D02*
X110583443Y-135549159D01*
X110583443Y-135549159D02*
X110482428Y-135582830D01*
X110482428Y-135582830D02*
X110415085Y-135582830D01*
X110415085Y-135582830D02*
X110314069Y-135549159D01*
X110314069Y-135549159D02*
X110179382Y-135414472D01*
X110179382Y-135414472D02*
X110078367Y-135380800D01*
X110078367Y-135380800D02*
X110011024Y-135380800D01*
X110011024Y-135380800D02*
X109910008Y-135414472D01*
X109910008Y-135414472D02*
X109775321Y-135549159D01*
X109775321Y-135549159D02*
X109741650Y-135650174D01*
X109741650Y-135650174D02*
X109741650Y-135717517D01*
X109741650Y-135717517D02*
X109775321Y-135818533D01*
X109775321Y-135818533D02*
X109910008Y-135953220D01*
X109910008Y-135953220D02*
X110011024Y-135986891D01*
X110011024Y-135986891D02*
X110078367Y-135986891D01*
X110078367Y-135986891D02*
X110179382Y-135953220D01*
X110179382Y-135953220D02*
X110314069Y-135818533D01*
X110314069Y-135818533D02*
X110347741Y-135717517D01*
X110347741Y-135717517D02*
X110347741Y-135650174D01*
X110347741Y-135650174D02*
X110314069Y-135549159D01*
X152741333Y-106880819D02*
X152408000Y-106404628D01*
X152169905Y-106880819D02*
X152169905Y-105880819D01*
X152169905Y-105880819D02*
X152550857Y-105880819D01*
X152550857Y-105880819D02*
X152646095Y-105928438D01*
X152646095Y-105928438D02*
X152693714Y-105976057D01*
X152693714Y-105976057D02*
X152741333Y-106071295D01*
X152741333Y-106071295D02*
X152741333Y-106214152D01*
X152741333Y-106214152D02*
X152693714Y-106309390D01*
X152693714Y-106309390D02*
X152646095Y-106357009D01*
X152646095Y-106357009D02*
X152550857Y-106404628D01*
X152550857Y-106404628D02*
X152169905Y-106404628D01*
X153122286Y-105976057D02*
X153169905Y-105928438D01*
X153169905Y-105928438D02*
X153265143Y-105880819D01*
X153265143Y-105880819D02*
X153503238Y-105880819D01*
X153503238Y-105880819D02*
X153598476Y-105928438D01*
X153598476Y-105928438D02*
X153646095Y-105976057D01*
X153646095Y-105976057D02*
X153693714Y-106071295D01*
X153693714Y-106071295D02*
X153693714Y-106166533D01*
X153693714Y-106166533D02*
X153646095Y-106309390D01*
X153646095Y-106309390D02*
X153074667Y-106880819D01*
X153074667Y-106880819D02*
X153693714Y-106880819D01*
X132029754Y-94927456D02*
X131457335Y-94826441D01*
X131625693Y-95331517D02*
X130918587Y-94624410D01*
X130918587Y-94624410D02*
X131187961Y-94355036D01*
X131187961Y-94355036D02*
X131288976Y-94321364D01*
X131288976Y-94321364D02*
X131356319Y-94321364D01*
X131356319Y-94321364D02*
X131457335Y-94355036D01*
X131457335Y-94355036D02*
X131558350Y-94456051D01*
X131558350Y-94456051D02*
X131592022Y-94557067D01*
X131592022Y-94557067D02*
X131592022Y-94624410D01*
X131592022Y-94624410D02*
X131558350Y-94725425D01*
X131558350Y-94725425D02*
X131288976Y-94994799D01*
X132164441Y-93849960D02*
X132635846Y-94321364D01*
X131726709Y-93748945D02*
X132063426Y-94422380D01*
X132063426Y-94422380D02*
X132501159Y-93984647D01*
D12*
X100911800Y-66313611D02*
X100726929Y-67003558D01*
X100726929Y-67003558D02*
X100643959Y-67129222D01*
X100643959Y-67129222D02*
X100527316Y-67196566D01*
X100527316Y-67196566D02*
X100377002Y-67205588D01*
X100377002Y-67205588D02*
X100285009Y-67180939D01*
X101618907Y-67538356D02*
X101066950Y-67390459D01*
X101342928Y-67464407D02*
X101601747Y-66498481D01*
X101601747Y-66498481D02*
X101472780Y-66611821D01*
X101472780Y-66611821D02*
X101356138Y-66679165D01*
X101356138Y-66679165D02*
X101251820Y-66700512D01*
D11*
X116786819Y-124631666D02*
X116786819Y-125107856D01*
X116786819Y-125107856D02*
X115786819Y-125107856D01*
X116786819Y-123774523D02*
X116786819Y-124345951D01*
X116786819Y-124060237D02*
X115786819Y-124060237D01*
X115786819Y-124060237D02*
X115929676Y-124155475D01*
X115929676Y-124155475D02*
X116024914Y-124250713D01*
X116024914Y-124250713D02*
X116072533Y-124345951D01*
X152741333Y-109928819D02*
X152408000Y-109452628D01*
X152169905Y-109928819D02*
X152169905Y-108928819D01*
X152169905Y-108928819D02*
X152550857Y-108928819D01*
X152550857Y-108928819D02*
X152646095Y-108976438D01*
X152646095Y-108976438D02*
X152693714Y-109024057D01*
X152693714Y-109024057D02*
X152741333Y-109119295D01*
X152741333Y-109119295D02*
X152741333Y-109262152D01*
X152741333Y-109262152D02*
X152693714Y-109357390D01*
X152693714Y-109357390D02*
X152646095Y-109405009D01*
X152646095Y-109405009D02*
X152550857Y-109452628D01*
X152550857Y-109452628D02*
X152169905Y-109452628D01*
X153693714Y-109928819D02*
X153122286Y-109928819D01*
X153408000Y-109928819D02*
X153408000Y-108928819D01*
X153408000Y-108928819D02*
X153312762Y-109071676D01*
X153312762Y-109071676D02*
X153217524Y-109166914D01*
X153217524Y-109166914D02*
X153122286Y-109214533D01*
X134222614Y-93591773D02*
X134727690Y-94096849D01*
X134727690Y-94096849D02*
X134795033Y-94231536D01*
X134795033Y-94231536D02*
X134795033Y-94366223D01*
X134795033Y-94366223D02*
X134727690Y-94500910D01*
X134727690Y-94500910D02*
X134660346Y-94568254D01*
X135266438Y-93962162D02*
X134559331Y-93255055D01*
X134559331Y-93255055D02*
X134828705Y-92985681D01*
X134828705Y-92985681D02*
X134929721Y-92952010D01*
X134929721Y-92952010D02*
X134997064Y-92952010D01*
X134997064Y-92952010D02*
X135098079Y-92985681D01*
X135098079Y-92985681D02*
X135199095Y-93086697D01*
X135199095Y-93086697D02*
X135232766Y-93187712D01*
X135232766Y-93187712D02*
X135232766Y-93255055D01*
X135232766Y-93255055D02*
X135199095Y-93356071D01*
X135199095Y-93356071D02*
X134929721Y-93625445D01*
X135300110Y-92648964D02*
X135300110Y-92581620D01*
X135300110Y-92581620D02*
X135333782Y-92480605D01*
X135333782Y-92480605D02*
X135502140Y-92312246D01*
X135502140Y-92312246D02*
X135603156Y-92278575D01*
X135603156Y-92278575D02*
X135670499Y-92278575D01*
X135670499Y-92278575D02*
X135771514Y-92312246D01*
X135771514Y-92312246D02*
X135838858Y-92379590D01*
X135838858Y-92379590D02*
X135906201Y-92514277D01*
X135906201Y-92514277D02*
X135906201Y-93322399D01*
X135906201Y-93322399D02*
X136343934Y-92884666D01*
D12*
X140583202Y-92830118D02*
X141155622Y-93402538D01*
X141155622Y-93402538D02*
X141256637Y-93436209D01*
X141256637Y-93436209D02*
X141323980Y-93436209D01*
X141323980Y-93436209D02*
X141424996Y-93402538D01*
X141424996Y-93402538D02*
X141559683Y-93267851D01*
X141559683Y-93267851D02*
X141593354Y-93166835D01*
X141593354Y-93166835D02*
X141593354Y-93099492D01*
X141593354Y-93099492D02*
X141559683Y-92998477D01*
X141559683Y-92998477D02*
X140987263Y-92426057D01*
X142435148Y-92392385D02*
X141862728Y-92291370D01*
X142031087Y-92796446D02*
X141323980Y-92089339D01*
X141323980Y-92089339D02*
X141593354Y-91819965D01*
X141593354Y-91819965D02*
X141694370Y-91786294D01*
X141694370Y-91786294D02*
X141761713Y-91786294D01*
X141761713Y-91786294D02*
X141862728Y-91819965D01*
X141862728Y-91819965D02*
X141963744Y-91920981D01*
X141963744Y-91920981D02*
X141997415Y-92021996D01*
X141997415Y-92021996D02*
X141997415Y-92089339D01*
X141997415Y-92089339D02*
X141963744Y-92190355D01*
X141963744Y-92190355D02*
X141694370Y-92459729D01*
X141930072Y-91483248D02*
X142334133Y-91079187D01*
X142839209Y-91988324D02*
X142132102Y-91281217D01*
D11*
X99059946Y-62153192D02*
X99001625Y-62186863D01*
X99001625Y-62186863D02*
X98851311Y-62195886D01*
X98851311Y-62195886D02*
X98759318Y-62171236D01*
X98759318Y-62171236D02*
X98633653Y-62088266D01*
X98633653Y-62088266D02*
X98566309Y-61971623D01*
X98566309Y-61971623D02*
X98544962Y-61867306D01*
X98544962Y-61867306D02*
X98548265Y-61670995D01*
X98548265Y-61670995D02*
X98585239Y-61533006D01*
X98585239Y-61533006D02*
X98680534Y-61361344D01*
X98680534Y-61361344D02*
X98751180Y-61281676D01*
X98751180Y-61281676D02*
X98867823Y-61214333D01*
X98867823Y-61214333D02*
X99018137Y-61205310D01*
X99018137Y-61205310D02*
X99110130Y-61229960D01*
X99110130Y-61229960D02*
X99235794Y-61312931D01*
X99235794Y-61312931D02*
X99269466Y-61371252D01*
X100168048Y-61513428D02*
X99708084Y-61390181D01*
X99708084Y-61390181D02*
X99538840Y-61837821D01*
X99538840Y-61837821D02*
X99597161Y-61804149D01*
X99597161Y-61804149D02*
X99701479Y-61782802D01*
X99701479Y-61782802D02*
X99931461Y-61844426D01*
X99931461Y-61844426D02*
X100011130Y-61915072D01*
X100011130Y-61915072D02*
X100044801Y-61973393D01*
X100044801Y-61973393D02*
X100066148Y-62077711D01*
X100066148Y-62077711D02*
X100004525Y-62307693D01*
X100004525Y-62307693D02*
X99933879Y-62387361D01*
X99933879Y-62387361D02*
X99875558Y-62421033D01*
X99875558Y-62421033D02*
X99771240Y-62442380D01*
X99771240Y-62442380D02*
X99541258Y-62380756D01*
X99541258Y-62380756D02*
X99461589Y-62310111D01*
X99461589Y-62310111D02*
X99427918Y-62251789D01*
X104701169Y-130482693D02*
X104633825Y-130482693D01*
X104633825Y-130482693D02*
X104499138Y-130415349D01*
X104499138Y-130415349D02*
X104431795Y-130348006D01*
X104431795Y-130348006D02*
X104364451Y-130213319D01*
X104364451Y-130213319D02*
X104364451Y-130078632D01*
X104364451Y-130078632D02*
X104398123Y-129977617D01*
X104398123Y-129977617D02*
X104499138Y-129809258D01*
X104499138Y-129809258D02*
X104600153Y-129708243D01*
X104600153Y-129708243D02*
X104768512Y-129607227D01*
X104768512Y-129607227D02*
X104869527Y-129573556D01*
X104869527Y-129573556D02*
X105004214Y-129573556D01*
X105004214Y-129573556D02*
X105138901Y-129640899D01*
X105138901Y-129640899D02*
X105206245Y-129708243D01*
X105206245Y-129708243D02*
X105273588Y-129842930D01*
X105273588Y-129842930D02*
X105273588Y-129910273D01*
X105542962Y-130179647D02*
X105610306Y-130179647D01*
X105610306Y-130179647D02*
X105711321Y-130213319D01*
X105711321Y-130213319D02*
X105879680Y-130381678D01*
X105879680Y-130381678D02*
X105913352Y-130482693D01*
X105913352Y-130482693D02*
X105913352Y-130550036D01*
X105913352Y-130550036D02*
X105879680Y-130651052D01*
X105879680Y-130651052D02*
X105812336Y-130718395D01*
X105812336Y-130718395D02*
X105677649Y-130785739D01*
X105677649Y-130785739D02*
X104869527Y-130785739D01*
X104869527Y-130785739D02*
X105307260Y-131223471D01*
X106452100Y-130954098D02*
X106519443Y-131021441D01*
X106519443Y-131021441D02*
X106553115Y-131122456D01*
X106553115Y-131122456D02*
X106553115Y-131189800D01*
X106553115Y-131189800D02*
X106519443Y-131290815D01*
X106519443Y-131290815D02*
X106418428Y-131459174D01*
X106418428Y-131459174D02*
X106250069Y-131627533D01*
X106250069Y-131627533D02*
X106081711Y-131728548D01*
X106081711Y-131728548D02*
X105980695Y-131762220D01*
X105980695Y-131762220D02*
X105913352Y-131762220D01*
X105913352Y-131762220D02*
X105812337Y-131728548D01*
X105812337Y-131728548D02*
X105744993Y-131661204D01*
X105744993Y-131661204D02*
X105711321Y-131560189D01*
X105711321Y-131560189D02*
X105711321Y-131492846D01*
X105711321Y-131492846D02*
X105744993Y-131391830D01*
X105744993Y-131391830D02*
X105846008Y-131223472D01*
X105846008Y-131223472D02*
X106014367Y-131055113D01*
X106014367Y-131055113D02*
X106182726Y-130954098D01*
X106182726Y-130954098D02*
X106283741Y-130920426D01*
X106283741Y-130920426D02*
X106351085Y-130920426D01*
X106351085Y-130920426D02*
X106452100Y-130954098D01*
X103931482Y-126164693D02*
X104638589Y-125457587D01*
X104638589Y-125457587D02*
X104806948Y-125625945D01*
X104806948Y-125625945D02*
X104874291Y-125760632D01*
X104874291Y-125760632D02*
X104874291Y-125895319D01*
X104874291Y-125895319D02*
X104840619Y-125996335D01*
X104840619Y-125996335D02*
X104739604Y-126164693D01*
X104739604Y-126164693D02*
X104638589Y-126265709D01*
X104638589Y-126265709D02*
X104470230Y-126366724D01*
X104470230Y-126366724D02*
X104369215Y-126400396D01*
X104369215Y-126400396D02*
X104234528Y-126400396D01*
X104234528Y-126400396D02*
X104099841Y-126333052D01*
X104099841Y-126333052D02*
X103931482Y-126164693D01*
X105244680Y-126198365D02*
X105312024Y-126198365D01*
X105312024Y-126198365D02*
X105413039Y-126232037D01*
X105413039Y-126232037D02*
X105581398Y-126400396D01*
X105581398Y-126400396D02*
X105615070Y-126501411D01*
X105615070Y-126501411D02*
X105615070Y-126568754D01*
X105615070Y-126568754D02*
X105581398Y-126669770D01*
X105581398Y-126669770D02*
X105514054Y-126737113D01*
X105514054Y-126737113D02*
X105379367Y-126804457D01*
X105379367Y-126804457D02*
X104571245Y-126804457D01*
X104571245Y-126804457D02*
X105008978Y-127242189D01*
X127576543Y-124155754D02*
X127677558Y-123583335D01*
X127172482Y-123751693D02*
X127879589Y-123044587D01*
X127879589Y-123044587D02*
X128148963Y-123313961D01*
X128148963Y-123313961D02*
X128182635Y-123414976D01*
X128182635Y-123414976D02*
X128182635Y-123482319D01*
X128182635Y-123482319D02*
X128148963Y-123583335D01*
X128148963Y-123583335D02*
X128047948Y-123684350D01*
X128047948Y-123684350D02*
X127946932Y-123718022D01*
X127946932Y-123718022D02*
X127879589Y-123718022D01*
X127879589Y-123718022D02*
X127778574Y-123684350D01*
X127778574Y-123684350D02*
X127509200Y-123414976D01*
X128889741Y-124054739D02*
X128755054Y-123920052D01*
X128755054Y-123920052D02*
X128654039Y-123886380D01*
X128654039Y-123886380D02*
X128586696Y-123886380D01*
X128586696Y-123886380D02*
X128418337Y-123920052D01*
X128418337Y-123920052D02*
X128249978Y-124021067D01*
X128249978Y-124021067D02*
X127980604Y-124290441D01*
X127980604Y-124290441D02*
X127946932Y-124391457D01*
X127946932Y-124391457D02*
X127946932Y-124458800D01*
X127946932Y-124458800D02*
X127980604Y-124559815D01*
X127980604Y-124559815D02*
X128115291Y-124694502D01*
X128115291Y-124694502D02*
X128216306Y-124728174D01*
X128216306Y-124728174D02*
X128283650Y-124728174D01*
X128283650Y-124728174D02*
X128384665Y-124694502D01*
X128384665Y-124694502D02*
X128553024Y-124526144D01*
X128553024Y-124526144D02*
X128586696Y-124425128D01*
X128586696Y-124425128D02*
X128586696Y-124357785D01*
X128586696Y-124357785D02*
X128553024Y-124256770D01*
X128553024Y-124256770D02*
X128418337Y-124122083D01*
X128418337Y-124122083D02*
X128317322Y-124088411D01*
X128317322Y-124088411D02*
X128249978Y-124088411D01*
X128249978Y-124088411D02*
X128148963Y-124122083D01*
X134673693Y-104213830D02*
X134673693Y-104281174D01*
X134673693Y-104281174D02*
X134606349Y-104415861D01*
X134606349Y-104415861D02*
X134539006Y-104483204D01*
X134539006Y-104483204D02*
X134404319Y-104550548D01*
X134404319Y-104550548D02*
X134269632Y-104550548D01*
X134269632Y-104550548D02*
X134168617Y-104516876D01*
X134168617Y-104516876D02*
X134000258Y-104415861D01*
X134000258Y-104415861D02*
X133899243Y-104314846D01*
X133899243Y-104314846D02*
X133798227Y-104146487D01*
X133798227Y-104146487D02*
X133764556Y-104045472D01*
X133764556Y-104045472D02*
X133764556Y-103910785D01*
X133764556Y-103910785D02*
X133831899Y-103776098D01*
X133831899Y-103776098D02*
X133899243Y-103708754D01*
X133899243Y-103708754D02*
X134033930Y-103641411D01*
X134033930Y-103641411D02*
X134101273Y-103641411D01*
X135414471Y-103607739D02*
X135010410Y-104011800D01*
X135212441Y-103809769D02*
X134505334Y-103102663D01*
X134505334Y-103102663D02*
X134539006Y-103271021D01*
X134539006Y-103271021D02*
X134539006Y-103405708D01*
X134539006Y-103405708D02*
X134505334Y-103506724D01*
X135347128Y-102260869D02*
X135010410Y-102597586D01*
X135010410Y-102597586D02*
X135313456Y-102967975D01*
X135313456Y-102967975D02*
X135313456Y-102900632D01*
X135313456Y-102900632D02*
X135347128Y-102799617D01*
X135347128Y-102799617D02*
X135515487Y-102631258D01*
X135515487Y-102631258D02*
X135616502Y-102597586D01*
X135616502Y-102597586D02*
X135683846Y-102597586D01*
X135683846Y-102597586D02*
X135784861Y-102631258D01*
X135784861Y-102631258D02*
X135953220Y-102799617D01*
X135953220Y-102799617D02*
X135986891Y-102900632D01*
X135986891Y-102900632D02*
X135986891Y-102967975D01*
X135986891Y-102967975D02*
X135953220Y-103068991D01*
X135953220Y-103068991D02*
X135784861Y-103237349D01*
X135784861Y-103237349D02*
X135683846Y-103271021D01*
X135683846Y-103271021D02*
X135616502Y-103271021D01*
X91947946Y-62915192D02*
X91889625Y-62948863D01*
X91889625Y-62948863D02*
X91739311Y-62957886D01*
X91739311Y-62957886D02*
X91647318Y-62933236D01*
X91647318Y-62933236D02*
X91521653Y-62850266D01*
X91521653Y-62850266D02*
X91454309Y-62733623D01*
X91454309Y-62733623D02*
X91432962Y-62629306D01*
X91432962Y-62629306D02*
X91436265Y-62432995D01*
X91436265Y-62432995D02*
X91473239Y-62295006D01*
X91473239Y-62295006D02*
X91568534Y-62123344D01*
X91568534Y-62123344D02*
X91639180Y-62043676D01*
X91639180Y-62043676D02*
X91755823Y-61976333D01*
X91755823Y-61976333D02*
X91906137Y-61967310D01*
X91906137Y-61967310D02*
X91998130Y-61991960D01*
X91998130Y-61991960D02*
X92123794Y-62074931D01*
X92123794Y-62074931D02*
X92157466Y-62133252D01*
X92843226Y-63253679D02*
X92291268Y-63105782D01*
X92567247Y-63179731D02*
X92826066Y-62213805D01*
X92826066Y-62213805D02*
X92697099Y-62327145D01*
X92697099Y-62327145D02*
X92580457Y-62394488D01*
X92580457Y-62394488D02*
X92476139Y-62415835D01*
X111170482Y-124005693D02*
X111877589Y-123298587D01*
X111877589Y-123298587D02*
X112045948Y-123466945D01*
X112045948Y-123466945D02*
X112113291Y-123601632D01*
X112113291Y-123601632D02*
X112113291Y-123736319D01*
X112113291Y-123736319D02*
X112079619Y-123837335D01*
X112079619Y-123837335D02*
X111978604Y-124005693D01*
X111978604Y-124005693D02*
X111877589Y-124106709D01*
X111877589Y-124106709D02*
X111709230Y-124207724D01*
X111709230Y-124207724D02*
X111608215Y-124241396D01*
X111608215Y-124241396D02*
X111473528Y-124241396D01*
X111473528Y-124241396D02*
X111338841Y-124174052D01*
X111338841Y-124174052D02*
X111170482Y-124005693D01*
X112517352Y-123938350D02*
X112955085Y-124376083D01*
X112955085Y-124376083D02*
X112450009Y-124409754D01*
X112450009Y-124409754D02*
X112551024Y-124510770D01*
X112551024Y-124510770D02*
X112584696Y-124611785D01*
X112584696Y-124611785D02*
X112584696Y-124679128D01*
X112584696Y-124679128D02*
X112551024Y-124780144D01*
X112551024Y-124780144D02*
X112382665Y-124948502D01*
X112382665Y-124948502D02*
X112281650Y-124982174D01*
X112281650Y-124982174D02*
X112214306Y-124982174D01*
X112214306Y-124982174D02*
X112113291Y-124948502D01*
X112113291Y-124948502D02*
X111911261Y-124746472D01*
X111911261Y-124746472D02*
X111877589Y-124645457D01*
X111877589Y-124645457D02*
X111877589Y-124578113D01*
X126560543Y-125171754D02*
X126661558Y-124599335D01*
X126156482Y-124767693D02*
X126863589Y-124060587D01*
X126863589Y-124060587D02*
X127132963Y-124329961D01*
X127132963Y-124329961D02*
X127166635Y-124430976D01*
X127166635Y-124430976D02*
X127166635Y-124498319D01*
X127166635Y-124498319D02*
X127132963Y-124599335D01*
X127132963Y-124599335D02*
X127031948Y-124700350D01*
X127031948Y-124700350D02*
X126930932Y-124734022D01*
X126930932Y-124734022D02*
X126863589Y-124734022D01*
X126863589Y-124734022D02*
X126762574Y-124700350D01*
X126762574Y-124700350D02*
X126493200Y-124430976D01*
X127503352Y-124700350D02*
X127941085Y-125138083D01*
X127941085Y-125138083D02*
X127436009Y-125171754D01*
X127436009Y-125171754D02*
X127537024Y-125272770D01*
X127537024Y-125272770D02*
X127570696Y-125373785D01*
X127570696Y-125373785D02*
X127570696Y-125441128D01*
X127570696Y-125441128D02*
X127537024Y-125542144D01*
X127537024Y-125542144D02*
X127368665Y-125710502D01*
X127368665Y-125710502D02*
X127267650Y-125744174D01*
X127267650Y-125744174D02*
X127200306Y-125744174D01*
X127200306Y-125744174D02*
X127099291Y-125710502D01*
X127099291Y-125710502D02*
X126897261Y-125508472D01*
X126897261Y-125508472D02*
X126863589Y-125407457D01*
X126863589Y-125407457D02*
X126863589Y-125340113D01*
X91058946Y-65836192D02*
X91000625Y-65869863D01*
X91000625Y-65869863D02*
X90850311Y-65878886D01*
X90850311Y-65878886D02*
X90758318Y-65854236D01*
X90758318Y-65854236D02*
X90632653Y-65771266D01*
X90632653Y-65771266D02*
X90565309Y-65654623D01*
X90565309Y-65654623D02*
X90543962Y-65550306D01*
X90543962Y-65550306D02*
X90547265Y-65353995D01*
X90547265Y-65353995D02*
X90584239Y-65216006D01*
X90584239Y-65216006D02*
X90679534Y-65044344D01*
X90679534Y-65044344D02*
X90750180Y-64964676D01*
X90750180Y-64964676D02*
X90866823Y-64897333D01*
X90866823Y-64897333D02*
X91017137Y-64888310D01*
X91017137Y-64888310D02*
X91109130Y-64912960D01*
X91109130Y-64912960D02*
X91234794Y-64995931D01*
X91234794Y-64995931D02*
X91268466Y-65054252D01*
X92034779Y-65506079D02*
X91862233Y-66150029D01*
X91903394Y-65076484D02*
X91488541Y-65704807D01*
X91488541Y-65704807D02*
X92086495Y-65865028D01*
D12*
X142978333Y-95573168D02*
X142978333Y-96382691D01*
X142978333Y-96382691D02*
X143025952Y-96477929D01*
X143025952Y-96477929D02*
X143073571Y-96525549D01*
X143073571Y-96525549D02*
X143168809Y-96573168D01*
X143168809Y-96573168D02*
X143359285Y-96573168D01*
X143359285Y-96573168D02*
X143454523Y-96525549D01*
X143454523Y-96525549D02*
X143502142Y-96477929D01*
X143502142Y-96477929D02*
X143549761Y-96382691D01*
X143549761Y-96382691D02*
X143549761Y-95573168D01*
X144597380Y-96573168D02*
X144264047Y-96096977D01*
X144025952Y-96573168D02*
X144025952Y-95573168D01*
X144025952Y-95573168D02*
X144406904Y-95573168D01*
X144406904Y-95573168D02*
X144502142Y-95620787D01*
X144502142Y-95620787D02*
X144549761Y-95668406D01*
X144549761Y-95668406D02*
X144597380Y-95763644D01*
X144597380Y-95763644D02*
X144597380Y-95906501D01*
X144597380Y-95906501D02*
X144549761Y-96001739D01*
X144549761Y-96001739D02*
X144502142Y-96049358D01*
X144502142Y-96049358D02*
X144406904Y-96096977D01*
X144406904Y-96096977D02*
X144025952Y-96096977D01*
X144883095Y-95573168D02*
X145454523Y-95573168D01*
X145168809Y-96573168D02*
X145168809Y-95573168D01*
D11*
X91439946Y-64312192D02*
X91381625Y-64345863D01*
X91381625Y-64345863D02*
X91231311Y-64354886D01*
X91231311Y-64354886D02*
X91139318Y-64330236D01*
X91139318Y-64330236D02*
X91013653Y-64247266D01*
X91013653Y-64247266D02*
X90946309Y-64130623D01*
X90946309Y-64130623D02*
X90924962Y-64026306D01*
X90924962Y-64026306D02*
X90928265Y-63829995D01*
X90928265Y-63829995D02*
X90965239Y-63692006D01*
X90965239Y-63692006D02*
X91060534Y-63520344D01*
X91060534Y-63520344D02*
X91131180Y-63440676D01*
X91131180Y-63440676D02*
X91247823Y-63373333D01*
X91247823Y-63373333D02*
X91398137Y-63364310D01*
X91398137Y-63364310D02*
X91490130Y-63388960D01*
X91490130Y-63388960D02*
X91615794Y-63471931D01*
X91615794Y-63471931D02*
X91649466Y-63530252D01*
X92017438Y-63628849D02*
X92075759Y-63595178D01*
X92075759Y-63595178D02*
X92180077Y-63573831D01*
X92180077Y-63573831D02*
X92410059Y-63635454D01*
X92410059Y-63635454D02*
X92489727Y-63706100D01*
X92489727Y-63706100D02*
X92523399Y-63764421D01*
X92523399Y-63764421D02*
X92544746Y-63868739D01*
X92544746Y-63868739D02*
X92520097Y-63960732D01*
X92520097Y-63960732D02*
X92437126Y-64086397D01*
X92437126Y-64086397D02*
X91737272Y-64490458D01*
X91737272Y-64490458D02*
X92335226Y-64650679D01*
X139464693Y-97227861D02*
X138892273Y-97800281D01*
X138892273Y-97800281D02*
X138858601Y-97901296D01*
X138858601Y-97901296D02*
X138858601Y-97968640D01*
X138858601Y-97968640D02*
X138892273Y-98069655D01*
X138892273Y-98069655D02*
X139026960Y-98204342D01*
X139026960Y-98204342D02*
X139127975Y-98238014D01*
X139127975Y-98238014D02*
X139195319Y-98238014D01*
X139195319Y-98238014D02*
X139296334Y-98204342D01*
X139296334Y-98204342D02*
X139868754Y-97631922D01*
X140272815Y-98507388D02*
X139801410Y-98978792D01*
X140373830Y-98069655D02*
X139700395Y-98406373D01*
X139700395Y-98406373D02*
X140138128Y-98844105D01*
D13*
X134383448Y-100708320D02*
X134585478Y-100506289D01*
X134585478Y-100506289D02*
X134403651Y-100284056D01*
X134403651Y-100284056D02*
X134403651Y-100324462D01*
X134403651Y-100324462D02*
X134383448Y-100385071D01*
X134383448Y-100385071D02*
X134282433Y-100486086D01*
X134282433Y-100486086D02*
X134221823Y-100506289D01*
X134221823Y-100506289D02*
X134181417Y-100506289D01*
X134181417Y-100506289D02*
X134120808Y-100486086D01*
X134120808Y-100486086D02*
X134019793Y-100385071D01*
X134019793Y-100385071D02*
X133999590Y-100324462D01*
X133999590Y-100324462D02*
X133999590Y-100284056D01*
X133999590Y-100284056D02*
X134019793Y-100223447D01*
X134019793Y-100223447D02*
X134120808Y-100122431D01*
X134120808Y-100122431D02*
X134181417Y-100102228D01*
X134181417Y-100102228D02*
X134221823Y-100102228D01*
X137418806Y-103020812D02*
X137661242Y-102778375D01*
X137540024Y-102899593D02*
X137964288Y-103323857D01*
X137964288Y-103323857D02*
X137944085Y-103222842D01*
X137944085Y-103222842D02*
X137944085Y-103142030D01*
X137944085Y-103142030D02*
X137964288Y-103081421D01*
X137580430Y-103707716D02*
X137540024Y-103748122D01*
X137540024Y-103748122D02*
X137479415Y-103768325D01*
X137479415Y-103768325D02*
X137439008Y-103768325D01*
X137439008Y-103768325D02*
X137378399Y-103748122D01*
X137378399Y-103748122D02*
X137277384Y-103687513D01*
X137277384Y-103687513D02*
X137176369Y-103586497D01*
X137176369Y-103586497D02*
X137115760Y-103485482D01*
X137115760Y-103485482D02*
X137095557Y-103424873D01*
X137095557Y-103424873D02*
X137095557Y-103384467D01*
X137095557Y-103384467D02*
X137115760Y-103323858D01*
X137115760Y-103323858D02*
X137156166Y-103283452D01*
X137156166Y-103283452D02*
X137216775Y-103263249D01*
X137216775Y-103263249D02*
X137257181Y-103263249D01*
X137257181Y-103263249D02*
X137317790Y-103283452D01*
X137317790Y-103283452D02*
X137418805Y-103344061D01*
X137418805Y-103344061D02*
X137519821Y-103445076D01*
X137519821Y-103445076D02*
X137580430Y-103546091D01*
X137580430Y-103546091D02*
X137600633Y-103606700D01*
X137600633Y-103606700D02*
X137600633Y-103647107D01*
X137600633Y-103647107D02*
X137580430Y-103707716D01*
X136722860Y-97520380D02*
X136965296Y-97277943D01*
X136844078Y-97399161D02*
X137268342Y-97823425D01*
X137268342Y-97823425D02*
X137248139Y-97722410D01*
X137248139Y-97722410D02*
X137248139Y-97641598D01*
X137248139Y-97641598D02*
X137268342Y-97580989D01*
X140292488Y-100147130D02*
X140534924Y-99904693D01*
X140413706Y-100025911D02*
X140837970Y-100450175D01*
X140837970Y-100450175D02*
X140817767Y-100349160D01*
X140817767Y-100349160D02*
X140817767Y-100268348D01*
X140817767Y-100268348D02*
X140837970Y-100207739D01*
X140332894Y-100955252D02*
X140534924Y-100753222D01*
X140534924Y-100753222D02*
X140353097Y-100530988D01*
X140353097Y-100530988D02*
X140353097Y-100571394D01*
X140353097Y-100571394D02*
X140332894Y-100632003D01*
X140332894Y-100632003D02*
X140231878Y-100733018D01*
X140231878Y-100733018D02*
X140171269Y-100753222D01*
X140171269Y-100753222D02*
X140130863Y-100753222D01*
X140130863Y-100753222D02*
X140070254Y-100733018D01*
X140070254Y-100733018D02*
X139969239Y-100632003D01*
X139969239Y-100632003D02*
X139949036Y-100571394D01*
X139949036Y-100571394D02*
X139949036Y-100530988D01*
X139949036Y-100530988D02*
X139969239Y-100470379D01*
X139969239Y-100470379D02*
X140070254Y-100369364D01*
X140070254Y-100369364D02*
X140130863Y-100349161D01*
X140130863Y-100349161D02*
X140171269Y-100349161D01*
D12*
X123523333Y-131673780D02*
X123523333Y-130959495D01*
X123523333Y-130959495D02*
X123570952Y-130816638D01*
X123570952Y-130816638D02*
X123666190Y-130721400D01*
X123666190Y-130721400D02*
X123809047Y-130673780D01*
X123809047Y-130673780D02*
X123904285Y-130673780D01*
X123142380Y-131673780D02*
X122523333Y-131673780D01*
X122523333Y-131673780D02*
X122856666Y-131292828D01*
X122856666Y-131292828D02*
X122713809Y-131292828D01*
X122713809Y-131292828D02*
X122618571Y-131245209D01*
X122618571Y-131245209D02*
X122570952Y-131197590D01*
X122570952Y-131197590D02*
X122523333Y-131102352D01*
X122523333Y-131102352D02*
X122523333Y-130864257D01*
X122523333Y-130864257D02*
X122570952Y-130769019D01*
X122570952Y-130769019D02*
X122618571Y-130721400D01*
X122618571Y-130721400D02*
X122713809Y-130673780D01*
X122713809Y-130673780D02*
X122999523Y-130673780D01*
X122999523Y-130673780D02*
X123094761Y-130721400D01*
X123094761Y-130721400D02*
X123142380Y-130769019D01*
D11*
X135458754Y-107373456D02*
X134886335Y-107272441D01*
X135054693Y-107777517D02*
X134347587Y-107070410D01*
X134347587Y-107070410D02*
X134616961Y-106801036D01*
X134616961Y-106801036D02*
X134717976Y-106767364D01*
X134717976Y-106767364D02*
X134785319Y-106767364D01*
X134785319Y-106767364D02*
X134886335Y-106801036D01*
X134886335Y-106801036D02*
X134987350Y-106902051D01*
X134987350Y-106902051D02*
X135021022Y-107003067D01*
X135021022Y-107003067D02*
X135021022Y-107070410D01*
X135021022Y-107070410D02*
X134987350Y-107171425D01*
X134987350Y-107171425D02*
X134717976Y-107440799D01*
X135391411Y-106026586D02*
X135054693Y-106363303D01*
X135054693Y-106363303D02*
X135357739Y-106733693D01*
X135357739Y-106733693D02*
X135357739Y-106666349D01*
X135357739Y-106666349D02*
X135391411Y-106565334D01*
X135391411Y-106565334D02*
X135559770Y-106396975D01*
X135559770Y-106396975D02*
X135660785Y-106363303D01*
X135660785Y-106363303D02*
X135728128Y-106363303D01*
X135728128Y-106363303D02*
X135829144Y-106396975D01*
X135829144Y-106396975D02*
X135997502Y-106565334D01*
X135997502Y-106565334D02*
X136031174Y-106666349D01*
X136031174Y-106666349D02*
X136031174Y-106733693D01*
X136031174Y-106733693D02*
X135997502Y-106834708D01*
X135997502Y-106834708D02*
X135829144Y-107003067D01*
X135829144Y-107003067D02*
X135728128Y-107036738D01*
X135728128Y-107036738D02*
X135660785Y-107036738D01*
X127561169Y-98478693D02*
X127493825Y-98478693D01*
X127493825Y-98478693D02*
X127359138Y-98411349D01*
X127359138Y-98411349D02*
X127291795Y-98344006D01*
X127291795Y-98344006D02*
X127224451Y-98209319D01*
X127224451Y-98209319D02*
X127224451Y-98074632D01*
X127224451Y-98074632D02*
X127258123Y-97973617D01*
X127258123Y-97973617D02*
X127359138Y-97805258D01*
X127359138Y-97805258D02*
X127460153Y-97704243D01*
X127460153Y-97704243D02*
X127628512Y-97603227D01*
X127628512Y-97603227D02*
X127729527Y-97569556D01*
X127729527Y-97569556D02*
X127864214Y-97569556D01*
X127864214Y-97569556D02*
X127998901Y-97636899D01*
X127998901Y-97636899D02*
X128066245Y-97704243D01*
X128066245Y-97704243D02*
X128133588Y-97838930D01*
X128133588Y-97838930D02*
X128133588Y-97906273D01*
X128167260Y-99219471D02*
X127763199Y-98815410D01*
X127965230Y-99017441D02*
X128672336Y-98310334D01*
X128672336Y-98310334D02*
X128503978Y-98344006D01*
X128503978Y-98344006D02*
X128369291Y-98344006D01*
X128369291Y-98344006D02*
X128268275Y-98310334D01*
X129244756Y-99354159D02*
X128773352Y-99825563D01*
X129345772Y-98916426D02*
X128672337Y-99253143D01*
X128672337Y-99253143D02*
X129110069Y-99690876D01*
X158693295Y-108569523D02*
X159340914Y-108569523D01*
X159340914Y-108569523D02*
X159417104Y-108531428D01*
X159417104Y-108531428D02*
X159455200Y-108493333D01*
X159455200Y-108493333D02*
X159493295Y-108417142D01*
X159493295Y-108417142D02*
X159493295Y-108264761D01*
X159493295Y-108264761D02*
X159455200Y-108188571D01*
X159455200Y-108188571D02*
X159417104Y-108150476D01*
X159417104Y-108150476D02*
X159340914Y-108112380D01*
X159340914Y-108112380D02*
X158693295Y-108112380D01*
X158693295Y-107807619D02*
X158693295Y-107312381D01*
X158693295Y-107312381D02*
X158998057Y-107579047D01*
X158998057Y-107579047D02*
X158998057Y-107464762D01*
X158998057Y-107464762D02*
X159036152Y-107388571D01*
X159036152Y-107388571D02*
X159074247Y-107350476D01*
X159074247Y-107350476D02*
X159150438Y-107312381D01*
X159150438Y-107312381D02*
X159340914Y-107312381D01*
X159340914Y-107312381D02*
X159417104Y-107350476D01*
X159417104Y-107350476D02*
X159455200Y-107388571D01*
X159455200Y-107388571D02*
X159493295Y-107464762D01*
X159493295Y-107464762D02*
X159493295Y-107693333D01*
X159493295Y-107693333D02*
X159455200Y-107769524D01*
X159455200Y-107769524D02*
X159417104Y-107807619D01*
X152669705Y-73235019D02*
X152669705Y-74044542D01*
X152669705Y-74044542D02*
X152717324Y-74139780D01*
X152717324Y-74139780D02*
X152764943Y-74187400D01*
X152764943Y-74187400D02*
X152860181Y-74235019D01*
X152860181Y-74235019D02*
X153050657Y-74235019D01*
X153050657Y-74235019D02*
X153145895Y-74187400D01*
X153145895Y-74187400D02*
X153193514Y-74139780D01*
X153193514Y-74139780D02*
X153241133Y-74044542D01*
X153241133Y-74044542D02*
X153241133Y-73235019D01*
X153669705Y-73330257D02*
X153717324Y-73282638D01*
X153717324Y-73282638D02*
X153812562Y-73235019D01*
X153812562Y-73235019D02*
X154050657Y-73235019D01*
X154050657Y-73235019D02*
X154145895Y-73282638D01*
X154145895Y-73282638D02*
X154193514Y-73330257D01*
X154193514Y-73330257D02*
X154241133Y-73425495D01*
X154241133Y-73425495D02*
X154241133Y-73520733D01*
X154241133Y-73520733D02*
X154193514Y-73663590D01*
X154193514Y-73663590D02*
X153622086Y-74235019D01*
X153622086Y-74235019D02*
X154241133Y-74235019D01*
D14*
X155822083Y-83494530D02*
X155822083Y-82944530D01*
X155822083Y-82944530D02*
X156031607Y-82944530D01*
X156031607Y-82944530D02*
X156083988Y-82970720D01*
X156083988Y-82970720D02*
X156110178Y-82996911D01*
X156110178Y-82996911D02*
X156136369Y-83049292D01*
X156136369Y-83049292D02*
X156136369Y-83127863D01*
X156136369Y-83127863D02*
X156110178Y-83180244D01*
X156110178Y-83180244D02*
X156083988Y-83206435D01*
X156083988Y-83206435D02*
X156031607Y-83232625D01*
X156031607Y-83232625D02*
X155822083Y-83232625D01*
X156660178Y-83494530D02*
X156345892Y-83494530D01*
X156503035Y-83494530D02*
X156503035Y-82944530D01*
X156503035Y-82944530D02*
X156450654Y-83023101D01*
X156450654Y-83023101D02*
X156398273Y-83075482D01*
X156398273Y-83075482D02*
X156345892Y-83101673D01*
X156869702Y-82996911D02*
X156895893Y-82970720D01*
X156895893Y-82970720D02*
X156948274Y-82944530D01*
X156948274Y-82944530D02*
X157079226Y-82944530D01*
X157079226Y-82944530D02*
X157131607Y-82970720D01*
X157131607Y-82970720D02*
X157157798Y-82996911D01*
X157157798Y-82996911D02*
X157183988Y-83049292D01*
X157183988Y-83049292D02*
X157183988Y-83101673D01*
X157183988Y-83101673D02*
X157157798Y-83180244D01*
X157157798Y-83180244D02*
X156843512Y-83494530D01*
X156843512Y-83494530D02*
X157183988Y-83494530D01*
X155822083Y-87304530D02*
X155822083Y-86754530D01*
X155822083Y-86754530D02*
X156031607Y-86754530D01*
X156031607Y-86754530D02*
X156083988Y-86780720D01*
X156083988Y-86780720D02*
X156110178Y-86806911D01*
X156110178Y-86806911D02*
X156136369Y-86859292D01*
X156136369Y-86859292D02*
X156136369Y-86937863D01*
X156136369Y-86937863D02*
X156110178Y-86990244D01*
X156110178Y-86990244D02*
X156083988Y-87016435D01*
X156083988Y-87016435D02*
X156031607Y-87042625D01*
X156031607Y-87042625D02*
X155822083Y-87042625D01*
X156476845Y-86754530D02*
X156529226Y-86754530D01*
X156529226Y-86754530D02*
X156581607Y-86780720D01*
X156581607Y-86780720D02*
X156607797Y-86806911D01*
X156607797Y-86806911D02*
X156633988Y-86859292D01*
X156633988Y-86859292D02*
X156660178Y-86964054D01*
X156660178Y-86964054D02*
X156660178Y-87095006D01*
X156660178Y-87095006D02*
X156633988Y-87199768D01*
X156633988Y-87199768D02*
X156607797Y-87252149D01*
X156607797Y-87252149D02*
X156581607Y-87278340D01*
X156581607Y-87278340D02*
X156529226Y-87304530D01*
X156529226Y-87304530D02*
X156476845Y-87304530D01*
X156476845Y-87304530D02*
X156424464Y-87278340D01*
X156424464Y-87278340D02*
X156398273Y-87252149D01*
X156398273Y-87252149D02*
X156372083Y-87199768D01*
X156372083Y-87199768D02*
X156345892Y-87095006D01*
X156345892Y-87095006D02*
X156345892Y-86964054D01*
X156345892Y-86964054D02*
X156372083Y-86859292D01*
X156372083Y-86859292D02*
X156398273Y-86806911D01*
X156398273Y-86806911D02*
X156424464Y-86780720D01*
X156424464Y-86780720D02*
X156476845Y-86754530D01*
X156843512Y-86754530D02*
X157210179Y-86754530D01*
X157210179Y-86754530D02*
X156974464Y-87304530D01*
X151074469Y-87115083D02*
X151624469Y-87115083D01*
X151624469Y-87115083D02*
X151624469Y-87324607D01*
X151624469Y-87324607D02*
X151598279Y-87376988D01*
X151598279Y-87376988D02*
X151572088Y-87403178D01*
X151572088Y-87403178D02*
X151519707Y-87429369D01*
X151519707Y-87429369D02*
X151441136Y-87429369D01*
X151441136Y-87429369D02*
X151388755Y-87403178D01*
X151388755Y-87403178D02*
X151362564Y-87376988D01*
X151362564Y-87376988D02*
X151336374Y-87324607D01*
X151336374Y-87324607D02*
X151336374Y-87115083D01*
X151624469Y-87769845D02*
X151624469Y-87822226D01*
X151624469Y-87822226D02*
X151598279Y-87874607D01*
X151598279Y-87874607D02*
X151572088Y-87900797D01*
X151572088Y-87900797D02*
X151519707Y-87926988D01*
X151519707Y-87926988D02*
X151414945Y-87953178D01*
X151414945Y-87953178D02*
X151283993Y-87953178D01*
X151283993Y-87953178D02*
X151179231Y-87926988D01*
X151179231Y-87926988D02*
X151126850Y-87900797D01*
X151126850Y-87900797D02*
X151100660Y-87874607D01*
X151100660Y-87874607D02*
X151074469Y-87822226D01*
X151074469Y-87822226D02*
X151074469Y-87769845D01*
X151074469Y-87769845D02*
X151100660Y-87717464D01*
X151100660Y-87717464D02*
X151126850Y-87691273D01*
X151126850Y-87691273D02*
X151179231Y-87665083D01*
X151179231Y-87665083D02*
X151283993Y-87638892D01*
X151283993Y-87638892D02*
X151414945Y-87638892D01*
X151414945Y-87638892D02*
X151519707Y-87665083D01*
X151519707Y-87665083D02*
X151572088Y-87691273D01*
X151572088Y-87691273D02*
X151598279Y-87717464D01*
X151598279Y-87717464D02*
X151624469Y-87769845D01*
X151074469Y-88476988D02*
X151074469Y-88162702D01*
X151074469Y-88319845D02*
X151624469Y-88319845D01*
X151624469Y-88319845D02*
X151545898Y-88267464D01*
X151545898Y-88267464D02*
X151493517Y-88215083D01*
X151493517Y-88215083D02*
X151467326Y-88162702D01*
X155822083Y-79684530D02*
X155822083Y-79134530D01*
X155822083Y-79134530D02*
X156031607Y-79134530D01*
X156031607Y-79134530D02*
X156083988Y-79160720D01*
X156083988Y-79160720D02*
X156110178Y-79186911D01*
X156110178Y-79186911D02*
X156136369Y-79239292D01*
X156136369Y-79239292D02*
X156136369Y-79317863D01*
X156136369Y-79317863D02*
X156110178Y-79370244D01*
X156110178Y-79370244D02*
X156083988Y-79396435D01*
X156083988Y-79396435D02*
X156031607Y-79422625D01*
X156031607Y-79422625D02*
X155822083Y-79422625D01*
X156660178Y-79684530D02*
X156345892Y-79684530D01*
X156503035Y-79684530D02*
X156503035Y-79134530D01*
X156503035Y-79134530D02*
X156450654Y-79213101D01*
X156450654Y-79213101D02*
X156398273Y-79265482D01*
X156398273Y-79265482D02*
X156345892Y-79291673D01*
X157157798Y-79134530D02*
X156895893Y-79134530D01*
X156895893Y-79134530D02*
X156869702Y-79396435D01*
X156869702Y-79396435D02*
X156895893Y-79370244D01*
X156895893Y-79370244D02*
X156948274Y-79344054D01*
X156948274Y-79344054D02*
X157079226Y-79344054D01*
X157079226Y-79344054D02*
X157131607Y-79370244D01*
X157131607Y-79370244D02*
X157157798Y-79396435D01*
X157157798Y-79396435D02*
X157183988Y-79448816D01*
X157183988Y-79448816D02*
X157183988Y-79579768D01*
X157183988Y-79579768D02*
X157157798Y-79632149D01*
X157157798Y-79632149D02*
X157131607Y-79658340D01*
X157131607Y-79658340D02*
X157079226Y-79684530D01*
X157079226Y-79684530D02*
X156948274Y-79684530D01*
X156948274Y-79684530D02*
X156895893Y-79658340D01*
X156895893Y-79658340D02*
X156869702Y-79632149D01*
X146057969Y-77082083D02*
X146607969Y-77082083D01*
X146607969Y-77082083D02*
X146607969Y-77291607D01*
X146607969Y-77291607D02*
X146581779Y-77343988D01*
X146581779Y-77343988D02*
X146555588Y-77370178D01*
X146555588Y-77370178D02*
X146503207Y-77396369D01*
X146503207Y-77396369D02*
X146424636Y-77396369D01*
X146424636Y-77396369D02*
X146372255Y-77370178D01*
X146372255Y-77370178D02*
X146346064Y-77343988D01*
X146346064Y-77343988D02*
X146319874Y-77291607D01*
X146319874Y-77291607D02*
X146319874Y-77082083D01*
X146057969Y-77920178D02*
X146057969Y-77605892D01*
X146057969Y-77763035D02*
X146607969Y-77763035D01*
X146607969Y-77763035D02*
X146529398Y-77710654D01*
X146529398Y-77710654D02*
X146477017Y-77658273D01*
X146477017Y-77658273D02*
X146450826Y-77605892D01*
X146607969Y-78391607D02*
X146607969Y-78286845D01*
X146607969Y-78286845D02*
X146581779Y-78234464D01*
X146581779Y-78234464D02*
X146555588Y-78208274D01*
X146555588Y-78208274D02*
X146477017Y-78155893D01*
X146477017Y-78155893D02*
X146372255Y-78129702D01*
X146372255Y-78129702D02*
X146162731Y-78129702D01*
X146162731Y-78129702D02*
X146110350Y-78155893D01*
X146110350Y-78155893D02*
X146084160Y-78182083D01*
X146084160Y-78182083D02*
X146057969Y-78234464D01*
X146057969Y-78234464D02*
X146057969Y-78339226D01*
X146057969Y-78339226D02*
X146084160Y-78391607D01*
X146084160Y-78391607D02*
X146110350Y-78417798D01*
X146110350Y-78417798D02*
X146162731Y-78443988D01*
X146162731Y-78443988D02*
X146293683Y-78443988D01*
X146293683Y-78443988D02*
X146346064Y-78417798D01*
X146346064Y-78417798D02*
X146372255Y-78391607D01*
X146372255Y-78391607D02*
X146398445Y-78339226D01*
X146398445Y-78339226D02*
X146398445Y-78234464D01*
X146398445Y-78234464D02*
X146372255Y-78182083D01*
X146372255Y-78182083D02*
X146346064Y-78155893D01*
X146346064Y-78155893D02*
X146293683Y-78129702D01*
X151137969Y-77082083D02*
X151687969Y-77082083D01*
X151687969Y-77082083D02*
X151687969Y-77291607D01*
X151687969Y-77291607D02*
X151661779Y-77343988D01*
X151661779Y-77343988D02*
X151635588Y-77370178D01*
X151635588Y-77370178D02*
X151583207Y-77396369D01*
X151583207Y-77396369D02*
X151504636Y-77396369D01*
X151504636Y-77396369D02*
X151452255Y-77370178D01*
X151452255Y-77370178D02*
X151426064Y-77343988D01*
X151426064Y-77343988D02*
X151399874Y-77291607D01*
X151399874Y-77291607D02*
X151399874Y-77082083D01*
X151635588Y-77605892D02*
X151661779Y-77632083D01*
X151661779Y-77632083D02*
X151687969Y-77684464D01*
X151687969Y-77684464D02*
X151687969Y-77815416D01*
X151687969Y-77815416D02*
X151661779Y-77867797D01*
X151661779Y-77867797D02*
X151635588Y-77893988D01*
X151635588Y-77893988D02*
X151583207Y-77920178D01*
X151583207Y-77920178D02*
X151530826Y-77920178D01*
X151530826Y-77920178D02*
X151452255Y-77893988D01*
X151452255Y-77893988D02*
X151137969Y-77579702D01*
X151137969Y-77579702D02*
X151137969Y-77920178D01*
X151635588Y-78129702D02*
X151661779Y-78155893D01*
X151661779Y-78155893D02*
X151687969Y-78208274D01*
X151687969Y-78208274D02*
X151687969Y-78339226D01*
X151687969Y-78339226D02*
X151661779Y-78391607D01*
X151661779Y-78391607D02*
X151635588Y-78417798D01*
X151635588Y-78417798D02*
X151583207Y-78443988D01*
X151583207Y-78443988D02*
X151530826Y-78443988D01*
X151530826Y-78443988D02*
X151452255Y-78417798D01*
X151452255Y-78417798D02*
X151137969Y-78103512D01*
X151137969Y-78103512D02*
X151137969Y-78443988D01*
X147264469Y-87115083D02*
X147814469Y-87115083D01*
X147814469Y-87115083D02*
X147814469Y-87324607D01*
X147814469Y-87324607D02*
X147788279Y-87376988D01*
X147788279Y-87376988D02*
X147762088Y-87403178D01*
X147762088Y-87403178D02*
X147709707Y-87429369D01*
X147709707Y-87429369D02*
X147631136Y-87429369D01*
X147631136Y-87429369D02*
X147578755Y-87403178D01*
X147578755Y-87403178D02*
X147552564Y-87376988D01*
X147552564Y-87376988D02*
X147526374Y-87324607D01*
X147526374Y-87324607D02*
X147526374Y-87115083D01*
X147814469Y-87769845D02*
X147814469Y-87822226D01*
X147814469Y-87822226D02*
X147788279Y-87874607D01*
X147788279Y-87874607D02*
X147762088Y-87900797D01*
X147762088Y-87900797D02*
X147709707Y-87926988D01*
X147709707Y-87926988D02*
X147604945Y-87953178D01*
X147604945Y-87953178D02*
X147473993Y-87953178D01*
X147473993Y-87953178D02*
X147369231Y-87926988D01*
X147369231Y-87926988D02*
X147316850Y-87900797D01*
X147316850Y-87900797D02*
X147290660Y-87874607D01*
X147290660Y-87874607D02*
X147264469Y-87822226D01*
X147264469Y-87822226D02*
X147264469Y-87769845D01*
X147264469Y-87769845D02*
X147290660Y-87717464D01*
X147290660Y-87717464D02*
X147316850Y-87691273D01*
X147316850Y-87691273D02*
X147369231Y-87665083D01*
X147369231Y-87665083D02*
X147473993Y-87638892D01*
X147473993Y-87638892D02*
X147604945Y-87638892D01*
X147604945Y-87638892D02*
X147709707Y-87665083D01*
X147709707Y-87665083D02*
X147762088Y-87691273D01*
X147762088Y-87691273D02*
X147788279Y-87717464D01*
X147788279Y-87717464D02*
X147814469Y-87769845D01*
X147631136Y-88424607D02*
X147264469Y-88424607D01*
X147840660Y-88293655D02*
X147447802Y-88162702D01*
X147447802Y-88162702D02*
X147447802Y-88503179D01*
X148534469Y-87115083D02*
X149084469Y-87115083D01*
X149084469Y-87115083D02*
X149084469Y-87324607D01*
X149084469Y-87324607D02*
X149058279Y-87376988D01*
X149058279Y-87376988D02*
X149032088Y-87403178D01*
X149032088Y-87403178D02*
X148979707Y-87429369D01*
X148979707Y-87429369D02*
X148901136Y-87429369D01*
X148901136Y-87429369D02*
X148848755Y-87403178D01*
X148848755Y-87403178D02*
X148822564Y-87376988D01*
X148822564Y-87376988D02*
X148796374Y-87324607D01*
X148796374Y-87324607D02*
X148796374Y-87115083D01*
X149084469Y-87769845D02*
X149084469Y-87822226D01*
X149084469Y-87822226D02*
X149058279Y-87874607D01*
X149058279Y-87874607D02*
X149032088Y-87900797D01*
X149032088Y-87900797D02*
X148979707Y-87926988D01*
X148979707Y-87926988D02*
X148874945Y-87953178D01*
X148874945Y-87953178D02*
X148743993Y-87953178D01*
X148743993Y-87953178D02*
X148639231Y-87926988D01*
X148639231Y-87926988D02*
X148586850Y-87900797D01*
X148586850Y-87900797D02*
X148560660Y-87874607D01*
X148560660Y-87874607D02*
X148534469Y-87822226D01*
X148534469Y-87822226D02*
X148534469Y-87769845D01*
X148534469Y-87769845D02*
X148560660Y-87717464D01*
X148560660Y-87717464D02*
X148586850Y-87691273D01*
X148586850Y-87691273D02*
X148639231Y-87665083D01*
X148639231Y-87665083D02*
X148743993Y-87638892D01*
X148743993Y-87638892D02*
X148874945Y-87638892D01*
X148874945Y-87638892D02*
X148979707Y-87665083D01*
X148979707Y-87665083D02*
X149032088Y-87691273D01*
X149032088Y-87691273D02*
X149058279Y-87717464D01*
X149058279Y-87717464D02*
X149084469Y-87769845D01*
X149084469Y-88136512D02*
X149084469Y-88476988D01*
X149084469Y-88476988D02*
X148874945Y-88293655D01*
X148874945Y-88293655D02*
X148874945Y-88372226D01*
X148874945Y-88372226D02*
X148848755Y-88424607D01*
X148848755Y-88424607D02*
X148822564Y-88450798D01*
X148822564Y-88450798D02*
X148770183Y-88476988D01*
X148770183Y-88476988D02*
X148639231Y-88476988D01*
X148639231Y-88476988D02*
X148586850Y-88450798D01*
X148586850Y-88450798D02*
X148560660Y-88424607D01*
X148560660Y-88424607D02*
X148534469Y-88372226D01*
X148534469Y-88372226D02*
X148534469Y-88215083D01*
X148534469Y-88215083D02*
X148560660Y-88162702D01*
X148560660Y-88162702D02*
X148586850Y-88136512D01*
X152957969Y-77003511D02*
X152407969Y-77186845D01*
X152407969Y-77186845D02*
X152957969Y-77370178D01*
X152460350Y-77867798D02*
X152434160Y-77841607D01*
X152434160Y-77841607D02*
X152407969Y-77763036D01*
X152407969Y-77763036D02*
X152407969Y-77710655D01*
X152407969Y-77710655D02*
X152434160Y-77632083D01*
X152434160Y-77632083D02*
X152486540Y-77579702D01*
X152486540Y-77579702D02*
X152538921Y-77553512D01*
X152538921Y-77553512D02*
X152643683Y-77527321D01*
X152643683Y-77527321D02*
X152722255Y-77527321D01*
X152722255Y-77527321D02*
X152827017Y-77553512D01*
X152827017Y-77553512D02*
X152879398Y-77579702D01*
X152879398Y-77579702D02*
X152931779Y-77632083D01*
X152931779Y-77632083D02*
X152957969Y-77710655D01*
X152957969Y-77710655D02*
X152957969Y-77763036D01*
X152957969Y-77763036D02*
X152931779Y-77841607D01*
X152931779Y-77841607D02*
X152905588Y-77867798D01*
X152460350Y-78417798D02*
X152434160Y-78391607D01*
X152434160Y-78391607D02*
X152407969Y-78313036D01*
X152407969Y-78313036D02*
X152407969Y-78260655D01*
X152407969Y-78260655D02*
X152434160Y-78182083D01*
X152434160Y-78182083D02*
X152486540Y-78129702D01*
X152486540Y-78129702D02*
X152538921Y-78103512D01*
X152538921Y-78103512D02*
X152643683Y-78077321D01*
X152643683Y-78077321D02*
X152722255Y-78077321D01*
X152722255Y-78077321D02*
X152827017Y-78103512D01*
X152827017Y-78103512D02*
X152879398Y-78129702D01*
X152879398Y-78129702D02*
X152931779Y-78182083D01*
X152931779Y-78182083D02*
X152957969Y-78260655D01*
X152957969Y-78260655D02*
X152957969Y-78313036D01*
X152957969Y-78313036D02*
X152931779Y-78391607D01*
X152931779Y-78391607D02*
X152905588Y-78417798D01*
X149804469Y-87115083D02*
X150354469Y-87115083D01*
X150354469Y-87115083D02*
X150354469Y-87324607D01*
X150354469Y-87324607D02*
X150328279Y-87376988D01*
X150328279Y-87376988D02*
X150302088Y-87403178D01*
X150302088Y-87403178D02*
X150249707Y-87429369D01*
X150249707Y-87429369D02*
X150171136Y-87429369D01*
X150171136Y-87429369D02*
X150118755Y-87403178D01*
X150118755Y-87403178D02*
X150092564Y-87376988D01*
X150092564Y-87376988D02*
X150066374Y-87324607D01*
X150066374Y-87324607D02*
X150066374Y-87115083D01*
X150354469Y-87769845D02*
X150354469Y-87822226D01*
X150354469Y-87822226D02*
X150328279Y-87874607D01*
X150328279Y-87874607D02*
X150302088Y-87900797D01*
X150302088Y-87900797D02*
X150249707Y-87926988D01*
X150249707Y-87926988D02*
X150144945Y-87953178D01*
X150144945Y-87953178D02*
X150013993Y-87953178D01*
X150013993Y-87953178D02*
X149909231Y-87926988D01*
X149909231Y-87926988D02*
X149856850Y-87900797D01*
X149856850Y-87900797D02*
X149830660Y-87874607D01*
X149830660Y-87874607D02*
X149804469Y-87822226D01*
X149804469Y-87822226D02*
X149804469Y-87769845D01*
X149804469Y-87769845D02*
X149830660Y-87717464D01*
X149830660Y-87717464D02*
X149856850Y-87691273D01*
X149856850Y-87691273D02*
X149909231Y-87665083D01*
X149909231Y-87665083D02*
X150013993Y-87638892D01*
X150013993Y-87638892D02*
X150144945Y-87638892D01*
X150144945Y-87638892D02*
X150249707Y-87665083D01*
X150249707Y-87665083D02*
X150302088Y-87691273D01*
X150302088Y-87691273D02*
X150328279Y-87717464D01*
X150328279Y-87717464D02*
X150354469Y-87769845D01*
X150302088Y-88162702D02*
X150328279Y-88188893D01*
X150328279Y-88188893D02*
X150354469Y-88241274D01*
X150354469Y-88241274D02*
X150354469Y-88372226D01*
X150354469Y-88372226D02*
X150328279Y-88424607D01*
X150328279Y-88424607D02*
X150302088Y-88450798D01*
X150302088Y-88450798D02*
X150249707Y-88476988D01*
X150249707Y-88476988D02*
X150197326Y-88476988D01*
X150197326Y-88476988D02*
X150118755Y-88450798D01*
X150118755Y-88450798D02*
X149804469Y-88136512D01*
X149804469Y-88136512D02*
X149804469Y-88476988D01*
X155822083Y-84764530D02*
X155822083Y-84214530D01*
X155822083Y-84214530D02*
X156031607Y-84214530D01*
X156031607Y-84214530D02*
X156083988Y-84240720D01*
X156083988Y-84240720D02*
X156110178Y-84266911D01*
X156110178Y-84266911D02*
X156136369Y-84319292D01*
X156136369Y-84319292D02*
X156136369Y-84397863D01*
X156136369Y-84397863D02*
X156110178Y-84450244D01*
X156110178Y-84450244D02*
X156083988Y-84476435D01*
X156083988Y-84476435D02*
X156031607Y-84502625D01*
X156031607Y-84502625D02*
X155822083Y-84502625D01*
X156660178Y-84764530D02*
X156345892Y-84764530D01*
X156503035Y-84764530D02*
X156503035Y-84214530D01*
X156503035Y-84214530D02*
X156450654Y-84293101D01*
X156450654Y-84293101D02*
X156398273Y-84345482D01*
X156398273Y-84345482D02*
X156345892Y-84371673D01*
X157183988Y-84764530D02*
X156869702Y-84764530D01*
X157026845Y-84764530D02*
X157026845Y-84214530D01*
X157026845Y-84214530D02*
X156974464Y-84293101D01*
X156974464Y-84293101D02*
X156922083Y-84345482D01*
X156922083Y-84345482D02*
X156869702Y-84371673D01*
X149867969Y-77082083D02*
X150417969Y-77082083D01*
X150417969Y-77082083D02*
X150417969Y-77291607D01*
X150417969Y-77291607D02*
X150391779Y-77343988D01*
X150391779Y-77343988D02*
X150365588Y-77370178D01*
X150365588Y-77370178D02*
X150313207Y-77396369D01*
X150313207Y-77396369D02*
X150234636Y-77396369D01*
X150234636Y-77396369D02*
X150182255Y-77370178D01*
X150182255Y-77370178D02*
X150156064Y-77343988D01*
X150156064Y-77343988D02*
X150129874Y-77291607D01*
X150129874Y-77291607D02*
X150129874Y-77082083D01*
X150365588Y-77605892D02*
X150391779Y-77632083D01*
X150391779Y-77632083D02*
X150417969Y-77684464D01*
X150417969Y-77684464D02*
X150417969Y-77815416D01*
X150417969Y-77815416D02*
X150391779Y-77867797D01*
X150391779Y-77867797D02*
X150365588Y-77893988D01*
X150365588Y-77893988D02*
X150313207Y-77920178D01*
X150313207Y-77920178D02*
X150260826Y-77920178D01*
X150260826Y-77920178D02*
X150182255Y-77893988D01*
X150182255Y-77893988D02*
X149867969Y-77579702D01*
X149867969Y-77579702D02*
X149867969Y-77920178D01*
X149867969Y-78443988D02*
X149867969Y-78129702D01*
X149867969Y-78286845D02*
X150417969Y-78286845D01*
X150417969Y-78286845D02*
X150339398Y-78234464D01*
X150339398Y-78234464D02*
X150287017Y-78182083D01*
X150287017Y-78182083D02*
X150260826Y-78129702D01*
X153614469Y-85524369D02*
X153876374Y-85341035D01*
X153614469Y-85210083D02*
X154164469Y-85210083D01*
X154164469Y-85210083D02*
X154164469Y-85419607D01*
X154164469Y-85419607D02*
X154138279Y-85471988D01*
X154138279Y-85471988D02*
X154112088Y-85498178D01*
X154112088Y-85498178D02*
X154059707Y-85524369D01*
X154059707Y-85524369D02*
X153981136Y-85524369D01*
X153981136Y-85524369D02*
X153928755Y-85498178D01*
X153928755Y-85498178D02*
X153902564Y-85471988D01*
X153902564Y-85471988D02*
X153876374Y-85419607D01*
X153876374Y-85419607D02*
X153876374Y-85210083D01*
X153902564Y-85760083D02*
X153902564Y-85943416D01*
X153614469Y-86021988D02*
X153614469Y-85760083D01*
X153614469Y-85760083D02*
X154164469Y-85760083D01*
X154164469Y-85760083D02*
X154164469Y-86021988D01*
X153640660Y-86231511D02*
X153614469Y-86310083D01*
X153614469Y-86310083D02*
X153614469Y-86441035D01*
X153614469Y-86441035D02*
X153640660Y-86493416D01*
X153640660Y-86493416D02*
X153666850Y-86519607D01*
X153666850Y-86519607D02*
X153719231Y-86545797D01*
X153719231Y-86545797D02*
X153771612Y-86545797D01*
X153771612Y-86545797D02*
X153823993Y-86519607D01*
X153823993Y-86519607D02*
X153850183Y-86493416D01*
X153850183Y-86493416D02*
X153876374Y-86441035D01*
X153876374Y-86441035D02*
X153902564Y-86336273D01*
X153902564Y-86336273D02*
X153928755Y-86283892D01*
X153928755Y-86283892D02*
X153954945Y-86257702D01*
X153954945Y-86257702D02*
X154007326Y-86231511D01*
X154007326Y-86231511D02*
X154059707Y-86231511D01*
X154059707Y-86231511D02*
X154112088Y-86257702D01*
X154112088Y-86257702D02*
X154138279Y-86283892D01*
X154138279Y-86283892D02*
X154164469Y-86336273D01*
X154164469Y-86336273D02*
X154164469Y-86467226D01*
X154164469Y-86467226D02*
X154138279Y-86545797D01*
X153902564Y-86781512D02*
X153902564Y-86964845D01*
X153614469Y-87043417D02*
X153614469Y-86781512D01*
X153614469Y-86781512D02*
X154164469Y-86781512D01*
X154164469Y-86781512D02*
X154164469Y-87043417D01*
X154164469Y-87200559D02*
X154164469Y-87514845D01*
X153614469Y-87357702D02*
X154164469Y-87357702D01*
X153562088Y-87567227D02*
X153562088Y-87986274D01*
X153614469Y-88117227D02*
X154164469Y-88117227D01*
X154164469Y-88117227D02*
X153614469Y-88431513D01*
X153614469Y-88431513D02*
X154164469Y-88431513D01*
D15*
X161620556Y-81586385D02*
X161620556Y-81919718D01*
X161420556Y-81519718D02*
X162120556Y-81753052D01*
X162120556Y-81753052D02*
X161420556Y-81986385D01*
X161420556Y-82219718D02*
X162120556Y-82219718D01*
X162120556Y-82219718D02*
X161420556Y-82619718D01*
X161420556Y-82619718D02*
X162120556Y-82619718D01*
X162120556Y-82853051D02*
X162120556Y-83253051D01*
X161420556Y-83053051D02*
X162120556Y-83053051D01*
X144865718Y-82525826D02*
X145099052Y-82525826D01*
X145199052Y-82892493D02*
X144865718Y-82892493D01*
X144865718Y-82892493D02*
X144865718Y-82192493D01*
X144865718Y-82192493D02*
X145199052Y-82192493D01*
X145865718Y-82892493D02*
X145465718Y-82892493D01*
X145665718Y-82892493D02*
X145665718Y-82192493D01*
X145665718Y-82192493D02*
X145599051Y-82292493D01*
X145599051Y-82292493D02*
X145532385Y-82359160D01*
X145532385Y-82359160D02*
X145465718Y-82392493D01*
X146299052Y-82192493D02*
X146365718Y-82192493D01*
X146365718Y-82192493D02*
X146432385Y-82225826D01*
X146432385Y-82225826D02*
X146465718Y-82259160D01*
X146465718Y-82259160D02*
X146499052Y-82325826D01*
X146499052Y-82325826D02*
X146532385Y-82459160D01*
X146532385Y-82459160D02*
X146532385Y-82625826D01*
X146532385Y-82625826D02*
X146499052Y-82759160D01*
X146499052Y-82759160D02*
X146465718Y-82825826D01*
X146465718Y-82825826D02*
X146432385Y-82859160D01*
X146432385Y-82859160D02*
X146365718Y-82892493D01*
X146365718Y-82892493D02*
X146299052Y-82892493D01*
X146299052Y-82892493D02*
X146232385Y-82859160D01*
X146232385Y-82859160D02*
X146199052Y-82825826D01*
X146199052Y-82825826D02*
X146165718Y-82759160D01*
X146165718Y-82759160D02*
X146132385Y-82625826D01*
X146132385Y-82625826D02*
X146132385Y-82459160D01*
X146132385Y-82459160D02*
X146165718Y-82325826D01*
X146165718Y-82325826D02*
X146199052Y-82259160D01*
X146199052Y-82259160D02*
X146232385Y-82225826D01*
X146232385Y-82225826D02*
X146299052Y-82192493D01*
X147132385Y-82425826D02*
X147132385Y-82892493D01*
X146965719Y-82159160D02*
X146799052Y-82659160D01*
X146799052Y-82659160D02*
X147232385Y-82659160D01*
X147499052Y-82625826D02*
X148032386Y-82625826D01*
X148599053Y-82525826D02*
X148699053Y-82559160D01*
X148699053Y-82559160D02*
X148732386Y-82592493D01*
X148732386Y-82592493D02*
X148765719Y-82659160D01*
X148765719Y-82659160D02*
X148765719Y-82759160D01*
X148765719Y-82759160D02*
X148732386Y-82825826D01*
X148732386Y-82825826D02*
X148699053Y-82859160D01*
X148699053Y-82859160D02*
X148632386Y-82892493D01*
X148632386Y-82892493D02*
X148365719Y-82892493D01*
X148365719Y-82892493D02*
X148365719Y-82192493D01*
X148365719Y-82192493D02*
X148599053Y-82192493D01*
X148599053Y-82192493D02*
X148665719Y-82225826D01*
X148665719Y-82225826D02*
X148699053Y-82259160D01*
X148699053Y-82259160D02*
X148732386Y-82325826D01*
X148732386Y-82325826D02*
X148732386Y-82392493D01*
X148732386Y-82392493D02*
X148699053Y-82459160D01*
X148699053Y-82459160D02*
X148665719Y-82492493D01*
X148665719Y-82492493D02*
X148599053Y-82525826D01*
X148599053Y-82525826D02*
X148365719Y-82525826D01*
X148965719Y-82192493D02*
X149365719Y-82192493D01*
X149165719Y-82892493D02*
X149165719Y-82192493D01*
X149732386Y-82192493D02*
X149799052Y-82192493D01*
X149799052Y-82192493D02*
X149865719Y-82225826D01*
X149865719Y-82225826D02*
X149899052Y-82259160D01*
X149899052Y-82259160D02*
X149932386Y-82325826D01*
X149932386Y-82325826D02*
X149965719Y-82459160D01*
X149965719Y-82459160D02*
X149965719Y-82625826D01*
X149965719Y-82625826D02*
X149932386Y-82759160D01*
X149932386Y-82759160D02*
X149899052Y-82825826D01*
X149899052Y-82825826D02*
X149865719Y-82859160D01*
X149865719Y-82859160D02*
X149799052Y-82892493D01*
X149799052Y-82892493D02*
X149732386Y-82892493D01*
X149732386Y-82892493D02*
X149665719Y-82859160D01*
X149665719Y-82859160D02*
X149632386Y-82825826D01*
X149632386Y-82825826D02*
X149599052Y-82759160D01*
X149599052Y-82759160D02*
X149565719Y-82625826D01*
X149565719Y-82625826D02*
X149565719Y-82459160D01*
X149565719Y-82459160D02*
X149599052Y-82325826D01*
X149599052Y-82325826D02*
X149632386Y-82259160D01*
X149632386Y-82259160D02*
X149665719Y-82225826D01*
X149665719Y-82225826D02*
X149732386Y-82192493D01*
X150632386Y-82892493D02*
X150232386Y-82892493D01*
X150432386Y-82892493D02*
X150432386Y-82192493D01*
X150432386Y-82192493D02*
X150365719Y-82292493D01*
X150365719Y-82292493D02*
X150299053Y-82359160D01*
X150299053Y-82359160D02*
X150232386Y-82392493D01*
X150932386Y-82625826D02*
X151465720Y-82625826D01*
X151699053Y-82192493D02*
X151932387Y-82892493D01*
X151932387Y-82892493D02*
X152165720Y-82192493D01*
X152765720Y-82892493D02*
X152365720Y-82892493D01*
X152565720Y-82892493D02*
X152565720Y-82192493D01*
X152565720Y-82192493D02*
X152499053Y-82292493D01*
X152499053Y-82292493D02*
X152432387Y-82359160D01*
X152432387Y-82359160D02*
X152365720Y-82392493D01*
X153065720Y-82825826D02*
X153099054Y-82859160D01*
X153099054Y-82859160D02*
X153065720Y-82892493D01*
X153065720Y-82892493D02*
X153032387Y-82859160D01*
X153032387Y-82859160D02*
X153065720Y-82825826D01*
X153065720Y-82825826D02*
X153065720Y-82892493D01*
X153532387Y-82192493D02*
X153599053Y-82192493D01*
X153599053Y-82192493D02*
X153665720Y-82225826D01*
X153665720Y-82225826D02*
X153699053Y-82259160D01*
X153699053Y-82259160D02*
X153732387Y-82325826D01*
X153732387Y-82325826D02*
X153765720Y-82459160D01*
X153765720Y-82459160D02*
X153765720Y-82625826D01*
X153765720Y-82625826D02*
X153732387Y-82759160D01*
X153732387Y-82759160D02*
X153699053Y-82825826D01*
X153699053Y-82825826D02*
X153665720Y-82859160D01*
X153665720Y-82859160D02*
X153599053Y-82892493D01*
X153599053Y-82892493D02*
X153532387Y-82892493D01*
X153532387Y-82892493D02*
X153465720Y-82859160D01*
X153465720Y-82859160D02*
X153432387Y-82825826D01*
X153432387Y-82825826D02*
X153399053Y-82759160D01*
X153399053Y-82759160D02*
X153365720Y-82625826D01*
X153365720Y-82625826D02*
X153365720Y-82459160D01*
X153365720Y-82459160D02*
X153399053Y-82325826D01*
X153399053Y-82325826D02*
X153432387Y-82259160D01*
X153432387Y-82259160D02*
X153465720Y-82225826D01*
X153465720Y-82225826D02*
X153532387Y-82192493D01*
D14*
X155822083Y-82224530D02*
X155822083Y-81674530D01*
X155822083Y-81674530D02*
X156031607Y-81674530D01*
X156031607Y-81674530D02*
X156083988Y-81700720D01*
X156083988Y-81700720D02*
X156110178Y-81726911D01*
X156110178Y-81726911D02*
X156136369Y-81779292D01*
X156136369Y-81779292D02*
X156136369Y-81857863D01*
X156136369Y-81857863D02*
X156110178Y-81910244D01*
X156110178Y-81910244D02*
X156083988Y-81936435D01*
X156083988Y-81936435D02*
X156031607Y-81962625D01*
X156031607Y-81962625D02*
X155822083Y-81962625D01*
X156660178Y-82224530D02*
X156345892Y-82224530D01*
X156503035Y-82224530D02*
X156503035Y-81674530D01*
X156503035Y-81674530D02*
X156450654Y-81753101D01*
X156450654Y-81753101D02*
X156398273Y-81805482D01*
X156398273Y-81805482D02*
X156345892Y-81831673D01*
X156843512Y-81674530D02*
X157183988Y-81674530D01*
X157183988Y-81674530D02*
X157000655Y-81884054D01*
X157000655Y-81884054D02*
X157079226Y-81884054D01*
X157079226Y-81884054D02*
X157131607Y-81910244D01*
X157131607Y-81910244D02*
X157157798Y-81936435D01*
X157157798Y-81936435D02*
X157183988Y-81988816D01*
X157183988Y-81988816D02*
X157183988Y-82119768D01*
X157183988Y-82119768D02*
X157157798Y-82172149D01*
X157157798Y-82172149D02*
X157131607Y-82198340D01*
X157131607Y-82198340D02*
X157079226Y-82224530D01*
X157079226Y-82224530D02*
X156922083Y-82224530D01*
X156922083Y-82224530D02*
X156869702Y-82198340D01*
X156869702Y-82198340D02*
X156843512Y-82172149D01*
X155795892Y-78388340D02*
X155874464Y-78414530D01*
X155874464Y-78414530D02*
X156005416Y-78414530D01*
X156005416Y-78414530D02*
X156057797Y-78388340D01*
X156057797Y-78388340D02*
X156083988Y-78362149D01*
X156083988Y-78362149D02*
X156110178Y-78309768D01*
X156110178Y-78309768D02*
X156110178Y-78257387D01*
X156110178Y-78257387D02*
X156083988Y-78205006D01*
X156083988Y-78205006D02*
X156057797Y-78178816D01*
X156057797Y-78178816D02*
X156005416Y-78152625D01*
X156005416Y-78152625D02*
X155900654Y-78126435D01*
X155900654Y-78126435D02*
X155848273Y-78100244D01*
X155848273Y-78100244D02*
X155822083Y-78074054D01*
X155822083Y-78074054D02*
X155795892Y-78021673D01*
X155795892Y-78021673D02*
X155795892Y-77969292D01*
X155795892Y-77969292D02*
X155822083Y-77916911D01*
X155822083Y-77916911D02*
X155848273Y-77890720D01*
X155848273Y-77890720D02*
X155900654Y-77864530D01*
X155900654Y-77864530D02*
X156031607Y-77864530D01*
X156031607Y-77864530D02*
X156110178Y-77890720D01*
X156345893Y-78414530D02*
X156345893Y-77864530D01*
X156345893Y-77864530D02*
X156476845Y-77864530D01*
X156476845Y-77864530D02*
X156555417Y-77890720D01*
X156555417Y-77890720D02*
X156607798Y-77943101D01*
X156607798Y-77943101D02*
X156633988Y-77995482D01*
X156633988Y-77995482D02*
X156660179Y-78100244D01*
X156660179Y-78100244D02*
X156660179Y-78178816D01*
X156660179Y-78178816D02*
X156633988Y-78283578D01*
X156633988Y-78283578D02*
X156607798Y-78335959D01*
X156607798Y-78335959D02*
X156555417Y-78388340D01*
X156555417Y-78388340D02*
X156476845Y-78414530D01*
X156476845Y-78414530D02*
X156345893Y-78414530D01*
X156869702Y-78257387D02*
X157131607Y-78257387D01*
X156817321Y-78414530D02*
X157000655Y-77864530D01*
X157000655Y-77864530D02*
X157183988Y-78414530D01*
X144724469Y-87115083D02*
X145274469Y-87115083D01*
X145274469Y-87115083D02*
X145274469Y-87324607D01*
X145274469Y-87324607D02*
X145248279Y-87376988D01*
X145248279Y-87376988D02*
X145222088Y-87403178D01*
X145222088Y-87403178D02*
X145169707Y-87429369D01*
X145169707Y-87429369D02*
X145091136Y-87429369D01*
X145091136Y-87429369D02*
X145038755Y-87403178D01*
X145038755Y-87403178D02*
X145012564Y-87376988D01*
X145012564Y-87376988D02*
X144986374Y-87324607D01*
X144986374Y-87324607D02*
X144986374Y-87115083D01*
X145274469Y-87769845D02*
X145274469Y-87822226D01*
X145274469Y-87822226D02*
X145248279Y-87874607D01*
X145248279Y-87874607D02*
X145222088Y-87900797D01*
X145222088Y-87900797D02*
X145169707Y-87926988D01*
X145169707Y-87926988D02*
X145064945Y-87953178D01*
X145064945Y-87953178D02*
X144933993Y-87953178D01*
X144933993Y-87953178D02*
X144829231Y-87926988D01*
X144829231Y-87926988D02*
X144776850Y-87900797D01*
X144776850Y-87900797D02*
X144750660Y-87874607D01*
X144750660Y-87874607D02*
X144724469Y-87822226D01*
X144724469Y-87822226D02*
X144724469Y-87769845D01*
X144724469Y-87769845D02*
X144750660Y-87717464D01*
X144750660Y-87717464D02*
X144776850Y-87691273D01*
X144776850Y-87691273D02*
X144829231Y-87665083D01*
X144829231Y-87665083D02*
X144933993Y-87638892D01*
X144933993Y-87638892D02*
X145064945Y-87638892D01*
X145064945Y-87638892D02*
X145169707Y-87665083D01*
X145169707Y-87665083D02*
X145222088Y-87691273D01*
X145222088Y-87691273D02*
X145248279Y-87717464D01*
X145248279Y-87717464D02*
X145274469Y-87769845D01*
X145274469Y-88424607D02*
X145274469Y-88319845D01*
X145274469Y-88319845D02*
X145248279Y-88267464D01*
X145248279Y-88267464D02*
X145222088Y-88241274D01*
X145222088Y-88241274D02*
X145143517Y-88188893D01*
X145143517Y-88188893D02*
X145038755Y-88162702D01*
X145038755Y-88162702D02*
X144829231Y-88162702D01*
X144829231Y-88162702D02*
X144776850Y-88188893D01*
X144776850Y-88188893D02*
X144750660Y-88215083D01*
X144750660Y-88215083D02*
X144724469Y-88267464D01*
X144724469Y-88267464D02*
X144724469Y-88372226D01*
X144724469Y-88372226D02*
X144750660Y-88424607D01*
X144750660Y-88424607D02*
X144776850Y-88450798D01*
X144776850Y-88450798D02*
X144829231Y-88476988D01*
X144829231Y-88476988D02*
X144960183Y-88476988D01*
X144960183Y-88476988D02*
X145012564Y-88450798D01*
X145012564Y-88450798D02*
X145038755Y-88424607D01*
X145038755Y-88424607D02*
X145064945Y-88372226D01*
X145064945Y-88372226D02*
X145064945Y-88267464D01*
X145064945Y-88267464D02*
X145038755Y-88215083D01*
X145038755Y-88215083D02*
X145012564Y-88188893D01*
X145012564Y-88188893D02*
X144960183Y-88162702D01*
X148597969Y-77082083D02*
X149147969Y-77082083D01*
X149147969Y-77082083D02*
X149147969Y-77291607D01*
X149147969Y-77291607D02*
X149121779Y-77343988D01*
X149121779Y-77343988D02*
X149095588Y-77370178D01*
X149095588Y-77370178D02*
X149043207Y-77396369D01*
X149043207Y-77396369D02*
X148964636Y-77396369D01*
X148964636Y-77396369D02*
X148912255Y-77370178D01*
X148912255Y-77370178D02*
X148886064Y-77343988D01*
X148886064Y-77343988D02*
X148859874Y-77291607D01*
X148859874Y-77291607D02*
X148859874Y-77082083D01*
X149095588Y-77605892D02*
X149121779Y-77632083D01*
X149121779Y-77632083D02*
X149147969Y-77684464D01*
X149147969Y-77684464D02*
X149147969Y-77815416D01*
X149147969Y-77815416D02*
X149121779Y-77867797D01*
X149121779Y-77867797D02*
X149095588Y-77893988D01*
X149095588Y-77893988D02*
X149043207Y-77920178D01*
X149043207Y-77920178D02*
X148990826Y-77920178D01*
X148990826Y-77920178D02*
X148912255Y-77893988D01*
X148912255Y-77893988D02*
X148597969Y-77579702D01*
X148597969Y-77579702D02*
X148597969Y-77920178D01*
X149147969Y-78260655D02*
X149147969Y-78313036D01*
X149147969Y-78313036D02*
X149121779Y-78365417D01*
X149121779Y-78365417D02*
X149095588Y-78391607D01*
X149095588Y-78391607D02*
X149043207Y-78417798D01*
X149043207Y-78417798D02*
X148938445Y-78443988D01*
X148938445Y-78443988D02*
X148807493Y-78443988D01*
X148807493Y-78443988D02*
X148702731Y-78417798D01*
X148702731Y-78417798D02*
X148650350Y-78391607D01*
X148650350Y-78391607D02*
X148624160Y-78365417D01*
X148624160Y-78365417D02*
X148597969Y-78313036D01*
X148597969Y-78313036D02*
X148597969Y-78260655D01*
X148597969Y-78260655D02*
X148624160Y-78208274D01*
X148624160Y-78208274D02*
X148650350Y-78182083D01*
X148650350Y-78182083D02*
X148702731Y-78155893D01*
X148702731Y-78155893D02*
X148807493Y-78129702D01*
X148807493Y-78129702D02*
X148938445Y-78129702D01*
X148938445Y-78129702D02*
X149043207Y-78155893D01*
X149043207Y-78155893D02*
X149095588Y-78182083D01*
X149095588Y-78182083D02*
X149121779Y-78208274D01*
X149121779Y-78208274D02*
X149147969Y-78260655D01*
X155822083Y-86034530D02*
X155822083Y-85484530D01*
X155822083Y-85484530D02*
X156031607Y-85484530D01*
X156031607Y-85484530D02*
X156083988Y-85510720D01*
X156083988Y-85510720D02*
X156110178Y-85536911D01*
X156110178Y-85536911D02*
X156136369Y-85589292D01*
X156136369Y-85589292D02*
X156136369Y-85667863D01*
X156136369Y-85667863D02*
X156110178Y-85720244D01*
X156110178Y-85720244D02*
X156083988Y-85746435D01*
X156083988Y-85746435D02*
X156031607Y-85772625D01*
X156031607Y-85772625D02*
X155822083Y-85772625D01*
X156660178Y-86034530D02*
X156345892Y-86034530D01*
X156503035Y-86034530D02*
X156503035Y-85484530D01*
X156503035Y-85484530D02*
X156450654Y-85563101D01*
X156450654Y-85563101D02*
X156398273Y-85615482D01*
X156398273Y-85615482D02*
X156345892Y-85641673D01*
X157000655Y-85484530D02*
X157053036Y-85484530D01*
X157053036Y-85484530D02*
X157105417Y-85510720D01*
X157105417Y-85510720D02*
X157131607Y-85536911D01*
X157131607Y-85536911D02*
X157157798Y-85589292D01*
X157157798Y-85589292D02*
X157183988Y-85694054D01*
X157183988Y-85694054D02*
X157183988Y-85825006D01*
X157183988Y-85825006D02*
X157157798Y-85929768D01*
X157157798Y-85929768D02*
X157131607Y-85982149D01*
X157131607Y-85982149D02*
X157105417Y-86008340D01*
X157105417Y-86008340D02*
X157053036Y-86034530D01*
X157053036Y-86034530D02*
X157000655Y-86034530D01*
X157000655Y-86034530D02*
X156948274Y-86008340D01*
X156948274Y-86008340D02*
X156922083Y-85982149D01*
X156922083Y-85982149D02*
X156895893Y-85929768D01*
X156895893Y-85929768D02*
X156869702Y-85825006D01*
X156869702Y-85825006D02*
X156869702Y-85694054D01*
X156869702Y-85694054D02*
X156895893Y-85589292D01*
X156895893Y-85589292D02*
X156922083Y-85536911D01*
X156922083Y-85536911D02*
X156948274Y-85510720D01*
X156948274Y-85510720D02*
X157000655Y-85484530D01*
X144814160Y-77055892D02*
X144787969Y-77134464D01*
X144787969Y-77134464D02*
X144787969Y-77265416D01*
X144787969Y-77265416D02*
X144814160Y-77317797D01*
X144814160Y-77317797D02*
X144840350Y-77343988D01*
X144840350Y-77343988D02*
X144892731Y-77370178D01*
X144892731Y-77370178D02*
X144945112Y-77370178D01*
X144945112Y-77370178D02*
X144997493Y-77343988D01*
X144997493Y-77343988D02*
X145023683Y-77317797D01*
X145023683Y-77317797D02*
X145049874Y-77265416D01*
X145049874Y-77265416D02*
X145076064Y-77160654D01*
X145076064Y-77160654D02*
X145102255Y-77108273D01*
X145102255Y-77108273D02*
X145128445Y-77082083D01*
X145128445Y-77082083D02*
X145180826Y-77055892D01*
X145180826Y-77055892D02*
X145233207Y-77055892D01*
X145233207Y-77055892D02*
X145285588Y-77082083D01*
X145285588Y-77082083D02*
X145311779Y-77108273D01*
X145311779Y-77108273D02*
X145337969Y-77160654D01*
X145337969Y-77160654D02*
X145337969Y-77291607D01*
X145337969Y-77291607D02*
X145311779Y-77370178D01*
X144840350Y-77920179D02*
X144814160Y-77893988D01*
X144814160Y-77893988D02*
X144787969Y-77815417D01*
X144787969Y-77815417D02*
X144787969Y-77763036D01*
X144787969Y-77763036D02*
X144814160Y-77684464D01*
X144814160Y-77684464D02*
X144866540Y-77632083D01*
X144866540Y-77632083D02*
X144918921Y-77605893D01*
X144918921Y-77605893D02*
X145023683Y-77579702D01*
X145023683Y-77579702D02*
X145102255Y-77579702D01*
X145102255Y-77579702D02*
X145207017Y-77605893D01*
X145207017Y-77605893D02*
X145259398Y-77632083D01*
X145259398Y-77632083D02*
X145311779Y-77684464D01*
X145311779Y-77684464D02*
X145337969Y-77763036D01*
X145337969Y-77763036D02*
X145337969Y-77815417D01*
X145337969Y-77815417D02*
X145311779Y-77893988D01*
X145311779Y-77893988D02*
X145285588Y-77920179D01*
X144787969Y-78417798D02*
X144787969Y-78155893D01*
X144787969Y-78155893D02*
X145337969Y-78155893D01*
X154201779Y-77370178D02*
X154227969Y-77317797D01*
X154227969Y-77317797D02*
X154227969Y-77239226D01*
X154227969Y-77239226D02*
X154201779Y-77160654D01*
X154201779Y-77160654D02*
X154149398Y-77108273D01*
X154149398Y-77108273D02*
X154097017Y-77082083D01*
X154097017Y-77082083D02*
X153992255Y-77055892D01*
X153992255Y-77055892D02*
X153913683Y-77055892D01*
X153913683Y-77055892D02*
X153808921Y-77082083D01*
X153808921Y-77082083D02*
X153756540Y-77108273D01*
X153756540Y-77108273D02*
X153704160Y-77160654D01*
X153704160Y-77160654D02*
X153677969Y-77239226D01*
X153677969Y-77239226D02*
X153677969Y-77291607D01*
X153677969Y-77291607D02*
X153704160Y-77370178D01*
X153704160Y-77370178D02*
X153730350Y-77396369D01*
X153730350Y-77396369D02*
X153913683Y-77396369D01*
X153913683Y-77396369D02*
X153913683Y-77291607D01*
X153677969Y-77632083D02*
X154227969Y-77632083D01*
X154227969Y-77632083D02*
X153677969Y-77946369D01*
X153677969Y-77946369D02*
X154227969Y-77946369D01*
X153677969Y-78208273D02*
X154227969Y-78208273D01*
X154227969Y-78208273D02*
X154227969Y-78339225D01*
X154227969Y-78339225D02*
X154201779Y-78417797D01*
X154201779Y-78417797D02*
X154149398Y-78470178D01*
X154149398Y-78470178D02*
X154097017Y-78496368D01*
X154097017Y-78496368D02*
X153992255Y-78522559D01*
X153992255Y-78522559D02*
X153913683Y-78522559D01*
X153913683Y-78522559D02*
X153808921Y-78496368D01*
X153808921Y-78496368D02*
X153756540Y-78470178D01*
X153756540Y-78470178D02*
X153704160Y-78417797D01*
X153704160Y-78417797D02*
X153677969Y-78339225D01*
X153677969Y-78339225D02*
X153677969Y-78208273D01*
X145994469Y-87115083D02*
X146544469Y-87115083D01*
X146544469Y-87115083D02*
X146544469Y-87324607D01*
X146544469Y-87324607D02*
X146518279Y-87376988D01*
X146518279Y-87376988D02*
X146492088Y-87403178D01*
X146492088Y-87403178D02*
X146439707Y-87429369D01*
X146439707Y-87429369D02*
X146361136Y-87429369D01*
X146361136Y-87429369D02*
X146308755Y-87403178D01*
X146308755Y-87403178D02*
X146282564Y-87376988D01*
X146282564Y-87376988D02*
X146256374Y-87324607D01*
X146256374Y-87324607D02*
X146256374Y-87115083D01*
X146544469Y-87769845D02*
X146544469Y-87822226D01*
X146544469Y-87822226D02*
X146518279Y-87874607D01*
X146518279Y-87874607D02*
X146492088Y-87900797D01*
X146492088Y-87900797D02*
X146439707Y-87926988D01*
X146439707Y-87926988D02*
X146334945Y-87953178D01*
X146334945Y-87953178D02*
X146203993Y-87953178D01*
X146203993Y-87953178D02*
X146099231Y-87926988D01*
X146099231Y-87926988D02*
X146046850Y-87900797D01*
X146046850Y-87900797D02*
X146020660Y-87874607D01*
X146020660Y-87874607D02*
X145994469Y-87822226D01*
X145994469Y-87822226D02*
X145994469Y-87769845D01*
X145994469Y-87769845D02*
X146020660Y-87717464D01*
X146020660Y-87717464D02*
X146046850Y-87691273D01*
X146046850Y-87691273D02*
X146099231Y-87665083D01*
X146099231Y-87665083D02*
X146203993Y-87638892D01*
X146203993Y-87638892D02*
X146334945Y-87638892D01*
X146334945Y-87638892D02*
X146439707Y-87665083D01*
X146439707Y-87665083D02*
X146492088Y-87691273D01*
X146492088Y-87691273D02*
X146518279Y-87717464D01*
X146518279Y-87717464D02*
X146544469Y-87769845D01*
X146544469Y-88450798D02*
X146544469Y-88188893D01*
X146544469Y-88188893D02*
X146282564Y-88162702D01*
X146282564Y-88162702D02*
X146308755Y-88188893D01*
X146308755Y-88188893D02*
X146334945Y-88241274D01*
X146334945Y-88241274D02*
X146334945Y-88372226D01*
X146334945Y-88372226D02*
X146308755Y-88424607D01*
X146308755Y-88424607D02*
X146282564Y-88450798D01*
X146282564Y-88450798D02*
X146230183Y-88476988D01*
X146230183Y-88476988D02*
X146099231Y-88476988D01*
X146099231Y-88476988D02*
X146046850Y-88450798D01*
X146046850Y-88450798D02*
X146020660Y-88424607D01*
X146020660Y-88424607D02*
X145994469Y-88372226D01*
X145994469Y-88372226D02*
X145994469Y-88241274D01*
X145994469Y-88241274D02*
X146020660Y-88188893D01*
X146020660Y-88188893D02*
X146046850Y-88162702D01*
X152344469Y-87115083D02*
X152894469Y-87115083D01*
X152894469Y-87115083D02*
X152894469Y-87324607D01*
X152894469Y-87324607D02*
X152868279Y-87376988D01*
X152868279Y-87376988D02*
X152842088Y-87403178D01*
X152842088Y-87403178D02*
X152789707Y-87429369D01*
X152789707Y-87429369D02*
X152711136Y-87429369D01*
X152711136Y-87429369D02*
X152658755Y-87403178D01*
X152658755Y-87403178D02*
X152632564Y-87376988D01*
X152632564Y-87376988D02*
X152606374Y-87324607D01*
X152606374Y-87324607D02*
X152606374Y-87115083D01*
X152894469Y-87769845D02*
X152894469Y-87822226D01*
X152894469Y-87822226D02*
X152868279Y-87874607D01*
X152868279Y-87874607D02*
X152842088Y-87900797D01*
X152842088Y-87900797D02*
X152789707Y-87926988D01*
X152789707Y-87926988D02*
X152684945Y-87953178D01*
X152684945Y-87953178D02*
X152553993Y-87953178D01*
X152553993Y-87953178D02*
X152449231Y-87926988D01*
X152449231Y-87926988D02*
X152396850Y-87900797D01*
X152396850Y-87900797D02*
X152370660Y-87874607D01*
X152370660Y-87874607D02*
X152344469Y-87822226D01*
X152344469Y-87822226D02*
X152344469Y-87769845D01*
X152344469Y-87769845D02*
X152370660Y-87717464D01*
X152370660Y-87717464D02*
X152396850Y-87691273D01*
X152396850Y-87691273D02*
X152449231Y-87665083D01*
X152449231Y-87665083D02*
X152553993Y-87638892D01*
X152553993Y-87638892D02*
X152684945Y-87638892D01*
X152684945Y-87638892D02*
X152789707Y-87665083D01*
X152789707Y-87665083D02*
X152842088Y-87691273D01*
X152842088Y-87691273D02*
X152868279Y-87717464D01*
X152868279Y-87717464D02*
X152894469Y-87769845D01*
X152894469Y-88293655D02*
X152894469Y-88346036D01*
X152894469Y-88346036D02*
X152868279Y-88398417D01*
X152868279Y-88398417D02*
X152842088Y-88424607D01*
X152842088Y-88424607D02*
X152789707Y-88450798D01*
X152789707Y-88450798D02*
X152684945Y-88476988D01*
X152684945Y-88476988D02*
X152553993Y-88476988D01*
X152553993Y-88476988D02*
X152449231Y-88450798D01*
X152449231Y-88450798D02*
X152396850Y-88424607D01*
X152396850Y-88424607D02*
X152370660Y-88398417D01*
X152370660Y-88398417D02*
X152344469Y-88346036D01*
X152344469Y-88346036D02*
X152344469Y-88293655D01*
X152344469Y-88293655D02*
X152370660Y-88241274D01*
X152370660Y-88241274D02*
X152396850Y-88215083D01*
X152396850Y-88215083D02*
X152449231Y-88188893D01*
X152449231Y-88188893D02*
X152553993Y-88162702D01*
X152553993Y-88162702D02*
X152684945Y-88162702D01*
X152684945Y-88162702D02*
X152789707Y-88188893D01*
X152789707Y-88188893D02*
X152842088Y-88215083D01*
X152842088Y-88215083D02*
X152868279Y-88241274D01*
X152868279Y-88241274D02*
X152894469Y-88293655D01*
X147327969Y-77082083D02*
X147877969Y-77082083D01*
X147877969Y-77082083D02*
X147877969Y-77291607D01*
X147877969Y-77291607D02*
X147851779Y-77343988D01*
X147851779Y-77343988D02*
X147825588Y-77370178D01*
X147825588Y-77370178D02*
X147773207Y-77396369D01*
X147773207Y-77396369D02*
X147694636Y-77396369D01*
X147694636Y-77396369D02*
X147642255Y-77370178D01*
X147642255Y-77370178D02*
X147616064Y-77343988D01*
X147616064Y-77343988D02*
X147589874Y-77291607D01*
X147589874Y-77291607D02*
X147589874Y-77082083D01*
X147327969Y-77920178D02*
X147327969Y-77605892D01*
X147327969Y-77763035D02*
X147877969Y-77763035D01*
X147877969Y-77763035D02*
X147799398Y-77710654D01*
X147799398Y-77710654D02*
X147747017Y-77658273D01*
X147747017Y-77658273D02*
X147720826Y-77605892D01*
X147877969Y-78103512D02*
X147877969Y-78470179D01*
X147877969Y-78470179D02*
X147327969Y-78234464D01*
X155822083Y-80954530D02*
X155822083Y-80404530D01*
X155822083Y-80404530D02*
X156031607Y-80404530D01*
X156031607Y-80404530D02*
X156083988Y-80430720D01*
X156083988Y-80430720D02*
X156110178Y-80456911D01*
X156110178Y-80456911D02*
X156136369Y-80509292D01*
X156136369Y-80509292D02*
X156136369Y-80587863D01*
X156136369Y-80587863D02*
X156110178Y-80640244D01*
X156110178Y-80640244D02*
X156083988Y-80666435D01*
X156083988Y-80666435D02*
X156031607Y-80692625D01*
X156031607Y-80692625D02*
X155822083Y-80692625D01*
X156660178Y-80954530D02*
X156345892Y-80954530D01*
X156503035Y-80954530D02*
X156503035Y-80404530D01*
X156503035Y-80404530D02*
X156450654Y-80483101D01*
X156450654Y-80483101D02*
X156398273Y-80535482D01*
X156398273Y-80535482D02*
X156345892Y-80561673D01*
X157131607Y-80587863D02*
X157131607Y-80954530D01*
X157000655Y-80378340D02*
X156869702Y-80771197D01*
X156869702Y-80771197D02*
X157210179Y-80771197D01*
D11*
X152741333Y-108531819D02*
X152408000Y-108055628D01*
X152169905Y-108531819D02*
X152169905Y-107531819D01*
X152169905Y-107531819D02*
X152550857Y-107531819D01*
X152550857Y-107531819D02*
X152646095Y-107579438D01*
X152646095Y-107579438D02*
X152693714Y-107627057D01*
X152693714Y-107627057D02*
X152741333Y-107722295D01*
X152741333Y-107722295D02*
X152741333Y-107865152D01*
X152741333Y-107865152D02*
X152693714Y-107960390D01*
X152693714Y-107960390D02*
X152646095Y-108008009D01*
X152646095Y-108008009D02*
X152550857Y-108055628D01*
X152550857Y-108055628D02*
X152169905Y-108055628D01*
X153074667Y-107531819D02*
X153741333Y-107531819D01*
X153741333Y-107531819D02*
X153312762Y-108531819D01*
D12*
X119316667Y-98875168D02*
X119650000Y-99875168D01*
X119650000Y-99875168D02*
X119983333Y-98875168D01*
X120888095Y-99779929D02*
X120840476Y-99827549D01*
X120840476Y-99827549D02*
X120697619Y-99875168D01*
X120697619Y-99875168D02*
X120602381Y-99875168D01*
X120602381Y-99875168D02*
X120459524Y-99827549D01*
X120459524Y-99827549D02*
X120364286Y-99732310D01*
X120364286Y-99732310D02*
X120316667Y-99637072D01*
X120316667Y-99637072D02*
X120269048Y-99446596D01*
X120269048Y-99446596D02*
X120269048Y-99303739D01*
X120269048Y-99303739D02*
X120316667Y-99113263D01*
X120316667Y-99113263D02*
X120364286Y-99018025D01*
X120364286Y-99018025D02*
X120459524Y-98922787D01*
X120459524Y-98922787D02*
X120602381Y-98875168D01*
X120602381Y-98875168D02*
X120697619Y-98875168D01*
X120697619Y-98875168D02*
X120840476Y-98922787D01*
X120840476Y-98922787D02*
X120888095Y-98970406D01*
X121888095Y-99779929D02*
X121840476Y-99827549D01*
X121840476Y-99827549D02*
X121697619Y-99875168D01*
X121697619Y-99875168D02*
X121602381Y-99875168D01*
X121602381Y-99875168D02*
X121459524Y-99827549D01*
X121459524Y-99827549D02*
X121364286Y-99732310D01*
X121364286Y-99732310D02*
X121316667Y-99637072D01*
X121316667Y-99637072D02*
X121269048Y-99446596D01*
X121269048Y-99446596D02*
X121269048Y-99303739D01*
X121269048Y-99303739D02*
X121316667Y-99113263D01*
X121316667Y-99113263D02*
X121364286Y-99018025D01*
X121364286Y-99018025D02*
X121459524Y-98922787D01*
X121459524Y-98922787D02*
X121602381Y-98875168D01*
X121602381Y-98875168D02*
X121697619Y-98875168D01*
X121697619Y-98875168D02*
X121840476Y-98922787D01*
X121840476Y-98922787D02*
X121888095Y-98970406D01*
D13*
%TO.C,C21*%
X120049100Y-121361200D02*
X122385900Y-121361200D01*
X120049100Y-122478800D02*
X120049100Y-121361200D01*
X122385900Y-121361200D02*
X122385900Y-121970800D01*
X122385900Y-122428000D02*
X122385900Y-121970800D01*
X122385900Y-122428000D02*
X122385900Y-122478800D01*
X122385900Y-122478800D02*
X120049100Y-122478800D01*
%TO.C,C11*%
X133632402Y-97606335D02*
X135284769Y-95953968D01*
X134422665Y-98396598D02*
X133632402Y-97606335D01*
X135284769Y-95953968D02*
X135715822Y-96385020D01*
X136039111Y-96708310D02*
X135715822Y-96385020D01*
X136039111Y-96708310D02*
X136075032Y-96744231D01*
X136075032Y-96744231D02*
X134422665Y-98396598D01*
%TO.C,C12*%
X130139253Y-99275481D02*
X132474119Y-101610347D01*
X131127081Y-98287653D02*
X130139253Y-99275481D01*
X132474119Y-101610347D02*
X133461947Y-100622519D01*
X133461947Y-100622519D02*
X131127081Y-98287653D01*
%TO.C,C13*%
X131925485Y-98857548D02*
X132715748Y-98067285D01*
X132715748Y-98067285D02*
X134368115Y-99719652D01*
X133577852Y-100509915D02*
X131925485Y-98857548D01*
X133613773Y-100473994D02*
X133577852Y-100509915D01*
X133613773Y-100473994D02*
X133937063Y-100150705D01*
X134368115Y-99719652D02*
X133937063Y-100150705D01*
%TO.C,C19*%
X109809870Y-128885399D02*
X110240922Y-128454346D01*
X110564212Y-128131057D02*
X110240922Y-128454346D01*
X110564212Y-128131057D02*
X110600133Y-128095136D01*
X110600133Y-128095136D02*
X112252500Y-129747503D01*
X111462237Y-130537766D02*
X109809870Y-128885399D01*
X112252500Y-129747503D02*
X111462237Y-130537766D01*
%TO.C,Q1*%
X120936000Y-123960000D02*
X120936000Y-123300000D01*
X120936000Y-125620000D02*
X120936000Y-124960000D01*
X122346000Y-123300000D02*
X120936000Y-123300000D01*
X122346000Y-125620000D02*
X120936000Y-125620000D01*
X122956000Y-125930000D02*
X122476000Y-125930000D01*
X122716000Y-125600000D01*
X122956000Y-125930000D01*
G36*
X122956000Y-125930000D02*
G01*
X122476000Y-125930000D01*
X122716000Y-125600000D01*
X122956000Y-125930000D01*
G37*
%TO.C,D1*%
X108295176Y-131582234D02*
X111547867Y-134834925D01*
X109992233Y-129885177D02*
X108295176Y-131582234D01*
X111547867Y-134834925D02*
X113244924Y-133137868D01*
X113244924Y-133137868D02*
X109992233Y-129885177D01*
D10*
X109497258Y-132784315D02*
X109285126Y-132996447D01*
X108719440Y-132430762D01*
X108931572Y-132218630D01*
X109497258Y-132784315D01*
G36*
X109497258Y-132784315D02*
G01*
X109285126Y-132996447D01*
X108719440Y-132430762D01*
X108931572Y-132218630D01*
X109497258Y-132784315D01*
G37*
X111406446Y-130875127D02*
X111194314Y-131087259D01*
X110628629Y-130521573D01*
X110840761Y-130309441D01*
X111406446Y-130875127D01*
G36*
X111406446Y-130875127D02*
G01*
X111194314Y-131087259D01*
X110628629Y-130521573D01*
X110840761Y-130309441D01*
X111406446Y-130875127D01*
G37*
D13*
%TO.C,C18*%
X111708027Y-130819477D02*
X112139079Y-130388424D01*
X112462369Y-130065135D02*
X112139079Y-130388424D01*
X112462369Y-130065135D02*
X112498290Y-130029214D01*
X112498290Y-130029214D02*
X114150657Y-131681581D01*
X113360394Y-132471844D02*
X111708027Y-130819477D01*
X114150657Y-131681581D02*
X113360394Y-132471844D01*
%TO.C,R2*%
X154114500Y-105864500D02*
X154114500Y-107007500D01*
X154114500Y-107007500D02*
X156527500Y-107007500D01*
X156527500Y-105864500D02*
X154114500Y-105864500D01*
X156527500Y-107007500D02*
X156527500Y-105864500D01*
%TO.C,R4*%
X132698455Y-96726270D02*
X133506678Y-97534493D01*
X133506678Y-97534493D02*
X135212927Y-95828244D01*
X134404704Y-95020021D02*
X132698455Y-96726270D01*
X135212927Y-95828244D02*
X134404704Y-95020021D01*
D10*
%TO.C,J1*%
X95562773Y-69132397D02*
X96770180Y-69455921D01*
X95710300Y-68581819D02*
X95562773Y-69132397D01*
X95792342Y-67309707D02*
X95937231Y-67348530D01*
X96698209Y-63928967D02*
X95792342Y-67309707D01*
X96843099Y-63967790D02*
X96698209Y-63928967D01*
X98943513Y-70038264D02*
X97736106Y-69714740D01*
X99091040Y-69487686D02*
X98943513Y-70038264D01*
X99656045Y-68344983D02*
X99511155Y-68306160D01*
X100417023Y-64925420D02*
X100561912Y-64964243D01*
X100561912Y-64964243D02*
X99656045Y-68344983D01*
D13*
%TO.C,L1*%
X115175000Y-121065000D02*
X115175000Y-127865000D01*
X115175000Y-127865000D02*
X119775000Y-127865000D01*
X119775000Y-121065000D02*
X115175000Y-121065000D01*
X119775000Y-127865000D02*
X119775000Y-121065000D01*
X117475000Y-123957000D02*
G75*
G02*
X117475000Y-124211000I0J-127000D01*
G01*
X117475000Y-124211000D02*
G75*
G02*
X117475000Y-124465000I0J-127000D01*
G01*
X117475000Y-124465000D02*
G75*
G02*
X117475000Y-124719000I0J-127000D01*
G01*
X117475000Y-124719000D02*
G75*
G02*
X117475000Y-124973000I0J-127000D01*
G01*
%TO.C,R1*%
X154114500Y-108912500D02*
X154114500Y-110055500D01*
X154114500Y-110055500D02*
X156527500Y-110055500D01*
X156527500Y-108912500D02*
X154114500Y-108912500D01*
X156527500Y-110055500D02*
X156527500Y-108912500D01*
%TO.C,JP2*%
X134773107Y-94943654D02*
X136753006Y-92963755D01*
X136187320Y-96357867D02*
X134773107Y-94943654D01*
X136753006Y-92963755D02*
X138167219Y-94377968D01*
X138167219Y-94377968D02*
X136187320Y-96357867D01*
%TO.C,C5*%
X97187071Y-63507789D02*
X100376557Y-64362409D01*
X97548643Y-62158391D02*
X97187071Y-63507789D01*
X100376557Y-64362409D02*
X100738129Y-63013011D01*
X100738129Y-63013011D02*
X97548643Y-62158391D01*
%TO.C,C20*%
X107888095Y-126963624D02*
X108678358Y-126173361D01*
X108678358Y-126173361D02*
X110330725Y-127825728D01*
X109540462Y-128615991D02*
X107888095Y-126963624D01*
X109576383Y-128580070D02*
X109540462Y-128615991D01*
X109576383Y-128580070D02*
X109899673Y-128256781D01*
X110330725Y-127825728D02*
X109899673Y-128256781D01*
%TO.C,D2*%
X104878436Y-128165494D02*
X108131127Y-131418185D01*
X106575493Y-126468437D02*
X104878436Y-128165494D01*
X108131127Y-131418185D02*
X109828184Y-129721128D01*
X109828184Y-129721128D02*
X106575493Y-126468437D01*
D10*
X106080518Y-129367575D02*
X105868386Y-129579707D01*
X105302700Y-129014022D01*
X105514832Y-128801890D01*
X106080518Y-129367575D01*
G36*
X106080518Y-129367575D02*
G01*
X105868386Y-129579707D01*
X105302700Y-129014022D01*
X105514832Y-128801890D01*
X106080518Y-129367575D01*
G37*
X107989706Y-127458387D02*
X107777574Y-127670519D01*
X107211889Y-127104833D01*
X107424021Y-126892701D01*
X107989706Y-127458387D01*
G36*
X107989706Y-127458387D02*
G01*
X107777574Y-127670519D01*
X107211889Y-127104833D01*
X107424021Y-126892701D01*
X107989706Y-127458387D01*
G37*
D13*
%TO.C,R6*%
X127352268Y-126255491D02*
X129058517Y-127961740D01*
X128160491Y-125447268D02*
X127352268Y-126255491D01*
X129058517Y-127961740D02*
X129866740Y-127153517D01*
X129866740Y-127153517D02*
X128160491Y-125447268D01*
%TO.C,C15*%
X132641802Y-102914935D02*
X134294169Y-101262568D01*
X133432065Y-103705198D02*
X132641802Y-102914935D01*
X134294169Y-101262568D02*
X134725222Y-101693620D01*
X135048511Y-102016910D02*
X134725222Y-101693620D01*
X135048511Y-102016910D02*
X135084432Y-102052831D01*
X135084432Y-102052831D02*
X133432065Y-103705198D01*
%TO.C,C1*%
X93065286Y-63560722D02*
X96254772Y-64415342D01*
X93426858Y-62211324D02*
X93065286Y-63560722D01*
X96254772Y-64415342D02*
X96616344Y-63065944D01*
X96616344Y-63065944D02*
X93426858Y-62211324D01*
%TO.C,D3*%
X109873580Y-126587090D02*
X113126271Y-129839781D01*
X111570637Y-124890033D02*
X109873580Y-126587090D01*
X113126271Y-129839781D02*
X114823328Y-128142724D01*
X114823328Y-128142724D02*
X111570637Y-124890033D01*
D10*
X111075662Y-127789171D02*
X110863530Y-128001303D01*
X110297844Y-127435618D01*
X110509976Y-127223486D01*
X111075662Y-127789171D01*
G36*
X111075662Y-127789171D02*
G01*
X110863530Y-128001303D01*
X110297844Y-127435618D01*
X110509976Y-127223486D01*
X111075662Y-127789171D01*
G37*
X112984850Y-125879983D02*
X112772718Y-126092115D01*
X112207033Y-125526429D01*
X112419165Y-125314297D01*
X112984850Y-125879983D01*
G36*
X112984850Y-125879983D02*
G01*
X112772718Y-126092115D01*
X112207033Y-125526429D01*
X112419165Y-125314297D01*
X112984850Y-125879983D01*
G37*
D13*
%TO.C,R3*%
X125701268Y-126255491D02*
X127407517Y-127961740D01*
X126509491Y-125447268D02*
X125701268Y-126255491D01*
X127407517Y-127961740D02*
X128215740Y-127153517D01*
X128215740Y-127153517D02*
X126509491Y-125447268D01*
%TO.C,C4*%
X92252486Y-66557922D02*
X95441972Y-67412542D01*
X92614058Y-65208524D02*
X92252486Y-66557922D01*
X95441972Y-67412542D02*
X95803544Y-66063144D01*
X95803544Y-66063144D02*
X92614058Y-65208524D01*
%TO.C,C2*%
X92658886Y-65059322D02*
X95848372Y-65913942D01*
X93020458Y-63709924D02*
X92658886Y-65059322D01*
X95848372Y-65913942D02*
X96209944Y-64564544D01*
X96209944Y-64564544D02*
X93020458Y-63709924D01*
%TO.C,U4*%
X134575561Y-100859623D02*
X136910428Y-103194490D01*
X136685922Y-97690017D02*
X134395956Y-99979982D01*
X138194180Y-102969983D02*
X140080034Y-101084129D01*
X140304541Y-99800377D02*
X137879871Y-97375708D01*
D16*
X137503551Y-97276713D02*
G75*
G02*
X137376551Y-97276713I-63500J0D01*
G01*
X137376551Y-97276713D02*
G75*
G02*
X137503551Y-97276713I63500J0D01*
G01*
D13*
%TO.C,J3*%
X116140000Y-132726000D02*
X116140000Y-131226000D01*
X116190000Y-129126000D02*
X116190000Y-130126000D01*
X117040000Y-129126000D02*
X116190000Y-129126000D01*
X129240000Y-129126000D02*
X130190000Y-129126000D01*
X129240000Y-129626000D02*
X129240000Y-129126000D01*
X130190000Y-129126000D02*
X130190000Y-130126000D01*
X130240000Y-131226000D02*
X130240000Y-132726000D01*
X130240000Y-132726000D02*
X116140000Y-132726000D01*
%TO.C,R5*%
X133003768Y-106345009D02*
X133811991Y-107153232D01*
X133811991Y-107153232D02*
X135518240Y-105446983D01*
X134710017Y-104638760D02*
X133003768Y-106345009D01*
X135518240Y-105446983D02*
X134710017Y-104638760D01*
%TO.C,C14*%
X129021653Y-100418481D02*
X131356519Y-102753347D01*
X130009481Y-99430653D02*
X129021653Y-100418481D01*
X131356519Y-102753347D02*
X132344347Y-101765519D01*
X132344347Y-101765519D02*
X130009481Y-99430653D01*
%TO.C,U3*%
X159824000Y-109260000D02*
X159824000Y-106660000D01*
X163264000Y-106660000D02*
X163264000Y-109260000D01*
D12*
X163344000Y-106260000D02*
G75*
G02*
X163144000Y-106260000I-100000J0D01*
G01*
X163144000Y-106260000D02*
G75*
G02*
X163344000Y-106260000I100000J0D01*
G01*
D10*
%TO.C,U2*%
X142756810Y-75480200D02*
X165056410Y-75480200D01*
X142756810Y-89619800D02*
X142756810Y-75480200D01*
X142756810Y-89619800D02*
X165056410Y-89619800D01*
X158071410Y-89619800D02*
X158071410Y-75480200D01*
X165056410Y-89619800D02*
X165056410Y-75480200D01*
D17*
G36*
X154694810Y-83193600D02*
G01*
X154059810Y-82558600D01*
X154694810Y-81923600D01*
X154694810Y-83193600D01*
G37*
D13*
%TO.C,R7*%
X154114500Y-107388500D02*
X154114500Y-108531500D01*
X154114500Y-108531500D02*
X156527500Y-108531500D01*
X156527500Y-107388500D02*
X154114500Y-107388500D01*
X156527500Y-108531500D02*
X156527500Y-107388500D01*
%TD*%
%LPC*%
D10*
X147320000Y-104775000D02*
X149860000Y-104775000D01*
X149860000Y-108585000D01*
X147320000Y-108585000D01*
X147320000Y-104775000D01*
G36*
X147320000Y-104775000D02*
G01*
X149860000Y-104775000D01*
X149860000Y-108585000D01*
X147320000Y-108585000D01*
X147320000Y-104775000D01*
G37*
X102870000Y-100965000D02*
X105410000Y-100965000D01*
X105410000Y-104775000D01*
X102870000Y-104775000D01*
X102870000Y-100965000D01*
G36*
X102870000Y-100965000D02*
G01*
X105410000Y-100965000D01*
X105410000Y-104775000D01*
X102870000Y-104775000D01*
X102870000Y-100965000D01*
G37*
X146050000Y-92075000D02*
X146558000Y-92075000D01*
X146558000Y-92710000D01*
X146050000Y-92710000D01*
X146050000Y-92075000D01*
G36*
X146050000Y-92075000D02*
G01*
X146558000Y-92075000D01*
X146558000Y-92710000D01*
X146050000Y-92710000D01*
X146050000Y-92075000D01*
G37*
X117475000Y-105410000D02*
X121285000Y-105410000D01*
X121285000Y-107950000D01*
X117475000Y-107950000D01*
X117475000Y-105410000D01*
G36*
X117475000Y-105410000D02*
G01*
X121285000Y-105410000D01*
X121285000Y-107950000D01*
X117475000Y-107950000D01*
X117475000Y-105410000D01*
G37*
X152499763Y-93372237D02*
X152050750Y-93821250D01*
X151691540Y-93462040D01*
X152140553Y-93013027D01*
X152499763Y-93372237D01*
G36*
X152499763Y-93372237D02*
G01*
X152050750Y-93821250D01*
X151691540Y-93462040D01*
X152140553Y-93013027D01*
X152499763Y-93372237D01*
G37*
X113030000Y-96520000D02*
X115570000Y-96520000D01*
X115570000Y-100330000D01*
X113030000Y-100330000D01*
X113030000Y-96520000D01*
G36*
X113030000Y-96520000D02*
G01*
X115570000Y-96520000D01*
X115570000Y-100330000D01*
X113030000Y-100330000D01*
X113030000Y-96520000D01*
G37*
X153928513Y-92959487D02*
X153479500Y-93408500D01*
X153120290Y-93049290D01*
X153569303Y-92600277D01*
X153928513Y-92959487D01*
G36*
X153928513Y-92959487D02*
G01*
X153479500Y-93408500D01*
X153120290Y-93049290D01*
X153569303Y-92600277D01*
X153928513Y-92959487D01*
G37*
X127635000Y-78740000D02*
X131445000Y-78740000D01*
X131445000Y-81280000D01*
X127635000Y-81280000D01*
X127635000Y-78740000D01*
G36*
X127635000Y-78740000D02*
G01*
X131445000Y-78740000D01*
X131445000Y-81280000D01*
X127635000Y-81280000D01*
X127635000Y-78740000D01*
G37*
X107950000Y-120015000D02*
X110490000Y-120015000D01*
X110490000Y-123825000D01*
X107950000Y-123825000D01*
X107950000Y-120015000D01*
G36*
X107950000Y-120015000D02*
G01*
X110490000Y-120015000D01*
X110490000Y-123825000D01*
X107950000Y-123825000D01*
X107950000Y-120015000D01*
G37*
X149860000Y-91694000D02*
X150368000Y-91694000D01*
X150368000Y-92329000D01*
X149860000Y-92329000D01*
X149860000Y-91694000D01*
G36*
X149860000Y-91694000D02*
G01*
X150368000Y-91694000D01*
X150368000Y-92329000D01*
X149860000Y-92329000D01*
X149860000Y-91694000D01*
G37*
D18*
%TO.C,C21*%
X121785000Y-121920000D03*
X120650000Y-121920000D03*
%TD*%
D19*
%TO.C,C11*%
X135255000Y-96774000D03*
X134452434Y-97576566D03*
%TD*%
D20*
%TO.C,TP7*%
X114300000Y-81280000D03*
%TD*%
D21*
%TO.C,C12*%
X132419318Y-100567718D03*
X131181882Y-99330282D03*
%TD*%
D22*
%TO.C,C13*%
X133548083Y-99689883D03*
X132745517Y-98887317D03*
%TD*%
D23*
%TO.C,J2*%
X95588600Y-79759400D03*
X92938600Y-79759400D03*
X95588600Y-81559400D03*
X92938600Y-81559400D03*
%TD*%
D20*
%TO.C,TP10*%
X114300000Y-86360000D03*
%TD*%
D24*
%TO.C,C19*%
X110629902Y-128915168D03*
X111432468Y-129717734D03*
%TD*%
D25*
%TO.C,Q1*%
X122666000Y-125110000D03*
X122666000Y-123810000D03*
X120666000Y-124460000D03*
%TD*%
D26*
%TO.C,D1*%
X109780101Y-131370102D03*
X111759999Y-133350000D03*
%TD*%
D24*
%TO.C,C18*%
X112528059Y-130849246D03*
X113330625Y-131651812D03*
%TD*%
D27*
%TO.C,R2*%
X154723500Y-106436000D03*
X155918500Y-106436000D03*
%TD*%
D28*
%TO.C,R4*%
X133533195Y-96699753D03*
X134378187Y-95854761D03*
%TD*%
D29*
%TO.C,J1*%
X98209479Y-66016234D03*
%TD*%
D20*
%TO.C,REF\u002A\u002A*%
X161290000Y-119380000D03*
%TD*%
D30*
%TO.C,L1*%
X117475000Y-122565000D03*
X117475000Y-126365000D03*
%TD*%
D27*
%TO.C,R1*%
X154723500Y-109484000D03*
X155918500Y-109484000D03*
%TD*%
D31*
%TO.C,JP2*%
X135957511Y-95173463D03*
D32*
X136982815Y-94148159D03*
%TD*%
D20*
%TO.C,TP9*%
X114300000Y-88900000D03*
%TD*%
D33*
%TO.C,URT*%
X143065500Y-93662500D03*
%TD*%
D34*
%TO.C,C5*%
X99807785Y-63486867D03*
X98117415Y-63033933D03*
%TD*%
D22*
%TO.C,C20*%
X109510693Y-127795959D03*
X108708127Y-126993393D03*
%TD*%
D20*
%TO.C,REF\u002A\u002A*%
X80010000Y-110490000D03*
%TD*%
D26*
%TO.C,D2*%
X106363361Y-127953362D03*
X108343259Y-129933260D03*
%TD*%
D35*
%TO.C,R6*%
X128187008Y-126282008D03*
X129032000Y-127127000D03*
%TD*%
D20*
%TO.C,REF\u002A\u002A*%
X161290000Y-99060000D03*
%TD*%
%TO.C,REF\u002A\u002A*%
X161290000Y-135890000D03*
%TD*%
D19*
%TO.C,C15*%
X134264400Y-102082600D03*
X133461834Y-102885166D03*
%TD*%
D34*
%TO.C,C1*%
X95686000Y-63539800D03*
X93995630Y-63086866D03*
%TD*%
D26*
%TO.C,D3*%
X111358505Y-126374958D03*
X113338403Y-128354856D03*
%TD*%
D20*
%TO.C,TP8*%
X114300000Y-83820000D03*
%TD*%
D35*
%TO.C,R3*%
X126536008Y-126282008D03*
X127381000Y-127127000D03*
%TD*%
D34*
%TO.C,C4*%
X94873200Y-66537000D03*
X93182830Y-66084066D03*
%TD*%
D36*
%TO.C,URT*%
X144145000Y-97917000D03*
%TD*%
D20*
%TO.C,REF\u002A\u002A*%
X80010000Y-119380000D03*
%TD*%
D34*
%TO.C,C2*%
X95279600Y-65038400D03*
X93589230Y-64585466D03*
%TD*%
D37*
%TO.C,U4*%
X136953915Y-98429651D03*
X136600362Y-98783204D03*
X136246808Y-99136757D03*
X135893255Y-99490311D03*
X135539702Y-99843864D03*
D38*
X135539702Y-100816136D03*
X135893255Y-101169689D03*
X136246808Y-101523243D03*
X136600362Y-101876796D03*
X136953915Y-102230349D03*
D37*
X137926187Y-102230349D03*
X138279740Y-101876796D03*
X138633294Y-101523243D03*
X138986847Y-101169689D03*
X139340400Y-100816136D03*
D38*
X139340400Y-99843864D03*
X138986847Y-99490311D03*
X138633294Y-99136757D03*
X138279740Y-98783204D03*
X137926187Y-98429651D03*
D39*
X137440051Y-100330000D03*
%TD*%
D40*
%TO.C,J3*%
X128940000Y-129526000D03*
X128440000Y-129526000D03*
X127940000Y-129526000D03*
X127440000Y-129526000D03*
X126940000Y-129526000D03*
X126440000Y-129526000D03*
X125940000Y-129526000D03*
X125440000Y-129526000D03*
X124940000Y-129526000D03*
X124440000Y-129526000D03*
X123940000Y-129526000D03*
X123440000Y-129526000D03*
X122940000Y-129526000D03*
X122440000Y-129526000D03*
X121940000Y-129526000D03*
X121440000Y-129526000D03*
X120940000Y-129526000D03*
X120440000Y-129526000D03*
X119940000Y-129526000D03*
X119440000Y-129526000D03*
X118940000Y-129526000D03*
X118440000Y-129526000D03*
X117940000Y-129526000D03*
X117440000Y-129526000D03*
D41*
X129940000Y-132126000D03*
X116440000Y-132126000D03*
%TD*%
D28*
%TO.C,R5*%
X133838508Y-106318492D03*
X134683500Y-105473500D03*
%TD*%
D20*
%TO.C,REF\u002A\u002A*%
X161290000Y-54610000D03*
%TD*%
D21*
%TO.C,C14*%
X131301718Y-101710718D03*
X130064282Y-100473282D03*
%TD*%
D20*
%TO.C,REF\u002A\u002A*%
X80010000Y-135890000D03*
%TD*%
D42*
%TO.C,U3*%
X162544000Y-106710000D03*
X161544000Y-106710000D03*
X160544000Y-106710000D03*
X160544000Y-109210000D03*
X161544000Y-109210000D03*
X162544000Y-109210000D03*
%TD*%
D43*
%TO.C,U2*%
X153915190Y-75480200D03*
X152645190Y-75480200D03*
X151375190Y-75480200D03*
X150105190Y-75480200D03*
X148835190Y-75480200D03*
X147565190Y-75480200D03*
X146295190Y-75480200D03*
X145025190Y-75480200D03*
D44*
X142756810Y-78105000D03*
X142756810Y-79375000D03*
X142756810Y-80645000D03*
X142756810Y-81915000D03*
X142756810Y-83185000D03*
X142756810Y-84455000D03*
X142756810Y-85725000D03*
X142756810Y-86995000D03*
D45*
X145025190Y-89619800D03*
X146295190Y-89619800D03*
X147565190Y-89619800D03*
X148835190Y-89619800D03*
X150105190Y-89619800D03*
X151375190Y-89619800D03*
X152645190Y-89619800D03*
X153915190Y-89619800D03*
%TD*%
D27*
%TO.C,R7*%
X154723500Y-107960000D03*
X155918500Y-107960000D03*
%TD*%
D36*
%TO.C,VCC*%
X120650000Y-101219000D03*
%TD*%
D20*
%TO.C,REF\u002A\u002A*%
X80010000Y-54610000D03*
%TD*%
%TO.C,TP6*%
X114300000Y-78740000D03*
%TD*%
%LPD*%
M02*
