%TF.GenerationSoftware,KiCad,Pcbnew,8.0.6-hq-2-g3d73d9976a*%
%TF.CreationDate,2024-12-20T20:58:29+08:00*%
%TF.ProjectId,DemoBoard_SensorForTemp&Rh_IntegratedWithMCU,44656d6f-426f-4617-9264-5f53656e736f,rev?*%
%TF.SameCoordinates,Original*%
%TF.FileFunction,Soldermask,Bot*%
%TF.FilePolarity,Negative*%
%FSLAX46Y46*%
G04 Gerber Fmt 4.6, Leading zero omitted, Abs format (unit mm)*
G04 Created by KiCad (PCBNEW 8.0.6-hq-2-g3d73d9976a) date 2024-12-20 20:58:29*
%MOMM*%
%LPD*%
G01*
G04 APERTURE LIST*
G04 Aperture macros list*
%AMRoundRect*
0 Rectangle with rounded corners*
0 $1 Rounding radius*
0 $2 $3 $4 $5 $6 $7 $8 $9 X,Y pos of 4 corners*
0 Add a 4 corners polygon primitive as box body*
4,1,4,$2,$3,$4,$5,$6,$7,$8,$9,$2,$3,0*
0 Add four circle primitives for the rounded corners*
1,1,$1+$1,$2,$3*
1,1,$1+$1,$4,$5*
1,1,$1+$1,$6,$7*
1,1,$1+$1,$8,$9*
0 Add four rect primitives between the rounded corners*
20,1,$1+$1,$2,$3,$4,$5,0*
20,1,$1+$1,$4,$5,$6,$7,0*
20,1,$1+$1,$6,$7,$8,$9,0*
20,1,$1+$1,$8,$9,$2,$3,0*%
%AMFreePoly0*
4,1,6,1.000000,0.000000,0.500000,-0.750000,-0.500000,-0.750000,-0.500000,0.750000,0.500000,0.750000,1.000000,0.000000,1.000000,0.000000,$1*%
%AMFreePoly1*
4,1,6,0.500000,-0.750000,-0.650000,-0.750000,-0.150000,0.000000,-0.650000,0.750000,0.500000,0.750000,0.500000,-0.750000,0.500000,-0.750000,$1*%
G04 Aperture macros list end*
%ADD10C,0.100000*%
%ADD11C,2.200000*%
%ADD12RoundRect,0.250000X-1.060660X0.000000X0.000000X-1.060660X1.060660X0.000000X0.000000X1.060660X0*%
%ADD13RoundRect,0.155000X0.155000X-0.212500X0.155000X0.212500X-0.155000X0.212500X-0.155000X-0.212500X0*%
%ADD14RoundRect,0.500000X1.000000X0.500000X-1.000000X0.500000X-1.000000X-0.500000X1.000000X-0.500000X0*%
%ADD15FreePoly0,180.000000*%
%ADD16FreePoly1,180.000000*%
%ADD17RoundRect,0.500000X0.353553X1.060660X-1.060660X-0.353553X-0.353553X-1.060660X1.060660X0.353553X0*%
%ADD18RoundRect,0.237500X0.287500X0.237500X-0.287500X0.237500X-0.287500X-0.237500X0.287500X-0.237500X0*%
%ADD19RoundRect,0.500000X-0.353553X-1.060660X1.060660X0.353553X0.353553X1.060660X-1.060660X-0.353553X0*%
%ADD20RoundRect,0.500000X-1.000000X-0.500000X1.000000X-0.500000X1.000000X0.500000X-1.000000X0.500000X0*%
G04 APERTURE END LIST*
D10*
X132080000Y-133985000D02*
X134620000Y-133985000D01*
X134620000Y-137795000D01*
X132080000Y-137795000D01*
X132080000Y-133985000D01*
G36*
X132080000Y-133985000D02*
G01*
X134620000Y-133985000D01*
X134620000Y-137795000D01*
X132080000Y-137795000D01*
X132080000Y-133985000D01*
G37*
X139700000Y-107315000D02*
X142240000Y-107315000D01*
X142240000Y-111125000D01*
X139700000Y-111125000D01*
X139700000Y-107315000D01*
G36*
X139700000Y-107315000D02*
G01*
X142240000Y-107315000D01*
X142240000Y-111125000D01*
X139700000Y-111125000D01*
X139700000Y-107315000D01*
G37*
X140970000Y-117475000D02*
X143510000Y-117475000D01*
X143510000Y-121285000D01*
X140970000Y-121285000D01*
X140970000Y-117475000D01*
G36*
X140970000Y-117475000D02*
G01*
X143510000Y-117475000D01*
X143510000Y-121285000D01*
X140970000Y-121285000D01*
X140970000Y-117475000D01*
G37*
X113030000Y-104775000D02*
X115570000Y-104775000D01*
X115570000Y-108585000D01*
X113030000Y-108585000D01*
X113030000Y-104775000D01*
G36*
X113030000Y-104775000D02*
G01*
X115570000Y-104775000D01*
X115570000Y-108585000D01*
X113030000Y-108585000D01*
X113030000Y-104775000D01*
G37*
X124460000Y-94615000D02*
X127000000Y-94615000D01*
X127000000Y-98425000D01*
X124460000Y-98425000D01*
X124460000Y-94615000D01*
G36*
X124460000Y-94615000D02*
G01*
X127000000Y-94615000D01*
X127000000Y-98425000D01*
X124460000Y-98425000D01*
X124460000Y-94615000D01*
G37*
X123825000Y-78740000D02*
X127635000Y-78740000D01*
X127635000Y-81280000D01*
X123825000Y-81280000D01*
X123825000Y-78740000D01*
G36*
X123825000Y-78740000D02*
G01*
X127635000Y-78740000D01*
X127635000Y-81280000D01*
X123825000Y-81280000D01*
X123825000Y-78740000D01*
G37*
X113030000Y-118745000D02*
X115570000Y-118745000D01*
X115570000Y-122555000D01*
X113030000Y-122555000D01*
X113030000Y-118745000D01*
G36*
X113030000Y-118745000D02*
G01*
X115570000Y-118745000D01*
X115570000Y-122555000D01*
X113030000Y-122555000D01*
X113030000Y-118745000D01*
G37*
D11*
%TO.C,TP7*%
X114300000Y-81280000D03*
%TD*%
%TO.C,TP10*%
X114300000Y-86360000D03*
%TD*%
%TO.C,REF\u002A\u002A*%
X161290000Y-119380000D03*
%TD*%
%TO.C,TP9*%
X114300000Y-88900000D03*
%TD*%
%TO.C,REF\u002A\u002A*%
X80010000Y-110490000D03*
%TD*%
%TO.C,REF\u002A\u002A*%
X161290000Y-99060000D03*
%TD*%
%TO.C,REF\u002A\u002A*%
X161290000Y-135890000D03*
%TD*%
%TO.C,TP8*%
X114300000Y-83820000D03*
%TD*%
%TO.C,REF\u002A\u002A*%
X80010000Y-119380000D03*
%TD*%
D12*
%TO.C,U4*%
X137440051Y-100330000D03*
%TD*%
D11*
%TO.C,REF\u002A\u002A*%
X161290000Y-54610000D03*
%TD*%
%TO.C,REF\u002A\u002A*%
X80010000Y-135890000D03*
%TD*%
%TO.C,REF\u002A\u002A*%
X80010000Y-54610000D03*
%TD*%
%TO.C,TP6*%
X114300000Y-78740000D03*
%TD*%
D13*
%TO.C,C7*%
X118440000Y-133231700D03*
X118440000Y-132096700D03*
%TD*%
D14*
%TO.C,SCL*%
X149352000Y-102285800D03*
%TD*%
D15*
%TO.C,JP3*%
X125349000Y-135509000D03*
D16*
X123899000Y-135509000D03*
%TD*%
D17*
%TO.C,SDA*%
X127635000Y-108077000D03*
%TD*%
D18*
%TO.C,C3*%
X162419000Y-106944000D03*
X160669000Y-106944000D03*
%TD*%
D13*
%TO.C,C10*%
X121440000Y-135822500D03*
X121440000Y-134687500D03*
%TD*%
D17*
%TO.C,SCK*%
X123444000Y-112141000D03*
%TD*%
D13*
%TO.C,C17*%
X126940000Y-133231700D03*
X126940000Y-132096700D03*
%TD*%
D19*
%TO.C,nCS*%
X131254500Y-118618000D03*
%TD*%
D13*
%TO.C,C9*%
X119940000Y-133231700D03*
X119940000Y-132096700D03*
%TD*%
D20*
%TO.C,SDA*%
X149225000Y-110312200D03*
%TD*%
D13*
%TO.C,C8*%
X119440000Y-135822500D03*
X119440000Y-134687500D03*
%TD*%
D17*
%TO.C,BUSY*%
X128079500Y-117665500D03*
%TD*%
D14*
%TO.C,SCL*%
X150749000Y-106426000D03*
%TD*%
D13*
%TO.C,C6*%
X117440000Y-135822500D03*
X117440000Y-134687500D03*
%TD*%
%TO.C,C16*%
X121940000Y-133231700D03*
X121940000Y-132096700D03*
%TD*%
M02*
