M48
; DRILL file {KiCad 8.0.6-hq-2-g3d73d9976a} date 2024-12-20T20:58:29+0800
; FORMAT={-:-/ absolute / inch / decimal}
; #@! TF.CreationDate,2024-12-20T20:58:29+08:00
; #@! TF.GenerationSoftware,Kicad,Pcbnew,8.0.6-hq-2-g3d73d9976a
; #@! TF.FileFunction,Plated,1,2,PTH
FMAT,2
INCH
; #@! TA.AperFunction,Plated,PTH,ViaDrill
T1C0.0118
; #@! TA.AperFunction,Plated,PTH,ComponentDrill
T2C0.0118
; #@! TA.AperFunction,Plated,PTH,ViaDrill
T3C0.0197
; #@! TA.AperFunction,Plated,PTH,ComponentDrill
T4C0.0472
%
G90
G05
T1
X3.3Y-4.8
X3.4Y-5.0
X3.5Y-4.8
X3.5Y-5.2
X3.565Y-3.11
X3.565Y-3.14
X3.565Y-3.21
X3.565Y-3.24
X3.6Y-5.0
X3.6Y-5.4
X3.63Y-3.06
X3.63Y-3.29
X3.659Y-3.06
X3.66Y-3.29
X3.69Y-3.06
X3.69Y-3.29
X3.7Y-4.8
X3.7Y-5.2
X3.7625Y-3.9875
X3.7625Y-4.1125
X3.7633Y-3.29
X3.765Y-3.06
X3.7875Y-3.9875
X3.7875Y-4.1125
X3.795Y-3.06
X3.795Y-3.29
X3.8Y-5.0
X3.8Y-5.4
X3.8125Y-3.9875
X3.8125Y-4.1125
X3.825Y-3.06
X3.825Y-3.29
X3.8375Y-3.9875
X3.8375Y-4.1125
X3.8625Y-3.1125
X3.8625Y-3.1375
X3.8625Y-3.1625
X3.8625Y-3.1875
X3.8625Y-3.2125
X3.8625Y-3.2375
X3.9Y-4.8
X3.9Y-5.2
X4.0Y-5.0
X4.0Y-5.4
X4.1Y-4.8
X4.1Y-5.2
X4.2Y-5.4
X4.4654Y-4.9754
X4.525Y-5.2375
X4.525Y-5.2625
X4.525Y-5.2875
X4.525Y-5.3125
X4.53Y-5.04
X4.6Y-5.165
X4.663Y-5.15
X4.695Y-5.133
X4.722Y-5.165
X4.735Y-4.85
X4.745Y-5.055
X4.761Y-5.15
X4.775Y-4.975
X4.8008Y-5.165
X4.825Y-4.975
X4.855Y-4.705
X4.8625Y-4.7875
X4.8625Y-4.8125
X4.8625Y-4.8375
X4.875Y-5.015
X4.885Y-4.62
X4.895Y-5.062
X4.9Y-5.135
X4.905Y-4.9575
X4.9125Y-3.5375
X4.9125Y-3.6625
X4.9125Y-3.9875
X4.9125Y-4.1125
X4.9375Y-3.5375
X4.9375Y-3.6625
X4.9375Y-3.9875
X4.9375Y-4.1125
X4.962Y-5.027
X4.9625Y-3.5375
X4.9625Y-3.6625
X4.9625Y-3.9875
X4.9625Y-4.1125
X4.9875Y-3.5375
X4.9875Y-3.6625
X4.9875Y-3.9875
X4.9875Y-4.1125
X4.9917Y-4.3857
X4.9976Y-5.133
X5.0Y-4.875
X5.037Y-5.027
X5.05Y-5.2375
X5.05Y-5.2625
X5.05Y-5.2875
X5.05Y-5.3125
X5.06Y-4.925
X5.08Y-5.0425
X5.1Y-4.335
X5.168Y-3.956
X5.21Y-3.786
X5.3Y-4.8
X5.305Y-4.04
X5.33Y-3.861
X5.353Y-4.176
X5.358Y-3.832
X5.3788Y-4.0713
X5.4Y-5.0
X5.42Y-3.8143
X5.5Y-4.8
X5.5Y-5.2
X5.512Y-3.886
X5.538Y-3.92
X5.561Y-3.175
X5.562Y-3.275
X5.6Y-5.0
X5.65Y-4.1
X5.67Y-3.725
X5.675Y-4.125
X5.7Y-4.15
X5.7Y-4.8
X5.7Y-5.2
X5.725Y-4.175
X5.75Y-4.2
X5.76Y-3.676
X5.8Y-5.0
X5.8597Y-3.5853
X5.9Y-4.8
X5.9Y-5.2
X5.955Y-4.343
X5.965Y-4.027
X6.0Y-4.1
X6.0Y-4.275
X6.0Y-5.0
X6.044Y-3.466
X6.045Y-4.19
X6.1Y-4.8
X6.1Y-5.2
X6.1675Y-4.2504
X6.2Y-5.0
X6.3Y-5.2
X6.34Y-4.2504
X6.38Y-4.2504
T2
X5.3721Y-3.95
X5.411Y-3.911
X5.411Y-3.95
X5.411Y-3.989
X5.45Y-3.95
T3
X4.7Y-3.1
X4.7Y-3.2
X4.8Y-3.0
X4.8Y-3.3
X4.9Y-3.0
X4.9Y-3.3
X5.0Y-3.0
X5.0Y-3.3
X5.1Y-3.0
X5.1Y-3.3
X5.2Y-3.0
X5.2Y-3.3
X5.3Y-3.0
X5.4Y-3.1
T4
X4.5Y-3.1
X4.5Y-3.2
X4.5Y-3.3
X4.5Y-3.4
X4.5Y-3.5
M30
