%TF.GenerationSoftware,KiCad,Pcbnew,8.0.6-hq-2-g3d73d9976a*%
%TF.CreationDate,2024-12-20T20:58:28+08:00*%
%TF.ProjectId,DemoBoard_SensorForTemp&Rh_IntegratedWithMCU,44656d6f-426f-4617-9264-5f53656e736f,rev?*%
%TF.SameCoordinates,Original*%
%TF.FileFunction,Copper,L1,Top*%
%TF.FilePolarity,Positive*%
%FSLAX46Y46*%
G04 Gerber Fmt 4.6, Leading zero omitted, Abs format (unit mm)*
G04 Created by KiCad (PCBNEW 8.0.6-hq-2-g3d73d9976a) date 2024-12-20 20:58:28*
%MOMM*%
%LPD*%
G01*
G04 APERTURE LIST*
G04 Aperture macros list*
%AMRoundRect*
0 Rectangle with rounded corners*
0 $1 Rounding radius*
0 $2 $3 $4 $5 $6 $7 $8 $9 X,Y pos of 4 corners*
0 Add a 4 corners polygon primitive as box body*
4,1,4,$2,$3,$4,$5,$6,$7,$8,$9,$2,$3,0*
0 Add four circle primitives for the rounded corners*
1,1,$1+$1,$2,$3*
1,1,$1+$1,$4,$5*
1,1,$1+$1,$6,$7*
1,1,$1+$1,$8,$9*
0 Add four rect primitives between the rounded corners*
20,1,$1+$1,$2,$3,$4,$5,0*
20,1,$1+$1,$4,$5,$6,$7,0*
20,1,$1+$1,$6,$7,$8,$9,0*
20,1,$1+$1,$8,$9,$2,$3,0*%
%AMFreePoly0*
4,1,6,1.000000,0.000000,0.499999,-0.750000,-0.499999,-0.750000,-0.499999,0.750000,0.499999,0.750000,1.000000,0.000000,1.000000,0.000000,$1*%
%AMFreePoly1*
4,1,6,0.499999,-0.750000,-0.649999,-0.750000,-0.150000,0.000000,-0.649999,0.750000,0.499999,0.750000,0.499999,-0.750000,0.499999,-0.750000,$1*%
G04 Aperture macros list end*
%TA.AperFunction,Conductor*%
%ADD10C,0.000000*%
%TD*%
%TA.AperFunction,Conductor*%
%ADD11C,0.300000*%
%TD*%
%TA.AperFunction,SMDPad,CuDef*%
%ADD12RoundRect,0.155000X0.212500X0.155000X-0.212500X0.155000X-0.212500X-0.155000X0.212500X-0.155000X0*%
%TD*%
%TA.AperFunction,SMDPad,CuDef*%
%ADD13RoundRect,0.155000X0.040659X0.259862X-0.259862X-0.040659X-0.040659X-0.259862X0.259862X0.040659X0*%
%TD*%
%TA.AperFunction,ComponentPad*%
%ADD14C,2.200000*%
%TD*%
%TA.AperFunction,SMDPad,CuDef*%
%ADD15RoundRect,0.237500X0.371231X-0.035355X-0.035355X0.371231X-0.371231X0.035355X0.035355X-0.371231X0*%
%TD*%
%TA.AperFunction,SMDPad,CuDef*%
%ADD16RoundRect,0.155000X0.259862X-0.040659X-0.040659X0.259862X-0.259862X0.040659X0.040659X-0.259862X0*%
%TD*%
%TA.AperFunction,SMDPad,CuDef*%
%ADD17RoundRect,0.108108X-1.116892X0.691892X-1.116892X-0.691892X1.116892X-0.691892X1.116892X0.691892X0*%
%TD*%
%TA.AperFunction,SMDPad,CuDef*%
%ADD18RoundRect,0.155000X-0.259862X0.040659X0.040659X-0.259862X0.259862X-0.040659X-0.040659X0.259862X0*%
%TD*%
%TA.AperFunction,SMDPad,CuDef*%
%ADD19RoundRect,0.112500X0.237500X-0.112500X0.237500X0.112500X-0.237500X0.112500X-0.237500X-0.112500X0*%
%TD*%
%TA.AperFunction,SMDPad,CuDef*%
%ADD20RoundRect,0.250000X-0.424264X0.000000X0.000000X-0.424264X0.424264X0.000000X0.000000X0.424264X0*%
%TD*%
%TA.AperFunction,SMDPad,CuDef*%
%ADD21RoundRect,0.160000X-0.197500X-0.160000X0.197500X-0.160000X0.197500X0.160000X-0.197500X0.160000X0*%
%TD*%
%TA.AperFunction,SMDPad,CuDef*%
%ADD22RoundRect,0.160000X-0.026517X-0.252791X0.252791X0.026517X0.026517X0.252791X-0.252791X-0.026517X0*%
%TD*%
%TA.AperFunction,SMDPad,CuDef*%
%ADD23RoundRect,0.236486X-1.024923X2.022706X-1.898962X-1.239253X1.024923X-2.022706X1.898962X1.239253X0*%
%TD*%
%TA.AperFunction,SMDPad,CuDef*%
%ADD24RoundRect,0.250000X-1.700000X0.850000X-1.700000X-0.850000X1.700000X-0.850000X1.700000X0.850000X0*%
%TD*%
%TA.AperFunction,SMDPad,CuDef*%
%ADD25FreePoly0,45.000000*%
%TD*%
%TA.AperFunction,SMDPad,CuDef*%
%ADD26FreePoly1,45.000000*%
%TD*%
%TA.AperFunction,SMDPad,CuDef*%
%ADD27RoundRect,0.500000X-0.353553X-1.060660X1.060660X0.353553X0.353553X1.060660X-1.060660X-0.353553X0*%
%TD*%
%TA.AperFunction,SMDPad,CuDef*%
%ADD28RoundRect,0.237500X0.339173X0.154997X-0.216234X0.303818X-0.339173X-0.154997X0.216234X-0.303818X0*%
%TD*%
%TA.AperFunction,SMDPad,CuDef*%
%ADD29RoundRect,0.160000X-0.252791X0.026517X0.026517X-0.252791X0.252791X-0.026517X-0.026517X0.252791X0*%
%TD*%
%TA.AperFunction,SMDPad,CuDef*%
%ADD30RoundRect,0.500000X-1.000000X-0.500000X1.000000X-0.500000X1.000000X0.500000X-1.000000X0.500000X0*%
%TD*%
%TA.AperFunction,SMDPad,CuDef*%
%ADD31RoundRect,0.062500X-0.309359X0.220971X0.220971X-0.309359X0.309359X-0.220971X-0.220971X0.309359X0*%
%TD*%
%TA.AperFunction,SMDPad,CuDef*%
%ADD32RoundRect,0.062500X-0.309359X-0.220971X-0.220971X-0.309359X0.309359X0.220971X0.220971X0.309359X0*%
%TD*%
%TA.AperFunction,HeatsinkPad*%
%ADD33C,0.600000*%
%TD*%
%TA.AperFunction,SMDPad,CuDef*%
%ADD34RoundRect,0.250000X-1.060660X0.000000X0.000000X-1.060660X1.060660X0.000000X0.000000X1.060660X0*%
%TD*%
%TA.AperFunction,SMDPad,CuDef*%
%ADD35RoundRect,0.062500X0.062500X0.287500X-0.062500X0.287500X-0.062500X-0.287500X0.062500X-0.287500X0*%
%TD*%
%TA.AperFunction,SMDPad,CuDef*%
%ADD36R,0.400000X0.800000*%
%TD*%
%TA.AperFunction,SMDPad,CuDef*%
%ADD37R,0.500000X1.100000*%
%TD*%
%TA.AperFunction,SMDPad,CuDef*%
%ADD38RoundRect,0.212500X0.212500X-0.787500X0.212500X0.787500X-0.212500X0.787500X-0.212500X-0.787500X0*%
%TD*%
%TA.AperFunction,SMDPad,CuDef*%
%ADD39RoundRect,0.212500X0.787500X0.212500X-0.787500X0.212500X-0.787500X-0.212500X0.787500X-0.212500X0*%
%TD*%
%TA.AperFunction,SMDPad,CuDef*%
%ADD40RoundRect,0.212500X-0.212500X0.787500X-0.212500X-0.787500X0.212500X-0.787500X0.212500X0.787500X0*%
%TD*%
%TA.AperFunction,ViaPad*%
%ADD41C,0.600000*%
%TD*%
%TA.AperFunction,ViaPad*%
%ADD42C,1.500000*%
%TD*%
%TA.AperFunction,Conductor*%
%ADD43C,0.250000*%
%TD*%
%TA.AperFunction,Conductor*%
%ADD44C,0.635000*%
%TD*%
%TA.AperFunction,Conductor*%
%ADD45C,0.200000*%
%TD*%
%TA.AperFunction,Conductor*%
%ADD46C,0.400000*%
%TD*%
%TA.AperFunction,Conductor*%
%ADD47C,1.000000*%
%TD*%
G04 APERTURE END LIST*
D10*
%TA.AperFunction,Conductor*%
%TO.N,Net-(U3-VDD)*%
G36*
X161876729Y-107573212D02*
G01*
X161901729Y-107588212D01*
X161931729Y-107608212D01*
X161966729Y-107628212D01*
X162006729Y-107643212D01*
X162016729Y-107648212D01*
X162031729Y-107653212D01*
X162056729Y-107658212D01*
X162079024Y-107661489D01*
X162109024Y-107666489D01*
X161769000Y-108050000D01*
X161759000Y-108025000D01*
X161749024Y-107971489D01*
X161744024Y-107936489D01*
X161739024Y-107911489D01*
X161729024Y-107876489D01*
X161709024Y-107841489D01*
X161694024Y-107821489D01*
X161679024Y-107801489D01*
X161651729Y-107773212D01*
X161621729Y-107740000D01*
X161836729Y-107538212D01*
X161876729Y-107573212D01*
G37*
%TD.AperFunction*%
%TA.AperFunction,Conductor*%
%TO.N,VCC*%
G36*
X114300000Y-71755000D02*
G01*
X153035000Y-71755000D01*
X153035000Y-73660000D01*
X114300000Y-73660000D01*
X114300000Y-71755000D01*
G37*
%TD.AperFunction*%
D11*
X95686000Y-63539800D02*
X97533215Y-64049933D01*
X94873200Y-66537000D02*
X96720415Y-67047133D01*
X99297652Y-65334082D02*
X99807785Y-63486867D01*
D10*
%TA.AperFunction,Conductor*%
G36*
X115525976Y-72282581D02*
G01*
X114741575Y-74291533D01*
X98623866Y-67743631D01*
X99408266Y-65734679D01*
X115525976Y-72282581D01*
G37*
%TD.AperFunction*%
D11*
X95279600Y-65038400D02*
X97126815Y-65548533D01*
%TA.AperFunction,Conductor*%
%TO.N,GND*%
G36*
X124460000Y-89662000D02*
G01*
X127000000Y-89662000D01*
X127000000Y-93218000D01*
X124460000Y-93218000D01*
X124460000Y-89662000D01*
G37*
%TD.AperFunction*%
%TA.AperFunction,Conductor*%
G36*
X95250000Y-100965000D02*
G01*
X97790000Y-100965000D01*
X97790000Y-104775000D01*
X95250000Y-104775000D01*
X95250000Y-100965000D01*
G37*
%TD.AperFunction*%
D10*
%TA.AperFunction,Conductor*%
G36*
X161334000Y-107910000D02*
G01*
X161339000Y-107950000D01*
X161344000Y-107985000D01*
X161349000Y-108010000D01*
X161359000Y-108045000D01*
X161379000Y-108080000D01*
X161394000Y-108100000D01*
X161409000Y-108120000D01*
X161436295Y-108148277D01*
X161466295Y-108178277D01*
X161251295Y-108383277D01*
X161211295Y-108348277D01*
X161186295Y-108333277D01*
X161156295Y-108313277D01*
X161121295Y-108293277D01*
X161081295Y-108278277D01*
X161071295Y-108273277D01*
X161056295Y-108268277D01*
X161031295Y-108263277D01*
X161009000Y-108260000D01*
X160979000Y-108255000D01*
X161324000Y-107875000D01*
X161334000Y-107910000D01*
G37*
%TD.AperFunction*%
%TA.AperFunction,Conductor*%
%TO.N,VCC*%
G36*
X152273000Y-73025000D02*
G01*
X153035000Y-73025000D01*
X153035000Y-75057000D01*
X152273000Y-75057000D01*
X152273000Y-73025000D01*
G37*
%TD.AperFunction*%
%TA.AperFunction,Conductor*%
G36*
X113200000Y-71755000D02*
G01*
X115400000Y-71755000D01*
X115400000Y-78740000D01*
X113200000Y-78740000D01*
X113200000Y-71755000D01*
G37*
%TD.AperFunction*%
D11*
X94873200Y-66537000D02*
X95686000Y-63539800D01*
%TD*%
D12*
%TO.P,C21,1*%
%TO.N,GND*%
X121785000Y-121920000D03*
%TO.P,C21,2*%
%TO.N,VCC*%
X120650000Y-121920000D03*
%TD*%
D13*
%TO.P,C11,1*%
%TO.N,/E104-BT01/RST*%
X135255000Y-96774000D03*
%TO.P,C11,2*%
%TO.N,GND*%
X134452434Y-97576566D03*
%TD*%
D14*
%TO.P,TP7,1,1*%
%TO.N,GND*%
X114300000Y-81280000D03*
%TD*%
D15*
%TO.P,C12,1*%
%TO.N,/HC32L110_QFN20/VCAP*%
X132419318Y-100567718D03*
%TO.P,C12,2*%
%TO.N,GND*%
X131181882Y-99330282D03*
%TD*%
D16*
%TO.P,C13,1*%
%TO.N,/HC32L110_QFN20/VCAP*%
X133548083Y-99689883D03*
%TO.P,C13,2*%
%TO.N,GND*%
X132745517Y-98887317D03*
%TD*%
D17*
%TO.P,J2,1,Pin_1*%
%TO.N,GND*%
X95588600Y-79759400D03*
X92938600Y-79759400D03*
X95588600Y-81559400D03*
X92938600Y-81559400D03*
%TD*%
D14*
%TO.P,TP10,1,1*%
%TO.N,/HC32L110_QFN20/UART_TX*%
X114300000Y-86360000D03*
%TD*%
D18*
%TO.P,C19,1*%
%TO.N,Net-(D3-A)*%
X110629902Y-128915168D03*
%TO.P,C19,2*%
%TO.N,Net-(D1-K)*%
X111432468Y-129717734D03*
%TD*%
D19*
%TO.P,Q1,1,G*%
%TO.N,/E-Ink Driver/GDR*%
X122666000Y-125110000D03*
%TO.P,Q1,2,S*%
%TO.N,/E-Ink Driver/RESE*%
X122666000Y-123810000D03*
%TO.P,Q1,3,D*%
%TO.N,Net-(D3-A)*%
X120666000Y-124460000D03*
%TD*%
D20*
%TO.P,D1,1,K*%
%TO.N,Net-(D1-K)*%
X109780101Y-131370102D03*
%TO.P,D1,2,A*%
%TO.N,/E-Ink Driver/PREVGL*%
X111759999Y-133350000D03*
%TD*%
D18*
%TO.P,C18,1*%
%TO.N,/E-Ink Driver/PREVGL*%
X112528059Y-130849246D03*
%TO.P,C18,2*%
%TO.N,GND*%
X113330625Y-131651812D03*
%TD*%
D21*
%TO.P,R2,1*%
%TO.N,VCC*%
X154723500Y-106436000D03*
%TO.P,R2,2*%
%TO.N,/SCL*%
X155918500Y-106436000D03*
%TD*%
D22*
%TO.P,R4,1*%
%TO.N,VCC*%
X133533195Y-96699753D03*
%TO.P,R4,2*%
%TO.N,/E104-BT01/RST*%
X134378187Y-95854761D03*
%TD*%
D23*
%TO.P,J1,1,Pin_1*%
%TO.N,VCC*%
X98209479Y-66016234D03*
%TD*%
D24*
%TO.P,L1,1*%
%TO.N,VCC*%
X117475000Y-122565000D03*
%TO.P,L1,2*%
%TO.N,Net-(D3-A)*%
X117475000Y-126365000D03*
%TD*%
D21*
%TO.P,R1,1*%
%TO.N,VCC*%
X154723500Y-109484000D03*
%TO.P,R1,2*%
%TO.N,/SDA*%
X155918500Y-109484000D03*
%TD*%
D25*
%TO.P,JP2,1,A*%
%TO.N,/E104-BT01/RST*%
X135957511Y-95173463D03*
D26*
%TO.P,JP2,2,B*%
%TO.N,GND*%
X136982815Y-94148159D03*
%TD*%
D14*
%TO.P,TP9,1,1*%
%TO.N,/HC32L110_QFN20/UART_RX*%
X114300000Y-88900000D03*
%TD*%
D27*
%TO.P,URT,1*%
%TO.N,/E104-BT01/TX*%
X143065500Y-93662500D03*
%TD*%
D28*
%TO.P,C5,1*%
%TO.N,VCC*%
X99807785Y-63486867D03*
%TO.P,C5,2*%
%TO.N,GND*%
X98117415Y-63033933D03*
%TD*%
D16*
%TO.P,C20,1*%
%TO.N,/E-Ink Driver/PREVGH*%
X109510693Y-127795959D03*
%TO.P,C20,2*%
%TO.N,GND*%
X108708127Y-126993393D03*
%TD*%
D20*
%TO.P,D2,1,K*%
%TO.N,GND*%
X106363361Y-127953362D03*
%TO.P,D2,2,A*%
%TO.N,Net-(D1-K)*%
X108343259Y-129933260D03*
%TD*%
D29*
%TO.P,R6,1*%
%TO.N,GND*%
X128187008Y-126282008D03*
%TO.P,R6,2*%
%TO.N,/E-Ink Driver/GDR*%
X129032000Y-127127000D03*
%TD*%
D13*
%TO.P,C15,1*%
%TO.N,VCC*%
X134264400Y-102082600D03*
%TO.P,C15,2*%
%TO.N,GND*%
X133461834Y-102885166D03*
%TD*%
D28*
%TO.P,C1,1*%
%TO.N,VCC*%
X95686000Y-63539800D03*
%TO.P,C1,2*%
%TO.N,GND*%
X93995630Y-63086866D03*
%TD*%
D20*
%TO.P,D3,1,K*%
%TO.N,/E-Ink Driver/PREVGH*%
X111358505Y-126374958D03*
%TO.P,D3,2,A*%
%TO.N,Net-(D3-A)*%
X113338403Y-128354856D03*
%TD*%
D14*
%TO.P,TP8,1,1*%
%TO.N,/E104-BT01/RST*%
X114300000Y-83820000D03*
%TD*%
D29*
%TO.P,R3,1*%
%TO.N,GND*%
X126536008Y-126282008D03*
%TO.P,R3,2*%
%TO.N,/E-Ink Driver/RESE*%
X127381000Y-127127000D03*
%TD*%
D28*
%TO.P,C4,1*%
%TO.N,VCC*%
X94873200Y-66537000D03*
%TO.P,C4,2*%
%TO.N,GND*%
X93182830Y-66084066D03*
%TD*%
D30*
%TO.P,URT,1*%
%TO.N,/E104-BT01/RX*%
X144145000Y-97917000D03*
%TD*%
D28*
%TO.P,C2,1*%
%TO.N,VCC*%
X95279600Y-65038400D03*
%TO.P,C2,2*%
%TO.N,GND*%
X93589230Y-64585466D03*
%TD*%
D31*
%TO.P,U4,1,RESETB/P00*%
%TO.N,/E104-BT01/RST*%
X136953915Y-98429651D03*
%TO.P,U4,2,XTHI/AIN7/VCIN7/P01*%
%TO.N,/E104-BT01/WKP*%
X136600362Y-98783204D03*
%TO.P,U4,3,XTHO/AIN8/P02*%
%TO.N,/E104-BT01/DATA*%
X136246808Y-99136757D03*
%TO.P,U4,4,VSS*%
%TO.N,GND*%
X135893255Y-99490311D03*
%TO.P,U4,5,VCAP*%
%TO.N,/HC32L110_QFN20/VCAP*%
X135539702Y-99843864D03*
D32*
%TO.P,U4,6,VDD*%
%TO.N,VCC*%
X135539702Y-100816136D03*
%TO.P,U4,7,LVDIN1/P03*%
%TO.N,/HC32L110_QFN20/P0.3*%
X135893255Y-101169689D03*
%TO.P,U4,8,XTLO/P15*%
%TO.N,/E-Ink Driver/nSCK*%
X136246808Y-101523243D03*
%TO.P,U4,9,XTLI/P14*%
%TO.N,/E-Ink Driver/nCS*%
X136600362Y-101876796D03*
%TO.P,U4,10,LVDIN2/VCIN0/P23*%
%TO.N,/E-Ink Driver/BUSY*%
X136953915Y-102230349D03*
D31*
%TO.P,U4,11,P24/AIN0*%
%TO.N,/E-Ink Driver/nSDA*%
X137926187Y-102230349D03*
%TO.P,U4,12,P25/LVDIN3/VC1*%
%TO.N,/SDA*%
X138279740Y-101876796D03*
%TO.P,U4,13,P26/AIN1*%
%TO.N,/SCL*%
X138633294Y-101523243D03*
%TO.P,U4,14,P27/SWDIO*%
%TO.N,/E104-BT01/MOD*%
X138986847Y-101169689D03*
%TO.P,U4,15,P31/SWCLK*%
%TO.N,/E104-BT01/LINK*%
X139340400Y-100816136D03*
D32*
%TO.P,U4,16,P32/AIN2/VCIN2*%
%TO.N,/E104-BT01/DISC*%
X139340400Y-99843864D03*
%TO.P,U4,17,P33/AIN3/VCIN3*%
%TO.N,/E104-BT01/TX*%
X138986847Y-99490311D03*
%TO.P,U4,18,P34/AIN4/VCIN4*%
%TO.N,/E104-BT01/RX*%
X138633294Y-99136757D03*
%TO.P,U4,19,P35/AIN5/VCIN5*%
%TO.N,/HC32L110_QFN20/UART_TX*%
X138279740Y-98783204D03*
%TO.P,U4,20,P36/AIN6/VCIN6/AVREF*%
%TO.N,/HC32L110_QFN20/UART_RX*%
X137926187Y-98429651D03*
D33*
%TO.P,U4,21,PAD*%
%TO.N,GND*%
X137440051Y-99340051D03*
X136450102Y-100330000D03*
X137440051Y-100330000D03*
D34*
X137440051Y-100330000D03*
D33*
X138430000Y-100330000D03*
X137440051Y-101319949D03*
%TD*%
D35*
%TO.P,J3,1,Pin_1*%
%TO.N,unconnected-(J3-Pin_1-Pad1)*%
X128940000Y-129526000D03*
%TO.P,J3,2,Pin_2*%
%TO.N,/E-Ink Driver/GDR*%
X128440000Y-129526000D03*
%TO.P,J3,3,Pin_3*%
%TO.N,/E-Ink Driver/RESE*%
X127940000Y-129526000D03*
%TO.P,J3,4,Pin_4*%
%TO.N,unconnected-(J3-Pin_4-Pad4)*%
X127440000Y-129526000D03*
%TO.P,J3,5,Pin_5*%
%TO.N,Net-(J3-Pin_5)*%
X126940000Y-129526000D03*
%TO.P,J3,6,Pin_6*%
%TO.N,/E-Ink Driver/TSCL*%
X126440000Y-129526000D03*
%TO.P,J3,7,Pin_7*%
%TO.N,/E-Ink Driver/TSDA*%
X125940000Y-129526000D03*
%TO.P,J3,8,Pin_8*%
%TO.N,VCC*%
X125440000Y-129526000D03*
%TO.P,J3,9,Pin_9*%
%TO.N,/E-Ink Driver/BUSY*%
X124940000Y-129526000D03*
%TO.P,J3,10,Pin_10*%
%TO.N,/E-Ink Driver/RST*%
X124440000Y-129526000D03*
%TO.P,J3,11,Pin_11*%
%TO.N,GND*%
X123940000Y-129526000D03*
%TO.P,J3,12,Pin_12*%
%TO.N,/E-Ink Driver/nCS*%
X123440000Y-129526000D03*
%TO.P,J3,13,Pin_13*%
%TO.N,/E-Ink Driver/nSCK*%
X122940000Y-129526000D03*
%TO.P,J3,14,Pin_14*%
%TO.N,/E-Ink Driver/nSDA*%
X122440000Y-129526000D03*
%TO.P,J3,15,Pin_15*%
%TO.N,VCC*%
X121940000Y-129526000D03*
%TO.P,J3,16,Pin_16*%
X121440000Y-129526000D03*
%TO.P,J3,17,Pin_17*%
%TO.N,GND*%
X120940000Y-129526000D03*
%TO.P,J3,18,Pin_18*%
%TO.N,Net-(J3-Pin_18)*%
X120440000Y-129526000D03*
%TO.P,J3,19,Pin_19*%
%TO.N,/E-Ink Driver/VPP*%
X119940000Y-129526000D03*
%TO.P,J3,20,Pin_20*%
%TO.N,/E-Ink Driver/VSH*%
X119440000Y-129526000D03*
%TO.P,J3,21,Pin_21*%
%TO.N,/E-Ink Driver/PREVGH*%
X118940000Y-129526000D03*
%TO.P,J3,22,Pin_22*%
%TO.N,/E-Ink Driver/VSL*%
X118440000Y-129526000D03*
%TO.P,J3,23,Pin_23*%
%TO.N,/E-Ink Driver/PREVGL*%
X117940000Y-129526000D03*
%TO.P,J3,24,Pin_24*%
%TO.N,/E-Ink Driver/VCOM*%
X117440000Y-129526000D03*
D36*
%TO.P,J3,MP*%
%TO.N,GND*%
X129940000Y-132126000D03*
X116440000Y-132126000D03*
%TD*%
D22*
%TO.P,R5,1*%
%TO.N,/E-Ink Driver/nSCK*%
X133838508Y-106318492D03*
%TO.P,R5,2*%
X134683500Y-105473500D03*
%TD*%
D15*
%TO.P,C14,1*%
%TO.N,VCC*%
X131301718Y-101710718D03*
%TO.P,C14,2*%
%TO.N,GND*%
X130064282Y-100473282D03*
%TD*%
D37*
%TO.P,U3,1,NC*%
%TO.N,unconnected-(U3-NC-Pad1)*%
X162544000Y-106710000D03*
%TO.P,U3,2,VDD*%
%TO.N,Net-(U3-VDD)*%
X161544000Y-106710000D03*
%TO.P,U3,3,SCL*%
%TO.N,/SCL*%
X160544000Y-106710000D03*
%TO.P,U3,4,SDA*%
%TO.N,/SDA*%
X160544000Y-109210000D03*
%TO.P,U3,5,GND*%
%TO.N,GND*%
X161544000Y-109210000D03*
%TO.P,U3,6,NC*%
%TO.N,unconnected-(U3-NC-Pad6)*%
X162544000Y-109210000D03*
%TD*%
D38*
%TO.P,U2,1,GND*%
%TO.N,GND*%
X153915190Y-75480200D03*
%TO.P,U2,2,VCC*%
%TO.N,VCC*%
X152645190Y-75480200D03*
%TO.P,U2,3,P2.2*%
%TO.N,unconnected-(U2-P2.2-Pad3)*%
X151375190Y-75480200D03*
%TO.P,U2,4,P2.1*%
%TO.N,unconnected-(U2-P2.1-Pad4)*%
X150105190Y-75480200D03*
%TO.P,U2,5,P2.0*%
%TO.N,/E104-BT01/MOD*%
X148835190Y-75480200D03*
%TO.P,U2,6,P1.7*%
%TO.N,unconnected-(U2-P1.7-Pad6)*%
X147565190Y-75480200D03*
%TO.P,U2,7,P1.6*%
%TO.N,unconnected-(U2-P1.6-Pad7)*%
X146295190Y-75480200D03*
%TO.P,U2,8,SCL*%
%TO.N,unconnected-(U2-SCL-Pad8)*%
X145025190Y-75480200D03*
D39*
%TO.P,U2,9,SDA*%
%TO.N,unconnected-(U2-SDA-Pad9)*%
X142756810Y-78105000D03*
%TO.P,U2,10,P1.5*%
%TO.N,/E104-BT01/LINK*%
X142756810Y-79375000D03*
%TO.P,U2,11,P1.4*%
%TO.N,/E104-BT01/DATA*%
X142756810Y-80645000D03*
%TO.P,U2,12,P1.3*%
%TO.N,unconnected-(U2-P1.3-Pad12)*%
X142756810Y-81915000D03*
%TO.P,U2,13,P1.2*%
%TO.N,/E104-BT01/WKP*%
X142756810Y-83185000D03*
%TO.P,U2,14,P1.1*%
%TO.N,unconnected-(U2-P1.1-Pad14)*%
X142756810Y-84455000D03*
%TO.P,U2,15,P1.0*%
%TO.N,unconnected-(U2-P1.0-Pad15)*%
X142756810Y-85725000D03*
%TO.P,U2,16,P0.7*%
%TO.N,unconnected-(U2-P0.7-Pad16)*%
X142756810Y-86995000D03*
D40*
%TO.P,U2,17,P0.6*%
%TO.N,unconnected-(U2-P0.6-Pad17)*%
X145025190Y-89619800D03*
%TO.P,U2,18,P0.5*%
%TO.N,/E104-BT01/DISC*%
X146295190Y-89619800D03*
%TO.P,U2,19,P0.4*%
%TO.N,unconnected-(U2-P0.4-Pad19)*%
X147565190Y-89619800D03*
%TO.P,U2,20,P0.3*%
%TO.N,/E104-BT01/TX*%
X148835190Y-89619800D03*
%TO.P,U2,21,P0.2*%
%TO.N,/E104-BT01/RX*%
X150105190Y-89619800D03*
%TO.P,U2,22,P0.1*%
%TO.N,unconnected-(U2-P0.1-Pad22)*%
X151375190Y-89619800D03*
%TO.P,U2,23,P0.0*%
%TO.N,unconnected-(U2-P0.0-Pad23)*%
X152645190Y-89619800D03*
%TO.P,U2,24,RESET_N*%
%TO.N,/E104-BT01/RST*%
X153915190Y-89619800D03*
%TD*%
D21*
%TO.P,R7,1*%
%TO.N,VCC*%
X154723500Y-107960000D03*
%TO.P,R7,2*%
%TO.N,Net-(U3-VDD)*%
X155918500Y-107960000D03*
%TD*%
D30*
%TO.P,VCC,1*%
%TO.N,VCC*%
X120650000Y-101219000D03*
%TD*%
D14*
%TO.P,TP6,1,1*%
%TO.N,VCC*%
X114300000Y-78740000D03*
%TD*%
D41*
%TO.N,VCC*%
X153543000Y-106426000D03*
X134747000Y-102616000D03*
X132334000Y-96164400D03*
X120269000Y-123190000D03*
X121940000Y-131191000D03*
X131267200Y-100482400D03*
%TO.N,Net-(U3-VDD)*%
X162052000Y-107960000D03*
X156654500Y-107960000D03*
%TO.N,GND*%
X101600000Y-127000000D03*
X125412500Y-89852500D03*
X126047500Y-93027500D03*
D42*
X127000000Y-83820000D03*
D41*
X98107500Y-80962500D03*
X157480000Y-127000000D03*
X124777500Y-104457500D03*
X99060000Y-132080000D03*
X144780000Y-121920000D03*
X96202500Y-101282500D03*
X88900000Y-121920000D03*
X98107500Y-80327500D03*
X144780000Y-132080000D03*
X128270000Y-133667500D03*
X96520000Y-137160000D03*
X96520000Y-127000000D03*
X92938600Y-77724000D03*
X149860000Y-121920000D03*
D42*
X129540000Y-76200000D03*
D41*
X123507500Y-121602500D03*
X90551000Y-82296000D03*
X125412500Y-104457500D03*
X97155000Y-83566000D03*
D42*
X121920000Y-83820000D03*
X129540000Y-83820000D03*
D41*
X144780000Y-105410000D03*
X147320000Y-127000000D03*
X106680000Y-137160000D03*
X101600000Y-137160000D03*
X99060000Y-121920000D03*
X98107500Y-79057500D03*
X120523000Y-128397000D03*
X95567500Y-101282500D03*
X96202500Y-104457500D03*
D42*
X119380000Y-81280000D03*
D41*
X126682500Y-104457500D03*
D42*
X127000000Y-76200000D03*
D41*
X86360000Y-127000000D03*
X98107500Y-79692500D03*
X124777500Y-93027500D03*
D42*
X121920000Y-76200000D03*
D41*
X154940000Y-121920000D03*
X125412500Y-101282500D03*
X92202000Y-83566000D03*
X104140000Y-132080000D03*
X143510000Y-104140000D03*
D42*
X124460000Y-76200000D03*
D41*
X126047500Y-101282500D03*
X96837500Y-104457500D03*
X126047500Y-89852500D03*
X114935000Y-134937500D03*
X139700000Y-121920000D03*
X114935000Y-133032500D03*
X124333000Y-128574800D03*
X124777500Y-89852500D03*
X95567500Y-104457500D03*
X98107500Y-81597500D03*
X123507500Y-122872500D03*
X144145000Y-104775000D03*
X126034800Y-127686000D03*
X97472500Y-101282500D03*
X95588600Y-83566000D03*
X161036000Y-107960000D03*
X93980000Y-121920000D03*
X149860000Y-132080000D03*
X126047500Y-104457500D03*
X92202000Y-77724000D03*
X124777500Y-101282500D03*
X134620000Y-121920000D03*
X152400000Y-108585000D03*
X92964000Y-83566000D03*
D42*
X132080000Y-83820000D03*
D41*
X97472500Y-104457500D03*
X160020000Y-132080000D03*
X96837500Y-101282500D03*
X142240000Y-127000000D03*
D42*
X134620000Y-76200000D03*
X124460000Y-83820000D03*
D41*
X128270000Y-133032500D03*
X126682500Y-89852500D03*
X139700000Y-132080000D03*
X97155000Y-77724000D03*
X123507500Y-122237500D03*
X91440000Y-137160000D03*
X90551000Y-81534000D03*
D42*
X119380000Y-78740000D03*
D41*
X154940000Y-132080000D03*
X93726000Y-83566000D03*
X90551000Y-78994000D03*
X93980000Y-132080000D03*
X90551000Y-79756000D03*
X128270000Y-134937500D03*
X125412500Y-93027500D03*
X128270000Y-134302500D03*
X146050000Y-106680000D03*
X152400000Y-104140000D03*
X152400000Y-127000000D03*
X83820000Y-121920000D03*
X114935000Y-133667500D03*
X88900000Y-132080000D03*
X91440000Y-127000000D03*
X95631000Y-77724000D03*
X145415000Y-106045000D03*
X126682500Y-93027500D03*
X96393000Y-77724000D03*
X93726000Y-77724000D03*
X96393000Y-83566000D03*
D42*
X132080000Y-76200000D03*
D41*
X137160000Y-127000000D03*
X126682500Y-101282500D03*
X98107500Y-82232500D03*
D42*
X137160000Y-78740000D03*
D41*
X104140000Y-121920000D03*
X114935000Y-134302500D03*
%TO.N,/E-Ink Driver/VCOM*%
X116840000Y-131191000D03*
%TO.N,/E-Ink Driver/VSL*%
X118440000Y-130810000D03*
%TO.N,/E-Ink Driver/VSH*%
X119253000Y-130378200D03*
%TO.N,/E-Ink Driver/VPP*%
X119940000Y-131191000D03*
%TO.N,Net-(J3-Pin_18)*%
X120929400Y-130810000D03*
%TO.N,/E104-BT01/RST*%
X137668000Y-96883952D03*
X153517600Y-88036400D03*
%TO.N,Net-(J3-Pin_5)*%
X126940000Y-130378200D03*
%TO.N,/E-Ink Driver/PREVGH*%
X113420958Y-126374958D03*
X115062000Y-128016000D03*
%TO.N,/E-Ink Driver/BUSY*%
X136620250Y-103409750D03*
X124587000Y-125920500D03*
%TO.N,/E-Ink Driver/nSDA*%
X121285000Y-126365000D03*
X129540000Y-110109000D03*
X123317000Y-119507000D03*
%TO.N,/E-Ink Driver/RST*%
X124460000Y-130429000D03*
%TO.N,/E-Ink Driver/RESE*%
X127940000Y-127686000D03*
X127000000Y-123825000D03*
%TO.N,/E-Ink Driver/nSCK*%
X124079000Y-117348000D03*
X126790450Y-111398050D03*
X122555000Y-126365000D03*
%TO.N,/E-Ink Driver/GDR*%
X128524000Y-125095000D03*
X129032000Y-128079500D03*
%TO.N,/E-Ink Driver/nCS*%
X135966200Y-106070400D03*
X123825000Y-127381000D03*
%TO.N,/SDA*%
X151257000Y-110312200D03*
%TO.N,/SCL*%
X151511000Y-102285800D03*
%TO.N,/E104-BT01/TX*%
X140004800Y-98704400D03*
X148835190Y-91067810D03*
X144018000Y-94615000D03*
%TO.N,/E104-BT01/WKP*%
X141274800Y-83185000D03*
X136093200Y-97332800D03*
%TO.N,/E104-BT01/DATA*%
X141249400Y-80645000D03*
X135382000Y-98069400D03*
%TO.N,/E104-BT01/DISC*%
X140665200Y-99568000D03*
X146304000Y-93370400D03*
%TD*%
D43*
%TO.N,VCC*%
X131876800Y-102285800D02*
X131301718Y-101710718D01*
D44*
X113665000Y-116840000D02*
X113665000Y-107315000D01*
D43*
X120650000Y-102806500D02*
X120586500Y-102870000D01*
D44*
X117475000Y-119380000D02*
X117475000Y-122565000D01*
D45*
X121940000Y-131191000D02*
X125095000Y-131191000D01*
D44*
X113665000Y-116840000D02*
X114935000Y-118110000D01*
D46*
X121666000Y-129526000D02*
X121666000Y-130917000D01*
D44*
X114935000Y-118110000D02*
X116205000Y-118110000D01*
X111760000Y-105410000D02*
X111760000Y-102870000D01*
X113665000Y-107315000D02*
X111760000Y-105410000D01*
D47*
X113347500Y-78740000D02*
X110490000Y-81597500D01*
X111760000Y-102870000D02*
X130142436Y-102870000D01*
D43*
X133248400Y-101701600D02*
X132664200Y-102285800D01*
D11*
X154723500Y-107960000D02*
X155067000Y-107960000D01*
D45*
X125095000Y-131191000D02*
X125440000Y-130846000D01*
D11*
X152019000Y-72390000D02*
X152654000Y-73025000D01*
D43*
X134264400Y-102082600D02*
X133883400Y-101701600D01*
X153543000Y-106426000D02*
X154713500Y-106426000D01*
X131267200Y-101676200D02*
X131301718Y-101710718D01*
D11*
X116713000Y-72390000D02*
X152019000Y-72390000D01*
D43*
X133883400Y-101701600D02*
X133248400Y-101701600D01*
X133146800Y-96316800D02*
X132994400Y-96164400D01*
X120650000Y-101219000D02*
X120650000Y-102806500D01*
D11*
X120650000Y-121920000D02*
X118120000Y-121920000D01*
D43*
X135539702Y-100816136D02*
X135530864Y-100816136D01*
X121440000Y-129426000D02*
X121940000Y-129426000D01*
D47*
X114300000Y-78740000D02*
X113347500Y-78740000D01*
D43*
X131267200Y-100482400D02*
X131267200Y-101676200D01*
D47*
X110490000Y-81597500D02*
X110490000Y-101600000D01*
D43*
X135530864Y-100816136D02*
X134264400Y-102082600D01*
D46*
X121666000Y-130917000D02*
X121940000Y-131191000D01*
D45*
X125440000Y-130846000D02*
X125440000Y-129526000D01*
D11*
X118120000Y-121920000D02*
X117475000Y-122565000D01*
D43*
X154713500Y-106426000D02*
X154723500Y-106436000D01*
D11*
X120650000Y-122809000D02*
X120650000Y-121920000D01*
D43*
X133529753Y-96699753D02*
X133146800Y-96316800D01*
D44*
X116205000Y-118110000D02*
X117475000Y-119380000D01*
D43*
X132664200Y-102285800D02*
X131876800Y-102285800D01*
D11*
X154723500Y-109484000D02*
X154723500Y-106436000D01*
D43*
X134264400Y-102082600D02*
X134264400Y-102133400D01*
D47*
X110490000Y-101600000D02*
X111760000Y-102870000D01*
D43*
X133533195Y-96699753D02*
X133529753Y-96699753D01*
D11*
X120269000Y-123190000D02*
X120650000Y-122809000D01*
X114300000Y-74803000D02*
X116713000Y-72390000D01*
X152654000Y-75471390D02*
X152645190Y-75480200D01*
D43*
X134264400Y-102133400D02*
X134747000Y-102616000D01*
X132994400Y-96164400D02*
X132334000Y-96164400D01*
D11*
X152654000Y-73025000D02*
X152654000Y-75471390D01*
D47*
X130142436Y-102870000D02*
X131301718Y-101710718D01*
D11*
%TO.N,Net-(U3-VDD)*%
X156654500Y-107960000D02*
X155918500Y-107960000D01*
X155918500Y-107960000D02*
X155567000Y-107960000D01*
X161544000Y-107452000D02*
X162052000Y-107960000D01*
X161544000Y-106910000D02*
X161544000Y-107452000D01*
D43*
%TO.N,GND*%
X113411000Y-132524500D02*
X113411000Y-133032500D01*
X100330000Y-61346595D02*
X95891412Y-61346595D01*
X128270000Y-134302500D02*
X128270000Y-134937500D01*
X130983000Y-134302500D02*
X128270000Y-134302500D01*
X130064282Y-100473282D02*
X129255064Y-101282500D01*
X134452434Y-97576566D02*
X134056268Y-97576566D01*
X129940000Y-133667500D02*
X128270000Y-133667500D01*
X97472500Y-101282500D02*
X96837500Y-101282500D01*
X92938600Y-77724000D02*
X92938600Y-79759400D01*
X131889500Y-104457500D02*
X124777500Y-104457500D01*
X98107500Y-82232500D02*
X98107500Y-79057500D01*
X128460500Y-92392500D02*
X127825500Y-93027500D01*
X92938600Y-75209400D02*
X92938600Y-77724000D01*
X92938600Y-81559400D02*
X95588600Y-81559400D01*
X122682000Y-121602500D02*
X123507500Y-121602500D01*
X108331000Y-126619000D02*
X107697723Y-126619000D01*
X136991841Y-94148159D02*
X137668000Y-93472000D01*
X104141723Y-130175000D02*
X106363361Y-127953362D01*
X113411000Y-133667500D02*
X112014000Y-135064500D01*
X128270000Y-133032500D02*
X128270000Y-133667500D01*
X132732817Y-98887317D02*
X132397500Y-98552000D01*
X131181882Y-99355682D02*
X130064282Y-100473282D01*
X114935000Y-133667500D02*
X113411000Y-133667500D01*
X108708127Y-126993393D02*
X108705393Y-126993393D01*
X105791000Y-61341000D02*
X110363000Y-65913000D01*
X110363000Y-65913000D02*
X148463000Y-65913000D01*
X121785000Y-121920000D02*
X122682000Y-121920000D01*
D11*
X120940000Y-128814000D02*
X120523000Y-128397000D01*
D43*
X96837500Y-104457500D02*
X97472500Y-104457500D01*
X137668000Y-93472000D02*
X137668000Y-92964000D01*
X122682000Y-121920000D02*
X122682000Y-121602500D01*
X93182830Y-65566602D02*
X93182830Y-66084066D01*
X107697723Y-126619000D02*
X106363361Y-127953362D01*
X96202500Y-101282500D02*
X95567500Y-101282500D01*
X128270000Y-132126000D02*
X128270000Y-133032500D01*
X95588600Y-79759400D02*
X92938600Y-79759400D01*
X134452434Y-98049490D02*
X135893255Y-99490311D01*
X128270000Y-133667500D02*
X128270000Y-134302500D01*
X153915190Y-71365190D02*
X153915190Y-75480200D01*
X129940000Y-132126000D02*
X128270000Y-132126000D01*
D11*
X123940000Y-128967800D02*
X123940000Y-129526000D01*
X126034800Y-126783216D02*
X126034800Y-127686000D01*
D43*
X127825500Y-93027500D02*
X126682500Y-93027500D01*
X113411000Y-133032500D02*
X113411000Y-133667500D01*
X95588600Y-81559400D02*
X95588600Y-79759400D01*
X114935000Y-134937500D02*
X114935000Y-133032500D01*
X96202500Y-104457500D02*
X96837500Y-104457500D01*
X93182830Y-74965170D02*
X92938600Y-75209400D01*
X93345000Y-125095000D02*
X98425000Y-130175000D01*
X93182830Y-66084066D02*
X93182830Y-74965170D01*
X109031223Y-135064500D02*
X104141723Y-130175000D01*
X137096500Y-92392500D02*
X128460500Y-92392500D01*
X96837500Y-101282500D02*
X96202500Y-101282500D01*
X132745517Y-98887317D02*
X132732817Y-98887317D01*
X98040600Y-79759400D02*
X95588600Y-79759400D01*
D11*
X124333000Y-128574800D02*
X123940000Y-128967800D01*
D43*
X95588600Y-83566000D02*
X95588600Y-111103900D01*
X136450102Y-100047158D02*
X135893255Y-99490311D01*
X95588600Y-111103900D02*
X93345000Y-113347500D01*
X136982815Y-94148159D02*
X136991841Y-94148159D01*
D11*
X126536008Y-126282008D02*
X128187008Y-126282008D01*
D43*
X113804813Y-132130687D02*
X113411000Y-132524500D01*
X114935000Y-132126000D02*
X116440000Y-132126000D01*
X98425000Y-130175000D02*
X104141723Y-130175000D01*
X94678500Y-61849000D02*
X94388071Y-62139429D01*
X92938600Y-79759400D02*
X92938600Y-81559400D01*
X129255064Y-101282500D02*
X124968000Y-101282500D01*
X132397500Y-98552000D02*
X131960164Y-98552000D01*
X134452434Y-97576566D02*
X134452434Y-98049490D01*
X113804813Y-132126000D02*
X114935000Y-132126000D01*
X137668000Y-92964000D02*
X137096500Y-92392500D01*
X100509878Y-61341000D02*
X105791000Y-61341000D01*
X129940000Y-132126000D02*
X130983000Y-132126000D01*
X136450102Y-100330000D02*
X136450102Y-100047158D01*
X113804813Y-132126000D02*
X113804813Y-132130687D01*
X98107500Y-79692500D02*
X98040600Y-79759400D01*
X114935000Y-133032500D02*
X114935000Y-132126000D01*
X148463000Y-65913000D02*
X153915190Y-71365190D01*
X129940000Y-132126000D02*
X129940000Y-133667500D01*
X95567500Y-104457500D02*
X96202500Y-104457500D01*
X114935000Y-133032500D02*
X113411000Y-133032500D01*
X108705393Y-126993393D02*
X108331000Y-126619000D01*
D11*
X161544000Y-109010000D02*
X161544000Y-108468000D01*
D43*
X130983000Y-132126000D02*
X130983000Y-134302500D01*
X131960164Y-98552000D02*
X131181882Y-99330282D01*
X112014000Y-135064500D02*
X109031223Y-135064500D01*
X93345000Y-113347500D02*
X93345000Y-125095000D01*
X93589230Y-64068002D02*
X93589230Y-64585466D01*
X133461834Y-102885166D02*
X131889500Y-104457500D01*
X113330625Y-131651812D02*
X113804813Y-132126000D01*
D11*
X161544000Y-108468000D02*
X161036000Y-107960000D01*
X126536008Y-126282008D02*
X126034800Y-126783216D01*
D43*
X134056268Y-97576566D02*
X132745517Y-98887317D01*
X95588600Y-81559400D02*
X95588600Y-83566000D01*
D11*
X120940000Y-129526000D02*
X120940000Y-128814000D01*
D43*
X94388071Y-62139429D02*
G75*
G03*
X93995603Y-63086866I947429J-947471D01*
G01*
X95891412Y-61346595D02*
G75*
G03*
X94678496Y-61848996I-12J-1715305D01*
G01*
X98117415Y-63033933D02*
G75*
G02*
X98468371Y-62186599I1198285J33D01*
G01*
X98468386Y-62186614D02*
G75*
G02*
X100509878Y-61340983I2041514J-2041486D01*
G01*
X93589230Y-64585466D02*
G75*
G03*
X93182842Y-65566602I981170J-981134D01*
G01*
X93995630Y-63086866D02*
G75*
G03*
X93589242Y-64068002I981170J-981134D01*
G01*
D11*
%TO.N,/E-Ink Driver/VCOM*%
X116840000Y-130429000D02*
X117440000Y-129829000D01*
X117440000Y-129829000D02*
X117440000Y-129526000D01*
X116840000Y-131191000D02*
X116840000Y-130429000D01*
%TO.N,/E-Ink Driver/VSL*%
X118440000Y-129526000D02*
X118440000Y-130810000D01*
%TO.N,/E-Ink Driver/VSH*%
X119440000Y-129526000D02*
X119440000Y-130191200D01*
X119440000Y-130191200D02*
X119253000Y-130378200D01*
%TO.N,/E-Ink Driver/VPP*%
X119940000Y-129526000D02*
X119940000Y-131191000D01*
%TO.N,Net-(J3-Pin_18)*%
X120440000Y-130320600D02*
X120440000Y-129526000D01*
X120929400Y-130810000D02*
X120440000Y-130320600D01*
D43*
%TO.N,/E104-BT01/RST*%
X153915190Y-88433990D02*
X153517600Y-88036400D01*
X134378187Y-95854761D02*
X135276213Y-95854761D01*
X153915190Y-89619800D02*
X153915190Y-88433990D01*
X134361161Y-95854761D02*
X132486400Y-93980000D01*
X137668000Y-97715566D02*
X136953915Y-98429651D01*
X112572800Y-83820000D02*
X114300000Y-83820000D01*
X137668000Y-96883952D02*
X137668000Y-97715566D01*
X135255000Y-96774000D02*
X135255000Y-95875974D01*
X111734600Y-92811600D02*
X111734600Y-84658200D01*
X134378187Y-95854761D02*
X134361161Y-95854761D01*
X111734600Y-84658200D02*
X112572800Y-83820000D01*
X135276213Y-95854761D02*
X135957511Y-95173463D01*
X135255000Y-95875974D02*
X135957511Y-95173463D01*
X112903000Y-93980000D02*
X111734600Y-92811600D01*
X135957511Y-95173463D02*
X137668000Y-96883952D01*
X132486400Y-93980000D02*
X112903000Y-93980000D01*
%TO.N,/HC32L110_QFN20/VCAP*%
X135104366Y-100279200D02*
X135539702Y-99843864D01*
X132419318Y-100567718D02*
X132670248Y-100567718D01*
X133548083Y-99689883D02*
X134137400Y-100279200D01*
X132670248Y-100567718D02*
X133548083Y-99689883D01*
X134137400Y-100279200D02*
X135104366Y-100279200D01*
D11*
%TO.N,Net-(J3-Pin_5)*%
X126940000Y-129526000D02*
X126940000Y-130378200D01*
%TO.N,/E-Ink Driver/PREVGL*%
X111760000Y-131617306D02*
X112528059Y-130849246D01*
X112528059Y-130849246D02*
X114599305Y-128778000D01*
X111760000Y-133350000D02*
X111760000Y-131617306D01*
X117627096Y-128778000D02*
X117940000Y-129090904D01*
X117940000Y-129090904D02*
X117940000Y-129526000D01*
X114599305Y-128778000D02*
X117627096Y-128778000D01*
X111759999Y-133350000D02*
X111760000Y-133350000D01*
%TO.N,Net-(D3-A)*%
X117475000Y-126365000D02*
X115328259Y-126365000D01*
X120666000Y-125968000D02*
X120269000Y-126365000D01*
X115328259Y-126365000D02*
X113338403Y-128354856D01*
X120269000Y-126365000D02*
X117475000Y-126365000D01*
X111612073Y-128424577D02*
X112186810Y-128999313D01*
X111120493Y-128424577D02*
X111612073Y-128424577D01*
X120666000Y-124460000D02*
X120666000Y-125968000D01*
X110629902Y-128915168D02*
X111120493Y-128424577D01*
X112693947Y-128999313D02*
X113338404Y-128354856D01*
X112186810Y-128999313D02*
X112693947Y-128999313D01*
%TO.N,Net-(D1-K)*%
X109780101Y-131370101D02*
X111432468Y-129717734D01*
X108343260Y-129933260D02*
X109780101Y-131370101D01*
%TO.N,/E-Ink Driver/PREVGH*%
X115062000Y-128016000D02*
X115316000Y-128270000D01*
X111358505Y-126374958D02*
X113420958Y-126374958D01*
X111358505Y-126374957D02*
X111356383Y-126377079D01*
X118364000Y-128270000D02*
X118940000Y-128846000D01*
X110929574Y-126377079D02*
X109510693Y-127795959D01*
X115316000Y-128270000D02*
X118364000Y-128270000D01*
X111356383Y-126377079D02*
X110929574Y-126377079D01*
X118940000Y-128846000D02*
X118940000Y-129526000D01*
D43*
%TO.N,/E-Ink Driver/BUSY*%
X136620250Y-102564014D02*
X136953915Y-102230349D01*
D45*
X124587000Y-125920500D02*
X124587000Y-127310000D01*
D43*
X136620250Y-103409750D02*
X136620250Y-102564014D01*
D45*
X124587000Y-127310000D02*
X124940000Y-127663000D01*
X124940000Y-127663000D02*
X124940000Y-129526000D01*
D43*
%TO.N,/E-Ink Driver/nSDA*%
X139001500Y-103305662D02*
X137926187Y-102230349D01*
D45*
X122440000Y-127520000D02*
X122440000Y-129526000D01*
D43*
X134112000Y-107569000D02*
X132715000Y-108966000D01*
X128905000Y-113919000D02*
X125412500Y-117411500D01*
X139001500Y-104457500D02*
X139001500Y-103305662D01*
X130683000Y-108966000D02*
X129540000Y-110109000D01*
D45*
X121285000Y-126365000D02*
X122440000Y-127520000D01*
D43*
X139001500Y-105473500D02*
X136906000Y-107569000D01*
X129540000Y-113284000D02*
X128905000Y-113919000D01*
X136906000Y-107569000D02*
X134112000Y-107569000D01*
X129540000Y-110109000D02*
X129540000Y-113284000D01*
X139001500Y-104457500D02*
X139001500Y-105473500D01*
X132715000Y-108966000D02*
X130683000Y-108966000D01*
X123317000Y-119507000D02*
X125412500Y-117411500D01*
%TO.N,/E-Ink Driver/RST*%
X124460000Y-129546000D02*
X124440000Y-129526000D01*
X124460000Y-130429000D02*
X124460000Y-129546000D01*
D11*
%TO.N,/E-Ink Driver/RESE*%
X126985000Y-123810000D02*
X127000000Y-123825000D01*
X127381000Y-127127000D02*
X127940000Y-127686000D01*
X122666000Y-123810000D02*
X126985000Y-123810000D01*
X127940000Y-127686000D02*
X127940000Y-129526000D01*
D43*
%TO.N,/E-Ink Driver/nSCK*%
X136246808Y-101523243D02*
X136246157Y-101523243D01*
X136246157Y-101523243D02*
X135509000Y-102260400D01*
X126790450Y-111398050D02*
X124079000Y-114109500D01*
X133838508Y-106318492D02*
X132588000Y-107569000D01*
X124079000Y-114109500D02*
X124079000Y-117348000D01*
X130619500Y-107569000D02*
X130460750Y-107727750D01*
X130460750Y-107727750D02*
X126790450Y-111398050D01*
D45*
X122940000Y-126750000D02*
X122940000Y-129526000D01*
X122555000Y-126365000D02*
X122940000Y-126750000D01*
D43*
X135509000Y-102260400D02*
X135509000Y-104648000D01*
X132588000Y-107569000D02*
X130619500Y-107569000D01*
X135509000Y-104648000D02*
X134683500Y-105473500D01*
D11*
%TO.N,/E-Ink Driver/GDR*%
X128509000Y-125110000D02*
X128524000Y-125095000D01*
X129032000Y-127127000D02*
X129032000Y-128079500D01*
X129032000Y-128079500D02*
X128440000Y-128671500D01*
X128440000Y-128671500D02*
X128440000Y-129526000D01*
X122666000Y-125110000D02*
X128509000Y-125110000D01*
D43*
%TO.N,/E-Ink Driver/nCS*%
X135959000Y-106063200D02*
X135966200Y-106070400D01*
X136578404Y-101876796D02*
X136042400Y-102412800D01*
X135959000Y-102496200D02*
X135959000Y-104698800D01*
X136600362Y-101876796D02*
X136578404Y-101876796D01*
D45*
X123444000Y-129522000D02*
X123440000Y-129526000D01*
D43*
X136042400Y-102412800D02*
X135959000Y-102496200D01*
D45*
X123444000Y-127762000D02*
X123444000Y-129522000D01*
X123825000Y-127381000D02*
X123444000Y-127762000D01*
D43*
X135959000Y-104698800D02*
X135959000Y-106063200D01*
%TO.N,/SDA*%
X155090300Y-110312200D02*
X155918500Y-109484000D01*
D11*
X156718000Y-109357000D02*
X157486384Y-108588616D01*
D43*
X138279740Y-101881540D02*
X138279740Y-101876796D01*
X147193000Y-110312200D02*
X151257000Y-110312200D01*
D11*
X160292977Y-108603977D02*
X160274000Y-108585000D01*
D43*
X151257000Y-110312200D02*
X155090300Y-110312200D01*
X146710400Y-110312200D02*
X138279740Y-101881540D01*
D11*
X159378325Y-108213999D02*
X158390789Y-108213999D01*
X155918500Y-109484000D02*
X156411395Y-109484000D01*
D43*
X147193000Y-110312200D02*
X146710400Y-110312200D01*
D11*
X160274000Y-108585000D02*
G75*
G03*
X159378325Y-108213989I-895700J-895700D01*
G01*
X160544000Y-109210000D02*
G75*
G03*
X160292968Y-108603986I-857000J0D01*
G01*
X156411395Y-109484000D02*
G75*
G03*
X156718002Y-109357002I5J433600D01*
G01*
X157486384Y-108588616D02*
G75*
G02*
X158390789Y-108213985I904416J-904384D01*
G01*
%TO.N,/SCL*%
X159330043Y-107706000D02*
X158390790Y-107706000D01*
X156718000Y-106563000D02*
X157486384Y-107331384D01*
X160307119Y-107281881D02*
X160274000Y-107315000D01*
X155918500Y-106436000D02*
X156411395Y-106436000D01*
D43*
X155918500Y-105220100D02*
X152984200Y-102285800D01*
X139395851Y-102285800D02*
X138633294Y-101523243D01*
X152984200Y-102285800D02*
X139395851Y-102285800D01*
X155918500Y-106436000D02*
X155918500Y-105220100D01*
D11*
X156411395Y-106436000D02*
G75*
G02*
X156718002Y-106562998I5J-433600D01*
G01*
X160544000Y-106710000D02*
G75*
G02*
X160307127Y-107281889I-808800J0D01*
G01*
X160274000Y-107315000D02*
G75*
G02*
X159330043Y-107706047I-944000J943900D01*
G01*
X157486384Y-107331384D02*
G75*
G03*
X158390789Y-107706015I904416J904384D01*
G01*
D43*
%TO.N,/HC32L110_QFN20/UART_RX*%
X137926187Y-98429651D02*
X137926187Y-98420813D01*
X137926187Y-98420813D02*
X139152830Y-97194170D01*
X139152830Y-92010430D02*
X136042400Y-88900000D01*
X139152830Y-97194170D02*
X139152830Y-92010430D01*
X136042400Y-88900000D02*
X114300000Y-88900000D01*
%TO.N,/HC32L110_QFN20/UART_TX*%
X139827000Y-97235944D02*
X139827000Y-91719400D01*
X138279740Y-98783204D02*
X138279740Y-98778460D01*
X139827000Y-91719400D02*
X134467600Y-86360000D01*
X138279740Y-98783204D02*
X139827000Y-97235944D01*
X134467600Y-86360000D02*
X114300000Y-86360000D01*
%TO.N,/E104-BT01/TX*%
X138986847Y-99490311D02*
X138990289Y-99490311D01*
X139776200Y-98704400D02*
X140004800Y-98704400D01*
X148835190Y-91067810D02*
X148835190Y-89619800D01*
X138990289Y-99490311D02*
X139522200Y-98958400D01*
X143065500Y-93662500D02*
X144018000Y-94615000D01*
X139522200Y-98958400D02*
X139776200Y-98704400D01*
%TO.N,/E104-BT01/WKP*%
X141274800Y-83185000D02*
X142756810Y-83185000D01*
X136600362Y-98779762D02*
X136600362Y-98783204D01*
X136093200Y-98272600D02*
X136600362Y-98779762D01*
X136093200Y-97332800D02*
X136093200Y-98272600D01*
%TO.N,/E104-BT01/RX*%
X139420600Y-98348800D02*
X141249400Y-96520000D01*
X146177000Y-96520000D02*
X150114000Y-92583000D01*
X138633294Y-99136757D02*
X139420600Y-98349451D01*
X150114000Y-92583000D02*
X150105190Y-92574190D01*
X141249400Y-96520000D02*
X146177000Y-96520000D01*
X150105190Y-92574190D02*
X150105190Y-89619800D01*
X139420600Y-98349451D02*
X139420600Y-98348800D01*
X144145000Y-97917000D02*
X144145000Y-96520000D01*
%TO.N,/E104-BT01/DATA*%
X135382000Y-98069400D02*
X135382000Y-98271949D01*
X135382000Y-98271949D02*
X136246808Y-99136757D01*
X141249400Y-80645000D02*
X142756810Y-80645000D01*
%TO.N,/E104-BT01/LINK*%
X154940000Y-90678000D02*
X154940000Y-80289400D01*
X154940000Y-80289400D02*
X154025600Y-79375000D01*
X144475200Y-101142800D02*
X154940000Y-90678000D01*
X139340400Y-100816136D02*
X139347936Y-100816136D01*
X139347936Y-100816136D02*
X139674600Y-101142800D01*
X139674600Y-101142800D02*
X144475200Y-101142800D01*
X154025600Y-79375000D02*
X142756810Y-79375000D01*
%TO.N,/E104-BT01/MOD*%
X144703800Y-101701600D02*
X155498800Y-90906600D01*
X138990289Y-101169689D02*
X139522200Y-101701600D01*
X153746200Y-78308200D02*
X149555200Y-78308200D01*
X155498800Y-80060800D02*
X153746200Y-78308200D01*
X138986847Y-101169689D02*
X138990289Y-101169689D01*
X148835190Y-77588190D02*
X148835190Y-75480200D01*
X149555200Y-78308200D02*
X148835190Y-77588190D01*
X139522200Y-101701600D02*
X144703800Y-101701600D01*
X155498800Y-90906600D02*
X155498800Y-80060800D01*
%TO.N,/E104-BT01/DISC*%
X146295190Y-89619800D02*
X146295190Y-93361590D01*
X139623336Y-100126800D02*
X139340400Y-99843864D01*
X140106400Y-100126800D02*
X139623336Y-100126800D01*
X140665200Y-99568000D02*
X140106400Y-100126800D01*
X146295190Y-93361590D02*
X146304000Y-93370400D01*
D11*
%TO.N,unconnected-(U3-NC-Pad1)*%
X162544000Y-106309592D02*
X162544592Y-106309000D01*
X162544000Y-106910000D02*
X162544000Y-106309592D01*
%TO.N,unconnected-(U3-NC-Pad6)*%
X162544591Y-109610999D02*
X162544591Y-109013200D01*
%TD*%
%TA.AperFunction,Conductor*%
%TO.N,GND*%
G36*
X156787121Y-51455002D02*
G01*
X156833614Y-51508658D01*
X156845000Y-51561000D01*
X156845000Y-69388245D01*
X156837266Y-69427132D01*
X156838024Y-69427335D01*
X156835887Y-69435310D01*
X156835886Y-69435312D01*
X156812000Y-69524456D01*
X156812000Y-69616744D01*
X156835886Y-69705888D01*
X156838024Y-69713866D01*
X156837263Y-69714069D01*
X156845000Y-69752953D01*
X156845000Y-95193450D01*
X156829227Y-95218483D01*
X156764912Y-95248552D01*
X156745866Y-95250000D01*
X152535100Y-95250000D01*
X152466979Y-95229998D01*
X152420486Y-95176342D01*
X152410382Y-95106068D01*
X152439876Y-95041488D01*
X152446005Y-95034905D01*
X156089514Y-91391396D01*
X156089514Y-91391395D01*
X156089519Y-91391391D01*
X156172747Y-91266832D01*
X156230075Y-91128430D01*
X156259300Y-90981503D01*
X156259300Y-90831698D01*
X156259300Y-80141936D01*
X156259301Y-80141915D01*
X156259301Y-79985899D01*
X156259300Y-79985895D01*
X156230075Y-79838970D01*
X156172747Y-79700568D01*
X156146463Y-79661232D01*
X156146463Y-79661231D01*
X156146461Y-79661230D01*
X156089519Y-79576009D01*
X155983591Y-79470081D01*
X155983590Y-79470080D01*
X155980429Y-79466919D01*
X155980414Y-79466905D01*
X154341329Y-77827820D01*
X154341309Y-77827798D01*
X154230996Y-77717485D01*
X154230990Y-77717480D01*
X154149598Y-77663096D01*
X154106432Y-77634253D01*
X153968030Y-77576925D01*
X153821106Y-77547700D01*
X153821103Y-77547700D01*
X149922399Y-77547700D01*
X149854278Y-77527698D01*
X149833304Y-77510795D01*
X149643043Y-77320534D01*
X149609017Y-77258222D01*
X149614082Y-77187407D01*
X149656629Y-77130571D01*
X149723149Y-77105760D01*
X149762548Y-77109163D01*
X149777535Y-77112891D01*
X149792328Y-77113894D01*
X149818949Y-77115700D01*
X149818958Y-77115700D01*
X150391431Y-77115700D01*
X150416275Y-77114014D01*
X150432845Y-77112891D01*
X150611844Y-77068376D01*
X150684207Y-77032486D01*
X150754121Y-77020140D01*
X150796172Y-77032486D01*
X150868536Y-77068376D01*
X151047535Y-77112891D01*
X151057890Y-77113593D01*
X151088949Y-77115700D01*
X151088958Y-77115700D01*
X151661431Y-77115700D01*
X151686275Y-77114014D01*
X151702845Y-77112891D01*
X151881844Y-77068376D01*
X151954207Y-77032486D01*
X152024121Y-77020140D01*
X152066172Y-77032486D01*
X152138536Y-77068376D01*
X152317535Y-77112891D01*
X152327890Y-77113593D01*
X152358949Y-77115700D01*
X152358958Y-77115700D01*
X152931431Y-77115700D01*
X152956275Y-77114014D01*
X152972845Y-77112891D01*
X153151844Y-77068376D01*
X153317088Y-76986423D01*
X153460852Y-76870862D01*
X153533544Y-76780428D01*
X153591812Y-76739866D01*
X153643526Y-76733921D01*
X153646489Y-76734199D01*
X153646507Y-76734200D01*
X153765190Y-76734200D01*
X154065190Y-76734200D01*
X154183873Y-76734200D01*
X154183875Y-76734199D01*
X154215398Y-76731243D01*
X154215402Y-76731242D01*
X154348131Y-76684798D01*
X154348133Y-76684798D01*
X154461281Y-76601291D01*
X154544788Y-76488143D01*
X154544788Y-76488141D01*
X154591232Y-76355412D01*
X154591233Y-76355408D01*
X154594189Y-76323885D01*
X154594190Y-76323882D01*
X154594190Y-75630200D01*
X154065190Y-75630200D01*
X154065190Y-76734200D01*
X153765190Y-76734200D01*
X153765190Y-75330200D01*
X154065190Y-75330200D01*
X154594190Y-75330200D01*
X154594190Y-74636517D01*
X154594189Y-74636514D01*
X154591233Y-74604991D01*
X154591232Y-74604987D01*
X154544788Y-74472258D01*
X154544788Y-74472256D01*
X154461281Y-74359108D01*
X154348132Y-74275601D01*
X154215402Y-74229157D01*
X154215398Y-74229156D01*
X154183875Y-74226200D01*
X154065190Y-74226200D01*
X154065190Y-75330200D01*
X153765190Y-75330200D01*
X153765190Y-74226199D01*
X153752176Y-74213185D01*
X153728379Y-74206198D01*
X153681886Y-74152542D01*
X153670500Y-74100200D01*
X153670500Y-71692410D01*
X153670499Y-71692406D01*
X153646078Y-71569631D01*
X153598173Y-71453978D01*
X153528625Y-71349892D01*
X153440108Y-71261375D01*
X153336022Y-71191827D01*
X153220369Y-71143922D01*
X153097593Y-71119500D01*
X153097591Y-71119500D01*
X115462591Y-71119500D01*
X114389394Y-71119500D01*
X114341970Y-71110235D01*
X100892542Y-65646335D01*
X100836959Y-65602164D01*
X100814080Y-65534955D01*
X100818258Y-65496993D01*
X100970338Y-64929427D01*
X100978572Y-64887543D01*
X100981997Y-64697905D01*
X100944575Y-64511965D01*
X100868056Y-64338417D01*
X100830550Y-64287186D01*
X100806452Y-64220408D01*
X100821981Y-64151741D01*
X100833797Y-64130396D01*
X100847624Y-64089964D01*
X101009859Y-63484490D01*
X101018102Y-63442560D01*
X101021531Y-63252703D01*
X100984065Y-63066547D01*
X100907456Y-62892796D01*
X100871249Y-62843338D01*
X100795292Y-62739581D01*
X100795287Y-62739575D01*
X100652803Y-62614049D01*
X100547048Y-62555513D01*
X100486669Y-62522092D01*
X100486665Y-62522090D01*
X100486664Y-62522090D01*
X100446251Y-62508270D01*
X100446231Y-62508264D01*
X99744174Y-62320148D01*
X99744165Y-62320146D01*
X99702247Y-62311905D01*
X99702236Y-62311904D01*
X99512391Y-62308476D01*
X99512379Y-62308477D01*
X99326227Y-62345942D01*
X99152477Y-62422550D01*
X99152472Y-62422553D01*
X98999262Y-62534714D01*
X98994213Y-62539327D01*
X98993198Y-62538216D01*
X98939848Y-62571869D01*
X98868854Y-62571269D01*
X98809454Y-62532382D01*
X98806329Y-62528564D01*
X98799252Y-62519565D01*
X98684122Y-62437581D01*
X98684117Y-62437578D01*
X98629207Y-62416351D01*
X98629202Y-62416349D01*
X98450982Y-62368594D01*
X98292388Y-62960477D01*
X98292388Y-62960479D01*
X98256092Y-63095937D01*
X98219140Y-63156560D01*
X98155279Y-63187581D01*
X98101774Y-63185033D01*
X97326135Y-62977201D01*
X97312497Y-63028103D01*
X97275545Y-63088726D01*
X97211685Y-63119747D01*
X97188516Y-63121471D01*
X97133287Y-63120474D01*
X97102020Y-63115949D01*
X96884897Y-63055988D01*
X96824559Y-63018574D01*
X96803148Y-62985369D01*
X96785671Y-62945729D01*
X96785670Y-62945727D01*
X96785668Y-62945724D01*
X96673508Y-62792514D01*
X96673502Y-62792508D01*
X96554220Y-62687423D01*
X97403780Y-62687423D01*
X98011348Y-62850221D01*
X98161203Y-62290949D01*
X97982984Y-62243196D01*
X97982978Y-62243195D01*
X97924806Y-62234123D01*
X97924805Y-62234123D01*
X97784117Y-62247557D01*
X97784108Y-62247559D01*
X97652909Y-62300083D01*
X97652902Y-62300087D01*
X97541808Y-62387453D01*
X97459826Y-62502580D01*
X97438596Y-62557495D01*
X97438594Y-62557501D01*
X97403780Y-62687423D01*
X96554220Y-62687423D01*
X96531018Y-62666982D01*
X96425403Y-62608523D01*
X96364884Y-62575025D01*
X96364880Y-62575023D01*
X96364879Y-62575023D01*
X96324466Y-62561203D01*
X96324446Y-62561197D01*
X95622389Y-62373081D01*
X95622380Y-62373079D01*
X95580462Y-62364838D01*
X95580451Y-62364837D01*
X95390606Y-62361409D01*
X95390594Y-62361410D01*
X95204442Y-62398875D01*
X95030692Y-62475483D01*
X95030687Y-62475486D01*
X94877477Y-62587647D01*
X94872428Y-62592260D01*
X94871413Y-62591149D01*
X94818063Y-62624802D01*
X94747069Y-62624202D01*
X94687669Y-62585315D01*
X94684544Y-62581497D01*
X94677467Y-62572498D01*
X94562337Y-62490514D01*
X94562332Y-62490511D01*
X94507422Y-62469284D01*
X94507417Y-62469282D01*
X94329197Y-62421527D01*
X94170603Y-63013410D01*
X94170603Y-63013412D01*
X93940830Y-63870934D01*
X93940814Y-63870960D01*
X93938615Y-63879172D01*
X93929970Y-63893359D01*
X93764203Y-64512010D01*
X93764203Y-64512012D01*
X93534430Y-65369534D01*
X93534414Y-65369560D01*
X93532215Y-65377772D01*
X93523570Y-65391959D01*
X93357803Y-66010610D01*
X93357803Y-66010612D01*
X93139039Y-66827048D01*
X93317260Y-66874802D01*
X93317266Y-66874803D01*
X93375438Y-66883875D01*
X93375439Y-66883875D01*
X93516127Y-66870441D01*
X93516133Y-66870440D01*
X93526759Y-66866186D01*
X93597433Y-66859434D01*
X93660539Y-66891964D01*
X93694568Y-66950899D01*
X93694856Y-66950808D01*
X93695269Y-66952112D01*
X93696040Y-66953447D01*
X93696852Y-66957106D01*
X93696919Y-66957318D01*
X93773528Y-67131070D01*
X93885692Y-67284285D01*
X93885697Y-67284291D01*
X94028181Y-67409817D01*
X94098590Y-67448789D01*
X94194316Y-67501775D01*
X94234748Y-67515601D01*
X94580116Y-67608142D01*
X94936810Y-67703718D01*
X94936819Y-67703720D01*
X94978737Y-67711961D01*
X94978740Y-67711961D01*
X94978744Y-67711962D01*
X95037161Y-67713016D01*
X95168593Y-67715390D01*
X95168594Y-67715389D01*
X95168602Y-67715390D01*
X95354758Y-67677924D01*
X95401440Y-67657340D01*
X95471839Y-67648159D01*
X95536028Y-67678496D01*
X95553936Y-67698195D01*
X95662940Y-67847092D01*
X95662942Y-67847094D01*
X95662944Y-67847096D01*
X95805255Y-67972469D01*
X95805256Y-67972470D01*
X95805258Y-67972471D01*
X95971201Y-68064324D01*
X96011589Y-68078136D01*
X99081956Y-68900837D01*
X99103800Y-68905131D01*
X99123833Y-68909070D01*
X99123836Y-68909070D01*
X99123840Y-68909071D01*
X99182189Y-68910124D01*
X99313468Y-68912495D01*
X99313469Y-68912494D01*
X99313477Y-68912495D01*
X99499418Y-68875073D01*
X99550229Y-68852669D01*
X99620626Y-68843488D01*
X99648481Y-68851224D01*
X112485924Y-74066500D01*
X112541507Y-74110671D01*
X112564386Y-74177880D01*
X112564500Y-74183235D01*
X112564500Y-77864970D01*
X112544498Y-77933091D01*
X112527594Y-77954065D01*
X109750272Y-80731389D01*
X109687080Y-80794580D01*
X109623889Y-80857771D01*
X109518835Y-81002364D01*
X109437237Y-81162510D01*
X109436161Y-81166326D01*
X109382460Y-81331598D01*
X109382459Y-81331601D01*
X109382459Y-81331603D01*
X109380489Y-81344041D01*
X109362183Y-81459629D01*
X109362019Y-81460662D01*
X109354500Y-81508134D01*
X109354500Y-101510634D01*
X109354500Y-101689366D01*
X109371275Y-101795284D01*
X109382459Y-101865899D01*
X109418434Y-101976615D01*
X109437691Y-102035881D01*
X109518833Y-102195132D01*
X109576765Y-102274868D01*
X109623889Y-102339728D01*
X109623891Y-102339730D01*
X109623894Y-102339734D01*
X110770095Y-103485934D01*
X110804120Y-103548246D01*
X110807000Y-103575029D01*
X110807000Y-105503864D01*
X110827093Y-105604879D01*
X110843623Y-105687980D01*
X110915462Y-105861415D01*
X110954005Y-105919098D01*
X111019756Y-106017501D01*
X111019761Y-106017507D01*
X112675095Y-107672840D01*
X112709120Y-107735152D01*
X112712000Y-107761935D01*
X112712000Y-113890696D01*
X112691998Y-113958817D01*
X112638342Y-114005310D01*
X112568068Y-114015414D01*
X112561418Y-114014275D01*
X112487142Y-113999500D01*
X112487139Y-113999500D01*
X112434562Y-113999500D01*
X104822595Y-113999500D01*
X104775000Y-113999500D01*
X104682861Y-113999500D01*
X104682857Y-113999500D01*
X104502124Y-114035451D01*
X104502121Y-114035452D01*
X104331875Y-114105971D01*
X104178658Y-114208347D01*
X104178651Y-114208352D01*
X104048352Y-114338651D01*
X104048347Y-114338658D01*
X103945971Y-114491875D01*
X103875452Y-114662121D01*
X103875451Y-114662124D01*
X103839500Y-114842857D01*
X103839500Y-115027142D01*
X103863941Y-115150012D01*
X103875451Y-115207875D01*
X103945971Y-115378125D01*
X104048350Y-115531346D01*
X104178654Y-115661650D01*
X104331875Y-115764029D01*
X104502125Y-115834549D01*
X104682861Y-115870500D01*
X112487139Y-115870500D01*
X112561420Y-115855724D01*
X112632131Y-115862051D01*
X112688199Y-115905605D01*
X112711819Y-115972557D01*
X112712000Y-115979303D01*
X112712000Y-116933864D01*
X112748623Y-117117980D01*
X112820462Y-117291415D01*
X112872808Y-117369756D01*
X112924756Y-117447501D01*
X112924761Y-117447507D01*
X114194757Y-118717502D01*
X114327498Y-118850243D01*
X114483585Y-118954538D01*
X114657020Y-119026377D01*
X114841138Y-119063000D01*
X115758065Y-119063000D01*
X115826186Y-119083002D01*
X115847160Y-119099905D01*
X116485095Y-119737840D01*
X116519121Y-119800152D01*
X116522000Y-119826935D01*
X116522000Y-120703500D01*
X116501998Y-120771621D01*
X116448342Y-120818114D01*
X116396000Y-120829500D01*
X115713020Y-120829500D01*
X115635716Y-120835583D01*
X115455918Y-120883760D01*
X115290063Y-120968267D01*
X115290062Y-120968267D01*
X115145407Y-121085407D01*
X115028267Y-121230062D01*
X115028267Y-121230063D01*
X114943760Y-121395918D01*
X114895585Y-121575709D01*
X114895584Y-121575714D01*
X114890758Y-121637038D01*
X114889500Y-121653022D01*
X114889500Y-123476979D01*
X114895583Y-123554283D01*
X114925240Y-123664965D01*
X114943761Y-123734083D01*
X115021775Y-123887196D01*
X115028267Y-123899936D01*
X115028267Y-123899937D01*
X115145407Y-124044592D01*
X115290062Y-124161732D01*
X115290063Y-124161732D01*
X115290065Y-124161734D01*
X115455917Y-124246239D01*
X115635714Y-124294416D01*
X115713019Y-124300500D01*
X119236980Y-124300499D01*
X119314286Y-124294416D01*
X119494083Y-124246239D01*
X119497294Y-124244603D01*
X119499353Y-124244216D01*
X119500245Y-124243874D01*
X119500307Y-124244036D01*
X119567070Y-124231497D01*
X119632856Y-124258195D01*
X119673764Y-124316221D01*
X119680500Y-124356868D01*
X119680500Y-124573132D01*
X119660498Y-124641253D01*
X119606842Y-124687746D01*
X119536568Y-124697850D01*
X119497294Y-124685397D01*
X119494082Y-124683760D01*
X119314290Y-124635585D01*
X119314289Y-124635584D01*
X119314286Y-124635584D01*
X119236981Y-124629500D01*
X119236977Y-124629500D01*
X115713020Y-124629500D01*
X115635716Y-124635583D01*
X115455918Y-124683760D01*
X115290063Y-124768267D01*
X115290062Y-124768267D01*
X115145407Y-124885407D01*
X115028267Y-125030062D01*
X115028267Y-125030063D01*
X114943760Y-125195918D01*
X114918396Y-125290578D01*
X114895584Y-125375714D01*
X114890211Y-125443991D01*
X114889500Y-125453022D01*
X114889500Y-125646107D01*
X114869498Y-125714228D01*
X114833507Y-125750868D01*
X114827539Y-125754855D01*
X114827532Y-125754861D01*
X114789752Y-125792642D01*
X114718121Y-125864273D01*
X114718119Y-125864275D01*
X114599992Y-125982402D01*
X114501639Y-126080755D01*
X114439327Y-126114780D01*
X114368511Y-126109715D01*
X114311676Y-126067168D01*
X114292711Y-126030596D01*
X114280288Y-125992362D01*
X114280285Y-125992357D01*
X114278701Y-125989614D01*
X114232522Y-125909629D01*
X114181963Y-125822057D01*
X114181961Y-125822055D01*
X114050380Y-125675918D01*
X113891285Y-125560329D01*
X113711636Y-125480344D01*
X113519283Y-125439458D01*
X113322633Y-125439458D01*
X113130282Y-125480343D01*
X113130280Y-125480344D01*
X112950632Y-125560329D01*
X112943660Y-125565393D01*
X112876796Y-125589252D01*
X112869600Y-125589458D01*
X112301746Y-125589458D01*
X112233625Y-125569456D01*
X112212651Y-125552554D01*
X111940818Y-125280722D01*
X111915009Y-125258678D01*
X111881856Y-125230363D01*
X111822195Y-125195918D01*
X111720659Y-125137296D01*
X111720654Y-125137293D01*
X111632139Y-125108532D01*
X111543627Y-125079772D01*
X111543622Y-125079771D01*
X111358505Y-125060316D01*
X111173387Y-125079771D01*
X111173382Y-125079772D01*
X111040613Y-125122912D01*
X110996356Y-125137293D01*
X110996353Y-125137294D01*
X110996350Y-125137296D01*
X110835155Y-125230361D01*
X110776192Y-125280721D01*
X110776179Y-125280733D01*
X110264269Y-125792644D01*
X110213908Y-125851609D01*
X110120840Y-126012806D01*
X110100277Y-126076090D01*
X110069541Y-126126246D01*
X109487093Y-126708693D01*
X109424783Y-126742717D01*
X109398000Y-126745597D01*
X109380963Y-126745597D01*
X109348698Y-126752961D01*
X109277835Y-126748618D01*
X109231567Y-126719215D01*
X109213002Y-126700650D01*
X109213000Y-126700650D01*
X109068473Y-126845177D01*
X109052301Y-126858076D01*
X109052333Y-126858116D01*
X109046804Y-126862524D01*
X109046802Y-126862526D01*
X108992843Y-126905557D01*
X108942449Y-126945745D01*
X108660479Y-127227715D01*
X108648174Y-127243145D01*
X108577260Y-127332068D01*
X108577258Y-127332070D01*
X108572850Y-127337599D01*
X108572810Y-127337567D01*
X108559911Y-127353739D01*
X108415384Y-127498266D01*
X108415384Y-127498268D01*
X108433949Y-127516833D01*
X108467975Y-127579145D01*
X108467695Y-127633964D01*
X108460331Y-127666229D01*
X108460331Y-127666232D01*
X108460331Y-127844369D01*
X108489893Y-127973887D01*
X108499970Y-128018038D01*
X108499972Y-128018043D01*
X108577257Y-128178528D01*
X108577258Y-128178530D01*
X108577259Y-128178531D01*
X108577260Y-128178533D01*
X108660472Y-128282877D01*
X108660475Y-128282880D01*
X108660479Y-128282885D01*
X108898841Y-128521247D01*
X108932867Y-128583559D01*
X108927802Y-128654374D01*
X108885255Y-128711210D01*
X108818735Y-128736021D01*
X108749361Y-128720930D01*
X108746747Y-128719462D01*
X108705410Y-128695596D01*
X108705409Y-128695595D01*
X108705408Y-128695595D01*
X108578545Y-128654374D01*
X108528381Y-128638074D01*
X108528376Y-128638073D01*
X108343259Y-128618618D01*
X108158141Y-128638073D01*
X108158136Y-128638074D01*
X108025367Y-128681214D01*
X107981110Y-128695595D01*
X107981107Y-128695596D01*
X107981104Y-128695598D01*
X107819909Y-128788663D01*
X107760946Y-128839023D01*
X107760933Y-128839035D01*
X107249023Y-129350946D01*
X107198662Y-129409911D01*
X107105597Y-129571105D01*
X107105594Y-129571112D01*
X107048073Y-129748137D01*
X107048072Y-129748142D01*
X107028617Y-129933260D01*
X107048072Y-130118377D01*
X107048073Y-130118382D01*
X107074552Y-130199872D01*
X107105594Y-130295409D01*
X107105597Y-130295414D01*
X107198662Y-130456609D01*
X107198664Y-130456611D01*
X107249025Y-130515576D01*
X107760943Y-131027493D01*
X107819908Y-131077855D01*
X107981110Y-131170925D01*
X108158139Y-131228446D01*
X108343259Y-131247902D01*
X108343259Y-131247901D01*
X108349826Y-131248592D01*
X108349586Y-131250875D01*
X108407580Y-131267904D01*
X108454073Y-131321560D01*
X108463238Y-131363695D01*
X108464769Y-131363535D01*
X108484914Y-131555219D01*
X108484915Y-131555224D01*
X108512795Y-131641027D01*
X108542436Y-131732251D01*
X108542439Y-131732256D01*
X108635504Y-131893451D01*
X108642107Y-131901182D01*
X108685867Y-131952418D01*
X108685875Y-131952426D01*
X108685876Y-131952427D01*
X109197787Y-132464337D01*
X109210130Y-132474879D01*
X109256750Y-132514697D01*
X109417952Y-132607767D01*
X109594981Y-132665288D01*
X109780101Y-132684744D01*
X109965221Y-132665288D01*
X110142250Y-132607767D01*
X110303452Y-132514697D01*
X110362417Y-132464336D01*
X110759404Y-132067347D01*
X110821717Y-132033323D01*
X110892532Y-132038387D01*
X110949368Y-132080934D01*
X110974179Y-132147454D01*
X110974500Y-132156443D01*
X110974500Y-132406758D01*
X110954498Y-132474879D01*
X110937596Y-132495853D01*
X110665763Y-132767686D01*
X110615402Y-132826651D01*
X110522337Y-132987845D01*
X110522334Y-132987852D01*
X110464813Y-133164877D01*
X110464812Y-133164882D01*
X110445357Y-133350000D01*
X110464812Y-133535117D01*
X110464813Y-133535122D01*
X110493573Y-133623634D01*
X110522334Y-133712149D01*
X110522337Y-133712154D01*
X110615402Y-133873349D01*
X110615404Y-133873351D01*
X110665765Y-133932316D01*
X110665773Y-133932324D01*
X110665774Y-133932325D01*
X111177685Y-134444235D01*
X111194891Y-134458930D01*
X111236648Y-134494595D01*
X111397850Y-134587665D01*
X111574879Y-134645186D01*
X111759999Y-134664642D01*
X111945119Y-134645186D01*
X112122148Y-134587665D01*
X112283350Y-134494595D01*
X112342315Y-134444234D01*
X112854232Y-133932316D01*
X112904594Y-133873351D01*
X112997664Y-133712149D01*
X113055185Y-133535120D01*
X113074641Y-133350000D01*
X113055185Y-133164880D01*
X112997664Y-132987851D01*
X112945629Y-132897725D01*
X112904595Y-132826650D01*
X112864750Y-132779998D01*
X112854233Y-132767684D01*
X112854223Y-132767674D01*
X112854211Y-132767661D01*
X112637572Y-132551022D01*
X115986001Y-132551022D01*
X116000737Y-132625105D01*
X116000737Y-132625107D01*
X116056875Y-132709124D01*
X116140893Y-132765262D01*
X116140894Y-132765263D01*
X116214980Y-132779999D01*
X116289999Y-132779998D01*
X116290000Y-132779998D01*
X116290000Y-132276000D01*
X115986001Y-132276000D01*
X115986001Y-132551022D01*
X112637572Y-132551022D01*
X112582405Y-132495855D01*
X112548379Y-132433543D01*
X112545500Y-132406760D01*
X112545500Y-132156686D01*
X113037882Y-132156686D01*
X113037882Y-132156687D01*
X113104831Y-132223636D01*
X113104834Y-132223638D01*
X113183288Y-132280638D01*
X113183288Y-132280639D01*
X113306502Y-132320672D01*
X113306503Y-132320673D01*
X113436064Y-132320673D01*
X113436064Y-132320672D01*
X113559279Y-132280639D01*
X113637732Y-132223639D01*
X113637735Y-132223636D01*
X113664026Y-132197346D01*
X113664026Y-132197344D01*
X113330626Y-131863944D01*
X113330625Y-131863944D01*
X113037882Y-132156686D01*
X112545500Y-132156686D01*
X112545500Y-132024859D01*
X112565502Y-131956738D01*
X112619158Y-131910245D01*
X112650945Y-131901438D01*
X112650887Y-131901182D01*
X112656480Y-131899905D01*
X112657402Y-131899650D01*
X112657772Y-131899608D01*
X112657786Y-131899608D01*
X112690053Y-131892243D01*
X112760915Y-131896585D01*
X112807184Y-131925989D01*
X112825749Y-131944554D01*
X112825750Y-131944554D01*
X112970270Y-131800032D01*
X112986447Y-131787132D01*
X112986416Y-131787093D01*
X113074702Y-131716686D01*
X113096294Y-131699467D01*
X113143950Y-131651811D01*
X113542757Y-131651811D01*
X113542757Y-131651813D01*
X113876157Y-131985213D01*
X113876159Y-131985213D01*
X113902449Y-131958922D01*
X113902452Y-131958919D01*
X113959452Y-131880466D01*
X113999485Y-131757251D01*
X113999486Y-131757251D01*
X113999486Y-131627690D01*
X113999485Y-131627689D01*
X113959452Y-131504475D01*
X113902451Y-131426021D01*
X113902449Y-131426018D01*
X113835500Y-131359069D01*
X113835499Y-131359069D01*
X113542757Y-131651811D01*
X113143950Y-131651811D01*
X113378280Y-131417481D01*
X113460124Y-131314853D01*
X113465906Y-131307603D01*
X113465945Y-131307634D01*
X113478845Y-131291457D01*
X113623367Y-131146936D01*
X113604802Y-131128371D01*
X113570776Y-131066059D01*
X113571055Y-131011241D01*
X113578421Y-130978973D01*
X113578421Y-130961939D01*
X113598423Y-130893818D01*
X113615326Y-130872844D01*
X114887765Y-129600405D01*
X114950077Y-129566379D01*
X114976860Y-129563500D01*
X116290445Y-129563500D01*
X116358566Y-129583502D01*
X116405059Y-129637158D01*
X116415163Y-129707432D01*
X116385669Y-129772012D01*
X116379540Y-129778595D01*
X116229864Y-129928270D01*
X116229859Y-129928277D01*
X116143899Y-130056926D01*
X116084688Y-130199872D01*
X116084686Y-130199877D01*
X116054500Y-130351632D01*
X116054500Y-130646764D01*
X116037619Y-130709764D01*
X115980672Y-130808399D01*
X115980668Y-130808407D01*
X115919904Y-130995421D01*
X115919903Y-130995425D01*
X115919903Y-130995427D01*
X115899347Y-131191000D01*
X115917498Y-131363695D01*
X115919904Y-131386578D01*
X115980668Y-131573592D01*
X115983356Y-131579628D01*
X115981780Y-131580329D01*
X115996506Y-131641027D01*
X115994228Y-131659615D01*
X115986000Y-131700977D01*
X115986000Y-131976000D01*
X116287952Y-131976000D01*
X116356073Y-131996002D01*
X116362015Y-132000066D01*
X116369667Y-132005626D01*
X116369671Y-132005628D01*
X116369673Y-132005629D01*
X116515250Y-132070444D01*
X116569345Y-132116423D01*
X116589994Y-132184350D01*
X116590000Y-132185550D01*
X116590000Y-132779999D01*
X116665014Y-132779999D01*
X116665022Y-132779998D01*
X116739105Y-132765262D01*
X116739107Y-132765262D01*
X116823124Y-132709124D01*
X116879262Y-132625106D01*
X116879263Y-132625105D01*
X116893999Y-132551022D01*
X129486001Y-132551022D01*
X129500737Y-132625105D01*
X129500737Y-132625107D01*
X129556875Y-132709124D01*
X129640893Y-132765262D01*
X129640894Y-132765263D01*
X129714980Y-132779999D01*
X130090000Y-132779999D01*
X130165014Y-132779999D01*
X130165022Y-132779998D01*
X130239105Y-132765262D01*
X130239107Y-132765262D01*
X130323124Y-132709124D01*
X130379262Y-132625106D01*
X130379263Y-132625105D01*
X130393999Y-132551022D01*
X130394000Y-132551015D01*
X130394000Y-132276000D01*
X130090000Y-132276000D01*
X130090000Y-132779999D01*
X129714980Y-132779999D01*
X129789999Y-132779998D01*
X129790000Y-132779998D01*
X129790000Y-132276000D01*
X129486001Y-132276000D01*
X129486001Y-132551022D01*
X116893999Y-132551022D01*
X116894000Y-132551015D01*
X116894000Y-132237954D01*
X116914002Y-132169833D01*
X116967658Y-132123340D01*
X116993799Y-132114708D01*
X117130678Y-132085614D01*
X117310327Y-132005629D01*
X117469420Y-131890041D01*
X117478042Y-131880466D01*
X117584438Y-131762300D01*
X117601004Y-131743902D01*
X117688494Y-131592363D01*
X117739876Y-131543371D01*
X117809589Y-131529934D01*
X117871672Y-131553427D01*
X117969673Y-131624629D01*
X118149322Y-131704614D01*
X118341675Y-131745500D01*
X118538325Y-131745500D01*
X118730678Y-131704614D01*
X118910327Y-131624629D01*
X118937877Y-131604612D01*
X119004741Y-131580754D01*
X119073893Y-131596832D01*
X119121056Y-131643548D01*
X119178994Y-131743900D01*
X119178996Y-131743902D01*
X119310577Y-131890039D01*
X119338388Y-131910245D01*
X119469673Y-132005629D01*
X119649322Y-132085614D01*
X119841675Y-132126500D01*
X120038325Y-132126500D01*
X120230678Y-132085614D01*
X120410327Y-132005629D01*
X120569420Y-131890041D01*
X120672015Y-131776097D01*
X120732460Y-131738858D01*
X120791844Y-131737161D01*
X120831075Y-131745500D01*
X120831079Y-131745500D01*
X121027721Y-131745500D01*
X121027725Y-131745500D01*
X121084748Y-131733379D01*
X121155537Y-131738781D01*
X121204579Y-131772316D01*
X121310577Y-131890039D01*
X121338388Y-131910245D01*
X121469673Y-132005629D01*
X121649322Y-132085614D01*
X121841675Y-132126500D01*
X122038325Y-132126500D01*
X122230678Y-132085614D01*
X122410327Y-132005629D01*
X122477620Y-131956738D01*
X122486118Y-131950564D01*
X122552985Y-131926706D01*
X122560179Y-131926500D01*
X125167439Y-131926500D01*
X125167440Y-131926500D01*
X125309538Y-131898235D01*
X125336418Y-131887101D01*
X125443390Y-131842792D01*
X125563854Y-131762300D01*
X125625177Y-131700977D01*
X129486000Y-131700977D01*
X129486000Y-131976000D01*
X129790000Y-131976000D01*
X130090000Y-131976000D01*
X130393999Y-131976000D01*
X130393999Y-131700986D01*
X130393998Y-131700977D01*
X130379262Y-131626894D01*
X130379262Y-131626892D01*
X130323124Y-131542875D01*
X130239106Y-131486737D01*
X130239105Y-131486736D01*
X130165022Y-131472000D01*
X130090000Y-131472000D01*
X130090000Y-131976000D01*
X129790000Y-131976000D01*
X129790000Y-131471999D01*
X129714982Y-131472000D01*
X129640894Y-131486737D01*
X129640892Y-131486737D01*
X129556875Y-131542875D01*
X129500737Y-131626893D01*
X129500736Y-131626894D01*
X129486000Y-131700977D01*
X125625177Y-131700977D01*
X125666300Y-131659854D01*
X126011300Y-131314854D01*
X126012447Y-131313137D01*
X126091792Y-131194390D01*
X126118539Y-131129816D01*
X126163085Y-131074537D01*
X126230448Y-131052115D01*
X126299240Y-131069673D01*
X126309008Y-131076099D01*
X126310580Y-131077241D01*
X126469673Y-131192829D01*
X126649322Y-131272814D01*
X126841675Y-131313700D01*
X127038325Y-131313700D01*
X127230678Y-131272814D01*
X127410327Y-131192829D01*
X127569420Y-131077241D01*
X127701004Y-130931102D01*
X127799329Y-130760798D01*
X127836381Y-130646764D01*
X127852043Y-130598563D01*
X127892117Y-130539957D01*
X127957513Y-130512320D01*
X127971876Y-130511499D01*
X128058918Y-130511499D01*
X128058920Y-130511499D01*
X128129242Y-130505110D01*
X128152513Y-130497857D01*
X128223497Y-130496686D01*
X128227483Y-130497856D01*
X128250758Y-130505110D01*
X128321079Y-130511500D01*
X128558920Y-130511499D01*
X128629242Y-130505110D01*
X128652513Y-130497857D01*
X128723497Y-130496686D01*
X128727483Y-130497856D01*
X128750758Y-130505110D01*
X128821079Y-130511500D01*
X129058920Y-130511499D01*
X129129242Y-130505110D01*
X129291072Y-130454681D01*
X129436132Y-130366990D01*
X129555990Y-130247132D01*
X129643681Y-130102072D01*
X129694110Y-129940242D01*
X129700500Y-129869921D01*
X129700499Y-129182080D01*
X129694110Y-129111758D01*
X129643681Y-128949928D01*
X129643678Y-128949923D01*
X129636724Y-128938418D01*
X129618602Y-128869774D01*
X129640468Y-128802228D01*
X129660253Y-128779592D01*
X129661424Y-128778537D01*
X129736104Y-128695596D01*
X129793004Y-128632402D01*
X129891329Y-128462098D01*
X129952097Y-128275073D01*
X129972653Y-128079500D01*
X129952097Y-127883927D01*
X129905798Y-127741435D01*
X129903771Y-127670470D01*
X129927120Y-127623943D01*
X129962623Y-127579426D01*
X130040401Y-127417916D01*
X130080291Y-127243148D01*
X130080291Y-127063885D01*
X130040401Y-126889117D01*
X129962623Y-126727607D01*
X129878886Y-126622605D01*
X129878878Y-126622596D01*
X129536403Y-126280121D01*
X129536393Y-126280112D01*
X129431394Y-126196378D01*
X129431393Y-126196377D01*
X129375430Y-126169427D01*
X129269883Y-126118599D01*
X129111773Y-126082511D01*
X129049813Y-126047853D01*
X129016426Y-125985197D01*
X129022213Y-125914436D01*
X129065337Y-125858038D01*
X129065540Y-125857889D01*
X129153420Y-125794041D01*
X129285004Y-125647902D01*
X129383329Y-125477598D01*
X129444097Y-125290573D01*
X129464653Y-125095000D01*
X129444097Y-124899427D01*
X129426482Y-124845212D01*
X129383331Y-124712407D01*
X129383327Y-124712399D01*
X129366792Y-124683760D01*
X129335466Y-124629500D01*
X129285005Y-124542099D01*
X129285003Y-124542097D01*
X129153422Y-124395960D01*
X128994327Y-124280371D01*
X128814678Y-124200386D01*
X128622325Y-124159500D01*
X128425675Y-124159500D01*
X128233324Y-124200385D01*
X128233322Y-124200386D01*
X128057348Y-124278735D01*
X127986982Y-124288169D01*
X127922685Y-124258063D01*
X127884871Y-124197974D01*
X127885547Y-124126980D01*
X127886267Y-124124692D01*
X127899942Y-124082603D01*
X127920097Y-124020573D01*
X127940653Y-123825000D01*
X127920097Y-123629427D01*
X127859329Y-123442402D01*
X127761004Y-123272098D01*
X127750074Y-123259959D01*
X127629422Y-123125960D01*
X127470327Y-123010371D01*
X127290678Y-122930386D01*
X127098325Y-122889500D01*
X126901675Y-122889500D01*
X126709324Y-122930385D01*
X126709322Y-122930386D01*
X126529674Y-123010371D01*
X126529672Y-123010371D01*
X126523642Y-123013057D01*
X126522631Y-123010788D01*
X126471440Y-123024500D01*
X123270147Y-123024500D01*
X123229339Y-123015454D01*
X123228736Y-123017275D01*
X123055794Y-122959967D01*
X123055782Y-122959965D01*
X122953351Y-122949500D01*
X122378656Y-122949500D01*
X122276211Y-122959965D01*
X122110233Y-123014965D01*
X121961405Y-123106763D01*
X121961399Y-123106768D01*
X121837768Y-123230399D01*
X121837763Y-123230405D01*
X121745965Y-123379233D01*
X121690967Y-123545205D01*
X121690965Y-123545217D01*
X121680500Y-123647648D01*
X121680500Y-123762478D01*
X121660498Y-123830599D01*
X121606842Y-123877092D01*
X121536568Y-123887196D01*
X121471988Y-123857702D01*
X121465405Y-123851573D01*
X121370600Y-123756768D01*
X121370594Y-123756763D01*
X121333824Y-123734083D01*
X121221770Y-123664967D01*
X121221766Y-123664965D01*
X121221765Y-123664965D01*
X121215584Y-123662082D01*
X121162301Y-123615162D01*
X121142844Y-123546884D01*
X121149005Y-123508961D01*
X121182063Y-123407219D01*
X121212797Y-123357066D01*
X121260138Y-123309727D01*
X121346101Y-123181074D01*
X121405314Y-123038122D01*
X121422942Y-122949500D01*
X121435500Y-122886366D01*
X121435500Y-122731635D01*
X121435500Y-122672126D01*
X121455502Y-122604005D01*
X121472402Y-122583033D01*
X121484449Y-122570987D01*
X121502056Y-122542964D01*
X121555234Y-122495927D01*
X121608744Y-122484000D01*
X121635000Y-122484000D01*
X121935000Y-122484000D01*
X122029686Y-122484000D01*
X122125461Y-122468831D01*
X122240901Y-122410012D01*
X122332512Y-122318401D01*
X122391331Y-122202961D01*
X122406500Y-122107186D01*
X122406500Y-122070000D01*
X121935000Y-122070000D01*
X121935000Y-122484000D01*
X121635000Y-122484000D01*
X121635000Y-122279605D01*
X121637315Y-122259053D01*
X121637264Y-122259048D01*
X121638056Y-122252018D01*
X121638057Y-122252016D01*
X121653000Y-122119394D01*
X121653000Y-121770000D01*
X121935000Y-121770000D01*
X122406500Y-121770000D01*
X122406500Y-121732813D01*
X122391331Y-121637038D01*
X122332512Y-121521598D01*
X122240901Y-121429987D01*
X122125461Y-121371168D01*
X122029686Y-121356000D01*
X121935000Y-121356000D01*
X121935000Y-121770000D01*
X121653000Y-121770000D01*
X121653000Y-121720606D01*
X121638057Y-121587984D01*
X121637265Y-121580954D01*
X121637316Y-121580948D01*
X121635000Y-121560392D01*
X121635000Y-121356000D01*
X121608744Y-121356000D01*
X121540623Y-121335998D01*
X121502056Y-121297035D01*
X121484447Y-121269010D01*
X121358489Y-121143052D01*
X121358486Y-121143050D01*
X121207657Y-121048278D01*
X121207655Y-121048277D01*
X121039516Y-120989443D01*
X120923735Y-120976397D01*
X120906895Y-120974500D01*
X120906894Y-120974500D01*
X120393106Y-120974500D01*
X120393105Y-120974500D01*
X120373814Y-120976673D01*
X120260484Y-120989443D01*
X120260481Y-120989443D01*
X120260481Y-120989444D01*
X120092344Y-121048277D01*
X120092342Y-121048278D01*
X119985858Y-121115187D01*
X119918822Y-121134500D01*
X119904445Y-121134500D01*
X119836324Y-121114498D01*
X119806525Y-121087795D01*
X119804594Y-121085410D01*
X119804590Y-121085407D01*
X119659935Y-120968266D01*
X119494083Y-120883761D01*
X119494082Y-120883760D01*
X119494081Y-120883760D01*
X119314290Y-120835585D01*
X119314289Y-120835584D01*
X119314286Y-120835584D01*
X119236981Y-120829500D01*
X119236978Y-120829500D01*
X118554000Y-120829500D01*
X118485879Y-120809498D01*
X118439386Y-120755842D01*
X118428000Y-120703500D01*
X118428000Y-119286139D01*
X118427999Y-119286135D01*
X118425529Y-119273716D01*
X118391377Y-119102020D01*
X118319538Y-118928585D01*
X118215243Y-118772498D01*
X118082502Y-118639757D01*
X117472245Y-118029500D01*
X116812507Y-117369761D01*
X116812501Y-117369756D01*
X116760709Y-117335149D01*
X116656415Y-117265462D01*
X116482980Y-117193623D01*
X116298864Y-117157000D01*
X116298862Y-117157000D01*
X115381935Y-117157000D01*
X115313814Y-117136998D01*
X115292840Y-117120095D01*
X114654905Y-116482160D01*
X114620879Y-116419848D01*
X114618000Y-116393065D01*
X114618000Y-115979303D01*
X114638002Y-115911182D01*
X114691658Y-115864689D01*
X114761932Y-115854585D01*
X114768545Y-115855717D01*
X114842861Y-115870500D01*
X122647139Y-115870500D01*
X122827875Y-115834549D01*
X122998125Y-115764029D01*
X123122499Y-115680924D01*
X123190251Y-115659710D01*
X123258718Y-115678493D01*
X123306161Y-115731310D01*
X123318500Y-115785690D01*
X123318500Y-116760463D01*
X123301619Y-116823463D01*
X123219671Y-116965400D01*
X123219668Y-116965407D01*
X123158904Y-117152421D01*
X123158903Y-117152425D01*
X123158903Y-117152427D01*
X123138347Y-117348000D01*
X123148805Y-117447502D01*
X123158904Y-117543578D01*
X123219668Y-117730592D01*
X123219672Y-117730600D01*
X123317994Y-117900900D01*
X123317996Y-117900902D01*
X123449576Y-118047038D01*
X123449579Y-118047040D01*
X123449580Y-118047041D01*
X123476109Y-118066315D01*
X123519462Y-118122536D01*
X123525539Y-118193272D01*
X123492408Y-118256064D01*
X123491143Y-118257346D01*
X123192130Y-118556359D01*
X123129818Y-118590385D01*
X123129234Y-118590510D01*
X123026323Y-118612385D01*
X122846669Y-118692373D01*
X122687577Y-118807960D01*
X122555996Y-118954097D01*
X122555994Y-118954099D01*
X122457672Y-119124399D01*
X122457668Y-119124407D01*
X122396904Y-119311421D01*
X122396903Y-119311425D01*
X122396903Y-119311427D01*
X122376347Y-119507000D01*
X122396902Y-119702566D01*
X122396904Y-119702578D01*
X122457668Y-119889592D01*
X122457672Y-119889600D01*
X122555994Y-120059900D01*
X122555996Y-120059902D01*
X122687577Y-120206039D01*
X122687580Y-120206041D01*
X122846673Y-120321629D01*
X123026322Y-120401614D01*
X123218675Y-120442500D01*
X123415325Y-120442500D01*
X123607678Y-120401614D01*
X123787327Y-120321629D01*
X123946420Y-120206041D01*
X124078004Y-120059902D01*
X124176329Y-119889598D01*
X124237097Y-119702573D01*
X124237150Y-119702072D01*
X124237260Y-119701804D01*
X124238470Y-119696112D01*
X124239510Y-119696333D01*
X124264160Y-119636414D01*
X124273347Y-119626160D01*
X124625794Y-119273713D01*
X159939500Y-119273713D01*
X159939500Y-119486287D01*
X159972754Y-119696243D01*
X160038443Y-119898412D01*
X160134949Y-120087816D01*
X160259896Y-120259792D01*
X160259898Y-120259794D01*
X160259900Y-120259797D01*
X160410202Y-120410099D01*
X160410205Y-120410101D01*
X160410208Y-120410104D01*
X160582184Y-120535051D01*
X160771588Y-120631557D01*
X160973757Y-120697246D01*
X161183713Y-120730500D01*
X161183716Y-120730500D01*
X161396284Y-120730500D01*
X161396287Y-120730500D01*
X161606243Y-120697246D01*
X161808412Y-120631557D01*
X161997816Y-120535051D01*
X162169792Y-120410104D01*
X162320104Y-120259792D01*
X162445051Y-120087816D01*
X162541557Y-119898412D01*
X162607246Y-119696243D01*
X162640500Y-119486287D01*
X162640500Y-119273713D01*
X162607246Y-119063757D01*
X162541557Y-118861588D01*
X162445051Y-118672184D01*
X162320104Y-118500208D01*
X162320101Y-118500205D01*
X162320099Y-118500202D01*
X162169797Y-118349900D01*
X162169794Y-118349898D01*
X162169792Y-118349896D01*
X161997816Y-118224949D01*
X161808412Y-118128443D01*
X161606243Y-118062754D01*
X161396287Y-118029500D01*
X161183713Y-118029500D01*
X160973757Y-118062754D01*
X160973754Y-118062754D01*
X160973753Y-118062755D01*
X160771588Y-118128443D01*
X160771586Y-118128444D01*
X160582180Y-118224951D01*
X160410205Y-118349898D01*
X160410202Y-118349900D01*
X160259900Y-118500202D01*
X160259898Y-118500205D01*
X160134951Y-118672180D01*
X160038444Y-118861586D01*
X160038443Y-118861588D01*
X159984900Y-119026377D01*
X159972754Y-119063757D01*
X159939500Y-119273713D01*
X124625794Y-119273713D01*
X126003219Y-117896290D01*
X129495719Y-114403790D01*
X129497416Y-114402092D01*
X129559714Y-114368052D01*
X129630531Y-114373097D01*
X129687379Y-114415627D01*
X129712209Y-114482140D01*
X129698352Y-114545925D01*
X129699356Y-114546372D01*
X129697207Y-114551196D01*
X129697138Y-114551518D01*
X129696783Y-114552149D01*
X129696668Y-114552407D01*
X129635904Y-114739421D01*
X129635903Y-114739425D01*
X129635903Y-114739427D01*
X129615347Y-114935000D01*
X129632123Y-115094614D01*
X129635904Y-115130578D01*
X129696668Y-115317592D01*
X129696672Y-115317600D01*
X129794994Y-115487900D01*
X129794996Y-115487902D01*
X129926577Y-115634039D01*
X129926580Y-115634041D01*
X130085673Y-115749629D01*
X130265322Y-115829614D01*
X130457675Y-115870500D01*
X130654325Y-115870500D01*
X130846678Y-115829614D01*
X131026327Y-115749629D01*
X131185420Y-115634041D01*
X131317004Y-115487902D01*
X131415329Y-115317598D01*
X131476097Y-115130573D01*
X131496653Y-114935000D01*
X132409347Y-114935000D01*
X132426123Y-115094614D01*
X132429904Y-115130578D01*
X132490668Y-115317592D01*
X132490672Y-115317600D01*
X132588994Y-115487900D01*
X132588996Y-115487902D01*
X132720577Y-115634039D01*
X132720580Y-115634041D01*
X132879673Y-115749629D01*
X133059322Y-115829614D01*
X133251675Y-115870500D01*
X133448325Y-115870500D01*
X133640678Y-115829614D01*
X133820327Y-115749629D01*
X133979420Y-115634041D01*
X134111004Y-115487902D01*
X134193122Y-115345668D01*
X134244504Y-115296676D01*
X134314217Y-115283239D01*
X134380128Y-115309626D01*
X134418649Y-115360450D01*
X134425968Y-115378119D01*
X134425970Y-115378124D01*
X134425971Y-115378125D01*
X134528350Y-115531346D01*
X134658654Y-115661650D01*
X134811875Y-115764029D01*
X134982125Y-115834549D01*
X135162861Y-115870500D01*
X142967139Y-115870500D01*
X143147875Y-115834549D01*
X143318125Y-115764029D01*
X143471346Y-115661650D01*
X143601650Y-115531346D01*
X143704029Y-115378125D01*
X143774549Y-115207875D01*
X143810500Y-115027139D01*
X143810500Y-114842861D01*
X143774549Y-114662125D01*
X143704029Y-114491875D01*
X143601650Y-114338654D01*
X143471346Y-114208350D01*
X143318125Y-114105971D01*
X143210766Y-114061501D01*
X143147878Y-114035452D01*
X143147875Y-114035451D01*
X142967142Y-113999500D01*
X142967139Y-113999500D01*
X142914562Y-113999500D01*
X135302595Y-113999500D01*
X135255000Y-113999500D01*
X135162861Y-113999500D01*
X135162857Y-113999500D01*
X134982124Y-114035451D01*
X134982121Y-114035452D01*
X134811875Y-114105971D01*
X134658658Y-114208347D01*
X134658651Y-114208352D01*
X134528352Y-114338651D01*
X134528347Y-114338658D01*
X134425971Y-114491874D01*
X134418649Y-114509551D01*
X134374099Y-114564831D01*
X134306735Y-114587250D01*
X134237944Y-114569690D01*
X134193122Y-114524330D01*
X134111005Y-114382099D01*
X134111003Y-114382097D01*
X133979422Y-114235960D01*
X133820327Y-114120371D01*
X133640678Y-114040386D01*
X133448325Y-113999500D01*
X133251675Y-113999500D01*
X133059324Y-114040385D01*
X132879669Y-114120373D01*
X132720577Y-114235960D01*
X132588996Y-114382097D01*
X132588994Y-114382099D01*
X132490672Y-114552399D01*
X132490668Y-114552407D01*
X132429904Y-114739421D01*
X132429903Y-114739425D01*
X132429903Y-114739427D01*
X132409347Y-114935000D01*
X131496653Y-114935000D01*
X131476097Y-114739427D01*
X131426652Y-114587250D01*
X131415331Y-114552407D01*
X131415327Y-114552399D01*
X131414818Y-114551518D01*
X131336362Y-114415627D01*
X131317005Y-114382099D01*
X131317003Y-114382097D01*
X131185422Y-114235960D01*
X131026327Y-114120371D01*
X130846678Y-114040386D01*
X130654325Y-113999500D01*
X130457675Y-113999500D01*
X130265322Y-114040386D01*
X130154187Y-114089866D01*
X130083820Y-114099300D01*
X130019523Y-114069193D01*
X129981710Y-114009104D01*
X129982386Y-113938111D01*
X130013844Y-113885664D01*
X130017601Y-113881907D01*
X130017615Y-113881895D01*
X130130714Y-113768796D01*
X130130719Y-113768791D01*
X130213947Y-113644232D01*
X130271275Y-113505830D01*
X130296657Y-113378225D01*
X130300501Y-113358902D01*
X130300501Y-113209097D01*
X130300501Y-113203905D01*
X130300500Y-113203879D01*
X130300500Y-110696536D01*
X130317381Y-110633536D01*
X130399328Y-110491599D01*
X130399329Y-110491598D01*
X130460097Y-110304573D01*
X130460148Y-110304083D01*
X130460256Y-110303820D01*
X130461470Y-110298112D01*
X130462513Y-110298333D01*
X130487150Y-110238427D01*
X130496354Y-110228153D01*
X130961105Y-109763404D01*
X131023417Y-109729379D01*
X131050200Y-109726500D01*
X132789902Y-109726500D01*
X132789903Y-109726500D01*
X132936830Y-109697275D01*
X133075232Y-109639947D01*
X133199791Y-109556719D01*
X133305719Y-109450791D01*
X133316085Y-109440425D01*
X133316092Y-109440415D01*
X134390106Y-108366404D01*
X134452418Y-108332379D01*
X134479201Y-108329500D01*
X136980902Y-108329500D01*
X136980903Y-108329500D01*
X137127830Y-108300275D01*
X137266232Y-108242947D01*
X137390791Y-108159719D01*
X137496719Y-108053791D01*
X137503892Y-108046618D01*
X137503903Y-108046604D01*
X139479104Y-106071403D01*
X139479118Y-106071392D01*
X139592214Y-105958296D01*
X139592219Y-105958291D01*
X139675447Y-105833732D01*
X139732775Y-105695330D01*
X139734273Y-105687800D01*
X139735723Y-105680514D01*
X139762000Y-105548407D01*
X139762001Y-105548400D01*
X139762001Y-105393405D01*
X139762000Y-105393379D01*
X139762000Y-104743499D01*
X139782002Y-104675378D01*
X139835658Y-104628885D01*
X139905932Y-104618781D01*
X139970512Y-104648275D01*
X139977095Y-104654404D01*
X146116505Y-110793814D01*
X146116534Y-110793845D01*
X146225601Y-110902912D01*
X146225605Y-110902915D01*
X146225609Y-110902919D01*
X146256604Y-110923629D01*
X146350168Y-110986147D01*
X146488570Y-111043475D01*
X146635498Y-111072701D01*
X146635499Y-111072701D01*
X146791516Y-111072701D01*
X146791536Y-111072700D01*
X147118097Y-111072700D01*
X150671231Y-111072700D01*
X150739352Y-111092702D01*
X150745292Y-111096764D01*
X150786673Y-111126829D01*
X150966322Y-111206814D01*
X151158675Y-111247700D01*
X151355325Y-111247700D01*
X151547678Y-111206814D01*
X151727327Y-111126829D01*
X151768708Y-111096764D01*
X151835576Y-111072905D01*
X151842769Y-111072700D01*
X153036000Y-111072700D01*
X153104121Y-111092702D01*
X153150614Y-111146358D01*
X153162000Y-111198700D01*
X153162000Y-113873500D01*
X153141998Y-113941621D01*
X153088342Y-113988114D01*
X153036000Y-113999500D01*
X145322857Y-113999500D01*
X145142124Y-114035451D01*
X145142121Y-114035452D01*
X144971875Y-114105971D01*
X144818658Y-114208347D01*
X144818651Y-114208352D01*
X144688352Y-114338651D01*
X144688347Y-114338658D01*
X144585971Y-114491875D01*
X144515452Y-114662121D01*
X144515451Y-114662124D01*
X144479500Y-114842857D01*
X144479500Y-115027142D01*
X144503941Y-115150012D01*
X144515451Y-115207875D01*
X144585971Y-115378125D01*
X144688350Y-115531346D01*
X144818654Y-115661650D01*
X144971875Y-115764029D01*
X145142125Y-115834549D01*
X145322861Y-115870500D01*
X153127139Y-115870500D01*
X153307875Y-115834549D01*
X153310183Y-115833592D01*
X153312630Y-115833105D01*
X153313797Y-115832752D01*
X153313831Y-115832866D01*
X153358404Y-115824000D01*
X155251596Y-115824000D01*
X155296168Y-115832866D01*
X155296203Y-115832752D01*
X155297369Y-115833105D01*
X155299816Y-115833592D01*
X155302125Y-115834549D01*
X155482861Y-115870500D01*
X163287139Y-115870500D01*
X163467875Y-115834549D01*
X163470183Y-115833592D01*
X163472630Y-115833105D01*
X163473797Y-115832752D01*
X163473831Y-115832866D01*
X163518404Y-115824000D01*
X164339000Y-115824000D01*
X164407121Y-115844002D01*
X164453614Y-115897658D01*
X164465000Y-115950000D01*
X164465000Y-138058812D01*
X164464393Y-138071163D01*
X164447001Y-138247738D01*
X164442183Y-138271962D01*
X164392482Y-138435808D01*
X164383029Y-138458629D01*
X164302318Y-138609627D01*
X164288595Y-138630165D01*
X164179979Y-138762514D01*
X164162514Y-138779979D01*
X164030165Y-138888595D01*
X164009627Y-138902318D01*
X163858629Y-138983029D01*
X163835808Y-138992482D01*
X163671962Y-139042183D01*
X163647738Y-139047001D01*
X163499273Y-139061624D01*
X163471161Y-139064393D01*
X163458813Y-139065000D01*
X77841187Y-139065000D01*
X77828838Y-139064393D01*
X77796095Y-139061168D01*
X77652261Y-139047001D01*
X77628037Y-139042183D01*
X77464191Y-138992482D01*
X77441372Y-138983030D01*
X77393011Y-138957180D01*
X77290372Y-138902318D01*
X77269834Y-138888595D01*
X77137485Y-138779979D01*
X77120020Y-138762514D01*
X77011404Y-138630165D01*
X76997681Y-138609627D01*
X76984064Y-138584153D01*
X76916967Y-138458622D01*
X76907520Y-138435815D01*
X76857815Y-138271959D01*
X76852998Y-138247737D01*
X76835607Y-138071162D01*
X76835000Y-138058812D01*
X76835000Y-135783713D01*
X78659500Y-135783713D01*
X78659500Y-135996287D01*
X78692754Y-136206243D01*
X78758443Y-136408412D01*
X78854949Y-136597816D01*
X78979896Y-136769792D01*
X78979898Y-136769794D01*
X78979900Y-136769797D01*
X79130202Y-136920099D01*
X79130205Y-136920101D01*
X79130208Y-136920104D01*
X79302184Y-137045051D01*
X79491588Y-137141557D01*
X79693757Y-137207246D01*
X79903713Y-137240500D01*
X79903716Y-137240500D01*
X80116284Y-137240500D01*
X80116287Y-137240500D01*
X80326243Y-137207246D01*
X80528412Y-137141557D01*
X80717816Y-137045051D01*
X80889792Y-136920104D01*
X81040104Y-136769792D01*
X81165051Y-136597816D01*
X81261557Y-136408412D01*
X81327246Y-136206243D01*
X81360500Y-135996287D01*
X81360500Y-135783713D01*
X159939500Y-135783713D01*
X159939500Y-135996287D01*
X159972754Y-136206243D01*
X160038443Y-136408412D01*
X160134949Y-136597816D01*
X160259896Y-136769792D01*
X160259898Y-136769794D01*
X160259900Y-136769797D01*
X160410202Y-136920099D01*
X160410205Y-136920101D01*
X160410208Y-136920104D01*
X160582184Y-137045051D01*
X160771588Y-137141557D01*
X160973757Y-137207246D01*
X161183713Y-137240500D01*
X161183716Y-137240500D01*
X161396284Y-137240500D01*
X161396287Y-137240500D01*
X161606243Y-137207246D01*
X161808412Y-137141557D01*
X161997816Y-137045051D01*
X162169792Y-136920104D01*
X162320104Y-136769792D01*
X162445051Y-136597816D01*
X162541557Y-136408412D01*
X162607246Y-136206243D01*
X162640500Y-135996287D01*
X162640500Y-135783713D01*
X162607246Y-135573757D01*
X162541557Y-135371588D01*
X162445051Y-135182184D01*
X162320104Y-135010208D01*
X162320101Y-135010205D01*
X162320099Y-135010202D01*
X162169797Y-134859900D01*
X162169794Y-134859898D01*
X162169792Y-134859896D01*
X161997816Y-134734949D01*
X161808412Y-134638443D01*
X161606243Y-134572754D01*
X161396287Y-134539500D01*
X161183713Y-134539500D01*
X160973757Y-134572754D01*
X160973754Y-134572754D01*
X160973753Y-134572755D01*
X160771588Y-134638443D01*
X160771586Y-134638444D01*
X160582180Y-134734951D01*
X160410205Y-134859898D01*
X160410202Y-134859900D01*
X160259900Y-135010202D01*
X160259898Y-135010205D01*
X160134951Y-135182180D01*
X160134949Y-135182184D01*
X160038443Y-135371588D01*
X159972754Y-135573757D01*
X159939500Y-135783713D01*
X81360500Y-135783713D01*
X81327246Y-135573757D01*
X81261557Y-135371588D01*
X81165051Y-135182184D01*
X81040104Y-135010208D01*
X81040101Y-135010205D01*
X81040099Y-135010202D01*
X80889797Y-134859900D01*
X80889794Y-134859898D01*
X80889792Y-134859896D01*
X80717816Y-134734949D01*
X80528412Y-134638443D01*
X80326243Y-134572754D01*
X80116287Y-134539500D01*
X79903713Y-134539500D01*
X79693757Y-134572754D01*
X79693754Y-134572754D01*
X79693753Y-134572755D01*
X79491588Y-134638443D01*
X79491586Y-134638444D01*
X79302180Y-134734951D01*
X79130205Y-134859898D01*
X79130202Y-134859900D01*
X78979900Y-135010202D01*
X78979898Y-135010205D01*
X78854951Y-135182180D01*
X78854949Y-135182184D01*
X78758443Y-135371588D01*
X78692754Y-135573757D01*
X78659500Y-135783713D01*
X76835000Y-135783713D01*
X76835000Y-128627940D01*
X105900913Y-128627940D01*
X106041061Y-128768088D01*
X106041071Y-128768097D01*
X106088077Y-128805979D01*
X106219908Y-128866183D01*
X106219911Y-128866184D01*
X106363358Y-128886809D01*
X106363364Y-128886809D01*
X106506810Y-128866184D01*
X106506813Y-128866183D01*
X106638645Y-128805979D01*
X106638650Y-128805975D01*
X106685642Y-128768105D01*
X106685659Y-128768090D01*
X106825808Y-128627941D01*
X106825808Y-128627940D01*
X106363362Y-128165494D01*
X106363361Y-128165494D01*
X105900913Y-128627940D01*
X76835000Y-128627940D01*
X76835000Y-127953358D01*
X105429914Y-127953358D01*
X105429914Y-127953365D01*
X105450538Y-128096811D01*
X105450539Y-128096814D01*
X105510743Y-128228646D01*
X105510746Y-128228650D01*
X105548623Y-128275651D01*
X105548626Y-128275655D01*
X105688780Y-128415809D01*
X105688781Y-128415809D01*
X106151229Y-127953361D01*
X106575493Y-127953361D01*
X106575493Y-127953363D01*
X107037939Y-128415809D01*
X107037941Y-128415809D01*
X107178092Y-128275657D01*
X107178099Y-128275649D01*
X107215977Y-128228648D01*
X107276182Y-128096814D01*
X107276183Y-128096811D01*
X107296808Y-127953365D01*
X107296808Y-127953358D01*
X107276183Y-127809912D01*
X107276182Y-127809909D01*
X107215978Y-127678077D01*
X107215975Y-127678073D01*
X107178098Y-127631072D01*
X107178095Y-127631068D01*
X107037941Y-127490914D01*
X107037940Y-127490914D01*
X106575493Y-127953361D01*
X106151229Y-127953361D01*
X105688782Y-127490914D01*
X105688780Y-127490914D01*
X105548629Y-127631067D01*
X105510743Y-127678078D01*
X105450539Y-127809909D01*
X105450538Y-127809912D01*
X105429914Y-127953358D01*
X76835000Y-127953358D01*
X76835000Y-127278782D01*
X105900913Y-127278782D01*
X105900913Y-127278783D01*
X106363360Y-127741230D01*
X106363361Y-127741230D01*
X106825808Y-127278782D01*
X106685660Y-127138635D01*
X106685650Y-127138626D01*
X106638644Y-127100744D01*
X106506813Y-127040540D01*
X106506810Y-127040539D01*
X106363364Y-127019915D01*
X106363358Y-127019915D01*
X106219911Y-127040539D01*
X106219908Y-127040540D01*
X106088076Y-127100744D01*
X106088072Y-127100747D01*
X106041079Y-127138617D01*
X105900913Y-127278782D01*
X76835000Y-127278782D01*
X76835000Y-126887953D01*
X108039266Y-126887953D01*
X108039266Y-127017515D01*
X108079299Y-127140729D01*
X108136300Y-127219183D01*
X108136302Y-127219186D01*
X108203251Y-127286135D01*
X108203252Y-127286135D01*
X108495995Y-126993392D01*
X108162595Y-126659992D01*
X108162593Y-126659992D01*
X108136302Y-126686282D01*
X108136299Y-126686285D01*
X108079299Y-126764738D01*
X108039266Y-126887953D01*
X76835000Y-126887953D01*
X76835000Y-126447859D01*
X108374726Y-126447859D01*
X108374726Y-126447861D01*
X108708126Y-126781261D01*
X108708127Y-126781261D01*
X109000869Y-126488518D01*
X109000869Y-126488517D01*
X108933920Y-126421568D01*
X108933917Y-126421566D01*
X108855463Y-126364566D01*
X108855463Y-126364565D01*
X108732249Y-126324532D01*
X108602688Y-126324532D01*
X108479472Y-126364565D01*
X108401019Y-126421565D01*
X108401016Y-126421568D01*
X108374726Y-126447859D01*
X76835000Y-126447859D01*
X76835000Y-119273713D01*
X78659500Y-119273713D01*
X78659500Y-119486287D01*
X78692754Y-119696243D01*
X78758443Y-119898412D01*
X78854949Y-120087816D01*
X78979896Y-120259792D01*
X78979898Y-120259794D01*
X78979900Y-120259797D01*
X79130202Y-120410099D01*
X79130205Y-120410101D01*
X79130208Y-120410104D01*
X79302184Y-120535051D01*
X79491588Y-120631557D01*
X79693757Y-120697246D01*
X79903713Y-120730500D01*
X79903716Y-120730500D01*
X80116284Y-120730500D01*
X80116287Y-120730500D01*
X80326243Y-120697246D01*
X80528412Y-120631557D01*
X80717816Y-120535051D01*
X80889792Y-120410104D01*
X81040104Y-120259792D01*
X81165051Y-120087816D01*
X81261557Y-119898412D01*
X81327246Y-119696243D01*
X81360500Y-119486287D01*
X81360500Y-119273713D01*
X81327246Y-119063757D01*
X81261557Y-118861588D01*
X81165051Y-118672184D01*
X81040104Y-118500208D01*
X81040101Y-118500205D01*
X81040099Y-118500202D01*
X80889797Y-118349900D01*
X80889794Y-118349898D01*
X80889792Y-118349896D01*
X80717816Y-118224949D01*
X80528412Y-118128443D01*
X80326243Y-118062754D01*
X80116287Y-118029500D01*
X79903713Y-118029500D01*
X79693757Y-118062754D01*
X79693754Y-118062754D01*
X79693753Y-118062755D01*
X79491588Y-118128443D01*
X79491586Y-118128444D01*
X79302180Y-118224951D01*
X79130205Y-118349898D01*
X79130202Y-118349900D01*
X78979900Y-118500202D01*
X78979898Y-118500205D01*
X78854951Y-118672180D01*
X78758444Y-118861586D01*
X78758443Y-118861588D01*
X78704900Y-119026377D01*
X78692754Y-119063757D01*
X78659500Y-119273713D01*
X76835000Y-119273713D01*
X76835000Y-114842857D01*
X77169500Y-114842857D01*
X77169500Y-115027142D01*
X77193941Y-115150012D01*
X77205451Y-115207875D01*
X77275971Y-115378125D01*
X77378350Y-115531346D01*
X77508654Y-115661650D01*
X77661875Y-115764029D01*
X77832125Y-115834549D01*
X78012861Y-115870500D01*
X82007139Y-115870500D01*
X82187875Y-115834549D01*
X82358125Y-115764029D01*
X82511346Y-115661650D01*
X82641650Y-115531346D01*
X82744029Y-115378125D01*
X82814549Y-115207875D01*
X82850500Y-115027139D01*
X82850500Y-114842861D01*
X82850499Y-114842857D01*
X83519500Y-114842857D01*
X83519500Y-115027142D01*
X83543941Y-115150012D01*
X83555451Y-115207875D01*
X83625971Y-115378125D01*
X83728350Y-115531346D01*
X83858654Y-115661650D01*
X84011875Y-115764029D01*
X84182125Y-115834549D01*
X84362861Y-115870500D01*
X92167139Y-115870500D01*
X92347875Y-115834549D01*
X92518125Y-115764029D01*
X92671346Y-115661650D01*
X92801650Y-115531346D01*
X92904029Y-115378125D01*
X92974549Y-115207875D01*
X93010500Y-115027139D01*
X93010500Y-114842861D01*
X93010499Y-114842857D01*
X93679500Y-114842857D01*
X93679500Y-115027142D01*
X93703941Y-115150012D01*
X93715451Y-115207875D01*
X93785971Y-115378125D01*
X93888350Y-115531346D01*
X94018654Y-115661650D01*
X94171875Y-115764029D01*
X94342125Y-115834549D01*
X94522861Y-115870500D01*
X102327139Y-115870500D01*
X102507875Y-115834549D01*
X102678125Y-115764029D01*
X102831346Y-115661650D01*
X102961650Y-115531346D01*
X103064029Y-115378125D01*
X103134549Y-115207875D01*
X103170500Y-115027139D01*
X103170500Y-114842861D01*
X103134549Y-114662125D01*
X103064029Y-114491875D01*
X102961650Y-114338654D01*
X102831346Y-114208350D01*
X102678125Y-114105971D01*
X102570766Y-114061501D01*
X102507878Y-114035452D01*
X102507875Y-114035451D01*
X102327142Y-113999500D01*
X102327139Y-113999500D01*
X102274562Y-113999500D01*
X94662595Y-113999500D01*
X94615000Y-113999500D01*
X94522861Y-113999500D01*
X94522857Y-113999500D01*
X94342124Y-114035451D01*
X94342121Y-114035452D01*
X94171875Y-114105971D01*
X94018658Y-114208347D01*
X94018651Y-114208352D01*
X93888352Y-114338651D01*
X93888347Y-114338658D01*
X93785971Y-114491875D01*
X93715452Y-114662121D01*
X93715451Y-114662124D01*
X93679500Y-114842857D01*
X93010499Y-114842857D01*
X92974549Y-114662125D01*
X92904029Y-114491875D01*
X92801650Y-114338654D01*
X92671346Y-114208350D01*
X92518125Y-114105971D01*
X92410766Y-114061501D01*
X92347878Y-114035452D01*
X92347875Y-114035451D01*
X92167142Y-113999500D01*
X92167139Y-113999500D01*
X92114562Y-113999500D01*
X84502595Y-113999500D01*
X84455000Y-113999500D01*
X84362861Y-113999500D01*
X84362857Y-113999500D01*
X84182124Y-114035451D01*
X84182121Y-114035452D01*
X84011875Y-114105971D01*
X83858658Y-114208347D01*
X83858651Y-114208352D01*
X83728352Y-114338651D01*
X83728347Y-114338658D01*
X83625971Y-114491875D01*
X83555452Y-114662121D01*
X83555451Y-114662124D01*
X83519500Y-114842857D01*
X82850499Y-114842857D01*
X82814549Y-114662125D01*
X82744029Y-114491875D01*
X82641650Y-114338654D01*
X82511346Y-114208350D01*
X82358125Y-114105971D01*
X82250766Y-114061501D01*
X82187878Y-114035452D01*
X82187875Y-114035451D01*
X82007142Y-113999500D01*
X82007139Y-113999500D01*
X81954562Y-113999500D01*
X78152595Y-113999500D01*
X78105000Y-113999500D01*
X78012861Y-113999500D01*
X78012857Y-113999500D01*
X77832124Y-114035451D01*
X77832121Y-114035452D01*
X77661875Y-114105971D01*
X77508658Y-114208347D01*
X77508651Y-114208352D01*
X77378352Y-114338651D01*
X77378347Y-114338658D01*
X77275971Y-114491875D01*
X77205452Y-114662121D01*
X77205451Y-114662124D01*
X77169500Y-114842857D01*
X76835000Y-114842857D01*
X76835000Y-110383713D01*
X78659500Y-110383713D01*
X78659500Y-110596287D01*
X78692754Y-110806243D01*
X78758443Y-111008412D01*
X78828730Y-111146358D01*
X78854951Y-111197819D01*
X78858712Y-111202996D01*
X78979896Y-111369792D01*
X78979898Y-111369794D01*
X78979900Y-111369797D01*
X79130202Y-111520099D01*
X79130205Y-111520101D01*
X79130208Y-111520104D01*
X79302184Y-111645051D01*
X79491588Y-111741557D01*
X79693757Y-111807246D01*
X79903713Y-111840500D01*
X79903716Y-111840500D01*
X80116284Y-111840500D01*
X80116287Y-111840500D01*
X80326243Y-111807246D01*
X80528412Y-111741557D01*
X80717816Y-111645051D01*
X80889792Y-111520104D01*
X81040104Y-111369792D01*
X81165051Y-111197816D01*
X81261557Y-111008412D01*
X81327246Y-110806243D01*
X81360500Y-110596287D01*
X81360500Y-110383713D01*
X81327246Y-110173757D01*
X81261557Y-109971588D01*
X81165051Y-109782184D01*
X81040104Y-109610208D01*
X81040101Y-109610205D01*
X81040099Y-109610202D01*
X80889797Y-109459900D01*
X80889794Y-109459898D01*
X80889792Y-109459896D01*
X80717816Y-109334949D01*
X80528412Y-109238443D01*
X80326243Y-109172754D01*
X80116287Y-109139500D01*
X79903713Y-109139500D01*
X79693757Y-109172754D01*
X79693754Y-109172754D01*
X79693753Y-109172755D01*
X79491588Y-109238443D01*
X79491586Y-109238444D01*
X79302180Y-109334951D01*
X79130205Y-109459898D01*
X79130202Y-109459900D01*
X78979900Y-109610202D01*
X78979898Y-109610205D01*
X78854951Y-109782180D01*
X78854949Y-109782184D01*
X78758443Y-109971588D01*
X78692754Y-110173757D01*
X78659500Y-110383713D01*
X76835000Y-110383713D01*
X76835000Y-82285659D01*
X91459600Y-82285659D01*
X91469855Y-82356043D01*
X91469855Y-82356045D01*
X91522932Y-82464615D01*
X91608384Y-82550067D01*
X91716955Y-82603144D01*
X91787340Y-82613399D01*
X91787348Y-82613400D01*
X92788600Y-82613400D01*
X93088600Y-82613400D01*
X94089852Y-82613400D01*
X94089859Y-82613399D01*
X94160242Y-82603144D01*
X94208260Y-82579670D01*
X94278244Y-82567721D01*
X94318940Y-82579670D01*
X94366957Y-82603144D01*
X94437340Y-82613399D01*
X94437348Y-82613400D01*
X95438600Y-82613400D01*
X95738600Y-82613400D01*
X96739852Y-82613400D01*
X96739859Y-82613399D01*
X96810243Y-82603144D01*
X96810245Y-82603144D01*
X96918815Y-82550067D01*
X97004267Y-82464615D01*
X97057344Y-82356045D01*
X97057344Y-82356043D01*
X97067599Y-82285659D01*
X97067600Y-82285651D01*
X97067600Y-81709400D01*
X95738600Y-81709400D01*
X95738600Y-82613400D01*
X95438600Y-82613400D01*
X95438600Y-81709400D01*
X93088600Y-81709400D01*
X93088600Y-82613400D01*
X92788600Y-82613400D01*
X92788600Y-81709400D01*
X91459600Y-81709400D01*
X91459600Y-82285659D01*
X76835000Y-82285659D01*
X76835000Y-80485659D01*
X91459600Y-80485659D01*
X91469855Y-80556043D01*
X91469856Y-80556048D01*
X91493329Y-80604062D01*
X91505278Y-80674046D01*
X91493329Y-80714738D01*
X91469856Y-80762751D01*
X91469855Y-80762756D01*
X91459600Y-80833140D01*
X91459600Y-81409400D01*
X92788600Y-81409400D01*
X93088600Y-81409400D01*
X95438600Y-81409400D01*
X95738600Y-81409400D01*
X97067600Y-81409400D01*
X97067600Y-80833148D01*
X97067599Y-80833140D01*
X97057344Y-80762757D01*
X97033870Y-80714740D01*
X97021921Y-80644756D01*
X97033870Y-80604060D01*
X97057344Y-80556042D01*
X97067599Y-80485659D01*
X97067600Y-80485651D01*
X97067600Y-79909400D01*
X95738600Y-79909400D01*
X95738600Y-81409400D01*
X95438600Y-81409400D01*
X95438600Y-79909400D01*
X93088600Y-79909400D01*
X93088600Y-81409400D01*
X92788600Y-81409400D01*
X92788600Y-79909400D01*
X91459600Y-79909400D01*
X91459600Y-80485659D01*
X76835000Y-80485659D01*
X76835000Y-79033140D01*
X91459600Y-79033140D01*
X91459600Y-79609400D01*
X92788600Y-79609400D01*
X93088600Y-79609400D01*
X95438600Y-79609400D01*
X95738600Y-79609400D01*
X97067600Y-79609400D01*
X97067600Y-79033148D01*
X97067599Y-79033140D01*
X97057344Y-78962756D01*
X97057344Y-78962754D01*
X97004267Y-78854184D01*
X96918815Y-78768732D01*
X96810244Y-78715655D01*
X96739859Y-78705400D01*
X95738600Y-78705400D01*
X95738600Y-79609400D01*
X95438600Y-79609400D01*
X95438600Y-78705400D01*
X94437340Y-78705400D01*
X94366956Y-78715655D01*
X94366951Y-78715656D01*
X94318938Y-78739129D01*
X94248954Y-78751078D01*
X94208262Y-78739129D01*
X94160248Y-78715656D01*
X94160243Y-78715655D01*
X94089859Y-78705400D01*
X93088600Y-78705400D01*
X93088600Y-79609400D01*
X92788600Y-79609400D01*
X92788600Y-78705400D01*
X91787340Y-78705400D01*
X91716956Y-78715655D01*
X91716954Y-78715655D01*
X91608384Y-78768732D01*
X91522932Y-78854184D01*
X91469855Y-78962754D01*
X91469855Y-78962756D01*
X91459600Y-79033140D01*
X76835000Y-79033140D01*
X76835000Y-66215438D01*
X92347664Y-66215438D01*
X92361099Y-66356129D01*
X92361099Y-66356130D01*
X92413625Y-66487333D01*
X92413628Y-66487339D01*
X92500994Y-66598435D01*
X92616122Y-66680417D01*
X92616127Y-66680420D01*
X92671033Y-66701646D01*
X92849262Y-66749403D01*
X92999118Y-66190131D01*
X92391550Y-66027334D01*
X92356738Y-66157260D01*
X92347664Y-66215438D01*
X76835000Y-66215438D01*
X76835000Y-65737556D01*
X92469195Y-65737556D01*
X93076763Y-65900354D01*
X93239837Y-65291750D01*
X93248498Y-65277540D01*
X93405518Y-64691531D01*
X92797950Y-64528734D01*
X92763138Y-64658660D01*
X92754064Y-64716838D01*
X92767499Y-64857529D01*
X92767499Y-64857530D01*
X92820025Y-64988733D01*
X92820028Y-64988739D01*
X92907831Y-65100390D01*
X92934217Y-65166301D01*
X92920781Y-65236015D01*
X92871788Y-65287397D01*
X92855618Y-65295252D01*
X92718322Y-65350217D01*
X92718317Y-65350220D01*
X92607223Y-65437586D01*
X92525241Y-65552713D01*
X92504011Y-65607628D01*
X92504009Y-65607634D01*
X92469195Y-65737556D01*
X76835000Y-65737556D01*
X76835000Y-64238956D01*
X92875595Y-64238956D01*
X93483163Y-64401754D01*
X93646237Y-63793150D01*
X93654898Y-63778940D01*
X93811918Y-63192931D01*
X93204350Y-63030134D01*
X93169538Y-63160060D01*
X93160464Y-63218238D01*
X93173899Y-63358929D01*
X93173899Y-63358930D01*
X93226425Y-63490133D01*
X93226428Y-63490139D01*
X93314231Y-63601790D01*
X93340617Y-63667701D01*
X93327181Y-63737415D01*
X93278188Y-63788797D01*
X93262018Y-63796652D01*
X93124722Y-63851617D01*
X93124717Y-63851620D01*
X93013623Y-63938986D01*
X92931641Y-64054113D01*
X92910411Y-64109028D01*
X92910409Y-64109034D01*
X92875595Y-64238956D01*
X76835000Y-64238956D01*
X76835000Y-62740356D01*
X93281995Y-62740356D01*
X93889563Y-62903154D01*
X94039418Y-62343882D01*
X93861199Y-62296129D01*
X93861193Y-62296128D01*
X93803021Y-62287056D01*
X93803020Y-62287056D01*
X93662332Y-62300490D01*
X93662323Y-62300492D01*
X93531124Y-62353016D01*
X93531117Y-62353020D01*
X93420023Y-62440386D01*
X93338041Y-62555513D01*
X93316811Y-62610428D01*
X93316809Y-62610434D01*
X93281995Y-62740356D01*
X76835000Y-62740356D01*
X76835000Y-54503713D01*
X78659500Y-54503713D01*
X78659500Y-54716287D01*
X78692754Y-54926243D01*
X78758443Y-55128412D01*
X78854949Y-55317816D01*
X78979896Y-55489792D01*
X78979898Y-55489794D01*
X78979900Y-55489797D01*
X79130202Y-55640099D01*
X79130205Y-55640101D01*
X79130208Y-55640104D01*
X79302184Y-55765051D01*
X79491588Y-55861557D01*
X79693757Y-55927246D01*
X79903713Y-55960500D01*
X79903716Y-55960500D01*
X80116284Y-55960500D01*
X80116287Y-55960500D01*
X80326243Y-55927246D01*
X80528412Y-55861557D01*
X80717816Y-55765051D01*
X80889792Y-55640104D01*
X81040104Y-55489792D01*
X81165051Y-55317816D01*
X81261557Y-55128412D01*
X81327246Y-54926243D01*
X81360500Y-54716287D01*
X81360500Y-54503713D01*
X81327246Y-54293757D01*
X81261557Y-54091588D01*
X81165051Y-53902184D01*
X81040104Y-53730208D01*
X81040101Y-53730205D01*
X81040099Y-53730202D01*
X80889797Y-53579900D01*
X80889794Y-53579898D01*
X80889792Y-53579896D01*
X80717816Y-53454949D01*
X80528412Y-53358443D01*
X80326243Y-53292754D01*
X80116287Y-53259500D01*
X79903713Y-53259500D01*
X79693757Y-53292754D01*
X79693754Y-53292754D01*
X79693753Y-53292755D01*
X79491588Y-53358443D01*
X79491586Y-53358444D01*
X79302180Y-53454951D01*
X79130205Y-53579898D01*
X79130202Y-53579900D01*
X78979900Y-53730202D01*
X78979898Y-53730205D01*
X78854951Y-53902180D01*
X78854949Y-53902184D01*
X78758443Y-54091588D01*
X78692754Y-54293757D01*
X78659500Y-54503713D01*
X76835000Y-54503713D01*
X76835000Y-52441187D01*
X76835607Y-52428837D01*
X76852998Y-52252262D01*
X76857814Y-52228042D01*
X76907521Y-52064181D01*
X76916965Y-52041380D01*
X76997682Y-51890369D01*
X77011398Y-51869842D01*
X77120025Y-51737479D01*
X77137479Y-51720025D01*
X77269842Y-51611398D01*
X77290369Y-51597682D01*
X77441380Y-51516965D01*
X77464181Y-51507521D01*
X77628042Y-51457814D01*
X77652257Y-51452998D01*
X77828837Y-51435606D01*
X77841187Y-51435000D01*
X156719000Y-51435000D01*
X156787121Y-51455002D01*
G37*
%TD.AperFunction*%
%TA.AperFunction,Conductor*%
G36*
X120704820Y-127099816D02*
G01*
X120814673Y-127179629D01*
X120994322Y-127259614D01*
X121142130Y-127291031D01*
X121204604Y-127324759D01*
X121205029Y-127325183D01*
X121667595Y-127787749D01*
X121701621Y-127850061D01*
X121704500Y-127876844D01*
X121704500Y-128415760D01*
X121684498Y-128483881D01*
X121630842Y-128530374D01*
X121567102Y-128541243D01*
X121558922Y-128540500D01*
X121321082Y-128540500D01*
X121250762Y-128546889D01*
X121250759Y-128546889D01*
X121250758Y-128546890D01*
X121088928Y-128597319D01*
X121088926Y-128597320D01*
X121088924Y-128597320D01*
X121005183Y-128647943D01*
X120936539Y-128666066D01*
X120874817Y-128647943D01*
X120791074Y-128597320D01*
X120791073Y-128597319D01*
X120791072Y-128597319D01*
X120629242Y-128546890D01*
X120629240Y-128546889D01*
X120629238Y-128546889D01*
X120580003Y-128542415D01*
X120558921Y-128540500D01*
X120558918Y-128540500D01*
X120321082Y-128540500D01*
X120250759Y-128546889D01*
X120250755Y-128546890D01*
X120227483Y-128554142D01*
X120156496Y-128555311D01*
X120152517Y-128554142D01*
X120129246Y-128546891D01*
X120129243Y-128546890D01*
X120129242Y-128546890D01*
X120129240Y-128546889D01*
X120129236Y-128546889D01*
X120085271Y-128542894D01*
X120058921Y-128540500D01*
X120058918Y-128540500D01*
X119821081Y-128540500D01*
X119761714Y-128545894D01*
X119692063Y-128532137D01*
X119640907Y-128482908D01*
X119639150Y-128479317D01*
X119639020Y-128479387D01*
X119636101Y-128473926D01*
X119628194Y-128462092D01*
X119550138Y-128345273D01*
X119455697Y-128250832D01*
X119421671Y-128188520D01*
X119426736Y-128117705D01*
X119469283Y-128060869D01*
X119488678Y-128050178D01*
X119488199Y-128049237D01*
X119494083Y-128046239D01*
X119659935Y-127961734D01*
X119804592Y-127844592D01*
X119921734Y-127699935D01*
X120006239Y-127534083D01*
X120054416Y-127354286D01*
X120060500Y-127276981D01*
X120060500Y-127276500D01*
X120060522Y-127276424D01*
X120060597Y-127274516D01*
X120060693Y-127274519D01*
X120060694Y-127274513D01*
X120060866Y-127274526D01*
X120061077Y-127274534D01*
X120080502Y-127208379D01*
X120134158Y-127161886D01*
X120186500Y-127150500D01*
X120346364Y-127150500D01*
X120346365Y-127150500D01*
X120498122Y-127120314D01*
X120582545Y-127085344D01*
X120653131Y-127077755D01*
X120704820Y-127099816D01*
G37*
%TD.AperFunction*%
%TA.AperFunction,Conductor*%
G36*
X125859576Y-125915502D02*
G01*
X125906069Y-125969158D01*
X125916173Y-126039432D01*
X125911288Y-126060436D01*
X125869217Y-126189918D01*
X125869217Y-126321064D01*
X125909741Y-126445786D01*
X125967435Y-126525194D01*
X125967437Y-126525197D01*
X126024061Y-126581821D01*
X126024063Y-126581821D01*
X126446913Y-126158971D01*
X126509225Y-126124945D01*
X126580040Y-126130010D01*
X126625103Y-126158971D01*
X126659044Y-126192912D01*
X126693070Y-126255224D01*
X126688005Y-126326039D01*
X126659044Y-126371102D01*
X126236194Y-126793952D01*
X126236194Y-126793954D01*
X126292818Y-126850578D01*
X126296586Y-126853796D01*
X126295516Y-126855048D01*
X126334474Y-126905557D01*
X126340557Y-126976292D01*
X126339906Y-126979318D01*
X126332709Y-127010852D01*
X126332709Y-127190115D01*
X126372599Y-127364883D01*
X126398138Y-127417916D01*
X126450377Y-127526393D01*
X126450378Y-127526394D01*
X126534112Y-127631393D01*
X126534121Y-127631403D01*
X126876596Y-127973878D01*
X126876606Y-127973887D01*
X126931975Y-128018043D01*
X126981607Y-128057623D01*
X127075027Y-128102611D01*
X127127722Y-128150187D01*
X127129474Y-128153128D01*
X127137617Y-128167231D01*
X127154500Y-128230235D01*
X127154500Y-128414500D01*
X127134498Y-128482621D01*
X127080842Y-128529114D01*
X127028501Y-128540500D01*
X126821082Y-128540500D01*
X126750759Y-128546889D01*
X126750755Y-128546890D01*
X126727483Y-128554142D01*
X126656496Y-128555311D01*
X126652517Y-128554142D01*
X126629246Y-128546891D01*
X126629243Y-128546890D01*
X126629242Y-128546890D01*
X126629240Y-128546889D01*
X126629236Y-128546889D01*
X126585271Y-128542894D01*
X126558921Y-128540500D01*
X126558918Y-128540500D01*
X126321082Y-128540500D01*
X126250759Y-128546889D01*
X126250755Y-128546890D01*
X126227483Y-128554142D01*
X126156496Y-128555311D01*
X126152517Y-128554142D01*
X126129246Y-128546891D01*
X126129243Y-128546890D01*
X126129242Y-128546890D01*
X126129240Y-128546889D01*
X126129236Y-128546889D01*
X126085271Y-128542894D01*
X126058921Y-128540500D01*
X126058918Y-128540500D01*
X125821088Y-128540500D01*
X125818014Y-128540779D01*
X125812894Y-128541244D01*
X125743246Y-128527486D01*
X125692090Y-128478255D01*
X125675500Y-128415761D01*
X125675500Y-127590560D01*
X125673155Y-127578773D01*
X125647235Y-127448462D01*
X125591792Y-127314610D01*
X125511300Y-127194146D01*
X125511295Y-127194140D01*
X125359405Y-127042250D01*
X125325379Y-126979938D01*
X125322500Y-126953155D01*
X125322500Y-126549445D01*
X125342502Y-126481324D01*
X125346569Y-126475377D01*
X125348000Y-126473405D01*
X125348004Y-126473402D01*
X125446329Y-126303098D01*
X125507097Y-126116073D01*
X125518421Y-126008327D01*
X125545435Y-125942672D01*
X125603656Y-125902043D01*
X125643731Y-125895500D01*
X125791455Y-125895500D01*
X125859576Y-125915502D01*
G37*
%TD.AperFunction*%
%TA.AperFunction,Conductor*%
G36*
X133493137Y-102745896D02*
G01*
X133538200Y-102774857D01*
X133696156Y-102932813D01*
X133696166Y-102932822D01*
X133806042Y-103020446D01*
X133806010Y-103020486D01*
X133822184Y-103033383D01*
X133978638Y-103189838D01*
X134006127Y-103197910D01*
X134031642Y-103219598D01*
X134117577Y-103315039D01*
X134117580Y-103315041D01*
X134276673Y-103430629D01*
X134456322Y-103510614D01*
X134648675Y-103551500D01*
X134648678Y-103551500D01*
X134648697Y-103551504D01*
X134711170Y-103585232D01*
X134745492Y-103647382D01*
X134748500Y-103674751D01*
X134748500Y-104280801D01*
X134728498Y-104348922D01*
X134711597Y-104369893D01*
X134698894Y-104382597D01*
X134692014Y-104389477D01*
X134629701Y-104423500D01*
X134623135Y-104424581D01*
X134445617Y-104465099D01*
X134445612Y-104465101D01*
X134284106Y-104542877D01*
X134284105Y-104542878D01*
X134179106Y-104626612D01*
X134179096Y-104626621D01*
X133836621Y-104969096D01*
X133836612Y-104969106D01*
X133752878Y-105074105D01*
X133752877Y-105074106D01*
X133672029Y-105241992D01*
X133670338Y-105241177D01*
X133634454Y-105291207D01*
X133606686Y-105306369D01*
X133607000Y-105307021D01*
X133439114Y-105387869D01*
X133439113Y-105387870D01*
X133334114Y-105471604D01*
X133334104Y-105471613D01*
X132991629Y-105814088D01*
X132991620Y-105814098D01*
X132907886Y-105919097D01*
X132907885Y-105919098D01*
X132834537Y-106071409D01*
X132830107Y-106080609D01*
X132790217Y-106255377D01*
X132790217Y-106255379D01*
X132788643Y-106262276D01*
X132786492Y-106261785D01*
X132763089Y-106317475D01*
X132754484Y-106327006D01*
X132309896Y-106771595D01*
X132247583Y-106805620D01*
X132220800Y-106808500D01*
X130544593Y-106808500D01*
X130397669Y-106837725D01*
X130397664Y-106837727D01*
X130259268Y-106895053D01*
X130134709Y-106978280D01*
X129975960Y-107137031D01*
X129975959Y-107137031D01*
X126665580Y-110447409D01*
X126603268Y-110481435D01*
X126602684Y-110481560D01*
X126499773Y-110503435D01*
X126320119Y-110583423D01*
X126161027Y-110699010D01*
X126029446Y-110845147D01*
X126029444Y-110845149D01*
X125931122Y-111015449D01*
X125931118Y-111015457D01*
X125870353Y-111202472D01*
X125870352Y-111202480D01*
X125870298Y-111202996D01*
X125870183Y-111203273D01*
X125868982Y-111208929D01*
X125867946Y-111208708D01*
X125843277Y-111268649D01*
X125834085Y-111278904D01*
X124196189Y-112916801D01*
X123594211Y-113518779D01*
X123594209Y-113518781D01*
X123541244Y-113571745D01*
X123488280Y-113624709D01*
X123405053Y-113749268D01*
X123347727Y-113887664D01*
X123347725Y-113887669D01*
X123318500Y-114034593D01*
X123318500Y-114084309D01*
X123298498Y-114152430D01*
X123244842Y-114198923D01*
X123174568Y-114209027D01*
X123122498Y-114189074D01*
X122998125Y-114105971D01*
X122827878Y-114035452D01*
X122827875Y-114035451D01*
X122647142Y-113999500D01*
X122647139Y-113999500D01*
X122594562Y-113999500D01*
X114982595Y-113999500D01*
X114935000Y-113999500D01*
X114842861Y-113999500D01*
X114842857Y-113999500D01*
X114768582Y-114014275D01*
X114697868Y-114007947D01*
X114641800Y-113964393D01*
X114618181Y-113897441D01*
X114618000Y-113890696D01*
X114618000Y-107221139D01*
X114617999Y-107221135D01*
X114598885Y-107125041D01*
X114581377Y-107037020D01*
X114509538Y-106863585D01*
X114405243Y-106707498D01*
X114272502Y-106574757D01*
X112749905Y-105052160D01*
X112715879Y-104989848D01*
X112713000Y-104963065D01*
X112713000Y-104131500D01*
X112733002Y-104063379D01*
X112786658Y-104016886D01*
X112839000Y-104005500D01*
X130231800Y-104005500D01*
X130231802Y-104005500D01*
X130408333Y-103977541D01*
X130536629Y-103935853D01*
X130578317Y-103922309D01*
X130737568Y-103841167D01*
X130882164Y-103736111D01*
X131008547Y-103609728D01*
X131068072Y-103550203D01*
X131068074Y-103550199D01*
X131187575Y-103430698D01*
X133128433Y-103430698D01*
X133128433Y-103430700D01*
X133154726Y-103456993D01*
X133233179Y-103513993D01*
X133356394Y-103554026D01*
X133356395Y-103554027D01*
X133485956Y-103554027D01*
X133485956Y-103554026D01*
X133609170Y-103513993D01*
X133609170Y-103513992D01*
X133687622Y-103456994D01*
X133754576Y-103390039D01*
X133461835Y-103097298D01*
X133461833Y-103097298D01*
X133128433Y-103430698D01*
X131187575Y-103430698D01*
X131562501Y-103055773D01*
X131624811Y-103021750D01*
X131676170Y-103021292D01*
X131801898Y-103046301D01*
X131801899Y-103046301D01*
X131957916Y-103046301D01*
X131957936Y-103046300D01*
X132721391Y-103046300D01*
X132789512Y-103066302D01*
X132826010Y-103106646D01*
X132827178Y-103105799D01*
X132890004Y-103192270D01*
X132890009Y-103192276D01*
X132916300Y-103218567D01*
X132916301Y-103218567D01*
X133360009Y-102774857D01*
X133422322Y-102740832D01*
X133493137Y-102745896D01*
G37*
%TD.AperFunction*%
%TA.AperFunction,Conductor*%
G36*
X150993352Y-103066302D02*
G01*
X150999292Y-103070364D01*
X151040673Y-103100429D01*
X151220322Y-103180414D01*
X151412675Y-103221300D01*
X151609325Y-103221300D01*
X151801678Y-103180414D01*
X151981327Y-103100429D01*
X152022708Y-103070364D01*
X152089576Y-103046505D01*
X152096769Y-103046300D01*
X152617001Y-103046300D01*
X152685122Y-103066302D01*
X152706096Y-103083205D01*
X153125095Y-103502204D01*
X153159121Y-103564516D01*
X153162000Y-103591299D01*
X153162000Y-105489774D01*
X153141998Y-105557895D01*
X153088342Y-105604388D01*
X153087252Y-105604879D01*
X153072678Y-105611368D01*
X153072671Y-105611372D01*
X152913577Y-105726960D01*
X152781996Y-105873097D01*
X152781994Y-105873099D01*
X152683672Y-106043399D01*
X152683668Y-106043407D01*
X152622904Y-106230421D01*
X152622903Y-106230425D01*
X152622903Y-106230427D01*
X152602347Y-106426000D01*
X152617982Y-106574758D01*
X152622904Y-106621578D01*
X152683668Y-106808592D01*
X152683672Y-106808600D01*
X152781994Y-106978900D01*
X152781996Y-106978902D01*
X152913577Y-107125039D01*
X153072670Y-107240627D01*
X153072669Y-107240627D01*
X153087248Y-107247118D01*
X153141344Y-107293097D01*
X153161994Y-107361024D01*
X153162000Y-107362225D01*
X153162000Y-109425700D01*
X153141998Y-109493821D01*
X153088342Y-109540314D01*
X153036000Y-109551700D01*
X151842769Y-109551700D01*
X151774648Y-109531698D01*
X151768708Y-109527636D01*
X151727327Y-109497571D01*
X151547678Y-109417586D01*
X151355325Y-109376700D01*
X151158675Y-109376700D01*
X150966324Y-109417585D01*
X150786673Y-109497571D01*
X150745291Y-109527637D01*
X150678423Y-109551495D01*
X150671231Y-109551700D01*
X147077599Y-109551700D01*
X147009478Y-109531698D01*
X146988504Y-109514795D01*
X140735104Y-103261395D01*
X140701078Y-103199083D01*
X140706143Y-103128268D01*
X140748690Y-103071432D01*
X140815210Y-103046621D01*
X140824199Y-103046300D01*
X150925231Y-103046300D01*
X150993352Y-103066302D01*
G37*
%TD.AperFunction*%
%TA.AperFunction,Conductor*%
G36*
X111834012Y-93986975D02*
G01*
X111840595Y-93993104D01*
X112309105Y-94461614D01*
X112309134Y-94461645D01*
X112418203Y-94570714D01*
X112418209Y-94570719D01*
X112542768Y-94653947D01*
X112681170Y-94711275D01*
X112828097Y-94740500D01*
X112828098Y-94740500D01*
X112977902Y-94740500D01*
X132119200Y-94740500D01*
X132187321Y-94760502D01*
X132208295Y-94777405D01*
X132444695Y-95013805D01*
X132478721Y-95076117D01*
X132473656Y-95146932D01*
X132431109Y-95203768D01*
X132364589Y-95228579D01*
X132355600Y-95228900D01*
X132235675Y-95228900D01*
X132043324Y-95269785D01*
X131863669Y-95349773D01*
X131704577Y-95465360D01*
X131572996Y-95611497D01*
X131572994Y-95611499D01*
X131474672Y-95781799D01*
X131474668Y-95781807D01*
X131413904Y-95968821D01*
X131413903Y-95968825D01*
X131413903Y-95968827D01*
X131393347Y-96164400D01*
X131413904Y-96359978D01*
X131474668Y-96546992D01*
X131474672Y-96547000D01*
X131572994Y-96717300D01*
X131572996Y-96717302D01*
X131704577Y-96863439D01*
X131704580Y-96863441D01*
X131863673Y-96979029D01*
X132043322Y-97059014D01*
X132235675Y-97099900D01*
X132432322Y-97099900D01*
X132432325Y-97099900D01*
X132467466Y-97092430D01*
X132538252Y-97097830D01*
X132594886Y-97140646D01*
X132600347Y-97148638D01*
X132602573Y-97152181D01*
X132686307Y-97257179D01*
X132686316Y-97257189D01*
X132975758Y-97546631D01*
X132975767Y-97546639D01*
X133080769Y-97630376D01*
X133242279Y-97708154D01*
X133417047Y-97748044D01*
X133417050Y-97748044D01*
X133596307Y-97748044D01*
X133596310Y-97748044D01*
X133678339Y-97729321D01*
X133749201Y-97733663D01*
X133806468Y-97775628D01*
X133817737Y-97797085D01*
X133819107Y-97796388D01*
X133823609Y-97805225D01*
X133880604Y-97883670D01*
X133880609Y-97883676D01*
X133906900Y-97909967D01*
X133906901Y-97909967D01*
X134350610Y-97466257D01*
X134412923Y-97432232D01*
X134483738Y-97437296D01*
X134528801Y-97466257D01*
X134537273Y-97474729D01*
X134571299Y-97537041D01*
X134566234Y-97607856D01*
X134557299Y-97626821D01*
X134522673Y-97686796D01*
X134522671Y-97686802D01*
X134516780Y-97704932D01*
X134486044Y-97755086D01*
X134119033Y-98122098D01*
X134119033Y-98122100D01*
X134145326Y-98148393D01*
X134223779Y-98205393D01*
X134346994Y-98245426D01*
X134346995Y-98245427D01*
X134364008Y-98245427D01*
X134432129Y-98265429D01*
X134478622Y-98319085D01*
X134483841Y-98332491D01*
X134522668Y-98451993D01*
X134522672Y-98452000D01*
X134620994Y-98622300D01*
X134620996Y-98622302D01*
X134752577Y-98768439D01*
X134833103Y-98826945D01*
X134876457Y-98883168D01*
X134882532Y-98953904D01*
X134849400Y-99016695D01*
X134848138Y-99017976D01*
X134696883Y-99169232D01*
X134651685Y-99223463D01*
X134651677Y-99223476D01*
X134647316Y-99231786D01*
X134597947Y-99282808D01*
X134528831Y-99299039D01*
X134461911Y-99275326D01*
X134437243Y-99251793D01*
X134398304Y-99202965D01*
X134398299Y-99202960D01*
X134398296Y-99202956D01*
X134035009Y-98839669D01*
X134035004Y-98839665D01*
X134035001Y-98839662D01*
X133930657Y-98756450D01*
X133930655Y-98756449D01*
X133930654Y-98756448D01*
X133930652Y-98756447D01*
X133770167Y-98679162D01*
X133770163Y-98679160D01*
X133596493Y-98639521D01*
X133418356Y-98639521D01*
X133418353Y-98639521D01*
X133386088Y-98646885D01*
X133315225Y-98642542D01*
X133268957Y-98613139D01*
X133250392Y-98594574D01*
X133250390Y-98594574D01*
X133105863Y-98739101D01*
X133089691Y-98752000D01*
X133089723Y-98752040D01*
X133084194Y-98756448D01*
X133084192Y-98756450D01*
X133052308Y-98781877D01*
X132979844Y-98839665D01*
X132821883Y-98997626D01*
X132759571Y-99031651D01*
X132688755Y-99026586D01*
X132643692Y-98997625D01*
X132199984Y-98553916D01*
X132199983Y-98553916D01*
X132173692Y-98580206D01*
X132173689Y-98580209D01*
X132116689Y-98658662D01*
X132076656Y-98781877D01*
X132076656Y-98889903D01*
X132056654Y-98958024D01*
X132002998Y-99004517D01*
X131932724Y-99014621D01*
X131868144Y-98985127D01*
X131861561Y-98978998D01*
X131803430Y-98920867D01*
X131803428Y-98920867D01*
X131206088Y-99518207D01*
X131143776Y-99552233D01*
X131143190Y-99552359D01*
X131056983Y-99570683D01*
X130986192Y-99565281D01*
X130929560Y-99522464D01*
X130905066Y-99455827D01*
X130920487Y-99386525D01*
X130941691Y-99358340D01*
X130969750Y-99330281D01*
X130524980Y-98885511D01*
X130524979Y-98885511D01*
X130429873Y-98980617D01*
X130429861Y-98980630D01*
X130392925Y-99026465D01*
X130334211Y-99155030D01*
X130314097Y-99294930D01*
X130334209Y-99434815D01*
X130334211Y-99434822D01*
X130347551Y-99464032D01*
X130357654Y-99534306D01*
X130328161Y-99598887D01*
X130268435Y-99637270D01*
X130197438Y-99637270D01*
X130180595Y-99630988D01*
X130168821Y-99625611D01*
X130168815Y-99625609D01*
X130028930Y-99605497D01*
X129889030Y-99625611D01*
X129760465Y-99684325D01*
X129714630Y-99721261D01*
X129714617Y-99721273D01*
X129619511Y-99816379D01*
X129619511Y-99816380D01*
X130064281Y-100261150D01*
X130064282Y-100261150D01*
X130131737Y-100193694D01*
X130194049Y-100159669D01*
X130264865Y-100164733D01*
X130321701Y-100207280D01*
X130346512Y-100273800D01*
X130346143Y-100295960D01*
X130338170Y-100371814D01*
X130311156Y-100437471D01*
X130301956Y-100447738D01*
X130064282Y-100685414D01*
X130064281Y-100685414D01*
X129654867Y-101094828D01*
X129654867Y-101094830D01*
X129785333Y-101225296D01*
X129831176Y-101262238D01*
X129881096Y-101285036D01*
X129934752Y-101331529D01*
X129954754Y-101399649D01*
X129934752Y-101467770D01*
X129917850Y-101488745D01*
X129709002Y-101697595D01*
X129646690Y-101731620D01*
X129619906Y-101734500D01*
X122911500Y-101734500D01*
X122843379Y-101714498D01*
X122796886Y-101660842D01*
X122785500Y-101608500D01*
X122785500Y-100632312D01*
X122785500Y-100632296D01*
X122782598Y-100583581D01*
X122760065Y-100480000D01*
X122750913Y-100437930D01*
X129196497Y-100437930D01*
X129216609Y-100577815D01*
X129216611Y-100577822D01*
X129275325Y-100706387D01*
X129312267Y-100752230D01*
X129442734Y-100882697D01*
X129442736Y-100882697D01*
X129852150Y-100473283D01*
X129852150Y-100473281D01*
X129407380Y-100028511D01*
X129407379Y-100028511D01*
X129312273Y-100123617D01*
X129312261Y-100123630D01*
X129275325Y-100169465D01*
X129216611Y-100298030D01*
X129196497Y-100437930D01*
X122750913Y-100437930D01*
X122736503Y-100371686D01*
X122717314Y-100326875D01*
X122651138Y-100172337D01*
X122529589Y-99992750D01*
X122529588Y-99992749D01*
X122529586Y-99992746D01*
X122376253Y-99839413D01*
X122196666Y-99717864D01*
X122196665Y-99717863D01*
X122196663Y-99717862D01*
X121997317Y-99632498D01*
X121997316Y-99632497D01*
X121997312Y-99632496D01*
X121997313Y-99632496D01*
X121785422Y-99586402D01*
X121785423Y-99586402D01*
X121736707Y-99583500D01*
X121736704Y-99583500D01*
X119563296Y-99583500D01*
X119563292Y-99583500D01*
X119514576Y-99586402D01*
X119302686Y-99632496D01*
X119181654Y-99684325D01*
X119103337Y-99717862D01*
X119103335Y-99717862D01*
X119103333Y-99717864D01*
X118923746Y-99839413D01*
X118770413Y-99992746D01*
X118648864Y-100172333D01*
X118648862Y-100172335D01*
X118648862Y-100172337D01*
X118637015Y-100200002D01*
X118563496Y-100371686D01*
X118517402Y-100583576D01*
X118514500Y-100632292D01*
X118514500Y-101608500D01*
X118494498Y-101676621D01*
X118440842Y-101723114D01*
X118388500Y-101734500D01*
X112282530Y-101734500D01*
X112214409Y-101714498D01*
X112193435Y-101697595D01*
X111662405Y-101166565D01*
X111628379Y-101104253D01*
X111625500Y-101077470D01*
X111625500Y-98673379D01*
X130737111Y-98673379D01*
X130737111Y-98673380D01*
X131181881Y-99118150D01*
X131181883Y-99118150D01*
X131591297Y-98708736D01*
X131591297Y-98708734D01*
X131460830Y-98578267D01*
X131414987Y-98541325D01*
X131286422Y-98482611D01*
X131286415Y-98482609D01*
X131146530Y-98462497D01*
X131006630Y-98482611D01*
X130878065Y-98541325D01*
X130832230Y-98578261D01*
X130832217Y-98578273D01*
X130737111Y-98673379D01*
X111625500Y-98673379D01*
X111625500Y-98341783D01*
X132412116Y-98341783D01*
X132412116Y-98341785D01*
X132745516Y-98675185D01*
X132745517Y-98675185D01*
X133038259Y-98382442D01*
X133038259Y-98382441D01*
X132971310Y-98315492D01*
X132971307Y-98315490D01*
X132892853Y-98258490D01*
X132892853Y-98258489D01*
X132769639Y-98218456D01*
X132640078Y-98218456D01*
X132516862Y-98258489D01*
X132438409Y-98315489D01*
X132438406Y-98315492D01*
X132412116Y-98341783D01*
X111625500Y-98341783D01*
X111625500Y-94082199D01*
X111645502Y-94014078D01*
X111699158Y-93967585D01*
X111769432Y-93957481D01*
X111834012Y-93986975D01*
G37*
%TD.AperFunction*%
%TA.AperFunction,Conductor*%
G36*
X137484082Y-99521100D02*
G01*
X137529144Y-99550059D01*
X137553145Y-99574059D01*
X137587171Y-99636370D01*
X137590051Y-99663156D01*
X137590051Y-100180000D01*
X138106894Y-100180000D01*
X138175015Y-100200002D01*
X138195988Y-100216903D01*
X138219988Y-100240903D01*
X138254014Y-100303213D01*
X138248951Y-100374029D01*
X138219993Y-100419091D01*
X138204834Y-100434250D01*
X138195992Y-100443092D01*
X138133683Y-100477119D01*
X138106895Y-100480000D01*
X137590051Y-100480000D01*
X137590051Y-100996844D01*
X137570049Y-101064965D01*
X137553146Y-101085939D01*
X137529146Y-101109939D01*
X137466834Y-101143965D01*
X137396019Y-101138900D01*
X137350956Y-101109939D01*
X137326956Y-101085939D01*
X137292930Y-101023627D01*
X137290051Y-100996844D01*
X137290051Y-100480000D01*
X136773208Y-100480000D01*
X136705087Y-100459998D01*
X136684113Y-100443096D01*
X136663360Y-100422343D01*
X136636111Y-100395095D01*
X136602087Y-100332785D01*
X136604420Y-100300163D01*
X137290051Y-100300163D01*
X137290051Y-100359837D01*
X137312887Y-100414968D01*
X137355083Y-100457164D01*
X137410214Y-100480000D01*
X137469888Y-100480000D01*
X137525019Y-100457164D01*
X137567215Y-100414968D01*
X137590051Y-100359837D01*
X137590051Y-100300163D01*
X137567215Y-100245032D01*
X137525019Y-100202836D01*
X137469888Y-100180000D01*
X137410214Y-100180000D01*
X137355083Y-100202836D01*
X137312887Y-100245032D01*
X137290051Y-100300163D01*
X136604420Y-100300163D01*
X136607151Y-100261969D01*
X136649697Y-100205133D01*
X136716217Y-100180321D01*
X136725207Y-100180000D01*
X137290051Y-100180000D01*
X137290051Y-99663155D01*
X137310053Y-99595034D01*
X137326956Y-99574060D01*
X137350955Y-99550061D01*
X137413267Y-99516035D01*
X137484082Y-99521100D01*
G37*
%TD.AperFunction*%
%TA.AperFunction,Conductor*%
G36*
X112703612Y-89619835D02*
G01*
X112730219Y-89652059D01*
X112731982Y-89655114D01*
X112731984Y-89655117D01*
X112735092Y-89660500D01*
X112862039Y-89880379D01*
X113024224Y-90083754D01*
X113140197Y-90191359D01*
X113214900Y-90260673D01*
X113214903Y-90260675D01*
X113429807Y-90407195D01*
X113429814Y-90407199D01*
X113429817Y-90407201D01*
X113564923Y-90472265D01*
X113664168Y-90520059D01*
X113664181Y-90520064D01*
X113912727Y-90596730D01*
X113912730Y-90596730D01*
X113912732Y-90596731D01*
X114169942Y-90635500D01*
X114169947Y-90635500D01*
X114430053Y-90635500D01*
X114430058Y-90635500D01*
X114687268Y-90596731D01*
X114687270Y-90596730D01*
X114687272Y-90596730D01*
X114935818Y-90520064D01*
X114935820Y-90520062D01*
X114935827Y-90520061D01*
X115170183Y-90407201D01*
X115385100Y-90260673D01*
X115575779Y-90083750D01*
X115737958Y-89880383D01*
X115828535Y-89723500D01*
X115879918Y-89674507D01*
X115937654Y-89660500D01*
X135675201Y-89660500D01*
X135743322Y-89680502D01*
X135764296Y-89697405D01*
X138355425Y-92288534D01*
X138389451Y-92350846D01*
X138392330Y-92377629D01*
X138392330Y-96006578D01*
X138372328Y-96074699D01*
X138318672Y-96121192D01*
X138248398Y-96131296D01*
X138192269Y-96108514D01*
X138138327Y-96069323D01*
X137958678Y-95989338D01*
X137958677Y-95989337D01*
X137958671Y-95989335D01*
X137855766Y-95967462D01*
X137793292Y-95933734D01*
X137792868Y-95933311D01*
X137491269Y-95631712D01*
X137457243Y-95569400D01*
X137456391Y-95520109D01*
X137457754Y-95512604D01*
X137480963Y-95384767D01*
X137469456Y-95224628D01*
X137292680Y-94340744D01*
X137270679Y-94265014D01*
X137262216Y-94235884D01*
X137262215Y-94235883D01*
X137262215Y-94235881D01*
X137186123Y-94094506D01*
X137077264Y-93976495D01*
X136942477Y-93889264D01*
X136790230Y-93838294D01*
X136790218Y-93838291D01*
X135906338Y-93661516D01*
X135906342Y-93661516D01*
X135760617Y-93649395D01*
X135602041Y-93674511D01*
X135454696Y-93738273D01*
X135454694Y-93738274D01*
X135327839Y-93836672D01*
X135327834Y-93836676D01*
X134620725Y-94543784D01*
X134593180Y-94573117D01*
X134501504Y-94708015D01*
X134446671Y-94753113D01*
X134376161Y-94761407D01*
X134312359Y-94730264D01*
X134308197Y-94726287D01*
X133084307Y-93502398D01*
X133084295Y-93502384D01*
X132971196Y-93389285D01*
X132971190Y-93389280D01*
X132929859Y-93361663D01*
X132846632Y-93306053D01*
X132708230Y-93248725D01*
X132561306Y-93219500D01*
X132561303Y-93219500D01*
X113270199Y-93219500D01*
X113202078Y-93199498D01*
X113181104Y-93182595D01*
X112532005Y-92533496D01*
X112497979Y-92471184D01*
X112495100Y-92444401D01*
X112495100Y-89715059D01*
X112515102Y-89646938D01*
X112568758Y-89600445D01*
X112639032Y-89590341D01*
X112703612Y-89619835D01*
G37*
%TD.AperFunction*%
%TA.AperFunction,Conductor*%
G36*
X143944589Y-74315502D02*
G01*
X143991082Y-74369158D01*
X144001186Y-74439432D01*
X143998743Y-74451909D01*
X143967500Y-74577535D01*
X143967498Y-74577550D01*
X143964690Y-74618958D01*
X143964690Y-76341441D01*
X143967498Y-76382849D01*
X143967498Y-76382854D01*
X144012014Y-76561854D01*
X144093966Y-76727097D01*
X144093967Y-76727099D01*
X144209527Y-76870862D01*
X144353290Y-76986422D01*
X144353292Y-76986423D01*
X144518536Y-77068376D01*
X144697535Y-77112891D01*
X144707890Y-77113593D01*
X144738949Y-77115700D01*
X144738958Y-77115700D01*
X145311431Y-77115700D01*
X145336275Y-77114014D01*
X145352845Y-77112891D01*
X145531844Y-77068376D01*
X145604207Y-77032486D01*
X145674121Y-77020140D01*
X145716172Y-77032486D01*
X145788536Y-77068376D01*
X145967535Y-77112891D01*
X145977890Y-77113593D01*
X146008949Y-77115700D01*
X146008958Y-77115700D01*
X146581431Y-77115700D01*
X146606275Y-77114014D01*
X146622845Y-77112891D01*
X146801844Y-77068376D01*
X146874207Y-77032486D01*
X146944121Y-77020140D01*
X146986172Y-77032486D01*
X147058536Y-77068376D01*
X147237535Y-77112891D01*
X147247890Y-77113593D01*
X147278949Y-77115700D01*
X147278958Y-77115700D01*
X147851431Y-77115700D01*
X147876275Y-77114014D01*
X147892845Y-77112891D01*
X147892851Y-77112889D01*
X147892854Y-77112889D01*
X147918281Y-77106566D01*
X147989215Y-77109536D01*
X148047283Y-77150385D01*
X148074049Y-77216143D01*
X148074690Y-77228841D01*
X148074690Y-77663096D01*
X148085508Y-77717480D01*
X148103915Y-77810020D01*
X148161243Y-77948422D01*
X148165014Y-77954065D01*
X148244470Y-78072980D01*
X148244475Y-78072986D01*
X148354788Y-78183299D01*
X148354810Y-78183319D01*
X148570896Y-78399405D01*
X148604922Y-78461717D01*
X148599857Y-78532532D01*
X148557310Y-78589368D01*
X148490790Y-78614179D01*
X148481801Y-78614500D01*
X144505451Y-78614500D01*
X144437330Y-78594498D01*
X144390837Y-78540842D01*
X144380733Y-78470568D01*
X144383176Y-78458091D01*
X144389499Y-78432664D01*
X144389499Y-78432661D01*
X144389501Y-78432655D01*
X144391756Y-78399405D01*
X144392310Y-78391241D01*
X144392310Y-77818758D01*
X144389501Y-77777350D01*
X144389501Y-77777345D01*
X144344986Y-77598346D01*
X144263033Y-77433102D01*
X144263032Y-77433100D01*
X144147472Y-77289337D01*
X144003709Y-77173777D01*
X144003707Y-77173776D01*
X143838464Y-77091824D01*
X143659461Y-77047308D01*
X143618051Y-77044500D01*
X143618042Y-77044500D01*
X141895578Y-77044500D01*
X141895569Y-77044500D01*
X141854160Y-77047308D01*
X141854155Y-77047308D01*
X141675155Y-77091824D01*
X141509912Y-77173776D01*
X141509910Y-77173777D01*
X141366147Y-77289337D01*
X141250587Y-77433100D01*
X141250586Y-77433102D01*
X141168634Y-77598345D01*
X141124118Y-77777345D01*
X141124118Y-77777350D01*
X141121310Y-77818758D01*
X141121310Y-78391241D01*
X141124118Y-78432649D01*
X141124118Y-78432654D01*
X141148957Y-78532532D01*
X141164367Y-78594498D01*
X141168635Y-78611657D01*
X141204522Y-78684018D01*
X141216869Y-78753933D01*
X141204522Y-78795982D01*
X141168635Y-78868342D01*
X141124118Y-79047345D01*
X141124118Y-79047350D01*
X141121310Y-79088758D01*
X141121310Y-79613793D01*
X141101308Y-79681914D01*
X141047652Y-79728407D01*
X141021508Y-79737039D01*
X140958727Y-79750383D01*
X140779069Y-79830373D01*
X140619977Y-79945960D01*
X140488396Y-80092097D01*
X140488394Y-80092099D01*
X140390072Y-80262399D01*
X140390068Y-80262407D01*
X140329304Y-80449421D01*
X140329303Y-80449425D01*
X140329303Y-80449427D01*
X140308747Y-80645000D01*
X140329122Y-80838853D01*
X140329304Y-80840578D01*
X140390068Y-81027592D01*
X140390072Y-81027600D01*
X140488394Y-81197900D01*
X140488396Y-81197902D01*
X140619977Y-81344039D01*
X140619980Y-81344041D01*
X140779073Y-81459629D01*
X140934966Y-81529037D01*
X140958722Y-81539614D01*
X141021506Y-81552959D01*
X141083980Y-81586687D01*
X141118302Y-81648837D01*
X141121310Y-81676206D01*
X141121310Y-82159192D01*
X141101308Y-82227313D01*
X141047652Y-82273806D01*
X141021509Y-82282438D01*
X140984127Y-82290384D01*
X140984122Y-82290385D01*
X140984122Y-82290386D01*
X140933782Y-82312799D01*
X140804469Y-82370373D01*
X140645377Y-82485960D01*
X140513796Y-82632097D01*
X140513794Y-82632099D01*
X140415472Y-82802399D01*
X140415468Y-82802407D01*
X140354704Y-82989421D01*
X140354703Y-82989425D01*
X140354703Y-82989427D01*
X140334147Y-83185000D01*
X140346971Y-83307013D01*
X140354704Y-83380578D01*
X140415468Y-83567592D01*
X140415472Y-83567600D01*
X140513794Y-83737900D01*
X140513796Y-83737902D01*
X140645377Y-83884039D01*
X140645380Y-83884041D01*
X140804473Y-83999629D01*
X140983614Y-84079388D01*
X140984122Y-84079614D01*
X141021506Y-84087560D01*
X141083980Y-84121288D01*
X141118301Y-84183437D01*
X141121310Y-84210807D01*
X141121310Y-84741241D01*
X141124118Y-84782649D01*
X141124118Y-84782654D01*
X141168635Y-84961657D01*
X141204522Y-85034018D01*
X141216869Y-85103933D01*
X141204522Y-85145982D01*
X141168635Y-85218342D01*
X141124118Y-85397345D01*
X141124118Y-85397350D01*
X141121310Y-85438758D01*
X141121310Y-86011241D01*
X141124118Y-86052649D01*
X141124118Y-86052654D01*
X141168635Y-86231657D01*
X141204522Y-86304018D01*
X141216869Y-86373933D01*
X141204522Y-86415982D01*
X141168635Y-86488342D01*
X141124118Y-86667345D01*
X141124118Y-86667350D01*
X141121310Y-86708758D01*
X141121310Y-87281241D01*
X141124118Y-87322649D01*
X141124118Y-87322654D01*
X141168634Y-87501654D01*
X141250586Y-87666897D01*
X141250587Y-87666899D01*
X141366147Y-87810662D01*
X141509910Y-87926222D01*
X141509912Y-87926223D01*
X141675156Y-88008176D01*
X141854155Y-88052691D01*
X141864510Y-88053393D01*
X141895569Y-88055500D01*
X141895578Y-88055500D01*
X143618051Y-88055500D01*
X143642895Y-88053814D01*
X143659465Y-88052691D01*
X143838464Y-88008176D01*
X144003708Y-87926223D01*
X144147472Y-87810662D01*
X144263033Y-87666898D01*
X144344986Y-87501654D01*
X144389501Y-87322655D01*
X144390624Y-87306085D01*
X144392310Y-87281241D01*
X144392310Y-86708758D01*
X144389501Y-86667350D01*
X144389501Y-86667345D01*
X144344986Y-86488346D01*
X144309096Y-86415982D01*
X144296750Y-86346069D01*
X144309097Y-86304017D01*
X144344986Y-86231654D01*
X144389501Y-86052655D01*
X144390624Y-86036085D01*
X144392310Y-86011241D01*
X144392310Y-85438758D01*
X144389501Y-85397350D01*
X144389501Y-85397345D01*
X144385092Y-85379617D01*
X144344986Y-85218346D01*
X144309096Y-85145982D01*
X144296750Y-85076069D01*
X144309097Y-85034017D01*
X144322036Y-85007928D01*
X144344986Y-84961654D01*
X144389501Y-84782655D01*
X144391169Y-84758061D01*
X144392310Y-84741241D01*
X144392310Y-84168758D01*
X144389501Y-84127350D01*
X144389501Y-84127345D01*
X144377575Y-84079391D01*
X144344986Y-83948346D01*
X144309096Y-83875982D01*
X144296750Y-83806069D01*
X144309097Y-83764017D01*
X144322050Y-83737900D01*
X144344986Y-83691654D01*
X144389501Y-83512655D01*
X144390624Y-83496085D01*
X144392310Y-83471241D01*
X144392310Y-82898758D01*
X144389501Y-82857350D01*
X144389501Y-82857345D01*
X144385092Y-82839617D01*
X144344986Y-82678346D01*
X144309096Y-82605982D01*
X144296750Y-82536069D01*
X144309097Y-82494017D01*
X144313093Y-82485960D01*
X144344986Y-82421654D01*
X144389501Y-82242655D01*
X144390624Y-82226085D01*
X144392310Y-82201241D01*
X144392310Y-81628758D01*
X144389501Y-81587350D01*
X144389501Y-81587345D01*
X144386531Y-81575401D01*
X144344986Y-81408346D01*
X144309096Y-81335982D01*
X144296750Y-81266069D01*
X144309097Y-81224017D01*
X144337709Y-81166326D01*
X144344986Y-81151654D01*
X144389501Y-80972655D01*
X144390624Y-80956085D01*
X144392310Y-80931241D01*
X144392310Y-80358758D01*
X144389501Y-80317350D01*
X144389501Y-80317345D01*
X144387261Y-80308336D01*
X144383176Y-80291909D01*
X144386146Y-80220975D01*
X144426995Y-80162907D01*
X144492753Y-80136141D01*
X144505451Y-80135500D01*
X153658401Y-80135500D01*
X153726522Y-80155502D01*
X153747496Y-80172405D01*
X154142595Y-80567504D01*
X154176621Y-80629816D01*
X154179500Y-80656599D01*
X154179500Y-87114137D01*
X154159498Y-87182258D01*
X154105842Y-87228751D01*
X154035568Y-87238855D01*
X153993960Y-87224454D01*
X153993959Y-87224457D01*
X153993926Y-87224442D01*
X153990504Y-87223258D01*
X153987935Y-87221775D01*
X153987928Y-87221772D01*
X153987927Y-87221771D01*
X153808278Y-87141786D01*
X153615925Y-87100900D01*
X153419275Y-87100900D01*
X153226924Y-87141785D01*
X153047269Y-87221773D01*
X152888177Y-87337360D01*
X152756596Y-87483497D01*
X152756594Y-87483499D01*
X152658272Y-87653799D01*
X152658268Y-87653807D01*
X152597504Y-87840821D01*
X152597503Y-87840825D01*
X152597503Y-87840827D01*
X152594281Y-87871472D01*
X152567270Y-87937127D01*
X152509048Y-87977757D01*
X152468973Y-87984300D01*
X152358949Y-87984300D01*
X152317540Y-87987108D01*
X152317535Y-87987108D01*
X152138532Y-88031625D01*
X152066172Y-88067512D01*
X151996257Y-88079859D01*
X151954208Y-88067512D01*
X151881847Y-88031625D01*
X151881845Y-88031624D01*
X151881844Y-88031624D01*
X151702845Y-87987109D01*
X151702841Y-87987108D01*
X151661431Y-87984300D01*
X151661422Y-87984300D01*
X151088958Y-87984300D01*
X151088949Y-87984300D01*
X151047540Y-87987108D01*
X151047535Y-87987108D01*
X150868532Y-88031625D01*
X150796172Y-88067512D01*
X150726257Y-88079859D01*
X150684208Y-88067512D01*
X150611847Y-88031625D01*
X150611845Y-88031624D01*
X150611844Y-88031624D01*
X150432845Y-87987109D01*
X150432841Y-87987108D01*
X150391431Y-87984300D01*
X150391422Y-87984300D01*
X149818958Y-87984300D01*
X149818949Y-87984300D01*
X149777540Y-87987108D01*
X149777535Y-87987108D01*
X149598532Y-88031625D01*
X149526172Y-88067512D01*
X149456257Y-88079859D01*
X149414208Y-88067512D01*
X149341847Y-88031625D01*
X149341845Y-88031624D01*
X149341844Y-88031624D01*
X149162845Y-87987109D01*
X149162841Y-87987108D01*
X149121431Y-87984300D01*
X149121422Y-87984300D01*
X148548958Y-87984300D01*
X148548949Y-87984300D01*
X148507540Y-87987108D01*
X148507535Y-87987108D01*
X148328532Y-88031625D01*
X148256172Y-88067512D01*
X148186257Y-88079859D01*
X148144208Y-88067512D01*
X148071847Y-88031625D01*
X148071845Y-88031624D01*
X148071844Y-88031624D01*
X147892845Y-87987109D01*
X147892841Y-87987108D01*
X147851431Y-87984300D01*
X147851422Y-87984300D01*
X147278958Y-87984300D01*
X147278949Y-87984300D01*
X147237540Y-87987108D01*
X147237535Y-87987108D01*
X147058532Y-88031625D01*
X146986172Y-88067512D01*
X146916257Y-88079859D01*
X146874208Y-88067512D01*
X146801847Y-88031625D01*
X146801845Y-88031624D01*
X146801844Y-88031624D01*
X146622845Y-87987109D01*
X146622841Y-87987108D01*
X146581431Y-87984300D01*
X146581422Y-87984300D01*
X146008958Y-87984300D01*
X146008949Y-87984300D01*
X145967540Y-87987108D01*
X145967535Y-87987108D01*
X145788532Y-88031625D01*
X145716172Y-88067512D01*
X145646257Y-88079859D01*
X145604208Y-88067512D01*
X145531847Y-88031625D01*
X145531845Y-88031624D01*
X145531844Y-88031624D01*
X145352845Y-87987109D01*
X145352841Y-87987108D01*
X145311431Y-87984300D01*
X145311422Y-87984300D01*
X144738958Y-87984300D01*
X144738949Y-87984300D01*
X144697540Y-87987108D01*
X144697535Y-87987108D01*
X144518535Y-88031624D01*
X144353292Y-88113576D01*
X144353290Y-88113577D01*
X144209527Y-88229137D01*
X144093967Y-88372900D01*
X144093966Y-88372902D01*
X144012014Y-88538145D01*
X143967498Y-88717145D01*
X143967498Y-88717150D01*
X143964690Y-88758558D01*
X143964690Y-90481041D01*
X143967498Y-90522449D01*
X143967498Y-90522454D01*
X144012014Y-90701454D01*
X144093966Y-90866697D01*
X144093967Y-90866699D01*
X144209527Y-91010462D01*
X144353290Y-91126022D01*
X144353292Y-91126023D01*
X144518536Y-91207976D01*
X144697535Y-91252491D01*
X144707890Y-91253193D01*
X144738949Y-91255300D01*
X144738958Y-91255300D01*
X145311431Y-91255300D01*
X145336275Y-91253614D01*
X145352845Y-91252491D01*
X145352851Y-91252489D01*
X145352854Y-91252489D01*
X145378281Y-91246166D01*
X145449215Y-91249136D01*
X145507283Y-91289985D01*
X145534049Y-91355743D01*
X145534690Y-91368441D01*
X145534690Y-92798122D01*
X145517809Y-92861122D01*
X145442106Y-92992244D01*
X145390724Y-93041237D01*
X145321010Y-93054673D01*
X145255099Y-93028287D01*
X145216013Y-92976074D01*
X145169992Y-92861122D01*
X145140023Y-92786264D01*
X145057532Y-92657904D01*
X145022790Y-92603844D01*
X145022788Y-92603841D01*
X145022784Y-92603835D01*
X145022778Y-92603828D01*
X144990404Y-92567352D01*
X144990375Y-92567321D01*
X144160678Y-91737624D01*
X144160647Y-91737595D01*
X144124171Y-91705221D01*
X144124168Y-91705219D01*
X144124165Y-91705216D01*
X144124160Y-91705213D01*
X144124155Y-91705209D01*
X143941739Y-91587979D01*
X143941736Y-91587977D01*
X143807621Y-91534284D01*
X143740417Y-91507379D01*
X143740413Y-91507378D01*
X143527486Y-91466341D01*
X143527484Y-91466340D01*
X143527480Y-91466340D01*
X143310626Y-91466340D01*
X143310622Y-91466340D01*
X143310619Y-91466341D01*
X143097693Y-91507378D01*
X143097689Y-91507379D01*
X142963279Y-91561190D01*
X142896371Y-91587977D01*
X142896369Y-91587978D01*
X142896367Y-91587979D01*
X142713941Y-91705215D01*
X142677447Y-91737606D01*
X142677427Y-91737625D01*
X141140625Y-93274427D01*
X141140606Y-93274447D01*
X141108215Y-93310941D01*
X140990979Y-93493367D01*
X140990978Y-93493369D01*
X140990977Y-93493371D01*
X140987369Y-93502384D01*
X140910379Y-93694689D01*
X140910378Y-93694693D01*
X140869341Y-93907619D01*
X140869340Y-93907630D01*
X140869340Y-94124475D01*
X140869341Y-94124486D01*
X140910378Y-94337413D01*
X140910379Y-94337417D01*
X140937284Y-94404621D01*
X140990977Y-94538736D01*
X140990979Y-94538739D01*
X141108209Y-94721155D01*
X141108213Y-94721160D01*
X141108216Y-94721165D01*
X141108219Y-94721168D01*
X141108221Y-94721171D01*
X141140595Y-94757647D01*
X141140624Y-94757678D01*
X141927351Y-95544405D01*
X141961377Y-95606717D01*
X141956312Y-95677532D01*
X141913765Y-95734368D01*
X141847245Y-95759179D01*
X141838256Y-95759500D01*
X141330536Y-95759500D01*
X141330516Y-95759499D01*
X141324303Y-95759499D01*
X141174498Y-95759499D01*
X141174495Y-95759499D01*
X141027569Y-95788725D01*
X141027566Y-95788726D01*
X140889169Y-95846052D01*
X140783501Y-95916657D01*
X140715748Y-95937871D01*
X140647281Y-95919088D01*
X140599839Y-95866270D01*
X140587500Y-95811891D01*
X140587500Y-91644498D01*
X140587499Y-91644493D01*
X140582769Y-91620712D01*
X140558275Y-91497570D01*
X140500947Y-91359168D01*
X140417719Y-91234609D01*
X140417714Y-91234603D01*
X140308645Y-91125534D01*
X140308614Y-91125505D01*
X135062729Y-85879620D01*
X135062709Y-85879598D01*
X134952396Y-85769285D01*
X134952390Y-85769280D01*
X134911059Y-85741663D01*
X134827832Y-85686053D01*
X134689430Y-85628725D01*
X134542506Y-85599500D01*
X134542503Y-85599500D01*
X115937654Y-85599500D01*
X115869533Y-85579498D01*
X115828535Y-85536500D01*
X115737960Y-85379620D01*
X115609348Y-85218345D01*
X115575779Y-85176250D01*
X115575772Y-85176243D01*
X115575279Y-85175712D01*
X115575161Y-85175476D01*
X115572839Y-85172564D01*
X115573461Y-85172067D01*
X115543601Y-85112175D01*
X115551302Y-85041597D01*
X115573114Y-85007655D01*
X115572839Y-85007436D01*
X115574986Y-85004742D01*
X115575279Y-85004288D01*
X115575765Y-85003762D01*
X115575779Y-85003750D01*
X115737958Y-84800383D01*
X115868016Y-84575117D01*
X115963046Y-84332982D01*
X116020928Y-84079388D01*
X116040366Y-83820000D01*
X116020928Y-83560612D01*
X115963046Y-83307018D01*
X115868016Y-83064883D01*
X115748196Y-82857350D01*
X115737960Y-82839620D01*
X115708277Y-82802399D01*
X115575779Y-82636250D01*
X115575778Y-82636249D01*
X115575775Y-82636245D01*
X115422487Y-82494017D01*
X115385100Y-82459327D01*
X115237911Y-82358975D01*
X115237881Y-82358939D01*
X115237662Y-82358805D01*
X115170192Y-82312804D01*
X115170179Y-82312797D01*
X115093954Y-82276088D01*
X115059530Y-82251662D01*
X114604743Y-81796875D01*
X114668408Y-81760119D01*
X114780119Y-81648408D01*
X114816875Y-81584744D01*
X115359918Y-82127787D01*
X115359919Y-82127787D01*
X115372160Y-82114490D01*
X115494888Y-81926640D01*
X115585023Y-81721153D01*
X115585026Y-81721146D01*
X115640108Y-81503632D01*
X115658639Y-81280000D01*
X115640108Y-81056367D01*
X115585026Y-80838853D01*
X115585023Y-80838846D01*
X115494888Y-80633359D01*
X115372158Y-80445507D01*
X115372151Y-80445498D01*
X115359920Y-80432210D01*
X115359918Y-80432210D01*
X114816874Y-80975253D01*
X114780119Y-80911592D01*
X114668408Y-80799881D01*
X114604742Y-80763123D01*
X115059529Y-80308336D01*
X115093953Y-80283911D01*
X115170183Y-80247201D01*
X115237658Y-80201196D01*
X115237745Y-80201168D01*
X115237909Y-80201025D01*
X115385100Y-80100673D01*
X115575779Y-79923750D01*
X115737958Y-79720383D01*
X115868016Y-79495117D01*
X115963046Y-79252982D01*
X116020928Y-78999388D01*
X116040366Y-78740000D01*
X116035852Y-78679762D01*
X116035500Y-78670347D01*
X116035500Y-74421500D01*
X116055502Y-74353379D01*
X116109158Y-74306886D01*
X116161500Y-74295500D01*
X143876468Y-74295500D01*
X143944589Y-74315502D01*
G37*
%TD.AperFunction*%
%TD*%
M02*
