%TF.GenerationSoftware,KiCad,Pcbnew,8.0.6-hq-2-g3d73d9976a*%
%TF.CreationDate,2024-12-20T20:58:28+08:00*%
%TF.ProjectId,DemoBoard_SensorForTemp&Rh_IntegratedWithMCU,44656d6f-426f-4617-9264-5f53656e736f,rev?*%
%TF.SameCoordinates,Original*%
%TF.FileFunction,Legend,Bot*%
%TF.FilePolarity,Positive*%
%FSLAX46Y46*%
G04 Gerber Fmt 4.6, Leading zero omitted, Abs format (unit mm)*
G04 Created by KiCad (PCBNEW 8.0.6-hq-2-g3d73d9976a) date 2024-12-20 20:58:28*
%MOMM*%
%LPD*%
G01*
G04 APERTURE LIST*
G04 Aperture macros list*
%AMRoundRect*
0 Rectangle with rounded corners*
0 $1 Rounding radius*
0 $2 $3 $4 $5 $6 $7 $8 $9 X,Y pos of 4 corners*
0 Add a 4 corners polygon primitive as box body*
4,1,4,$2,$3,$4,$5,$6,$7,$8,$9,$2,$3,0*
0 Add four circle primitives for the rounded corners*
1,1,$1+$1,$2,$3*
1,1,$1+$1,$4,$5*
1,1,$1+$1,$6,$7*
1,1,$1+$1,$8,$9*
0 Add four rect primitives between the rounded corners*
20,1,$1+$1,$2,$3,$4,$5,0*
20,1,$1+$1,$4,$5,$6,$7,0*
20,1,$1+$1,$6,$7,$8,$9,0*
20,1,$1+$1,$8,$9,$2,$3,0*%
%AMFreePoly0*
4,1,6,1.000000,0.000000,0.500000,-0.750000,-0.500000,-0.750000,-0.500000,0.750000,0.500000,0.750000,1.000000,0.000000,1.000000,0.000000,$1*%
%AMFreePoly1*
4,1,6,0.500000,-0.750000,-0.650000,-0.750000,-0.150000,0.000000,-0.650000,0.750000,0.500000,0.750000,0.500000,-0.750000,0.500000,-0.750000,$1*%
G04 Aperture macros list end*
%ADD10C,0.150000*%
%ADD11C,0.200000*%
%ADD12C,0.120000*%
%ADD13C,0.100000*%
%ADD14C,2.200000*%
%ADD15RoundRect,0.250000X-1.060660X0.000000X0.000000X-1.060660X1.060660X0.000000X0.000000X1.060660X0*%
%ADD16RoundRect,0.155000X0.155000X-0.212500X0.155000X0.212500X-0.155000X0.212500X-0.155000X-0.212500X0*%
%ADD17RoundRect,0.500000X1.000000X0.500000X-1.000000X0.500000X-1.000000X-0.500000X1.000000X-0.500000X0*%
%ADD18FreePoly0,180.000000*%
%ADD19FreePoly1,180.000000*%
%ADD20RoundRect,0.500000X0.353553X1.060660X-1.060660X-0.353553X-0.353553X-1.060660X1.060660X0.353553X0*%
%ADD21RoundRect,0.237500X0.287500X0.237500X-0.287500X0.237500X-0.287500X-0.237500X0.287500X-0.237500X0*%
%ADD22RoundRect,0.500000X-0.353553X-1.060660X1.060660X0.353553X0.353553X1.060660X-1.060660X-0.353553X0*%
%ADD23RoundRect,0.500000X-1.000000X-0.500000X1.000000X-0.500000X1.000000X0.500000X-1.000000X0.500000X0*%
G04 APERTURE END LIST*
D10*
X118787080Y-130135333D02*
X118834700Y-130087714D01*
X118834700Y-130087714D02*
X118882319Y-129944857D01*
X118882319Y-129944857D02*
X118882319Y-129849619D01*
X118882319Y-129849619D02*
X118834700Y-129706762D01*
X118834700Y-129706762D02*
X118739461Y-129611524D01*
X118739461Y-129611524D02*
X118644223Y-129563905D01*
X118644223Y-129563905D02*
X118453747Y-129516286D01*
X118453747Y-129516286D02*
X118310890Y-129516286D01*
X118310890Y-129516286D02*
X118120414Y-129563905D01*
X118120414Y-129563905D02*
X118025176Y-129611524D01*
X118025176Y-129611524D02*
X117929938Y-129706762D01*
X117929938Y-129706762D02*
X117882319Y-129849619D01*
X117882319Y-129849619D02*
X117882319Y-129944857D01*
X117882319Y-129944857D02*
X117929938Y-130087714D01*
X117929938Y-130087714D02*
X117977557Y-130135333D01*
X117882319Y-130468667D02*
X117882319Y-131135333D01*
X117882319Y-131135333D02*
X118882319Y-130706762D01*
D11*
X150542475Y-100861600D02*
X150399618Y-100909219D01*
X150399618Y-100909219D02*
X150161523Y-100909219D01*
X150161523Y-100909219D02*
X150066285Y-100861600D01*
X150066285Y-100861600D02*
X150018666Y-100813980D01*
X150018666Y-100813980D02*
X149971047Y-100718742D01*
X149971047Y-100718742D02*
X149971047Y-100623504D01*
X149971047Y-100623504D02*
X150018666Y-100528266D01*
X150018666Y-100528266D02*
X150066285Y-100480647D01*
X150066285Y-100480647D02*
X150161523Y-100433028D01*
X150161523Y-100433028D02*
X150351999Y-100385409D01*
X150351999Y-100385409D02*
X150447237Y-100337790D01*
X150447237Y-100337790D02*
X150494856Y-100290171D01*
X150494856Y-100290171D02*
X150542475Y-100194933D01*
X150542475Y-100194933D02*
X150542475Y-100099695D01*
X150542475Y-100099695D02*
X150494856Y-100004457D01*
X150494856Y-100004457D02*
X150447237Y-99956838D01*
X150447237Y-99956838D02*
X150351999Y-99909219D01*
X150351999Y-99909219D02*
X150113904Y-99909219D01*
X150113904Y-99909219D02*
X149971047Y-99956838D01*
X148971047Y-100813980D02*
X149018666Y-100861600D01*
X149018666Y-100861600D02*
X149161523Y-100909219D01*
X149161523Y-100909219D02*
X149256761Y-100909219D01*
X149256761Y-100909219D02*
X149399618Y-100861600D01*
X149399618Y-100861600D02*
X149494856Y-100766361D01*
X149494856Y-100766361D02*
X149542475Y-100671123D01*
X149542475Y-100671123D02*
X149590094Y-100480647D01*
X149590094Y-100480647D02*
X149590094Y-100337790D01*
X149590094Y-100337790D02*
X149542475Y-100147314D01*
X149542475Y-100147314D02*
X149494856Y-100052076D01*
X149494856Y-100052076D02*
X149399618Y-99956838D01*
X149399618Y-99956838D02*
X149256761Y-99909219D01*
X149256761Y-99909219D02*
X149161523Y-99909219D01*
X149161523Y-99909219D02*
X149018666Y-99956838D01*
X149018666Y-99956838D02*
X148971047Y-100004457D01*
X148066285Y-100909219D02*
X148542475Y-100909219D01*
X148542475Y-100909219D02*
X148542475Y-99909219D01*
D10*
X125457333Y-133163819D02*
X125457333Y-133878104D01*
X125457333Y-133878104D02*
X125504952Y-134020961D01*
X125504952Y-134020961D02*
X125600190Y-134116200D01*
X125600190Y-134116200D02*
X125743047Y-134163819D01*
X125743047Y-134163819D02*
X125838285Y-134163819D01*
X124981142Y-134163819D02*
X124981142Y-133163819D01*
X124981142Y-133163819D02*
X124600190Y-133163819D01*
X124600190Y-133163819D02*
X124504952Y-133211438D01*
X124504952Y-133211438D02*
X124457333Y-133259057D01*
X124457333Y-133259057D02*
X124409714Y-133354295D01*
X124409714Y-133354295D02*
X124409714Y-133497152D01*
X124409714Y-133497152D02*
X124457333Y-133592390D01*
X124457333Y-133592390D02*
X124504952Y-133640009D01*
X124504952Y-133640009D02*
X124600190Y-133687628D01*
X124600190Y-133687628D02*
X124981142Y-133687628D01*
X124076380Y-133163819D02*
X123457333Y-133163819D01*
X123457333Y-133163819D02*
X123790666Y-133544771D01*
X123790666Y-133544771D02*
X123647809Y-133544771D01*
X123647809Y-133544771D02*
X123552571Y-133592390D01*
X123552571Y-133592390D02*
X123504952Y-133640009D01*
X123504952Y-133640009D02*
X123457333Y-133735247D01*
X123457333Y-133735247D02*
X123457333Y-133973342D01*
X123457333Y-133973342D02*
X123504952Y-134068580D01*
X123504952Y-134068580D02*
X123552571Y-134116200D01*
X123552571Y-134116200D02*
X123647809Y-134163819D01*
X123647809Y-134163819D02*
X123933523Y-134163819D01*
X123933523Y-134163819D02*
X124028761Y-134116200D01*
X124028761Y-134116200D02*
X124076380Y-134068580D01*
D11*
X127446225Y-106234464D02*
X127378881Y-106369151D01*
X127378881Y-106369151D02*
X127210522Y-106537510D01*
X127210522Y-106537510D02*
X127109507Y-106571182D01*
X127109507Y-106571182D02*
X127042164Y-106571182D01*
X127042164Y-106571182D02*
X126941148Y-106537510D01*
X126941148Y-106537510D02*
X126873805Y-106470166D01*
X126873805Y-106470166D02*
X126840133Y-106369151D01*
X126840133Y-106369151D02*
X126840133Y-106301808D01*
X126840133Y-106301808D02*
X126873805Y-106200792D01*
X126873805Y-106200792D02*
X126974820Y-106032434D01*
X126974820Y-106032434D02*
X127008492Y-105931418D01*
X127008492Y-105931418D02*
X127008492Y-105864075D01*
X127008492Y-105864075D02*
X126974820Y-105763060D01*
X126974820Y-105763060D02*
X126907477Y-105695716D01*
X126907477Y-105695716D02*
X126806461Y-105662044D01*
X126806461Y-105662044D02*
X126739118Y-105662044D01*
X126739118Y-105662044D02*
X126638103Y-105695716D01*
X126638103Y-105695716D02*
X126469744Y-105864075D01*
X126469744Y-105864075D02*
X126402400Y-105998762D01*
X126772790Y-106975243D02*
X126065683Y-106268136D01*
X126065683Y-106268136D02*
X125897324Y-106436495D01*
X125897324Y-106436495D02*
X125829981Y-106571182D01*
X125829981Y-106571182D02*
X125829981Y-106705869D01*
X125829981Y-106705869D02*
X125863652Y-106806884D01*
X125863652Y-106806884D02*
X125964668Y-106975243D01*
X125964668Y-106975243D02*
X126065683Y-107076258D01*
X126065683Y-107076258D02*
X126234042Y-107177273D01*
X126234042Y-107177273D02*
X126335057Y-107210945D01*
X126335057Y-107210945D02*
X126469744Y-107210945D01*
X126469744Y-107210945D02*
X126604431Y-107143601D01*
X126604431Y-107143601D02*
X126772790Y-106975243D01*
X125897324Y-107446647D02*
X125560607Y-107783365D01*
X126166698Y-107581334D02*
X125223889Y-107109930D01*
X125223889Y-107109930D02*
X125695294Y-108052739D01*
D10*
X161710666Y-109462580D02*
X161758285Y-109510200D01*
X161758285Y-109510200D02*
X161901142Y-109557819D01*
X161901142Y-109557819D02*
X161996380Y-109557819D01*
X161996380Y-109557819D02*
X162139237Y-109510200D01*
X162139237Y-109510200D02*
X162234475Y-109414961D01*
X162234475Y-109414961D02*
X162282094Y-109319723D01*
X162282094Y-109319723D02*
X162329713Y-109129247D01*
X162329713Y-109129247D02*
X162329713Y-108986390D01*
X162329713Y-108986390D02*
X162282094Y-108795914D01*
X162282094Y-108795914D02*
X162234475Y-108700676D01*
X162234475Y-108700676D02*
X162139237Y-108605438D01*
X162139237Y-108605438D02*
X161996380Y-108557819D01*
X161996380Y-108557819D02*
X161901142Y-108557819D01*
X161901142Y-108557819D02*
X161758285Y-108605438D01*
X161758285Y-108605438D02*
X161710666Y-108653057D01*
X161377332Y-108557819D02*
X160758285Y-108557819D01*
X160758285Y-108557819D02*
X161091618Y-108938771D01*
X161091618Y-108938771D02*
X160948761Y-108938771D01*
X160948761Y-108938771D02*
X160853523Y-108986390D01*
X160853523Y-108986390D02*
X160805904Y-109034009D01*
X160805904Y-109034009D02*
X160758285Y-109129247D01*
X160758285Y-109129247D02*
X160758285Y-109367342D01*
X160758285Y-109367342D02*
X160805904Y-109462580D01*
X160805904Y-109462580D02*
X160853523Y-109510200D01*
X160853523Y-109510200D02*
X160948761Y-109557819D01*
X160948761Y-109557819D02*
X161234475Y-109557819D01*
X161234475Y-109557819D02*
X161329713Y-109510200D01*
X161329713Y-109510200D02*
X161377332Y-109462580D01*
X121796980Y-137380742D02*
X121844600Y-137333123D01*
X121844600Y-137333123D02*
X121892219Y-137190266D01*
X121892219Y-137190266D02*
X121892219Y-137095028D01*
X121892219Y-137095028D02*
X121844600Y-136952171D01*
X121844600Y-136952171D02*
X121749361Y-136856933D01*
X121749361Y-136856933D02*
X121654123Y-136809314D01*
X121654123Y-136809314D02*
X121463647Y-136761695D01*
X121463647Y-136761695D02*
X121320790Y-136761695D01*
X121320790Y-136761695D02*
X121130314Y-136809314D01*
X121130314Y-136809314D02*
X121035076Y-136856933D01*
X121035076Y-136856933D02*
X120939838Y-136952171D01*
X120939838Y-136952171D02*
X120892219Y-137095028D01*
X120892219Y-137095028D02*
X120892219Y-137190266D01*
X120892219Y-137190266D02*
X120939838Y-137333123D01*
X120939838Y-137333123D02*
X120987457Y-137380742D01*
X121892219Y-138333123D02*
X121892219Y-137761695D01*
X121892219Y-138047409D02*
X120892219Y-138047409D01*
X120892219Y-138047409D02*
X121035076Y-137952171D01*
X121035076Y-137952171D02*
X121130314Y-137856933D01*
X121130314Y-137856933D02*
X121177933Y-137761695D01*
X120892219Y-138952171D02*
X120892219Y-139047409D01*
X120892219Y-139047409D02*
X120939838Y-139142647D01*
X120939838Y-139142647D02*
X120987457Y-139190266D01*
X120987457Y-139190266D02*
X121082695Y-139237885D01*
X121082695Y-139237885D02*
X121273171Y-139285504D01*
X121273171Y-139285504D02*
X121511266Y-139285504D01*
X121511266Y-139285504D02*
X121701742Y-139237885D01*
X121701742Y-139237885D02*
X121796980Y-139190266D01*
X121796980Y-139190266D02*
X121844600Y-139142647D01*
X121844600Y-139142647D02*
X121892219Y-139047409D01*
X121892219Y-139047409D02*
X121892219Y-138952171D01*
X121892219Y-138952171D02*
X121844600Y-138856933D01*
X121844600Y-138856933D02*
X121796980Y-138809314D01*
X121796980Y-138809314D02*
X121701742Y-138761695D01*
X121701742Y-138761695D02*
X121511266Y-138714076D01*
X121511266Y-138714076D02*
X121273171Y-138714076D01*
X121273171Y-138714076D02*
X121082695Y-138761695D01*
X121082695Y-138761695D02*
X120987457Y-138809314D01*
X120987457Y-138809314D02*
X120939838Y-138856933D01*
X120939838Y-138856933D02*
X120892219Y-138952171D01*
D11*
X123305732Y-110247957D02*
X123238388Y-110382644D01*
X123238388Y-110382644D02*
X123070030Y-110551003D01*
X123070030Y-110551003D02*
X122969014Y-110584674D01*
X122969014Y-110584674D02*
X122901671Y-110584674D01*
X122901671Y-110584674D02*
X122800656Y-110551003D01*
X122800656Y-110551003D02*
X122733312Y-110483659D01*
X122733312Y-110483659D02*
X122699640Y-110382644D01*
X122699640Y-110382644D02*
X122699640Y-110315300D01*
X122699640Y-110315300D02*
X122733312Y-110214285D01*
X122733312Y-110214285D02*
X122834327Y-110045926D01*
X122834327Y-110045926D02*
X122867999Y-109944911D01*
X122867999Y-109944911D02*
X122867999Y-109877568D01*
X122867999Y-109877568D02*
X122834327Y-109776552D01*
X122834327Y-109776552D02*
X122766984Y-109709209D01*
X122766984Y-109709209D02*
X122665969Y-109675537D01*
X122665969Y-109675537D02*
X122598625Y-109675537D01*
X122598625Y-109675537D02*
X122497610Y-109709209D01*
X122497610Y-109709209D02*
X122329251Y-109877568D01*
X122329251Y-109877568D02*
X122261908Y-110012255D01*
X122160892Y-111325453D02*
X122228236Y-111325453D01*
X122228236Y-111325453D02*
X122362923Y-111258110D01*
X122362923Y-111258110D02*
X122430266Y-111190766D01*
X122430266Y-111190766D02*
X122497610Y-111056079D01*
X122497610Y-111056079D02*
X122497610Y-110921392D01*
X122497610Y-110921392D02*
X122463938Y-110820377D01*
X122463938Y-110820377D02*
X122362923Y-110652018D01*
X122362923Y-110652018D02*
X122261908Y-110551003D01*
X122261908Y-110551003D02*
X122093549Y-110449987D01*
X122093549Y-110449987D02*
X121992534Y-110416316D01*
X121992534Y-110416316D02*
X121857847Y-110416316D01*
X121857847Y-110416316D02*
X121723160Y-110483659D01*
X121723160Y-110483659D02*
X121655816Y-110551003D01*
X121655816Y-110551003D02*
X121588472Y-110685690D01*
X121588472Y-110685690D02*
X121588472Y-110753033D01*
X121925190Y-111695842D02*
X121218083Y-110988736D01*
X121521129Y-112099903D02*
X121420114Y-111392797D01*
X120814022Y-111392797D02*
X121622144Y-111392797D01*
D10*
X128569580Y-132021342D02*
X128617200Y-131973723D01*
X128617200Y-131973723D02*
X128664819Y-131830866D01*
X128664819Y-131830866D02*
X128664819Y-131735628D01*
X128664819Y-131735628D02*
X128617200Y-131592771D01*
X128617200Y-131592771D02*
X128521961Y-131497533D01*
X128521961Y-131497533D02*
X128426723Y-131449914D01*
X128426723Y-131449914D02*
X128236247Y-131402295D01*
X128236247Y-131402295D02*
X128093390Y-131402295D01*
X128093390Y-131402295D02*
X127902914Y-131449914D01*
X127902914Y-131449914D02*
X127807676Y-131497533D01*
X127807676Y-131497533D02*
X127712438Y-131592771D01*
X127712438Y-131592771D02*
X127664819Y-131735628D01*
X127664819Y-131735628D02*
X127664819Y-131830866D01*
X127664819Y-131830866D02*
X127712438Y-131973723D01*
X127712438Y-131973723D02*
X127760057Y-132021342D01*
X128664819Y-132973723D02*
X128664819Y-132402295D01*
X128664819Y-132688009D02*
X127664819Y-132688009D01*
X127664819Y-132688009D02*
X127807676Y-132592771D01*
X127807676Y-132592771D02*
X127902914Y-132497533D01*
X127902914Y-132497533D02*
X127950533Y-132402295D01*
X127664819Y-133307057D02*
X127664819Y-133973723D01*
X127664819Y-133973723D02*
X128664819Y-133545152D01*
D11*
X131834343Y-120881430D02*
X131362939Y-120410026D01*
X131767000Y-120814087D02*
X131834343Y-120814087D01*
X131834343Y-120814087D02*
X131935359Y-120780415D01*
X131935359Y-120780415D02*
X132036374Y-120679400D01*
X132036374Y-120679400D02*
X132070046Y-120578385D01*
X132070046Y-120578385D02*
X132036374Y-120477369D01*
X132036374Y-120477369D02*
X131665985Y-120106980D01*
X132474107Y-119433545D02*
X132406763Y-119433545D01*
X132406763Y-119433545D02*
X132272076Y-119500888D01*
X132272076Y-119500888D02*
X132204733Y-119568232D01*
X132204733Y-119568232D02*
X132137389Y-119702919D01*
X132137389Y-119702919D02*
X132137389Y-119837606D01*
X132137389Y-119837606D02*
X132171061Y-119938621D01*
X132171061Y-119938621D02*
X132272076Y-120106980D01*
X132272076Y-120106980D02*
X132373091Y-120207995D01*
X132373091Y-120207995D02*
X132541450Y-120309011D01*
X132541450Y-120309011D02*
X132642465Y-120342682D01*
X132642465Y-120342682D02*
X132777152Y-120342682D01*
X132777152Y-120342682D02*
X132911839Y-120275339D01*
X132911839Y-120275339D02*
X132979183Y-120207995D01*
X132979183Y-120207995D02*
X133046527Y-120073308D01*
X133046527Y-120073308D02*
X133046527Y-120005965D01*
X132709809Y-119130499D02*
X132777152Y-118995812D01*
X132777152Y-118995812D02*
X132945511Y-118827453D01*
X132945511Y-118827453D02*
X133046527Y-118793782D01*
X133046527Y-118793782D02*
X133113870Y-118793782D01*
X133113870Y-118793782D02*
X133214885Y-118827453D01*
X133214885Y-118827453D02*
X133282229Y-118894797D01*
X133282229Y-118894797D02*
X133315901Y-118995812D01*
X133315901Y-118995812D02*
X133315901Y-119063156D01*
X133315901Y-119063156D02*
X133282229Y-119164171D01*
X133282229Y-119164171D02*
X133181214Y-119332530D01*
X133181214Y-119332530D02*
X133147542Y-119433545D01*
X133147542Y-119433545D02*
X133147542Y-119500888D01*
X133147542Y-119500888D02*
X133181214Y-119601904D01*
X133181214Y-119601904D02*
X133248557Y-119669247D01*
X133248557Y-119669247D02*
X133349572Y-119702919D01*
X133349572Y-119702919D02*
X133416916Y-119702919D01*
X133416916Y-119702919D02*
X133517931Y-119669247D01*
X133517931Y-119669247D02*
X133686290Y-119500888D01*
X133686290Y-119500888D02*
X133753633Y-119366201D01*
D10*
X120311080Y-130135333D02*
X120358700Y-130087714D01*
X120358700Y-130087714D02*
X120406319Y-129944857D01*
X120406319Y-129944857D02*
X120406319Y-129849619D01*
X120406319Y-129849619D02*
X120358700Y-129706762D01*
X120358700Y-129706762D02*
X120263461Y-129611524D01*
X120263461Y-129611524D02*
X120168223Y-129563905D01*
X120168223Y-129563905D02*
X119977747Y-129516286D01*
X119977747Y-129516286D02*
X119834890Y-129516286D01*
X119834890Y-129516286D02*
X119644414Y-129563905D01*
X119644414Y-129563905D02*
X119549176Y-129611524D01*
X119549176Y-129611524D02*
X119453938Y-129706762D01*
X119453938Y-129706762D02*
X119406319Y-129849619D01*
X119406319Y-129849619D02*
X119406319Y-129944857D01*
X119406319Y-129944857D02*
X119453938Y-130087714D01*
X119453938Y-130087714D02*
X119501557Y-130135333D01*
X120406319Y-130611524D02*
X120406319Y-130802000D01*
X120406319Y-130802000D02*
X120358700Y-130897238D01*
X120358700Y-130897238D02*
X120311080Y-130944857D01*
X120311080Y-130944857D02*
X120168223Y-131040095D01*
X120168223Y-131040095D02*
X119977747Y-131087714D01*
X119977747Y-131087714D02*
X119596795Y-131087714D01*
X119596795Y-131087714D02*
X119501557Y-131040095D01*
X119501557Y-131040095D02*
X119453938Y-130992476D01*
X119453938Y-130992476D02*
X119406319Y-130897238D01*
X119406319Y-130897238D02*
X119406319Y-130706762D01*
X119406319Y-130706762D02*
X119453938Y-130611524D01*
X119453938Y-130611524D02*
X119501557Y-130563905D01*
X119501557Y-130563905D02*
X119596795Y-130516286D01*
X119596795Y-130516286D02*
X119834890Y-130516286D01*
X119834890Y-130516286D02*
X119930128Y-130563905D01*
X119930128Y-130563905D02*
X119977747Y-130611524D01*
X119977747Y-130611524D02*
X120025366Y-130706762D01*
X120025366Y-130706762D02*
X120025366Y-130897238D01*
X120025366Y-130897238D02*
X119977747Y-130992476D01*
X119977747Y-130992476D02*
X119930128Y-131040095D01*
X119930128Y-131040095D02*
X119834890Y-131087714D01*
D11*
X148010714Y-111609400D02*
X148153571Y-111561780D01*
X148153571Y-111561780D02*
X148391666Y-111561780D01*
X148391666Y-111561780D02*
X148486904Y-111609400D01*
X148486904Y-111609400D02*
X148534523Y-111657019D01*
X148534523Y-111657019D02*
X148582142Y-111752257D01*
X148582142Y-111752257D02*
X148582142Y-111847495D01*
X148582142Y-111847495D02*
X148534523Y-111942733D01*
X148534523Y-111942733D02*
X148486904Y-111990352D01*
X148486904Y-111990352D02*
X148391666Y-112037971D01*
X148391666Y-112037971D02*
X148201190Y-112085590D01*
X148201190Y-112085590D02*
X148105952Y-112133209D01*
X148105952Y-112133209D02*
X148058333Y-112180828D01*
X148058333Y-112180828D02*
X148010714Y-112276066D01*
X148010714Y-112276066D02*
X148010714Y-112371304D01*
X148010714Y-112371304D02*
X148058333Y-112466542D01*
X148058333Y-112466542D02*
X148105952Y-112514161D01*
X148105952Y-112514161D02*
X148201190Y-112561780D01*
X148201190Y-112561780D02*
X148439285Y-112561780D01*
X148439285Y-112561780D02*
X148582142Y-112514161D01*
X149010714Y-111561780D02*
X149010714Y-112561780D01*
X149010714Y-112561780D02*
X149248809Y-112561780D01*
X149248809Y-112561780D02*
X149391666Y-112514161D01*
X149391666Y-112514161D02*
X149486904Y-112418923D01*
X149486904Y-112418923D02*
X149534523Y-112323685D01*
X149534523Y-112323685D02*
X149582142Y-112133209D01*
X149582142Y-112133209D02*
X149582142Y-111990352D01*
X149582142Y-111990352D02*
X149534523Y-111799876D01*
X149534523Y-111799876D02*
X149486904Y-111704638D01*
X149486904Y-111704638D02*
X149391666Y-111609400D01*
X149391666Y-111609400D02*
X149248809Y-111561780D01*
X149248809Y-111561780D02*
X149010714Y-111561780D01*
X149963095Y-111847495D02*
X150439285Y-111847495D01*
X149867857Y-111561780D02*
X150201190Y-112561780D01*
X150201190Y-112561780D02*
X150534523Y-111561780D01*
D10*
X119790380Y-137374333D02*
X119838000Y-137326714D01*
X119838000Y-137326714D02*
X119885619Y-137183857D01*
X119885619Y-137183857D02*
X119885619Y-137088619D01*
X119885619Y-137088619D02*
X119838000Y-136945762D01*
X119838000Y-136945762D02*
X119742761Y-136850524D01*
X119742761Y-136850524D02*
X119647523Y-136802905D01*
X119647523Y-136802905D02*
X119457047Y-136755286D01*
X119457047Y-136755286D02*
X119314190Y-136755286D01*
X119314190Y-136755286D02*
X119123714Y-136802905D01*
X119123714Y-136802905D02*
X119028476Y-136850524D01*
X119028476Y-136850524D02*
X118933238Y-136945762D01*
X118933238Y-136945762D02*
X118885619Y-137088619D01*
X118885619Y-137088619D02*
X118885619Y-137183857D01*
X118885619Y-137183857D02*
X118933238Y-137326714D01*
X118933238Y-137326714D02*
X118980857Y-137374333D01*
X119314190Y-137945762D02*
X119266571Y-137850524D01*
X119266571Y-137850524D02*
X119218952Y-137802905D01*
X119218952Y-137802905D02*
X119123714Y-137755286D01*
X119123714Y-137755286D02*
X119076095Y-137755286D01*
X119076095Y-137755286D02*
X118980857Y-137802905D01*
X118980857Y-137802905D02*
X118933238Y-137850524D01*
X118933238Y-137850524D02*
X118885619Y-137945762D01*
X118885619Y-137945762D02*
X118885619Y-138136238D01*
X118885619Y-138136238D02*
X118933238Y-138231476D01*
X118933238Y-138231476D02*
X118980857Y-138279095D01*
X118980857Y-138279095D02*
X119076095Y-138326714D01*
X119076095Y-138326714D02*
X119123714Y-138326714D01*
X119123714Y-138326714D02*
X119218952Y-138279095D01*
X119218952Y-138279095D02*
X119266571Y-138231476D01*
X119266571Y-138231476D02*
X119314190Y-138136238D01*
X119314190Y-138136238D02*
X119314190Y-137945762D01*
X119314190Y-137945762D02*
X119361809Y-137850524D01*
X119361809Y-137850524D02*
X119409428Y-137802905D01*
X119409428Y-137802905D02*
X119504666Y-137755286D01*
X119504666Y-137755286D02*
X119695142Y-137755286D01*
X119695142Y-137755286D02*
X119790380Y-137802905D01*
X119790380Y-137802905D02*
X119838000Y-137850524D01*
X119838000Y-137850524D02*
X119885619Y-137945762D01*
X119885619Y-137945762D02*
X119885619Y-138136238D01*
X119885619Y-138136238D02*
X119838000Y-138231476D01*
X119838000Y-138231476D02*
X119790380Y-138279095D01*
X119790380Y-138279095D02*
X119695142Y-138326714D01*
X119695142Y-138326714D02*
X119504666Y-138326714D01*
X119504666Y-138326714D02*
X119409428Y-138279095D01*
X119409428Y-138279095D02*
X119361809Y-138231476D01*
X119361809Y-138231476D02*
X119314190Y-138136238D01*
D11*
X127718522Y-115385233D02*
X127651179Y-115519920D01*
X127651179Y-115519920D02*
X127651179Y-115587263D01*
X127651179Y-115587263D02*
X127684850Y-115688279D01*
X127684850Y-115688279D02*
X127785866Y-115789294D01*
X127785866Y-115789294D02*
X127886881Y-115822966D01*
X127886881Y-115822966D02*
X127954224Y-115822966D01*
X127954224Y-115822966D02*
X128055240Y-115789294D01*
X128055240Y-115789294D02*
X128324614Y-115519920D01*
X128324614Y-115519920D02*
X127617507Y-114812813D01*
X127617507Y-114812813D02*
X127381804Y-115048515D01*
X127381804Y-115048515D02*
X127348133Y-115149531D01*
X127348133Y-115149531D02*
X127348133Y-115216874D01*
X127348133Y-115216874D02*
X127381804Y-115317889D01*
X127381804Y-115317889D02*
X127449148Y-115385233D01*
X127449148Y-115385233D02*
X127550163Y-115418905D01*
X127550163Y-115418905D02*
X127617507Y-115418905D01*
X127617507Y-115418905D02*
X127718522Y-115385233D01*
X127718522Y-115385233D02*
X127954224Y-115149531D01*
X126910400Y-115519920D02*
X127482820Y-116092340D01*
X127482820Y-116092340D02*
X127516491Y-116193355D01*
X127516491Y-116193355D02*
X127516491Y-116260698D01*
X127516491Y-116260698D02*
X127482820Y-116361714D01*
X127482820Y-116361714D02*
X127348133Y-116496401D01*
X127348133Y-116496401D02*
X127247117Y-116530072D01*
X127247117Y-116530072D02*
X127179774Y-116530072D01*
X127179774Y-116530072D02*
X127078759Y-116496401D01*
X127078759Y-116496401D02*
X126506339Y-115923981D01*
X126876728Y-116900462D02*
X126809385Y-117035149D01*
X126809385Y-117035149D02*
X126641026Y-117203507D01*
X126641026Y-117203507D02*
X126540011Y-117237179D01*
X126540011Y-117237179D02*
X126472667Y-117237179D01*
X126472667Y-117237179D02*
X126371652Y-117203507D01*
X126371652Y-117203507D02*
X126304308Y-117136164D01*
X126304308Y-117136164D02*
X126270637Y-117035149D01*
X126270637Y-117035149D02*
X126270637Y-116967805D01*
X126270637Y-116967805D02*
X126304308Y-116866790D01*
X126304308Y-116866790D02*
X126405324Y-116698431D01*
X126405324Y-116698431D02*
X126438995Y-116597416D01*
X126438995Y-116597416D02*
X126438995Y-116530072D01*
X126438995Y-116530072D02*
X126405324Y-116429057D01*
X126405324Y-116429057D02*
X126337980Y-116361714D01*
X126337980Y-116361714D02*
X126236965Y-116328042D01*
X126236965Y-116328042D02*
X126169621Y-116328042D01*
X126169621Y-116328042D02*
X126068606Y-116361714D01*
X126068606Y-116361714D02*
X125900247Y-116530072D01*
X125900247Y-116530072D02*
X125832904Y-116664759D01*
X125731889Y-117439210D02*
X126068606Y-117775927D01*
X125597202Y-116833118D02*
X125731889Y-117439210D01*
X125731889Y-117439210D02*
X125125797Y-117304523D01*
X151939475Y-105052600D02*
X151796618Y-105100219D01*
X151796618Y-105100219D02*
X151558523Y-105100219D01*
X151558523Y-105100219D02*
X151463285Y-105052600D01*
X151463285Y-105052600D02*
X151415666Y-105004980D01*
X151415666Y-105004980D02*
X151368047Y-104909742D01*
X151368047Y-104909742D02*
X151368047Y-104814504D01*
X151368047Y-104814504D02*
X151415666Y-104719266D01*
X151415666Y-104719266D02*
X151463285Y-104671647D01*
X151463285Y-104671647D02*
X151558523Y-104624028D01*
X151558523Y-104624028D02*
X151748999Y-104576409D01*
X151748999Y-104576409D02*
X151844237Y-104528790D01*
X151844237Y-104528790D02*
X151891856Y-104481171D01*
X151891856Y-104481171D02*
X151939475Y-104385933D01*
X151939475Y-104385933D02*
X151939475Y-104290695D01*
X151939475Y-104290695D02*
X151891856Y-104195457D01*
X151891856Y-104195457D02*
X151844237Y-104147838D01*
X151844237Y-104147838D02*
X151748999Y-104100219D01*
X151748999Y-104100219D02*
X151510904Y-104100219D01*
X151510904Y-104100219D02*
X151368047Y-104147838D01*
X150368047Y-105004980D02*
X150415666Y-105052600D01*
X150415666Y-105052600D02*
X150558523Y-105100219D01*
X150558523Y-105100219D02*
X150653761Y-105100219D01*
X150653761Y-105100219D02*
X150796618Y-105052600D01*
X150796618Y-105052600D02*
X150891856Y-104957361D01*
X150891856Y-104957361D02*
X150939475Y-104862123D01*
X150939475Y-104862123D02*
X150987094Y-104671647D01*
X150987094Y-104671647D02*
X150987094Y-104528790D01*
X150987094Y-104528790D02*
X150939475Y-104338314D01*
X150939475Y-104338314D02*
X150891856Y-104243076D01*
X150891856Y-104243076D02*
X150796618Y-104147838D01*
X150796618Y-104147838D02*
X150653761Y-104100219D01*
X150653761Y-104100219D02*
X150558523Y-104100219D01*
X150558523Y-104100219D02*
X150415666Y-104147838D01*
X150415666Y-104147838D02*
X150368047Y-104195457D01*
X149463285Y-105100219D02*
X149939475Y-105100219D01*
X149939475Y-105100219D02*
X149939475Y-104100219D01*
D10*
X117834580Y-137374333D02*
X117882200Y-137326714D01*
X117882200Y-137326714D02*
X117929819Y-137183857D01*
X117929819Y-137183857D02*
X117929819Y-137088619D01*
X117929819Y-137088619D02*
X117882200Y-136945762D01*
X117882200Y-136945762D02*
X117786961Y-136850524D01*
X117786961Y-136850524D02*
X117691723Y-136802905D01*
X117691723Y-136802905D02*
X117501247Y-136755286D01*
X117501247Y-136755286D02*
X117358390Y-136755286D01*
X117358390Y-136755286D02*
X117167914Y-136802905D01*
X117167914Y-136802905D02*
X117072676Y-136850524D01*
X117072676Y-136850524D02*
X116977438Y-136945762D01*
X116977438Y-136945762D02*
X116929819Y-137088619D01*
X116929819Y-137088619D02*
X116929819Y-137183857D01*
X116929819Y-137183857D02*
X116977438Y-137326714D01*
X116977438Y-137326714D02*
X117025057Y-137374333D01*
X116929819Y-138231476D02*
X116929819Y-138041000D01*
X116929819Y-138041000D02*
X116977438Y-137945762D01*
X116977438Y-137945762D02*
X117025057Y-137898143D01*
X117025057Y-137898143D02*
X117167914Y-137802905D01*
X117167914Y-137802905D02*
X117358390Y-137755286D01*
X117358390Y-137755286D02*
X117739342Y-137755286D01*
X117739342Y-137755286D02*
X117834580Y-137802905D01*
X117834580Y-137802905D02*
X117882200Y-137850524D01*
X117882200Y-137850524D02*
X117929819Y-137945762D01*
X117929819Y-137945762D02*
X117929819Y-138136238D01*
X117929819Y-138136238D02*
X117882200Y-138231476D01*
X117882200Y-138231476D02*
X117834580Y-138279095D01*
X117834580Y-138279095D02*
X117739342Y-138326714D01*
X117739342Y-138326714D02*
X117501247Y-138326714D01*
X117501247Y-138326714D02*
X117406009Y-138279095D01*
X117406009Y-138279095D02*
X117358390Y-138231476D01*
X117358390Y-138231476D02*
X117310771Y-138136238D01*
X117310771Y-138136238D02*
X117310771Y-137945762D01*
X117310771Y-137945762D02*
X117358390Y-137850524D01*
X117358390Y-137850524D02*
X117406009Y-137802905D01*
X117406009Y-137802905D02*
X117501247Y-137755286D01*
X122343080Y-129278142D02*
X122390700Y-129230523D01*
X122390700Y-129230523D02*
X122438319Y-129087666D01*
X122438319Y-129087666D02*
X122438319Y-128992428D01*
X122438319Y-128992428D02*
X122390700Y-128849571D01*
X122390700Y-128849571D02*
X122295461Y-128754333D01*
X122295461Y-128754333D02*
X122200223Y-128706714D01*
X122200223Y-128706714D02*
X122009747Y-128659095D01*
X122009747Y-128659095D02*
X121866890Y-128659095D01*
X121866890Y-128659095D02*
X121676414Y-128706714D01*
X121676414Y-128706714D02*
X121581176Y-128754333D01*
X121581176Y-128754333D02*
X121485938Y-128849571D01*
X121485938Y-128849571D02*
X121438319Y-128992428D01*
X121438319Y-128992428D02*
X121438319Y-129087666D01*
X121438319Y-129087666D02*
X121485938Y-129230523D01*
X121485938Y-129230523D02*
X121533557Y-129278142D01*
X122438319Y-130230523D02*
X122438319Y-129659095D01*
X122438319Y-129944809D02*
X121438319Y-129944809D01*
X121438319Y-129944809D02*
X121581176Y-129849571D01*
X121581176Y-129849571D02*
X121676414Y-129754333D01*
X121676414Y-129754333D02*
X121724033Y-129659095D01*
X121438319Y-131087666D02*
X121438319Y-130897190D01*
X121438319Y-130897190D02*
X121485938Y-130801952D01*
X121485938Y-130801952D02*
X121533557Y-130754333D01*
X121533557Y-130754333D02*
X121676414Y-130659095D01*
X121676414Y-130659095D02*
X121866890Y-130611476D01*
X121866890Y-130611476D02*
X122247842Y-130611476D01*
X122247842Y-130611476D02*
X122343080Y-130659095D01*
X122343080Y-130659095D02*
X122390700Y-130706714D01*
X122390700Y-130706714D02*
X122438319Y-130801952D01*
X122438319Y-130801952D02*
X122438319Y-130992428D01*
X122438319Y-130992428D02*
X122390700Y-131087666D01*
X122390700Y-131087666D02*
X122343080Y-131135285D01*
X122343080Y-131135285D02*
X122247842Y-131182904D01*
X122247842Y-131182904D02*
X122009747Y-131182904D01*
X122009747Y-131182904D02*
X121914509Y-131135285D01*
X121914509Y-131135285D02*
X121866890Y-131087666D01*
X121866890Y-131087666D02*
X121819271Y-130992428D01*
X121819271Y-130992428D02*
X121819271Y-130801952D01*
X121819271Y-130801952D02*
X121866890Y-130706714D01*
X121866890Y-130706714D02*
X121914509Y-130659095D01*
X121914509Y-130659095D02*
X122009747Y-130611476D01*
D12*
%TO.C,C7*%
X117881200Y-131495800D02*
X118998800Y-131495800D01*
X117881200Y-133832600D02*
X117881200Y-131495800D01*
X118490800Y-133832600D02*
X117881200Y-133832600D01*
X118490800Y-133832600D02*
X118948000Y-133832600D01*
X118998800Y-131495800D02*
X118998800Y-133832600D01*
X118998800Y-133832600D02*
X118948000Y-133832600D01*
%TO.C,JP3*%
X123224000Y-134509000D02*
X126024000Y-134509000D01*
X123224000Y-136509000D02*
X123224000Y-134509000D01*
X126024000Y-134509000D02*
X126024000Y-136509000D01*
X126024000Y-136509000D02*
X123224000Y-136509000D01*
%TO.C,C3*%
X159893000Y-106245500D02*
X159893000Y-107642500D01*
X159893000Y-107642500D02*
X163195000Y-107642500D01*
X163195000Y-106245500D02*
X159893000Y-106245500D01*
X163195000Y-107642500D02*
X163195000Y-106245500D01*
%TO.C,C10*%
X120881200Y-134086600D02*
X121998800Y-134086600D01*
X120881200Y-136423400D02*
X120881200Y-134086600D01*
X121490800Y-136423400D02*
X120881200Y-136423400D01*
X121490800Y-136423400D02*
X121948000Y-136423400D01*
X121998800Y-134086600D02*
X121998800Y-136423400D01*
X121998800Y-136423400D02*
X121948000Y-136423400D01*
%TO.C,C17*%
X126381200Y-131495800D02*
X127498800Y-131495800D01*
X126381200Y-133832600D02*
X126381200Y-131495800D01*
X126990800Y-133832600D02*
X126381200Y-133832600D01*
X126990800Y-133832600D02*
X127448000Y-133832600D01*
X127498800Y-131495800D02*
X127498800Y-133832600D01*
X127498800Y-133832600D02*
X127448000Y-133832600D01*
%TO.C,C9*%
X119381200Y-131495800D02*
X120498800Y-131495800D01*
X119381200Y-133832600D02*
X119381200Y-131495800D01*
X119990800Y-133832600D02*
X119381200Y-133832600D01*
X119990800Y-133832600D02*
X120448000Y-133832600D01*
X120498800Y-131495800D02*
X120498800Y-133832600D01*
X120498800Y-133832600D02*
X120448000Y-133832600D01*
%TO.C,C8*%
X118881200Y-134086600D02*
X119998800Y-134086600D01*
X118881200Y-136423400D02*
X118881200Y-134086600D01*
X119490800Y-136423400D02*
X118881200Y-136423400D01*
X119490800Y-136423400D02*
X119948000Y-136423400D01*
X119998800Y-134086600D02*
X119998800Y-136423400D01*
X119998800Y-136423400D02*
X119948000Y-136423400D01*
%TO.C,C6*%
X116881200Y-134086600D02*
X117998800Y-134086600D01*
X116881200Y-136423400D02*
X116881200Y-134086600D01*
X117490800Y-136423400D02*
X116881200Y-136423400D01*
X117490800Y-136423400D02*
X117948000Y-136423400D01*
X117998800Y-134086600D02*
X117998800Y-136423400D01*
X117998800Y-136423400D02*
X117948000Y-136423400D01*
%TO.C,C16*%
X121381200Y-131495800D02*
X122498800Y-131495800D01*
X121381200Y-133832600D02*
X121381200Y-131495800D01*
X121990800Y-133832600D02*
X121381200Y-133832600D01*
X121990800Y-133832600D02*
X122448000Y-133832600D01*
X122498800Y-131495800D02*
X122498800Y-133832600D01*
X122498800Y-133832600D02*
X122448000Y-133832600D01*
%TD*%
%LPC*%
D13*
X132080000Y-133985000D02*
X134620000Y-133985000D01*
X134620000Y-137795000D01*
X132080000Y-137795000D01*
X132080000Y-133985000D01*
G36*
X132080000Y-133985000D02*
G01*
X134620000Y-133985000D01*
X134620000Y-137795000D01*
X132080000Y-137795000D01*
X132080000Y-133985000D01*
G37*
X139700000Y-107315000D02*
X142240000Y-107315000D01*
X142240000Y-111125000D01*
X139700000Y-111125000D01*
X139700000Y-107315000D01*
G36*
X139700000Y-107315000D02*
G01*
X142240000Y-107315000D01*
X142240000Y-111125000D01*
X139700000Y-111125000D01*
X139700000Y-107315000D01*
G37*
X140970000Y-117475000D02*
X143510000Y-117475000D01*
X143510000Y-121285000D01*
X140970000Y-121285000D01*
X140970000Y-117475000D01*
G36*
X140970000Y-117475000D02*
G01*
X143510000Y-117475000D01*
X143510000Y-121285000D01*
X140970000Y-121285000D01*
X140970000Y-117475000D01*
G37*
X113030000Y-104775000D02*
X115570000Y-104775000D01*
X115570000Y-108585000D01*
X113030000Y-108585000D01*
X113030000Y-104775000D01*
G36*
X113030000Y-104775000D02*
G01*
X115570000Y-104775000D01*
X115570000Y-108585000D01*
X113030000Y-108585000D01*
X113030000Y-104775000D01*
G37*
X124460000Y-94615000D02*
X127000000Y-94615000D01*
X127000000Y-98425000D01*
X124460000Y-98425000D01*
X124460000Y-94615000D01*
G36*
X124460000Y-94615000D02*
G01*
X127000000Y-94615000D01*
X127000000Y-98425000D01*
X124460000Y-98425000D01*
X124460000Y-94615000D01*
G37*
X123825000Y-78740000D02*
X127635000Y-78740000D01*
X127635000Y-81280000D01*
X123825000Y-81280000D01*
X123825000Y-78740000D01*
G36*
X123825000Y-78740000D02*
G01*
X127635000Y-78740000D01*
X127635000Y-81280000D01*
X123825000Y-81280000D01*
X123825000Y-78740000D01*
G37*
X113030000Y-118745000D02*
X115570000Y-118745000D01*
X115570000Y-122555000D01*
X113030000Y-122555000D01*
X113030000Y-118745000D01*
G36*
X113030000Y-118745000D02*
G01*
X115570000Y-118745000D01*
X115570000Y-122555000D01*
X113030000Y-122555000D01*
X113030000Y-118745000D01*
G37*
D14*
%TO.C,TP7*%
X114300000Y-81280000D03*
%TD*%
%TO.C,TP10*%
X114300000Y-86360000D03*
%TD*%
%TO.C,REF\u002A\u002A*%
X161290000Y-119380000D03*
%TD*%
%TO.C,TP9*%
X114300000Y-88900000D03*
%TD*%
%TO.C,REF\u002A\u002A*%
X80010000Y-110490000D03*
%TD*%
%TO.C,REF\u002A\u002A*%
X161290000Y-99060000D03*
%TD*%
%TO.C,REF\u002A\u002A*%
X161290000Y-135890000D03*
%TD*%
%TO.C,TP8*%
X114300000Y-83820000D03*
%TD*%
%TO.C,REF\u002A\u002A*%
X80010000Y-119380000D03*
%TD*%
D15*
%TO.C,U4*%
X137440051Y-100330000D03*
%TD*%
D14*
%TO.C,REF\u002A\u002A*%
X161290000Y-54610000D03*
%TD*%
%TO.C,REF\u002A\u002A*%
X80010000Y-135890000D03*
%TD*%
%TO.C,REF\u002A\u002A*%
X80010000Y-54610000D03*
%TD*%
%TO.C,TP6*%
X114300000Y-78740000D03*
%TD*%
D16*
%TO.C,C7*%
X118440000Y-133231700D03*
X118440000Y-132096700D03*
%TD*%
D17*
%TO.C,SCL*%
X149352000Y-102285800D03*
%TD*%
D18*
%TO.C,JP3*%
X125349000Y-135509000D03*
D19*
X123899000Y-135509000D03*
%TD*%
D20*
%TO.C,SDA*%
X127635000Y-108077000D03*
%TD*%
D21*
%TO.C,C3*%
X162419000Y-106944000D03*
X160669000Y-106944000D03*
%TD*%
D16*
%TO.C,C10*%
X121440000Y-135822500D03*
X121440000Y-134687500D03*
%TD*%
D20*
%TO.C,SCK*%
X123444000Y-112141000D03*
%TD*%
D16*
%TO.C,C17*%
X126940000Y-133231700D03*
X126940000Y-132096700D03*
%TD*%
D22*
%TO.C,nCS*%
X131254500Y-118618000D03*
%TD*%
D16*
%TO.C,C9*%
X119940000Y-133231700D03*
X119940000Y-132096700D03*
%TD*%
D23*
%TO.C,SDA*%
X149225000Y-110312200D03*
%TD*%
D16*
%TO.C,C8*%
X119440000Y-135822500D03*
X119440000Y-134687500D03*
%TD*%
D20*
%TO.C,BUSY*%
X128079500Y-117665500D03*
%TD*%
D17*
%TO.C,SCL*%
X150749000Y-106426000D03*
%TD*%
D16*
%TO.C,C6*%
X117440000Y-135822500D03*
X117440000Y-134687500D03*
%TD*%
%TO.C,C16*%
X121940000Y-133231700D03*
X121940000Y-132096700D03*
%TD*%
%LPD*%
M02*
